999
"DXF R12 Output" (www.mydxf.blogspot.com)
 0 
SECTION
 2 
HEADER
 9 
$ACADVER
 1 
AC1009
 9 
$EXTMIN
 10 
 0 
 20 
 0 
 9 
$EXTMAX
 10 
 8.5 
 20 
 11 
 0 
ENDSEC
 0 
SECTION
 2 
ENTITIES
0
LINE
8
Layer 1
10
22.909500
20
46.364600
11
22.826724
21
46.366858
0
LINE
8
Layer 1
10
22.826724
20
46.366858
11
22.801748
21
46.374816
0
LINE
8
Layer 1
10
22.801748
20
46.374816
11
22.787919
21
46.388053
0
LINE
8
Layer 1
10
22.787919
20
46.388053
11
22.773780
21
46.436462
0
LINE
8
Layer 1
10
22.773780
20
46.436462
11
22.761362
21
46.527922
0
LINE
8
Layer 1
10
22.761362
20
46.527922
11
22.761556
21
46.638299
0
LINE
8
Layer 1
10
22.761556
20
46.638299
11
22.771660
21
46.734757
0
LINE
8
Layer 1
10
22.771660
20
46.734757
11
22.786223
21
46.814233
0
LINE
8
Layer 1
10
22.786223
20
46.814233
11
22.807333
21
46.872207
0
LINE
8
Layer 1
10
22.807333
20
46.872207
11
22.837996
21
46.900918
0
LINE
8
Layer 1
10
22.837996
20
46.900918
11
22.879844
21
46.920899
0
LINE
8
Layer 1
10
22.879844
20
46.920899
11
22.955914
21
46.928660
0
LINE
8
Layer 1
10
22.955914
20
46.928660
11
23.035523
21
46.914662
0
LINE
8
Layer 1
10
23.035523
20
46.914662
11
23.075097
21
46.885316
0
LINE
8
Layer 1
10
23.075097
20
46.885316
11
23.087091
21
46.837339
0
LINE
8
Layer 1
10
23.087091
20
46.837339
11
23.083507
21
46.722559
0
LINE
8
Layer 1
10
23.083507
20
46.722559
11
23.084918
21
46.626194
0
LINE
8
Layer 1
10
23.084918
20
46.626194
11
23.099029
21
46.607680
0
LINE
8
Layer 1
10
23.099029
20
46.607680
11
23.132963
21
46.598564
0
LINE
8
Layer 1
10
23.132963
20
46.598564
11
23.218369
21
46.596024
0
LINE
8
Layer 1
10
23.218369
20
46.596024
11
23.349244
21
46.610756
0
LINE
8
Layer 1
10
23.349244
20
46.610756
11
23.475188
21
46.632685
0
LINE
8
Layer 1
10
23.475188
20
46.632685
11
23.565409
21
46.646796
0
LINE
8
Layer 1
10
23.565409
20
46.646796
11
23.604528
21
46.654501
0
LINE
8
Layer 1
10
23.604528
20
46.654501
11
23.623437
21
46.713163
0
LINE
8
Layer 1
10
23.623437
20
46.713163
11
23.650982
21
46.842785
0
LINE
8
Layer 1
10
23.650982
20
46.842785
11
23.670709
21
46.965473
0
LINE
8
Layer 1
10
23.670709
20
46.965473
11
23.681518
21
47.071425
0
LINE
8
Layer 1
10
23.681518
20
47.071425
11
23.683776
21
47.196627
0
LINE
8
Layer 1
10
23.683776
20
47.196627
11
23.675309
21
47.298580
0
LINE
8
Layer 1
10
23.675309
20
47.298580
11
23.660831
21
47.358270
0
LINE
8
Layer 1
10
23.660831
20
47.358270
11
23.645111
21
47.398521
0
LINE
8
Layer 1
10
23.645111
20
47.398521
11
23.631339
21
47.418333
0
LINE
8
Layer 1
10
23.631339
20
47.418333
11
23.598130
21
47.420873
0
LINE
8
Layer 1
10
23.598130
20
47.420873
11
23.453263
21
47.394598
0
LINE
8
Layer 1
10
23.453263
20
47.394598
11
23.255284
21
47.357125
0
LINE
8
Layer 1
10
23.255284
20
47.357125
11
23.135340
21
47.340840
0
LINE
8
Layer 1
10
23.135340
20
47.340840
11
23.013395
21
47.342534
0
LINE
8
Layer 1
10
23.013395
20
47.342534
11
22.896626
21
47.352524
0
LINE
8
Layer 1
10
22.896626
20
47.352524
11
22.839702
21
47.366918
0
LINE
8
Layer 1
10
22.839702
20
47.366918
11
22.798830
21
47.387915
0
LINE
8
Layer 1
10
22.798830
20
47.387915
11
22.772471
21
47.411001
0
LINE
8
Layer 1
10
22.772471
20
47.411001
11
22.762480
21
47.932765
0
LINE
8
Layer 1
10
22.762480
20
47.932765
11
22.759658
21
48.574566
0
LINE
8
Layer 1
10
22.759658
20
48.574566
11
22.759376
21
48.704964
0
LINE
8
Layer 1
10
22.759376
20
48.704964
11
22.772753
21
48.724494
0
LINE
8
Layer 1
10
22.772753
20
48.724494
11
22.802736
21
48.756701
0
LINE
8
Layer 1
10
22.802736
20
48.756701
11
22.840148
21
48.779815
0
LINE
8
Layer 1
10
22.840148
20
48.779815
11
22.891763
21
48.798131
0
LINE
8
Layer 1
10
22.891763
20
48.798131
11
22.962923
21
48.805949
0
LINE
8
Layer 1
10
22.962923
20
48.805949
11
23.023256
21
48.800558
0
LINE
8
Layer 1
10
23.023256
20
48.800558
11
23.059239
21
48.786701
0
LINE
8
Layer 1
10
23.059239
20
48.786701
11
23.081366
21
48.773098
0
LINE
8
Layer 1
10
23.081366
20
48.773098
11
23.097339
21
48.754020
0
LINE
8
Layer 1
10
23.097339
20
48.754020
11
23.110322
21
48.616081
0
LINE
8
Layer 1
10
23.110322
20
48.616081
11
23.114329
21
48.254244
0
LINE
8
Layer 1
10
23.114329
20
48.254244
11
23.115176
21
48.016353
0
LINE
8
Layer 1
10
23.115176
20
48.016353
11
23.103577
21
47.908403
0
LINE
8
Layer 1
10
23.103577
20
47.908403
11
23.091582
21
47.718487
0
LINE
8
Layer 1
10
23.091582
20
47.718487
11
23.096239
21
47.614536
0
LINE
8
Layer 1
10
23.096239
20
47.614536
11
23.107669
21
47.571906
0
LINE
8
Layer 1
10
23.107669
20
47.571906
11
23.122373
21
47.549103
0
LINE
8
Layer 1
10
23.122373
20
47.549103
11
23.172913
21
47.550796
0
LINE
8
Layer 1
10
23.172913
20
47.550796
11
23.293092
21
47.566431
0
LINE
8
Layer 1
10
23.293092
20
47.566431
11
23.498998
21
47.598432
0
LINE
8
Layer 1
10
23.498998
20
47.598432
11
23.635935
21
47.620671
0
LINE
8
Layer 1
10
23.635935
20
47.620671
11
23.644938
21
47.622647
0
LINE
8
Layer 1
10
23.644938
20
47.622647
11
23.644900
21
48.202900
0
LINE
8
Layer 1
10
23.644900
20
48.202900
11
23.649726
21
48.799551
0
LINE
8
Layer 1
10
23.649726
20
48.799551
11
23.677610
21
48.839203
0
LINE
8
Layer 1
10
23.677610
20
48.839203
11
23.733741
21
48.877746
0
LINE
8
Layer 1
10
23.733741
20
48.877746
11
23.794828
21
48.900070
0
LINE
8
Layer 1
10
23.794828
20
48.900070
11
23.862795
21
48.907323
0
LINE
8
Layer 1
10
23.862795
20
48.907323
11
23.945531
21
48.894172
0
LINE
8
Layer 1
10
23.945531
20
48.894172
11
23.988282
21
48.880766
0
LINE
8
Layer 1
10
23.988282
20
48.880766
11
23.989976
21
48.198675
0
LINE
8
Layer 1
10
23.989976
20
48.198675
11
23.998273
21
47.418628
0
LINE
8
Layer 1
10
23.998273
20
47.418628
11
24.007304
21
47.172739
0
LINE
8
Layer 1
10
24.007304
20
47.172739
11
24.005046
21
46.960835
0
LINE
8
Layer 1
10
24.005046
20
46.960835
11
23.992346
21
46.840891
0
LINE
8
Layer 1
10
23.992346
20
46.840891
11
23.974820
21
46.742935
0
LINE
8
Layer 1
10
23.974820
20
46.742935
11
23.950944
21
46.656273
0
LINE
8
Layer 1
10
23.950944
20
46.656273
11
23.918810
21
46.587558
0
LINE
8
Layer 1
10
23.918810
20
46.587558
11
23.875932
21
46.543404
0
LINE
8
Layer 1
10
23.875932
20
46.543404
11
23.808013
21
46.501373
0
LINE
8
Layer 1
10
23.808013
20
46.501373
11
23.732047
21
46.469377
0
LINE
8
Layer 1
10
23.732047
20
46.469377
11
23.628850
21
46.445388
0
LINE
8
Layer 1
10
23.628850
20
46.445388
11
23.492912
21
46.421399
0
LINE
8
Layer 1
10
23.492912
20
46.421399
11
23.368969
21
46.405313
0
LINE
8
Layer 1
10
23.368969
20
46.405313
11
23.253021
21
46.396818
0
LINE
8
Layer 1
10
23.253021
20
46.396818
11
23.085096
21
46.380336
0
LINE
8
Layer 1
10
23.085096
20
46.380336
11
22.909176
21
46.364898
0
LINE
8
Layer 1
10
22.909176
20
46.364898
11
22.909500
21
46.364600
0
LINE
8
Layer 1
10
24.474790
20
46.541096
11
24.403439
21
46.542789
0
LINE
8
Layer 1
10
24.403439
20
46.542789
11
24.369078
21
46.556223
0
LINE
8
Layer 1
10
24.369078
20
46.556223
11
24.346472
21
46.581482
0
LINE
8
Layer 1
10
24.346472
20
46.581482
11
24.339050
21
46.690789
0
LINE
8
Layer 1
10
24.339050
20
46.690789
11
24.349887
21
46.886702
0
LINE
8
Layer 1
10
24.349887
20
46.886702
11
24.364732
21
47.048627
0
LINE
8
Layer 1
10
24.364732
20
47.048627
11
24.372860
21
47.202557
0
LINE
8
Layer 1
10
24.372860
20
47.202557
11
24.376783
21
47.492427
0
LINE
8
Layer 1
10
24.376783
20
47.492427
11
24.372775
21
47.776297
0
LINE
8
Layer 1
10
24.372775
20
47.776297
11
24.360809
21
48.012189
0
LINE
8
Layer 1
10
24.360809
20
48.012189
11
24.348871
21
48.248081
0
LINE
8
Layer 1
10
24.348871
20
48.248081
11
24.342352
21
48.519957
0
LINE
8
Layer 1
10
24.342352
20
48.519957
11
24.344609
21
48.755849
0
LINE
8
Layer 1
10
24.344609
20
48.755849
11
24.355136
21
48.835814
0
LINE
8
Layer 1
10
24.355136
20
48.835814
11
24.367385
21
48.881793
0
LINE
8
Layer 1
10
24.367385
20
48.881793
11
24.383330
21
48.912465
0
LINE
8
Layer 1
10
24.383330
20
48.912465
11
24.413785
21
48.937132
0
LINE
8
Layer 1
10
24.413785
20
48.937132
11
24.460168
21
48.957593
0
LINE
8
Layer 1
10
24.460168
20
48.957593
11
24.522579
21
48.973708
0
LINE
8
Layer 1
10
24.522579
20
48.973708
11
24.617171
21
48.987452
0
LINE
8
Layer 1
10
24.617171
20
48.987452
11
24.766661
21
48.999728
0
LINE
8
Layer 1
10
24.766661
20
48.999728
11
24.970569
21
49.017734
0
LINE
8
Layer 1
10
24.970569
20
49.017734
11
25.168477
21
49.037433
0
LINE
8
Layer 1
10
25.168477
20
49.037433
11
25.318410
21
49.050303
0
LINE
8
Layer 1
10
25.318410
20
49.050303
11
25.482336
21
49.055524
0
LINE
8
Layer 1
10
25.482336
20
49.055524
11
25.582291
21
49.055721
0
LINE
8
Layer 1
10
25.582291
20
49.055721
11
25.601256
21
49.044573
0
LINE
8
Layer 1
10
25.601256
20
49.044573
11
25.626232
21
49.021798
0
LINE
8
Layer 1
10
25.626232
20
49.021798
11
25.632244
21
48.973724
0
LINE
8
Layer 1
10
25.632244
20
48.973724
11
25.628067
21
48.878568
0
LINE
8
Layer 1
10
25.628067
20
48.878568
11
25.616298
21
48.751785
0
LINE
8
Layer 1
10
25.616298
20
48.751785
11
25.606082
21
48.676897
0
LINE
8
Layer 1
10
25.606082
20
48.676897
11
25.590870
21
48.662278
0
LINE
8
Layer 1
10
25.590870
20
48.662278
11
25.548616
21
48.646276
0
LINE
8
Layer 1
10
25.548616
20
48.646276
11
25.462656
21
48.631544
0
LINE
8
Layer 1
10
25.462656
20
48.631544
11
25.338382
21
48.627113
0
LINE
8
Layer 1
10
25.338382
20
48.627113
11
25.249008
21
48.635298
0
LINE
8
Layer 1
10
25.249008
20
48.635298
11
25.226600
21
48.642664
0
LINE
8
Layer 1
10
25.226600
20
48.642664
11
25.238820
21
48.787853
0
LINE
8
Layer 1
10
25.238820
20
48.787853
11
25.252226
21
48.938235
0
LINE
8
Layer 1
10
25.252226
20
48.938235
11
25.231426
21
48.951217
0
LINE
8
Layer 1
10
25.231426
20
48.951217
11
25.188898
21
48.961772
0
LINE
8
Layer 1
10
25.188898
20
48.961772
11
25.112814
21
48.965779
0
LINE
8
Layer 1
10
25.112814
20
48.965779
11
25.010407
21
48.959853
0
LINE
8
Layer 1
10
25.010407
20
48.959853
11
24.918569
21
48.946024
0
LINE
8
Layer 1
10
24.918569
20
48.946024
11
24.811344
21
48.923192
0
LINE
8
Layer 1
10
24.811344
20
48.923192
11
24.744787
21
48.902025
0
LINE
8
Layer 1
10
24.744787
20
48.902025
11
24.736067
21
48.827832
0
LINE
8
Layer 1
10
24.736067
20
48.827832
11
24.730846
21
48.601936
0
LINE
8
Layer 1
10
24.730846
20
48.601936
11
24.737788
21
48.318063
0
LINE
8
Layer 1
10
24.737788
20
48.318063
11
24.748569
21
48.098167
0
LINE
8
Layer 1
10
24.748569
20
48.098167
11
24.756754
21
47.793568
0
LINE
8
Layer 1
10
24.756754
20
47.793568
11
24.756677
21
47.385752
0
LINE
8
Layer 1
10
24.756677
20
47.385752
11
24.748549
21
47.130606
0
LINE
8
Layer 1
10
24.748549
20
47.130606
11
24.732801
21
46.940693
0
LINE
8
Layer 1
10
24.732801
20
46.940693
11
24.716630
21
46.733855
0
LINE
8
Layer 1
10
24.716630
20
46.733855
11
24.716540
21
46.651065
0
LINE
8
Layer 1
10
24.716540
20
46.651065
11
24.735364
21
46.640426
0
LINE
8
Layer 1
10
24.735364
20
46.640426
11
24.790290
21
46.640143
0
LINE
8
Layer 1
10
24.790290
20
46.640143
11
24.928584
21
46.654424
0
LINE
8
Layer 1
10
24.928584
20
46.654424
11
25.070519
21
46.668817
0
LINE
8
Layer 1
10
25.070519
20
46.668817
11
25.154091
21
46.677086
0
LINE
8
Layer 1
10
25.154091
20
46.677086
11
25.216061
21
46.693088
0
LINE
8
Layer 1
10
25.216061
20
46.693088
11
25.257483
21
46.721985
0
LINE
8
Layer 1
10
25.257483
20
46.721985
11
25.284435
21
46.761829
0
LINE
8
Layer 1
10
25.284435
20
46.761829
11
25.298236
21
46.829901
0
LINE
8
Layer 1
10
25.298236
20
46.829901
11
25.308283
21
46.930795
0
LINE
8
Layer 1
10
25.308283
20
46.930795
11
25.318556
21
47.082726
0
LINE
8
Layer 1
10
25.318556
20
47.082726
11
25.328716
21
47.386589
0
LINE
8
Layer 1
10
25.328716
20
47.386589
11
25.330409
21
47.618482
0
LINE
8
Layer 1
10
25.330409
20
47.618482
11
25.321745
21
47.672457
0
LINE
8
Layer 1
10
25.321745
20
47.672457
11
25.308000
21
47.715374
0
LINE
8
Layer 1
10
25.308000
20
47.715374
11
25.290531
21
47.732787
0
LINE
8
Layer 1
10
25.290531
20
47.732787
11
25.239604
21
47.730530
0
LINE
8
Layer 1
10
25.239604
20
47.730530
11
25.154613
21
47.725788
0
LINE
8
Layer 1
10
25.154613
20
47.725788
11
25.082087
21
47.731856
0
LINE
8
Layer 1
10
25.082087
20
47.731856
11
25.037612
21
47.745967
0
LINE
8
Layer 1
10
25.037612
20
47.745967
11
25.011337
21
47.766372
0
LINE
8
Layer 1
10
25.011337
20
47.766372
11
24.998383
21
47.792562
0
LINE
8
Layer 1
10
24.998383
20
47.792562
11
24.998324
21
47.823460
0
LINE
8
Layer 1
10
24.998324
20
47.823460
11
25.010713
21
47.861667
0
LINE
8
Layer 1
10
25.010713
20
47.861667
11
25.038512
21
47.905620
0
LINE
8
Layer 1
10
25.038512
20
47.905620
11
25.069568
21
47.937043
0
LINE
8
Layer 1
10
25.069568
20
47.937043
11
25.124632
21
47.951860
0
LINE
8
Layer 1
10
25.124632
20
47.951860
11
25.254573
21
47.966027
0
LINE
8
Layer 1
10
25.254573
20
47.966027
11
25.401252
21
47.978642
0
LINE
8
Layer 1
10
25.401252
20
47.978642
11
25.486116
21
47.978673
0
LINE
8
Layer 1
10
25.486116
20
47.978673
11
25.530089
21
47.966481
0
LINE
8
Layer 1
10
25.530089
20
47.966481
11
25.595531
21
47.926942
0
LINE
8
Layer 1
10
25.595531
20
47.926942
11
25.643142
21
47.895043
0
LINE
8
Layer 1
10
25.643142
20
47.895043
11
25.645682
21
47.757765
0
LINE
8
Layer 1
10
25.645682
20
47.757765
11
25.656293
21
47.498541
0
LINE
8
Layer 1
10
25.656293
20
47.498541
11
25.668598
21
47.274643
0
LINE
8
Layer 1
10
25.668598
20
47.274643
11
25.668604
21
47.091086
0
LINE
8
Layer 1
10
25.668604
20
47.091086
11
25.656243
21
46.953729
0
LINE
8
Layer 1
10
25.656243
20
46.953729
11
25.634511
21
46.844972
0
LINE
8
Layer 1
10
25.634511
20
46.844972
11
25.610579
21
46.766500
0
LINE
8
Layer 1
10
25.610579
20
46.766500
11
25.585320
21
46.725693
0
LINE
8
Layer 1
10
25.585320
20
46.725693
11
25.547480
21
46.696373
0
LINE
8
Layer 1
10
25.547480
20
46.696373
11
25.493127
21
46.670917
0
LINE
8
Layer 1
10
25.493127
20
46.670917
11
25.400126
21
46.647436
0
LINE
8
Layer 1
10
25.400126
20
46.647436
11
25.246575
21
46.621274
0
LINE
8
Layer 1
10
25.246575
20
46.621274
11
25.060658
21
46.595225
0
LINE
8
Layer 1
10
25.060658
20
46.595225
11
24.844758
21
46.571151
0
LINE
8
Layer 1
10
24.844758
20
46.571151
11
24.624856
21
46.551170
0
LINE
8
Layer 1
10
24.624856
20
46.551170
11
24.474923
21
46.541377
0
LINE
8
Layer 1
10
24.474923
20
46.541377
11
24.474790
21
46.541096
0
LINE
8
Layer 1
10
26.118040
20
46.713291
11
26.062067
21
46.714420
0
LINE
8
Layer 1
10
26.062067
20
46.714420
11
26.035849
21
46.720093
0
LINE
8
Layer 1
10
26.035849
20
46.720093
11
26.024785
21
46.893660
0
LINE
8
Layer 1
10
26.024785
20
46.893660
11
26.013948
21
47.172405
0
LINE
8
Layer 1
10
26.013948
20
47.172405
11
25.992161
21
47.520246
0
LINE
8
Layer 1
10
25.992161
20
47.520246
11
25.970288
21
47.866089
0
LINE
8
Layer 1
10
25.970288
20
47.866089
11
25.959874
21
48.073993
0
LINE
8
Layer 1
10
25.959874
20
48.073993
11
25.955444
21
48.355865
0
LINE
8
Layer 1
10
25.955444
20
48.355865
11
25.959931
21
48.619743
0
LINE
8
Layer 1
10
25.959931
20
48.619743
11
25.972490
21
48.791667
0
LINE
8
Layer 1
10
25.972490
20
48.791667
11
25.988492
21
48.937601
0
LINE
8
Layer 1
10
25.988492
20
48.937601
11
26.004409
21
49.043553
0
LINE
8
Layer 1
10
26.004409
20
49.043553
11
26.014625
21
49.102932
0
LINE
8
Layer 1
10
26.014625
20
49.102932
11
26.037542
21
49.123704
0
LINE
8
Layer 1
10
26.037542
20
49.123704
11
26.098107
21
49.141088
0
LINE
8
Layer 1
10
26.098107
20
49.141088
11
26.192064
21
49.155312
0
LINE
8
Layer 1
10
26.192064
20
49.155312
11
26.306014
21
49.161465
0
LINE
8
Layer 1
10
26.306014
20
49.161465
11
26.375697
21
49.156470
0
LINE
8
Layer 1
10
26.375697
20
49.156470
11
26.400618
21
49.123546
0
LINE
8
Layer 1
10
26.400618
20
49.123546
11
26.444382
21
49.033587
0
LINE
8
Layer 1
10
26.444382
20
49.033587
11
26.498292
21
48.909217
0
LINE
8
Layer 1
10
26.498292
20
48.909217
11
26.585335
21
48.681323
0
LINE
8
Layer 1
10
26.585335
20
48.681323
11
26.667060
21
48.465844
0
LINE
8
Layer 1
10
26.667060
20
48.465844
11
26.731060
21
48.313913
0
LINE
8
Layer 1
10
26.731060
20
48.313913
11
26.836873
21
48.074024
0
LINE
8
Layer 1
10
26.836873
20
48.074024
11
26.992818
21
47.732180
0
LINE
8
Layer 1
10
26.992818
20
47.732180
11
27.146781
21
47.401170
0
LINE
8
Layer 1
10
27.146781
20
47.401170
11
27.209127
21
47.280551
0
LINE
8
Layer 1
10
27.209127
20
47.280551
11
27.211667
21
47.575577
0
LINE
8
Layer 1
10
27.211667
20
47.575577
11
27.205825
21
48.090017
0
LINE
8
Layer 1
10
27.205825
20
48.090017
11
27.203567
21
48.769706
0
LINE
8
Layer 1
10
27.203567
20
48.769706
11
27.209804
21
49.230414
0
LINE
8
Layer 1
10
27.209804
20
49.230414
11
27.225213
21
49.245005
0
LINE
8
Layer 1
10
27.225213
20
49.245005
11
27.257607
21
49.259314
0
LINE
8
Layer 1
10
27.257607
20
49.259314
11
27.316010
21
49.271703
0
LINE
8
Layer 1
10
27.316010
20
49.271703
11
27.462139
21
49.283472
0
LINE
8
Layer 1
10
27.462139
20
49.283472
11
27.576893
21
49.289455
0
LINE
8
Layer 1
10
27.576893
20
49.289455
11
27.581634
21
49.285448
0
LINE
8
Layer 1
10
27.581634
20
49.285448
11
27.573619
21
49.214480
0
LINE
8
Layer 1
10
27.573619
20
49.214480
11
27.563233
21
49.059571
0
LINE
8
Layer 1
10
27.563233
20
49.059571
11
27.558464
21
48.745715
0
LINE
8
Layer 1
10
27.558464
20
48.745715
11
27.565011
21
48.267933
0
LINE
8
Layer 1
10
27.565011
20
48.267933
11
27.573788
21
47.956075
0
LINE
8
Layer 1
10
27.573788
20
47.956075
11
27.585811
21
47.726180
0
LINE
8
Layer 1
10
27.585811
20
47.726180
11
27.600091
21
47.442307
0
LINE
8
Layer 1
10
27.600091
20
47.442307
11
27.602067
21
47.228405
0
LINE
8
Layer 1
10
27.602067
20
47.228405
11
27.593713
21
47.062481
0
LINE
8
Layer 1
10
27.593713
20
47.062481
11
27.583694
21
46.966526
0
LINE
8
Layer 1
10
27.583694
20
46.966526
11
27.574832
21
46.915206
0
LINE
8
Layer 1
10
27.574832
20
46.915206
11
27.556996
21
46.883832
0
LINE
8
Layer 1
10
27.556996
20
46.883832
11
27.514728
21
46.864556
0
LINE
8
Layer 1
10
27.514728
20
46.864556
11
27.441649
21
46.848046
0
LINE
8
Layer 1
10
27.441649
20
46.848046
11
27.323006
21
46.840652
0
LINE
8
Layer 1
10
27.323006
20
46.840652
11
27.237134
21
46.848921
0
LINE
8
Layer 1
10
27.237134
20
46.848921
11
27.209420
21
46.911938
0
LINE
8
Layer 1
10
27.209420
20
46.911938
11
27.177972
21
47.007530
0
LINE
8
Layer 1
10
27.177972
20
47.007530
11
27.133358
21
47.118607
0
LINE
8
Layer 1
10
27.133358
20
47.118607
11
27.058397
21
47.280535
0
LINE
8
Layer 1
10
27.058397
20
47.280535
11
26.948982
21
47.494262
0
LINE
8
Layer 1
10
26.948982
20
47.494262
11
26.852892
21
47.680176
0
LINE
8
Layer 1
10
26.852892
20
47.680176
11
26.800932
21
47.788129
0
LINE
8
Layer 1
10
26.800932
20
47.788129
11
26.582015
21
48.281905
0
LINE
8
Layer 1
10
26.582015
20
48.281905
11
26.379591
21
48.735498
0
LINE
8
Layer 1
10
26.379591
20
48.735498
11
26.376148
21
48.575571
0
LINE
8
Layer 1
10
26.376148
20
48.575571
11
26.380042
21
48.145967
0
LINE
8
Layer 1
10
26.380042
20
48.145967
11
26.389920
21
47.444284
0
LINE
8
Layer 1
10
26.389920
20
47.444284
11
26.397540
21
46.887454
0
LINE
8
Layer 1
10
26.397540
20
46.887454
11
26.399233
21
46.766426
0
LINE
8
Layer 1
10
26.399233
20
46.766426
11
26.389158
21
46.758495
0
LINE
8
Layer 1
10
26.389158
20
46.758495
11
26.358647
21
46.744469
0
LINE
8
Layer 1
10
26.358647
20
46.744469
11
26.290228
21
46.730725
0
LINE
8
Layer 1
10
26.290228
20
46.730725
11
26.198271
21
46.719041
0
LINE
8
Layer 1
10
26.198271
20
46.719041
11
26.118307
21
46.713255
0
LINE
8
Layer 1
10
26.118307
20
46.713255
11
26.118040
21
46.713291
 0 
ENDSEC
 0 
EOF