999
"DXF R12 Output" (www.mydxf.blogspot.com)
 0 
SECTION
 2 
HEADER
 9 
$ACADVER
 1 
AC1009
 9 
$EXTMIN
 10 
 0 
 20 
 0 
 9 
$EXTMAX
 10 
 8.5 
 20 
 11 
 0 
ENDSEC
 0 
SECTION
 2 
ENTITIES
0
LINE
8
Layer 1
10
17.018400
20
67.021300
11
16.388797
21
66.993950
0
LINE
8
Layer 1
10
16.388797
20
66.993950
11
15.759193
21
66.966857
0
LINE
8
Layer 1
10
15.759193
20
66.966857
11
15.515600
21
66.966800
0
LINE
8
Layer 1
10
15.515600
20
66.966800
11
15.272000
21
66.966800
0
LINE
8
Layer 1
10
15.272000
20
66.966800
11
15.272000
21
66.796800
0
LINE
8
Layer 1
10
15.272000
20
66.796800
11
15.272000
21
66.626700
0
LINE
8
Layer 1
10
15.272000
20
66.626700
11
16.043523
21
66.656632
0
LINE
8
Layer 1
10
16.043523
20
66.656632
11
16.815045
21
66.686565
0
LINE
8
Layer 1
10
16.815045
20
66.686565
11
16.815100
21
66.398900
0
LINE
8
Layer 1
10
16.815100
20
66.398900
11
16.815100
21
66.110900
0
LINE
8
Layer 1
10
16.815100
20
66.110900
11
16.169757
21
65.131403
0
LINE
8
Layer 1
10
16.169757
20
65.131403
11
15.524155
21
64.151904
0
LINE
8
Layer 1
10
15.524155
20
64.151904
11
15.523365
21
64.032435
0
LINE
8
Layer 1
10
15.523365
20
64.032435
11
15.522292
21
63.912707
0
LINE
8
Layer 1
10
15.522292
20
63.912707
11
15.782907
21
63.937478
0
LINE
8
Layer 1
10
15.782907
20
63.937478
11
16.043522
21
63.962248
0
LINE
8
Layer 1
10
16.043522
20
63.962248
11
16.507983
21
63.989082
0
LINE
8
Layer 1
10
16.507983
20
63.989082
11
16.972445
21
64.016175
0
LINE
8
Layer 1
10
16.972445
20
64.016175
11
16.997476
21
64.167383
0
LINE
8
Layer 1
10
16.997476
20
64.167383
11
17.022506
21
64.318591
0
LINE
8
Layer 1
10
17.022506
20
64.318591
11
17.023014
21
64.537663
0
LINE
8
Layer 1
10
17.023014
20
64.537663
11
17.023522
21
64.756476
0
LINE
8
Layer 1
10
17.023522
20
64.756476
11
16.835900
21
64.756500
0
LINE
8
Layer 1
10
16.835900
20
64.756500
11
16.648100
21
64.756500
0
LINE
8
Layer 1
10
16.648100
20
64.756500
11
16.648100
21
64.676500
0
LINE
8
Layer 1
10
16.648100
20
64.676500
11
16.648100
21
64.596500
0
LINE
8
Layer 1
10
16.648100
20
64.596500
11
16.622813
21
64.530701
0
LINE
8
Layer 1
10
16.622813
20
64.530701
11
16.597526
21
64.464644
0
LINE
8
Layer 1
10
16.597526
20
64.464644
11
16.268500
21
64.464600
0
LINE
8
Layer 1
10
16.268500
20
64.464600
11
15.939300
21
64.464600
0
LINE
8
Layer 1
10
15.939300
20
64.464600
11
15.939300
21
64.486100
0
LINE
8
Layer 1
10
15.939300
20
64.486100
11
15.939300
21
64.507700
0
LINE
8
Layer 1
10
15.939300
20
64.507700
11
16.453821
21
65.291867
0
LINE
8
Layer 1
10
16.453821
20
65.291867
11
16.968599
21
66.076033
0
LINE
8
Layer 1
10
16.968599
20
66.076033
11
16.993370
21
66.548493
0
LINE
8
Layer 1
10
16.993370
20
66.548493
11
17.018400
21
67.021300
0
LINE
8
Layer 1
10
19.019970
20
67.021300
11
18.390367
21
66.993950
0
LINE
8
Layer 1
10
18.390367
20
66.993950
11
17.760763
21
66.966857
0
LINE
8
Layer 1
10
17.760763
20
66.966857
11
17.517200
21
66.966800
0
LINE
8
Layer 1
10
17.517200
20
66.966800
11
17.273600
21
66.966800
0
LINE
8
Layer 1
10
17.273600
20
66.966800
11
17.273600
21
66.796800
0
LINE
8
Layer 1
10
17.273600
20
66.796800
11
17.273600
21
66.626700
0
LINE
8
Layer 1
10
17.273600
20
66.626700
11
18.045123
21
66.656632
0
LINE
8
Layer 1
10
18.045123
20
66.656632
11
18.816645
21
66.686565
0
LINE
8
Layer 1
10
18.816645
20
66.686565
11
18.816700
21
66.398900
0
LINE
8
Layer 1
10
18.816700
20
66.398900
11
18.816700
21
66.110900
0
LINE
8
Layer 1
10
18.816700
20
66.110900
11
18.171357
21
65.131403
0
LINE
8
Layer 1
10
18.171357
20
65.131403
11
17.526013
21
64.151904
0
LINE
8
Layer 1
10
17.526013
20
64.151904
11
17.524941
21
64.032435
0
LINE
8
Layer 1
10
17.524941
20
64.032435
11
17.523868
21
63.912707
0
LINE
8
Layer 1
10
17.523868
20
63.912707
11
17.784481
21
63.937478
0
LINE
8
Layer 1
10
17.784481
20
63.937478
11
18.045096
21
63.962248
0
LINE
8
Layer 1
10
18.045096
20
63.962248
11
18.509816
21
63.989082
0
LINE
8
Layer 1
10
18.509816
20
63.989082
11
18.974277
21
64.016175
0
LINE
8
Layer 1
10
18.974277
20
64.016175
11
18.999307
21
64.167383
0
LINE
8
Layer 1
10
18.999307
20
64.167383
11
19.024338
21
64.318591
0
LINE
8
Layer 1
10
19.024338
20
64.318591
11
19.024602
21
64.537663
0
LINE
8
Layer 1
10
19.024602
20
64.537663
11
19.025110
21
64.756476
0
LINE
8
Layer 1
10
19.025110
20
64.756476
11
18.837500
21
64.756500
0
LINE
8
Layer 1
10
18.837500
20
64.756500
11
18.649900
21
64.756500
0
LINE
8
Layer 1
10
18.649900
20
64.756500
11
18.649900
21
64.676500
0
LINE
8
Layer 1
10
18.649900
20
64.676500
11
18.649900
21
64.596500
0
LINE
8
Layer 1
10
18.649900
20
64.596500
11
18.624613
21
64.530701
0
LINE
8
Layer 1
10
18.624613
20
64.530701
11
18.599066
21
64.464644
0
LINE
8
Layer 1
10
18.599066
20
64.464644
11
18.270100
21
64.464600
0
LINE
8
Layer 1
10
18.270100
20
64.464600
11
17.940800
21
64.464600
0
LINE
8
Layer 1
10
17.940800
20
64.464600
11
17.940800
21
64.486100
0
LINE
8
Layer 1
10
17.940800
20
64.486100
11
17.940800
21
64.507700
0
LINE
8
Layer 1
10
17.940800
20
64.507700
11
18.455579
21
65.291867
0
LINE
8
Layer 1
10
18.455579
20
65.291867
11
18.970099
21
66.076033
0
LINE
8
Layer 1
10
18.970099
20
66.076033
11
18.995129
21
66.548493
0
LINE
8
Layer 1
10
18.995129
20
66.548493
11
19.019970
21
67.021300
0
LINE
8
Layer 1
10
13.991660
20
67.010200
11
13.776975
21
66.964270
0
LINE
8
Layer 1
10
13.776975
20
66.964270
11
13.562548
21
66.918081
0
LINE
8
Layer 1
10
13.562548
20
66.918081
11
13.563620
21
65.764411
0
LINE
8
Layer 1
10
13.563620
20
65.764411
11
13.564411
21
64.610741
0
LINE
8
Layer 1
10
13.564411
20
64.610741
11
13.603116
21
64.443793
0
LINE
8
Layer 1
10
13.603116
20
64.443793
11
13.641821
21
64.277103
0
LINE
8
Layer 1
10
13.641821
20
64.277103
11
13.731875
21
64.204080
0
LINE
8
Layer 1
10
13.731875
20
64.204080
11
13.821929
21
64.131056
0
LINE
8
Layer 1
10
13.821929
20
64.131056
11
14.001500
21
64.131000
0
LINE
8
Layer 1
10
14.001500
20
64.131000
11
14.181400
21
64.131000
0
LINE
8
Layer 1
10
14.181400
20
64.131000
11
14.248748
21
64.157063
0
LINE
8
Layer 1
10
14.248748
20
64.157063
11
14.316353
21
64.182867
0
LINE
8
Layer 1
10
14.316353
20
64.182867
11
14.379313
21
64.304401
0
LINE
8
Layer 1
10
14.379313
20
64.304401
11
14.442015
21
64.425935
0
LINE
8
Layer 1
10
14.442015
20
64.425935
11
14.480720
21
65.122885
0
LINE
8
Layer 1
10
14.480720
20
65.122885
11
14.519167
21
65.819835
0
LINE
8
Layer 1
10
14.519167
20
65.819835
11
14.546777
21
66.226497
0
LINE
8
Layer 1
10
14.546777
20
66.226497
11
14.574127
21
66.633159
0
LINE
8
Layer 1
10
14.574127
20
66.633159
11
14.365100
21
66.633200
0
LINE
8
Layer 1
10
14.365100
20
66.633200
11
14.156100
21
66.633200
0
LINE
8
Layer 1
10
14.156100
20
66.633200
11
14.131070
21
66.539276
0
LINE
8
Layer 1
10
14.131070
20
66.539276
11
14.105783
21
66.445609
0
LINE
8
Layer 1
10
14.105783
20
66.445609
11
14.105275
21
66.080491
0
LINE
8
Layer 1
10
14.105275
20
66.080491
11
14.104767
21
65.715630
0
LINE
8
Layer 1
10
14.104767
20
65.715630
11
14.191400
21
65.715600
0
LINE
8
Layer 1
10
14.191400
20
65.715600
11
14.278100
21
65.715600
0
LINE
8
Layer 1
10
14.278100
20
65.715600
11
14.251007
21
65.288296
0
LINE
8
Layer 1
10
14.251007
20
65.288296
11
14.223913
21
64.860733
0
LINE
8
Layer 1
10
14.223913
20
64.860733
11
14.180563
21
64.747456
0
LINE
8
Layer 1
10
14.180563
20
64.747456
11
14.137472
21
64.634178
0
LINE
8
Layer 1
10
14.137472
20
64.634178
11
14.059029
21
64.609407
0
LINE
8
Layer 1
10
14.059029
20
64.609407
11
13.980846
21
64.584637
0
LINE
8
Layer 1
10
13.980846
20
64.584637
11
13.865504
21
64.639856
0
LINE
8
Layer 1
10
13.865504
20
64.639856
11
13.750162
21
64.695076
0
LINE
8
Layer 1
10
13.750162
20
64.695076
11
13.738551
21
65.330357
0
LINE
8
Layer 1
10
13.738551
20
65.330357
11
13.727200
21
65.965894
0
LINE
8
Layer 1
10
13.727200
20
65.965894
11
13.847700
21
65.965900
0
LINE
8
Layer 1
10
13.847700
20
65.965900
11
13.968300
21
65.965900
0
LINE
8
Layer 1
10
13.968300
20
65.965900
11
13.989977
21
66.476808
0
LINE
8
Layer 1
10
13.989977
20
66.476808
11
14.011649
21
66.987457
0
LINE
8
Layer 1
10
14.011649
20
66.987457
11
14.001848
21
66.998808
0
LINE
8
Layer 1
10
14.001848
20
66.998808
11
13.991660
21
67.010200
0
LINE
8
Layer 1
10
10.684950
20
66.975366
11
10.685000
21
66.762400
0
LINE
8
Layer 1
10
10.685000
20
66.762400
11
10.685000
21
66.549800
0
LINE
8
Layer 1
10
10.685000
20
66.549800
11
11.386000
21
66.549800
0
LINE
8
Layer 1
10
11.386000
20
66.549800
11
12.087100
21
66.549800
0
LINE
8
Layer 1
10
12.087100
20
66.549800
11
12.178444
21
66.464649
0
LINE
8
Layer 1
10
12.178444
20
66.464649
11
12.269788
21
66.379756
0
LINE
8
Layer 1
10
12.269788
20
66.379756
11
12.269523
21
65.974642
0
LINE
8
Layer 1
10
12.269523
20
65.974642
11
12.269259
21
65.569787
0
LINE
8
Layer 1
10
12.269259
20
65.569787
11
12.186688
21
65.434061
0
LINE
8
Layer 1
10
12.186688
20
65.434061
11
12.104117
21
65.298593
0
LINE
8
Layer 1
10
12.104117
20
65.298593
11
12.051220
21
65.296759
0
LINE
8
Layer 1
10
12.051220
20
65.296759
11
11.998581
21
65.294925
0
LINE
8
Layer 1
10
11.998581
20
65.294925
11
12.152369
21
65.213643
0
LINE
8
Layer 1
10
12.152369
20
65.213643
11
12.306157
21
65.132363
0
LINE
8
Layer 1
10
12.306157
20
65.132363
11
12.371182
21
65.039470
0
LINE
8
Layer 1
10
12.371182
20
65.039470
11
12.436465
21
64.946320
0
LINE
8
Layer 1
10
12.436465
20
64.946320
11
12.435957
21
64.569848
0
LINE
8
Layer 1
10
12.435957
20
64.569848
11
12.435166
21
64.193633
0
LINE
8
Layer 1
10
12.435166
20
64.193633
11
12.383044
21
64.090420
0
LINE
8
Layer 1
10
12.383044
20
64.090420
11
12.330920
21
63.987464
0
LINE
8
Layer 1
10
12.330920
20
63.987464
11
12.190034
21
63.892508
0
LINE
8
Layer 1
10
12.190034
20
63.892508
11
12.048889
21
63.797294
0
LINE
8
Layer 1
10
12.048889
20
63.797294
11
11.387800
21
63.797300
0
LINE
8
Layer 1
10
11.387800
20
63.797300
11
10.726700
21
63.797300
0
LINE
8
Layer 1
10
10.726700
20
63.797300
11
10.726700
21
63.647400
0
LINE
8
Layer 1
10
10.726700
20
63.647400
11
10.726700
21
63.497500
0
LINE
8
Layer 1
10
10.726700
20
63.497500
11
11.487642
21
63.512980
0
LINE
8
Layer 1
10
11.487642
20
63.512980
11
12.248843
21
63.528203
0
LINE
8
Layer 1
10
12.248843
20
63.528203
11
12.445724
21
63.618257
0
LINE
8
Layer 1
10
12.445724
20
63.618257
11
12.642861
21
63.708311
0
LINE
8
Layer 1
10
12.642861
20
63.708311
11
12.726980
21
63.846875
0
LINE
8
Layer 1
10
12.726980
20
63.846875
11
12.811357
21
63.985182
0
LINE
8
Layer 1
10
12.811357
20
63.985182
11
12.811621
21
64.581240
0
LINE
8
Layer 1
10
12.811621
20
64.581240
11
12.811886
21
65.177299
0
LINE
8
Layer 1
10
12.811886
20
65.177299
11
12.709446
21
65.279738
0
LINE
8
Layer 1
10
12.709446
20
65.279738
11
12.607007
21
65.382178
0
LINE
8
Layer 1
10
12.607007
20
65.382178
11
12.511275
21
65.385519
0
LINE
8
Layer 1
10
12.511275
20
65.385519
11
12.415545
21
65.388861
0
LINE
8
Layer 1
10
12.415545
20
65.388861
11
12.559528
21
65.451562
0
LINE
8
Layer 1
10
12.559528
20
65.451562
11
12.703512
21
65.514264
0
LINE
8
Layer 1
10
12.703512
20
65.514264
11
12.756409
21
65.583675
0
LINE
8
Layer 1
10
12.756409
20
65.583675
11
12.809048
21
65.653088
0
LINE
8
Layer 1
10
12.809048
20
65.653088
11
12.810347
21
66.103357
0
LINE
8
Layer 1
10
12.810347
20
66.103357
11
12.811645
21
66.553885
0
LINE
8
Layer 1
10
12.811645
20
66.553885
11
12.750748
21
66.671548
0
LINE
8
Layer 1
10
12.750748
20
66.671548
11
12.689852
21
66.789470
0
LINE
8
Layer 1
10
12.689852
20
66.789470
11
12.511035
21
66.864815
0
LINE
8
Layer 1
10
12.511035
20
66.864815
11
12.332217
21
66.940161
0
LINE
8
Layer 1
10
12.332217
20
66.940161
11
11.508571
21
66.957710
0
LINE
8
Layer 1
10
11.508571
20
66.957710
11
10.684950
21
66.975366
0
LINE
8
Layer 1
10
13.478940
20
66.923758
11
13.218325
21
66.897698
0
LINE
8
Layer 1
10
13.218325
20
66.897698
11
12.957712
21
66.871635
0
LINE
8
Layer 1
10
12.957712
20
66.871635
11
12.945071
21
66.861314
0
LINE
8
Layer 1
10
12.945071
20
66.861314
11
12.932428
21
66.850993
0
LINE
8
Layer 1
10
12.932428
20
66.850993
11
12.961585
21
66.429366
0
LINE
8
Layer 1
10
12.961585
20
66.429366
11
12.990483
21
66.007738
0
LINE
8
Layer 1
10
12.990483
20
66.007738
11
13.113800
21
66.007700
0
LINE
8
Layer 1
10
13.113800
20
66.007700
11
13.236900
21
66.007700
0
LINE
8
Layer 1
10
13.236900
20
66.007700
11
13.206709
21
65.118514
0
LINE
8
Layer 1
10
13.206709
20
65.118514
11
13.176519
21
64.229328
0
LINE
8
Layer 1
10
13.176519
20
64.229328
11
13.261671
21
64.037351
0
LINE
8
Layer 1
10
13.261671
20
64.037351
11
13.346563
21
63.845115
0
LINE
8
Layer 1
10
13.346563
20
63.845115
11
13.485387
21
63.773124
0
LINE
8
Layer 1
10
13.485387
20
63.773124
11
13.624467
21
63.701390
0
LINE
8
Layer 1
10
13.624467
20
63.701390
11
13.728972
21
63.667072
0
LINE
8
Layer 1
10
13.728972
20
63.667072
11
13.833475
21
63.632753
0
LINE
8
Layer 1
10
13.833475
20
63.632753
11
14.126860
21
63.645659
0
LINE
8
Layer 1
10
14.126860
20
63.645659
11
14.420246
21
63.658568
0
LINE
8
Layer 1
10
14.420246
20
63.658568
11
14.529911
21
63.730559
0
LINE
8
Layer 1
10
14.529911
20
63.730559
11
14.639574
21
63.802293
0
LINE
8
Layer 1
10
14.639574
20
63.802293
11
14.714921
21
63.956340
0
LINE
8
Layer 1
10
14.714921
20
63.956340
11
14.790009
21
64.110128
0
LINE
8
Layer 1
10
14.790009
20
64.110128
11
14.806265
21
64.933773
0
LINE
8
Layer 1
10
14.806265
20
64.933773
11
14.822265
21
65.757419
0
LINE
8
Layer 1
10
14.822265
20
65.757419
11
14.919600
21
65.757400
0
LINE
8
Layer 1
10
14.919600
20
65.757400
11
15.017100
21
65.757400
0
LINE
8
Layer 1
10
15.017100
20
65.757400
11
15.036709
21
65.789138
0
LINE
8
Layer 1
10
15.036709
20
65.789138
11
15.056320
21
65.820876
0
LINE
8
Layer 1
10
15.056320
20
65.820876
11
15.068701
21
66.237343
0
LINE
8
Layer 1
10
15.068701
20
66.237343
11
15.080831
21
66.653810
0
LINE
8
Layer 1
10
15.080831
20
66.653810
11
14.984584
21
66.667743
0
LINE
8
Layer 1
10
14.984584
20
66.667743
11
14.888338
21
66.681676
0
LINE
8
Layer 1
10
14.888338
20
66.681676
11
14.791833
21
66.657422
0
LINE
8
Layer 1
10
14.791833
20
66.657422
11
14.695071
21
66.633165
0
LINE
8
Layer 1
10
14.695071
20
66.633165
11
14.672620
21
66.518340
0
LINE
8
Layer 1
10
14.672620
20
66.518340
11
14.649912
21
66.403774
0
LINE
8
Layer 1
10
14.649912
20
66.403774
11
14.603981
21
65.528005
0
LINE
8
Layer 1
10
14.603981
20
65.528005
11
14.557793
21
64.652237
0
LINE
8
Layer 1
10
14.557793
20
64.652237
11
14.517024
21
64.438843
0
LINE
8
Layer 1
10
14.517024
20
64.438843
11
14.476255
21
64.225707
0
LINE
8
Layer 1
10
14.476255
20
64.225707
11
14.376396
21
64.131782
0
LINE
8
Layer 1
10
14.376396
20
64.131782
11
14.276537
21
64.037858
0
LINE
8
Layer 1
10
14.276537
20
64.037858
11
14.096687
21
64.019795
0
LINE
8
Layer 1
10
14.096687
20
64.019795
11
13.916837
21
64.001473
0
LINE
8
Layer 1
10
13.916837
20
64.001473
11
13.771000
21
64.076600
0
LINE
8
Layer 1
10
13.771000
20
64.076600
11
13.625000
21
64.151900
0
LINE
8
Layer 1
10
13.625000
20
64.151900
11
13.552200
21
64.298000
0
LINE
8
Layer 1
10
13.552200
20
64.298000
11
13.479200
21
64.443800
0
LINE
8
Layer 1
10
13.479200
20
64.443800
11
13.479200
21
65.683900
0
LINE
8
Layer 1
10
13.479200
20
65.683900
11
13.478940
21
66.923758
0
LINE
8
Layer 1
10
16.689920
20
66.583669
11
16.012322
21
66.561738
0
LINE
8
Layer 1
10
16.012322
20
66.561738
11
15.334724
21
66.539547
0
LINE
8
Layer 1
10
15.334724
20
66.539547
11
15.299373
21
66.507292
0
LINE
8
Layer 1
10
15.299373
20
66.507292
11
15.264023
21
66.474779
0
LINE
8
Layer 1
10
15.264023
20
66.474779
11
15.293697
21
66.116111
0
LINE
8
Layer 1
10
15.293697
20
66.116111
11
15.323630
21
65.757444
0
LINE
8
Layer 1
10
15.323630
20
65.757444
11
15.506300
21
65.757400
0
LINE
8
Layer 1
10
15.506300
20
65.757400
11
15.689000
21
65.757400
0
LINE
8
Layer 1
10
15.689000
20
65.757400
11
15.689000
21
65.947600
0
LINE
8
Layer 1
10
15.689000
20
65.947600
11
15.689000
21
66.137700
0
LINE
8
Layer 1
10
15.689000
20
66.137700
11
16.095663
21
66.108801
0
LINE
8
Layer 1
10
16.095663
20
66.108801
11
16.502324
21
66.080161
0
LINE
8
Layer 1
10
16.502324
20
66.080161
11
16.512639
21
66.071641
0
LINE
8
Layer 1
10
16.512639
20
66.071641
11
16.522960
21
66.063386
0
LINE
8
Layer 1
10
16.522960
20
66.063386
11
15.890003
21
65.149430
0
LINE
8
Layer 1
10
15.890003
20
65.149430
11
15.256787
21
64.235214
0
LINE
8
Layer 1
10
15.256787
20
64.235214
11
15.226338
21
64.006080
0
LINE
8
Layer 1
10
15.226338
20
64.006080
11
15.195634
21
63.776687
0
LINE
8
Layer 1
10
15.195634
20
63.776687
11
15.192293
21
63.640961
0
LINE
8
Layer 1
10
15.192293
20
63.640961
11
15.188686
21
63.505493
0
LINE
8
Layer 1
10
15.188686
20
63.505493
11
15.678694
21
63.505757
0
LINE
8
Layer 1
10
15.678694
20
63.505757
11
16.168700
21
63.506021
0
LINE
8
Layer 1
10
16.168700
20
63.506021
11
16.575363
21
63.532855
0
LINE
8
Layer 1
10
16.575363
20
63.532855
11
16.981766
21
63.559948
0
LINE
8
Layer 1
10
16.981766
20
63.559948
11
16.981800
21
63.746500
0
LINE
8
Layer 1
10
16.981800
20
63.746500
11
16.981800
21
63.933400
0
LINE
8
Layer 1
10
16.981800
20
63.933400
11
16.783888
21
63.908889
0
LINE
8
Layer 1
10
16.783888
20
63.908889
11
16.585718
21
63.884378
0
LINE
8
Layer 1
10
16.585718
20
63.884378
11
15.991466
21
63.855996
0
LINE
8
Layer 1
10
15.991466
20
63.855996
11
15.397213
21
63.827615
0
LINE
8
Layer 1
10
15.397213
20
63.827615
11
15.397200
21
63.981400
0
LINE
8
Layer 1
10
15.397200
20
63.981400
11
15.397200
21
64.135100
0
LINE
8
Layer 1
10
15.397200
20
64.135100
11
16.043576
21
65.115631
0
LINE
8
Layer 1
10
16.043576
20
65.115631
11
16.689952
21
66.096418
0
LINE
8
Layer 1
10
16.689952
20
66.096418
11
16.689900
21
66.340000
0
LINE
8
Layer 1
10
16.689900
20
66.340000
11
16.689920
21
66.583669
0
LINE
8
Layer 1
10
18.691750
20
66.583669
11
18.013894
21
66.561738
0
LINE
8
Layer 1
10
18.013894
20
66.561738
11
17.336296
21
66.539547
0
LINE
8
Layer 1
10
17.336296
20
66.539547
11
17.300946
21
66.507292
0
LINE
8
Layer 1
10
17.300946
20
66.507292
11
17.265595
21
66.474779
0
LINE
8
Layer 1
10
17.265595
20
66.474779
11
17.295527
21
66.116111
0
LINE
8
Layer 1
10
17.295527
20
66.116111
11
17.325460
21
65.757444
0
LINE
8
Layer 1
10
17.325460
20
65.757444
11
17.508200
21
65.757400
0
LINE
8
Layer 1
10
17.508200
20
65.757400
11
17.690800
21
65.757400
0
LINE
8
Layer 1
10
17.690800
20
65.757400
11
17.690800
21
65.947600
0
LINE
8
Layer 1
10
17.690800
20
65.947600
11
17.690800
21
66.137700
0
LINE
8
Layer 1
10
17.690800
20
66.137700
11
18.097204
21
66.108801
0
LINE
8
Layer 1
10
18.097204
20
66.108801
11
18.503865
21
66.080161
0
LINE
8
Layer 1
10
18.503865
20
66.080161
11
18.514180
21
66.071641
0
LINE
8
Layer 1
10
18.514180
20
66.071641
11
18.524495
21
66.063386
0
LINE
8
Layer 1
10
18.524495
20
66.063386
11
17.891538
21
65.149430
0
LINE
8
Layer 1
10
17.891538
20
65.149430
11
17.258322
21
64.235214
0
LINE
8
Layer 1
10
17.258322
20
64.235214
11
17.227873
21
64.006080
0
LINE
8
Layer 1
10
17.227873
20
64.006080
11
17.197424
21
63.776687
0
LINE
8
Layer 1
10
17.197424
20
63.776687
11
17.193817
21
63.640961
0
LINE
8
Layer 1
10
17.193817
20
63.640961
11
17.190476
21
63.505493
0
LINE
8
Layer 1
10
17.190476
20
63.505493
11
17.680225
21
63.505757
0
LINE
8
Layer 1
10
17.680225
20
63.505757
11
18.170231
21
63.506021
0
LINE
8
Layer 1
10
18.170231
20
63.506021
11
18.576894
21
63.532855
0
LINE
8
Layer 1
10
18.576894
20
63.532855
11
18.983555
21
63.559948
0
LINE
8
Layer 1
10
18.983555
20
63.559948
11
18.983600
21
63.746500
0
LINE
8
Layer 1
10
18.983600
20
63.746500
11
18.983600
21
63.933400
0
LINE
8
Layer 1
10
18.983600
20
63.933400
11
18.785430
21
63.908889
0
LINE
8
Layer 1
10
18.785430
20
63.908889
11
18.587260
21
63.884378
0
LINE
8
Layer 1
10
18.587260
20
63.884378
11
17.993266
21
63.855996
0
LINE
8
Layer 1
10
17.993266
20
63.855996
11
17.399013
21
63.827615
0
LINE
8
Layer 1
10
17.399013
20
63.827615
11
17.399000
21
63.981400
0
LINE
8
Layer 1
10
17.399000
20
63.981400
11
17.399000
21
64.135100
0
LINE
8
Layer 1
10
17.399000
20
64.135100
11
18.045376
21
65.115631
0
LINE
8
Layer 1
10
18.045376
20
65.115631
11
18.691752
21
66.096418
0
LINE
8
Layer 1
10
18.691752
20
66.096418
11
18.691800
21
66.340000
0
LINE
8
Layer 1
10
18.691800
20
66.340000
11
18.691750
21
66.583669
0
LINE
8
Layer 1
10
10.726750
20
66.466264
11
10.726800
21
66.281500
0
LINE
8
Layer 1
10
10.726800
20
66.281500
11
10.726800
21
66.096500
0
LINE
8
Layer 1
10
10.726800
20
66.096500
11
10.841625
21
66.083340
0
LINE
8
Layer 1
10
10.841625
20
66.083340
11
10.956191
21
66.070180
0
LINE
8
Layer 1
10
10.956191
20
66.070180
11
10.967542
21
65.224860
0
LINE
8
Layer 1
10
10.967542
20
65.224860
11
10.978639
21
64.379540
0
LINE
8
Layer 1
10
10.978639
20
64.379540
11
10.852718
21
64.354253
0
LINE
8
Layer 1
10
10.852718
20
64.354253
11
10.726798
21
64.329223
0
LINE
8
Layer 1
10
10.726798
20
64.329223
11
10.726800
21
64.104900
0
LINE
8
Layer 1
10
10.726800
20
64.104900
11
10.726800
21
63.880700
0
LINE
8
Layer 1
10
10.726800
20
63.880700
11
10.962900
21
63.880700
0
LINE
8
Layer 1
10
10.962900
20
63.880700
11
11.198700
21
63.880700
0
LINE
8
Layer 1
10
11.198700
20
63.880700
11
11.171400
21
64.763200
0
LINE
8
Layer 1
10
11.171400
20
64.763200
11
11.143700
21
65.645700
0
LINE
8
Layer 1
10
11.143700
20
65.645700
11
11.143700
21
66.055900
0
LINE
8
Layer 1
10
11.143700
20
66.055900
11
11.143700
21
66.466200
0
LINE
8
Layer 1
10
11.143700
20
66.466200
11
10.935300
21
66.466200
0
LINE
8
Layer 1
10
10.935300
20
66.466200
11
10.726750
21
66.466264
0
LINE
8
Layer 1
10
11.227078
20
66.466264
11
11.227100
21
65.931100
0
LINE
8
Layer 1
10
11.227100
20
65.931100
11
11.227100
21
65.395900
0
LINE
8
Layer 1
10
11.227100
20
65.395900
11
11.254969
21
65.368290
0
LINE
8
Layer 1
10
11.254969
20
65.368290
11
11.282839
21
65.340421
0
LINE
8
Layer 1
10
11.282839
20
65.340421
11
11.632200
21
65.340400
0
LINE
8
Layer 1
10
11.632200
20
65.340400
11
11.981600
21
65.340400
0
LINE
8
Layer 1
10
11.981600
20
65.340400
11
12.084039
21
65.442840
0
LINE
8
Layer 1
10
12.084039
20
65.442840
11
12.186221
21
65.545022
0
LINE
8
Layer 1
10
12.186221
20
65.545022
11
12.186200
21
65.940100
0
LINE
8
Layer 1
10
12.186200
20
65.940100
11
12.186200
21
66.335100
0
LINE
8
Layer 1
10
12.186200
20
66.335100
11
12.120700
21
66.400700
0
LINE
8
Layer 1
10
12.120700
20
66.400700
11
12.055100
21
66.466200
0
LINE
8
Layer 1
10
12.055100
20
66.466200
11
11.641200
21
66.466200
0
LINE
8
Layer 1
10
11.641200
20
66.466200
11
11.227078
21
66.466264
0
LINE
8
Layer 1
10
11.759402
20
66.015737
11
11.837329
21
66.000512
0
LINE
8
Layer 1
10
11.837329
20
66.000512
11
11.915255
21
65.985548
0
LINE
8
Layer 1
10
11.915255
20
65.985548
11
11.915300
21
65.777800
0
LINE
8
Layer 1
10
11.915300
20
65.777800
11
11.915300
21
65.569800
0
LINE
8
Layer 1
10
11.915300
20
65.569800
11
11.654685
21
65.557419
0
LINE
8
Layer 1
10
11.654685
20
65.557419
11
11.394071
21
65.544778
0
LINE
8
Layer 1
10
11.394071
20
65.544778
11
11.394000
21
65.752800
0
LINE
8
Layer 1
10
11.394000
20
65.752800
11
11.394000
21
65.960700
0
LINE
8
Layer 1
10
11.394000
20
65.960700
11
11.576688
21
65.988050
0
LINE
8
Layer 1
10
11.576688
20
65.988050
11
11.759402
21
66.015737
0
LINE
8
Layer 1
10
11.268879
20
65.257116
11
11.268900
21
64.565000
0
LINE
8
Layer 1
10
11.268900
20
64.565000
11
11.268900
21
63.873000
0
LINE
8
Layer 1
10
11.268900
20
63.873000
11
11.689497
21
63.887447
0
LINE
8
Layer 1
10
11.689497
20
63.887447
11
12.109834
21
63.901640
0
LINE
8
Layer 1
10
12.109834
20
63.901640
11
12.231626
21
64.037882
0
LINE
8
Layer 1
10
12.231626
20
64.037882
11
12.353160
21
64.174124
0
LINE
8
Layer 1
10
12.353160
20
64.174124
11
12.353200
21
64.552900
0
LINE
8
Layer 1
10
12.353200
20
64.552900
11
12.353200
21
64.931700
0
LINE
8
Layer 1
10
12.353200
20
64.931700
11
12.231900
21
65.044700
0
LINE
8
Layer 1
10
12.231900
20
65.044700
11
12.110600
21
65.158000
0
LINE
8
Layer 1
10
12.110600
20
65.158000
11
11.945700
21
65.207500
0
LINE
8
Layer 1
10
11.945700
20
65.207500
11
11.780600
21
65.257100
0
LINE
8
Layer 1
10
11.780600
20
65.257100
11
11.524600
21
65.257100
0
LINE
8
Layer 1
10
11.524600
20
65.257100
11
11.268879
21
65.257116
0
LINE
8
Layer 1
10
11.435569
20
64.844004
11
11.696184
21
64.831623
0
LINE
8
Layer 1
10
11.696184
20
64.831623
11
11.957057
21
64.819242
0
LINE
8
Layer 1
10
11.957057
20
64.819242
11
11.969438
21
64.531018
0
LINE
8
Layer 1
10
11.969438
20
64.531018
11
11.981819
21
64.242792
0
LINE
8
Layer 1
10
11.981819
20
64.242792
11
11.927632
21
64.208474
0
LINE
8
Layer 1
10
11.927632
20
64.208474
11
11.873444
21
64.174155
0
LINE
8
Layer 1
10
11.873444
20
64.174155
11
11.654631
21
64.173365
0
LINE
8
Layer 1
10
11.654631
20
64.173365
11
11.435560
21
64.172857
0
LINE
8
Layer 1
10
11.435560
20
64.172857
11
11.435600
21
64.508300
0
LINE
8
Layer 1
10
11.435600
20
64.508300
11
11.435569
21
64.844004
0
LINE
8
Layer 1
10
15.618049
20
63.175814
11
15.309441
21
63.163433
0
LINE
8
Layer 1
10
15.309441
20
63.163433
11
15.001089
21
63.151052
0
LINE
8
Layer 1
10
15.001089
20
63.151052
11
14.989992
21
61.695742
0
LINE
8
Layer 1
10
14.989992
20
61.695742
11
14.979160
21
60.240172
0
LINE
8
Layer 1
10
14.979160
20
60.240172
11
15.609280
21
60.264426
0
LINE
8
Layer 1
10
15.609280
20
60.264426
11
16.239142
21
60.288683
0
LINE
8
Layer 1
10
16.239142
20
60.288683
11
16.252037
21
60.302100
0
LINE
8
Layer 1
10
16.252037
20
60.302100
11
16.264946
21
60.315517
0
LINE
8
Layer 1
10
16.264946
20
60.315517
11
16.278622
21
60.794945
0
LINE
8
Layer 1
10
16.278622
20
60.794945
11
16.292556
21
61.274631
0
LINE
8
Layer 1
10
16.292556
20
61.274631
11
16.084580
21
61.259668
0
LINE
8
Layer 1
10
16.084580
20
61.259668
11
15.876863
21
61.244958
0
LINE
8
Layer 1
10
15.876863
20
61.244958
11
15.845642
21
61.226120
0
LINE
8
Layer 1
10
15.845642
20
61.226120
11
15.814162
21
61.207025
0
LINE
8
Layer 1
10
15.814162
20
61.207025
11
15.814200
21
60.938400
0
LINE
8
Layer 1
10
15.814200
20
60.938400
11
15.814200
21
60.669700
0
LINE
8
Layer 1
10
15.814200
20
60.669700
11
15.522300
21
60.669700
0
LINE
8
Layer 1
10
15.522300
20
60.669700
11
15.230500
21
60.669700
0
LINE
8
Layer 1
10
15.230500
20
60.669700
11
15.230500
21
61.477600
0
LINE
8
Layer 1
10
15.230500
20
61.477600
11
15.230500
21
62.285600
0
LINE
8
Layer 1
10
15.230500
20
62.285600
11
15.397190
21
62.312177
0
LINE
8
Layer 1
10
15.397190
20
62.312177
11
15.564138
21
62.339011
0
LINE
8
Layer 1
10
15.564138
20
62.339011
11
15.564100
21
62.499000
0
LINE
8
Layer 1
10
15.564100
20
62.499000
11
15.564100
21
62.659200
0
LINE
8
Layer 1
10
15.564100
20
62.659200
11
15.590939
21
62.917491
0
LINE
8
Layer 1
10
15.590939
20
62.917491
11
15.618049
21
63.175814
0
LINE
8
Layer 1
10
17.619619
20
63.175814
11
17.311269
21
63.163433
0
LINE
8
Layer 1
10
17.311269
20
63.163433
11
17.002660
21
63.151052
0
LINE
8
Layer 1
10
17.002660
20
63.151052
11
16.991828
21
61.695742
0
LINE
8
Layer 1
10
16.991828
20
61.695742
11
16.980728
21
60.240172
0
LINE
8
Layer 1
10
16.980728
20
60.240172
11
17.610847
21
60.264426
0
LINE
8
Layer 1
10
17.610847
20
60.264426
11
18.240709
21
60.288683
0
LINE
8
Layer 1
10
18.240709
20
60.288683
11
18.253618
21
60.302100
0
LINE
8
Layer 1
10
18.253618
20
60.302100
11
18.266524
21
60.315517
0
LINE
8
Layer 1
10
18.266524
20
60.315517
11
18.280458
21
60.794945
0
LINE
8
Layer 1
10
18.280458
20
60.794945
11
18.294134
21
61.274631
0
LINE
8
Layer 1
10
18.294134
20
61.274631
11
18.086417
21
61.259668
0
LINE
8
Layer 1
10
18.086417
20
61.259668
11
17.878441
21
61.244958
0
LINE
8
Layer 1
10
17.878441
20
61.244958
11
17.847220
21
61.226120
0
LINE
8
Layer 1
10
17.847220
20
61.226120
11
17.815999
21
61.207025
0
LINE
8
Layer 1
10
17.815999
20
61.207025
11
17.816000
21
60.938400
0
LINE
8
Layer 1
10
17.816000
20
60.938400
11
17.816000
21
60.669700
0
LINE
8
Layer 1
10
17.816000
20
60.669700
11
17.523900
21
60.669700
0
LINE
8
Layer 1
10
17.523900
20
60.669700
11
17.232100
21
60.669700
0
LINE
8
Layer 1
10
17.232100
20
60.669700
11
17.232100
21
61.477600
0
LINE
8
Layer 1
10
17.232100
20
61.477600
11
17.232100
21
62.285600
0
LINE
8
Layer 1
10
17.232100
20
62.285600
11
17.399048
21
62.312177
0
LINE
8
Layer 1
10
17.399048
20
62.312177
11
17.565738
21
62.339011
0
LINE
8
Layer 1
10
17.565738
20
62.339011
11
17.565700
21
62.499000
0
LINE
8
Layer 1
10
17.565700
20
62.499000
11
17.565700
21
62.659200
0
LINE
8
Layer 1
10
17.565700
20
62.659200
11
17.592793
21
62.917491
0
LINE
8
Layer 1
10
17.592793
20
62.917491
11
17.619619
21
63.175814
0
LINE
8
Layer 1
10
14.438059
20
63.130400
11
14.438323
21
62.994674
0
LINE
8
Layer 1
10
14.438323
20
62.994674
11
14.438588
21
62.859206
0
LINE
8
Layer 1
10
14.438588
20
62.859206
11
14.465164
21
62.516794
0
LINE
8
Layer 1
10
14.465164
20
62.516794
11
14.491998
21
62.174382
0
LINE
8
Layer 1
10
14.491998
20
62.174382
11
14.579729
21
62.183154
0
LINE
8
Layer 1
10
14.579729
20
62.183154
11
14.667461
21
62.191925
0
LINE
8
Layer 1
10
14.667461
20
62.191925
11
14.681394
21
61.941890
0
LINE
8
Layer 1
10
14.681394
20
61.941890
11
14.695327
21
61.691597
0
LINE
8
Layer 1
10
14.695327
20
61.691597
11
14.666684
21
61.097344
0
LINE
8
Layer 1
10
14.666684
20
61.097344
11
14.638040
21
60.503091
0
LINE
8
Layer 1
10
14.638040
20
60.503091
11
14.538200
21
60.503000
0
LINE
8
Layer 1
10
14.538200
20
60.503000
11
14.438100
21
60.503000
0
LINE
8
Layer 1
10
14.438100
20
60.503000
11
14.438100
21
60.086100
0
LINE
8
Layer 1
10
14.438100
20
60.086100
11
14.438100
21
59.669100
0
LINE
8
Layer 1
10
14.438100
20
59.669100
11
15.355600
21
59.669100
0
LINE
8
Layer 1
10
15.355600
20
59.669100
11
16.273000
21
59.669100
0
LINE
8
Layer 1
10
16.273000
20
59.669100
11
16.273000
21
59.939800
0
LINE
8
Layer 1
10
16.273000
20
59.939800
11
16.273000
21
60.210400
0
LINE
8
Layer 1
10
16.273000
20
60.210400
11
15.762093
21
60.188466
0
LINE
8
Layer 1
10
15.762093
20
60.188466
11
15.251185
21
60.166534
0
LINE
8
Layer 1
10
15.251185
20
60.166534
11
15.073915
21
60.147956
0
LINE
8
Layer 1
10
15.073915
20
60.147956
11
14.896646
21
60.129377
0
LINE
8
Layer 1
10
14.896646
20
60.129377
11
14.896600
21
61.629900
0
LINE
8
Layer 1
10
14.896600
20
61.629900
11
14.896600
21
63.130300
0
LINE
8
Layer 1
10
14.896600
20
63.130300
11
14.667500
21
63.130300
0
LINE
8
Layer 1
10
14.667500
20
63.130300
11
14.438059
21
63.130400
0
LINE
8
Layer 1
10
16.439629
20
63.130400
11
16.439893
21
62.994674
0
LINE
8
Layer 1
10
16.439893
20
62.994674
11
16.440158
21
62.859206
0
LINE
8
Layer 1
10
16.440158
20
62.859206
11
16.466991
21
62.516794
0
LINE
8
Layer 1
10
16.466991
20
62.516794
11
16.493568
21
62.174382
0
LINE
8
Layer 1
10
16.493568
20
62.174382
11
16.581299
21
62.183154
0
LINE
8
Layer 1
10
16.581299
20
62.183154
11
16.669031
21
62.191925
0
LINE
8
Layer 1
10
16.669031
20
62.191925
11
16.682964
21
61.941890
0
LINE
8
Layer 1
10
16.682964
20
61.941890
11
16.696898
21
61.691597
0
LINE
8
Layer 1
10
16.696898
20
61.691597
11
16.668254
21
61.097344
0
LINE
8
Layer 1
10
16.668254
20
61.097344
11
16.639613
21
60.503091
0
LINE
8
Layer 1
10
16.639613
20
60.503091
11
16.539800
21
60.503000
0
LINE
8
Layer 1
10
16.539800
20
60.503000
11
16.439900
21
60.503000
0
LINE
8
Layer 1
10
16.439900
20
60.503000
11
16.439900
21
60.086100
0
LINE
8
Layer 1
10
16.439900
20
60.086100
11
16.439900
21
59.669100
0
LINE
8
Layer 1
10
16.439900
20
59.669100
11
17.357200
21
59.669100
0
LINE
8
Layer 1
10
17.357200
20
59.669100
11
18.274500
21
59.669100
0
LINE
8
Layer 1
10
18.274500
20
59.669100
11
18.274500
21
59.939800
0
LINE
8
Layer 1
10
18.274500
20
59.939800
11
18.274500
21
60.210400
0
LINE
8
Layer 1
10
18.274500
20
60.210400
11
17.763592
21
60.188466
0
LINE
8
Layer 1
10
17.763592
20
60.188466
11
17.252684
21
60.166534
0
LINE
8
Layer 1
10
17.252684
20
60.166534
11
17.075673
21
60.147956
0
LINE
8
Layer 1
10
17.075673
20
60.147956
11
16.898403
21
60.129377
0
LINE
8
Layer 1
10
16.898403
20
60.129377
11
16.898400
21
61.629900
0
LINE
8
Layer 1
10
16.898400
20
61.629900
11
16.898400
21
63.130300
0
LINE
8
Layer 1
10
16.898400
20
63.130300
11
16.669000
21
63.130300
0
LINE
8
Layer 1
10
16.669000
20
63.130300
11
16.439629
21
63.130400
0
LINE
8
Layer 1
10
11.977699
20
63.130136
11
11.977700
21
62.650700
0
LINE
8
Layer 1
10
11.977700
20
62.650700
11
11.977700
21
62.171000
0
LINE
8
Layer 1
10
11.977700
20
62.171000
11
12.059500
21
62.171000
0
LINE
8
Layer 1
10
12.059500
20
62.171000
11
12.141300
21
62.171000
0
LINE
8
Layer 1
10
12.141300
20
62.171000
11
11.924035
21
61.798657
0
LINE
8
Layer 1
10
11.924035
20
61.798657
11
11.706769
21
61.426315
0
LINE
8
Layer 1
10
11.706769
20
61.426315
11
11.680965
21
61.475341
0
LINE
8
Layer 1
10
11.680965
20
61.475341
11
11.655419
21
61.524626
0
LINE
8
Layer 1
10
11.655419
20
61.524626
11
11.630132
21
61.868843
0
LINE
8
Layer 1
10
11.630132
20
61.868843
11
11.605101
21
62.212803
0
LINE
8
Layer 1
10
11.605101
20
62.212803
11
11.660300
21
62.212800
0
LINE
8
Layer 1
10
11.660300
20
62.212800
11
11.715500
21
62.212800
0
LINE
8
Layer 1
10
11.715500
20
62.212800
11
11.742339
21
62.469027
0
LINE
8
Layer 1
10
11.742339
20
62.469027
11
11.769173
21
62.725513
0
LINE
8
Layer 1
10
11.769173
20
62.725513
11
11.769200
21
62.906900
0
LINE
8
Layer 1
10
11.769200
20
62.906900
11
11.769200
21
63.088500
0
LINE
8
Layer 1
10
11.769200
20
63.088500
11
11.539800
21
63.088500
0
LINE
8
Layer 1
10
11.539800
20
63.088500
11
11.310400
21
63.088500
0
LINE
8
Layer 1
10
11.310400
20
63.088500
11
11.309610
21
62.348199
0
LINE
8
Layer 1
10
11.309610
20
62.348199
11
11.308820
21
61.608157
0
LINE
8
Layer 1
10
11.308820
20
61.608157
11
11.528665
21
61.411276
0
LINE
8
Layer 1
10
11.528665
20
61.411276
11
11.748252
21
61.214654
0
LINE
8
Layer 1
10
11.748252
20
61.214654
11
11.754963
21
61.213356
0
LINE
8
Layer 1
10
11.754963
20
61.213356
11
11.755000
21
61.213100
0
LINE
8
Layer 1
10
11.755000
20
61.213100
11
11.761711
21
61.211802
0
LINE
8
Layer 1
10
11.761711
20
61.211802
11
12.113928
21
61.872885
0
LINE
8
Layer 1
10
12.113928
20
61.872885
11
12.466144
21
62.533711
0
LINE
8
Layer 1
10
12.466144
20
62.533711
11
12.495560
21
62.831998
0
LINE
8
Layer 1
10
12.495560
20
62.831998
11
12.524975
21
63.130028
0
LINE
8
Layer 1
10
12.524975
20
63.130028
11
12.251200
21
63.130100
0
LINE
8
Layer 1
10
12.251200
20
63.130100
11
11.977699
21
63.130136
0
LINE
8
Layer 1
10
12.614785
20
63.130136
11
12.586916
21
62.821786
0
LINE
8
Layer 1
10
12.586916
20
62.821786
11
12.559052
21
62.513434
0
LINE
8
Layer 1
10
12.559052
20
62.513434
11
12.188257
21
61.831450
0
LINE
8
Layer 1
10
12.188257
20
61.831450
11
11.817462
21
61.149465
0
LINE
8
Layer 1
10
11.817462
20
61.149465
11
12.273923
21
60.711581
0
LINE
8
Layer 1
10
12.273923
20
60.711581
11
12.730386
21
60.273697
0
LINE
8
Layer 1
10
12.730386
20
60.273697
11
12.729313
21
60.122488
0
LINE
8
Layer 1
10
12.729313
20
60.122488
11
12.728241
21
59.971280
0
LINE
8
Layer 1
10
12.728241
20
59.971280
11
12.754301
21
59.840974
0
LINE
8
Layer 1
10
12.754301
20
59.840974
11
12.780365
21
59.710667
0
LINE
8
Layer 1
10
12.780365
20
59.710667
11
12.806425
21
59.711457
0
LINE
8
Layer 1
10
12.806425
20
59.711457
11
12.806700
21
59.711400
0
LINE
8
Layer 1
10
12.806700
20
59.711400
11
12.832760
21
59.711908
0
LINE
8
Layer 1
10
12.832760
20
59.711908
11
12.926427
21
59.736938
0
LINE
8
Layer 1
10
12.926427
20
59.736938
11
13.020351
21
59.762225
0
LINE
8
Layer 1
10
13.020351
20
59.762225
11
13.019843
21
59.955493
0
LINE
8
Layer 1
10
13.019843
20
59.955493
11
13.019579
21
60.148503
0
LINE
8
Layer 1
10
13.019579
20
60.148503
11
12.993262
21
60.368348
0
LINE
8
Layer 1
10
12.993262
20
60.368348
11
12.966682
21
60.587935
0
LINE
8
Layer 1
10
12.966682
20
60.587935
11
12.837150
21
60.564971
0
LINE
8
Layer 1
10
12.837150
20
60.564971
11
12.707617
21
60.542007
0
LINE
8
Layer 1
10
12.707617
20
60.542007
11
12.362367
21
60.866614
0
LINE
8
Layer 1
10
12.362367
20
60.866614
11
12.017116
21
61.191221
0
LINE
8
Layer 1
10
12.017116
20
61.191221
11
12.303019
21
61.670648
0
LINE
8
Layer 1
10
12.303019
20
61.670648
11
12.588920
21
62.150334
0
LINE
8
Layer 1
10
12.588920
20
62.150334
11
12.719228
21
62.163242
0
LINE
8
Layer 1
10
12.719228
20
62.163242
11
12.849535
21
62.176148
0
LINE
8
Layer 1
10
12.849535
20
62.176148
11
12.868884
21
62.246591
0
LINE
8
Layer 1
10
12.868884
20
62.246591
11
12.888236
21
62.317035
0
LINE
8
Layer 1
10
12.888236
20
62.317035
11
12.913783
21
62.567328
0
LINE
8
Layer 1
10
12.913783
20
62.567328
11
12.939330
21
62.817363
0
LINE
8
Layer 1
10
12.939330
20
62.817363
11
12.962554
21
62.973733
0
LINE
8
Layer 1
10
12.962554
20
62.973733
11
12.986034
21
63.130101
0
LINE
8
Layer 1
10
12.986034
20
63.130101
11
12.800300
21
63.130100
0
LINE
8
Layer 1
10
12.800300
20
63.130100
11
12.614785
21
63.130136
0
LINE
8
Layer 1
10
14.366325
20
63.130136
11
14.141578
21
63.129628
0
LINE
8
Layer 1
10
14.141578
20
63.129628
11
13.916831
21
63.129120
0
LINE
8
Layer 1
10
13.916831
20
63.129120
11
13.866514
21
63.096865
0
LINE
8
Layer 1
10
13.866514
20
63.096865
11
13.815940
21
63.064869
0
LINE
8
Layer 1
10
13.815940
20
63.064869
11
13.794005
21
62.565832
0
LINE
8
Layer 1
10
13.794005
20
62.565832
11
13.772074
21
62.066793
0
LINE
8
Layer 1
10
13.772074
20
62.066793
11
13.749109
21
60.916473
0
LINE
8
Layer 1
10
13.749109
20
60.916473
11
13.726145
21
59.766153
0
LINE
8
Layer 1
10
13.726145
20
59.766153
11
13.967407
21
59.783185
0
LINE
8
Layer 1
10
13.967407
20
59.783185
11
13.967700
21
59.783100
0
LINE
8
Layer 1
10
13.967700
20
59.783100
11
14.208962
21
59.800129
0
LINE
8
Layer 1
10
14.208962
20
59.800129
11
14.261085
21
59.816645
0
LINE
8
Layer 1
10
14.261085
20
59.816645
11
14.313208
21
59.833160
0
LINE
8
Layer 1
10
14.313208
20
59.833160
11
14.313200
21
60.189000
0
LINE
8
Layer 1
10
14.313200
20
60.189000
11
14.313200
21
60.544600
0
LINE
8
Layer 1
10
14.313200
20
60.544600
11
14.167100
21
60.544600
0
LINE
8
Layer 1
10
14.167100
20
60.544600
11
14.021400
21
60.544600
0
LINE
8
Layer 1
10
14.021400
20
60.544600
11
14.021400
21
60.913500
0
LINE
8
Layer 1
10
14.021400
20
60.913500
11
14.021400
21
61.282300
0
LINE
8
Layer 1
10
14.021400
20
61.282300
11
14.048493
21
61.726635
0
LINE
8
Layer 1
10
14.048493
20
61.726635
11
14.075587
21
62.170970
0
LINE
8
Layer 1
10
14.075587
20
62.170970
11
14.194500
21
62.170900
0
LINE
8
Layer 1
10
14.194500
20
62.170900
11
14.313200
21
62.170900
0
LINE
8
Layer 1
10
14.313200
20
62.170900
11
14.313464
21
62.431515
0
LINE
8
Layer 1
10
14.313464
20
62.431515
11
14.313728
21
62.692130
0
LINE
8
Layer 1
10
14.313728
20
62.692130
11
14.340048
21
62.911201
0
LINE
8
Layer 1
10
14.340048
20
62.911201
11
14.366325
21
63.130136
0
LINE
8
Layer 1
10
11.227085
20
63.092721
11
10.987370
21
63.080340
0
LINE
8
Layer 1
10
10.987370
20
63.080340
11
10.747657
21
63.067699
0
LINE
8
Layer 1
10
10.747657
20
63.067699
11
10.751777
21
63.015577
0
LINE
8
Layer 1
10
10.751777
20
63.015577
11
10.755898
21
62.963454
0
LINE
8
Layer 1
10
10.755898
20
62.963454
11
10.762093
21
62.504669
0
LINE
8
Layer 1
10
10.762093
20
62.504669
11
10.768539
21
62.046143
0
LINE
8
Layer 1
10
10.768539
20
62.046143
11
10.872800
21
62.046100
0
LINE
8
Layer 1
10
10.872800
20
62.046100
11
10.977000
21
62.046100
0
LINE
8
Layer 1
10
10.977000
20
62.046100
11
10.977000
21
61.635600
0
LINE
8
Layer 1
10
10.977000
20
61.635600
11
10.977000
21
61.225000
0
LINE
8
Layer 1
10
10.977000
20
61.225000
11
10.949650
21
60.780665
0
LINE
8
Layer 1
10
10.949650
20
60.780665
11
10.922557
21
60.336330
0
LINE
8
Layer 1
10
10.922557
20
60.336330
11
10.850300
21
60.336400
0
LINE
8
Layer 1
10
10.850300
20
60.336400
11
10.778100
21
60.336400
0
LINE
8
Layer 1
10
10.778100
20
60.336400
11
10.753070
21
60.242475
0
LINE
8
Layer 1
10
10.753070
20
60.242475
11
10.728039
21
60.148550
0
LINE
8
Layer 1
10
10.728039
20
60.148550
11
10.727249
21
59.867292
0
LINE
8
Layer 1
10
10.727249
20
59.867292
11
10.726741
21
59.585776
0
LINE
8
Layer 1
10
10.726741
20
59.585776
11
10.977000
21
59.585700
0
LINE
8
Layer 1
10
10.977000
20
59.585700
11
11.227100
21
59.585700
0
LINE
8
Layer 1
10
11.227100
20
59.585700
11
11.227100
21
61.339100
0
LINE
8
Layer 1
10
11.227100
20
61.339100
11
11.227085
21
63.092721
0
LINE
8
Layer 1
10
13.195115
20
63.088601
11
13.214467
21
62.744383
0
LINE
8
Layer 1
10
13.214467
20
62.744383
11
13.233822
21
62.400423
0
LINE
8
Layer 1
10
13.233822
20
62.400423
11
13.252917
21
62.306757
0
LINE
8
Layer 1
10
13.252917
20
62.306757
11
13.272012
21
62.212832
0
LINE
8
Layer 1
10
13.272012
20
62.212832
11
13.354800
21
62.212800
0
LINE
8
Layer 1
10
13.354800
20
62.212800
11
13.437400
21
62.212800
0
LINE
8
Layer 1
10
13.437400
20
62.212800
11
13.437400
21
61.487700
0
LINE
8
Layer 1
10
13.437400
20
61.487700
11
13.437400
21
60.762600
0
LINE
8
Layer 1
10
13.437400
20
60.762600
11
13.291354
21
60.735250
0
LINE
8
Layer 1
10
13.291354
20
60.735250
11
13.145306
21
60.707640
0
LINE
8
Layer 1
10
13.145306
20
60.707640
11
13.145570
21
60.573978
0
LINE
8
Layer 1
10
13.145570
20
60.573978
11
13.145835
21
60.440575
0
LINE
8
Layer 1
10
13.145835
20
60.440575
11
13.172674
21
60.096358
0
LINE
8
Layer 1
10
13.172674
20
60.096358
11
13.199508
21
59.752398
0
LINE
8
Layer 1
10
13.199508
20
59.752398
11
13.328784
21
59.752906
0
LINE
8
Layer 1
10
13.328784
20
59.752906
11
13.458317
21
59.753414
0
LINE
8
Layer 1
10
13.458317
20
59.753414
11
13.547339
21
59.777411
0
LINE
8
Layer 1
10
13.547339
20
59.777411
11
13.636619
21
59.801406
0
LINE
8
Layer 1
10
13.636619
20
59.801406
11
13.662165
21
60.996616
0
LINE
8
Layer 1
10
13.662165
20
60.996616
11
13.687969
21
62.191836
0
LINE
8
Layer 1
10
13.687969
20
62.191836
11
13.701386
21
62.640042
0
LINE
8
Layer 1
10
13.701386
20
62.640042
11
13.714546
21
63.088505
0
LINE
8
Layer 1
10
13.714546
20
63.088505
11
13.454700
21
63.088500
0
LINE
8
Layer 1
10
13.454700
20
63.088500
11
13.195115
21
63.088601
0
LINE
8
Layer 1
10
11.310695
20
61.511491
11
11.310700
21
60.548500
0
LINE
8
Layer 1
10
11.310700
20
60.548500
11
11.310700
21
59.585700
0
LINE
8
Layer 1
10
11.310700
20
59.585700
11
11.560700
21
59.585700
0
LINE
8
Layer 1
10
11.560700
20
59.585700
11
11.811000
21
59.585700
0
LINE
8
Layer 1
10
11.811000
20
59.585700
11
11.811000
21
60.002700
0
LINE
8
Layer 1
10
11.811000
20
60.002700
11
11.811000
21
60.419700
0
LINE
8
Layer 1
10
11.811000
20
60.419700
11
11.706800
21
60.419700
0
LINE
8
Layer 1
10
11.706800
20
60.419700
11
11.602500
21
60.419700
0
LINE
8
Layer 1
10
11.602500
20
60.419700
11
11.602500
21
60.741700
0
LINE
8
Layer 1
10
11.602500
20
60.741700
11
11.602500
21
61.063800
0
LINE
8
Layer 1
10
11.602500
20
61.063800
11
11.894338
21
60.774287
0
LINE
8
Layer 1
10
11.894338
20
60.774287
11
12.186432
21
60.484514
0
LINE
8
Layer 1
10
12.186432
20
60.484514
11
12.186500
21
60.452000
0
LINE
8
Layer 1
10
12.186500
20
60.452000
11
12.186500
21
60.419700
0
LINE
8
Layer 1
10
12.186500
20
60.419700
11
12.088400
21
60.419700
0
LINE
8
Layer 1
10
12.088400
20
60.419700
11
11.990400
21
60.419700
0
LINE
8
Layer 1
10
11.990400
20
60.419700
11
11.964596
21
60.056904
0
LINE
8
Layer 1
10
11.964596
20
60.056904
11
11.939050
21
59.694108
0
LINE
8
Layer 1
10
11.939050
20
59.694108
11
11.949365
21
59.683527
0
LINE
8
Layer 1
10
11.949365
20
59.683527
11
11.959945
21
59.673207
0
LINE
8
Layer 1
10
11.959945
20
59.673207
11
12.303388
21
59.702367
0
LINE
8
Layer 1
10
12.303388
20
59.702367
11
12.647090
21
59.731524
0
LINE
8
Layer 1
10
12.647090
20
59.731524
11
12.646018
21
59.763003
0
LINE
8
Layer 1
10
12.646018
20
59.763003
11
12.644946
21
59.794224
0
LINE
8
Layer 1
10
12.644946
20
59.794224
11
12.644900
21
60.017200
0
LINE
8
Layer 1
10
12.644900
20
60.017200
11
12.644900
21
60.240100
0
LINE
8
Layer 1
10
12.644900
20
60.240100
11
11.977624
21
60.875896
0
LINE
8
Layer 1
10
11.977624
20
60.875896
11
11.310695
21
61.511491
0
LINE
8
Layer 1
10
8.056050
20
66.673600
11
8.031723
21
66.514923
0
LINE
8
Layer 1
10
8.031723
20
66.514923
11
8.007276
21
66.356520
0
LINE
8
Layer 1
10
8.007276
20
66.356520
11
8.016525
21
65.986775
0
LINE
8
Layer 1
10
8.016525
20
65.986775
11
8.025700
21
65.616833
0
LINE
8
Layer 1
10
8.025700
20
65.616833
11
8.113811
21
65.605651
0
LINE
8
Layer 1
10
8.113811
20
65.605651
11
8.201649
21
65.594354
0
LINE
8
Layer 1
10
8.201649
20
65.594354
11
8.219624
21
65.602045
0
LINE
8
Layer 1
10
8.219624
20
65.602045
11
8.237480
21
65.610009
0
LINE
8
Layer 1
10
8.237480
20
65.610009
11
8.225841
21
66.063891
0
LINE
8
Layer 1
10
8.225841
20
66.063891
11
8.214202
21
66.517772
0
LINE
8
Layer 1
10
8.214202
20
66.517772
11
8.234356
21
66.567455
0
LINE
8
Layer 1
10
8.234356
20
66.567455
11
8.254586
21
66.617337
0
LINE
8
Layer 1
10
8.254586
20
66.617337
11
8.353552
21
66.656994
0
LINE
8
Layer 1
10
8.353552
20
66.656994
11
8.452713
21
66.696566
0
LINE
8
Layer 1
10
8.452713
20
66.696566
11
8.609768
21
66.691237
0
LINE
8
Layer 1
10
8.609768
20
66.691237
11
8.767019
21
66.685830
0
LINE
8
Layer 1
10
8.767019
20
66.685830
11
8.852308
21
66.652404
0
LINE
8
Layer 1
10
8.852308
20
66.652404
11
8.937597
21
66.618978
0
LINE
8
Layer 1
10
8.937597
20
66.618978
11
8.984088
21
66.499874
0
LINE
8
Layer 1
10
8.984088
20
66.499874
11
9.030855
21
66.380890
0
LINE
8
Layer 1
10
9.030855
20
66.380890
11
9.051833
21
66.216925
0
LINE
8
Layer 1
10
9.051833
20
66.216925
11
9.072813
21
66.052959
0
LINE
8
Layer 1
10
9.072813
20
66.052959
11
9.111721
21
66.037705
0
LINE
8
Layer 1
10
9.111721
20
66.037705
11
9.150628
21
66.022454
0
LINE
8
Layer 1
10
9.150628
20
66.022454
11
9.160520
21
66.284271
0
LINE
8
Layer 1
10
9.160520
20
66.284271
11
9.170138
21
66.545968
0
LINE
8
Layer 1
10
9.170138
20
66.545968
11
9.240246
21
66.620734
0
LINE
8
Layer 1
10
9.240246
20
66.620734
11
9.310277
21
66.695303
0
LINE
8
Layer 1
10
9.310277
20
66.695303
11
9.536720
21
66.710842
0
LINE
8
Layer 1
10
9.536720
20
66.710842
11
9.763358
21
66.726305
0
LINE
8
Layer 1
10
9.763358
20
66.726305
11
9.826121
21
66.747048
0
LINE
8
Layer 1
10
9.826121
20
66.747048
11
9.888963
21
66.767984
0
LINE
8
Layer 1
10
9.888963
20
66.767984
11
9.905058
21
66.809059
0
LINE
8
Layer 1
10
9.905058
20
66.809059
11
9.921353
21
66.850053
0
LINE
8
Layer 1
10
9.921353
20
66.850053
11
9.921805
21
66.907908
0
LINE
8
Layer 1
10
9.921805
20
66.907908
11
9.922256
21
66.965765
0
LINE
8
Layer 1
10
9.922256
20
66.965765
11
9.867821
21
66.987098
0
LINE
8
Layer 1
10
9.867821
20
66.987098
11
9.813386
21
67.008431
0
LINE
8
Layer 1
10
9.813386
20
67.008431
11
9.644950
21
67.015955
0
LINE
8
Layer 1
10
9.644950
20
67.015955
11
9.476590
21
67.023674
0
LINE
8
Layer 1
10
9.476590
20
67.023674
11
9.445437
21
67.000292
0
LINE
8
Layer 1
10
9.445437
20
67.000292
11
9.414285
21
66.976910
0
LINE
8
Layer 1
10
9.414285
20
66.976910
11
9.537052
21
66.953508
0
LINE
8
Layer 1
10
9.537052
20
66.953508
11
9.659624
21
66.930182
0
LINE
8
Layer 1
10
9.659624
20
66.930182
11
9.642683
21
66.886945
0
LINE
8
Layer 1
10
9.642683
20
66.886945
11
9.625540
21
66.843789
0
LINE
8
Layer 1
10
9.625540
20
66.843789
11
9.405624
21
66.820023
0
LINE
8
Layer 1
10
9.405624
20
66.820023
11
9.185980
21
66.796387
0
LINE
8
Layer 1
10
9.185980
20
66.796387
11
9.141920
21
66.713455
0
LINE
8
Layer 1
10
9.141920
20
66.713455
11
9.097934
21
66.630719
0
LINE
8
Layer 1
10
9.097934
20
66.630719
11
9.031306
21
66.736630
0
LINE
8
Layer 1
10
9.031306
20
66.736630
11
8.964755
21
66.842738
0
LINE
8
Layer 1
10
8.964755
20
66.842738
11
8.664314
21
66.860510
0
LINE
8
Layer 1
10
8.664314
20
66.860510
11
8.363993
21
66.878010
0
LINE
8
Layer 1
10
8.363993
20
66.878010
11
8.260733
21
66.847068
0
LINE
8
Layer 1
10
8.260733
20
66.847068
11
8.157593
21
66.815851
0
LINE
8
Layer 1
10
8.157593
20
66.815851
11
8.106784
21
66.744630
0
LINE
8
Layer 1
10
8.106784
20
66.744630
11
8.056050
21
66.673600
0
LINE
8
Layer 1
10
8.302007
20
66.566553
11
8.291348
21
66.482090
0
LINE
8
Layer 1
10
8.291348
20
66.482090
11
8.280490
21
66.397705
0
LINE
8
Layer 1
10
8.280490
20
66.397705
11
8.288991
21
66.196690
0
LINE
8
Layer 1
10
8.288991
20
66.196690
11
8.297762
21
65.995796
0
LINE
8
Layer 1
10
8.297762
20
65.995796
11
8.651999
21
66.008857
0
LINE
8
Layer 1
10
8.651999
20
66.008857
11
9.006510
21
66.022040
0
LINE
8
Layer 1
10
9.006510
20
66.022040
11
8.978043
21
66.247881
0
LINE
8
Layer 1
10
8.978043
20
66.247881
11
8.949375
21
66.473800
0
LINE
8
Layer 1
10
8.949375
20
66.473800
11
8.901589
21
66.530612
0
LINE
8
Layer 1
10
8.901589
20
66.530612
11
8.853804
21
66.587426
0
LINE
8
Layer 1
10
8.853804
20
66.587426
11
8.674448
21
66.615098
0
LINE
8
Layer 1
10
8.674448
20
66.615098
11
8.495169
21
66.642967
0
LINE
8
Layer 1
10
8.495169
20
66.642967
11
8.398544
21
66.604659
0
LINE
8
Layer 1
10
8.398544
20
66.604659
11
8.302007
21
66.566553
0
LINE
8
Layer 1
10
8.436337
20
66.447710
11
8.471070
21
66.486013
0
LINE
8
Layer 1
10
8.471070
20
66.486013
11
8.505998
21
66.524242
0
LINE
8
Layer 1
10
8.505998
20
66.524242
11
8.635550
21
66.516997
0
LINE
8
Layer 1
10
8.635550
20
66.516997
11
8.764984
21
66.510026
0
LINE
8
Layer 1
10
8.764984
20
66.510026
11
8.794485
21
66.456300
0
LINE
8
Layer 1
10
8.794485
20
66.456300
11
8.824256
21
66.402693
0
LINE
8
Layer 1
10
8.824256
20
66.402693
11
8.820262
21
66.301776
0
LINE
8
Layer 1
10
8.820262
20
66.301776
11
8.816568
21
66.200978
0
LINE
8
Layer 1
10
8.816568
20
66.200978
11
8.647847
21
66.187530
0
LINE
8
Layer 1
10
8.647847
20
66.187530
11
8.479203
21
66.174282
0
LINE
8
Layer 1
10
8.479203
20
66.174282
11
8.459893
21
66.200218
0
LINE
8
Layer 1
10
8.459893
20
66.200218
11
8.440507
21
66.225951
0
LINE
8
Layer 1
10
8.440507
20
66.225951
11
8.438306
21
66.336742
0
LINE
8
Layer 1
10
8.438306
20
66.336742
11
8.436337
21
66.447710
0
LINE
8
Layer 1
10
8.298588
20
65.917489
11
8.306061
21
65.767657
0
LINE
8
Layer 1
10
8.306061
20
65.767657
11
8.313534
21
65.617826
0
LINE
8
Layer 1
10
8.313534
20
65.617826
11
8.326700
21
65.612667
0
LINE
8
Layer 1
10
8.326700
20
65.612667
11
8.339866
21
65.607508
0
LINE
8
Layer 1
10
8.339866
20
65.607508
11
8.522906
21
65.613533
0
LINE
8
Layer 1
10
8.522906
20
65.613533
11
8.706144
21
65.619480
0
LINE
8
Layer 1
10
8.706144
20
65.619480
11
8.711692
21
65.633625
0
LINE
8
Layer 1
10
8.711692
20
65.633625
11
8.717162
21
65.647575
0
LINE
8
Layer 1
10
8.717162
20
65.647575
11
8.709327
21
65.714349
0
LINE
8
Layer 1
10
8.709327
20
65.714349
11
8.701414
21
65.780926
0
LINE
8
Layer 1
10
8.701414
20
65.780926
11
9.283003
21
65.802593
0
LINE
8
Layer 1
10
9.283003
20
65.802593
11
9.864472
21
65.824527
0
LINE
8
Layer 1
10
9.864472
20
65.824527
11
9.862722
21
65.789394
0
LINE
8
Layer 1
10
9.862722
20
65.789394
11
9.860831
21
65.754536
0
LINE
8
Layer 1
10
9.860831
20
65.754536
11
9.880245
21
65.690705
0
LINE
8
Layer 1
10
9.880245
20
65.690705
11
9.899744
21
65.627070
0
LINE
8
Layer 1
10
9.899744
20
65.627070
11
10.133576
21
65.639485
0
LINE
8
Layer 1
10
10.133576
20
65.639485
11
10.367682
21
65.652015
0
LINE
8
Layer 1
10
10.367682
20
65.652015
11
10.374997
21
65.670684
0
LINE
8
Layer 1
10
10.374997
20
65.670684
11
10.382036
21
65.689229
0
LINE
8
Layer 1
10
10.382036
20
65.689229
11
10.367261
21
65.840107
0
LINE
8
Layer 1
10
10.367261
20
65.840107
11
10.352292
21
65.991062
0
LINE
8
Layer 1
10
10.352292
20
65.991062
11
10.333034
21
65.998611
0
LINE
8
Layer 1
10
10.333034
20
65.998611
11
10.313580
21
66.006237
0
LINE
8
Layer 1
10
10.313580
20
66.006237
11
9.323606
21
65.968703
0
LINE
8
Layer 1
10
9.323606
20
65.968703
11
8.333555
21
65.930969
0
LINE
8
Layer 1
10
8.333555
20
65.930969
11
8.316159
21
65.924187
0
LINE
8
Layer 1
10
8.316159
20
65.924187
11
8.298588
21
65.917489
0
LINE
8
Layer 1
10
8.019243
20
65.082081
11
8.041234
21
64.880770
0
LINE
8
Layer 1
10
8.041234
20
64.880770
11
8.063024
21
64.679536
0
LINE
8
Layer 1
10
8.063024
20
64.679536
11
8.125894
21
64.578498
0
LINE
8
Layer 1
10
8.125894
20
64.578498
11
8.188885
21
64.477187
0
LINE
8
Layer 1
10
8.188885
20
64.477187
11
8.309402
21
64.433581
0
LINE
8
Layer 1
10
8.309402
20
64.433581
11
8.429920
21
64.389980
0
LINE
8
Layer 1
10
8.429920
20
64.389980
11
9.106384
21
64.391673
0
LINE
8
Layer 1
10
9.106384
20
64.391673
11
9.782926
21
64.393648
0
LINE
8
Layer 1
10
9.782926
20
64.393648
11
9.903686
21
64.421809
0
LINE
8
Layer 1
10
9.903686
20
64.421809
11
10.024644
21
64.449895
0
LINE
8
Layer 1
10
10.024644
20
64.449895
11
10.082535
21
64.483656
0
LINE
8
Layer 1
10
10.082535
20
64.483656
11
10.140349
21
64.517220
0
LINE
8
Layer 1
10
10.140349
20
64.517220
11
10.198248
21
64.662060
0
LINE
8
Layer 1
10
10.198248
20
64.662060
11
10.256068
21
64.806705
0
LINE
8
Layer 1
10
10.256068
20
64.806705
11
10.263713
21
64.974868
0
LINE
8
Layer 1
10
10.263713
20
64.974868
11
10.271358
21
65.143032
0
LINE
8
Layer 1
10
10.271358
20
65.143032
11
10.219571
21
65.273504
0
LINE
8
Layer 1
10
10.219571
20
65.273504
11
10.167783
21
65.403977
0
LINE
8
Layer 1
10
10.167783
20
65.403977
11
10.035527
21
65.455809
0
LINE
8
Layer 1
10
10.035527
20
65.455809
11
9.903075
21
65.507718
0
LINE
8
Layer 1
10
9.903075
20
65.507718
11
9.169494
21
65.512973
0
LINE
8
Layer 1
10
9.169494
20
65.512973
11
8.435912
21
65.518225
0
LINE
8
Layer 1
10
8.435912
20
65.518225
11
8.290044
21
65.459549
0
LINE
8
Layer 1
10
8.290044
20
65.459549
11
8.144099
21
65.400676
0
LINE
8
Layer 1
10
8.144099
20
65.400676
11
8.081638
21
65.241301
0
LINE
8
Layer 1
10
8.081638
20
65.241301
11
8.019243
21
65.082081
0
LINE
8
Layer 1
10
8.339893
20
65.273794
11
8.416844
21
65.328423
0
LINE
8
Layer 1
10
8.416844
20
65.328423
11
8.493872
21
65.383247
0
LINE
8
Layer 1
10
8.493872
20
65.383247
11
9.151992
21
65.390785
0
LINE
8
Layer 1
10
9.151992
20
65.390785
11
9.810188
21
65.398524
0
LINE
8
Layer 1
10
9.810188
20
65.398524
11
9.848351
21
65.383114
0
LINE
8
Layer 1
10
9.848351
20
65.383114
11
9.886320
21
65.367781
0
LINE
8
Layer 1
10
9.886320
20
65.367781
11
9.955607
21
65.296420
0
LINE
8
Layer 1
10
9.955607
20
65.296420
11
10.024621
21
65.224940
0
LINE
8
Layer 1
10
10.024621
20
65.224940
11
10.033282
21
65.023182
0
LINE
8
Layer 1
10
10.033282
20
65.023182
11
10.042141
21
64.821348
0
LINE
8
Layer 1
10
10.042141
20
64.821348
11
10.002245
21
64.719552
0
LINE
8
Layer 1
10
10.002245
20
64.719552
11
10.002126
21
64.719825
0
LINE
8
Layer 1
10
10.002126
20
64.719825
11
9.962234
21
64.618030
0
LINE
8
Layer 1
10
9.962234
20
64.618030
11
9.865098
21
64.580156
0
LINE
8
Layer 1
10
9.865098
20
64.580156
11
9.767766
21
64.542362
0
LINE
8
Layer 1
10
9.767766
20
64.542362
11
9.160136
21
64.534079
0
LINE
8
Layer 1
10
9.160136
20
64.534079
11
8.552309
21
64.525872
0
LINE
8
Layer 1
10
8.552309
20
64.525872
11
8.462485
21
64.563342
0
LINE
8
Layer 1
10
8.462485
20
64.563342
11
8.372858
21
64.600736
0
LINE
8
Layer 1
10
8.372858
20
64.600736
11
8.333146
21
64.680457
0
LINE
8
Layer 1
10
8.333146
20
64.680457
11
8.293435
21
64.760176
0
LINE
8
Layer 1
10
8.293435
20
64.760176
11
8.285741
21
64.930271
0
LINE
8
Layer 1
10
8.285741
20
64.930271
11
8.278048
21
65.100365
0
LINE
8
Layer 1
10
8.278048
20
65.100365
11
8.309076
21
65.187048
0
LINE
8
Layer 1
10
8.309076
20
65.187048
11
8.339893
21
65.273794
0
LINE
8
Layer 1
10
8.425971
20
65.278829
11
8.386634
21
65.176136
0
LINE
8
Layer 1
10
8.386634
20
65.176136
11
8.347018
21
65.073324
0
LINE
8
Layer 1
10
8.347018
20
65.073324
11
8.355789
21
64.905981
0
LINE
8
Layer 1
10
8.355789
20
64.905981
11
8.364637
21
64.738835
0
LINE
8
Layer 1
10
8.364637
20
64.738835
11
8.393287
21
64.699722
0
LINE
8
Layer 1
10
8.393287
20
64.699722
11
8.421859
21
64.660415
0
LINE
8
Layer 1
10
8.421859
20
64.660415
11
8.504830
21
64.627444
0
LINE
8
Layer 1
10
8.504830
20
64.627444
11
8.587999
21
64.594397
0
LINE
8
Layer 1
10
8.587999
20
64.594397
11
9.207913
21
64.606259
0
LINE
8
Layer 1
10
9.207913
20
64.606259
11
9.827825
21
64.618123
0
LINE
8
Layer 1
10
9.827825
20
64.618123
11
9.869863
21
64.649031
0
LINE
8
Layer 1
10
9.869863
20
64.649031
11
9.912096
21
64.679859
0
LINE
8
Layer 1
10
9.912096
20
64.679859
11
9.943410
21
64.759175
0
LINE
8
Layer 1
10
9.943410
20
64.759175
11
9.943214
21
64.759251
0
LINE
8
Layer 1
10
9.943214
20
64.759251
11
9.974718
21
64.838491
0
LINE
8
Layer 1
10
9.974718
20
64.838491
11
9.962410
21
65.034421
0
LINE
8
Layer 1
10
9.962410
20
65.034421
11
9.950303
21
65.230275
0
LINE
8
Layer 1
10
9.950303
20
65.230275
11
9.880620
21
65.279803
0
LINE
8
Layer 1
10
9.880620
20
65.279803
11
9.811013
21
65.329526
0
LINE
8
Layer 1
10
9.811013
20
65.329526
11
9.208273
21
65.322725
0
LINE
8
Layer 1
10
9.208273
20
65.322725
11
8.605334
21
65.316002
0
LINE
8
Layer 1
10
8.605334
20
65.316002
11
8.515746
21
65.297390
0
LINE
8
Layer 1
10
8.515746
20
65.297390
11
8.425971
21
65.278829
0
LINE
8
Layer 1
10
8.044224
20
64.289725
11
8.046538
21
64.153928
0
LINE
8
Layer 1
10
8.046538
20
64.153928
11
8.048768
21
64.017935
0
LINE
8
Layer 1
10
8.048768
20
64.017935
11
8.062805
21
63.983192
0
LINE
8
Layer 1
10
8.062805
20
63.983192
11
8.076770
21
63.948249
0
LINE
8
Layer 1
10
8.076770
20
63.948249
11
8.973052
21
63.965377
0
LINE
8
Layer 1
10
8.973052
20
63.965377
11
9.869061
21
63.982378
0
LINE
8
Layer 1
10
9.869061
20
63.982378
11
9.975770
21
63.940560
0
LINE
8
Layer 1
10
9.975770
20
63.940560
11
10.082282
21
63.898816
0
LINE
8
Layer 1
10
10.082282
20
63.898816
11
10.147147
21
63.770473
0
LINE
8
Layer 1
10
10.147147
20
63.770473
11
10.212012
21
63.642130
0
LINE
8
Layer 1
10
10.212012
20
63.642130
11
10.165214
21
63.479337
0
LINE
8
Layer 1
10
10.165214
20
63.479337
11
10.118293
21
63.316818
0
LINE
8
Layer 1
10
10.118293
20
63.316818
11
9.973015
21
63.257909
0
LINE
8
Layer 1
10
9.973015
20
63.257909
11
9.827540
21
63.199079
0
LINE
8
Layer 1
10
9.827540
20
63.199079
11
9.541376
21
63.193121
0
LINE
8
Layer 1
10
9.541376
20
63.193121
11
9.254938
21
63.187042
0
LINE
8
Layer 1
10
9.254938
20
63.187042
11
9.241662
21
63.151435
0
LINE
8
Layer 1
10
9.241662
20
63.151435
11
9.228265
21
63.116103
0
LINE
8
Layer 1
10
9.228265
20
63.116103
11
9.237815
21
63.067019
0
LINE
8
Layer 1
10
9.237815
20
63.067019
11
9.247253
21
63.018210
0
LINE
8
Layer 1
10
9.247253
20
63.018210
11
9.803047
21
63.001243
0
LINE
8
Layer 1
10
9.803047
20
63.001243
11
10.358840
21
62.984275
0
LINE
8
Layer 1
10
10.358840
20
62.984275
11
10.370044
21
62.979881
0
LINE
8
Layer 1
10
10.370044
20
62.979881
11
10.381042
21
62.975589
0
LINE
8
Layer 1
10
10.381042
20
62.975589
11
10.402443
21
63.031357
0
LINE
8
Layer 1
10
10.402443
20
63.031357
11
10.423652
21
63.087202
0
LINE
8
Layer 1
10
10.423652
20
63.087202
11
10.414344
21
63.134603
0
LINE
8
Layer 1
10
10.414344
20
63.134603
11
10.405113
21
63.182199
0
LINE
8
Layer 1
10
10.405113
20
63.182199
11
10.346713
21
63.170851
0
LINE
8
Layer 1
10
10.346713
20
63.170851
11
10.288390
21
63.159700
0
LINE
8
Layer 1
10
10.288390
20
63.159700
11
10.272041
21
63.165427
0
LINE
8
Layer 1
10
10.272041
20
63.165427
11
10.255774
21
63.171350
0
LINE
8
Layer 1
10
10.255774
20
63.171350
11
10.320999
21
63.305384
0
LINE
8
Layer 1
10
10.320999
20
63.305384
11
10.386223
21
63.439419
0
LINE
8
Layer 1
10
10.386223
20
63.439419
11
10.380093
21
63.626808
0
LINE
8
Layer 1
10
10.380093
20
63.626808
11
10.374082
21
63.813925
0
LINE
8
Layer 1
10
10.374082
20
63.813925
11
10.323682
21
63.919597
0
LINE
8
Layer 1
10
10.323682
20
63.919597
11
10.273359
21
64.025465
0
LINE
8
Layer 1
10
10.273359
20
64.025465
11
10.107538
21
64.084784
0
LINE
8
Layer 1
10
10.107538
20
64.084784
11
9.941522
21
64.144180
0
LINE
8
Layer 1
10
9.941522
20
64.144180
11
9.243520
21
64.139588
0
LINE
8
Layer 1
10
9.243520
20
64.139588
11
8.545715
21
64.134895
0
LINE
8
Layer 1
10
8.545715
20
64.134895
11
8.509284
21
64.148947
0
LINE
8
Layer 1
10
8.509284
20
64.148947
11
8.472928
21
64.163190
0
LINE
8
Layer 1
10
8.472928
20
64.163190
11
8.473267
21
64.216107
0
LINE
8
Layer 1
10
8.473267
20
64.216107
11
8.473690
21
64.269219
0
LINE
8
Layer 1
10
8.473690
20
64.269219
11
8.258944
21
64.279478
0
LINE
8
Layer 1
10
8.258944
20
64.279478
11
8.044224
21
64.289725
0
LINE
8
Layer 1
10
8.046905
20
63.861571
11
8.054457
21
63.689947
0
LINE
8
Layer 1
10
8.054457
20
63.689947
11
8.061730
21
63.518204
0
LINE
8
Layer 1
10
8.061730
20
63.518204
11
8.078827
21
63.511501
0
LINE
8
Layer 1
10
8.078827
20
63.511501
11
8.095924
21
63.504807
0
LINE
8
Layer 1
10
8.095924
20
63.504807
11
8.344040
21
63.525906
0
LINE
8
Layer 1
10
8.344040
20
63.525906
11
8.592158
21
63.547002
0
LINE
8
Layer 1
10
8.592158
20
63.547002
11
8.606348
21
63.636427
0
LINE
8
Layer 1
10
8.606348
20
63.636427
11
8.620538
21
63.725854
0
LINE
8
Layer 1
10
8.620538
20
63.725854
11
8.725264
21
63.732190
0
LINE
8
Layer 1
10
8.725264
20
63.732190
11
8.829990
21
63.738526
0
LINE
8
Layer 1
10
8.829990
20
63.738526
11
9.306245
21
63.751144
0
LINE
8
Layer 1
10
9.306245
20
63.751144
11
9.782698
21
63.763686
0
LINE
8
Layer 1
10
9.782698
20
63.763686
11
9.878361
21
63.715086
0
LINE
8
Layer 1
10
9.878361
20
63.715086
11
9.974024
21
63.666487
0
LINE
8
Layer 1
10
9.974024
20
63.666487
11
9.942907
21
63.587094
0
LINE
8
Layer 1
10
9.942907
20
63.587094
11
9.911789
21
63.507701
0
LINE
8
Layer 1
10
9.911789
20
63.507701
11
9.721658
21
63.489947
0
LINE
8
Layer 1
10
9.721658
20
63.489947
11
9.531526
21
63.472195
0
LINE
8
Layer 1
10
9.531526
20
63.472195
11
9.375486
21
63.472618
0
LINE
8
Layer 1
10
9.375486
20
63.472618
11
9.219446
21
63.473042
0
LINE
8
Layer 1
10
9.219446
20
63.473042
11
9.223039
21
63.368259
0
LINE
8
Layer 1
10
9.223039
20
63.368259
11
9.226347
21
63.263355
0
LINE
8
Layer 1
10
9.226347
20
63.263355
11
9.227645
21
63.253336
0
LINE
8
Layer 1
10
9.227645
20
63.253336
11
9.228943
21
63.243317
0
LINE
8
Layer 1
10
9.228943
20
63.243317
11
9.503837
21
63.252334
0
LINE
8
Layer 1
10
9.503837
20
63.252334
11
9.778808
21
63.261548
0
LINE
8
Layer 1
10
9.778808
20
63.261548
11
9.911476
21
63.296376
0
LINE
8
Layer 1
10
9.911476
20
63.296376
11
10.044221
21
63.331404
0
LINE
8
Layer 1
10
10.044221
20
63.331404
11
10.087733
21
63.442436
0
LINE
8
Layer 1
10
10.087733
20
63.442436
11
10.131249
21
63.553468
0
LINE
8
Layer 1
10
10.131249
20
63.553468
11
10.120143
21
63.661649
0
LINE
8
Layer 1
10
10.120143
20
63.661649
11
10.108770
21
63.769709
0
LINE
8
Layer 1
10
10.108770
20
63.769709
11
10.065179
21
63.809465
0
LINE
8
Layer 1
10
10.065179
20
63.809465
11
10.021473
21
63.849491
0
LINE
8
Layer 1
10
10.021473
20
63.849491
11
9.928324
21
63.886002
0
LINE
8
Layer 1
10
9.928324
20
63.886002
11
9.835175
21
63.922513
0
LINE
8
Layer 1
10
9.835175
20
63.922513
11
8.977186
21
63.905346
0
LINE
8
Layer 1
10
8.977186
20
63.905346
11
8.119275
21
63.888370
0
LINE
8
Layer 1
10
8.119275
20
63.888370
11
8.083229
21
63.875063
0
LINE
8
Layer 1
10
8.083229
20
63.875063
11
8.046905
21
63.861571
0
LINE
8
Layer 1
10
9.398745
20
67.132171
11
9.407948
21
67.111109
0
LINE
8
Layer 1
10
9.407948
20
67.111109
11
9.417228
21
67.090244
0
LINE
8
Layer 1
10
9.417228
20
67.090244
11
9.626831
21
67.081320
0
LINE
8
Layer 1
10
9.626831
20
67.081320
11
9.836707
21
67.072518
0
LINE
8
Layer 1
10
9.836707
20
67.072518
11
9.911776
21
67.043099
0
LINE
8
Layer 1
10
9.911776
20
67.043099
11
9.986845
21
67.013680
0
LINE
8
Layer 1
10
9.986845
20
67.013680
11
9.991939
21
66.918509
0
LINE
8
Layer 1
10
9.991939
20
66.918509
11
9.997107
21
66.823535
0
LINE
8
Layer 1
10
9.997107
20
66.823535
11
9.934743
21
66.751175
0
LINE
8
Layer 1
10
9.934743
20
66.751175
11
9.872303
21
66.678619
0
LINE
8
Layer 1
10
9.872303
20
66.678619
11
9.609507
21
66.648990
0
LINE
8
Layer 1
10
9.609507
20
66.648990
11
9.346831
21
66.619089
0
LINE
8
Layer 1
10
9.346831
20
66.619089
11
9.290284
21
66.572562
0
LINE
8
Layer 1
10
9.290284
20
66.572562
11
9.233617
21
66.526304
0
LINE
8
Layer 1
10
9.233617
20
66.526304
11
9.223855
21
66.279852
0
LINE
8
Layer 1
10
9.223855
20
66.279852
11
9.214093
21
66.033400
0
LINE
8
Layer 1
10
9.214093
20
66.033400
11
9.236385
21
66.034162
0
LINE
8
Layer 1
10
9.236385
20
66.034162
11
9.258878
21
66.034839
0
LINE
8
Layer 1
10
9.258878
20
66.034839
11
9.803206
21
66.054558
0
LINE
8
Layer 1
10
9.803206
20
66.054558
11
10.347533
21
66.074277
0
LINE
8
Layer 1
10
10.347533
20
66.074277
11
10.336146
21
66.184611
0
LINE
8
Layer 1
10
10.336146
20
66.184611
11
10.324552
21
66.295022
0
LINE
8
Layer 1
10
10.324552
20
66.295022
11
10.302149
21
66.303802
0
LINE
8
Layer 1
10
10.302149
20
66.303802
11
10.279947
21
66.312506
0
LINE
8
Layer 1
10
10.279947
20
66.312506
11
10.032569
21
66.314735
0
LINE
8
Layer 1
10
10.032569
20
66.314735
11
9.785387
21
66.316880
0
LINE
8
Layer 1
10
9.785387
20
66.316880
11
9.757119
21
66.244759
0
LINE
8
Layer 1
10
9.757119
20
66.244759
11
9.728933
21
66.172834
0
LINE
8
Layer 1
10
9.728933
20
66.172834
11
9.514219
21
66.161771
0
LINE
8
Layer 1
10
9.514219
20
66.161771
11
9.299701
21
66.150629
0
LINE
8
Layer 1
10
9.299701
20
66.150629
11
9.288206
21
66.235838
0
LINE
8
Layer 1
10
9.288206
20
66.235838
11
9.276711
21
66.321046
0
LINE
8
Layer 1
10
9.276711
20
66.321046
11
9.303260
21
66.392254
0
LINE
8
Layer 1
10
9.303260
20
66.392254
11
9.330009
21
66.463385
0
LINE
8
Layer 1
10
9.330009
20
66.463385
11
9.419254
21
66.480558
0
LINE
8
Layer 1
10
9.419254
20
66.480558
11
9.508226
21
66.497605
0
LINE
8
Layer 1
10
9.508226
20
66.497605
11
9.708926
21
66.478117
0
LINE
8
Layer 1
10
9.708926
20
66.478117
11
9.909353
21
66.458514
0
LINE
8
Layer 1
10
9.909353
20
66.458514
11
10.038941
21
66.502260
0
LINE
8
Layer 1
10
10.038941
20
66.502260
11
10.168332
21
66.546086
0
LINE
8
Layer 1
10
10.168332
20
66.546086
11
10.208918
21
66.649650
0
LINE
8
Layer 1
10
10.208918
20
66.649650
11
10.249583
21
66.753411
0
LINE
8
Layer 1
10
10.249583
20
66.753411
11
10.219547
21
66.889640
0
LINE
8
Layer 1
10
10.219547
20
66.889640
11
10.189312
21
67.025947
0
LINE
8
Layer 1
10
10.189312
20
67.025947
11
10.080285
21
67.079784
0
LINE
8
Layer 1
10
10.080285
20
67.079784
11
9.971181
21
67.133425
0
LINE
8
Layer 1
10
9.971181
20
67.133425
11
9.772231
21
67.132466
0
LINE
8
Layer 1
10
9.772231
20
67.132466
11
9.573477
21
67.131478
0
LINE
8
Layer 1
10
9.573477
20
67.131478
11
9.486146
21
67.131930
0
LINE
8
Layer 1
10
9.486146
20
67.131930
11
9.398745
21
67.132171
0
LINE
8
Layer 1
10
8.625157
20
64.955251
11
8.672833
21
65.048557
0
LINE
8
Layer 1
10
8.672833
20
65.048557
11
8.720584
21
65.142058
0
LINE
8
Layer 1
10
8.720584
20
65.142058
11
9.075224
21
65.159043
0
LINE
8
Layer 1
10
9.075224
20
65.159043
11
9.430061
21
65.175942
0
LINE
8
Layer 1
10
9.430061
20
65.175942
11
9.497254
21
65.151874
0
LINE
8
Layer 1
10
9.497254
20
65.151874
11
9.564566
21
65.127538
0
LINE
8
Layer 1
10
9.564566
20
65.127538
11
9.590522
21
65.053209
0
LINE
8
Layer 1
10
9.590522
20
65.053209
11
9.616280
21
64.978957
0
LINE
8
Layer 1
10
9.616280
20
64.978957
11
9.614389
21
64.919170
0
LINE
8
Layer 1
10
9.614389
20
64.919170
11
9.612301
21
64.859461
0
LINE
8
Layer 1
10
9.612301
20
64.859461
11
9.555590
21
64.825235
0
LINE
8
Layer 1
10
9.555590
20
64.825235
11
9.498878
21
64.791013
0
LINE
8
Layer 1
10
9.498878
20
64.791013
11
9.149060
21
64.779397
0
LINE
8
Layer 1
10
9.149060
20
64.779397
11
8.799515
21
64.767899
0
LINE
8
Layer 1
10
8.799515
20
64.767899
11
8.743705
21
64.789768
0
LINE
8
Layer 1
10
8.743705
20
64.789768
11
8.687894
21
64.811638
0
LINE
8
Layer 1
10
8.687894
20
64.811638
11
8.656390
21
64.883380
0
LINE
8
Layer 1
10
8.656390
20
64.883380
11
8.625157
21
64.955251
0
LINE
8
Layer 1
10
8.116607
20
62.733851
11
8.090392
21
62.227927
0
LINE
8
Layer 1
10
8.090392
20
62.227927
11
8.064182
21
61.722003
0
LINE
8
Layer 1
10
8.064182
20
61.722003
11
8.078132
21
61.716533
0
LINE
8
Layer 1
10
8.078132
20
61.716533
11
8.091887
21
61.711140
0
LINE
8
Layer 1
10
8.091887
20
61.711140
11
8.331676
21
61.723713
0
LINE
8
Layer 1
10
8.331676
20
61.723713
11
8.571466
21
61.736286
0
LINE
8
Layer 1
10
8.571466
20
61.736286
11
8.579083
21
61.800855
0
LINE
8
Layer 1
10
8.579083
20
61.800855
11
8.586701
21
61.865425
0
LINE
8
Layer 1
10
8.586701
20
61.865425
11
9.257287
21
61.771733
0
LINE
8
Layer 1
10
9.257287
20
61.771733
11
9.927677
21
61.678119
0
LINE
8
Layer 1
10
9.927677
20
61.678119
11
9.946676
21
61.617851
0
LINE
8
Layer 1
10
9.946676
20
61.617851
11
9.965796
21
61.557310
0
LINE
8
Layer 1
10
9.965796
20
61.557310
11
10.165004
21
61.543848
0
LINE
8
Layer 1
10
10.165004
20
61.543848
11
10.364135
21
61.530186
0
LINE
8
Layer 1
10
10.364135
20
61.530186
11
10.372450
21
61.551409
0
LINE
8
Layer 1
10
10.372450
20
61.551409
11
10.380767
21
61.572629
0
LINE
8
Layer 1
10
10.380767
20
61.572629
11
10.385113
21
61.686091
0
LINE
8
Layer 1
10
10.385113
20
61.686091
11
10.389456
21
61.799554
0
LINE
8
Layer 1
10
10.389456
20
61.799554
11
10.314830
21
61.810439
0
LINE
8
Layer 1
10
10.314830
20
61.810439
11
10.240203
21
61.821322
0
LINE
8
Layer 1
10
10.240203
20
61.821322
11
9.309283
21
61.948352
0
LINE
8
Layer 1
10
9.309283
20
61.948352
11
8.378285
21
62.075185
0
LINE
8
Layer 1
10
8.378285
20
62.075185
11
8.351361
21
62.085734
0
LINE
8
Layer 1
10
8.351361
20
62.085734
11
8.324632
21
62.096205
0
LINE
8
Layer 1
10
8.324632
20
62.096205
11
8.325987
21
62.252800
0
LINE
8
Layer 1
10
8.325987
20
62.252800
11
8.327398
21
62.409121
0
LINE
8
Layer 1
10
8.327398
20
62.409121
11
8.334634
21
62.427598
0
LINE
8
Layer 1
10
8.334634
20
62.427598
11
8.341873
21
62.446072
0
LINE
8
Layer 1
10
8.341873
20
62.446072
11
9.277746
21
62.602971
0
LINE
8
Layer 1
10
9.277746
20
62.602971
11
10.213345
21
62.759750
0
LINE
8
Layer 1
10
10.213345
20
62.759750
11
10.221202
21
62.824909
0
LINE
8
Layer 1
10
10.221202
20
62.824909
11
10.228782
21
62.889948
0
LINE
8
Layer 1
10
10.228782
20
62.889948
11
10.209913
21
62.915261
0
LINE
8
Layer 1
10
10.209913
20
62.915261
11
10.190959
21
62.940373
0
LINE
8
Layer 1
10
10.190959
20
62.940373
11
9.985327
21
62.942066
0
LINE
8
Layer 1
10
9.985327
20
62.942066
11
9.779892
21
62.943731
0
LINE
8
Layer 1
10
9.779892
20
62.943731
11
9.766596
21
62.883199
0
LINE
8
Layer 1
10
9.766596
20
62.883199
11
9.753380
21
62.822863
0
LINE
8
Layer 1
10
9.753380
20
62.822863
11
9.190204
21
62.729598
0
LINE
8
Layer 1
10
9.190204
20
62.729598
11
8.626831
21
62.636410
0
LINE
8
Layer 1
10
8.626831
20
62.636410
11
8.610129
21
62.698497
0
LINE
8
Layer 1
10
8.610129
20
62.698497
11
8.593311
21
62.760858
0
LINE
8
Layer 1
10
8.593311
20
62.760858
11
8.392850
21
62.763059
0
LINE
8
Layer 1
10
8.392850
20
62.763059
11
8.192269
21
62.765514
0
LINE
8
Layer 1
10
8.192269
20
62.765514
11
8.154361
21
62.749772
0
LINE
8
Layer 1
10
8.154361
20
62.749772
11
8.116607
21
62.733851
0
LINE
8
Layer 1
10
8.384378
20
62.377045
11
8.388123
21
62.269245
0
LINE
8
Layer 1
10
8.388123
20
62.269245
11
8.391716
21
62.161521
0
LINE
8
Layer 1
10
8.391716
20
62.161521
11
8.393945
21
62.149306
0
LINE
8
Layer 1
10
8.393945
20
62.149306
11
8.396147
21
62.136897
0
LINE
8
Layer 1
10
8.396147
20
62.136897
11
8.703471
21
62.093301
0
LINE
8
Layer 1
10
8.703471
20
62.093301
11
9.010795
21
62.049705
0
LINE
8
Layer 1
10
9.010795
20
62.049705
11
9.142360
21
62.034868
0
LINE
8
Layer 1
10
9.142360
20
62.034868
11
9.274003
21
62.020227
0
LINE
8
Layer 1
10
9.274003
20
62.020227
11
9.277547
21
62.029263
0
LINE
8
Layer 1
10
9.277547
20
62.029263
11
9.281194
21
62.038501
0
LINE
8
Layer 1
10
9.281194
20
62.038501
11
9.278597
21
62.274833
0
LINE
8
Layer 1
10
9.278597
20
62.274833
11
9.276057
21
62.511164
0
LINE
8
Layer 1
10
9.276057
20
62.511164
11
9.270910
21
62.524061
0
LINE
8
Layer 1
10
9.270910
20
62.524061
11
9.265686
21
62.536764
0
LINE
8
Layer 1
10
9.265686
20
62.536764
11
8.859034
21
62.469208
0
LINE
8
Layer 1
10
8.859034
20
62.469208
11
8.452578
21
62.401576
0
LINE
8
Layer 1
10
8.452578
20
62.401576
11
8.418524
21
62.389305
0
LINE
8
Layer 1
10
8.418524
20
62.389305
11
8.384378
21
62.377045
0
LINE
8
Layer 1
10
8.061647
20
61.367305
11
8.064046
21
61.031063
0
LINE
8
Layer 1
10
8.064046
20
61.031063
11
8.066445
21
60.694821
0
LINE
8
Layer 1
10
8.066445
20
60.694821
11
8.082529
21
60.676279
0
LINE
8
Layer 1
10
8.082529
20
60.676279
11
8.098731
21
60.657457
0
LINE
8
Layer 1
10
8.098731
20
60.657457
11
8.624637
21
60.553817
0
LINE
8
Layer 1
10
8.624637
20
60.553817
11
9.150740
21
60.450100
0
LINE
8
Layer 1
10
9.150740
20
60.450100
11
9.157911
21
60.433689
0
LINE
8
Layer 1
10
9.157911
20
60.433689
11
9.165083
21
60.417278
0
LINE
8
Layer 1
10
9.165083
20
60.417278
11
8.622025
21
60.115046
0
LINE
8
Layer 1
10
8.622025
20
60.115046
11
8.079045
21
59.813010
0
LINE
8
Layer 1
10
8.079045
20
59.813010
11
8.080004
21
59.665053
0
LINE
8
Layer 1
10
8.080004
20
59.665053
11
8.081246
21
59.517215
0
LINE
8
Layer 1
10
8.081246
20
59.517215
11
8.122710
21
59.500962
0
LINE
8
Layer 1
10
8.122710
20
59.500962
11
8.164369
21
59.484632
0
LINE
8
Layer 1
10
8.164369
20
59.484632
11
8.343957
21
59.491104
0
LINE
8
Layer 1
10
8.343957
20
59.491104
11
8.523468
21
59.497375
0
LINE
8
Layer 1
10
8.523468
20
59.497375
11
8.607346
21
59.497374
0
LINE
8
Layer 1
10
8.607346
20
59.497374
11
8.691148
21
59.497176
0
LINE
8
Layer 1
10
8.691148
20
59.497176
11
8.681690
21
59.577735
0
LINE
8
Layer 1
10
8.681690
20
59.577735
11
8.672227
21
59.658294
0
LINE
8
Layer 1
10
8.672227
20
59.658294
11
8.694387
21
59.667977
0
LINE
8
Layer 1
10
8.694387
20
59.667977
11
8.716818
21
59.677778
0
LINE
8
Layer 1
10
8.716818
20
59.677778
11
9.235514
21
59.674919
0
LINE
8
Layer 1
10
9.235514
20
59.674919
11
9.754208
21
59.672061
0
LINE
8
Layer 1
10
9.754208
20
59.672061
11
9.773656
21
59.592120
0
LINE
8
Layer 1
10
9.773656
20
59.592120
11
9.792910
21
59.512256
0
LINE
8
Layer 1
10
9.792910
20
59.512256
11
10.070050
21
59.519487
0
LINE
8
Layer 1
10
10.070050
20
59.519487
11
10.347190
21
59.526712
0
LINE
8
Layer 1
10
10.347190
20
59.526712
11
10.353167
21
59.540233
0
LINE
8
Layer 1
10
10.353167
20
59.540233
11
10.358871
21
59.553633
0
LINE
8
Layer 1
10
10.358871
20
59.553633
11
10.362074
21
59.674104
0
LINE
8
Layer 1
10
10.362074
20
59.674104
11
10.365209
21
59.794378
0
LINE
8
Layer 1
10
10.365209
20
59.794378
11
10.332080
21
59.807594
0
LINE
8
Layer 1
10
10.332080
20
59.807594
11
10.298750
21
59.820887
0
LINE
8
Layer 1
10
10.298750
20
59.820887
11
9.346876
21
59.805376
0
LINE
8
Layer 1
10
9.346876
20
59.805376
11
8.395002
21
59.789863
0
LINE
8
Layer 1
10
8.395002
20
59.789863
11
8.389758
21
59.804837
0
LINE
8
Layer 1
10
8.389758
20
59.804837
11
8.384444
21
59.819612
0
LINE
8
Layer 1
10
8.384444
20
59.819612
11
8.864459
21
60.124108
0
LINE
8
Layer 1
10
8.864459
20
60.124108
11
9.344397
21
60.428408
0
LINE
8
Layer 1
10
9.344397
20
60.428408
11
9.335671
21
60.448375
0
LINE
8
Layer 1
10
9.335671
20
60.448375
11
9.326747
21
60.468418
0
LINE
8
Layer 1
10
9.326747
20
60.468418
11
8.769043
21
60.640741
0
LINE
8
Layer 1
10
8.769043
20
60.640741
11
8.211143
21
60.813142
0
LINE
8
Layer 1
10
8.211143
20
60.813142
11
8.201581
21
60.835028
0
LINE
8
Layer 1
10
8.201581
20
60.835028
11
8.192020
21
60.856915
0
LINE
8
Layer 1
10
8.192020
20
60.856915
11
8.217185
21
60.973776
0
LINE
8
Layer 1
10
8.217185
20
60.973776
11
8.242551
21
61.090561
0
LINE
8
Layer 1
10
8.242551
20
61.090561
11
9.109973
21
61.120810
0
LINE
8
Layer 1
10
9.109973
20
61.120810
11
9.977395
21
61.151059
0
LINE
8
Layer 1
10
9.977395
20
61.151059
11
10.157383
21
61.156238
0
LINE
8
Layer 1
10
10.157383
20
61.156238
11
10.337450
21
61.161609
0
LINE
8
Layer 1
10
10.337450
20
61.161609
11
10.349956
21
61.257137
0
LINE
8
Layer 1
10
10.349956
20
61.257137
11
10.362653
21
61.352589
0
LINE
8
Layer 1
10
10.362653
20
61.352589
11
10.348663
21
61.385729
0
LINE
8
Layer 1
10
10.348663
20
61.385729
11
10.334552
21
61.419145
0
LINE
8
Layer 1
10
10.334552
20
61.419145
11
10.048098
21
61.415352
0
LINE
8
Layer 1
10
10.048098
20
61.415352
11
9.761840
21
61.411457
0
LINE
8
Layer 1
10
9.761840
20
61.411457
11
9.747334
21
61.333945
0
LINE
8
Layer 1
10
9.747334
20
61.333945
11
9.732828
21
61.256432
0
LINE
8
Layer 1
10
9.732828
20
61.256432
11
9.240020
21
61.245541
0
LINE
8
Layer 1
10
9.240020
20
61.245541
11
8.747408
21
61.234568
0
LINE
8
Layer 1
10
8.747408
20
61.234568
11
8.717148
21
61.246430
0
LINE
8
Layer 1
10
8.717148
20
61.246430
11
8.687078
21
61.258213
0
LINE
8
Layer 1
10
8.687078
20
61.258213
11
8.691622
21
61.326485
0
LINE
8
Layer 1
10
8.691622
20
61.326485
11
8.696267
21
61.394953
0
LINE
8
Layer 1
10
8.696267
20
61.394953
11
8.413131
21
61.393259
0
LINE
8
Layer 1
10
8.413131
20
61.393259
11
8.129994
21
61.391566
0
LINE
8
Layer 1
10
8.129994
20
61.391566
11
8.095741
21
61.379371
0
LINE
8
Layer 1
10
8.095741
20
61.379371
11
8.061647
21
61.367305
0
LINE
8
Layer 1
10
8.721439
20
62.295955
11
8.949095
21
62.345249
0
LINE
8
Layer 1
10
8.949095
20
62.345249
11
9.176674
21
62.394347
0
LINE
8
Layer 1
10
9.176674
20
62.394347
11
9.196359
21
62.320209
0
LINE
8
Layer 1
10
9.196359
20
62.320209
11
9.215968
21
62.245875
0
LINE
8
Layer 1
10
9.215968
20
62.245875
11
9.202184
21
62.210702
0
LINE
8
Layer 1
10
9.202184
20
62.210702
11
9.188477
21
62.175724
0
LINE
8
Layer 1
10
9.188477
20
62.175724
11
8.960735
21
62.222816
0
LINE
8
Layer 1
10
8.960735
20
62.222816
11
8.732994
21
62.269907
0
LINE
8
Layer 1
10
8.732994
20
62.269907
11
8.727259
21
62.283036
0
LINE
8
Layer 1
10
8.727259
20
62.283036
11
8.721439
21
62.295955
0
LINE
8
Layer 1
10
8.255943
20
60.918465
11
8.280271
21
60.886259
0
LINE
8
Layer 1
10
8.280271
20
60.886259
11
8.304717
21
60.853776
0
LINE
8
Layer 1
10
8.304717
20
60.853776
11
8.754384
21
60.716993
0
LINE
8
Layer 1
10
8.754384
20
60.716993
11
9.204248
21
60.580131
0
LINE
8
Layer 1
10
9.204248
20
60.580131
11
9.367437
21
60.538393
0
LINE
8
Layer 1
10
9.367437
20
60.538393
11
9.530549
21
60.496459
0
LINE
8
Layer 1
10
9.530549
20
60.496459
11
9.492350
21
60.454526
0
LINE
8
Layer 1
10
9.492350
20
60.454526
11
9.454227
21
60.412792
0
LINE
8
Layer 1
10
9.454227
20
60.412792
11
9.119908
21
60.202404
0
LINE
8
Layer 1
10
9.119908
20
60.202404
11
8.785669
21
59.992213
0
LINE
8
Layer 1
10
8.785669
20
59.992213
11
8.695184
21
59.927927
0
LINE
8
Layer 1
10
8.695184
20
59.927927
11
8.604898
21
59.863563
0
LINE
8
Layer 1
10
8.604898
20
59.863563
11
9.354785
21
59.875044
0
LINE
8
Layer 1
10
9.354785
20
59.875044
11
10.104673
21
59.886525
0
LINE
8
Layer 1
10
10.104673
20
59.886525
11
10.241674
21
59.890219
0
LINE
8
Layer 1
10
10.241674
20
59.890219
11
10.378677
21
59.893913
0
LINE
8
Layer 1
10
10.378677
20
59.893913
11
10.378456
21
60.043169
0
LINE
8
Layer 1
10
10.378456
20
60.043169
11
10.378235
21
60.192424
0
LINE
8
Layer 1
10
10.378235
20
60.192424
11
10.350329
21
60.203363
0
LINE
8
Layer 1
10
10.350329
20
60.203363
11
10.322234
21
60.214373
0
LINE
8
Layer 1
10
10.322234
20
60.214373
11
10.043265
21
60.205370
0
LINE
8
Layer 1
10
10.043265
20
60.205370
11
9.764491
21
60.196288
0
LINE
8
Layer 1
10
9.764491
20
60.196288
11
9.754675
21
60.120336
0
LINE
8
Layer 1
10
9.754675
20
60.120336
11
9.744851
21
60.044385
0
LINE
8
Layer 1
10
9.744851
20
60.044385
11
9.744089
21
59.995501
0
LINE
8
Layer 1
10
9.744089
20
59.995501
11
9.743327
21
59.946617
0
LINE
8
Layer 1
10
9.743327
20
59.946617
11
9.352774
21
59.942124
0
LINE
8
Layer 1
10
9.352774
20
59.942124
11
8.962418
21
59.937532
0
LINE
8
Layer 1
10
8.962418
20
59.937532
11
8.956246
21
59.951288
0
LINE
8
Layer 1
10
8.956246
20
59.951288
11
8.950348
21
59.965165
0
LINE
8
Layer 1
10
8.950348
20
59.965165
11
9.381905
21
60.232205
0
LINE
8
Layer 1
10
9.381905
20
60.232205
11
9.813540
21
60.499440
0
LINE
8
Layer 1
10
9.813540
20
60.499440
11
9.807328
21
60.513661
0
LINE
8
Layer 1
10
9.807328
20
60.513661
11
9.801113
21
60.527882
0
LINE
8
Layer 1
10
9.801113
20
60.527882
11
9.378256
21
60.636476
0
LINE
8
Layer 1
10
9.378256
20
60.636476
11
8.955400
21
60.745069
0
LINE
8
Layer 1
10
8.955400
20
60.745069
11
8.909807
21
60.774498
0
LINE
8
Layer 1
10
8.909807
20
60.774498
11
8.864094
21
60.804207
0
LINE
8
Layer 1
10
8.864094
20
60.804207
11
9.289631
21
60.838970
0
LINE
8
Layer 1
10
9.289631
20
60.838970
11
9.714973
21
60.873808
0
LINE
8
Layer 1
10
9.714973
20
60.873808
11
9.714069
21
60.837427
0
LINE
8
Layer 1
10
9.714069
20
60.837427
11
9.713166
21
60.801046
0
LINE
8
Layer 1
10
9.713166
20
60.801046
11
9.722926
21
60.750748
0
LINE
8
Layer 1
10
9.722926
20
60.750748
11
9.732755
21
60.700647
0
LINE
8
Layer 1
10
9.732755
20
60.700647
11
10.020763
21
60.717668
0
LINE
8
Layer 1
10
10.020763
20
60.717668
11
10.308967
21
60.734621
0
LINE
8
Layer 1
10
10.308967
20
60.734621
11
10.312713
21
60.744055
0
LINE
8
Layer 1
10
10.312713
20
60.744055
11
10.316359
21
60.753292
0
LINE
8
Layer 1
10
10.316359
20
60.753292
11
10.323829
21
60.923336
0
LINE
8
Layer 1
10
10.323829
20
60.923336
11
10.331579
21
61.093498
0
LINE
8
Layer 1
10
10.331579
20
61.093498
11
10.302729
21
61.093922
0
LINE
8
Layer 1
10
10.302729
20
61.093922
11
10.273678
21
61.094402
0
LINE
8
Layer 1
10
10.273678
20
61.094402
11
9.286030
21
61.060486
0
LINE
8
Layer 1
10
9.286030
20
61.060486
11
8.298383
21
61.026571
0
LINE
8
Layer 1
10
8.298383
20
61.026571
11
8.277203
21
60.972528
0
LINE
8
Layer 1
10
8.277203
20
60.972528
11
8.255943
21
60.918465
0
LINE
8
Layer 1
10
9.345723
20
62.483835
11
9.339074
21
62.257473
0
LINE
8
Layer 1
10
9.339074
20
62.257473
11
9.332625
21
62.031034
0
LINE
8
Layer 1
10
9.332625
20
62.031034
11
9.364345
21
62.017696
0
LINE
8
Layer 1
10
9.364345
20
62.017696
11
9.396149
21
62.004553
0
LINE
8
Layer 1
10
9.396149
20
62.004553
11
9.872550
21
61.934824
0
LINE
8
Layer 1
10
9.872550
20
61.934824
11
10.348949
21
61.865094
0
LINE
8
Layer 1
10
10.348949
20
61.865094
11
10.357653
21
61.887296
0
LINE
8
Layer 1
10
10.357653
20
61.887296
11
10.366356
21
61.909499
0
LINE
8
Layer 1
10
10.366356
20
61.909499
11
10.359010
21
62.079909
0
LINE
8
Layer 1
10
10.359010
20
62.079909
11
10.351664
21
62.250320
0
LINE
8
Layer 1
10
10.351664
20
62.250320
11
10.156553
21
62.238371
0
LINE
8
Layer 1
10
10.156553
20
62.238371
11
9.961324
21
62.226698
0
LINE
8
Layer 1
10
9.961324
20
62.226698
11
9.933886
21
62.159012
0
LINE
8
Layer 1
10
9.933886
20
62.159012
11
9.906381
21
62.091128
0
LINE
8
Layer 1
10
9.906381
20
62.091128
11
9.692424
21
62.106289
0
LINE
8
Layer 1
10
9.692424
20
62.106289
11
9.478467
21
62.121453
0
LINE
8
Layer 1
10
9.478467
20
62.121453
11
9.473723
21
62.122666
0
LINE
8
Layer 1
10
9.473723
20
62.122666
11
9.469230
21
62.124021
0
LINE
8
Layer 1
10
9.469230
20
62.124021
11
9.468185
21
62.271781
0
LINE
8
Layer 1
10
9.468185
20
62.271781
11
9.467141
21
62.419541
0
LINE
8
Layer 1
10
9.467141
20
62.419541
11
9.472836
21
62.434081
0
LINE
8
Layer 1
10
9.472836
20
62.434081
11
9.478532
21
62.448621
0
LINE
8
Layer 1
10
9.478532
20
62.448621
11
9.626864
21
62.463263
0
LINE
8
Layer 1
10
9.626864
20
62.463263
11
9.775195
21
62.477905
0
LINE
8
Layer 1
10
9.775195
20
62.477905
11
9.766714
21
62.407097
0
LINE
8
Layer 1
10
9.766714
20
62.407097
11
9.758352
21
62.336017
0
LINE
8
Layer 1
10
9.758352
20
62.336017
11
9.904641
21
62.351226
0
LINE
8
Layer 1
10
9.904641
20
62.351226
11
10.050810
21
62.366711
0
LINE
8
Layer 1
10
10.050810
20
62.366711
11
10.124042
21
62.386978
0
LINE
8
Layer 1
10
10.124042
20
62.386978
11
10.197274
21
62.407244
0
LINE
8
Layer 1
10
10.197274
20
62.407244
11
10.203176
21
62.532789
0
LINE
8
Layer 1
10
10.203176
20
62.532789
11
10.209272
21
62.658258
0
LINE
8
Layer 1
10
10.209272
20
62.658258
11
10.204025
21
62.674370
0
LINE
8
Layer 1
10
10.204025
20
62.674370
11
10.198703
21
62.690282
0
LINE
8
Layer 1
10
10.198703
20
62.690282
11
9.786401
21
62.623353
0
LINE
8
Layer 1
10
9.786401
20
62.623353
11
9.374101
21
62.556424
0
LINE
8
Layer 1
10
9.374101
20
62.556424
11
9.359857
21
62.520073
0
LINE
8
Layer 1
10
9.359857
20
62.520073
11
9.345723
21
62.483835
0
LINE
8
Layer 1
10
8.787546
20
60.779035
11
8.793783
21
60.794947
0
LINE
8
Layer 1
10
8.793783
20
60.794947
11
8.800020
21
60.810858
0
LINE
8
Layer 1
10
8.800020
20
60.810858
11
8.815935
21
60.804621
0
LINE
8
Layer 1
10
8.815935
20
60.804621
11
8.831847
21
60.798384
0
LINE
8
Layer 1
10
8.831847
20
60.798384
11
8.825609
21
60.782472
0
LINE
8
Layer 1
10
8.825609
20
60.782472
11
8.819372
21
60.766558
0
LINE
8
Layer 1
10
8.819372
20
60.766558
11
8.803458
21
60.772795
0
LINE
8
Layer 1
10
8.803458
20
60.772795
11
8.787546
21
60.779035
 0 
ENDSEC
 0 
EOF