999
"DXF R12 Output" (www.mydxf.blogspot.com)
 0 
SECTION
 2 
HEADER
 9 
$ACADVER
 1 
AC1009
 9 
$EXTMIN
 10 
 0 
 20 
 0 
 9 
$EXTMAX
 10 
 8.5 
 20 
 11 
 0 
ENDSEC
 0 
SECTION
 2 
ENTITIES
0
LINE
8
Layer 1
10
38.076800
20
48.432100
11
37.968892
21
48.435938
0
LINE
8
Layer 1
10
37.968892
20
48.435938
11
37.950294
21
48.640123
0
LINE
8
Layer 1
10
37.950294
20
48.640123
11
37.888984
21
48.833778
0
LINE
8
Layer 1
10
37.888984
20
48.833778
11
37.806228
21
48.969880
0
LINE
8
Layer 1
10
37.806228
20
48.969880
11
37.854987
21
49.086988
0
LINE
8
Layer 1
10
37.854987
20
49.086988
11
37.951301
21
49.066245
0
LINE
8
Layer 1
10
37.951301
20
49.066245
11
38.011888
21
49.070704
0
LINE
8
Layer 1
10
38.011888
20
49.070704
11
38.090154
21
49.356361
0
LINE
8
Layer 1
10
38.090154
20
49.356361
11
38.153855
21
49.646443
0
LINE
8
Layer 1
10
38.153855
20
49.646443
11
38.301595
21
50.135520
0
LINE
8
Layer 1
10
38.301595
20
50.135520
11
38.450862
21
50.623042
0
LINE
8
Layer 1
10
38.450862
20
50.623042
11
38.533098
21
50.855788
0
LINE
8
Layer 1
10
38.533098
20
50.855788
11
38.600332
21
51.080837
0
LINE
8
Layer 1
10
38.600332
20
51.080837
11
38.485039
21
51.139996
0
LINE
8
Layer 1
10
38.485039
20
51.139996
11
38.305357
21
51.239446
0
LINE
8
Layer 1
10
38.305357
20
51.239446
11
38.253256
21
51.393186
0
LINE
8
Layer 1
10
38.253256
20
51.393186
11
38.370734
21
51.478217
0
LINE
8
Layer 1
10
38.370734
20
51.478217
11
38.592879
21
51.434958
0
LINE
8
Layer 1
10
38.592879
20
51.434958
11
38.827628
21
51.331617
0
LINE
8
Layer 1
10
38.827628
20
51.331617
11
39.334177
21
51.020126
0
LINE
8
Layer 1
10
39.334177
20
51.020126
11
39.915461
21
50.548733
0
LINE
8
Layer 1
10
39.915461
20
50.548733
11
40.124297
21
50.178271
0
LINE
8
Layer 1
10
40.124297
20
50.178271
11
40.175523
21
49.791489
0
LINE
8
Layer 1
10
40.175523
20
49.791489
11
40.088655
21
49.356362
0
LINE
8
Layer 1
10
40.088655
20
49.356362
11
39.642185
21
48.976062
0
LINE
8
Layer 1
10
39.642185
20
48.976062
11
39.126481
21
48.789781
0
LINE
8
Layer 1
10
39.126481
20
48.789781
11
38.897018
21
48.757884
0
LINE
8
Layer 1
10
38.897018
20
48.757884
11
38.536496
21
48.739596
0
LINE
8
Layer 1
10
38.536496
20
48.739596
11
38.229410
21
48.737620
0
LINE
8
Layer 1
10
38.229410
20
48.737620
11
38.187037
21
48.607056
0
LINE
8
Layer 1
10
38.187037
20
48.607056
11
38.076787
21
48.432044
0
LINE
8
Layer 1
10
38.076787
20
48.432044
11
38.076800
21
48.432100
0
LINE
8
Layer 1
10
38.787808
20
49.010325
11
39.206817
21
49.070131
0
LINE
8
Layer 1
10
39.206817
20
49.070131
11
39.568487
21
49.214965
0
LINE
8
Layer 1
10
39.568487
20
49.214965
11
39.874687
21
49.445241
0
LINE
8
Layer 1
10
39.874687
20
49.445241
11
39.943323
21
49.796359
0
LINE
8
Layer 1
10
39.943323
20
49.796359
11
39.891214
21
50.134791
0
LINE
8
Layer 1
10
39.891214
20
50.134791
11
39.737668
21
50.355474
0
LINE
8
Layer 1
10
39.737668
20
50.355474
11
39.527212
21
50.532749
0
LINE
8
Layer 1
10
39.527212
20
50.532749
11
39.188935
21
50.767515
0
LINE
8
Layer 1
10
39.188935
20
50.767515
11
38.908584
21
50.928675
0
LINE
8
Layer 1
10
38.908584
20
50.928675
11
38.749724
21
50.613323
0
LINE
8
Layer 1
10
38.749724
20
50.613323
11
38.577577
21
50.178199
0
LINE
8
Layer 1
10
38.577577
20
50.178199
11
38.498653
21
49.920347
0
LINE
8
Layer 1
10
38.498653
20
49.920347
11
38.386001
21
49.501335
0
LINE
8
Layer 1
10
38.386001
20
49.501335
11
38.273736
21
49.108567
0
LINE
8
Layer 1
10
38.273736
20
49.108567
11
38.376247
21
48.995760
0
LINE
8
Layer 1
10
38.376247
20
48.995760
11
38.787806
21
49.010322
0
LINE
8
Layer 1
10
38.787806
20
49.010322
11
38.787808
21
49.010325
0
LINE
8
Layer 1
10
32.481708
20
48.421576
11
32.405229
21
48.499517
0
LINE
8
Layer 1
10
32.405229
20
48.499517
11
32.423630
21
48.765429
0
LINE
8
Layer 1
10
32.423630
20
48.765429
11
32.553232
21
49.328132
0
LINE
8
Layer 1
10
32.553232
20
49.328132
11
32.807336
21
50.109402
0
LINE
8
Layer 1
10
32.807336
20
50.109402
11
33.032422
21
50.638656
0
LINE
8
Layer 1
10
33.032422
20
50.638656
11
33.117418
21
50.880738
0
LINE
8
Layer 1
10
33.117418
20
50.880738
11
33.195176
21
51.000107
0
LINE
8
Layer 1
10
33.195176
20
51.000107
11
33.325656
21
51.160474
0
LINE
8
Layer 1
10
33.325656
20
51.160474
11
33.470760
21
51.386596
0
LINE
8
Layer 1
10
33.470760
20
51.386596
11
33.597715
21
51.389418
0
LINE
8
Layer 1
10
33.597715
20
51.389418
11
33.617894
21
51.214999
0
LINE
8
Layer 1
10
33.617894
20
51.214999
11
33.455201
21
50.923785
0
LINE
8
Layer 1
10
33.455201
20
50.923785
11
33.360485
21
50.724773
0
LINE
8
Layer 1
10
33.360485
20
50.724773
11
33.495839
21
50.768261
0
LINE
8
Layer 1
10
33.495839
20
50.768261
11
33.774688
21
50.887745
0
LINE
8
Layer 1
10
33.774688
20
50.887745
11
34.150543
21
50.946388
0
LINE
8
Layer 1
10
34.150543
20
50.946388
11
34.402928
21
50.905799
0
LINE
8
Layer 1
10
34.402928
20
50.905799
11
34.454142
21
50.752829
0
LINE
8
Layer 1
10
34.454142
20
50.752829
11
34.407443
21
50.552053
0
LINE
8
Layer 1
10
34.407443
20
50.552053
11
34.247468
21
50.368324
0
LINE
8
Layer 1
10
34.247468
20
50.368324
11
34.040009
21
50.202987
0
LINE
8
Layer 1
10
34.040009
20
50.202987
11
33.859452
21
50.098232
0
LINE
8
Layer 1
10
33.859452
20
50.098232
11
33.678486
21
50.065412
0
LINE
8
Layer 1
10
33.678486
20
50.065412
11
33.583888
21
50.047858
0
LINE
8
Layer 1
10
33.583888
20
50.047858
11
33.695179
21
49.636903
0
LINE
8
Layer 1
10
33.695179
20
49.636903
11
33.828345
21
49.114609
0
LINE
8
Layer 1
10
33.828345
20
49.114609
11
33.880455
21
48.927208
0
LINE
8
Layer 1
10
33.880455
20
48.927208
11
34.013198
21
48.890505
0
LINE
8
Layer 1
10
34.013198
20
48.890505
11
34.169715
21
48.959858
0
LINE
8
Layer 1
10
34.169715
20
48.959858
11
34.305337
21
49.173836
0
LINE
8
Layer 1
10
34.305337
20
49.173836
11
34.584017
21
49.533618
0
LINE
8
Layer 1
10
34.584017
20
49.533618
11
34.781079
21
49.727005
0
LINE
8
Layer 1
10
34.781079
20
49.727005
11
34.758981
21
49.598083
0
LINE
8
Layer 1
10
34.758981
20
49.598083
11
34.619685
21
49.293938
0
LINE
8
Layer 1
10
34.619685
20
49.293938
11
34.309091
21
48.910328
0
LINE
8
Layer 1
10
34.309091
20
48.910328
11
34.010215
21
48.657734
0
LINE
8
Layer 1
10
34.010215
20
48.657734
11
33.841734
21
48.647235
0
LINE
8
Layer 1
10
33.841734
20
48.647235
11
33.743741
21
48.746355
0
LINE
8
Layer 1
10
33.743741
20
48.746355
11
33.665847
21
49.011531
0
LINE
8
Layer 1
10
33.665847
20
49.011531
11
33.507769
21
49.598070
0
LINE
8
Layer 1
10
33.507769
20
49.598070
11
33.358059
21
50.121835
0
LINE
8
Layer 1
10
33.358059
20
50.121835
11
33.278080
21
50.258820
0
LINE
8
Layer 1
10
33.278080
20
50.258820
11
33.149948
21
50.150441
0
LINE
8
Layer 1
10
33.149948
20
50.150441
11
33.014329
21
49.884526
0
LINE
8
Layer 1
10
33.014329
20
49.884526
11
32.904011
21
49.652734
0
LINE
8
Layer 1
10
32.904011
20
49.652734
11
32.780937
21
49.378764
0
LINE
8
Layer 1
10
32.780937
20
49.378764
11
32.662438
21
48.969553
0
LINE
8
Layer 1
10
32.662438
20
48.969553
11
32.574128
21
48.590834
0
LINE
8
Layer 1
10
32.574128
20
48.590834
11
32.481689
21
48.421614
0
LINE
8
Layer 1
10
32.481689
20
48.421614
11
32.481708
21
48.421576
0
LINE
8
Layer 1
10
33.694268
20
50.323356
11
33.873979
21
50.391902
0
LINE
8
Layer 1
10
33.873979
20
50.391902
11
34.107659
21
50.555650
0
LINE
8
Layer 1
10
34.107659
20
50.555650
11
34.228529
21
50.675123
0
LINE
8
Layer 1
10
34.228529
20
50.675123
11
34.172124
21
50.701765
0
LINE
8
Layer 1
10
34.172124
20
50.701765
11
33.873979
21
50.640788
0
LINE
8
Layer 1
10
33.873979
20
50.640788
11
33.556674
21
50.528148
0
LINE
8
Layer 1
10
33.556674
20
50.528148
11
33.481112
21
50.478940
0
LINE
8
Layer 1
10
33.481112
20
50.478940
11
33.554239
21
50.401100
0
LINE
8
Layer 1
10
33.554239
20
50.401100
11
33.694269
21
50.323382
0
LINE
8
Layer 1
10
33.694269
20
50.323382
11
33.694268
21
50.323356
0
LINE
8
Layer 1
10
45.122868
20
48.422556
11
45.033641
21
48.448492
0
LINE
8
Layer 1
10
45.033641
20
48.448492
11
44.963653
21
48.575935
0
LINE
8
Layer 1
10
44.963653
20
48.575935
11
44.978018
21
48.960448
0
LINE
8
Layer 1
10
44.978018
20
48.960448
11
45.058239
21
49.404617
0
LINE
8
Layer 1
10
45.058239
20
49.404617
11
45.155976
21
49.791399
0
LINE
8
Layer 1
10
45.155976
20
49.791399
11
45.234857
21
50.328851
0
LINE
8
Layer 1
10
45.234857
20
50.328851
11
45.252721
21
50.640684
0
LINE
8
Layer 1
10
45.252721
20
50.640684
11
45.067877
21
50.694419
0
LINE
8
Layer 1
10
45.067877
20
50.694419
11
44.761200
21
50.810313
0
LINE
8
Layer 1
10
44.761200
20
50.810313
11
44.639359
21
50.945946
0
LINE
8
Layer 1
10
44.639359
20
50.945946
11
44.676522
21
51.056594
0
LINE
8
Layer 1
10
44.676522
20
51.056594
11
44.771092
21
51.063057
0
LINE
8
Layer 1
10
44.771092
20
51.063057
11
45.058346
21
50.983987
0
LINE
8
Layer 1
10
45.058346
20
50.983987
11
45.347951
21
50.935637
0
LINE
8
Layer 1
10
45.347951
20
50.935637
11
45.478651
21
51.174628
0
LINE
8
Layer 1
10
45.478651
20
51.174628
11
45.613643
21
51.430369
0
LINE
8
Layer 1
10
45.613643
20
51.430369
11
45.755629
21
51.417499
0
LINE
8
Layer 1
10
45.755629
20
51.417499
11
45.850918
21
51.342665
0
LINE
8
Layer 1
10
45.850918
20
51.342665
11
45.816484
21
51.046733
0
LINE
8
Layer 1
10
45.816484
20
51.046733
11
45.779437
21
50.757577
0
LINE
8
Layer 1
10
45.779437
20
50.757577
11
46.080607
21
50.644429
0
LINE
8
Layer 1
10
46.080607
20
50.644429
11
46.353301
21
50.476148
0
LINE
8
Layer 1
10
46.353301
20
50.476148
11
46.299566
21
50.367247
0
LINE
8
Layer 1
10
46.299566
20
50.367247
11
46.062881
21
50.418155
0
LINE
8
Layer 1
10
46.062881
20
50.418155
11
45.760427
21
50.483266
0
LINE
8
Layer 1
10
45.760427
20
50.483266
11
45.566021
21
50.291818
0
LINE
8
Layer 1
10
45.566021
20
50.291818
11
45.477387
21
50.034079
0
LINE
8
Layer 1
10
45.477387
20
50.034079
11
45.426369
21
49.846802
0
LINE
8
Layer 1
10
45.426369
20
49.846802
11
45.343562
21
49.453001
0
LINE
8
Layer 1
10
45.343562
20
49.453001
11
45.289827
21
48.831300
0
LINE
8
Layer 1
10
45.289827
20
48.831300
11
45.219531
21
48.453075
0
LINE
8
Layer 1
10
45.219531
20
48.453075
11
45.122837
21
48.422561
0
LINE
8
Layer 1
10
45.122837
20
48.422561
11
45.122868
21
48.422556
0
LINE
8
Layer 1
10
35.888498
20
48.540917
11
35.598413
21
48.533269
0
LINE
8
Layer 1
10
35.598413
20
48.533269
11
35.372717
21
48.622349
0
LINE
8
Layer 1
10
35.372717
20
48.622349
11
35.223216
21
48.732523
0
LINE
8
Layer 1
10
35.223216
20
48.732523
11
35.086307
21
49.027823
0
LINE
8
Layer 1
10
35.086307
20
49.027823
11
35.002129
21
49.448715
0
LINE
8
Layer 1
10
35.002129
20
49.448715
11
35.125624
21
49.873860
0
LINE
8
Layer 1
10
35.125624
20
49.873860
11
35.343189
21
50.276249
0
LINE
8
Layer 1
10
35.343189
20
50.276249
11
35.547811
21
50.574902
0
LINE
8
Layer 1
10
35.547811
20
50.574902
11
35.821784
21
50.832260
0
LINE
8
Layer 1
10
35.821784
20
50.832260
11
36.226931
21
51.070509
0
LINE
8
Layer 1
10
36.226931
20
51.070509
11
36.637886
21
51.237113
0
LINE
8
Layer 1
10
36.637886
20
51.237113
11
36.970180
21
51.238242
0
LINE
8
Layer 1
10
36.970180
20
51.238242
11
37.256268
21
51.078685
0
LINE
8
Layer 1
10
37.256268
20
51.078685
11
37.445789
21
50.750128
0
LINE
8
Layer 1
10
37.445789
20
50.750128
11
37.528624
21
50.339317
0
LINE
8
Layer 1
10
37.528624
20
50.339317
11
37.434638
21
49.936420
0
LINE
8
Layer 1
10
37.434638
20
49.936420
11
37.259494
21
49.594231
0
LINE
8
Layer 1
10
37.259494
20
49.594231
11
37.041176
21
49.265555
0
LINE
8
Layer 1
10
37.041176
20
49.265555
11
36.742642
21
48.961246
0
LINE
8
Layer 1
10
36.742642
20
48.961246
11
36.323627
21
48.720031
0
LINE
8
Layer 1
10
36.323627
20
48.720031
11
35.888500
21
48.540879
0
LINE
8
Layer 1
10
35.888500
20
48.540879
11
35.888498
21
48.540917
0
LINE
8
Layer 1
10
35.932925
20
48.876143
11
36.186194
21
48.973860
0
LINE
8
Layer 1
10
36.186194
20
48.973860
11
36.568582
21
49.267402
0
LINE
8
Layer 1
10
36.568582
20
49.267402
11
36.859595
21
49.649827
0
LINE
8
Layer 1
10
36.859595
20
49.649827
11
36.972662
21
49.839762
0
LINE
8
Layer 1
10
36.972662
20
49.839762
11
37.000490
21
49.892136
0
LINE
8
Layer 1
10
37.000490
20
49.892136
11
37.084013
21
50.130633
0
LINE
8
Layer 1
10
37.084013
20
50.130633
11
37.122901
21
50.517720
0
LINE
8
Layer 1
10
37.122901
20
50.517720
11
37.078261
21
50.718685
0
LINE
8
Layer 1
10
37.078261
20
50.718685
11
36.860033
21
50.799356
0
LINE
8
Layer 1
10
36.860033
20
50.799356
11
36.641805
21
50.880020
0
LINE
8
Layer 1
10
36.641805
20
50.880020
11
36.403336
21
50.758981
0
LINE
8
Layer 1
10
36.403336
20
50.758981
11
35.995748
21
50.456414
0
LINE
8
Layer 1
10
35.995748
20
50.456414
11
35.710015
21
50.062968
0
LINE
8
Layer 1
10
35.710015
20
50.062968
11
35.536432
21
49.676191
0
LINE
8
Layer 1
10
35.536432
20
49.676191
11
35.446593
21
49.461330
0
LINE
8
Layer 1
10
35.446593
20
49.461330
11
35.435501
21
49.276156
0
LINE
8
Layer 1
10
35.435501
20
49.276156
11
35.536110
21
49.037275
0
LINE
8
Layer 1
10
35.536110
20
49.037275
11
35.735607
21
48.911525
0
LINE
8
Layer 1
10
35.735607
20
48.911525
11
35.932917
21
48.876132
0
LINE
8
Layer 1
10
35.932917
20
48.876132
11
35.932925
21
48.876143
0
LINE
8
Layer 1
10
43.691575
20
48.518266
11
43.614783
21
48.558553
0
LINE
8
Layer 1
10
43.614783
20
48.558553
11
43.549567
21
48.760000
0
LINE
8
Layer 1
10
43.549567
20
48.760000
11
43.478292
21
49.033970
0
LINE
8
Layer 1
10
43.478292
20
49.033970
11
43.395809
21
49.243478
0
LINE
8
Layer 1
10
43.395809
20
49.243478
11
43.303449
21
49.536757
0
LINE
8
Layer 1
10
43.303449
20
49.536757
11
43.257052
21
49.859071
0
LINE
8
Layer 1
10
43.257052
20
49.859071
11
43.205152
21
50.194308
0
LINE
8
Layer 1
10
43.205152
20
50.194308
11
43.135906
21
50.450755
0
LINE
8
Layer 1
10
43.135906
20
50.450755
11
43.043012
21
50.402408
0
LINE
8
Layer 1
10
43.043012
20
50.402408
11
42.907568
21
50.187471
0
LINE
8
Layer 1
10
42.907568
20
50.187471
11
42.798007
21
50.083661
0
LINE
8
Layer 1
10
42.798007
20
50.083661
11
42.693255
21
49.968977
0
LINE
8
Layer 1
10
42.693255
20
49.968977
11
42.641030
21
49.792247
0
LINE
8
Layer 1
10
42.641030
20
49.792247
11
42.548142
21
49.459462
0
LINE
8
Layer 1
10
42.548142
20
49.459462
11
42.418083
21
49.103430
0
LINE
8
Layer 1
10
42.418083
20
49.103430
11
42.316568
21
49.033969
0
LINE
8
Layer 1
10
42.316568
20
49.033969
11
42.235127
21
49.078526
0
LINE
8
Layer 1
10
42.235127
20
49.078526
11
42.266067
21
49.296091
0
LINE
8
Layer 1
10
42.266067
20
49.296091
11
42.480559
21
49.950589
0
LINE
8
Layer 1
10
42.480559
20
49.950589
11
42.724616
21
50.533798
0
LINE
8
Layer 1
10
42.724616
20
50.533798
11
42.802202
21
50.662172
0
LINE
8
Layer 1
10
42.802202
20
50.662172
11
42.847375
21
50.739707
0
LINE
8
Layer 1
10
42.847375
20
50.739707
11
42.907796
21
50.976802
0
LINE
8
Layer 1
10
42.907796
20
50.976802
11
43.038298
21
51.274944
0
LINE
8
Layer 1
10
43.038298
20
51.274944
11
43.204298
21
51.386879
0
LINE
8
Layer 1
10
43.204298
20
51.386879
11
43.283797
21
51.311235
0
LINE
8
Layer 1
10
43.283797
20
51.311235
11
43.315081
21
50.948631
0
LINE
8
Layer 1
10
43.315081
20
50.948631
11
43.383466
21
50.339350
0
LINE
8
Layer 1
10
43.383466
20
50.339350
11
43.477508
21
49.904226
0
LINE
8
Layer 1
10
43.477508
20
49.904226
11
43.579187
21
49.441921
0
LINE
8
Layer 1
10
43.579187
20
49.441921
11
43.681868
21
49.167948
0
LINE
8
Layer 1
10
43.681868
20
49.167948
11
43.769041
21
49.485211
0
LINE
8
Layer 1
10
43.769041
20
49.485211
11
43.849627
21
49.904226
0
LINE
8
Layer 1
10
43.849627
20
49.904226
11
43.930195
21
50.215122
0
LINE
8
Layer 1
10
43.930195
20
50.215122
11
44.009474
21
50.456859
0
LINE
8
Layer 1
10
44.009474
20
50.456859
11
44.056656
21
50.629435
0
LINE
8
Layer 1
10
44.056656
20
50.629435
11
44.119239
21
50.808996
0
LINE
8
Layer 1
10
44.119239
20
50.808996
11
44.155939
21
50.978651
0
LINE
8
Layer 1
10
44.155939
20
50.978651
11
44.196232
21
51.105290
0
LINE
8
Layer 1
10
44.196232
20
51.105290
11
44.240775
21
51.187002
0
LINE
8
Layer 1
10
44.240775
20
51.187002
11
44.332446
21
51.174697
0
LINE
8
Layer 1
10
44.332446
20
51.174697
11
44.404605
21
51.068376
0
LINE
8
Layer 1
10
44.404605
20
51.068376
11
44.319585
21
50.715711
0
LINE
8
Layer 1
10
44.319585
20
50.715711
11
44.190677
21
50.296702
0
LINE
8
Layer 1
10
44.190677
20
50.296702
11
44.076510
21
49.855888
0
LINE
8
Layer 1
10
44.076510
20
49.855888
11
43.940654
21
49.259601
0
LINE
8
Layer 1
10
43.940654
20
49.259601
11
43.797449
21
48.735836
0
LINE
8
Layer 1
10
43.797449
20
48.735836
11
43.691599
21
48.518274
0
LINE
8
Layer 1
10
43.691599
20
48.518274
11
43.691575
21
48.518266
0
LINE
8
Layer 1
10
41.579475
20
48.552931
11
41.270803
21
48.644828
0
LINE
8
Layer 1
10
41.270803
20
48.644828
11
40.909799
21
48.787446
0
LINE
8
Layer 1
10
40.909799
20
48.787446
11
40.773198
21
48.840589
0
LINE
8
Layer 1
10
40.773198
20
48.840589
11
40.739377
21
48.742285
0
LINE
8
Layer 1
10
40.739377
20
48.742285
11
40.739400
21
48.644000
0
LINE
8
Layer 1
10
40.739400
20
48.644000
11
40.554068
21
48.653652
0
LINE
8
Layer 1
10
40.554068
20
48.653652
11
40.368733
21
48.663332
0
LINE
8
Layer 1
10
40.368733
20
48.663332
11
40.369862
21
48.905066
0
LINE
8
Layer 1
10
40.369862
20
48.905066
11
40.443635
21
49.480325
0
LINE
8
Layer 1
10
40.443635
20
49.480325
11
40.535687
21
50.076612
0
LINE
8
Layer 1
10
40.535687
20
50.076612
11
40.586436
21
50.379309
0
LINE
8
Layer 1
10
40.586436
20
50.379309
11
40.647165
21
50.401181
0
LINE
8
Layer 1
10
40.647165
20
50.401181
11
40.721144
21
50.490172
0
LINE
8
Layer 1
10
40.721144
20
50.490172
11
40.819752
21
50.805290
0
LINE
8
Layer 1
10
40.819752
20
50.805290
11
40.822828
21
51.050580
0
LINE
8
Layer 1
10
40.822828
20
51.050580
11
40.771887
21
51.134518
0
LINE
8
Layer 1
10
40.771887
20
51.134518
11
40.814731
21
51.239798
0
LINE
8
Layer 1
10
40.814731
20
51.239798
11
40.928063
21
51.260654
0
LINE
8
Layer 1
10
40.928063
20
51.260654
11
41.017768
21
51.318975
0
LINE
8
Layer 1
10
41.017768
20
51.318975
11
41.084028
21
51.433077
0
LINE
8
Layer 1
10
41.084028
20
51.433077
11
41.274172
21
51.415100
0
LINE
8
Layer 1
10
41.274172
20
51.415100
11
41.435747
21
51.305414
0
LINE
8
Layer 1
10
41.435747
20
51.305414
11
41.419039
21
51.165971
0
LINE
8
Layer 1
10
41.419039
20
51.165971
11
41.466365
21
51.042101
0
LINE
8
Layer 1
10
41.466365
20
51.042101
11
41.679155
21
50.879262
0
LINE
8
Layer 1
10
41.679155
20
50.879262
11
41.867377
21
50.774510
0
LINE
8
Layer 1
10
41.867377
20
50.774510
11
41.944906
21
50.723527
0
LINE
8
Layer 1
10
41.944906
20
50.723527
11
41.964464
21
50.612512
0
LINE
8
Layer 1
10
41.964464
20
50.612512
11
41.891944
21
50.469764
0
LINE
8
Layer 1
10
41.891944
20
50.469764
11
41.819422
21
50.387047
0
LINE
8
Layer 1
10
41.819422
20
50.387047
11
41.568315
21
50.531068
0
LINE
8
Layer 1
10
41.568315
20
50.531068
11
41.290956
21
50.603927
0
LINE
8
Layer 1
10
41.290956
20
50.603927
11
41.207548
21
50.355501
0
LINE
8
Layer 1
10
41.207548
20
50.355501
11
41.136137
21
50.140998
0
LINE
8
Layer 1
10
41.136137
20
50.140998
11
41.228921
21
50.080949
0
LINE
8
Layer 1
10
41.228921
20
50.080949
11
41.514775
21
49.937038
0
LINE
8
Layer 1
10
41.514775
20
49.937038
11
41.795846
21
49.763071
0
LINE
8
Layer 1
10
41.795846
20
49.763071
11
41.934510
21
49.642142
0
LINE
8
Layer 1
10
41.934510
20
49.642142
11
41.903880
21
49.507020
0
LINE
8
Layer 1
10
41.903880
20
49.507020
11
41.836813
21
49.439947
0
LINE
8
Layer 1
10
41.836813
20
49.439947
11
41.602504
21
49.549997
0
LINE
8
Layer 1
10
41.602504
20
49.549997
11
41.287618
21
49.729772
0
LINE
8
Layer 1
10
41.287618
20
49.729772
11
41.126458
21
49.817041
0
LINE
8
Layer 1
10
41.126458
20
49.817041
11
40.977572
21
49.855965
0
LINE
8
Layer 1
10
40.977572
20
49.855965
11
40.889998
21
49.705464
0
LINE
8
Layer 1
10
40.889998
20
49.705464
11
40.849451
21
49.364376
0
LINE
8
Layer 1
10
40.849451
20
49.364376
11
40.916163
21
49.195159
0
LINE
8
Layer 1
10
40.916163
20
49.195159
11
41.276075
21
49.067733
0
LINE
8
Layer 1
10
41.276075
20
49.067733
11
41.592903
21
48.957534
0
LINE
8
Layer 1
10
41.592903
20
48.957534
11
41.688461
21
48.876810
0
LINE
8
Layer 1
10
41.688461
20
48.876810
11
41.684622
21
48.664695
0
LINE
8
Layer 1
10
41.684622
20
48.664695
11
41.579745
21
48.552955
0
LINE
8
Layer 1
10
41.579745
20
48.552955
11
41.579475
21
48.552931
0
LINE
8
Layer 1
10
40.965874
20
51.875191
11
40.859775
21
51.893479
0
LINE
8
Layer 1
10
40.859775
20
51.893479
11
40.706537
21
52.032677
0
LINE
8
Layer 1
10
40.706537
20
52.032677
11
40.597478
21
52.350942
0
LINE
8
Layer 1
10
40.597478
20
52.350942
11
40.580460
21
52.730680
0
LINE
8
Layer 1
10
40.580460
20
52.730680
11
40.640379
21
53.135403
0
LINE
8
Layer 1
10
40.640379
20
53.135403
11
40.709261
21
53.489953
0
LINE
8
Layer 1
10
40.709261
20
53.489953
11
40.788410
21
53.708825
0
LINE
8
Layer 1
10
40.788410
20
53.708825
11
40.726832
21
53.778554
0
LINE
8
Layer 1
10
40.726832
20
53.778554
11
40.581575
21
53.816293
0
LINE
8
Layer 1
10
40.581575
20
53.816293
11
40.522715
21
53.996362
0
LINE
8
Layer 1
10
40.522715
20
53.996362
11
40.480926
21
54.126554
0
LINE
8
Layer 1
10
40.480926
20
54.126554
11
40.439945
21
54.231306
0
LINE
8
Layer 1
10
40.439945
20
54.231306
11
40.617389
21
54.722835
0
LINE
8
Layer 1
10
40.617389
20
54.722835
11
40.896292
21
55.246543
0
LINE
8
Layer 1
10
40.896292
20
55.246543
11
41.038515
21
55.383528
0
LINE
8
Layer 1
10
41.038515
20
55.383528
11
41.113247
21
55.338471
0
LINE
8
Layer 1
10
41.113247
20
55.338471
11
41.082962
21
55.137024
0
LINE
8
Layer 1
10
41.082962
20
55.137024
11
40.903477
21
54.698078
0
LINE
8
Layer 1
10
40.903477
20
54.698078
11
40.771600
21
54.257259
0
LINE
8
Layer 1
10
40.771600
20
54.257259
11
40.828002
21
54.086845
0
LINE
8
Layer 1
10
40.828002
20
54.086845
11
41.069869
21
54.135830
0
LINE
8
Layer 1
10
41.069869
20
54.135830
11
41.352492
21
54.314886
0
LINE
8
Layer 1
10
41.352492
20
54.314886
11
41.578930
21
54.681230
0
LINE
8
Layer 1
10
41.578930
20
54.681230
11
41.736892
21
54.947439
0
LINE
8
Layer 1
10
41.736892
20
54.947439
11
41.816555
21
54.914196
0
LINE
8
Layer 1
10
41.816555
20
54.914196
11
41.852871
21
54.793032
0
LINE
8
Layer 1
10
41.852871
20
54.793032
11
41.788381
21
54.490857
0
LINE
8
Layer 1
10
41.788381
20
54.490857
11
41.738546
21
54.224945
0
LINE
8
Layer 1
10
41.738546
20
54.224945
11
42.310661
21
54.190511
0
LINE
8
Layer 1
10
42.310661
20
54.190511
11
43.214844
21
54.131256
0
LINE
8
Layer 1
10
43.214844
20
54.131256
11
43.598355
21
54.021088
0
LINE
8
Layer 1
10
43.598355
20
54.021088
11
43.608854
21
53.870836
0
LINE
8
Layer 1
10
43.608854
20
53.870836
11
43.541507
21
53.772025
0
LINE
8
Layer 1
10
43.541507
20
53.772025
11
43.493809
21
53.806458
0
LINE
8
Layer 1
10
43.493809
20
53.806458
11
43.424391
21
53.822404
0
LINE
8
Layer 1
10
43.424391
20
53.822404
11
43.230163
21
53.868550
0
LINE
8
Layer 1
10
43.230163
20
53.868550
11
42.461754
21
53.933173
0
LINE
8
Layer 1
10
42.461754
20
53.933173
11
41.759783
21
53.902891
0
LINE
8
Layer 1
10
41.759783
20
53.902891
11
41.627630
21
53.641762
0
LINE
8
Layer 1
10
41.627630
20
53.641762
11
41.542201
21
53.148283
0
LINE
8
Layer 1
10
41.542201
20
53.148283
11
41.411253
21
52.572152
0
LINE
8
Layer 1
10
41.411253
20
52.572152
11
41.216274
21
52.112294
0
LINE
8
Layer 1
10
41.216274
20
52.112294
11
41.051098
21
51.918137
0
LINE
8
Layer 1
10
41.051098
20
51.918137
11
40.965867
21
51.875177
0
LINE
8
Layer 1
10
40.965867
20
51.875177
11
40.965874
21
51.875191
0
LINE
8
Layer 1
10
40.904906
20
52.128211
11
40.998141
21
52.232966
0
LINE
8
Layer 1
10
40.998141
20
52.232966
11
41.125282
21
52.547223
0
LINE
8
Layer 1
10
41.125282
20
52.547223
11
41.285708
21
53.240205
0
LINE
8
Layer 1
10
41.285708
20
53.240205
11
41.383715
21
53.812320
0
LINE
8
Layer 1
10
41.383715
20
53.812320
11
41.362661
21
53.900955
0
LINE
8
Layer 1
10
41.362661
20
53.900955
11
41.201298
21
53.818893
0
LINE
8
Layer 1
10
41.201298
20
53.818893
11
40.983575
21
53.583503
0
LINE
8
Layer 1
10
40.983575
20
53.583503
11
40.852378
21
53.045105
0
LINE
8
Layer 1
10
40.852378
20
53.045105
11
40.797122
21
52.491597
0
LINE
8
Layer 1
10
40.797122
20
52.491597
11
40.835741
21
52.225687
0
LINE
8
Layer 1
10
40.835741
20
52.225687
11
40.904911
21
52.128210
0
LINE
8
Layer 1
10
40.904911
20
52.128210
11
40.904906
21
52.128211
0
LINE
8
Layer 1
10
38.982936
20
52.257138
11
38.890249
21
52.329661
0
LINE
8
Layer 1
10
38.890249
20
52.329661
11
38.870380
21
52.716441
0
LINE
8
Layer 1
10
38.870380
20
52.716441
11
38.849270
21
53.030698
0
LINE
8
Layer 1
10
38.849270
20
53.030698
11
38.590783
21
52.788961
0
LINE
8
Layer 1
10
38.590783
20
52.788961
11
38.272990
21
52.547224
0
LINE
8
Layer 1
10
38.272990
20
52.547224
11
38.128580
21
52.611689
0
LINE
8
Layer 1
10
38.128580
20
52.611689
11
38.064118
21
52.706710
0
LINE
8
Layer 1
10
38.064118
20
52.706710
11
38.220246
21
52.924272
0
LINE
8
Layer 1
10
38.220246
20
52.924272
11
38.606402
21
53.327683
0
LINE
8
Layer 1
10
38.606402
20
53.327683
11
38.836427
21
53.544088
0
LINE
8
Layer 1
10
38.836427
20
53.544088
11
38.868555
21
53.923970
0
LINE
8
Layer 1
10
38.868555
20
53.923970
11
38.903912
21
54.336082
0
LINE
8
Layer 1
10
38.903912
20
54.336082
11
38.903630
21
54.529472
0
LINE
8
Layer 1
10
38.903630
20
54.529472
11
38.914467
21
54.900134
0
LINE
8
Layer 1
10
38.914467
20
54.900134
11
38.949979
21
55.192541
0
LINE
8
Layer 1
10
38.949979
20
55.192541
11
39.070589
21
55.334301
0
LINE
8
Layer 1
10
39.070589
20
55.334301
11
39.211085
21
55.337378
0
LINE
8
Layer 1
10
39.211085
20
55.337378
11
39.278609
21
55.034461
0
LINE
8
Layer 1
10
39.278609
20
55.034461
11
39.299973
21
54.457043
0
LINE
8
Layer 1
10
39.299973
20
54.457043
11
39.316822
21
54.126668
0
LINE
8
Layer 1
10
39.316822
20
54.126668
11
39.400320
21
54.240618
0
LINE
8
Layer 1
10
39.400320
20
54.240618
11
39.608501
21
54.489893
0
LINE
8
Layer 1
10
39.608501
20
54.489893
11
39.759064
21
54.657970
0
LINE
8
Layer 1
10
39.759064
20
54.657970
11
39.767700
21
54.730266
0
LINE
8
Layer 1
10
39.767700
20
54.730266
11
39.851026
21
54.821193
0
LINE
8
Layer 1
10
39.851026
20
54.821193
11
39.991649
21
54.839283
0
LINE
8
Layer 1
10
39.991649
20
54.839283
11
40.094767
21
54.707200
0
LINE
8
Layer 1
10
40.094767
20
54.707200
11
40.026670
21
54.434099
0
LINE
8
Layer 1
10
40.026670
20
54.434099
11
39.627566
21
53.916323
0
LINE
8
Layer 1
10
39.627566
20
53.916323
11
39.290254
21
53.487156
0
LINE
8
Layer 1
10
39.290254
20
53.487156
11
39.222349
21
52.888168
0
LINE
8
Layer 1
10
39.222349
20
52.888168
11
39.129018
21
52.316056
0
LINE
8
Layer 1
10
39.129018
20
52.316056
11
38.983123
21
52.257224
0
LINE
8
Layer 1
10
38.983123
20
52.257224
11
38.982936
21
52.257138
0
LINE
8
Layer 1
10
37.453836
20
52.452958
11
37.145164
21
52.544855
0
LINE
8
Layer 1
10
37.145164
20
52.544855
11
36.784160
21
52.687470
0
LINE
8
Layer 1
10
36.784160
20
52.687470
11
36.647556
21
52.740616
0
LINE
8
Layer 1
10
36.647556
20
52.740616
11
36.613737
21
52.642309
0
LINE
8
Layer 1
10
36.613737
20
52.642309
11
36.613700
21
52.544000
0
LINE
8
Layer 1
10
36.613700
20
52.544000
11
36.428368
21
52.553652
0
LINE
8
Layer 1
10
36.428368
20
52.553652
11
36.243038
21
52.563332
0
LINE
8
Layer 1
10
36.243038
20
52.563332
11
36.244167
21
52.805066
0
LINE
8
Layer 1
10
36.244167
20
52.805066
11
36.317940
21
53.380328
0
LINE
8
Layer 1
10
36.317940
20
53.380328
11
36.409992
21
53.976612
0
LINE
8
Layer 1
10
36.409992
20
53.976612
11
36.460741
21
54.279309
0
LINE
8
Layer 1
10
36.460741
20
54.279309
11
36.521473
21
54.301181
0
LINE
8
Layer 1
10
36.521473
20
54.301181
11
36.595446
21
54.390175
0
LINE
8
Layer 1
10
36.595446
20
54.390175
11
36.694057
21
54.705289
0
LINE
8
Layer 1
10
36.694057
20
54.705289
11
36.697133
21
54.950579
0
LINE
8
Layer 1
10
36.697133
20
54.950579
11
36.646198
21
55.034518
0
LINE
8
Layer 1
10
36.646198
20
55.034518
11
36.689042
21
55.139801
0
LINE
8
Layer 1
10
36.689042
20
55.139801
11
36.802371
21
55.160657
0
LINE
8
Layer 1
10
36.802371
20
55.160657
11
36.892075
21
55.218978
0
LINE
8
Layer 1
10
36.892075
20
55.218978
11
36.958335
21
55.333086
0
LINE
8
Layer 1
10
36.958335
20
55.333086
11
37.148479
21
55.315109
0
LINE
8
Layer 1
10
37.148479
20
55.315109
11
37.310054
21
55.205421
0
LINE
8
Layer 1
10
37.310054
20
55.205421
11
37.293347
21
55.065981
0
LINE
8
Layer 1
10
37.293347
20
55.065981
11
37.340670
21
54.942105
0
LINE
8
Layer 1
10
37.340670
20
54.942105
11
37.553460
21
54.779266
0
LINE
8
Layer 1
10
37.553460
20
54.779266
11
37.741685
21
54.674514
0
LINE
8
Layer 1
10
37.741685
20
54.674514
11
37.819211
21
54.623531
0
LINE
8
Layer 1
10
37.819211
20
54.623531
11
37.838769
21
54.512515
0
LINE
8
Layer 1
10
37.838769
20
54.512515
11
37.766247
21
54.369771
0
LINE
8
Layer 1
10
37.766247
20
54.369771
11
37.693727
21
54.287054
0
LINE
8
Layer 1
10
37.693727
20
54.287054
11
37.442617
21
54.431072
0
LINE
8
Layer 1
10
37.442617
20
54.431072
11
37.165261
21
54.503936
0
LINE
8
Layer 1
10
37.165261
20
54.503936
11
37.081847
21
54.255504
0
LINE
8
Layer 1
10
37.081847
20
54.255504
11
37.010442
21
54.041001
0
LINE
8
Layer 1
10
37.010442
20
54.041001
11
37.103223
21
53.980956
0
LINE
8
Layer 1
10
37.103223
20
53.980956
11
37.389077
21
53.837048
0
LINE
8
Layer 1
10
37.389077
20
53.837048
11
37.670150
21
53.663075
0
LINE
8
Layer 1
10
37.670150
20
53.663075
11
37.808814
21
53.542146
0
LINE
8
Layer 1
10
37.808814
20
53.542146
11
37.778184
21
53.407024
0
LINE
8
Layer 1
10
37.778184
20
53.407024
11
37.711117
21
53.339956
0
LINE
8
Layer 1
10
37.711117
20
53.339956
11
37.476805
21
53.450000
0
LINE
8
Layer 1
10
37.476805
20
53.450000
11
37.161919
21
53.629778
0
LINE
8
Layer 1
10
37.161919
20
53.629778
11
37.000759
21
53.717047
0
LINE
8
Layer 1
10
37.000759
20
53.717047
11
36.851870
21
53.755968
0
LINE
8
Layer 1
10
36.851870
20
53.755968
11
36.764297
21
53.605473
0
LINE
8
Layer 1
10
36.764297
20
53.605473
11
36.723755
21
53.264379
0
LINE
8
Layer 1
10
36.723755
20
53.264379
11
36.790461
21
53.095164
0
LINE
8
Layer 1
10
36.790461
20
53.095164
11
37.150373
21
52.967735
0
LINE
8
Layer 1
10
37.150373
20
52.967735
11
37.467207
21
52.857536
0
LINE
8
Layer 1
10
37.467207
20
52.857536
11
37.562759
21
52.776815
0
LINE
8
Layer 1
10
37.562759
20
52.776815
11
37.558921
21
52.564697
0
LINE
8
Layer 1
10
37.558921
20
52.564697
11
37.454042
21
52.452957
0
LINE
8
Layer 1
10
37.454042
20
52.452957
11
37.453836
21
52.452958
0
LINE
8
Layer 1
10
35.344986
20
52.679944
11
35.098835
21
52.708883
0
LINE
8
Layer 1
10
35.098835
20
52.708883
11
34.782983
21
52.801943
0
LINE
8
Layer 1
10
34.782983
20
52.801943
11
34.476783
21
52.937847
0
LINE
8
Layer 1
10
34.476783
20
52.937847
11
34.172175
21
53.134999
0
LINE
8
Layer 1
10
34.172175
20
53.134999
11
34.002958
21
53.338199
0
LINE
8
Layer 1
10
34.002958
20
53.338199
11
34.107710
21
53.476640
0
LINE
8
Layer 1
10
34.107710
20
53.476640
11
34.309157
21
53.523647
0
LINE
8
Layer 1
10
34.309157
20
53.523647
11
34.502550
21
53.415262
0
LINE
8
Layer 1
10
34.502550
20
53.415262
11
34.788150
21
53.237959
0
LINE
8
Layer 1
10
34.788150
20
53.237959
11
35.174930
21
53.135874
0
LINE
8
Layer 1
10
35.174930
20
53.135874
11
35.432116
21
53.185912
0
LINE
8
Layer 1
10
35.432116
20
53.185912
11
35.363714
21
53.344227
0
LINE
8
Layer 1
10
35.363714
20
53.344227
11
35.038433
21
53.515220
0
LINE
8
Layer 1
10
35.038433
20
53.515220
11
34.762338
21
53.803733
0
LINE
8
Layer 1
10
34.762338
20
53.803733
11
34.711617
21
54.179884
0
LINE
8
Layer 1
10
34.711617
20
54.179884
11
34.789045
21
54.441955
0
LINE
8
Layer 1
10
34.789045
20
54.441955
11
34.935699
21
54.619566
0
LINE
8
Layer 1
10
34.935699
20
54.619566
11
35.138306
21
54.734349
0
LINE
8
Layer 1
10
35.138306
20
54.734349
11
35.533959
21
54.819196
0
LINE
8
Layer 1
10
35.533959
20
54.819196
11
35.875625
21
54.886168
0
LINE
8
Layer 1
10
35.875625
20
54.886168
11
36.012607
21
54.778184
0
LINE
8
Layer 1
10
36.012607
20
54.778184
11
36.098015
21
54.568866
0
LINE
8
Layer 1
10
36.098015
20
54.568866
11
36.009378
21
54.437291
0
LINE
8
Layer 1
10
36.009378
20
54.437291
11
35.743466
21
54.357975
0
LINE
8
Layer 1
10
35.743466
20
54.357975
11
35.386766
21
54.304367
0
LINE
8
Layer 1
10
35.386766
20
54.304367
11
35.169201
21
54.179120
0
LINE
8
Layer 1
10
35.169201
20
54.179120
11
35.131076
21
54.005068
0
LINE
8
Layer 1
10
35.131076
20
54.005068
11
35.235826
21
53.858061
0
LINE
8
Layer 1
10
35.235826
20
53.858061
11
35.444286
21
53.727209
0
LINE
8
Layer 1
10
35.444286
20
53.727209
11
35.669906
21
53.650221
0
LINE
8
Layer 1
10
35.669906
20
53.650221
11
35.858840
21
53.486752
0
LINE
8
Layer 1
10
35.858840
20
53.486752
11
35.903936
21
53.203390
0
LINE
8
Layer 1
10
35.903936
20
53.203390
11
35.818487
21
52.972313
0
LINE
8
Layer 1
10
35.818487
20
52.972313
11
35.600527
21
52.780912
0
LINE
8
Layer 1
10
35.600527
20
52.780912
11
35.344995
21
52.679950
0
LINE
8
Layer 1
10
35.344995
20
52.679950
11
35.344986
21
52.679944
 0 
ENDSEC
 0 
EOF