999
"DXF R12 Output" (www.mydxf.blogspot.com)
 0 
SECTION
 2 
HEADER
 9 
$ACADVER
 1 
AC1009
 9 
$EXTMIN
 10 
 0 
 20 
 0 
 9 
$EXTMAX
 10 
 8.5 
 20 
 11 
 0 
ENDSEC
 0 
SECTION
 2 
ENTITIES
0
LINE
8
Layer 1
10
37.836200
20
39.533500
11
37.501710
21
39.592764
0
LINE
8
Layer 1
10
37.501710
20
39.592764
11
37.238955
21
39.800127
0
LINE
8
Layer 1
10
37.238955
20
39.800127
11
37.318627
21
40.058665
0
LINE
8
Layer 1
10
37.318627
20
40.058665
11
37.386617
21
40.150093
0
LINE
8
Layer 1
10
37.386617
20
40.150093
11
36.925672
21
40.166039
0
LINE
8
Layer 1
10
36.925672
20
40.166039
11
36.442118
21
40.180827
0
LINE
8
Layer 1
10
36.442118
20
40.180827
11
36.403552
21
40.352102
0
LINE
8
Layer 1
10
36.403552
20
40.352102
11
36.476693
21
40.523208
0
LINE
8
Layer 1
10
36.476693
20
40.523208
11
36.549837
21
40.537827
0
LINE
8
Layer 1
10
36.549837
20
40.537827
11
36.549800
21
40.837800
0
LINE
8
Layer 1
10
36.549800
20
40.837800
11
36.523549
21
41.153104
0
LINE
8
Layer 1
10
36.523549
20
41.153104
11
36.388476
21
41.214394
0
LINE
8
Layer 1
10
36.388476
20
41.214394
11
36.205292
21
41.096540
0
LINE
8
Layer 1
10
36.205292
20
41.096540
11
36.164251
21
40.714587
0
LINE
8
Layer 1
10
36.164251
20
40.714587
11
36.232848
21
40.535489
0
LINE
8
Layer 1
10
36.232848
20
40.535489
11
36.324277
21
40.502029
0
LINE
8
Layer 1
10
36.324277
20
40.502029
11
36.325405
21
40.195273
0
LINE
8
Layer 1
10
36.325405
20
40.195273
11
34.913315
21
40.166020
0
LINE
8
Layer 1
10
34.913315
20
40.166020
11
33.491905
21
40.180809
0
LINE
8
Layer 1
10
33.491905
20
40.180809
11
33.453340
21
40.352084
0
LINE
8
Layer 1
10
33.453340
20
40.352084
11
33.526483
21
40.523190
0
LINE
8
Layer 1
10
33.526483
20
40.523190
11
33.599624
21
40.537809
0
LINE
8
Layer 1
10
33.599624
20
40.537809
11
33.599700
21
40.837800
0
LINE
8
Layer 1
10
33.599700
20
40.837800
11
33.573449
21
41.153107
0
LINE
8
Layer 1
10
33.573449
20
41.153107
11
33.438376
21
41.214397
0
LINE
8
Layer 1
10
33.438376
20
41.214397
11
33.255192
21
41.096543
0
LINE
8
Layer 1
10
33.255192
20
41.096543
11
33.214151
21
40.714590
0
LINE
8
Layer 1
10
33.214151
20
40.714590
11
33.282751
21
40.535492
0
LINE
8
Layer 1
10
33.282751
20
40.535492
11
33.374179
21
40.502032
0
LINE
8
Layer 1
10
33.374179
20
40.502032
11
33.371357
21
40.193188
0
LINE
8
Layer 1
10
33.371357
20
40.193188
11
31.926787
21
40.171908
0
LINE
8
Layer 1
10
31.926787
20
40.171908
11
30.515437
21
40.178202
0
LINE
8
Layer 1
10
30.515437
20
40.178202
11
30.515400
21
40.348900
0
LINE
8
Layer 1
10
30.515400
20
40.348900
11
30.515400
21
40.519500
0
LINE
8
Layer 1
10
30.515400
20
40.519500
11
30.594637
21
40.527148
0
LINE
8
Layer 1
10
30.594637
20
40.527148
11
30.673876
21
40.534796
0
LINE
8
Layer 1
10
30.673876
20
40.534796
11
30.673900
21
40.839700
0
LINE
8
Layer 1
10
30.673900
20
40.839700
11
30.648669
21
41.191679
0
LINE
8
Layer 1
10
30.648669
20
41.191679
11
30.372470
21
41.174548
0
LINE
8
Layer 1
10
30.372470
20
41.174548
11
30.308194
21
40.821023
0
LINE
8
Layer 1
10
30.308194
20
40.821023
11
30.364269
21
40.531776
0
LINE
8
Layer 1
10
30.364269
20
40.531776
11
30.449604
21
40.502524
0
LINE
8
Layer 1
10
30.449604
20
40.502524
11
30.449604
21
40.195325
0
LINE
8
Layer 1
10
30.449604
20
40.195325
11
29.410984
21
40.195325
0
LINE
8
Layer 1
10
29.410984
20
40.195325
11
29.381729
21
40.278312
0
LINE
8
Layer 1
10
29.381729
20
40.278312
11
29.253654
21
40.262677
0
LINE
8
Layer 1
10
29.253654
20
40.262677
11
28.838492
21
40.154053
0
LINE
8
Layer 1
10
28.838492
20
40.154053
11
28.400071
21
40.215642
0
LINE
8
Layer 1
10
28.400071
20
40.215642
11
28.258396
21
40.211437
0
LINE
8
Layer 1
10
28.258396
20
40.211437
11
28.094153
21
40.170986
0
LINE
8
Layer 1
10
28.094153
20
40.170986
11
27.955448
21
40.178267
0
LINE
8
Layer 1
10
27.955448
20
40.178267
11
27.955400
21
40.458600
0
LINE
8
Layer 1
10
27.955400
20
40.458600
11
27.955400
21
40.739000
0
LINE
8
Layer 1
10
27.955400
20
40.739000
11
28.086263
21
40.746479
0
LINE
8
Layer 1
10
28.086263
20
40.746479
11
28.318216
21
40.648446
0
LINE
8
Layer 1
10
28.318216
20
40.648446
11
28.729337
21
40.483010
0
LINE
8
Layer 1
10
28.729337
20
40.483010
11
28.875576
21
40.584393
0
LINE
8
Layer 1
10
28.875576
20
40.584393
11
28.560865
21
40.679282
0
LINE
8
Layer 1
10
28.560865
20
40.679282
11
27.985171
21
40.919890
0
LINE
8
Layer 1
10
27.985171
20
40.919890
11
27.905209
21
41.183648
0
LINE
8
Layer 1
10
27.905209
20
41.183648
11
28.007966
21
41.458333
0
LINE
8
Layer 1
10
28.007966
20
41.458333
11
28.462624
21
41.675562
0
LINE
8
Layer 1
10
28.462624
20
41.675562
11
29.031616
21
41.616840
0
LINE
8
Layer 1
10
29.031616
20
41.616840
11
29.152260
21
41.615711
0
LINE
8
Layer 1
10
29.152260
20
41.615711
11
29.278746
21
41.653388
0
LINE
8
Layer 1
10
29.278746
20
41.653388
11
29.432316
21
41.619123
0
LINE
8
Layer 1
10
29.432316
20
41.619123
11
29.454813
21
41.385198
0
LINE
8
Layer 1
10
29.454813
20
41.385198
11
29.431756
21
41.150723
0
LINE
8
Layer 1
10
29.431756
20
41.150723
11
29.271202
21
41.117008
0
LINE
8
Layer 1
10
29.271202
20
41.117008
11
29.096890
21
41.205941
0
LINE
8
Layer 1
10
29.096890
20
41.205941
11
28.750544
21
41.360816
0
LINE
8
Layer 1
10
28.750544
20
41.360816
11
28.552720
21
41.298112
0
LINE
8
Layer 1
10
28.552720
20
41.298112
11
28.889837
21
41.168756
0
LINE
8
Layer 1
10
28.889837
20
41.168756
11
29.243360
21
41.072620
0
LINE
8
Layer 1
10
29.243360
20
41.072620
11
29.468513
21
40.874323
0
LINE
8
Layer 1
10
29.468513
20
40.874323
11
29.518930
21
40.602554
0
LINE
8
Layer 1
10
29.518930
20
40.602554
11
29.570913
21
40.536370
0
LINE
8
Layer 1
10
29.570913
20
40.536370
11
29.637669
21
40.544047
0
LINE
8
Layer 1
10
29.637669
20
40.544047
11
29.644161
21
41.208426
0
LINE
8
Layer 1
10
29.644161
20
41.208426
11
29.650652
21
41.872805
0
LINE
8
Layer 1
10
29.650652
20
41.872805
11
29.545400
21
41.872800
0
LINE
8
Layer 1
10
29.545400
20
41.872800
11
29.410913
21
41.902055
0
LINE
8
Layer 1
10
29.410913
20
41.902055
11
29.410913
21
42.209254
0
LINE
8
Layer 1
10
29.410913
20
42.209254
11
30.278873
21
42.209254
0
LINE
8
Layer 1
10
30.278873
20
42.209254
11
30.308125
21
41.859460
0
LINE
8
Layer 1
10
30.308125
20
41.859460
11
30.308200
21
41.538900
0
LINE
8
Layer 1
10
30.308200
20
41.538900
11
30.430312
21
41.599335
0
LINE
8
Layer 1
10
30.430312
20
41.599335
11
30.830102
21
41.659231
0
LINE
8
Layer 1
10
30.830102
20
41.659231
11
31.181801
21
41.524188
0
LINE
8
Layer 1
10
31.181801
20
41.524188
11
31.327603
21
40.928019
0
LINE
8
Layer 1
10
31.327603
20
40.928019
11
31.337932
21
40.531830
0
LINE
8
Layer 1
10
31.337932
20
40.531830
11
31.469100
21
40.531800
0
LINE
8
Layer 1
10
31.469100
20
40.531800
11
31.600400
21
40.531800
0
LINE
8
Layer 1
10
31.600400
20
40.531800
11
31.600400
21
40.896200
0
LINE
8
Layer 1
10
31.600400
20
40.896200
11
31.600400
21
41.260600
0
LINE
8
Layer 1
10
31.600400
20
41.260600
11
31.484590
21
41.268022
0
LINE
8
Layer 1
10
31.484590
20
41.268022
11
31.368780
21
41.275445
0
LINE
8
Layer 1
10
31.368780
20
41.275445
11
31.368700
21
41.458300
0
LINE
8
Layer 1
10
31.368700
20
41.458300
11
31.368700
21
41.641200
0
LINE
8
Layer 1
10
31.368700
20
41.641200
11
31.779951
21
41.647889
0
LINE
8
Layer 1
10
31.779951
20
41.647889
11
32.224902
21
41.626609
0
LINE
8
Layer 1
10
32.224902
20
41.626609
11
32.258602
21
41.064081
0
LINE
8
Layer 1
10
32.258602
20
41.064081
11
32.258600
21
40.529500
0
LINE
8
Layer 1
10
32.258600
20
40.529500
11
32.410980
21
40.536753
0
LINE
8
Layer 1
10
32.410980
20
40.536753
11
32.563360
21
40.544006
0
LINE
8
Layer 1
10
32.563360
20
40.544006
11
32.570105
21
40.902261
0
LINE
8
Layer 1
10
32.570105
20
40.902261
11
32.576850
21
41.260516
0
LINE
8
Layer 1
10
32.576850
20
41.260516
11
32.460397
21
41.267967
0
LINE
8
Layer 1
10
32.460397
20
41.267967
11
32.343944
21
41.275418
0
LINE
8
Layer 1
10
32.343944
20
41.275418
11
32.344000
21
41.458300
0
LINE
8
Layer 1
10
32.344000
20
41.458300
11
32.344000
21
41.641100
0
LINE
8
Layer 1
10
32.344000
20
41.641100
11
32.743045
21
41.647817
0
LINE
8
Layer 1
10
32.743045
20
41.647817
11
33.209521
21
41.552784
0
LINE
8
Layer 1
10
33.209521
20
41.552784
11
33.310438
21
41.558175
0
LINE
8
Layer 1
10
33.310438
20
41.558175
11
34.058659
21
41.570113
0
LINE
8
Layer 1
10
34.058659
20
41.570113
11
34.188498
21
41.440536
0
LINE
8
Layer 1
10
34.188498
20
41.440536
11
34.253861
21
40.940137
0
LINE
8
Layer 1
10
34.253861
20
40.940137
11
34.262017
21
40.531756
0
LINE
8
Layer 1
10
34.262017
20
40.531756
11
34.406200
21
40.531800
0
LINE
8
Layer 1
10
34.406200
20
40.531800
11
34.550500
21
40.531800
0
LINE
8
Layer 1
10
34.550500
20
40.531800
11
34.550500
21
40.896100
0
LINE
8
Layer 1
10
34.550500
20
40.896100
11
34.550500
21
41.260500
0
LINE
8
Layer 1
10
34.550500
20
41.260500
11
34.434690
21
41.267922
0
LINE
8
Layer 1
10
34.434690
20
41.267922
11
34.318883
21
41.275345
0
LINE
8
Layer 1
10
34.318883
20
41.275345
11
34.318900
21
41.458200
0
LINE
8
Layer 1
10
34.318900
20
41.458200
11
34.318900
21
41.641100
0
LINE
8
Layer 1
10
34.318900
20
41.641100
11
34.730151
21
41.647789
0
LINE
8
Layer 1
10
34.730151
20
41.647789
11
35.175099
21
41.626509
0
LINE
8
Layer 1
10
35.175099
20
41.626509
11
35.208802
21
41.063984
0
LINE
8
Layer 1
10
35.208802
20
41.063984
11
35.208800
21
40.529400
0
LINE
8
Layer 1
10
35.208800
20
40.529400
11
35.361180
21
40.536653
0
LINE
8
Layer 1
10
35.361180
20
40.536653
11
35.513560
21
40.543906
0
LINE
8
Layer 1
10
35.513560
20
40.543906
11
35.520305
21
40.902161
0
LINE
8
Layer 1
10
35.520305
20
40.902161
11
35.527050
21
41.260416
0
LINE
8
Layer 1
10
35.527050
20
41.260416
11
35.410597
21
41.267867
0
LINE
8
Layer 1
10
35.410597
20
41.267867
11
35.294144
21
41.275318
0
LINE
8
Layer 1
10
35.294144
20
41.275318
11
35.294100
21
41.458200
0
LINE
8
Layer 1
10
35.294100
20
41.458200
11
35.294100
21
41.641000
0
LINE
8
Layer 1
10
35.294100
20
41.641000
11
35.693142
21
41.647717
0
LINE
8
Layer 1
10
35.693142
20
41.647717
11
36.159621
21
41.552684
0
LINE
8
Layer 1
10
36.159621
20
41.552684
11
36.260538
21
41.558075
0
LINE
8
Layer 1
10
36.260538
20
41.558075
11
37.008756
21
41.570013
0
LINE
8
Layer 1
10
37.008756
20
41.570013
11
37.138598
21
41.440434
0
LINE
8
Layer 1
10
37.138598
20
41.440434
11
37.203958
21
40.940035
0
LINE
8
Layer 1
10
37.203958
20
40.940035
11
37.264909
21
40.532648
0
LINE
8
Layer 1
10
37.264909
20
40.532648
11
37.399721
21
40.603785
0
LINE
8
Layer 1
10
37.399721
20
40.603785
11
37.481729
21
40.673925
0
LINE
8
Layer 1
10
37.481729
20
40.673925
11
37.412881
21
40.764191
0
LINE
8
Layer 1
10
37.412881
20
40.764191
11
37.334280
21
41.007596
0
LINE
8
Layer 1
10
37.334280
20
41.007596
11
37.502922
21
41.443423
0
LINE
8
Layer 1
10
37.502922
20
41.443423
11
37.967669
21
41.637015
0
LINE
8
Layer 1
10
37.967669
20
41.637015
11
38.504642
21
41.564143
0
LINE
8
Layer 1
10
38.504642
20
41.564143
11
38.711880
21
41.582600
0
LINE
8
Layer 1
10
38.711880
20
41.582600
11
39.353512
21
41.640422
0
LINE
8
Layer 1
10
39.353512
20
41.640422
11
39.877700
21
41.640986
0
LINE
8
Layer 1
10
39.877700
20
41.640986
11
39.885489
21
41.586128
0
LINE
8
Layer 1
10
39.885489
20
41.586128
11
40.024675
21
41.582854
0
LINE
8
Layer 1
10
40.024675
20
41.582854
11
40.445056
21
41.626021
0
LINE
8
Layer 1
10
40.445056
20
41.626021
11
40.807401
21
41.454483
0
LINE
8
Layer 1
10
40.807401
20
41.454483
11
40.877313
21
41.381230
0
LINE
8
Layer 1
10
40.877313
20
41.381230
11
40.889505
21
41.511111
0
LINE
8
Layer 1
10
40.889505
20
41.511111
11
40.901697
21
41.640990
0
LINE
8
Layer 1
10
40.901697
20
41.640990
11
41.312948
21
41.647679
0
LINE
8
Layer 1
10
41.312948
20
41.647679
11
41.757902
21
41.626399
0
LINE
8
Layer 1
10
41.757902
20
41.626399
11
41.791602
21
41.065037
0
LINE
8
Layer 1
10
41.791602
20
41.065037
11
41.791600
21
40.531700
0
LINE
8
Layer 1
10
41.791600
20
40.531700
11
41.846456
21
40.532829
0
LINE
8
Layer 1
10
41.846456
20
40.532829
11
41.983322
21
40.603966
0
LINE
8
Layer 1
10
41.983322
20
40.603966
11
42.065330
21
40.674112
0
LINE
8
Layer 1
10
42.065330
20
40.674112
11
41.996482
21
40.764378
0
LINE
8
Layer 1
10
41.996482
20
40.764378
11
41.917880
21
41.007780
0
LINE
8
Layer 1
10
41.917880
20
41.007780
11
42.086522
21
41.443607
0
LINE
8
Layer 1
10
42.086522
20
41.443607
11
42.551270
21
41.637202
0
LINE
8
Layer 1
10
42.551270
20
41.637202
11
43.088242
21
41.564330
0
LINE
8
Layer 1
10
43.088242
20
41.564330
11
43.292085
21
41.580727
0
LINE
8
Layer 1
10
43.292085
20
41.580727
11
43.597412
21
41.631732
0
LINE
8
Layer 1
10
43.597412
20
41.631732
11
43.837459
21
41.521822
0
LINE
8
Layer 1
10
43.837459
20
41.521822
11
43.854195
21
41.219187
0
LINE
8
Layer 1
10
43.854195
20
41.219187
11
43.644532
21
41.092591
0
LINE
8
Layer 1
10
43.644532
20
41.092591
11
43.421867
21
41.246938
0
LINE
8
Layer 1
10
43.421867
20
41.246938
11
43.374013
21
41.348592
0
LINE
8
Layer 1
10
43.374013
20
41.348592
11
43.392978
21
41.238878
0
LINE
8
Layer 1
10
43.392978
20
41.238878
11
43.381723
21
40.918404
0
LINE
8
Layer 1
10
43.381723
20
40.918404
11
43.212472
21
40.679638
0
LINE
8
Layer 1
10
43.212472
20
40.679638
11
42.870296
21
40.541919
0
LINE
8
Layer 1
10
42.870296
20
40.541919
11
42.407194
21
40.538767
0
LINE
8
Layer 1
10
42.407194
20
40.538767
11
42.279195
21
40.520958
0
LINE
8
Layer 1
10
42.279195
20
40.520958
11
42.738881
21
40.469854
0
LINE
8
Layer 1
10
42.738881
20
40.469854
11
43.461668
21
40.381292
0
LINE
8
Layer 1
10
43.461668
20
40.381292
11
43.647868
21
39.967493
0
LINE
8
Layer 1
10
43.647868
20
39.967493
11
43.311289
21
39.605932
0
LINE
8
Layer 1
10
43.311289
20
39.605932
11
42.703218
21
39.522673
0
LINE
8
Layer 1
10
42.703218
20
39.522673
11
42.080779
21
39.594305
0
LINE
8
Layer 1
10
42.080779
20
39.594305
11
41.821770
21
39.801588
0
LINE
8
Layer 1
10
41.821770
20
39.801588
11
41.905807
21
40.061969
0
LINE
8
Layer 1
10
41.905807
20
40.061969
11
41.959576
21
40.153248
0
LINE
8
Layer 1
10
41.959576
20
40.153248
11
41.413674
21
40.172072
0
LINE
8
Layer 1
10
41.413674
20
40.172072
11
40.901675
21
40.178309
0
LINE
8
Layer 1
10
40.901675
20
40.178309
11
40.889483
21
40.296010
0
LINE
8
Layer 1
10
40.889483
20
40.296010
11
40.877291
21
40.413714
0
LINE
8
Layer 1
10
40.877291
20
40.413714
11
40.807379
21
40.340447
0
LINE
8
Layer 1
10
40.807379
20
40.340447
11
40.445212
21
40.169970
0
LINE
8
Layer 1
10
40.445212
20
40.169970
11
40.026363
21
40.211308
0
LINE
8
Layer 1
10
40.026363
20
40.211308
11
39.911964
21
40.261910
0
LINE
8
Layer 1
10
39.911964
20
40.261910
11
39.919189
21
40.110396
0
LINE
8
Layer 1
10
39.919189
20
40.110396
11
39.926414
21
39.958882
0
LINE
8
Layer 1
10
39.926414
20
39.958882
11
40.023628
21
39.950980
0
LINE
8
Layer 1
10
40.023628
20
39.950980
11
40.151627
21
39.917517
0
LINE
8
Layer 1
10
40.151627
20
39.917517
11
40.153038
21
39.610245
0
LINE
8
Layer 1
10
40.153038
20
39.610245
11
39.041268
21
39.610245
0
LINE
8
Layer 1
10
39.041268
20
39.610245
11
39.012016
21
39.722852
0
LINE
8
Layer 1
10
39.012016
20
39.722852
11
39.012000
21
39.806200
0
LINE
8
Layer 1
10
39.012000
20
39.806200
11
38.934262
21
39.730195
0
LINE
8
Layer 1
10
38.934262
20
39.730195
11
38.383875
21
39.532654
0
LINE
8
Layer 1
10
38.383875
20
39.532654
11
37.835885
21
39.533500
0
LINE
8
Layer 1
10
37.835885
20
39.533500
11
37.836200
21
39.533500
0
LINE
8
Layer 1
10
38.552798
20
39.891767
11
38.552773
21
39.952718
0
LINE
8
Layer 1
10
38.552773
20
39.952718
11
37.756083
21
39.970498
0
LINE
8
Layer 1
10
37.756083
20
39.970498
11
37.801859
21
39.872398
0
LINE
8
Layer 1
10
37.801859
20
39.872398
11
38.552804
21
39.891758
0
LINE
8
Layer 1
10
38.552804
20
39.891758
11
38.552798
21
39.891767
0
LINE
8
Layer 1
10
43.136398
20
39.891767
11
43.136375
21
39.952718
0
LINE
8
Layer 1
10
43.136375
20
39.952718
11
42.339685
21
39.970498
0
LINE
8
Layer 1
10
42.339685
20
39.970498
11
42.385459
21
39.872398
0
LINE
8
Layer 1
10
42.385459
20
39.872398
11
43.136404
21
39.891758
0
LINE
8
Layer 1
10
43.136404
20
39.891758
11
43.136398
21
39.891767
0
LINE
8
Layer 1
10
39.265688
20
39.985188
11
39.280476
21
40.608670
0
LINE
8
Layer 1
10
39.280476
20
40.608670
11
39.280500
21
41.193600
0
LINE
8
Layer 1
10
39.280500
20
41.193600
11
39.216261
21
41.143071
0
LINE
8
Layer 1
10
39.216261
20
41.143071
11
38.935495
21
41.118885
0
LINE
8
Layer 1
10
38.935495
20
41.118885
11
38.838407
21
41.246884
0
LINE
8
Layer 1
10
38.838407
20
41.246884
11
38.790554
21
41.348535
0
LINE
8
Layer 1
10
38.790554
20
41.348535
11
38.809519
21
41.238821
0
LINE
8
Layer 1
10
38.809519
20
41.238821
11
38.798263
21
40.918349
0
LINE
8
Layer 1
10
38.798263
20
40.918349
11
38.629013
21
40.679581
0
LINE
8
Layer 1
10
38.629013
20
40.679581
11
38.286835
21
40.541863
0
LINE
8
Layer 1
10
38.286835
20
40.541863
11
37.823735
21
40.538710
0
LINE
8
Layer 1
10
37.823735
20
40.538710
11
37.695736
21
40.520901
0
LINE
8
Layer 1
10
37.695736
20
40.520901
11
38.155422
21
40.469800
0
LINE
8
Layer 1
10
38.155422
20
40.469800
11
38.880408
21
40.379901
0
LINE
8
Layer 1
10
38.880408
20
40.379901
11
39.067109
21
40.057764
0
LINE
8
Layer 1
10
39.067109
20
40.057764
11
39.068802
21
39.946648
0
LINE
8
Layer 1
10
39.068802
20
39.946648
11
39.159800
21
39.946700
0
LINE
8
Layer 1
10
39.159800
20
39.946700
11
39.265650
21
39.985266
0
LINE
8
Layer 1
10
39.265650
20
39.985266
11
39.265688
21
39.985188
0
LINE
8
Layer 1
10
41.133438
20
40.897476
11
41.133400
21
41.263200
0
LINE
8
Layer 1
10
41.133400
20
41.263200
11
41.038300
21
41.263200
0
LINE
8
Layer 1
10
41.038300
20
41.263200
11
40.943200
21
41.263200
0
LINE
8
Layer 1
10
40.943200
20
41.263200
11
40.977386
21
41.149611
0
LINE
8
Layer 1
10
40.977386
20
41.149611
11
41.011568
21
40.897485
0
LINE
8
Layer 1
10
41.011568
20
40.897485
11
40.977386
21
40.645362
0
LINE
8
Layer 1
10
40.977386
20
40.645362
11
40.943200
21
40.531773
0
LINE
8
Layer 1
10
40.943200
20
40.531773
11
41.038300
21
40.531800
0
LINE
8
Layer 1
10
41.038300
20
40.531800
11
41.133400
21
40.531800
0
LINE
8
Layer 1
10
41.133400
20
40.531800
11
41.133438
21
40.897476
0
LINE
8
Layer 1
10
40.254765
20
40.580010
11
40.353249
21
40.909668
0
LINE
8
Layer 1
10
40.353249
20
40.909668
11
40.304408
21
41.184324
0
LINE
8
Layer 1
10
40.304408
20
41.184324
11
40.134315
21
41.263191
0
LINE
8
Layer 1
10
40.134315
20
41.263191
11
39.957855
21
41.137306
0
LINE
8
Layer 1
10
39.957855
20
41.137306
11
39.919900
21
40.799983
0
LINE
8
Layer 1
10
39.919900
20
40.799983
11
40.111605
21
40.556146
0
LINE
8
Layer 1
10
40.111605
20
40.556146
11
40.254765
21
40.580022
0
LINE
8
Layer 1
10
40.254765
20
40.580022
11
40.254765
21
40.580010
0
LINE
8
Layer 1
10
38.158665
20
40.843563
11
38.223536
21
41.044705
0
LINE
8
Layer 1
10
38.223536
20
41.044705
11
38.187922
21
41.287757
0
LINE
8
Layer 1
10
38.187922
20
41.287757
11
38.023822
21
41.326055
0
LINE
8
Layer 1
10
38.023822
20
41.326055
11
37.921173
21
41.107517
0
LINE
8
Layer 1
10
37.921173
20
41.107517
11
37.990918
21
40.842620
0
LINE
8
Layer 1
10
37.990918
20
40.842620
11
38.158665
21
40.843467
0
LINE
8
Layer 1
10
38.158665
20
40.843467
11
38.158665
21
40.843563
0
LINE
8
Layer 1
10
42.742275
20
40.843563
11
42.807144
21
41.044705
0
LINE
8
Layer 1
10
42.807144
20
41.044705
11
42.771530
21
41.287757
0
LINE
8
Layer 1
10
42.771530
20
41.287757
11
42.607432
21
41.326055
0
LINE
8
Layer 1
10
42.607432
20
41.326055
11
42.504782
21
41.107517
0
LINE
8
Layer 1
10
42.504782
20
41.107517
11
42.574525
21
40.842620
0
LINE
8
Layer 1
10
42.574525
20
40.842620
11
42.742275
21
40.843467
0
LINE
8
Layer 1
10
42.742275
20
40.843467
11
42.742275
21
40.843563
0
LINE
8
Layer 1
10
31.832175
20
41.701272
11
31.641530
21
41.805167
0
LINE
8
Layer 1
10
31.641530
20
41.805167
11
31.576174
21
41.996273
0
LINE
8
Layer 1
10
31.576174
20
41.996273
11
31.835401
21
42.266484
0
LINE
8
Layer 1
10
31.835401
20
42.266484
11
32.149481
21
42.205417
0
LINE
8
Layer 1
10
32.149481
20
42.205417
11
32.258841
21
41.988334
0
LINE
8
Layer 1
10
32.258841
20
41.988334
11
32.218647
21
41.834038
0
LINE
8
Layer 1
10
32.218647
20
41.834038
11
31.832175
21
41.701272
0
LINE
8
Layer 1
10
31.832175
20
41.701272
11
31.832175
21
41.701272
0
LINE
8
Layer 1
10
34.782265
20
41.701272
11
34.591620
21
41.805167
0
LINE
8
Layer 1
10
34.591620
20
41.805167
11
34.526264
21
41.996273
0
LINE
8
Layer 1
10
34.526264
20
41.996273
11
34.785491
21
42.266484
0
LINE
8
Layer 1
10
34.785491
20
42.266484
11
35.099571
21
42.205417
0
LINE
8
Layer 1
10
35.099571
20
42.205417
11
35.208931
21
41.988334
0
LINE
8
Layer 1
10
35.208931
20
41.988334
11
35.168737
21
41.834038
0
LINE
8
Layer 1
10
35.168737
20
41.834038
11
34.782265
21
41.701272
0
LINE
8
Layer 1
10
34.782265
20
41.701272
11
34.782265
21
41.701272
0
LINE
8
Layer 1
10
41.365105
20
41.701272
11
41.174462
21
41.805167
0
LINE
8
Layer 1
10
41.174462
20
41.805167
11
41.109107
21
41.996273
0
LINE
8
Layer 1
10
41.109107
20
41.996273
11
41.368334
21
42.266484
0
LINE
8
Layer 1
10
41.368334
20
42.266484
11
41.682412
21
42.205417
0
LINE
8
Layer 1
10
41.682412
20
42.205417
11
41.791771
21
41.988334
0
LINE
8
Layer 1
10
41.791771
20
41.988334
11
41.751580
21
41.834038
0
LINE
8
Layer 1
10
41.751580
20
41.834038
11
41.365105
21
41.701272
0
LINE
8
Layer 1
10
41.365105
20
41.701272
11
41.365105
21
41.701272
 0 
ENDSEC
 0 
EOF