999
"DXF R12 Output" (www.mydxf.blogspot.com)
 0 
SECTION
 2 
HEADER
 9 
$ACADVER
 1 
AC1009
 9 
$EXTMIN
 10 
 0 
 20 
 0 
 9 
$EXTMAX
 10 
 8.5 
 20 
 11 
 0 
ENDSEC
 0 
SECTION
 2 
ENTITIES
0
LINE
8
Layer 1
10
19.628100
20
58.828300
11
19.475361
21
59.746235
0
LINE
8
Layer 1
10
19.475361
20
59.746235
11
19.290012
21
59.748521
0
LINE
8
Layer 1
10
19.290012
20
59.748521
11
19.067904
21
59.820495
0
LINE
8
Layer 1
10
19.067904
20
59.820495
11
19.040452
21
60.351481
0
LINE
8
Layer 1
10
19.040452
20
60.351481
11
20.423012
21
60.587681
0
LINE
8
Layer 1
10
20.423012
20
60.587681
11
20.520335
21
60.145475
0
LINE
8
Layer 1
10
20.520335
20
60.145475
11
20.493325
21
59.977801
0
LINE
8
Layer 1
10
20.493325
20
59.977801
11
20.292947
21
59.915465
0
LINE
8
Layer 1
10
20.292947
20
59.915465
11
20.183373
21
59.880166
0
LINE
8
Layer 1
10
20.183373
20
59.880166
11
20.267934
21
59.385549
0
LINE
8
Layer 1
10
20.267934
20
59.385549
11
20.297939
21
58.864032
0
LINE
8
Layer 1
10
20.297939
20
58.864032
11
19.777778
21
58.752461
0
LINE
8
Layer 1
10
19.777778
20
58.752461
11
19.628099
21
58.828320
0
LINE
8
Layer 1
10
19.628099
20
58.828320
11
19.628100
21
58.828300
0
LINE
8
Layer 1
10
29.727300
20
58.820674
11
29.208455
21
59.094371
0
LINE
8
Layer 1
10
29.208455
20
59.094371
11
29.111060
21
59.496913
0
LINE
8
Layer 1
10
29.111060
20
59.496913
11
29.218925
21
59.966044
0
LINE
8
Layer 1
10
29.218925
20
59.966044
11
29.549452
21
60.227381
0
LINE
8
Layer 1
10
29.549452
20
60.227381
11
30.110306
21
60.236302
0
LINE
8
Layer 1
10
30.110306
20
60.236302
11
30.540791
21
60.028686
0
LINE
8
Layer 1
10
30.540791
20
60.028686
11
30.596702
21
59.659302
0
LINE
8
Layer 1
10
30.596702
20
59.659302
11
30.437588
21
59.436566
0
LINE
8
Layer 1
10
30.437588
20
59.436566
11
30.071007
21
59.360071
0
LINE
8
Layer 1
10
30.071007
20
59.360071
11
29.841973
21
59.280340
0
LINE
8
Layer 1
10
29.841973
20
59.280340
11
30.008388
21
59.240370
0
LINE
8
Layer 1
10
30.008388
20
59.240370
11
30.296179
21
59.284720
0
LINE
8
Layer 1
10
30.296179
20
59.284720
11
30.382047
21
59.179352
0
LINE
8
Layer 1
10
30.382047
20
59.179352
11
30.397908
21
58.836031
0
LINE
8
Layer 1
10
30.397908
20
58.836031
11
29.727320
21
58.820672
0
LINE
8
Layer 1
10
29.727320
20
58.820672
11
29.727300
21
58.820674
0
LINE
8
Layer 1
10
29.936839
20
59.742817
11
29.897082
21
59.845929
0
LINE
8
Layer 1
10
29.897082
20
59.845929
11
29.845602
21
59.718445
0
LINE
8
Layer 1
10
29.845602
20
59.718445
11
29.863764
21
59.634449
0
LINE
8
Layer 1
10
29.863764
20
59.634449
11
29.936839
21
59.742818
0
LINE
8
Layer 1
10
29.936839
20
59.742818
11
29.936839
21
59.742817
0
LINE
8
Layer 1
10
20.718100
20
59.806000
11
20.646394
21
60.696828
0
LINE
8
Layer 1
10
20.646394
20
60.696828
11
21.313138
21
60.836772
0
LINE
8
Layer 1
10
21.313138
20
60.836772
11
21.353078
21
60.576370
0
LINE
8
Layer 1
10
21.353078
20
60.576370
11
21.373255
21
60.335734
0
LINE
8
Layer 1
10
21.373255
20
60.335734
11
21.456885
21
60.390531
0
LINE
8
Layer 1
10
21.456885
20
60.390531
11
21.736604
21
60.463108
0
LINE
8
Layer 1
10
21.736604
20
60.463108
11
22.032057
21
60.381524
0
LINE
8
Layer 1
10
22.032057
20
60.381524
11
22.167480
21
60.098866
0
LINE
8
Layer 1
10
22.167480
20
60.098866
11
22.266316
21
59.104675
0
LINE
8
Layer 1
10
22.266316
20
59.104675
11
21.724822
21
59.028664
0
LINE
8
Layer 1
10
21.724822
20
59.028664
11
21.582516
21
59.038982
0
LINE
8
Layer 1
10
21.582516
20
59.038982
11
21.525653
21
59.527849
0
LINE
8
Layer 1
10
21.525653
20
59.527849
11
21.438089
21
60.033574
0
LINE
8
Layer 1
10
21.438089
20
60.033574
11
21.459533
21
59.543673
0
LINE
8
Layer 1
10
21.459533
20
59.543673
11
21.488630
21
59.035000
0
LINE
8
Layer 1
10
21.488630
20
59.035000
11
21.007811
21
58.955497
0
LINE
8
Layer 1
10
21.007811
20
58.955497
11
20.803969
21
58.954679
0
LINE
8
Layer 1
10
20.803969
20
58.954679
11
20.718100
21
59.806000
0
LINE
8
Layer 1
10
28.376090
20
59.019044
11
28.296430
21
59.142115
0
LINE
8
Layer 1
10
28.296430
20
59.142115
11
28.326645
21
59.654283
0
LINE
8
Layer 1
10
28.326645
20
59.654283
11
28.313578
21
60.067292
0
LINE
8
Layer 1
10
28.313578
20
60.067292
11
28.271527
21
59.957718
0
LINE
8
Layer 1
10
28.271527
20
59.957718
11
28.229382
21
59.460422
0
LINE
8
Layer 1
10
28.229382
20
59.460422
11
28.190648
21
59.072699
0
LINE
8
Layer 1
10
28.190648
20
59.072699
11
27.877785
21
59.075380
0
LINE
8
Layer 1
10
27.877785
20
59.075380
11
27.526847
21
59.116140
0
LINE
8
Layer 1
10
27.526847
20
59.116140
11
27.543597
21
59.753683
0
LINE
8
Layer 1
10
27.543597
20
59.753683
11
27.656545
21
60.395652
0
LINE
8
Layer 1
10
27.656545
20
60.395652
11
28.244191
21
60.384894
0
LINE
8
Layer 1
10
28.244191
20
60.384894
11
28.371055
21
60.368037
0
LINE
8
Layer 1
10
28.371055
20
60.368037
11
28.641700
21
60.404438
0
LINE
8
Layer 1
10
28.641700
20
60.404438
11
28.938925
21
60.322946
0
LINE
8
Layer 1
10
28.938925
20
60.322946
11
29.032278
21
59.842507
0
LINE
8
Layer 1
10
29.032278
20
59.842507
11
29.004310
21
59.215984
0
LINE
8
Layer 1
10
29.004310
20
59.215984
11
28.977584
21
58.988408
0
LINE
8
Layer 1
10
28.977584
20
58.988408
11
28.718978
21
58.991752
0
LINE
8
Layer 1
10
28.718978
20
58.991752
11
28.376081
21
59.019023
0
LINE
8
Layer 1
10
28.376081
20
59.019023
11
28.376090
21
59.019044
0
LINE
8
Layer 1
10
22.661400
20
59.135500
11
22.340443
21
59.496430
0
LINE
8
Layer 1
10
22.340443
20
59.496430
11
22.307392
21
59.832327
0
LINE
8
Layer 1
10
22.307392
20
59.832327
11
22.483198
21
60.342157
0
LINE
8
Layer 1
10
22.483198
20
60.342157
11
23.058712
21
60.530452
0
LINE
8
Layer 1
10
23.058712
20
60.530452
11
23.561298
21
60.464398
0
LINE
8
Layer 1
10
23.561298
20
60.464398
11
23.747940
21
60.159244
0
LINE
8
Layer 1
10
23.747940
20
60.159244
11
23.635725
21
59.812735
0
LINE
8
Layer 1
10
23.635725
20
59.812735
11
23.191063
21
59.645807
0
LINE
8
Layer 1
10
23.191063
20
59.645807
11
23.051902
21
59.575053
0
LINE
8
Layer 1
10
23.051902
20
59.575053
11
23.355818
21
59.596922
0
LINE
8
Layer 1
10
23.355818
20
59.596922
11
23.553036
21
59.639529
0
LINE
8
Layer 1
10
23.553036
20
59.639529
11
23.693842
21
59.476411
0
LINE
8
Layer 1
10
23.693842
20
59.476411
11
23.743888
21
59.283919
0
LINE
8
Layer 1
10
23.743888
20
59.283919
11
23.602310
21
59.158093
0
LINE
8
Layer 1
10
23.602310
20
59.158093
11
22.661400
21
59.135499
0
LINE
8
Layer 1
10
22.661400
20
59.135499
11
22.661400
21
59.135500
0
LINE
8
Layer 1
10
23.082837
20
60.035544
11
23.001392
21
60.079377
0
LINE
8
Layer 1
10
23.001392
20
60.079377
11
23.051550
21
59.917052
0
LINE
8
Layer 1
10
23.051550
20
59.917052
11
23.082837
21
60.035544
0
LINE
8
Layer 1
10
23.082837
20
60.035544
11
23.082837
21
60.035544
0
LINE
8
Layer 1
10
26.268907
20
59.167958
11
25.964255
21
59.395588
0
LINE
8
Layer 1
10
25.964255
20
59.395588
11
25.881924
21
59.834390
0
LINE
8
Layer 1
10
25.881924
20
59.834390
11
25.954001
21
60.235361
0
LINE
8
Layer 1
10
25.954001
20
60.235361
11
26.201036
21
60.470085
0
LINE
8
Layer 1
10
26.201036
20
60.470085
11
26.680231
21
60.549848
0
LINE
8
Layer 1
10
26.680231
20
60.549848
11
27.275408
21
60.395194
0
LINE
8
Layer 1
10
27.275408
20
60.395194
11
27.439177
21
59.867886
0
LINE
8
Layer 1
10
27.439177
20
59.867886
11
27.348395
21
59.421741
0
LINE
8
Layer 1
10
27.348395
20
59.421741
11
27.052629
21
59.175108
0
LINE
8
Layer 1
10
27.052629
20
59.175108
11
26.268906
21
59.167956
0
LINE
8
Layer 1
10
26.268906
20
59.167956
11
26.268907
21
59.167958
0
LINE
8
Layer 1
10
26.718706
20
59.815313
11
26.651892
21
60.143448
0
LINE
8
Layer 1
10
26.651892
20
60.143448
11
26.603540
21
59.576427
0
LINE
8
Layer 1
10
26.603540
20
59.576427
11
26.671088
21
59.533107
0
LINE
8
Layer 1
10
26.671088
20
59.533107
11
26.718706
21
59.815314
0
LINE
8
Layer 1
10
26.718706
20
59.815314
11
26.718706
21
59.815313
0
LINE
8
Layer 1
10
24.723636
20
59.179441
11
24.701160
21
59.717119
0
LINE
8
Layer 1
10
24.701160
20
59.717119
11
24.701200
21
60.232300
0
LINE
8
Layer 1
10
24.701200
20
60.232300
11
24.524195
21
60.242488
0
LINE
8
Layer 1
10
24.524195
20
60.242488
11
24.347192
21
60.252676
0
LINE
8
Layer 1
10
24.347192
20
60.252676
11
24.337303
21
60.496586
0
LINE
8
Layer 1
10
24.337303
20
60.496586
11
24.406511
21
60.836177
0
LINE
8
Layer 1
10
24.406511
20
60.836177
11
25.105444
21
60.876403
0
LINE
8
Layer 1
10
25.105444
20
60.876403
11
25.810700
21
60.876500
0
LINE
8
Layer 1
10
25.810700
20
60.876500
11
25.832877
21
60.758272
0
LINE
8
Layer 1
10
25.832877
20
60.758272
11
25.790577
21
60.282177
0
LINE
8
Layer 1
10
25.790577
20
60.282177
11
25.607857
21
60.235915
0
LINE
8
Layer 1
10
25.607857
20
60.235915
11
25.442900
21
60.235900
0
LINE
8
Layer 1
10
25.442900
20
60.235900
11
25.442900
21
59.717500
0
LINE
8
Layer 1
10
25.442900
20
59.717500
11
25.442900
21
59.199100
0
LINE
8
Layer 1
10
25.442900
20
59.199100
11
25.337541
21
59.178027
0
LINE
8
Layer 1
10
25.337541
20
59.178027
11
24.723647
21
59.179409
0
LINE
8
Layer 1
10
24.723647
20
59.179409
11
24.723636
21
59.179441
0
LINE
8
Layer 1
10
19.532000
20
57.043100
11
19.015507
21
57.370976
0
LINE
8
Layer 1
10
19.015507
20
57.370976
11
18.953723
21
58.027705
0
LINE
8
Layer 1
10
18.953723
20
58.027705
11
19.130221
21
58.348534
0
LINE
8
Layer 1
10
19.130221
20
58.348534
11
19.466589
21
58.537106
0
LINE
8
Layer 1
10
19.466589
20
58.537106
11
20.480629
21
58.477250
0
LINE
8
Layer 1
10
20.480629
20
58.477250
11
20.518204
21
58.317152
0
LINE
8
Layer 1
10
20.518204
20
58.317152
11
20.470856
21
58.168721
0
LINE
8
Layer 1
10
20.470856
20
58.168721
11
20.262892
21
58.166684
0
LINE
8
Layer 1
10
20.262892
20
58.166684
11
20.018287
21
58.148529
0
LINE
8
Layer 1
10
20.018287
20
58.148529
11
19.847082
21
57.838218
0
LINE
8
Layer 1
10
19.847082
20
57.838218
11
20.019839
21
57.523454
0
LINE
8
Layer 1
10
20.019839
20
57.523454
11
20.281582
21
57.492160
0
LINE
8
Layer 1
10
20.281582
20
57.492160
11
20.513188
21
57.461743
0
LINE
8
Layer 1
10
20.513188
20
57.461743
11
20.543233
21
57.299636
0
LINE
8
Layer 1
10
20.543233
20
57.299636
11
20.471261
21
57.130358
0
LINE
8
Layer 1
10
20.471261
20
57.130358
11
19.531986
21
57.043104
0
LINE
8
Layer 1
10
19.531986
20
57.043104
11
19.532000
21
57.043100
0
LINE
8
Layer 1
10
21.276660
20
57.041745
11
20.701102
21
57.354087
0
LINE
8
Layer 1
10
20.701102
20
57.354087
11
20.572284
21
58.112237
0
LINE
8
Layer 1
10
20.572284
20
58.112237
11
20.629808
21
58.508114
0
LINE
8
Layer 1
10
20.629808
20
58.508114
11
21.430324
21
58.504014
0
LINE
8
Layer 1
10
21.430324
20
58.504014
11
21.469670
21
58.071411
0
LINE
8
Layer 1
10
21.469670
20
58.071411
11
21.506462
21
57.625628
0
LINE
8
Layer 1
10
21.506462
20
57.625628
11
21.707239
21
57.596134
0
LINE
8
Layer 1
10
21.707239
20
57.596134
11
21.770502
21
58.025627
0
LINE
8
Layer 1
10
21.770502
20
58.025627
11
21.803429
21
58.464953
0
LINE
8
Layer 1
10
21.803429
20
58.464953
11
22.023550
21
58.538083
0
LINE
8
Layer 1
10
22.023550
20
58.538083
11
22.248243
21
58.502963
0
LINE
8
Layer 1
10
22.248243
20
58.502963
11
22.283425
21
57.994950
0
LINE
8
Layer 1
10
22.283425
20
57.994950
11
22.234177
21
57.429977
0
LINE
8
Layer 1
10
22.234177
20
57.429977
11
21.866633
21
57.099787
0
LINE
8
Layer 1
10
21.866633
20
57.099787
11
21.276662
21
57.041748
0
LINE
8
Layer 1
10
21.276662
20
57.041748
11
21.276660
21
57.041745
0
LINE
8
Layer 1
10
22.796710
20
57.043918
11
22.343461
21
57.246097
0
LINE
8
Layer 1
10
22.343461
20
57.246097
11
22.332610
21
57.406873
0
LINE
8
Layer 1
10
22.332610
20
57.406873
11
22.405779
21
57.546818
0
LINE
8
Layer 1
10
22.405779
20
57.546818
11
22.621033
21
57.515134
0
LINE
8
Layer 1
10
22.621033
20
57.515134
11
22.871828
21
57.541740
0
LINE
8
Layer 1
10
22.871828
20
57.541740
11
22.687928
21
57.709444
0
LINE
8
Layer 1
10
22.687928
20
57.709444
11
22.384443
21
58.082160
0
LINE
8
Layer 1
10
22.384443
20
58.082160
11
22.582292
21
58.471450
0
LINE
8
Layer 1
10
22.582292
20
58.471450
11
23.238145
21
58.583063
0
LINE
8
Layer 1
10
23.238145
20
58.583063
11
23.750544
21
58.453560
0
LINE
8
Layer 1
10
23.750544
20
58.453560
11
23.789951
21
58.254975
0
LINE
8
Layer 1
10
23.789951
20
58.254975
11
23.681261
21
58.117683
0
LINE
8
Layer 1
10
23.681261
20
58.117683
11
23.522303
21
58.160274
0
LINE
8
Layer 1
10
23.522303
20
58.160274
11
23.362452
21
58.169728
0
LINE
8
Layer 1
10
23.362452
20
58.169728
11
23.334888
21
58.066976
0
LINE
8
Layer 1
10
23.334888
20
58.066976
11
23.544380
21
57.931643
0
LINE
8
Layer 1
10
23.544380
20
57.931643
11
23.829976
21
57.744472
0
LINE
8
Layer 1
10
23.829976
20
57.744472
11
23.903888
21
57.430594
0
LINE
8
Layer 1
10
23.903888
20
57.430594
11
23.685581
21
57.160818
0
LINE
8
Layer 1
10
23.685581
20
57.160818
11
22.796713
21
57.043926
0
LINE
8
Layer 1
10
22.796713
20
57.043926
11
22.796710
21
57.043918
0
LINE
8
Layer 1
10
28.104880
20
57.031805
11
27.602166
21
57.168292
0
LINE
8
Layer 1
10
27.602166
20
57.168292
11
27.292049
21
57.450522
0
LINE
8
Layer 1
10
27.292049
20
57.450522
11
27.191366
21
57.772844
0
LINE
8
Layer 1
10
27.191366
20
57.772844
11
27.251388
21
58.081111
0
LINE
8
Layer 1
10
27.251388
20
58.081111
11
27.791898
21
58.523182
0
LINE
8
Layer 1
10
27.791898
20
58.523182
11
28.255110
21
58.579585
0
LINE
8
Layer 1
10
28.255110
20
58.579585
11
28.697550
21
58.527704
0
LINE
8
Layer 1
10
28.697550
20
58.527704
11
29.002171
21
58.354462
0
LINE
8
Layer 1
10
29.002171
20
58.354462
11
29.184492
21
58.108544
0
LINE
8
Layer 1
10
29.184492
20
58.108544
11
29.226089
21
57.805694
0
LINE
8
Layer 1
10
29.226089
20
57.805694
11
29.042806
21
57.352341
0
LINE
8
Layer 1
10
29.042806
20
57.352341
11
28.640377
21
57.098491
0
LINE
8
Layer 1
10
28.640377
20
57.098491
11
28.104880
21
57.031810
0
LINE
8
Layer 1
10
28.104880
20
57.031810
11
28.104880
21
57.031805
0
LINE
8
Layer 1
10
28.561832
20
57.691534
11
28.568120
21
57.992610
0
LINE
8
Layer 1
10
28.568120
20
57.992610
11
28.229572
21
58.029772
0
LINE
8
Layer 1
10
28.229572
20
58.029772
11
28.104880
21
57.829721
0
LINE
8
Layer 1
10
28.104880
20
57.829721
11
28.274242
21
57.611603
0
LINE
8
Layer 1
10
28.274242
20
57.611603
11
28.561832
21
57.691534
0
LINE
8
Layer 1
10
28.561832
20
57.691534
11
28.561832
21
57.691534
0
LINE
8
Layer 1
10
24.047332
20
57.112146
11
23.986040
21
57.161769
0
LINE
8
Layer 1
10
23.986040
20
57.161769
11
23.986100
21
57.817000
0
LINE
8
Layer 1
10
23.986100
20
57.817000
11
24.034703
21
58.507782
0
LINE
8
Layer 1
10
24.034703
20
58.507782
11
24.417679
21
58.543331
0
LINE
8
Layer 1
10
24.417679
20
58.543331
11
24.813510
21
58.481873
0
LINE
8
Layer 1
10
24.813510
20
58.481873
11
24.874969
21
58.146531
0
LINE
8
Layer 1
10
24.874969
20
58.146531
11
24.895715
21
57.881752
0
LINE
8
Layer 1
10
24.895715
20
57.881752
11
25.034759
21
57.842252
0
LINE
8
Layer 1
10
25.034759
20
57.842252
11
25.152689
21
57.894978
0
LINE
8
Layer 1
10
25.152689
20
57.894978
11
25.175432
21
58.168396
0
LINE
8
Layer 1
10
25.175432
20
58.168396
11
25.233382
21
58.488890
0
LINE
8
Layer 1
10
25.233382
20
58.488890
11
25.615220
21
58.542947
0
LINE
8
Layer 1
10
25.615220
20
58.542947
11
25.975477
21
58.519556
0
LINE
8
Layer 1
10
25.975477
20
58.519556
11
26.033477
21
57.531498
0
LINE
8
Layer 1
10
26.033477
20
57.531498
11
25.972170
21
57.116304
0
LINE
8
Layer 1
10
25.972170
20
57.116304
11
25.599441
21
57.066056
0
LINE
8
Layer 1
10
25.599441
20
57.066056
11
25.223863
21
57.091978
0
LINE
8
Layer 1
10
25.223863
20
57.091978
11
25.175432
21
57.252939
0
LINE
8
Layer 1
10
25.175432
20
57.252939
11
25.034284
21
57.466675
0
LINE
8
Layer 1
10
25.034284
20
57.466675
11
24.874585
21
57.284263
0
LINE
8
Layer 1
10
24.874585
20
57.284263
11
24.824408
21
57.103537
0
LINE
8
Layer 1
10
24.824408
20
57.103537
11
24.467749
21
57.070552
0
LINE
8
Layer 1
10
24.467749
20
57.070552
11
24.047392
21
57.112150
0
LINE
8
Layer 1
10
24.047392
20
57.112150
11
24.047332
21
57.112146
0
LINE
8
Layer 1
10
26.237132
20
57.118750
11
26.180566
21
57.684340
0
LINE
8
Layer 1
10
26.180566
20
57.684340
11
26.243103
21
58.505791
0
LINE
8
Layer 1
10
26.243103
20
58.505791
11
27.042218
21
58.507852
0
LINE
8
Layer 1
10
27.042218
20
58.507852
11
27.098755
21
57.865222
0
LINE
8
Layer 1
10
27.098755
20
57.865222
11
27.092462
21
57.201397
0
LINE
8
Layer 1
10
27.092462
20
57.201397
11
26.999204
21
57.087068
0
LINE
8
Layer 1
10
26.999204
20
57.087068
11
26.642225
21
57.066081
0
LINE
8
Layer 1
10
26.642225
20
57.066081
11
26.237137
21
57.118773
0
LINE
8
Layer 1
10
26.237137
20
57.118773
11
26.237132
21
57.118750
0
LINE
8
Layer 1
10
29.370752
20
57.121691
11
29.331774
21
57.804680
0
LINE
8
Layer 1
10
29.331774
20
57.804680
11
29.361724
21
58.461548
0
LINE
8
Layer 1
10
29.361724
20
58.461548
11
29.602357
21
58.543399
0
LINE
8
Layer 1
10
29.602357
20
58.543399
11
30.212036
21
58.330571
0
LINE
8
Layer 1
10
30.212036
20
58.330571
11
30.643949
21
58.117662
0
LINE
8
Layer 1
10
30.643949
20
58.117662
11
30.658822
21
58.300443
0
LINE
8
Layer 1
10
30.658822
20
58.300443
11
30.688868
21
58.513270
0
LINE
8
Layer 1
10
30.688868
20
58.513270
11
31.105473
21
58.510617
0
LINE
8
Layer 1
10
31.105473
20
58.510617
11
31.148114
21
57.409647
0
LINE
8
Layer 1
10
31.148114
20
57.409647
11
31.086048
21
57.103301
0
LINE
8
Layer 1
10
31.086048
20
57.103301
11
30.786376
21
57.070403
0
LINE
8
Layer 1
10
30.786376
20
57.070403
11
30.521110
21
57.078997
0
LINE
8
Layer 1
10
30.521110
20
57.078997
11
30.213180
21
57.260304
0
LINE
8
Layer 1
10
30.213180
20
57.260304
11
29.881417
21
57.441608
0
LINE
8
Layer 1
10
29.881417
20
57.441608
11
29.857597
21
57.278240
0
LINE
8
Layer 1
10
29.857597
20
57.278240
11
29.793372
21
57.090447
0
LINE
8
Layer 1
10
29.793372
20
57.090447
11
29.569443
21
57.066023
0
LINE
8
Layer 1
10
29.569443
20
57.066023
11
29.370764
21
57.121671
0
LINE
8
Layer 1
10
29.370764
20
57.121671
11
29.370752
21
57.121691
 0 
ENDSEC
 0 
EOF