<?xml version="1.0" encoding="UTF-8" standalone="no"?>
<svg
   width="62mm"
   height="117mm"
   viewBox="0 0 62 117"
   version="1.1"
   id="svg8"
   inkscape:version="1.2.2 (b0a8486541, 2022-12-01)"
   sodipodi:docname="shining_pig_front_9V_freecad.svg"
   inkscape:export-filename="/home/yann/_dev/98 - Graphics/graphics-pedals/Shining Pig/shining_pig_front_9V.png"
   inkscape:export-xdpi="96"
   inkscape:export-ydpi="96"
   xmlns:inkscape="http://www.inkscape.org/namespaces/inkscape"
   xmlns:sodipodi="http://sodipodi.sourceforge.net/DTD/sodipodi-0.dtd"
   xmlns="http://www.w3.org/2000/svg"
   xmlns:svg="http://www.w3.org/2000/svg"
   xmlns:rdf="http://www.w3.org/1999/02/22-rdf-syntax-ns#"
   xmlns:cc="http://creativecommons.org/ns#"
   xmlns:dc="http://purl.org/dc/elements/1.1/">
  <defs
     id="defs2" />
  <sodipodi:namedview
     id="base"
     pagecolor="#ffffff"
     bordercolor="#666666"
     borderopacity="1.0"
     inkscape:pageopacity="0"
     inkscape:pageshadow="2"
     inkscape:zoom="5.6568543"
     inkscape:cx="91.039998"
     inkscape:cy="171.82695"
     inkscape:document-units="mm"
     inkscape:current-layer="layer6"
     inkscape:document-rotation="0"
     showgrid="true"
     inkscape:window-width="3836"
     inkscape:window-height="2113"
     inkscape:window-x="0"
     inkscape:window-y="881"
     inkscape:window-maximized="1"
     showborder="true"
     inkscape:showpageshadow="false"
     inkscape:pagecheckerboard="true"
     inkscape:deskcolor="#d1d1d1">
    <sodipodi:guide
       position="-2.0168617,58.500093"
       orientation="0,117.16536"
       id="guide1967"
       inkscape:locked="false" />
    <sodipodi:guide
       position="31.001653,138.8865"
       orientation="-221.10236,0"
       id="guide1969"
       inkscape:locked="false" />
    <inkscape:grid
       type="xygrid"
       id="grid1973"
       visible="true"
       enabled="true"
       originx="31.000001"
       originy="58.500002"
       dotted="false" />
  </sodipodi:namedview>
  <metadata
     id="metadata5">
    <rdf:RDF>
      <cc:Work
         rdf:about="">
        <dc:format>image/svg+xml</dc:format>
        <dc:type
           rdf:resource="http://purl.org/dc/dcmitype/StillImage" />
      </cc:Work>
    </rdf:RDF>
  </metadata>
  <g
     inkscape:groupmode="layer"
     id="layer6"
     inkscape:label="Controls">
    <path
       id="path1902"
       d="m 30.384192,3.2768026 c -0.06766,0.00193 -0.130261,0.018225 -0.187586,0.049093 -0.06115,0.032926 -0.110307,0.078288 -0.146761,0.135909 -0.03645,0.056444 -0.05426,0.121396 -0.05426,0.1943034 0,0.074083 0.01743,0.1397833 0.05271,0.197404 0.03528,0.056444 0.08317,0.1009159 0.143144,0.1338419 0.06115,0.03175 0.128114,0.048059 0.201021,0.048059 0.06585,0 0.125741,-0.015418 0.179834,-0.045992 0.05527,-0.03175 0.09684,-0.071677 0.125057,-0.1198894 0,0.088194 -0.01125,0.1680472 -0.03359,0.2397787 -0.02117,0.071731 -0.05439,0.1287157 -0.100252,0.171049 -0.04469,0.042333 -0.103825,0.063562 -0.176733,0.063562 -0.04351,0 -0.07927,-0.00745 -0.107487,-0.022738 -0.02822,-0.016463 -0.05071,-0.036943 -0.06718,-0.060462 -0.01529,-0.024694 -0.02691,-0.049203 -0.03514,-0.073897 h -0.147794 c 0.01058,0.045861 0.02928,0.091224 0.05633,0.1359091 0.02822,0.043509 0.06688,0.079265 0.116272,0.1074869 0.04939,0.028222 0.110918,0.042375 0.185002,0.042375 0.146991,0 0.257679,-0.053704 0.331762,-0.1607137 0.07408,-0.1070092 0.111105,-0.2525623 0.111105,-0.4371826 0,-0.1916759 -0.03613,-0.3393856 -0.109038,-0.442867 -0.07291,-0.1034815 -0.18069,-0.1550293 -0.322977,-0.1550293 -0.0046,0 -0.0089,-1.286e-4 -0.01344,0 z m 0.526583,0.013953 0.472839,1.1678874 h 0.151412 L 32.007865,3.2907552 H 31.863171 L 31.459578,4.3087809 31.055469,3.2907552 Z m -0.522449,0.1147217 c 0.0031,-8.27e-5 0.0062,0 0.0093,0 0.05057,0 0.09593,0.011247 0.135909,0.03359 0.04115,0.021167 0.07312,0.051112 0.09664,0.089917 0.02469,0.038806 0.03721,0.084168 0.03721,0.135909 0,0.048212 -0.01251,0.091044 -0.03721,0.1286743 -0.02351,0.036454 -0.05548,0.065133 -0.09664,0.0863 -0.04116,0.019991 -0.08652,0.029972 -0.135909,0.029972 -0.04939,2e-7 -0.09475,-0.011247 -0.135909,-0.03359 -0.03998,-0.022343 -0.07246,-0.052288 -0.09715,-0.089917 -0.02469,-0.038806 -0.03669,-0.082012 -0.03669,-0.1302246 0,-0.049389 0.012,-0.093111 0.03669,-0.1307414 0.02469,-0.03763 0.05717,-0.0672 0.09715,-0.088367 0.03859,-0.019844 0.08079,-0.030282 0.126607,-0.031523 z"
       style="font-size:1.76389px;line-height:1.25;font-family:Questrial;-inkscape-font-specification:'Questrial, Normal';letter-spacing:0px;word-spacing:0px;fill:none;stroke:#000000;stroke-width:0.1;stroke-dasharray:none;stroke-opacity:1" />
    <path
       id="path1919"
       d="m 45.222563,54.097473 v 2.914034 h 0.312125 v -0.333313 c 0.0777,0.111005 0.177615,0.200044 0.299724,0.266651 0.124883,0.06661 0.273389,0.09974 0.44545,0.09974 0.202589,0 0.378791,-0.04724 0.52865,-0.141593 0.152636,-0.09713 0.270729,-0.227455 0.353984,-0.391191 0.08326,-0.163736 0.12454,-0.344014 0.12454,-0.541052 0,-0.199813 -0.04128,-0.380091 -0.12454,-0.541052 -0.08325,-0.163736 -0.201348,-0.293218 -0.353984,-0.387574 -0.149859,-0.09713 -0.326061,-0.14521 -0.52865,-0.14521 -0.172061,0 -0.320567,0.03313 -0.44545,0.09973 -0.122109,0.06661 -0.222019,0.156485 -0.299724,0.270268 v -1.169438 z m 3.354834,0.799435 c -0.202589,0 -0.380149,0.04859 -0.532784,0.145727 -0.14986,0.09436 -0.266078,0.223321 -0.349333,0.387057 -0.08326,0.160961 -0.125057,0.341239 -0.125057,0.541052 0,0.197038 0.0418,0.377316 0.125057,0.541052 0.08326,0.163736 0.199473,0.294059 0.349333,0.391191 0.152635,0.09436 0.330195,0.141593 0.532784,0.141593 0.172061,0 0.319209,-0.03313 0.441316,-0.09974 0.124884,-0.06661 0.226153,-0.155644 0.303858,-0.266651 v 0.333313 h 0.312125 V 54.92998 h -0.312125 v 0.337448 c -0.07771,-0.113781 -0.178974,-0.204178 -0.303858,-0.270785 -0.122107,-0.06661 -0.269255,-0.09973 -0.441316,-0.09973 z m 2.322855,0 c -0.269192,0 -0.473089,0.05267 -0.611849,0.158129 -0.135984,0.102682 -0.204122,0.248471 -0.204122,0.437183 0,0.127659 0.03365,0.228928 0.100253,0.303857 0.0666,0.07216 0.152409,0.128906 0.257865,0.170533 0.105457,0.03885 0.216755,0.07063 0.333313,0.0956 0.119333,0.02497 0.231473,0.05131 0.33693,0.07906 0.105455,0.02498 0.191776,0.06134 0.258383,0.108521 0.06661,0.04718 0.09973,0.11344 0.09973,0.199471 0,0.06938 -0.01954,0.126649 -0.05839,0.171049 -0.03885,0.04441 -0.08745,0.07753 -0.145728,0.09974 -0.0555,0.0222 -0.113613,0.03715 -0.174666,0.04547 -0.06105,0.0083 -0.112369,0.01292 -0.153996,0.01292 -0.133208,0 -0.241272,-0.01954 -0.324528,-0.05839 -0.08326,-0.04163 -0.145959,-0.0943 -0.187585,-0.15813 -0.03885,-0.0666 -0.06247,-0.134742 -0.0708,-0.204122 h -0.324528 c 0.0083,0.122108 0.04689,0.236124 0.116272,0.341582 0.06938,0.102684 0.16929,0.18577 0.299723,0.249597 0.133209,0.06383 0.295822,0.0956 0.487309,0.0956 0.258092,0 0.463348,-0.05267 0.615983,-0.15813 0.155411,-0.108232 0.233061,-0.263533 0.233061,-0.466121 0,-0.130434 -0.03313,-0.233062 -0.09974,-0.307992 -0.0666,-0.07771 -0.152925,-0.13769 -0.258382,-0.179317 -0.105456,-0.04163 -0.217597,-0.0734 -0.33693,-0.0956 -0.116557,-0.02498 -0.227856,-0.04996 -0.333313,-0.07493 -0.105455,-0.02775 -0.191259,-0.0636 -0.257866,-0.108004 -0.06661,-0.0444 -0.09974,-0.108464 -0.09974,-0.19172 0,-0.199813 0.164813,-0.299723 0.49506,-0.299723 0.174837,0 0.299724,0.03178 0.374654,0.0956 0.07771,0.06383 0.122225,0.14012 0.133325,0.228926 h 0.31626 c -0.0111,-0.102682 -0.04695,-0.197998 -0.108004,-0.286804 -0.05828,-0.08881 -0.145959,-0.161024 -0.262516,-0.216524 -0.113782,-0.05828 -0.262288,-0.08733 -0.445451,-0.08733 z m 2.006596,0 c -0.269193,0 -0.47309,0.05267 -0.611849,0.158129 -0.135984,0.102682 -0.204122,0.248471 -0.204122,0.437183 0,0.127659 0.03365,0.228928 0.100253,0.303857 0.0666,0.07216 0.152408,0.128906 0.257865,0.170533 0.105457,0.03885 0.216239,0.07063 0.332796,0.0956 0.119333,0.02497 0.23199,0.05131 0.337447,0.07906 0.105455,0.02498 0.191259,0.06134 0.257866,0.108521 0.06661,0.04718 0.100252,0.11344 0.100252,0.199471 0,0.06938 -0.01954,0.126649 -0.05839,0.171049 -0.03885,0.04441 -0.08745,0.07753 -0.145728,0.09974 -0.0555,0.0222 -0.113613,0.03715 -0.174666,0.04547 -0.06106,0.0083 -0.112369,0.01292 -0.153996,0.01292 -0.133209,0 -0.24179,-0.01954 -0.325045,-0.05839 -0.08326,-0.04163 -0.145442,-0.0943 -0.187069,-0.15813 -0.03885,-0.0666 -0.06247,-0.134742 -0.0708,-0.204122 h -0.325045 c 0.0083,0.122108 0.04741,0.236124 0.116789,0.341582 0.06938,0.102684 0.169289,0.18577 0.299723,0.249597 0.133209,0.06383 0.295821,0.0956 0.487309,0.0956 0.258092,0 0.463348,-0.05267 0.615983,-0.15813 0.15541,-0.108232 0.233061,-0.263533 0.233061,-0.466121 0,-0.130434 -0.03313,-0.233062 -0.09974,-0.307992 -0.0666,-0.07771 -0.152925,-0.13769 -0.258382,-0.179317 -0.105457,-0.04163 -0.217598,-0.0734 -0.33693,-0.0956 -0.116558,-0.02498 -0.227857,-0.04996 -0.333313,-0.07493 -0.105456,-0.02775 -0.191259,-0.0636 -0.257866,-0.108004 -0.06661,-0.0444 -0.100252,-0.108464 -0.100252,-0.19172 0,-0.199813 0.16533,-0.299723 0.495577,-0.299723 0.174836,0 0.299724,0.03178 0.374654,0.0956 0.07771,0.06383 0.122225,0.14012 0.133325,0.228926 h 0.31626 c -0.0111,-0.102682 -0.04695,-0.197998 -0.108004,-0.286804 -0.05828,-0.08881 -0.145958,-0.161024 -0.262516,-0.216524 -0.113783,-0.05828 -0.262289,-0.08733 -0.445451,-0.08733 z m -6.668843,0.28267 c 0.15541,0 0.287092,0.03637 0.395324,0.10852 0.111007,0.07216 0.195968,0.167988 0.254248,0.287321 0.05828,0.119333 0.08733,0.251015 0.08733,0.395325 0,0.141534 -0.02905,0.273216 -0.08733,0.395325 -0.05828,0.119332 -0.14324,0.215165 -0.254248,0.28732 -0.108232,0.07216 -0.239914,0.108004 -0.395324,0.108004 -0.152636,0 -0.282959,-0.03585 -0.391191,-0.108004 -0.108229,-0.07215 -0.189956,-0.167988 -0.245463,-0.28732 -0.05551,-0.122109 -0.0832,-0.253791 -0.0832,-0.395325 0,-0.14431 0.02769,-0.275992 0.0832,-0.395325 0.0555,-0.119333 0.137231,-0.215166 0.245463,-0.287321 0.108232,-0.07215 0.238555,-0.10852 0.391191,-0.10852 z m 2.38125,0 c 0.155409,0 0.285733,0.03637 0.39119,0.10852 0.108229,0.07216 0.189957,0.167988 0.245463,0.287321 0.05551,0.119333 0.08372,0.251015 0.08372,0.395325 0,0.141534 -0.02821,0.273216 -0.08372,0.395325 -0.0555,0.119332 -0.137231,0.215165 -0.245463,0.28732 -0.105457,0.07216 -0.235781,0.108004 -0.39119,0.108004 -0.152636,0 -0.284318,-0.03585 -0.395325,-0.108004 -0.111007,-0.07215 -0.195968,-0.167988 -0.254248,-0.28732 -0.05828,-0.122109 -0.08733,-0.253791 -0.08733,-0.395325 0,-0.14431 0.02905,-0.275992 0.08733,-0.395325 0.05828,-0.119333 0.14324,-0.215166 0.254248,-0.287321 0.111007,-0.07215 0.242689,-0.10852 0.395325,-0.10852 z"
       style="font-size:4.16278px;line-height:1.25;font-family:Questrial;-inkscape-font-specification:'Questrial, Normal';letter-spacing:0px;word-spacing:0px;fill:none;stroke:#000000;stroke-width:0.1;stroke-dasharray:none;stroke-opacity:1" />
    <path
       id="path1928"
       d="m 10.42262,24.058997 v 2.914034 h 0.312125 v -2.914034 z m -1.4443567,0.799434 c -0.2109139,0 -0.3944269,0.04808 -0.5498372,0.145211 -0.1554103,0.09436 -0.2743454,0.223837 -0.3576009,0.387573 -0.083255,0.160961 -0.125057,0.341239 -0.125057,0.541052 0,0.197038 0.041802,0.377317 0.125057,0.541052 0.083255,0.163736 0.2021906,0.29406 0.3576009,0.391191 0.1554103,0.09436 0.3389233,0.141594 0.5498372,0.141594 0.2136892,0 0.3966854,-0.04724 0.5493205,-0.141594 0.1554103,-0.09713 0.2748622,-0.227455 0.3581177,-0.391191 0.083255,-0.163735 0.1245405,-0.344014 0.1245405,-0.541052 0,-0.199813 -0.041285,-0.380091 -0.1245405,-0.541052 C 9.802446,25.227479 9.6829941,25.097998 9.5275838,25.003642 9.3749487,24.906511 9.1919525,24.858431 8.9782633,24.858431 Z m 5.5676187,0 c -0.154803,0.0044 -0.280457,0.04189 -0.376721,0.112138 -0.102681,0.07493 -0.177613,0.153939 -0.224793,0.237195 v -0.31626 h -0.312125 v 2.081527 h 0.312125 v -1.244886 c 0,-0.185937 0.05539,-0.330366 0.166399,-0.433048 0.111007,-0.102681 0.242689,-0.153996 0.395324,-0.153996 0.147085,0 0.269255,0.05403 0.366386,0.162264 0.09991,0.105457 0.149862,0.24581 0.149862,0.420646 v 1.24902 h 0.312126 v -1.244886 c 0,-0.185937 0.05591,-0.330366 0.166914,-0.433048 0.111008,-0.102681 0.24269,-0.153996 0.395325,-0.153996 0.147085,0 0.269254,0.05403 0.366386,0.162264 0.09991,0.105457 0.149862,0.24581 0.149862,0.420646 v 1.24902 h 0.312125 v -1.257288 c 0,-0.174836 -0.03772,-0.326061 -0.112654,-0.453719 -0.07215,-0.130433 -0.166113,-0.230343 -0.28267,-0.299723 -0.116558,-0.06938 -0.241445,-0.10387 -0.374655,-0.10387 -0.135983,0 -0.252718,0.02498 -0.349849,0.07493 -0.09713,0.04995 -0.176142,0.10806 -0.237195,0.174666 -0.05828,0.0666 -0.101438,0.123352 -0.129191,0.170532 -0.0666,-0.133208 -0.15972,-0.235837 -0.279053,-0.307991 -0.116557,-0.07493 -0.244163,-0.112138 -0.382922,-0.112138 -0.01058,0 -0.02069,-2.93e-4 -0.03101,0 z m 3.602881,0 c -0.210914,0 -0.394427,0.04808 -0.549837,0.145211 -0.155411,0.09436 -0.274346,0.223837 -0.357601,0.387573 -0.08326,0.160961 -0.125057,0.341239 -0.125057,0.541052 0,0.197038 0.04316,0.377317 0.129191,0.541052 0.08881,0.163736 0.212335,0.29406 0.37052,0.391191 0.158185,0.09436 0.34254,0.141594 0.553455,0.141594 0.246991,0 0.44817,-0.05811 0.60358,-0.174667 0.158185,-0.119332 0.27356,-0.271915 0.345716,-0.457853 h -0.341582 c -0.0555,0.10268 -0.133154,0.187125 -0.23306,0.253731 -0.09991,0.06383 -0.223436,0.0956 -0.37052,0.0956 -0.138759,0 -0.260929,-0.02905 -0.366386,-0.08733 -0.10546,-0.06105 -0.189905,-0.141422 -0.253731,-0.241328 -0.06105,-0.102682 -0.100136,-0.214822 -0.116789,-0.336931 h 1.744596 v -0.125057 c 0,-0.199813 -0.0418,-0.380091 -0.125057,-0.541052 -0.08326,-0.163736 -0.202708,-0.293217 -0.358118,-0.387573 -0.152635,-0.09713 -0.335631,-0.145211 -0.54932,-0.145211 z m -12.3594523,0.03307 0.8159709,2.081527 H 6.9716675 L 7.7835042,24.891504 H 7.441923 L 6.7882161,26.639718 6.1308919,24.891504 Z m 5.4658163,0 v 1.211295 c 0,0.197038 0.03857,0.363728 0.116272,0.499712 0.08048,0.133209 0.184984,0.234478 0.312642,0.303857 0.127659,0.06661 0.262059,0.09974 0.403593,0.09974 0.169286,0 0.30828,-0.03449 0.416512,-0.10387 0.108232,-0.06938 0.199472,-0.154342 0.274402,-0.254248 v 0.325045 h 0.312126 v -2.081527 h -0.312126 v 1.198893 c 0,0.124884 -0.02905,0.234306 -0.08733,0.328662 -0.0555,0.09435 -0.130437,0.169286 -0.224792,0.224793 -0.09436,0.05273 -0.199702,0.07906 -0.31626,0.07906 -0.169286,0 -0.309639,-0.05675 -0.420646,-0.170533 -0.108232,-0.116557 -0.162264,-0.26914 -0.162264,-0.457853 V 24.8915 Z m -2.2768637,0.249597 c 0.1554104,0 0.2857337,0.03637 0.3911906,0.108521 0.1082319,0.07215 0.1899591,0.167987 0.2454631,0.287321 0.055504,0.119332 0.083199,0.251014 0.083199,0.395324 0,0.141535 -0.027695,0.273217 -0.083199,0.395325 -0.055504,0.119333 -0.1372309,0.215166 -0.2454631,0.287321 -0.1054569,0.07215 -0.2357802,0.108004 -0.3911906,0.108004 -0.1526351,0 -0.2834752,-0.03585 -0.3917073,-0.108004 -0.1082319,-0.07216 -0.1899591,-0.167988 -0.2454631,-0.287321 -0.055504,-0.122108 -0.083199,-0.25379 -0.083199,-0.395325 0,-0.14431 0.027695,-0.275992 0.083199,-0.395324 0.055504,-0.119334 0.1372309,-0.215167 0.2454631,-0.287321 0.1082321,-0.07215 0.2390722,-0.108521 0.3917073,-0.108521 z m 9.1704997,0 c 0.199813,0 0.36055,0.05999 0.482658,0.179317 0.122106,0.119334 0.197039,0.267839 0.224792,0.445451 h -1.415417 c 0.03053,-0.177612 0.10546,-0.326117 0.224792,-0.445451 0.122109,-0.119332 0.283362,-0.179317 0.483175,-0.179317 z"
       style="font-size:4.16278px;line-height:1.25;font-family:Questrial;-inkscape-font-specification:'Questrial, Normal';letter-spacing:0px;word-spacing:0px;fill:none;stroke:#000000;stroke-width:0.1;stroke-dasharray:none;stroke-opacity:1" />
    <path
       id="path1941"
       d="m 50.692513,24.133927 v 0.407727 h 0.337447 v -0.407727 z m -4.062801,0.724504 c -0.202589,0 -0.38015,0.04672 -0.532784,0.141077 -0.149861,0.09158 -0.266594,0.217827 -0.34985,0.378788 -0.08326,0.158186 -0.12454,0.337622 -0.12454,0.537435 0,0.197038 0.04129,0.375957 0.12454,0.536918 0.08326,0.160961 0.199989,0.288566 0.34985,0.382922 0.152634,0.09158 0.330195,0.13746 0.532784,0.13746 0.172062,0 0.319209,-0.03365 0.441317,-0.100253 0.124883,-0.06938 0.226152,-0.15926 0.303857,-0.270267 v 0.287321 c 0,0.213689 -0.05539,0.375784 -0.166398,0.486792 -0.108233,0.113782 -0.281716,0.170532 -0.520382,0.170532 -0.158185,0 -0.288508,-0.02905 -0.39119,-0.08733 -0.102684,-0.0555 -0.174898,-0.134514 -0.216525,-0.237195 h -0.345715 c 0.05828,0.180386 0.169577,0.326175 0.333313,0.437182 0.163736,0.113783 0.375787,0.170533 0.636654,0.170533 0.313595,0 0.555217,-0.07901 0.724503,-0.237195 0.172061,-0.158185 0.257866,-0.385701 0.257866,-0.682646 V 24.891504 H 47.374886 V 25.2243 c -0.0777,-0.113785 -0.178974,-0.202307 -0.303857,-0.266133 -0.122108,-0.06661 -0.269255,-0.09974 -0.441317,-0.09974 z m 2.476851,0 c -0.202588,0 -0.380149,0.04808 -0.532784,0.145211 -0.14986,0.09436 -0.266593,0.223837 -0.349849,0.387573 -0.08326,0.160961 -0.12454,0.341239 -0.12454,0.541052 0,0.197038 0.04129,0.377317 0.12454,0.541052 0.08326,0.163736 0.199989,0.29406 0.349849,0.391191 0.152635,0.09436 0.330196,0.141594 0.532784,0.141594 0.172061,0 0.319209,-0.03313 0.441317,-0.09974 0.124883,-0.0666 0.226152,-0.155643 0.303857,-0.26665 v 0.333313 h 0.312126 V 24.8915 h -0.312126 v 0.33693 c -0.07771,-0.11378 -0.178974,-0.203661 -0.303857,-0.270267 -0.122108,-0.06661 -0.269256,-0.09974 -0.441317,-0.09974 z m 3.423564,0 c -0.155129,0.0041 -0.283005,0.03883 -0.384473,0.10387 -0.108232,0.06938 -0.199988,0.153824 -0.274918,0.253731 V 24.891504 H 51.55861 v 2.081527 h 0.312126 v -1.198894 c 0,-0.124883 0.02769,-0.234823 0.0832,-0.329179 0.05828,-0.09713 0.13457,-0.172065 0.228926,-0.224792 0.09436,-0.05273 0.199702,-0.07906 0.31626,-0.07906 0.172062,0 0.312414,0.05863 0.420646,0.175183 0.108232,0.113783 0.162264,0.265007 0.162264,0.453719 v 1.203028 h 0.312126 V 25.76174 c 0,-0.197038 -0.03993,-0.362368 -0.120406,-0.495577 -0.0777,-0.135982 -0.180334,-0.237251 -0.307992,-0.303857 -0.124884,-0.06938 -0.2598,-0.10387 -0.404109,-0.10387 -0.01058,0 -0.02118,-2.71e-4 -0.03152,0 z m -1.825212,0.03307 v 2.081527 h 0.312643 v -2.081527 z m -4.033345,0.249597 c 0.152635,0 0.281599,0.03501 0.387056,0.104386 0.10823,0.06938 0.189957,0.161979 0.245463,0.278536 0.05828,0.116558 0.08733,0.247398 0.08733,0.391708 0,0.141534 -0.02905,0.271857 -0.08733,0.39119 -0.0555,0.116558 -0.137231,0.209674 -0.245463,0.279053 -0.105457,0.06938 -0.234421,0.10387 -0.387056,0.10387 -0.152635,0 -0.284834,-0.03449 -0.395842,-0.10387 -0.111006,-0.06938 -0.195451,-0.162495 -0.253731,-0.279053 -0.05828,-0.119333 -0.08733,-0.249656 -0.08733,-0.39119 0,-0.14431 0.02905,-0.27515 0.08733,-0.391708 0.05828,-0.116557 0.142724,-0.209156 0.253731,-0.278536 0.111008,-0.06938 0.243207,-0.104386 0.395842,-0.104386 z m 2.476851,0 c 0.155411,0 0.285734,0.03637 0.391191,0.108521 0.108229,0.07215 0.189956,0.167987 0.245463,0.287321 0.05551,0.119332 0.0832,0.251014 0.0832,0.395324 0,0.141535 -0.02769,0.273217 -0.0832,0.395325 -0.0555,0.119333 -0.137231,0.215166 -0.245463,0.287321 -0.105457,0.07215 -0.23578,0.108004 -0.391191,0.108004 -0.152635,0 -0.284834,-0.03585 -0.395841,-0.108004 -0.111006,-0.07216 -0.195452,-0.167988 -0.253732,-0.287321 -0.05828,-0.122108 -0.08733,-0.25379 -0.08733,-0.395325 0,-0.14431 0.02905,-0.275992 0.08733,-0.395324 0.05828,-0.119334 0.142725,-0.215167 0.253732,-0.287321 0.111007,-0.07215 0.243206,-0.108521 0.395841,-0.108521 z"
       style="font-size:4.16278px;line-height:1.25;font-family:Questrial;-inkscape-font-specification:'Questrial, Normal';letter-spacing:0px;word-spacing:0px;fill:none;stroke:#000000;stroke-width:0.1;stroke-dasharray:none;stroke-opacity:1" />
    <path
       id="path1950"
       d="m 12.502596,54.097473 v 2.914034 h 0.312126 v -0.333313 c 0.0777,0.111005 0.177615,0.200044 0.299723,0.266651 0.124883,0.06661 0.27339,0.09974 0.445451,0.09974 0.202588,0 0.37879,-0.04724 0.52865,-0.141593 0.152635,-0.09713 0.270727,-0.227455 0.353983,-0.391191 0.08326,-0.163736 0.125057,-0.344014 0.125057,-0.541052 0,-0.199813 -0.0418,-0.380091 -0.125057,-0.541052 -0.08326,-0.163736 -0.201348,-0.293218 -0.353983,-0.387574 -0.14986,-0.09713 -0.326062,-0.14521 -0.52865,-0.14521 -0.172061,0 -0.320568,0.03313 -0.445451,0.09973 -0.122108,0.06661 -0.222018,0.156485 -0.299723,0.270268 v -1.169438 z m 2.476851,0 v 2.914034 h 0.312126 v -2.914034 z m -7.3096309,0.08733 V 54.92998 H 7.2450358 v 0.274919 h 0.4247803 v 1.806608 H 7.9819417 V 55.204899 H 8.4604655 V 54.92998 H 7.9819417 v -0.745174 z m 2.1864298,0.712102 c -0.1177284,0.0026 -0.2205661,0.02451 -0.309025,0.06614 -0.091581,0.04163 -0.1678727,0.09294 -0.2289266,0.153996 -0.061054,0.06105 -0.1082915,0.122398 -0.1415935,0.183451 -0.030527,0.05828 -0.051428,0.105514 -0.062528,0.141594 V 54.92998 H 8.8020467 v 2.081527 h 0.3121257 v -0.915706 c 0,-0.152635 0.029055,-0.295706 0.087333,-0.428915 0.061054,-0.135983 0.1468581,-0.245923 0.2578654,-0.329178 0.1137826,-0.08603 0.2486995,-0.128675 0.4041097,-0.128675 h 0.037207 v -0.312125 h -0.020671 c -0.00798,0 -0.015923,-1.74e-4 -0.023771,0 z m 1.2309331,0 c -0.210914,0 -0.39391,0.04859 -0.549321,0.145727 -0.15541,0.09436 -0.274862,0.223321 -0.358118,0.387057 -0.08326,0.160961 -0.125057,0.341239 -0.125057,0.541052 0,0.197038 0.04316,0.377316 0.129192,0.541052 0.0888,0.163736 0.212334,0.294059 0.37052,0.391191 0.158185,0.09436 0.34254,0.141593 0.553454,0.141593 0.246992,0 0.448171,-0.05811 0.603581,-0.174666 0.158186,-0.119333 0.273561,-0.271916 0.345715,-0.457853 h -0.341064 c -0.0555,0.102679 -0.133671,0.187124 -0.233578,0.253731 -0.09991,0.06383 -0.222918,0.0956 -0.370003,0.0956 -0.138759,0 -0.260929,-0.02905 -0.366386,-0.08733 -0.105459,-0.06105 -0.190421,-0.141422 -0.254248,-0.241329 -0.06105,-0.102682 -0.09962,-0.214822 -0.116272,-0.33693 h 1.74408 v -0.125057 c 0,-0.199813 -0.0418,-0.380091 -0.125057,-0.541052 -0.08326,-0.163736 -0.202707,-0.292701 -0.358118,-0.387057 -0.152635,-0.09713 -0.335631,-0.145727 -0.54932,-0.145727 z m 5.64875,0 c -0.210913,0 -0.39391,0.04859 -0.54932,0.145727 -0.15541,0.09436 -0.274862,0.223321 -0.358118,0.387057 -0.08325,0.160961 -0.12454,0.341239 -0.12454,0.541052 0,0.197038 0.04264,0.377316 0.128674,0.541052 0.08881,0.163736 0.212335,0.294059 0.37052,0.391191 0.158186,0.09436 0.343058,0.141593 0.553972,0.141593 0.246991,0 0.44817,-0.05811 0.60358,-0.174666 0.158186,-0.119333 0.273044,-0.271916 0.345199,-0.457853 h -0.341064 c -0.0555,0.102679 -0.133155,0.187124 -0.233061,0.253731 -0.09991,0.06383 -0.223436,0.0956 -0.37052,0.0956 -0.138759,0 -0.260929,-0.02905 -0.366386,-0.08733 -0.105459,-0.06105 -0.190422,-0.141422 -0.254248,-0.241329 -0.06105,-0.102682 -0.09962,-0.214822 -0.116272,-0.33693 h 1.744079 v -0.125057 c 0,-0.199813 -0.04128,-0.380091 -0.12454,-0.541052 -0.08326,-0.163736 -0.202707,-0.292701 -0.358117,-0.387057 -0.152636,-0.09713 -0.336149,-0.145727 -0.549838,-0.145727 z m -5.64875,0.28267 c 0.199813,0 0.361066,0.05998 0.483174,0.179317 0.122107,0.119333 0.197039,0.26784 0.224793,0.445451 h -1.415418 c 0.03053,-0.177611 0.105459,-0.326118 0.224793,-0.445451 0.122108,-0.119333 0.282844,-0.179317 0.482658,-0.179317 z m 2.431376,0 c 0.15541,0 0.287092,0.03637 0.395324,0.10852 0.111006,0.07216 0.195452,0.167988 0.253732,0.287321 0.05828,0.119333 0.08733,0.251015 0.08733,0.395325 0,0.141534 -0.02905,0.273216 -0.08733,0.395325 -0.05828,0.119332 -0.142724,0.215165 -0.253732,0.28732 -0.108232,0.07216 -0.239914,0.108004 -0.395324,0.108004 -0.152635,0 -0.283475,-0.03585 -0.391708,-0.108004 -0.108229,-0.07215 -0.189956,-0.167988 -0.245463,-0.28732 -0.0555,-0.122109 -0.0832,-0.253791 -0.0832,-0.395325 0,-0.14431 0.0277,-0.275992 0.0832,-0.395325 0.0555,-0.119333 0.137231,-0.215166 0.245463,-0.287321 0.108233,-0.07215 0.239073,-0.10852 0.391708,-0.10852 z m 3.217374,0 c 0.199813,0 0.361066,0.05998 0.483175,0.179317 0.122107,0.119333 0.197039,0.26784 0.224792,0.445451 h -1.415417 c 0.03053,-0.177611 0.105459,-0.326118 0.224792,-0.445451 0.122108,-0.119333 0.282845,-0.179317 0.482658,-0.179317 z"
       style="font-size:4.16278px;line-height:1.25;font-family:Questrial;-inkscape-font-specification:'Questrial, Normal';letter-spacing:0px;word-spacing:0px;fill:none;stroke:#000000;stroke-width:0.1;stroke-dasharray:none;stroke-opacity:1" />
    <path
       id="path2232"
       style="display:inline;fill:none;stroke:#000000;stroke-width:0.1;stroke-dasharray:none;stroke-opacity:1"
       inkscape:label="shiningpig"
       d="m 37.852987,45.715039 -0.289905,0.02377 -0.170532,0.04599 -0.146761,0.06976 -0.145728,0.07906 -0.151929,0.110071 -0.199987,0.192753 -0.204122,0.242363 -0.0093,2.262911 -0.0093,2.262911 -0.05684,3.376021 -0.05633,3.376021 h -0.247014 -0.247013 l -0.09457,0.236678 -0.09508,0.236678 -0.07028,0.171566 -0.0708,0.172083 -0.05529,0.365869 -0.05529,0.365352 h -0.498161 -0.497644 l -0.09663,0.116272 -0.09612,0.115755 -0.08165,0.42168 -0.08165,0.42168 -0.176734,0.507979 -0.176733,0.507979 V 61.683562 61.9714 H 30.67513 27.579195 V 61.691842 L 27.578678,61.412272 27.416414,60.982324 27.25415,60.55186 27.151314,60.036129 27.048478,59.519881 26.909985,59.412394 26.772009,59.304907 H 26.33276 25.89351 l -0.103353,-0.28577 -0.103353,-0.285254 v -0.187586 -0.187585 h -0.08061 -0.08062 l -0.02687,-0.27957 -0.02687,-0.279569 -0.183968,-0.02584 -0.183968,-0.02636 -0.05116,-2.253093 -0.05116,-2.253092 -0.04031,-3.420463 -0.04082,-3.42098 -0.05684,-0.0925 -0.05736,-0.09302 -0.169499,-0.148311 -0.186552,-0.135392 -0.201021,-0.09198 -0.252181,-0.0832 -0.326595,-0.03979 -0.262,0.02636 -0.224275,0.05788 -0.13746,0.08372 -0.137459,0.08372 -0.128158,0.113171 -0.133842,0.168466 -0.124023,0.197404 -0.05374,3.870564 -0.05323,3.870565 -0.05426,1.784387 -0.05426,1.784904 h -0.28577 -0.285771 l -0.08888,0.166398 -0.08888,0.166399 v 0.299723 0.299723 l -0.05219,0.135909 -0.05219,0.135909 H 20.78116 20.108333 l -0.135392,0.135392 -0.134875,0.134876 v 0.09457 0.09457 l -0.150379,0.166398 -0.150895,0.166398 -0.02894,3.732589 -0.02946,3.732588 H 17.84645 16.213991 l -0.165881,0.08888 -0.166398,0.08888 v 0.426848 0.427364 h -0.468189 -0.468188 l -0.05271,0.08578 -0.05323,0.0863 H 13.56092 12.282962 l -0.135909,0.05219 -0.135909,0.05219 v 3.287654 2.43241 c -0.108591,0.03239 -0.212113,0.07192 -0.307991,0.119372 l -0.432532,0.214458 v -1.135848 c 0,-0.76819 -0.03374,-1.169608 -0.10387,-1.239718 -0.145503,-0.145502 -2.9297614,-0.145502 -3.0752642,0 -0.1345099,0.134509 -0.1345099,0.954311 0,1.088822 0.057017,0.05701 0.2713849,0.103353 0.4764567,0.103353 H 8.9405306 L 8.9177926,75.751449 8.8950546,78.10531 8.6583765,78.1327 C 8.4372995,78.158157 8.4249714,78.142735 8.4739014,77.898088 8.6047772,77.243706 8.0967287,76.782794 7.43058,76.430293 7.2389548,76.328892 6.6686259,76.189385 6.1779432,76.089745 5.1998799,75.891126 4.9514853,75.983256 4.9831841,75.631376 5.000122,75.443353 5.2458846,75.21143 5.7515869,75.21143 c 0.565672,0 0.9345143,0.164923 1.2273153,0.548804 0.2118685,0.277771 0.2849589,0.315226 0.6175333,0.315226 0.6492859,0 0.6506063,-0.0019 0.6506063,-0.95033 0,-0.943278 -0.00501,-0.950329 -0.6242513,-0.950329 -0.2164667,0 -0.3877557,0.05091 -0.4480346,0.133325 -0.087919,0.120179 -0.1302376,0.120015 -0.4273641,-0.0041 -1.2112932,-0.50611 -2.9560356,-0.235877 -3.6271688,0.561723 -0.4533394,0.538767 -0.4905221,1.1727 -0.080615,1.659846 0.284189,0.337738 0.8216716,0.56205 2.0396688,0.852145 0.5622842,0.13392 1.0796881,0.440351 1.1151774,0.58446 0.088272,0.221561 -0.097407,0.359152 -0.5183146,0.359152 -0.6260596,0 -1.0638983,-0.176001 -1.4567586,-0.586011 -0.3456485,-0.360788 -0.3742016,-0.37283 -0.8216556,-0.3473 l -0.4635376,0.02635 v 0.993221 0.993738 l 0.4914429,0.02584 c 0.4149814,0.02174 0.5054707,-9.02e-4 0.5818766,-0.14366 0.0884,-0.165185 0.099752,-0.165109 0.5017782,-0.01447 0.9425409,0.353169 2.1919572,0.284076 3.0246216,-0.166915 0.4510058,-0.244283 0.453719,-0.244517 0.453719,-0.05529 0,0.104713 0.04685,0.237009 0.1038697,0.294039 0.1465248,0.146524 3.4506712,0.146524 3.5971972,0 0.134507,-0.134509 0.134507,-0.954314 0,-1.088823 -0.05702,-0.05701 -0.110347,-0.103353 -0.219626,-0.103353 -0.196193,0 -0.198437,-0.01289 -0.198437,-1.024743 0,-0.992163 0.0074,-1.032155 0.227893,-1.252637 0.287673,-0.28767 0.838456,-0.322161 0.978235,-0.06098 0.04919,0.0919 0.0894,0.653431 0.0894,1.247469 v 1.080037 l -0.173116,0.02687 -0.280603,0.02687 v 0.605131 0.604614 l 4.893241,0.02222 c 3.621619,0.01614 4.919314,-0.0047 5.004544,-0.07545 0.150713,-0.125082 0.158343,-0.972006 0.0098,-1.09399 -0.05939,-0.04878 -0.09122,-0.102426 -0.210004,-0.118856 -0.203864,-0.0282 -0.217319,-0.06379 -0.242879,-0.634586 -0.05589,-1.247712 0.178623,-1.770952 0.794267,-1.770952 0.514084,0 0.571541,0.134214 0.571541,1.334286 v 1.062984 l -0.158481,0.04727 c -0.255668,0.05113 -0.248749,0.06415 -0.248749,0.611092 0,0.425888 0.03197,0.566411 0.136942,0.606681 0.07516,0.02884 2.230396,0.05219 4.925301,0.05219 3.69579,0 4.822798,-0.02515 4.900998,-0.103352 0.137471,-0.137455 0.134317,-0.97304 -0.0041,-1.086756 -0.05939,-0.04878 -0.102911,-0.102426 -0.221697,-0.118856 -0.203864,-0.0282 -0.217319,-0.06379 -0.242879,-0.634586 -0.0559,-1.247714 0.178624,-1.770952 0.794267,-1.770952 0.514075,0 0.571541,0.134212 0.571541,1.334286 v 1.062984 l -0.169329,0.04284 c -0.255665,0.05113 -0.252518,0.06858 -0.252518,0.61552 0,0.42589 0.03197,0.566401 0.136943,0.606681 0.07516,0.02883 0.749402,0.05271 1.616606,0.05271 0.867203,0 1.602412,0.02525 1.633492,0.05633 0.0311,0.0311 -0.07721,0.176936 -0.240813,0.324012 -0.632824,0.568913 -0.3364,1.323403 0.64854,1.650545 0.236641,0.0786 0.769722,0.173423 1.18494,0.210323 1.099139,0.09759 1.117872,0.09753 1.942,0.0031 0.923465,-0.105812 1.58505,-0.343691 1.949752,-0.700216 l 0.275952,-0.269234 v 0.295589 c 0,0.162435 0.04632,0.341912 0.103353,0.398942 0.146861,0.14686 3.792433,0.14686 3.939295,0 0.138196,-0.138179 0.134274,-0.973098 -0.0052,-1.088822 -0.05999,-0.04979 -0.264265,-0.102919 -0.453719,-0.118339 l -0.344165,-0.02842 -0.02584,-0.536919 -0.02584,-0.536918 0.40566,0.179317 c 0.859781,0.380323 2.175284,0.163036 2.767272,-0.457336 l 0.247531,-0.259416 0.04341,0.417029 0.04289,0.417029 1.81436,0.02222 c 0.997794,0.01216 1.868179,0.04214 1.934249,0.06666 0.08508,0.0316 0.02932,0.126024 -0.190686,0.323495 -0.641762,0.576004 -0.358801,1.331603 0.620117,1.656746 1.072008,0.356067 3.356327,0.334353 4.360457,-0.04134 1.357342,-0.507846 1.645271,-1.875539 0.532784,-2.630189 -0.416605,-0.282619 -1.230673,-0.382226 -2.561084,-0.313676 -1.271709,0.06552 -1.628841,-0.09142 -1.628841,-0.298314 0,-0.10894 0.07578,-0.265608 0.453202,-0.209213 1.134081,0.169451 2.290785,-0.0329 2.853573,-0.499195 0.59453,-0.492593 0.791703,-0.956506 0.639754,-1.835111 l -0.0677,-0.389124 0.170016,0.360185 c 0.191056,0.405839 0.394164,0.547253 0.788582,0.547253 0.3669,0 0.576538,-0.12644 0.743107,-0.448551 0.154928,-0.299621 0.124339,-0.850857 -0.05943,-1.072286 -0.361717,-0.435842 -1.262069,-0.533168 -1.932182,-0.208773 -0.384642,0.186207 -0.419598,0.188757 -0.722436,0.05788 -1.176102,-0.508271 -2.714787,-0.322742 -3.549654,0.427881 -0.510102,0.458622 -0.64439,0.805923 -0.59738,1.544092 0.02735,0.429588 0.08539,0.609258 0.278536,0.862479 l 0.243913,0.319877 -0.290422,0.248564 c -0.15982,0.136703 -0.378332,0.250181 -0.485241,0.252181 l -0.194304,0.0036 v -1.889807 c 0,-1.503026 -0.0244,-1.910743 -0.119372,-1.989543 -0.08206,-0.06806 -0.57529,-0.09123 -1.576648,-0.07493 l -0.279053,0.0047 V 73.66943 c 0.128032,0.0825 0.282816,0.145323 0.463537,0.186552 0.509948,0.116336 1.122936,-0.09406 1.369426,-0.470255 0.07832,-0.119541 0.14211,-0.365582 0.14211,-0.546737 0,-0.686186 -0.53299,-1.036856 -1.500167,-0.985986 -0.143564,0.0075 -0.317116,0.104785 -0.474906,0.239778 v -0.746208 -3.827673 l -0.19327,-0.02739 -0.193787,-0.02739 V 67.013997 66.564412 L 49.494653,66.46106 49.3913,66.357707 h -3.767211 -3.767212 l -0.0072,-2.859774 -0.0072,-2.859774 -0.06305,-0.505912 -0.06305,-0.505396 -0.144694,-0.105936 -0.144694,-0.105937 v -0.124023 -0.123507 l -0.103353,-0.103353 -0.103353,-0.103353 h -0.63407 -0.63407 L 39.82961,58.838269 39.70662,58.715279 V 58.276546 57.83833 l -0.258382,-0.05168 -0.257865,-0.05116 -0.0072,-0.01085 -0.0078,-0.01085 -0.105937,-5.695776 -0.105937,-5.695777 -0.165881,-0.183451 -0.131258,-0.125057 -0.150895,-0.117822 -0.116272,-0.06046 -0.116272,-0.05994 -0.209807,-0.04496 z m -14.153456,0.387573 0.133842,0.01085 0.128674,0.02377 0.115239,0.04082 0.11007,0.05323 0.166915,0.133325 0.166915,0.133842 -0.171566,-0.04134 -0.172082,-0.04082 -0.273885,-0.05529 -0.281637,-0.0046 -0.305408,0.03617 -0.312642,0.0863 0.102836,-0.123507 0.10232,-0.124023 0.109037,-0.06873 0.119889,-0.03721 0.128158,-0.0217 z m 14.130718,0.02636 0.12299,0.01034 0.12299,0.0098 0.119373,0.04134 0.10542,0.06873 0.116272,0.09612 0.102836,0.123507 -0.312643,-0.0863 -0.343648,-0.03307 -0.243396,0.0015 -0.273885,0.05529 -0.172083,0.04082 -0.172082,0.04134 0.166915,-0.133842 0.133325,-0.09819 c 0.04889,-0.02515 0.0067,-0.0051 0.147278,-0.07958 l 0.112654,-0.03566 0.133842,-0.01085 z m -14.297177,0.483091 0.321944,0.0046 0.278025,0.0444 0.232914,0.05955 0.202571,0.132292 v 0.248564 l -0.0038,0.170328 c -0.04825,-0.01164 -0.08362,-0.0255 -0.127641,-0.05168 l -0.254764,-0.102836 -0.256298,-0.0507 -0.270805,-0.01875 -0.279413,0.01522 -0.224159,0.03943 -0.220659,0.08372 0.0035,-0.21904 -8.92e-4,-0.205757 0.306442,-0.101285 z m 14.299761,0.01763 0.406177,0.03979 0.206705,0.04702 0.142627,0.117823 v 0.179317 l -0.0021,0.182956 -0.221767,-0.07301 -0.221692,-0.06873 -0.152456,-0.02181 -0.13901,-0.0124 -0.160197,0.01034 -0.156579,0.03359 -0.285243,0.09984 -0.294513,0.106548 -4.61e-4,-0.181876 v -0.185512 l 0.225827,-0.148311 0.238745,-0.06821 z m 0.05994,0.65319 0.186035,0.02842 0.208256,0.03824 0.301273,0.09922 0.22996,10.304798 c -0.411531,0.0018 -0.259219,-4e-5 -0.412894,5.16e-4 V 48.09939 l -0.04393,-0.06615 -0.07906,-0.03256 -0.0832,0.03307 -0.04496,0.06563 v 9.655224 c -0.03771,3.2e-5 -0.247999,6.8e-4 -0.257348,5.17e-4 V 47.737655 l -0.04651,-0.07803 -0.08062,-0.02067 -0.08888,0.02636 -0.03462,0.07235 v 10.017993 c -0.01123,-2.07e-4 -0.200464,1.54e-4 -0.240295,0 v -9.752377 l -0.05064,-0.07441 -0.07855,-0.02842 -0.07906,0.02997 -0.04237,0.07286 v 9.752894 c -0.133308,2e-5 -0.03482,-5.6e-5 -0.330213,5.16e-4 l 0.01964,-1.913578 0.01964,-1.914095 0.05478,-3.197221 0.05478,-3.197738 0.226859,-0.08682 0.226343,-0.08682 0.182934,-0.05788 0.129192,-0.01757 z m -14.436329,0.03721 0.345716,0.0047 0.293522,0.04393 0.247013,0.09457 0.197921,0.129708 0.05684,3.555338 0.05684,3.554822 V 56.2302 l 5.17e-4,1.526521 h -0.302307 v -9.75496 l -0.04289,-0.05478 -0.09405,-0.01499 -0.077,0.01705 -0.03669,0.05271 v 9.75496 h -0.257337 v -10.11673 l -0.03411,-0.09974 -0.104903,-0.03411 -0.0832,0.05633 -0.02894,0.07751 v 10.116695 h -0.240295 v -9.851078 l -0.05943,-0.07648 -0.07235,-0.01085 -0.07958,0.02584 -0.03927,0.0615 v 9.851078 h -0.239779 l 0.07183,-10.138916 v -0.16123 l 0.259416,-0.108004 z M 22.246182,58.35872 h 1.333252 1.333252 v 0.682129 0.681612 l 0.134876,0.135392 0.135392,0.135392 h 0.682129 0.681612 v 0.387057 0.386539 h -0.420646 -0.421163 l -0.05426,0.142627 -0.05478,0.142627 v 6.781499 6.381005 l -0.114203,0.0036 v 0.396358 h -0.730188 c -0.06745,-0.06191 -0.134948,-0.115851 -0.19172,-0.145211 -0.597408,-0.30893 -1.877257,-0.316491 -2.485636,-0.04703 v -7.500318 -7.69307 l 0.0863,-0.05323 0.08578,-0.05323 V 58.74058 Z m 14.112834,0 h 1.372526 1.373043 v 0.381889 0.381888 l 0.08578,0.05323 0.0863,0.05323 v 7.69307 7.304981 c -0.738401,-0.07671 -1.496744,0.06012 -2.081526,0.387573 h -1.643828 l 0.03462,-6.901904 0.03462,-6.902421 -0.451135,-0.02636 -0.451652,-0.02584 10e-4,-0.232028 0.0015,-0.232027 0.05116,-0.190169 0.05064,-0.190686 0.743624,-0.02429 0.743107,-0.02481 0.02481,-0.752409 z m -15.833142,1.195276 0.451652,0.02584 0.451652,0.02636 0.02222,7.504451 0.02067,7.201628 c -0.07751,-0.06508 -0.177945,-0.09825 -0.458299,-0.113171 v -6.486426 -6.902421 l -0.423296,-0.02636 -0.408243,-0.02636 v -0.296106 -0.296623 l 0.172082,-0.172082 0.171566,-0.171566 v -0.133842 z m 19.352824,0.0088 h 0.515731 0.516247 v 0.206189 0.205672 l 0.129191,0.04961 0.128675,0.04961 v 0.38964 0.38964 H 40.78149 40.394434 v 6.880717 6.788216 c -0.02756,-0.01107 -0.04846,-0.01769 -0.08165,-0.03204 -0.140119,-0.06055 -0.28548,-0.110332 -0.434082,-0.151412 V 67.088951 Z M 27.57919,62.401382 h 1.612305 1.612821 1.483631 1.48363 v 0.129191 0.128674 H 30.67513 27.579195 v -0.185518 z m -7.532873,0.516248 h 0.202055 0.193276 v 1.913578 1.913578 3.935161 3.509863 c -0.14253,-9.48e-4 -0.207808,-4.42e-4 -0.395324,0.0021 v -5.425509 z m 5.984647,0 h 0.257866 0.374795 v 5.848738 3.41644 c -0.187772,0.193463 -0.330729,0.431351 -0.330729,0.612883 0,0.327337 0.113282,0.588444 0.330729,0.77463 v 0.630341 l -0.572199,0.0078 -0.0052,-0.04496 -0.05526,-0.451652 v -5.397087 z m 8.686809,0 h 0.209289 0.209806 0.09198 0.0925 l -0.02222,5.853906 -0.02222,5.800163 -0.109038,0.01033 c -0.05488,-0.04709 -0.108567,-0.08863 -0.155029,-0.112655 -0.08549,-0.04421 -0.185516,-0.0817 -0.295072,-0.113688 v -5.574337 z m 5.935038,0 h 0.103869 0.104387 0.196887 0.196887 v 5.858557 5.55935 c -0.06724,0.02459 -0.132869,0.05289 -0.207739,0.0894 -0.150427,0.07335 -0.248211,0.119337 -0.328662,0.141076 l -0.0083,-0.0083 -0.05736,-0.05736 v -5.78466 z M 27.57919,63.091108 h 1.612305 1.612821 1.483631 1.48363 v 0.299359 0.287665 H 32.287952 30.804321 29.1915 27.579195 v -0.287665 z m 0,1.03058 h 3.095935 3.096452 v 5.246709 4.860685 c -0.566628,-0.0085 -1.135234,0.08684 -1.41025,0.28267 -0.06375,0.04539 -0.109585,0.07565 -0.152962,0.102836 h -0.198954 c -0.0035,-0.02272 -0.0057,-0.0493 -0.0057,-0.08372 0,-0.324426 -0.181624,-0.36168 -1.652612,-0.33693 l -1.413867,0.02429 v 0.396358 h -0.336414 c -0.01842,-0.211221 -0.04544,-0.311717 -0.08578,-0.345199 -0.06206,-0.05147 -0.361506,-0.07699 -0.93586,-0.07958 v -0.328551 c 0.376938,-0.0421 0.737904,-0.222994 0.913123,-0.490409 0.07832,-0.119541 0.142627,-0.365582 0.142627,-0.546737 0,-0.572062 -0.372065,-0.909878 -1.05575,-0.977201 v -2.478513 z m 14.277682,2.868042 3.24683,0.001 3.24683,0.001 0.318327,0.05219 0.318844,0.05271 0.02532,0.368454 0.02584,0.483691 0.19327,0.02791 0.193787,0.02739 v 3.305224 2.898532 l -0.619601,0.01033 -0.03721,0.396358 h -0.629935 c -0.667487,-0.414682 -1.704557,-0.516082 -2.440162,-0.190686 -0.502077,0.222077 -0.459653,0.223333 -0.492993,-0.01137 l -0.02791,-0.19482 -1.857251,0.0021 c -0.724876,7.65e-4 -1.162987,0.0037 -1.463993,0.01912 v -3.49436 z m -25.308397,0.83042 h 1.440091 1.505335 v 3.397208 2.983798 l -1.009758,0.01705 v 0.396358 h -0.336414 c -0.01842,-0.211222 -0.04492,-0.311204 -0.08527,-0.344682 -0.08206,-0.06806 -0.512665,-0.09174 -1.514021,-0.07545 v 0 -0.384747 c 0.05901,0.02064 0.09923,0.03974 0.165158,0.05478 0.509945,0.116336 1.079086,-0.09406 1.325576,-0.470255 0.07832,-0.119541 0.142627,-0.365582 0.142627,-0.546737 0,-0.686186 -0.468775,-1.036856 -1.435957,-0.985986 -0.06148,0.0032 -0.128424,0.02411 -0.197404,0.05581 v -0.699942 z m -1.183005,1.031978 h 0.301274 0.300757 v 2.741161 0.759127 c -0.121806,0.158822 -0.204639,0.328772 -0.204639,0.466638 0,0.256515 0.07001,0.472277 0.204639,0.643372 v 0.74028 l -0.602031,0.0098 v -2.478918 z m -2.752286,0.172083 h 1.118278 1.059883 v 2.795178 2.795178 h -0.447001 c -0.383396,-0.341104 -1.077626,-0.509302 -1.73116,-0.469739 v -2.325439 z m 23.886914,6.164998 c -0.290339,0.345522 -0.371243,0.685844 -0.33383,1.273307 0.02736,0.429593 0.08539,0.608741 0.278536,0.861963 l 0.243913,0.319877 -0.290939,0.248564 c -0.15982,0.136705 -0.374596,0.250181 -0.47749,0.252181 -0.183433,0.0034 -0.187697,-0.02461 -0.216007,-1.443323 -0.01884,-0.944314 -0.03422,-1.285264 -0.106454,-1.511535 z m -7.874972,0.0088 h 0.312126 v 0.315743 l 0.412378,0.02635 0.412894,0.02635 -0.02429,1.26969 -0.02377,1.269173 -0.540018,0.02584 -0.539502,0.02584 v -1.893941 c 0,-0.457974 -0.004,-0.788517 -0.0098,-1.065051 z m -3.143477,0.0036 v 0.312126 l 0.410311,0.02635 0.410311,0.02635 v 1.291394 1.290877 h -0.51108 -0.51108 l -0.02894,-1.44694 c -0.01853,-0.928232 -0.03376,-1.27316 -0.102836,-1.49965 z m -6.997506,0.0083 v 0.303857 l 0.412378,0.02635 0.412895,0.02635 -0.02429,1.26969 -0.02377,1.269173 -0.540019,0.02584 -0.539502,0.02584 v -1.893941 c 0,-0.450132 -0.0037,-0.778153 -0.0093,-1.052649 z m -3.734139,0.0041 h 0.278536 v 0.299723 l 0.410311,0.02635 0.410311,0.02635 v 1.291394 1.290877 h -0.465088 -0.465088 l -0.03617,-1.404048 c -0.0209,-0.802361 -0.120488,-1.210475 -0.132244,-1.515898 z m 26.575639,0.04082 0.169499,0.360185 c 0.09326,0.1981 0.248215,0.401852 0.344165,0.453202 0.280006,0.149858 0.746405,0.109584 0.994771,-0.08578 l 0.227893,-0.1788 v 2.072741 c 0,1.139897 -0.02388,2.134018 -0.05271,2.209168 -0.03486,0.09085 -0.160668,0.136426 -0.375171,0.136426 h -0.322461 l -0.0062,-0.393775 c -0.0068,-0.449713 -0.243984,-0.929355 -0.661458,-1.21169 -0.424853,-0.287325 -1.232016,-0.153336 -2.568836,-0.08447 -1.271708,0.06552 -1.628841,-0.137673 -1.628841,-0.34457 0,-0.10892 0.0763,-0.2252 0.453719,-0.168798 1.134081,0.169452 2.290785,-0.0329 2.853573,-0.499195 0.594532,-0.492596 0.791181,-0.997433 0.639237,-1.876036 z m -2.526461,0.04858 c 0.408467,-0.02256 0.568031,0.301999 0.517281,1.027844 -0.03095,0.442709 -0.07861,0.590058 -0.22996,0.712618 -0.239171,0.193622 -0.36347,0.194126 -0.594279,0.0031 -0.392569,-0.324901 -0.305105,-1.606676 0.116789,-1.712557 0.06863,-0.01722 0.131817,-0.02778 0.190169,-0.03101 z m 16.241386,0 c 0.408469,-0.02256 0.568031,0.301999 0.517281,1.027844 -0.03095,0.442709 -0.07861,0.590058 -0.22996,0.712618 -0.23917,0.193622 -0.363472,0.194126 -0.594279,0.0031 -0.392567,-0.324901 -0.305616,-1.606676 0.116272,-1.712557 0.06863,-0.01722 0.132333,-0.02778 0.190686,-0.03101 z m -8.953459,0.253731 c 0.572835,0 0.775664,0.32765 0.775664,1.252637 0,0.6254 -0.12642,1.048865 -0.348816,1.167887 -0.08691,0.04651 -0.315383,0.08475 -0.507463,0.08475 -0.430328,0 -0.619108,-0.240467 -0.679028,-0.86403 -0.09598,-0.998918 0.201264,-1.641244 0.759643,-1.641244 z m 2.865975,0 h 0.336931 0.424263 v 1.295528 1.296045 h -0.424263 -0.336931 l 0.120923,-0.402559 c 0.06661,-0.221364 0.12144,-0.623504 0.12144,-0.893486 0,-0.26998 -0.05482,-0.671604 -0.12144,-0.892968 z m -10.363191,4.496367 c 0.787262,-0.0057 1.798265,0.05148 1.893424,0.146761 0.08612,0.08626 0.08605,0.129747 0,0.216007 -0.130322,0.13063 -2.376072,0.188643 -2.660819,0.06873 -0.256044,-0.10782 -0.310561,-0.224705 -0.162264,-0.347783 0.06559,-0.05443 0.457301,-0.08028 0.929659,-0.08371 z m 16.241385,0 c 0.787263,-0.0057 1.797751,0.05148 1.892908,0.146761 0.08613,0.08626 0.08605,0.129747 0,0.216007 -0.130323,0.13063 -2.37607,0.188643 -2.660819,0.06873 -0.256044,-0.10782 -0.310043,-0.224705 -0.161748,-0.347783 0.06559,-0.05443 0.457302,-0.08028 0.929659,-0.08371 z"
       sodipodi:nodetypes="ccccccccccccccccccccccccccccccccccccccccccccccccccccccccccccccccccccccccccccccccccccccccccccccccccccccccccccccscsssccccsssssssssccssscsccccccsssscssssssscccccccsscssccsssssscssccsssssscsccsssscccccscccccsssssssscccssssssscccccsccccssscccccccccccccccccccccccccccccccccccccccccccccccccccccccccccccccccccccccccccccccccccccccccccccccccccccccccccccccccccccccccccccccccccccccccccccccccccccccccccccccccccccccccccccccccccccccccccccccccccccccccccccccccccccccccccccccccccccccccccccccccccccccccccccccccccccccccccccccccccccccccccccccccccccccccscccccccccccccccsccccccccccscccccccccccccccccccccccsccscccccccsscccccccccccccccccsccccccccccccccccccssscccccccccscccccccccccccccsccccscccccccccccscccccccccccccccccccccsccccccccccccscccsccsssccssscsccsscsssssscssssssssssccccccccsccscssssssssssss" />
    <path
       style="display:inline;fill:none;fill-opacity:1;stroke:#000000;stroke-width:0.307617;stroke-dasharray:none;stroke-opacity:1"
       d="m 89.16816,27.857059 h -0.20797 l -0.15873,-0.413645 -0.15873,-0.413645 -0.26832,0.165832 -0.26832,0.165831 -0.15873,-0.413645 -0.15873,-0.413645 h -0.65689 -0.615549 l -0.275701,0.156606 -0.13803,0.318994 -0.139402,0.715025 H 85.4816 l -0.0045,-0.313854 -0.0045,-0.313855 -0.0045,-0.313854 -0.0045,-0.313855 -0.37332,0.309828 -0.37332,0.309827 -0.17146,-0.277431 -0.17145,-0.277431 0.15554,-0.251674 0.15555,-0.251675 -1.06597,-0.319372 -1.06597,-0.319373 v -0.337165 -0.337165 l 0.53301,-0.16917 0.30283,-0.145906 -0.02092,-0.179461 -0.04111,-0.127739 -0.07405,-0.203435 c 0.08925,-0.02096 0.2096,-0.08258 0.271681,-0.06039 l 0.300849,0.11205 0.184111,0.0381 0.241358,-0.240319 0.587295,-0.393401 1.234965,-0.19401 1.48264,-0.122952 0.62815,0.157656 0.62816,0.157657 0.75229,0.697202 0.75229,0.697202 -0.30989,0.496218 -0.30989,0.496218 v 0.643409 0.643409 l -0.1606,0.418514 -0.1606,0.418515 z"
       id="path922"
       inkscape:label="pig"
       sodipodi:nodetypes="ccccccccccccccccccccccccccccccccccccccccccccccccccc"
       transform="matrix(0.32507994,0,0,0.32507994,5.2411511,45.869728)" />
    <path
       id="path10508-3"
       d="m 53.501349,44.793577 a 3.9999995,3.9999995 0 0 1 -4,4 3.9999995,3.9999995 0 0 1 -4,-4 3.9999995,3.9999995 0 0 1 4,-3.999999 3.9999995,3.9999995 0 0 1 4,3.999999 z"
       style="display:inline;fill:none;stroke:#000000;stroke-width:0.1;stroke-dasharray:none;stroke-opacity:1" />
    <path
       id="path10508-90-6"
       style="display:inline;fill:none;stroke:#000000;stroke-width:0.1;stroke-dasharray:none;stroke-opacity:1"
       d="m 53.501349,14.493578 a 3.9999995,3.9999995 0 0 1 -4,4 3.9999995,3.9999995 0 0 1 -4,-4 3.9999995,3.9999995 0 0 1 4,-3.999991 3.9999995,3.9999995 0 0 1 4,3.999991 z" />
    <path
       id="path10508-9-4-7"
       style="display:inline;fill:none;stroke:#000000;stroke-width:0.1;stroke-dasharray:none;stroke-opacity:1"
       d="m 16.501349,44.793577 a 3.9999995,3.9999995 0 0 1 -4,4 3.9999995,3.9999995 0 0 1 -3.9999761,-4 3.9999995,3.9999995 0 0 1 3.9999761,-3.999999 3.9999995,3.9999995 0 0 1 4,3.999999 z" />
    <path
       id="path10508-91-5"
       style="display:inline;fill:none;stroke:#000000;stroke-width:0.1;stroke-dasharray:none;stroke-opacity:1"
       d="m 16.501349,14.493578 a 3.9999995,3.9999995 0 0 1 -4,4 3.9999995,3.9999995 0 0 1 -3.9999761,-4 3.9999995,3.9999995 0 0 1 3.9999761,-3.999991 3.9999995,3.9999995 0 0 1 4,3.999991 z" />
  </g>
</svg>
