<?xml version="1.0" encoding="UTF-8" standalone="no"?>
<svg
   width="62mm"
   height="117mm"
   viewBox="0 0 62 117"
   version="1.1"
   id="svg8"
   inkscape:version="1.2.2 (b0a8486541, 2022-12-01)"
   sodipodi:docname="blues_brkr_front_freecad.svg"
   inkscape:export-filename="/home/yann/_dev/98 - Graphics/graphics-pedals/Blues Brkr/blues_brkr_front.png"
   inkscape:export-xdpi="409.67999"
   inkscape:export-ydpi="409.67999"
   xmlns:inkscape="http://www.inkscape.org/namespaces/inkscape"
   xmlns:sodipodi="http://sodipodi.sourceforge.net/DTD/sodipodi-0.dtd"
   xmlns="http://www.w3.org/2000/svg"
   xmlns:svg="http://www.w3.org/2000/svg"
   xmlns:rdf="http://www.w3.org/1999/02/22-rdf-syntax-ns#"
   xmlns:cc="http://creativecommons.org/ns#"
   xmlns:dc="http://purl.org/dc/elements/1.1/">
  <defs
     id="defs2" />
  <sodipodi:namedview
     id="base"
     pagecolor="#ffffff"
     bordercolor="#666666"
     borderopacity="1.0"
     inkscape:pageopacity="0"
     inkscape:pageshadow="2"
     inkscape:zoom="16"
     inkscape:cx="165.8125"
     inkscape:cy="254.6875"
     inkscape:document-units="mm"
     inkscape:current-layer="layer1"
     inkscape:document-rotation="0"
     showgrid="true"
     inkscape:window-width="3836"
     inkscape:window-height="2113"
     inkscape:window-x="0"
     inkscape:window-y="881"
     inkscape:window-maximized="1"
     showborder="true"
     inkscape:showpageshadow="false"
     inkscape:pagecheckerboard="true"
     inkscape:deskcolor="#d1d1d1">
    <sodipodi:guide
       position="-2.0168617,58.500093"
       orientation="0,117.16536"
       id="guide1967"
       inkscape:locked="false" />
    <sodipodi:guide
       position="31.001653,138.8865"
       orientation="-221.10236,0"
       id="guide1969"
       inkscape:locked="false" />
    <inkscape:grid
       type="xygrid"
       id="grid1973"
       visible="true"
       enabled="true"
       originx="31.000001"
       originy="58.500002"
       dotted="false" />
  </sodipodi:namedview>
  <metadata
     id="metadata5">
    <rdf:RDF>
      <cc:Work
         rdf:about="">
        <dc:format>image/svg+xml</dc:format>
        <dc:type
           rdf:resource="http://purl.org/dc/dcmitype/StillImage" />
      </cc:Work>
    </rdf:RDF>
  </metadata>
  <g
     inkscape:groupmode="layer"
     id="layer1"
     inkscape:label="COLOR"
     style="stroke-width:0.1;stroke-dasharray:none">
    <path
       id="path10508-90"
       style="display:inline;fill:none;stroke:#000000;stroke-width:0.1;stroke-opacity:1;stroke-dasharray:none"
       d="m 53.5,14.5 a 3.9999995,3.9999995 0 0 1 -4,4 3.9999995,3.9999995 0 0 1 -4,-4 3.9999995,3.9999995 0 0 1 4,-4 3.9999995,3.9999995 0 0 1 4,4 z"
       transform="translate(-0.00583116,-0.01136028)" />
    <path
       id="path10508-9"
       style="display:inline;fill:none;stroke:#000000;stroke-width:0.1;stroke-dasharray:none;stroke-opacity:1"
       d="m 52.994169,44.788639 a 3.4999995,3.4999995 0 0 1 -3.5,3.5 3.4999995,3.4999995 0 0 1 -3.5,-3.5 3.4999995,3.4999995 0 0 1 3.5,-3.499999 3.4999995,3.4999995 0 0 1 3.5,3.499999 z" />
    <path
       id="path10508-9-4"
       style="display:inline;fill:none;stroke:#000000;stroke-width:0.1;stroke-opacity:1;stroke-dasharray:none"
       transform="translate(-0.00583116,-0.01136028)"
       d="m 16.5,44.799999 a 3.9999995,3.9999995 0 0 1 -4,4 3.9999995,3.9999995 0 0 1 -3.9999995,-4 A 3.9999995,3.9999995 0 0 1 12.5,40.8 a 3.9999995,3.9999995 0 0 1 4,3.999999 z" />
    <path
       id="path10508-91"
       style="display:inline;fill:none;stroke:#000000;stroke-width:0.1;stroke-opacity:1;stroke-dasharray:none"
       transform="translate(-0.00583116,-0.01136028)"
       d="m 16.5,14.5 a 3.9999995,3.9999995 0 0 1 -4,4 3.9999995,3.9999995 0 0 1 -3.9999995,-4 3.9999995,3.9999995 0 0 1 3.9999995,-4 3.9999995,3.9999995 0 0 1 4,4 z" />
    <path
       id="path2633"
       style="display:inline;fill:none;fill-opacity:1;stroke:#000000;stroke-width:0.377953;stroke-dasharray:none;stroke-opacity:1"
       d="m 172.35938,201.16406 -7.05665,3.52539 c -3.88153,1.9392 -7.09746,3.56118 -7.14648,3.60547 -0.049,0.0442 1.80104,4.37474 4.11133,9.62305 2.3103,5.24829 4.25757,9.54297 4.32617,9.54297 0.2295,0 14.33466,-6.51985 14.58203,-6.74024 0.13421,-0.11957 -1.79375,-4.56809 -4.28516,-9.88672 z m -1.99024,3.36328 c 0.14575,0.0512 1.9184,3.43042 3.93945,7.50977 l 3.67383,7.41797 -3.27539,1.75 c -4.04418,2.15962 -5.3396,2.38267 -6.7832,1.16797 -1.58358,-1.33204 -2.3881,-4.02986 -1.58203,-5.30274 0.19937,-0.31484 -0.0604,-0.59985 -1,-1.0957 -0.98199,-0.5182 -1.49759,-1.10643 -2.26758,-2.58984 -1.15718,-2.22934 -1.25767,-3.59756 -0.34961,-4.75196 0.63276,-0.80443 7.12138,-4.28908 7.64453,-4.10547 z m -2.60937,3.39258 c -0.57184,0.0734 -1.66149,0.58021 -2.03907,1.03516 -0.43229,0.52089 -0.0186,2.14705 0.94532,3.71289 0.71833,1.16687 0.87766,1.19237 2.44921,0.39062 l 1.1875,-0.60547 -1.04492,-2.07617 c -0.57522,-1.14206 -1.09078,-2.20739 -1.14453,-2.36718 -0.0303,-0.0899 -0.1629,-0.11427 -0.35351,-0.0899 z M 140.75,213.38477 c -2.56808,0.10569 -12.51048,0.91466 -12.66016,1.05859 -0.12808,0.12314 0.49926,15.32785 0.7461,18.08398 l 0.16601,1.84766 6.95117,-1.17773 c 3.82308,-0.64724 7.00623,-1.23279 7.07422,-1.30079 0.14107,-0.14107 -1.50663,-18.31973 -1.67773,-18.50976 -0.0158,-0.0176 -0.23274,-0.017 -0.59961,-0.002 z m 31.11133,0.89257 c -0.55379,0 -1.8125,1.35816 -1.8125,1.95508 0,0.37618 0.35635,1.40117 0.79297,2.27735 0.43661,0.87617 0.99599,1.59375 1.24218,1.59375 0.48336,0 2.25586,-0.84574 2.25586,-1.07618 0,-0.34062 -2.30072,-4.75 -2.47851,-4.75 z m -23.55664,2.26758 c -0.34965,-0.004 -0.56057,0.006 -0.58985,0.0352 -0.17985,0.17817 -3.4095,19.83239 -3.28515,19.99219 0.0289,0.0371 3.08073,0.40074 6.78125,0.80859 3.70054,0.40786 7.01468,0.75649 7.36523,0.77539 0.61629,0.033 0.66622,-0.30299 1.53906,-10.16016 0.79939,-9.02777 0.85104,-10.21632 0.4375,-10.40039 -0.59893,-0.26654 -9.8005,-1.02165 -12.24804,-1.05078 z m -10.22852,2.08789 c 0.55879,0.0571 0.62881,0.97151 1.32227,5.72266 0.35366,2.42298 0.57619,4.57916 0.49414,4.79297 -0.082,0.21378 -0.73134,0.4438 -1.44336,0.51172 -1.04533,0.0997 -1.32268,0.0194 -1.4375,-0.41993 -0.13353,-0.51067 -0.19022,-0.50649 -0.91602,0.0645 -0.91657,0.72098 -2.73035,0.80047 -3.64453,0.16015 -0.89703,-0.62829 -1.21214,-1.63588 -1.81055,-5.79492 -0.57994,-4.03079 -0.53859,-4.16671 1.26368,-4.17578 l 0.94336,-0.004 0.37304,2.5293 c 0.74474,5.04015 0.54464,4.61339 2.08789,4.43945 0.74468,-0.0839 1.44425,-0.24307 1.55469,-0.35351 0.11048,-0.11048 -0.0262,-1.74546 -0.30273,-3.63281 -0.27655,-1.88736 -0.47631,-3.4496 -0.44532,-3.47266 0.0313,-0.0229 0.56987,-0.13462 1.19727,-0.24805 0.33578,-0.0607 0.57741,-0.13815 0.76367,-0.11914 z m 14.9375,0.22852 c 0.3127,-0.0165 0.73284,0.0502 1.27344,0.19531 l 0.63867,0.17188 -0.55859,3.58007 c -0.30767,1.96877 -0.78308,5.23445 -1.05664,7.25782 -0.27355,2.02337 -0.58557,3.75561 -0.69336,3.84961 -0.10779,0.094 -0.67939,0.094 -1.26953,0 -0.84696,-0.13482 -1.05749,-0.29922 -1,-0.78321 0.04,-0.33722 0.48811,-3.33193 0.99609,-6.65429 0.50799,-3.32237 0.92383,-6.39296 0.92383,-6.82227 0,-0.50985 0.22492,-0.76741 0.74609,-0.79492 z m 81.32031,2.35742 c -3.15532,0.029 -6.52643,0.0833 -10.78906,0.19336 -34.03852,0.87861 -41.50929,1.64358 -48.7539,4.98828 -7.3239,3.38132 -7.28812,3.35456 -10.86914,7.95703 -2.05778,2.64471 -3.73734,4.3375 -5.11719,5.1582 -1.12331,0.66815 -3.61049,0.78646 -6.92188,0.32813 -1.89622,-0.26246 -4.54783,-0.5689 -5.89258,-0.68164 l -2.44531,-0.20508 -0.62109,-1.83984 c -0.51303,-1.52035 -0.8065,-1.93196 -1.69336,-2.375 -2.84074,-1.41911 -6.13086,0.0269 -6.13086,2.69531 0,1.01268 -0.43343,0.94829 -1.24219,-0.1875 -1.35376,-1.90116 -3.18674,-1.85917 -4.61133,0.10742 -1.70165,2.34906 -2.36789,6.87884 -2.08593,14.16797 0.22255,5.75379 0.76805,8.2414 2.03515,9.27344 1.37145,1.11701 2.89526,1.71567 4.42774,1.74023 1.19085,0.0191 1.59758,-0.13094 2.38476,-0.88476 0.93839,-0.89865 0.95818,-0.90311 1.78321,-0.36524 0.45888,0.29918 1.70388,0.96618 2.76757,1.48242 1.61858,0.78524 2.19016,0.91354 3.50586,0.78711 1.64216,-0.15779 2.01119,-0.44123 3.05469,-2.3457 l 0.52539,-0.95703 2.23438,0.1875 c 3.50765,0.29374 7.62313,1.20373 9.61132,2.12305 1.43048,0.66143 2.50958,1.56713 5.03907,4.23047 6.30967,6.64355 9.06224,9.2788 10.27148,9.83789 0.67446,0.31182 2.46686,1.15809 3.98438,1.88085 3.14917,1.49989 3.95453,1.76344 7.35742,2.40626 5.10238,0.96385 11.22898,1.39016 22.99414,1.59765 6.57596,0.11599 13.2673,0.31777 14.86914,0.44922 1.60182,0.13164 4.98055,0.18271 7.50976,0.11328 1.19749,-0.0329 1.71125,-0.0513 2.81836,-0.082 v -2.51367 c -4.77439,0.0203 -9.01208,0.002 -9.1289,-0.10742 -0.0703,-0.0655 -5.50804,-0.20988 -12.08399,-0.32032 -13.89814,-0.2335 -22.23243,-0.64302 -25.80273,-1.26562 -2.9891,-0.52126 -6.25285,-1.66697 -10.0625,-3.53516 -3.01264,-1.47733 -4.89651,-3.21257 -8.96094,-8.24609 -3.26709,-4.04607 -7.17597,-6.83575 -10.50976,-7.50391 -0.59016,-0.11827 -2.03845,-0.50121 -3.21875,-0.84961 -1.1803,-0.34839 -3.27909,-0.86978 -4.66407,-1.1582 -2.37714,-0.49504 -2.56735,-0.49401 -3.38281,0.002 -0.47511,0.28894 -1.11336,1.08189 -1.41992,1.76172 -0.73527,1.63087 -1.52277,2.03555 -3.21094,1.65625 -0.91231,-0.20498 -1.65804,-0.66553 -2.4414,-1.50976 -1.82141,-1.96292 -4.51761,-2.12187 -5.44922,-0.32032 -0.50818,0.98265 -1.07178,1.01196 -2.88282,0.15039 -1.45316,-0.69131 -1.82596,-4.10841 -1.09179,-9.99609 0.24298,-1.94855 0.59267,-4.9197 0.77734,-6.60352 0.18466,-1.6838 0.45812,-3.18663 0.60938,-3.33789 0.16232,-0.16231 0.58777,0.0877 1.03711,0.60938 0.67535,0.78408 0.94948,0.87972 2.42187,0.8457 2.16989,-0.0498 2.99024,-0.49692 2.99024,-1.63281 0,-1.40078 0.29762,-1.85352 1.2207,-1.85352 0.95589,0 1.39748,0.40685 1.68554,1.55469 0.11435,0.4556 0.72889,1.13022 1.46485,1.60742 1.04161,0.6754 1.6285,0.82411 3.27734,0.83203 1.1044,0.005 3.66218,0.20901 5.68555,0.45313 6.07498,0.73299 7.01589,0.65619 9.83398,-0.79687 3.11972,-1.60859 5.54099,-3.43467 6.33204,-4.7754 0.34375,-0.58263 1.60678,-1.8065 2.80664,-2.7207 1.19985,-0.91421 2.52573,-1.92614 2.94726,-2.24805 1.9581,-1.49521 5.74851,-3.82554 6.85742,-4.21679 3.2229,-1.13711 6.21034,-1.61259 15.55664,-2.47656 4.90908,-0.45375 9.01728,-0.55035 23.57227,-0.54688 5.74407,0.001 10.72115,0.0265 15.23437,0.0664 z m -123.99609,0.42383 -4.18359,6.19726 -4.18164,6.19532 1.1582,0.6875 c 0.63692,0.37782 4.53887,2.75077 8.66992,5.27343 4.13105,2.52267 7.5797,4.59048 7.66406,4.59766 0.19112,0.0148 7.48102,-10.3845 7.5918,-10.83008 0.0444,-0.17865 -2.7161,-2.28318 -6.13281,-4.67578 -3.41673,-2.39258 -7.19531,-5.04537 -8.39844,-5.89648 z m 123.99609,3.72656 c -3.46686,0.0708 -8.61554,0.27419 -12.9121,0.52344 -5.38344,0.31223 -10.25269,0.49253 -10.82032,0.40039 -1.00651,-0.16333 -7.2739,0.24073 -9.14844,0.58984 -0.7978,0.14858 -0.99313,0.3731 -1.29296,1.49414 -0.21883,0.81812 -0.91644,1.94607 -1.83594,2.9668 l -1.48242,1.64453 0.26367,1.5332 c 0.14506,0.84308 0.26446,4.15377 0.26562,7.35743 0.002,5.46186 -0.0962,7.17494 -0.95703,16.55468 -0.18572,2.02337 -0.29674,5.25341 -0.24609,7.17774 l 0.0918,3.5 0.93554,0.33203 c 2.549,0.90862 4.35364,3.29817 4.64844,6.1543 0.0971,0.94026 0.25902,1.76039 0.36133,1.82226 0.10236,0.0618 1.70383,0.21034 3.55859,0.33008 1.85476,0.11972 4.26924,0.32989 5.36524,0.46875 1.09598,0.13882 4.40666,0.1665 7.35742,0.0605 2.95074,-0.10587 8.05577,-0.20565 11.34375,-0.22266 1.58761,-0.008 3.07457,-0.0482 4.5039,-0.10547 v -0.99805 c -0.60725,0.0242 -1.08943,0.0565 -1.74414,0.0781 -18.45842,0.60971 -24.87939,0.54538 -28.51172,-0.28516 -0.89559,-0.20477 -1.08848,-0.39576 -1.16796,-1.15429 -0.31135,-2.97155 -1.21199,-4.35049 -4.13282,-6.33399 l -1.84375,-1.25195 0.19922,-6.47266 c 0.10974,-3.55934 0.35183,-7.43688 0.53907,-8.61718 0.18721,-1.18031 0.37623,-6.16583 0.41992,-11.08008 l 0.0801,-8.93555 0.94726,-1.18164 c 0.52089,-0.65001 1.2741,-1.80249 1.67383,-2.56055 0.61196,-1.16053 0.91736,-1.41777 1.92969,-1.625 0.66123,-0.13536 5.9621,-0.37518 11.77929,-0.5332 5.81719,-0.15802 12.99066,-0.40968 15.94141,-0.55859 1.25369,-0.0632 2.61135,-0.10414 3.89062,-0.12891 z m -119.94531,2.7168 c 0.768,-1.8e-4 1.69773,0.41713 3.10156,1.25195 2.5972,1.54449 4.42579,3.24068 4.42579,4.10352 0,1.08889 -1.5033,3.7318 -2.77735,4.88281 -1.36865,1.2365 -1.25831,1.21188 -2.85547,0.64258 -1.66647,-0.59402 -1.78171,-0.80109 -1.06836,-1.92774 0.65198,-1.02973 1.0106,-1.21587 1.33594,-0.68945 0.39562,0.64011 1.07624,0.26152 1.82813,-1.02149 0.42865,-0.7314 0.77929,-1.40992 0.77929,-1.50781 0,-0.22621 -2.14684,-1.56392 -2.26953,-1.41406 -0.0503,0.0614 -0.81669,1.24955 -1.70117,2.64063 -0.88448,1.39104 -1.7761,2.52929 -1.98242,2.52929 -0.59527,0 -2.95844,-2.15852 -3.27539,-2.99219 -0.37458,-0.9852 0.73119,-3.47437 2.33008,-5.24414 0.75475,-0.83526 1.3609,-1.25373 2.1289,-1.2539 z m -0.64453,2.81054 c -0.27807,4e-5 -0.50648,0.36334 -1.08594,1.31836 -0.75585,1.24576 -0.7824,1.39056 -0.30664,1.66797 0.77872,0.45411 0.83164,0.42483 1.7461,-0.95703 0.80525,-1.21677 0.8195,-1.29767 0.28906,-1.68555 -0.29072,-0.21257 -0.47574,-0.34377 -0.64258,-0.34375 z m 25.49414,12.88086 c -0.33349,0.0916 -0.33422,1.91876 0,7.99414 0.15034,2.73304 0.32356,3.88753 0.56836,3.80664 0.20417,-0.0674 0.38441,-0.94074 0.42969,-2.08398 0.10851,-2.73729 -0.61917,-9.82085 -0.99805,-9.7168 z m -39.923827,0.0625 c -0.132892,0.11249 -2.279177,14.02392 -2.177734,14.11524 0.05606,0.0505 4.378431,0.43399 9.605471,0.85351 5.22704,0.41952 9.63825,0.73639 9.80273,0.70313 0.36165,-0.073 2.93028,-10.66123 2.6543,-10.94141 -0.1906,-0.19348 -19.748137,-4.84612 -19.884767,-4.73047 z m 34.533207,0.63477 -0.89454,1.04687 c -0.49197,0.57541 -0.82359,1.16154 -0.73632,1.30274 0.42078,0.68084 1.65919,-0.48972 1.64258,-1.55274 z m 12.60937,2.29883 c -0.11883,0 -0.10586,0.79414 0.0293,1.76367 0.13513,0.96954 0.329,2.42726 0.42969,3.23828 0.11699,0.94232 0.3138,1.42749 0.54492,1.3457 0.19895,-0.0704 0.32629,-0.38991 0.2832,-0.70898 -0.0431,-0.31908 -0.1652,-1.54431 -0.27148,-2.72461 -0.18024,-2.0022 -0.49838,-2.91406 -1.01563,-2.91406 z m -12.25,0.91992 c -0.38347,0 -0.65059,1.27691 -0.4375,2.0918 0.20497,0.7839 0.8175,0.73816 0.97461,-0.0723 0.13999,-0.7221 -0.20538,-2.01953 -0.53711,-2.01953 z m -28.3418,0.37305 c 1.14181,-0.0418 2.65246,0.33019 3.21485,0.89257 0.61201,0.61202 0.62367,1.38592 0.0664,4.34961 -0.15949,0.84821 -0.1421,0.8597 1.16797,0.76563 1.30269,-0.0936 1.33329,-0.12177 1.42774,-1.26953 0.08,-0.97155 -0.0109,-1.20077 -0.53516,-1.33789 -0.63057,-0.16491 -0.80107,-0.83385 -0.44726,-1.75586 0.24985,-0.65112 0.98565,-0.60898 2.18945,0.125 0.93135,0.56784 0.99609,0.71908 0.99609,2.30859 0,1.97102 -0.60181,3.63599 -1.48633,4.10938 -1.25511,0.67172 -4.572,0.27322 -5.12109,-0.61524 -0.26041,-0.42137 -0.241,-2.59614 0.0391,-4.34179 0.1832,-1.14171 0.17826,-1.1504 -0.87304,-1.1504 -1.02658,0 -1.06478,0.0421 -1.25391,1.42188 -0.28767,2.09878 -0.2548,2.25781 0.45508,2.25781 0.52334,0 0.61195,0.13316 0.46289,0.68945 -0.10167,0.37938 -0.18702,0.86152 -0.18945,1.07227 -0.006,0.58415 -1.37687,0.45719 -2.19141,-0.20312 -0.64226,-0.52065 -0.72461,-0.84173 -0.72461,-2.84961 0,-2.47907 0.51413,-3.68077 1.83203,-4.28125 0.24996,-0.11389 0.5901,-0.17356 0.9707,-0.1875 z m 77.58789,10.11328 c -0.13053,0.0304 -0.22265,0.17088 -0.22265,0.37109 0,0.26696 0.21934,0.48633 0.48633,0.48633 0.54137,0 0.44735,-0.66014 -0.1211,-0.84961 -0.0501,-0.0167 -0.0991,-0.0178 -0.14258,-0.008 z m -59.49414,0.29492 c -2.71895,0.001 -4.80078,1.45367 -4.80078,3.5293 0,1.27649 0.37238,1.95337 1.37891,2.5039 1.02564,0.56099 2.74144,0.40831 3.85742,-0.34375 0.59533,-0.40118 1.41109,-1.42871 1.91602,-2.41601 1.11106,-2.17253 0.85459,-2.88294 -1.15039,-3.1836 -0.41016,-0.0615 -0.81275,-0.09 -1.20118,-0.0898 z m -0.2871,2.40234 c 0.78077,0 0.85446,0.22925 0.30468,0.94532 -0.49928,0.6503 -1.50888,1.15024 -1.98242,0.98046 -1.04632,-0.37518 0.30455,-1.92578 1.67774,-1.92578 z m 60.78906,2.82422 c -0.10975,0.0171 -0.22256,0.0926 -0.31836,0.24414 -0.15901,0.25151 -0.29065,0.6291 -0.29297,0.83985 -0.007,0.5664 0.81724,0.46645 1.04492,-0.12696 0.20457,-0.53271 -0.10435,-1.00832 -0.43359,-0.95703 z m 24.64844,4.73438 c -0.24356,0.0153 -0.4336,0.13112 -0.4336,0.375 0,0.2506 0.17398,0.52629 0.38477,0.61133 0.78174,0.31541 1.19154,0.18962 1.09179,-0.33399 -0.0803,-0.42154 -0.63705,-0.67781 -1.04296,-0.65234 z m -139.658208,2.93554 c -3.065181,-0.0139 -6.505191,0.0557 -10.535156,0.19141 -12.187049,0.41057 -19.316141,0.92747 -28.357422,2.05664 C 17.101139,275.29985 6.8213812,277.61984 0,280.37109 v 3.39258 c 11.385186,-5.02293 37.234155,-8.83226 63.533203,-9.02929 2.181411,-0.0163 4.365784,-0.009 6.544922,0.0254 11.741707,0.18694 14.776208,0.57961 27.925781,3.61328 2.731154,0.63006 3.733654,0.67533 16.095704,0.72851 10.5358,0.0454 13.95094,0.16252 17.01367,0.58399 9.75447,1.34232 16.27878,3.44514 17.9082,5.77148 3.12915,4.46746 -7.97478,11.76025 -25.31445,16.625 -7.32005,2.05368 -11.19001,2.49025 -26.162108,2.94727 -12.460759,0.38036 -12.432709,0.37447 -29.431641,4.86132 -7.665475,2.02332 -11.593001,2.891 -16.095703,3.55079 -8.344925,1.22278 -14.839884,0.65231 -18.408203,-1.61524 -1.72714,-1.09754 -2.838107,-2.50103 -4.767578,-6.01953 -1.953175,-3.56174 -4.511545,-6.31843 -6.976563,-7.51953 -2.038229,-0.99314 -2.152201,-1.02416 -12.6132809,-3.39453 C 5.2065642,293.97593 2.3132418,293.19069 0,292.44531 v 3.75196 c 3.031815,0.89301 7.1048234,1.89119 12.761719,3.17382 3.288316,0.74559 6.700674,1.70847 7.583984,2.14063 2.048739,1.00235 3.517254,2.68142 5.621094,6.43164 3.375338,6.01674 6.594471,8.34039 12.902344,9.31445 2.842382,0.43892 10.576103,0.14292 14.835937,-0.56836 5.254976,-0.87744 8.419508,-1.60053 17.78125,-4.0625 13.288944,-3.49476 11.989747,-3.30135 25.373047,-3.77148 12.217685,-0.42918 13.035075,-0.4831 18.773435,-1.26172 7.02739,-0.95353 18.73764,-4.63601 25.3711,-7.97656 6.88024,-3.46484 11.26547,-7.82872 11.78906,-11.73242 0.64588,-4.81542 -5.57676,-8.61607 -17.08008,-10.4336 -7.92638,-1.25234 -14.92794,-1.57409 -28.20508,-1.29297 -5.66802,0.12001 -6.54062,0.005 -14.714841,-1.95703 -8.31672,-1.99631 -14.146254,-2.78837 -23.341797,-2.83008 z m 137.416018,1.16016 c 0,-0.0576 -0.10474,0.0285 -0.14063,0.0645 -0.10503,0.10503 -0.0374,0.37724 0.15039,0.60352 0.40101,0.48317 0.77218,0.52569 1.02344,0.11914 0.18169,-0.29398 -1.0332,-0.38385 -1.0332,-0.78711 z m -143.880862,3.50391 c -0.07953,-0.0795 -2.587161,0.70544 -5.572266,1.74414 -3.982479,1.38576 -5.38381,2.00063 -5.265624,2.30859 0.08858,0.23084 1.155779,4.00343 2.371093,8.38477 1.215315,4.38133 2.357204,7.96679 2.53711,7.96679 0.291647,0 11.551184,-3.66776 11.751953,-3.82812 0.101091,-0.0808 -5.622745,-16.37665 -5.822266,-16.57617 z m 31.457031,2.85742 c -0.08713,-0.007 -0.138508,-0.004 -0.15039,0.01 -0.228582,0.26263 -5.179688,15.77108 -5.179688,16.22461 0,0.17836 1.070189,0.60954 2.376953,0.95703 1.306757,0.3475 3.893293,1.04285 5.748047,1.54493 1.854758,0.50206 3.530649,0.92187 3.724609,0.93359 0.39071,0.0241 4.64256,-16.69729 4.32617,-17.01367 -0.32608,-0.32607 -9.538701,-2.55855 -10.845701,-2.65625 z m -33.111328,2.86133 c 0.622933,0.0364 1.08102,0.37499 1.580078,1.02929 0.912688,1.19659 0.839766,1.50224 -0.464843,1.95703 -0.740962,0.25829 -0.966007,0.22861 -1.183594,-0.16015 -0.230007,-0.41095 -0.432345,-0.42692 -1.40625,-0.10547 -0.625705,0.2065 -1.206279,0.55647 -1.291016,0.77734 -0.08476,0.22089 0.408544,1.74801 1.095703,3.39258 0.68716,1.64456 1.214471,3.01677 1.171875,3.05078 -0.0426,0.0338 -0.379733,0.21869 -0.748046,0.41016 -1.097058,0.57028 -0.763225,1.08398 -3.3125,-5.10547 -1.166692,-2.83263 -1.184004,-3.35242 -0.119141,-3.56445 0.232807,-0.0464 1.181996,-0.44838 2.109375,-0.89453 1.158603,-0.5574 1.945426,-0.82353 2.568359,-0.78711 z m 34.396485,2.46093 c 0.109305,0.0194 0.22797,0.057 0.359375,0.10938 0.295075,0.11769 1.201399,0.2642 2.013671,0.32422 0.812274,0.0601 1.916488,0.3634 2.453128,0.67578 0.85403,0.49712 0.98705,0.75281 1.07031,2.05078 l 0.0957,1.48438 -0.97656,-0.19532 c -0.5371,-0.10737 -1.106733,-0.19531 -1.265624,-0.19531 -0.158854,0 -0.206206,-0.2662 -0.103516,-0.58984 0.195213,-0.61505 0.03402,-0.70786 -1.878906,-1.0918 -1.076602,-0.21609 -0.956725,-0.50043 -1.960938,4.67773 -0.20516,1.05796 -0.456836,1.96782 -0.560547,2.02149 -0.103717,0.0537 -0.533547,0.005 -0.955078,-0.10742 -0.903416,-0.24007 -0.905333,-0.20549 0.06055,-5.33008 0.601123,-3.1894 0.883299,-3.96948 1.648438,-3.83399 z m -11.964844,1.92578 c -0.113832,-0.009 -0.254773,0.004 -0.435547,0.0332 -0.442983,0.0708 -3.255145,0.21669 -6.248047,0.32422 l -5.441406,0.19726 v 8.24414 c 0,6.3803 0.08623,8.24781 0.382812,8.26367 0.210766,0.0113 2.797302,0.27087 5.748047,0.57618 2.950749,0.30529 5.677256,0.57296 6.056641,0.59375 l 0.689453,0.0371 -0.0039,-8.04883 c -0.0019,-4.42613 -0.08826,-8.5577 -0.191407,-9.18164 -0.126288,-0.76391 -0.215145,-1.0112 -0.55664,-1.03907 z m -46.001953,1.46876 c -0.07767,0.0857 -5.254788,16.26439 -6.125,19.14062 l -0.382813,1.26758 7.392578,2.31836 c 6.872429,2.15528 8.466797,2.57191 8.466797,2.21094 0,-0.0776 1.256455,-4.45846 2.792969,-9.73438 1.536514,-5.27591 2.812882,-9.71124 2.835938,-9.85547 0.03976,-0.24741 -14.801289,-5.54529 -14.980469,-5.34765 z m 37.722656,0.24609 h 1.060547 v 3.2832 3.28516 l 1.466797,-1.44531 c 1.247599,-1.22884 1.645302,-1.44532 2.671875,-1.44532 h 1.207031 l -1.960937,1.98047 -1.962891,1.97852 1.744141,2.61914 1.742187,2.61914 h -0.863281 c -0.707872,0 -1.126032,-0.36 -2.335938,-2.00781 -1.413577,-1.92519 -1.499048,-1.98546 -2.052734,-1.48438 -0.39679,0.35911 -0.576172,0.93821 -0.576172,1.85352 0,1.26783 -0.04365,1.33203 -0.896484,1.33203 h -0.896485 l 0.144531,-5.28711 c 0.199745,-7.28712 0.198634,-7.28125 1.507813,-7.28125 z m -35.322266,2.73242 c 0.458913,-0.004 1.534939,0.30745 3.492188,0.99414 1.987196,0.6972 3.916262,1.46484 4.287109,1.70703 2.038262,1.33114 1.276976,5.86 -1.347656,8.02344 -0.896829,0.73923 -1.062773,1.02316 -0.771484,1.31445 0.51685,0.51684 0.465393,3.16405 -0.08203,4.22266 -0.24955,0.48258 -0.819938,1.16548 -1.267578,1.51758 -1.167825,0.91862 -2.528609,0.78716 -6.390625,-0.61719 -1.848021,-0.672 -3.403777,-1.26507 -3.457031,-1.31836 -0.07233,-0.0723 4.341466,-13.24509 5.273438,-15.73828 0.02565,-0.0686 0.110701,-0.10429 0.263671,-0.10547 z m 3.460938,3.05273 c -0.581747,0.0652 -0.985797,0.78317 -1.548828,2.36915 -0.454844,1.28124 -0.784063,2.3619 -0.730469,2.40234 0.05361,0.0404 0.649762,0.29496 1.324219,0.56641 0.674456,0.27145 1.314612,0.50182 1.421875,0.50976 0.359713,0.0292 1.272987,-2.24483 1.417968,-3.53125 0.12138,-1.07688 0.03177,-1.35094 -0.574218,-1.77539 -0.549304,-0.38475 -0.961499,-0.5801 -1.310547,-0.54102 z m 88.054683,1.11719 c -0.61371,0.0177 -1.49707,0.3134 -2.74218,0.88867 -6.06136,2.80052 -15.90454,4.47071 -26.33789,4.47071 -3.644187,0 -3.984978,0.0487 -4.287113,0.61328 -0.23641,0.44142 -0.229265,0.79737 0.02344,1.26953 0.347483,0.6493 0.422192,0.65394 7.445313,0.47656 9.31207,-0.23517 14.21379,-0.94988 20.68554,-3.01758 4.92966,-1.57502 6.73144,-2.69001 6.33985,-3.92382 -0.16967,-0.53457 -0.51324,-0.795 -1.12696,-0.77735 z m -91.777339,5.8418 c -0.165092,0.008 -0.259429,0.08 -0.310547,0.21875 -0.07541,0.20466 -0.471382,1.36529 -0.88086,2.57812 l -0.74414,2.20508 0.818359,0.29883 c 1.862389,0.68196 2.202261,0.43066 2.962891,-2.19531 0.579934,-2.00212 0.428314,-2.40613 -1.101563,-2.93946 -0.341431,-0.11902 -0.579049,-0.1743 -0.74414,-0.16601 z"
       transform="scale(0.26458333)"
       inkscape:label="graphic"
       sodipodi:nodetypes="cccsssccsccccssssssssccccsscscccssccssssssscsscsssscsssccsscccssscsccscccssccsssccsssscccssssssssscscccsssssscsccccssssssscsssssssscsssscsssscsscccccccscssccccssscccsscccscsscccccsscccscccssscccssssssssssssscsssssssssccsssscssccsccsssssssssssscsscsssssssssssscssscccsssccssssssssssssssccssssssscsccscscssssssssssccsssssssssssscsscsssssssssssccssscsccssssssscssssssccscccssssscsssscccssscccssssccssscssccccscccccsssssccssssssssssssscssscsscssscssssscscccssc" />
    <path
       id="path5792"
       d="m 8.8273682,54.182222 v 0.745175 H 8.4031047 v 0.274402 h 0.4242635 v 1.807124 H 9.1394938 V 55.201799 H 9.6185343 V 54.927397 H 9.1394938 v -0.745175 z m 2.0355348,0.711585 c -0.210914,0 -0.39391,0.0486 -0.549321,0.145728 -0.15541,0.09436 -0.274862,0.22332 -0.3581173,0.387056 -0.083255,0.16096 -0.1245402,0.341756 -0.1245402,0.541569 0,0.197038 0.041285,0.377316 0.1245402,0.541052 0.083255,0.163736 0.2027073,0.294059 0.3581173,0.391191 0.155411,0.09436 0.338407,0.141593 0.549321,0.141593 0.213689,0 0.397202,-0.04724 0.549837,-0.141593 0.155411,-0.09713 0.274346,-0.227455 0.357601,-0.391191 0.08325,-0.163736 0.125057,-0.344014 0.125057,-0.541052 0,-0.199813 -0.0418,-0.380609 -0.125057,-0.541569 -0.08325,-0.163736 -0.20219,-0.2927 -0.357601,-0.387056 -0.152635,-0.09713 -0.336148,-0.145728 -0.549837,-0.145728 z m 2.447912,0 c -0.169286,0 -0.30828,0.03501 -0.416512,0.104386 -0.108232,0.06938 -0.199472,0.153825 -0.274401,0.253732 v -0.324528 h -0.312126 v 2.081526 l 0.312126,-5.16e-4 V 55.81003 c 0,-0.124883 0.02769,-0.234823 0.0832,-0.329179 0.05828,-0.09713 0.13457,-0.172066 0.228926,-0.224792 0.09436,-0.05273 0.199703,-0.07906 0.31626,-0.07906 0.172062,0 0.312414,0.05811 0.420646,0.174666 0.108233,0.113783 0.162264,0.265007 0.162264,0.453719 v 1.203544 h 0.312126 v -1.211812 c 0,-0.197038 -0.04044,-0.361851 -0.120923,-0.49506 -0.0777,-0.135982 -0.180333,-0.237251 -0.307992,-0.303858 -0.124883,-0.06938 -0.259283,-0.104386 -0.403593,-0.104386 z m 2.256193,0 c -0.210914,0 -0.39391,0.0486 -0.54932,0.145728 -0.155411,0.09436 -0.274862,0.22332 -0.358118,0.387056 -0.08326,0.16096 -0.125057,0.341756 -0.125057,0.541569 0,0.197038 0.04316,0.377316 0.129191,0.541052 0.08881,0.163736 0.212335,0.294059 0.37052,0.391191 0.158186,0.09436 0.342541,0.141593 0.553455,0.141593 0.246992,0 0.44817,-0.05811 0.603581,-0.174666 0.158185,-0.119333 0.273561,-0.271916 0.345715,-0.457853 h -0.341581 c -0.0555,0.102679 -0.133154,0.187124 -0.233061,0.253731 -0.09991,0.06383 -0.223435,0.0956 -0.37052,0.0956 -0.138759,0 -0.260412,-0.02905 -0.365869,-0.08733 -0.10546,-0.06105 -0.190421,-0.141422 -0.254248,-0.241329 -0.06105,-0.102682 -0.09962,-0.215338 -0.116272,-0.337447 h 1.74408 v -0.12454 c 0,-0.199813 -0.0418,-0.380609 -0.125057,-0.541569 -0.08326,-0.163736 -0.202708,-0.2927 -0.358118,-0.387056 -0.152635,-0.09713 -0.335631,-0.145728 -0.549321,-0.145728 z m -4.704105,0.283187 c 0.15541,0 0.286251,0.03637 0.391707,0.10852 0.108236,0.07216 0.189963,0.167471 0.245463,0.286805 0.05551,0.119332 0.0832,0.251531 0.0832,0.395841 0,0.141535 -0.02769,0.273217 -0.0832,0.395325 -0.0555,0.119333 -0.13723,0.215166 -0.245463,0.287321 -0.105456,0.07215 -0.236297,0.108003 -0.391707,0.108003 -0.152635,0 -0.282959,-0.03585 -0.391191,-0.108003 -0.108236,-0.07216 -0.189963,-0.167988 -0.245463,-0.287321 -0.05551,-0.122108 -0.0832,-0.25379 -0.0832,-0.395325 0,-0.14431 0.02769,-0.276509 0.0832,-0.395841 0.0555,-0.119334 0.137231,-0.21465 0.245463,-0.286805 0.108232,-0.07215 0.238556,-0.10852 0.391191,-0.10852 z m 4.704105,0 c 0.199814,0 0.361067,0.05947 0.483175,0.1788 0.122107,0.119333 0.197039,0.267839 0.224793,0.445451 h -1.415418 c 0.03053,-0.177612 0.10546,-0.326118 0.224793,-0.445451 0.122107,-0.119332 0.282844,-0.1788 0.482657,-0.1788 z"
       style="font-size:4.16278px;line-height:1.25;font-family:Questrial;-inkscape-font-specification:'Questrial, Normal';letter-spacing:0px;word-spacing:0px;fill:none;stroke-width:0.1;stroke:#000000;stroke-opacity:1;stroke-dasharray:none" />
    <path
       id="path5801"
       d="m 46.849337,24.056413 v 1.169437 c -0.07771,-0.11378 -0.178974,-0.203661 -0.303858,-0.270267 -0.122108,-0.06661 -0.269255,-0.100253 -0.441316,-0.100253 -0.202589,0 -0.38015,0.0486 -0.532784,0.145728 -0.149861,0.09436 -0.266595,0.223321 -0.34985,0.387056 -0.08325,0.160962 -0.125057,0.341756 -0.125057,0.541569 0,0.197038 0.0418,0.377317 0.125057,0.541053 0.08326,0.163736 0.199989,0.294059 0.34985,0.39119 0.152634,0.09436 0.330195,0.141594 0.532784,0.141594 0.172061,0 0.319208,-0.03313 0.441316,-0.09974 0.124884,-0.0666 0.226152,-0.155642 0.303858,-0.26665 v 0.333313 h 0.312125 v -2.914034 z m 2.276863,0.07493 v 0.407727 h 0.337447 v -0.407727 z m -0.345715,0.723986 c -0.127659,0 -0.23844,0.02226 -0.332796,0.06666 -0.09158,0.04163 -0.167874,0.09294 -0.228927,0.153996 -0.06106,0.06105 -0.108293,0.122398 -0.141593,0.183451 -0.03053,0.05828 -0.05143,0.105514 -0.06253,0.141594 v -0.51211 h -0.312125 v 2.081527 h 0.312125 v -0.916223 c 0,-0.152636 0.02905,-0.295189 0.08733,-0.428398 0.06105,-0.135984 0.147375,-0.245923 0.258383,-0.329179 0.113782,-0.08603 0.248182,-0.128674 0.403593,-0.128674 h 0.03772 V 24.85533 Z m 4.108793,0 c -0.210914,0 -0.39391,0.0486 -0.54932,0.145728 -0.155411,0.09436 -0.274863,0.223321 -0.358118,0.387056 -0.08326,0.160962 -0.125057,0.341756 -0.125057,0.541569 0,0.197038 0.04316,0.377317 0.129191,0.541053 0.08881,0.163736 0.212335,0.294059 0.37052,0.39119 0.158185,0.09436 0.34254,0.141594 0.553455,0.141594 0.246991,0 0.448687,-0.05811 0.604097,-0.174667 0.158185,-0.119332 0.273044,-0.271915 0.345199,-0.457853 H 53.51818 c -0.0555,0.10268 -0.133671,0.187125 -0.233577,0.253731 -0.09991,0.06383 -0.222919,0.0956 -0.370003,0.0956 -0.13876,0 -0.260929,-0.02905 -0.366386,-0.08733 -0.10546,-0.06105 -0.190422,-0.141423 -0.254248,-0.241329 -0.06105,-0.102681 -0.09962,-0.215339 -0.116272,-0.337447 h 1.744079 v -0.124541 c 0,-0.199813 -0.0418,-0.380607 -0.125057,-0.541569 -0.08326,-0.163735 -0.202191,-0.2927 -0.357601,-0.387056 -0.152635,-0.09713 -0.336148,-0.145728 -0.549837,-0.145728 z m -3.750675,0.03359 v 2.081527 h 0.312125 V 24.88892 Z m 0.60358,0 0.815971,2.081527 h 0.366386 l 0.811837,-2.081527 h -0.341581 l -0.65319,1.748214 -0.657841,-1.748214 z m -3.596679,0.249597 c 0.15541,0 0.286251,0.03637 0.391707,0.108521 0.108236,0.07215 0.189963,0.167471 0.245463,0.286804 0.05551,0.119333 0.0832,0.251532 0.0832,0.395841 0,0.141535 -0.02769,0.273217 -0.0832,0.395325 -0.0555,0.119333 -0.13723,0.215166 -0.245463,0.287321 -0.105456,0.07216 -0.236297,0.108004 -0.391707,0.108004 -0.152635,0 -0.284318,-0.03585 -0.395325,-0.108004 -0.111006,-0.07215 -0.195451,-0.167988 -0.253731,-0.287321 -0.05828,-0.122108 -0.08733,-0.25379 -0.08733,-0.395325 0,-0.144309 0.02905,-0.276508 0.08733,-0.395841 0.05828,-0.119333 0.142724,-0.21465 0.253731,-0.286804 0.111007,-0.07215 0.24269,-0.108521 0.395325,-0.108521 z m 6.743774,0 c 0.199813,0 0.361067,0.05947 0.483175,0.178801 0.122106,0.119333 0.197039,0.267839 0.224792,0.445451 h -1.415417 c 0.03053,-0.177612 0.10546,-0.326118 0.224792,-0.445451 0.122109,-0.119333 0.282845,-0.178801 0.482658,-0.178801 z"
       style="font-size:4.16278px;line-height:1.25;font-family:Questrial;-inkscape-font-specification:'Questrial, Normal';letter-spacing:0px;word-spacing:0px;fill:none;stroke-width:0.1;stroke:#000000;stroke-opacity:1;stroke-dasharray:none" />
    <path
       id="path5852"
       d="m 30.387809,3.2726685 c -0.06766,0.00193 -0.13026,0.018225 -0.187585,0.049093 -0.06115,0.032926 -0.109791,0.078288 -0.146245,0.135909 -0.03645,0.056444 -0.05478,0.121396 -0.05478,0.1943034 0,0.074083 0.01743,0.1397833 0.05271,0.1974039 0.03528,0.056444 0.08317,0.100916 0.143144,0.133842 0.06115,0.03175 0.128114,0.048059 0.201021,0.048059 0.06585,0 0.125741,-0.015418 0.179834,-0.045992 0.05527,-0.03175 0.09684,-0.071677 0.125057,-0.1198894 0,0.088194 -0.01073,0.1680472 -0.03307,0.2397787 -0.02117,0.071732 -0.05491,0.1287157 -0.10077,0.171049 -0.04468,0.042333 -0.103309,0.063562 -0.176216,0.063562 -0.04351,0 -0.07978,-0.00745 -0.108004,-0.022738 -0.02823,-0.016463 -0.0502,-0.036943 -0.06666,-0.060461 -0.01529,-0.024694 -0.02742,-0.049203 -0.03566,-0.073897 H 30.03279 c 0.01058,0.045861 0.02928,0.091224 0.05633,0.135909 0.02822,0.043509 0.06689,0.079265 0.116272,0.107487 0.04939,0.028222 0.111436,0.042375 0.185519,0.042375 0.14699,0 0.257163,-0.053705 0.331246,-0.1607137 0.07408,-0.1070092 0.111104,-0.2525623 0.111104,-0.4371826 0,-0.1916759 -0.03613,-0.3393856 -0.109037,-0.442867 -0.07291,-0.1034815 -0.180691,-0.1550293 -0.322978,-0.1550293 -0.0046,0 -0.0089,-1.287e-4 -0.01344,0 z m 0.526583,0.013953 0.472839,1.1678874 h 0.151929 l 0.472323,-1.1678874 h -0.144177 l -0.40411,1.0180257 -0.40411,-1.0180257 z m -0.522449,0.1147217 c 0.0031,-8.27e-5 0.0062,0 0.0093,0 0.05057,0 0.09593,0.011247 0.135909,0.03359 0.04115,0.021167 0.07363,0.051112 0.09715,0.089917 0.02469,0.038806 0.03669,0.084168 0.03669,0.1359091 0,0.048212 -0.012,0.091044 -0.03669,0.1286743 -0.02351,0.036454 -0.05599,0.065133 -0.09715,0.0863 -0.04116,0.019991 -0.08652,0.029972 -0.135909,0.029972 -0.04939,-5e-7 -0.09475,-0.011247 -0.135909,-0.03359 -0.03998,-0.022343 -0.07194,-0.052288 -0.09664,-0.089917 -0.02469,-0.038806 -0.03721,-0.082012 -0.03721,-0.1302246 0,-0.049389 0.01251,-0.093111 0.03721,-0.1307414 0.02469,-0.037629 0.05666,-0.0672 0.09664,-0.088367 0.03859,-0.019844 0.08079,-0.030282 0.126607,-0.031523 z"
       style="font-size:1.76389px;line-height:1.25;font-family:Questrial;-inkscape-font-specification:'Questrial, Normal';letter-spacing:0px;word-spacing:0px;fill:none;stroke-width:0.1;stroke:#000000;stroke-opacity:1;stroke-dasharray:none" />
    <path
       id="path5812"
       d="m 10.439673,24.056413 v 2.914034 h 0.312126 V 24.056413 Z M 8.9947998,24.85533 c -0.2109139,0 -0.3939102,0.0486 -0.5493205,0.145728 -0.1554103,0.09436 -0.2748622,0.223321 -0.3581176,0.387056 -0.083256,0.160962 -0.1245402,0.341756 -0.1245402,0.541569 0,0.197038 0.041285,0.377317 0.1245402,0.541053 0.083255,0.163736 0.2027073,0.294059 0.3581176,0.39119 0.1554103,0.09436 0.3384066,0.141594 0.5493205,0.141594 0.2136892,0 0.3972021,-0.04724 0.5498372,-0.141594 0.1554104,-0.09713 0.2743455,-0.227454 0.357601,-0.39119 0.083255,-0.163736 0.125057,-0.344015 0.125057,-0.541053 0,-0.199813 -0.041802,-0.380607 -0.125057,-0.541569 C 9.8189825,25.224379 9.7000474,25.095414 9.544637,25.001058 9.3920019,24.903927 9.208489,24.85533 8.9947998,24.85533 Z m 5.5991412,0 c -0.169286,0 -0.305045,0.03773 -0.407727,0.112655 -0.10268,0.07493 -0.177612,0.15394 -0.224792,0.237195 v -0.31626 h -0.312643 v 2.081527 h 0.312643 v -1.244885 c 0,-0.185938 0.05539,-0.330368 0.166398,-0.433049 0.111007,-0.102682 0.242689,-0.153996 0.395325,-0.153996 0.147084,0 0.269254,0.05403 0.366385,0.162264 0.09991,0.105457 0.149862,0.24581 0.149862,0.420646 v 1.24902 h 0.312126 v -1.244885 c 0,-0.185938 0.05539,-0.330368 0.166398,-0.433049 0.111007,-0.102682 0.243206,-0.153996 0.395841,-0.153996 0.147085,0 0.268738,0.05403 0.365869,0.162264 0.09991,0.105457 0.149862,0.24581 0.149862,0.420646 v 1.24902 h 0.312643 v -1.257288 c 0,-0.174836 -0.03773,-0.32606 -0.112655,-0.453719 -0.07215,-0.130433 -0.166629,-0.230343 -0.283187,-0.299723 -0.116558,-0.06938 -0.241446,-0.104387 -0.374654,-0.104387 -0.135984,0 -0.252202,0.02498 -0.349333,0.07493 -0.09713,0.04995 -0.176141,0.108577 -0.237195,0.175183 -0.05828,0.0666 -0.101437,0.123353 -0.129191,0.170533 -0.0666,-0.133209 -0.15972,-0.235837 -0.279052,-0.307992 C 14.860306,24.893055 14.7327,24.85533 14.593941,24.85533 Z m 3.571875,0 c -0.210914,0 -0.394426,0.0486 -0.549837,0.145728 -0.155411,0.09436 -0.274862,0.223321 -0.358118,0.387056 -0.08326,0.160962 -0.12454,0.341756 -0.12454,0.541569 0,0.197038 0.04316,0.377317 0.129191,0.541053 0.08881,0.163736 0.211818,0.294059 0.370003,0.39119 0.158186,0.09436 0.343057,0.141594 0.553972,0.141594 0.246991,0 0.44817,-0.05811 0.603581,-0.174667 0.158185,-0.119332 0.27356,-0.271915 0.345715,-0.457853 h -0.341581 c -0.0555,0.10268 -0.133154,0.187125 -0.233061,0.253731 -0.09991,0.06383 -0.223435,0.0956 -0.37052,0.0956 -0.138759,0 -0.260929,-0.02905 -0.366386,-0.08733 -0.10546,-0.06105 -0.189905,-0.141423 -0.253731,-0.241329 -0.06105,-0.102681 -0.100136,-0.215339 -0.116789,-0.337447 h 1.74408 v -0.124541 c 0,-0.199813 -0.04128,-0.380607 -0.124541,-0.541569 -0.08326,-0.163735 -0.202707,-0.2927 -0.358117,-0.387056 -0.152635,-0.09713 -0.335632,-0.145728 -0.549321,-0.145728 z m -12.3594521,0.03359 0.8159709,2.081527 h 0.3663859 l 0.81132,-2.081527 H 7.4589762 L 6.8052694,26.637134 6.1474284,24.88892 Z m 5.4658161,0 v 1.211296 c 0,0.197037 0.03857,0.363727 0.116272,0.499711 0.08048,0.133209 0.184467,0.234478 0.312126,0.303857 0.127658,0.06661 0.262576,0.09974 0.404109,0.09974 0.169287,0 0.307764,-0.03449 0.415996,-0.10387 0.108232,-0.06938 0.199988,-0.154341 0.274918,-0.254248 v 0.325045 h 0.312126 V 24.88892 h -0.312126 v 1.198893 c 0,0.124884 -0.02905,0.234307 -0.08733,0.328662 -0.0555,0.09436 -0.130436,0.169293 -0.224792,0.224793 -0.09436,0.05273 -0.199702,0.07906 -0.31626,0.07906 -0.169286,0 -0.309638,-0.05675 -0.420646,-0.170532 -0.108232,-0.116558 -0.162264,-0.269141 -0.162264,-0.457854 V 24.88892 Z m -2.2773802,0.249597 c 0.1554103,0 0.2862503,0.03637 0.3917074,0.108521 0.1082319,0.07215 0.1899591,0.167471 0.245463,0.286804 0.055504,0.119333 0.083199,0.251532 0.083199,0.395841 0,0.141535 -0.027695,0.273217 -0.083199,0.395325 -0.055504,0.119333 -0.1372309,0.215166 -0.245463,0.287321 -0.1054571,0.07216 -0.2362971,0.108004 -0.3917074,0.108004 -0.152635,0 -0.2829584,-0.03585 -0.3911906,-0.108004 -0.1082319,-0.07215 -0.1899591,-0.167988 -0.245463,-0.287321 -0.055504,-0.122108 -0.083199,-0.25379 -0.083199,-0.395325 0,-0.144309 0.027695,-0.276508 0.083199,-0.395841 0.055504,-0.119333 0.1372309,-0.21465 0.245463,-0.286804 0.1082322,-0.07215 0.2385556,-0.108521 0.3911906,-0.108521 z m 9.1710162,0 c 0.199813,0 0.36055,0.05947 0.482658,0.178801 0.122107,0.119333 0.197039,0.267839 0.224793,0.445451 h -1.415418 c 0.03053,-0.177612 0.10546,-0.326118 0.224793,-0.445451 0.122108,-0.119333 0.283361,-0.178801 0.483174,-0.178801 z"
       style="font-size:4.16278px;line-height:1.25;font-family:Questrial;-inkscape-font-specification:'Questrial, Normal';letter-spacing:0px;word-spacing:0px;fill:none;stroke-width:0.1;stroke:#000000;stroke-opacity:1;stroke-dasharray:none" />
    <path
       id="path5825"
       d="m 53.058777,30.353703 c -0.09583,0.0031 -0.171854,0.02983 -0.22841,0.0801 -0.06256,0.05362 -0.110664,0.122838 -0.144177,0.20774 -0.03351,0.0849 -0.05913,0.175744 -0.077,0.271818 -0.02011,0.09384 -0.04035,0.183299 -0.06046,0.2682 -0.02235,0.0849 -0.05159,0.15412 -0.08733,0.20774 -0.03575,0.05362 -0.08697,0.0801 -0.153995,0.0801 -0.160867,0 -0.241329,-0.132549 -0.241329,-0.398425 0,-0.140758 0.02561,-0.241464 0.077,-0.301791 0.05139,-0.06256 0.112989,-0.09855 0.184485,-0.107487 v -0.254764 c -0.08267,0.0089 -0.160014,0.03818 -0.23151,0.08733 -0.07149,0.04692 -0.129463,0.117518 -0.17415,0.211356 -0.04692,0.09161 -0.07028,0.211174 -0.07028,0.358635 0,0.216723 0.04222,0.380764 0.127124,0.492476 0.08267,0.109479 0.199988,0.164331 0.351917,0.164331 0.102774,0 0.18462,-0.02699 0.244946,-0.08061 0.05809,-0.05362 0.103946,-0.122838 0.13746,-0.207739 0.03128,-0.0849 0.05689,-0.174362 0.077,-0.268201 0.02011,-0.09607 0.04122,-0.186399 0.06356,-0.271301 0.02011,-0.0849 0.04935,-0.15412 0.08733,-0.20774 0.03798,-0.05362 0.09145,-0.08062 0.160713,-0.08062 0.05586,0 0.101713,0.01575 0.13746,0.04703 0.03575,0.03128 0.06222,0.07038 0.0801,0.117305 0.01787,0.04469 0.03051,0.09141 0.03721,0.14056 0.0067,0.04915 0.0098,0.09051 0.0098,0.124024 0,0.107244 -0.01575,0.194454 -0.04703,0.261482 -0.03352,0.06703 -0.07574,0.117382 -0.127124,0.150896 -0.05362,0.03128 -0.108478,0.05014 -0.164331,0.05684 v 0.261482 c 0.09831,-0.0067 0.190017,-0.0382 0.274919,-0.09405 0.08267,-0.05586 0.149634,-0.136318 0.201021,-0.241329 0.05139,-0.107244 0.077,-0.237543 0.077,-0.391707 0,-0.207786 -0.04222,-0.37321 -0.127124,-0.496094 -0.08714,-0.125118 -0.212587,-0.187585 -0.375688,-0.187585 -0.0066,0 -0.01273,-2.1e-4 -0.01912,0 z m -1.850533,1.729093 v 0.251148 h 0.941544 c -0.09161,0.06256 -0.163937,0.144404 -0.217557,0.244946 -0.05362,0.09831 -0.08062,0.216493 -0.08062,0.355017 0,0.163101 0.03911,0.30603 0.117306,0.428914 0.07596,0.12065 0.179788,0.214609 0.311609,0.281637 0.129587,0.06703 0.274766,0.100769 0.435632,0.100769 0.158633,0 0.303811,-0.03374 0.435632,-0.100769 0.131822,-0.06703 0.237028,-0.160987 0.315227,-0.281637 0.07596,-0.122884 0.113688,-0.265813 0.113688,-0.428914 0,-0.138524 -0.02648,-0.25671 -0.0801,-0.355017 -0.05362,-0.100541 -0.125086,-0.182386 -0.214457,-0.244946 h 0.267684 v -0.251148 z m 1.486214,0.238229 c 0.0072,-1.75e-4 0.01444,0 0.0217,0 0.113947,0 0.22002,0.02198 0.318327,0.06666 0.09607,0.04469 0.173417,0.110785 0.23151,0.197921 0.05809,0.0849 0.08682,0.190108 0.08682,0.315226 0,0.122885 -0.02872,0.228957 -0.08682,0.318327 -0.05809,0.08937 -0.135437,0.157202 -0.23151,0.204122 -0.09831,0.04692 -0.20438,0.07028 -0.318327,0.07028 -0.116181,0 -0.222253,-0.02336 -0.318327,-0.07028 -0.09607,-0.04692 -0.173417,-0.114751 -0.23151,-0.204122 -0.05809,-0.08937 -0.08682,-0.195442 -0.08682,-0.318327 0,-0.125118 0.02872,-0.230324 0.08682,-0.315226 0.05809,-0.08714 0.135437,-0.153234 0.23151,-0.197921 0.09007,-0.04189 0.188881,-0.06404 0.296623,-0.06666 z"
       style="font-size:3.35139px;line-height:1.25;font-family:Questrial;-inkscape-font-specification:'Questrial, Normal';letter-spacing:0px;word-spacing:0px;fill:none;stroke-width:0.1;stroke:#000000;stroke-opacity:1;stroke-dasharray:none" />
    <path
       id="path5830"
       d="m 49.892562,30.443103 c -0.105009,0 -0.18772,0.02699 -0.248047,0.08061 -0.06256,0.05362 -0.110664,0.122838 -0.144177,0.20774 -0.03351,0.0849 -0.05913,0.175228 -0.077,0.271301 -0.02011,0.09384 -0.04036,0.183299 -0.06046,0.2682 -0.02235,0.0849 -0.05107,0.15412 -0.08682,0.20774 -0.03575,0.05362 -0.08749,0.08062 -0.154513,0.08062 -0.160866,0 -0.241328,-0.133066 -0.241328,-0.398942 0,-0.140757 0.02561,-0.240947 0.077,-0.301274 0.05139,-0.06256 0.112989,-0.09855 0.184485,-0.107487 v -0.254764 c -0.08267,0.0089 -0.159497,0.03818 -0.230993,0.08733 -0.0715,0.04692 -0.12998,0.117001 -0.174667,0.21084 -0.04692,0.0916 -0.07028,0.211173 -0.07028,0.358634 0,0.216723 0.04274,0.381281 0.127641,0.492993 0.08267,0.109479 0.199987,0.163814 0.351917,0.163814 0.102774,0 0.184103,-0.02648 0.244429,-0.0801 0.05809,-0.05362 0.103946,-0.122837 0.137459,-0.207739 0.03128,-0.0849 0.05689,-0.174362 0.077,-0.268201 0.02011,-0.09607 0.04122,-0.186399 0.06356,-0.271301 0.02011,-0.0849 0.04935,-0.154636 0.08733,-0.208256 0.03798,-0.05362 0.09145,-0.0801 0.160713,-0.0801 0.05586,0 0.101713,0.01575 0.13746,0.04703 0.03575,0.03128 0.06274,0.07038 0.08062,0.117305 0.01787,0.04469 0.02999,0.09141 0.03669,0.14056 0.0067,0.04915 0.01034,0.09051 0.01034,0.124024 0,0.107244 -0.01575,0.194454 -0.04703,0.261482 -0.03352,0.06703 -0.07625,0.117382 -0.127641,0.150896 -0.05363,0.03128 -0.107961,0.05014 -0.163814,0.05684 v 0.261482 c 0.09831,-0.0067 0.1895,-0.0382 0.274402,-0.09405 0.08267,-0.05586 0.149634,-0.136319 0.201021,-0.241329 0.05139,-0.107244 0.07751,-0.23806 0.07751,-0.392224 0,-0.207786 -0.04274,-0.372692 -0.127641,-0.495577 -0.08714,-0.125118 -0.212071,-0.188102 -0.375171,-0.188102 z m -0.362252,1.625741 c -0.160866,0 -0.306045,0.03322 -0.435632,0.100252 -0.131821,0.06703 -0.235645,0.16237 -0.311609,0.285254 -0.0782,0.12065 -0.117306,0.262196 -0.117306,0.425297 0,0.138524 0.027,0.258093 0.08062,0.358634 0.05362,0.09831 0.125953,0.178769 0.217557,0.241329 h -0.941544 v 0.251148 h 2.34611 V 33.47961 h -0.268201 c 0.08937,-0.06256 0.160837,-0.143022 0.214457,-0.241329 0.05362,-0.100541 0.08062,-0.22011 0.08062,-0.358634 0,-0.163101 -0.03824,-0.304647 -0.114205,-0.425297 -0.0782,-0.122884 -0.182889,-0.218226 -0.31471,-0.285254 -0.131821,-0.06703 -0.277516,-0.100252 -0.436149,-0.100252 z m 0,0.251147 c 0.113947,0 0.220536,0.02336 0.318844,0.07028 0.09607,0.04692 0.1729,0.115269 0.230993,0.204639 0.05809,0.08714 0.08733,0.193209 0.08733,0.318326 0,0.122885 -0.02924,0.228091 -0.08733,0.315227 -0.05809,0.08713 -0.13492,0.152717 -0.230993,0.197404 -0.09831,0.04469 -0.204897,0.06718 -0.318844,0.06718 -0.116181,0 -0.222254,-0.02249 -0.318327,-0.06718 -0.09607,-0.04469 -0.1729,-0.110268 -0.230993,-0.197404 -0.05809,-0.08714 -0.08733,-0.192342 -0.08733,-0.315227 0,-0.125117 0.02924,-0.23119 0.08733,-0.318326 0.05809,-0.08937 0.13492,-0.157719 0.230993,-0.204639 0.09607,-0.04692 0.202146,-0.07028 0.318327,-0.07028 z"
       style="font-size:3.35139px;line-height:1.25;font-family:Questrial;-inkscape-font-specification:'Questrial, Normal';letter-spacing:0px;word-spacing:0px;fill:none;stroke-width:0.1;stroke:#000000;stroke-opacity:1;stroke-dasharray:none" />
    <path
       id="path5835"
       d="m 44.848425,30.263269 v 0.251148 h 0.941545 c -0.09161,0.06256 -0.163938,0.144405 -0.217558,0.244946 -0.05362,0.09831 -0.08062,0.216493 -0.08062,0.355017 0,0.163101 0.03911,0.30603 0.117305,0.428914 0.07596,0.12065 0.179788,0.214609 0.311609,0.281637 0.129587,0.06703 0.274766,0.100769 0.435633,0.100769 0.158632,0 0.303811,-0.03374 0.435632,-0.100769 0.131821,-0.06703 0.237028,-0.160987 0.315226,-0.281637 0.07596,-0.122884 0.114205,-0.265813 0.114205,-0.428914 h -5.17e-4 c 0,-0.138524 -0.02648,-0.25671 -0.0801,-0.355017 -0.05362,-0.100541 -0.125087,-0.182387 -0.214457,-0.244946 h 0.2682 v -0.251148 z m 1.507919,0.237712 c 0.113947,0 0.220019,0.02249 0.318326,0.06718 0.09607,0.04469 0.173418,0.110785 0.231511,0.197921 0.05809,0.0849 0.08733,0.189591 0.08733,0.314709 0,0.122884 -0.02924,0.229473 -0.08733,0.318844 -0.05809,0.08937 -0.135437,0.157202 -0.231511,0.204122 -0.09831,0.04692 -0.204379,0.07028 -0.318326,0.07028 -0.116182,0 -0.222254,-0.02336 -0.318327,-0.07028 -0.09607,-0.04692 -0.172901,-0.114752 -0.230994,-0.204122 -0.05809,-0.08937 -0.08733,-0.19596 -0.08733,-0.318844 0,-0.125118 0.02924,-0.229807 0.08733,-0.314709 0.05809,-0.08713 0.134921,-0.153234 0.230994,-0.197921 0.09607,-0.04469 0.202145,-0.06718 0.318327,-0.06718 z m -0.02997,1.652612 c -0.148979,0.0039 -0.284172,0.03741 -0.40566,0.100252 -0.131821,0.06703 -0.235644,0.163236 -0.311609,0.288355 -0.0782,0.122884 -0.117305,0.270312 -0.117305,0.44235 0,0.169804 0.03911,0.317232 0.117305,0.44235 0.07596,0.125119 0.179788,0.221327 0.311609,0.288355 0.129587,0.06703 0.274766,0.100252 0.435633,0.100252 0.158632,0 0.303811,-0.03322 0.435632,-0.100252 0.131821,-0.06703 0.237028,-0.163236 0.315226,-0.288355 0.07596,-0.125118 0.114205,-0.272546 0.114205,-0.44235 0,-0.172038 -0.03824,-0.319466 -0.114205,-0.44235 -0.0782,-0.125119 -0.183405,-0.221327 -0.315226,-0.288355 -0.131821,-0.06703 -0.277,-0.100252 -0.435632,-0.100252 -0.01006,0 -0.02004,-2.62e-4 -0.02997,0 z m 0.02997,0.251147 c 0.113947,0 0.220019,0.02249 0.318326,0.06718 0.09607,0.04468 0.173418,0.110267 0.231511,0.197404 0.05809,0.0849 0.08733,0.190107 0.08733,0.315226 0,0.122885 -0.02924,0.22809 -0.08733,0.315226 -0.05809,0.08713 -0.135437,0.152718 -0.231511,0.197404 -0.09831,0.04469 -0.204379,0.06718 -0.318326,0.06718 -0.116182,0 -0.222254,-0.02249 -0.318327,-0.06718 -0.09607,-0.04469 -0.172901,-0.110268 -0.230994,-0.197404 -0.05809,-0.08714 -0.08733,-0.192341 -0.08733,-0.315226 0,-0.125119 0.02924,-0.230325 0.08733,-0.315226 0.05809,-0.08714 0.134921,-0.152718 0.230994,-0.197404 0.09607,-0.04469 0.202145,-0.06718 0.318327,-0.06718 z"
       style="font-size:3.35139px;line-height:1.25;font-family:Questrial;-inkscape-font-specification:'Questrial, Normal';letter-spacing:0px;word-spacing:0px;fill:none;stroke-width:0.1;stroke:#000000;stroke-opacity:1;stroke-dasharray:none" />
    <path
       id="path3367-1"
       style="color:#000000;display:inline;fill:none;stroke:#000000;stroke-width:0.1;stroke-miterlimit:4;stroke-dasharray:none;stroke-opacity:1"
       d="m 49.401817,34.425373 v 0.900203 H 46.59992 V 34.42744 h -0.198954 v 1.099157 h 0.198954 2.799829 v 5.998084 h 0.201022 l -0.0021,-5.998084 h 2.89388 10e-4 0.199988 V 34.42744 h -0.201021 v 0.898136 h -2.891747 v -0.900203 z" />
  </g>
</svg>
