<?xml version="1.0" encoding="UTF-8" standalone="no"?>
<svg
   width="62mm"
   height="117mm"
   viewBox="0 0 62 117"
   version="1.1"
   id="svg8"
   inkscape:version="1.2.2 (b0a8486541, 2022-12-01)"
   sodipodi:docname="blues_brkr_front_freecad.svg"
   inkscape:export-filename="/home/yann/_dev/98 - Graphics/graphics-pedals/Blues Brkr/blues_brkr_front.png"
   inkscape:export-xdpi="409.67999"
   inkscape:export-ydpi="409.67999"
   xmlns:inkscape="http://www.inkscape.org/namespaces/inkscape"
   xmlns:sodipodi="http://sodipodi.sourceforge.net/DTD/sodipodi-0.dtd"
   xmlns="http://www.w3.org/2000/svg"
   xmlns:svg="http://www.w3.org/2000/svg"
   xmlns:rdf="http://www.w3.org/1999/02/22-rdf-syntax-ns#"
   xmlns:cc="http://creativecommons.org/ns#"
   xmlns:dc="http://purl.org/dc/elements/1.1/">
  <defs
     id="defs2" />
  <sodipodi:namedview
     id="base"
     pagecolor="#ffffff"
     bordercolor="#666666"
     borderopacity="1.0"
     inkscape:pageopacity="0"
     inkscape:pageshadow="2"
     inkscape:zoom="4"
     inkscape:cx="123"
     inkscape:cy="278"
     inkscape:document-units="mm"
     inkscape:current-layer="layer1"
     inkscape:document-rotation="0"
     showgrid="true"
     inkscape:window-width="3836"
     inkscape:window-height="2113"
     inkscape:window-x="0"
     inkscape:window-y="881"
     inkscape:window-maximized="1"
     showborder="true"
     inkscape:showpageshadow="false"
     inkscape:pagecheckerboard="true"
     inkscape:deskcolor="#d1d1d1">
    <sodipodi:guide
       position="-2.0168617,58.500093"
       orientation="0,117.16536"
       id="guide1967"
       inkscape:locked="false" />
    <sodipodi:guide
       position="31.001653,138.8865"
       orientation="-221.10236,0"
       id="guide1969"
       inkscape:locked="false" />
    <inkscape:grid
       type="xygrid"
       id="grid1973"
       visible="true"
       enabled="true"
       originx="31.000001"
       originy="58.500002"
       dotted="false" />
  </sodipodi:namedview>
  <metadata
     id="metadata5">
    <rdf:RDF>
      <cc:Work
         rdf:about="">
        <dc:format>image/svg+xml</dc:format>
        <dc:type
           rdf:resource="http://purl.org/dc/dcmitype/StillImage" />
      </cc:Work>
    </rdf:RDF>
  </metadata>
  <g
     inkscape:groupmode="layer"
     id="layer1"
     inkscape:label="COLOR"
     style="stroke-width:0.1;stroke-dasharray:none">
    <path
       id="path10508-90"
       style="display:inline;fill:none;stroke:#000000;stroke-width:0.1;stroke-opacity:1;stroke-dasharray:none"
       d="m 53.5,14.5 a 3.9999995,3.9999995 0 0 1 -4,4 3.9999995,3.9999995 0 0 1 -4,-4 3.9999995,3.9999995 0 0 1 4,-4 3.9999995,3.9999995 0 0 1 4,4 z"
       transform="translate(-0.00583116,-0.01136028)" />
    <path
       id="path10508-9"
       style="display:inline;fill:none;stroke:#000000;stroke-width:0.1;stroke-dasharray:none;stroke-opacity:1"
       d="m 52.994169,44.788639 a 3.4999995,3.4999995 0 0 1 -3.5,3.5 3.4999995,3.4999995 0 0 1 -3.5,-3.5 3.4999995,3.4999995 0 0 1 3.5,-3.499999 3.4999995,3.4999995 0 0 1 3.5,3.499999 z" />
    <path
       id="path10508-9-4"
       style="display:inline;fill:none;stroke:#000000;stroke-width:0.1;stroke-opacity:1;stroke-dasharray:none"
       transform="translate(-0.00583116,-0.01136028)"
       d="m 16.5,44.799999 a 3.9999995,3.9999995 0 0 1 -4,4 3.9999995,3.9999995 0 0 1 -3.9999995,-4 A 3.9999995,3.9999995 0 0 1 12.5,40.8 a 3.9999995,3.9999995 0 0 1 4,3.999999 z" />
    <path
       id="path10508-91"
       style="display:inline;fill:none;stroke:#000000;stroke-width:0.1;stroke-opacity:1;stroke-dasharray:none"
       transform="translate(-0.00583116,-0.01136028)"
       d="m 16.5,14.5 a 3.9999995,3.9999995 0 0 1 -4,4 3.9999995,3.9999995 0 0 1 -3.9999995,-4 3.9999995,3.9999995 0 0 1 3.9999995,-4 3.9999995,3.9999995 0 0 1 4,4 z" />
    <path
       id="path2633-3"
       style="display:inline;fill:none;fill-opacity:1;stroke-width:0.1;stroke:#000000;stroke-opacity:1;stroke-dasharray:none"
       d="M 45.60342,53.216241 43.736348,54.149 c -1.026988,0.51308 -1.877869,0.942229 -1.890839,0.953947 -0.01297,0.01169 0.476525,1.157484 1.087789,2.546099 0.611267,1.38861 1.126482,2.524911 1.144633,2.524911 0.06072,0 3.792712,-1.725044 3.858162,-1.783355 0.03551,-0.03164 -0.474597,-1.208641 -1.133782,-2.615862 z m -0.526584,0.889867 c 0.03856,0.01355 0.507577,0.907632 1.042313,1.98696 l 0.972034,1.962672 -0.866614,0.46302 c -1.070022,0.5714 -1.412769,0.630415 -1.794721,0.309026 -0.418989,-0.352436 -0.631852,-1.066234 -0.418579,-1.403017 0.05275,-0.0833 -0.01598,-0.15871 -0.264583,-0.289904 -0.259819,-0.137107 -0.396238,-0.292743 -0.599964,-0.685228 -0.306171,-0.589846 -0.332759,-0.951855 -0.0925,-1.25729 0.167418,-0.212838 1.884198,-1.134819 2.022614,-1.086239 z m -0.690396,0.897621 c -0.151299,0.01942 -0.439602,0.153513 -0.539504,0.273886 -0.114376,0.137818 -0.0049,0.568073 0.250116,0.982368 0.190058,0.308735 0.232214,0.315482 0.64802,0.103352 l 0.314193,-0.160197 -0.276468,-0.54932 c -0.152194,-0.30217 -0.288603,-0.584039 -0.302824,-0.626317 -0.008,-0.02379 -0.0431,-0.03023 -0.09353,-0.02379 z m -7.146335,1.445908 c -0.679471,0.02796 -3.310064,0.242004 -3.349667,0.280085 -0.03389,0.03258 0.132096,4.055494 0.197406,4.78472 l 0.04392,0.48886 1.839164,-0.311608 c 1.011523,-0.171249 1.853731,-0.326176 1.87172,-0.344167 0.03732,-0.03732 -0.398629,-4.847096 -0.443899,-4.897374 -0.0042,-0.0047 -0.06158,-0.0045 -0.158647,-5.3e-4 z m 8.23154,0.236159 c -0.146524,0 -0.479558,0.359346 -0.479558,0.517281 0,0.09953 0.09429,0.370727 0.209807,0.602549 0.11552,0.23182 0.263522,0.42168 0.32866,0.42168 0.127889,0 0.596863,-0.223769 0.596863,-0.284739 0,-0.09012 -0.608732,-1.256771 -0.655772,-1.256771 z M 39.23895,57.28576 c -0.09251,-0.0011 -0.148317,0.0016 -0.156064,0.0093 -0.04758,0.04714 -0.902097,5.24732 -0.869196,5.2896 0.0076,0.0098 0.81511,0.106029 1.794206,0.21394 0.979101,0.107913 1.855967,0.200154 1.948717,0.205155 0.16306,0.0087 0.17627,-0.08017 0.407209,-2.688209 0.211506,-2.388597 0.225171,-2.703068 0.115756,-2.75177 -0.158467,-0.07052 -2.593049,-0.270311 -3.240628,-0.278019 z m -2.706296,0.552421 c 0.147847,0.01511 0.166373,0.257045 0.349851,1.51412 0.09357,0.64108 0.15245,1.211569 0.130741,1.26814 -0.0217,0.05656 -0.1935,0.117422 -0.381889,0.135393 -0.276577,0.02638 -0.349959,0.0051 -0.380338,-0.111107 -0.03533,-0.135115 -0.05033,-0.134009 -0.242364,0.01707 -0.242509,0.190759 -0.722405,0.211791 -0.964282,0.04237 -0.237339,-0.166235 -0.320712,-0.432827 -0.479041,-1.533239 -0.153443,-1.06648 -0.142502,-1.102442 0.334349,-1.104842 l 0.249597,-0.0011 0.0987,0.669211 c 0.197046,1.33354 0.144103,1.220626 0.552421,1.174605 0.19703,-0.0222 0.382124,-0.06431 0.411345,-0.09353 0.02923,-0.02923 -0.0069,-0.46182 -0.0801,-0.961181 -0.07317,-0.499364 -0.126024,-0.912707 -0.117825,-0.918808 0.0083,-0.0061 0.150779,-0.03562 0.316778,-0.06563 0.08884,-0.01606 0.152773,-0.03655 0.202054,-0.03152 z m 3.952214,0.06046 c 0.08273,-0.0044 0.193897,0.01328 0.336931,0.05168 l 0.168981,0.04548 -0.147793,0.947226 c -0.0814,0.520904 -0.20719,1.384949 -0.27957,1.920299 -0.07238,0.53535 -0.154932,0.993671 -0.183451,1.018542 -0.02852,0.02487 -0.179755,0.02487 -0.335897,0 -0.224091,-0.03567 -0.279794,-0.07917 -0.264583,-0.207224 0.01058,-0.08922 0.129146,-0.881573 0.263549,-1.760614 0.134406,-0.879044 0.24443,-1.691471 0.24443,-1.805059 0,-0.134898 0.05951,-0.203044 0.197403,-0.210323 z m 21.515998,0.623734 c -0.834845,0.0077 -1.726784,0.02204 -2.854605,0.05116 -9.006025,0.232466 -10.982666,0.434864 -12.899469,1.319816 -1.937782,0.894641 -1.928315,0.88756 -2.875794,2.105297 -0.544454,0.699746 -0.988837,1.14763 -1.353923,1.364774 -0.297209,0.176781 -0.955275,0.208084 -1.831414,0.08682 -0.501708,-0.06944 -1.20328,-0.150522 -1.559078,-0.180351 l -0.646988,-0.05426 -0.164331,-0.486791 c -0.135739,-0.402259 -0.213386,-0.511164 -0.448034,-0.628385 -0.751613,-0.375473 -1.622124,0.0071 -1.622124,0.713134 0,0.267938 -0.114678,0.250902 -0.328662,-0.04961 -0.358183,-0.503016 -0.843159,-0.491906 -1.220082,0.02842 -0.450228,0.621522 -0.626504,1.820027 -0.551902,3.748609 0.05888,1.522357 0.203213,2.180537 0.538467,2.453598 0.362863,0.295542 0.766037,0.453937 1.171506,0.460435 0.315079,0.0051 0.422693,-0.03464 0.630968,-0.234092 0.248282,-0.237768 0.253518,-0.238948 0.471808,-0.09664 0.121412,0.07916 0.450818,0.255635 0.732252,0.392224 0.42825,0.207761 0.57948,0.241707 0.927593,0.208256 0.434488,-0.04175 0.532127,-0.116742 0.80822,-0.620633 l 0.139009,-0.253214 0.59118,0.04961 c 0.928065,0.07772 2.016953,0.318487 2.542995,0.561724 0.378481,0.175003 0.663993,0.414636 1.333254,1.119312 1.669433,1.757772 2.397717,2.455015 2.717662,2.602941 0.178451,0.0825 0.65269,0.306412 1.054201,0.497642 0.833217,0.396846 1.046302,0.466577 1.94665,0.636656 1.350005,0.255019 2.971001,0.367813 6.083866,0.422712 1.73989,0.03069 3.510307,0.08408 3.934127,0.118856 0.423815,0.03483 1.31777,0.04834 1.986957,0.02997 0.316836,-0.0087 0.452769,-0.01357 0.745691,-0.0217 V 74.20359 c -1.263224,0.0054 -2.384446,5.29e-4 -2.415354,-0.02842 -0.0186,-0.01733 -1.457336,-0.05553 -3.197223,-0.08475 -3.677216,-0.06178 -5.88233,-0.170132 -6.826972,-0.334862 -0.790866,-0.137917 -1.6544,-0.441052 -2.66237,-0.935344 -0.797094,-0.390877 -1.295535,-0.849993 -2.370915,-2.181778 -0.864418,-1.070523 -1.898642,-1.808626 -2.780707,-1.98541 -0.156147,-0.03129 -0.53934,-0.132612 -0.851628,-0.224792 -0.312288,-0.09218 -0.867592,-0.23013 -1.234035,-0.306441 -0.628952,-0.130979 -0.679278,-0.130707 -0.895035,5.29e-4 -0.125706,0.07645 -0.294577,0.28625 -0.375687,0.466122 -0.194541,0.431501 -0.4029,0.538573 -0.849562,0.438216 -0.241382,-0.05423 -0.438689,-0.176088 -0.645953,-0.399457 -0.481915,-0.519356 -1.195285,-0.561412 -1.441773,-0.08475 -0.134456,0.259992 -0.283575,0.267747 -0.762746,0.03979 -0.384482,-0.182909 -0.483119,-1.087017 -0.28887,-2.644799 0.06429,-0.515553 0.156811,-1.30167 0.205672,-1.747181 0.04886,-0.445505 0.12121,-0.843129 0.161231,-0.88315 0.04295,-0.04294 0.155514,0.0232 0.274402,0.161232 0.178687,0.207454 0.251217,0.232759 0.640787,0.223758 0.574116,-0.01318 0.791167,-0.131477 0.791167,-0.432014 0,-0.370623 0.07875,-0.490411 0.322977,-0.490411 0.252913,0 0.36975,0.107646 0.445966,0.411345 0.03025,0.120544 0.192852,0.299038 0.387575,0.425297 0.275593,0.178699 0.430874,0.218046 0.86713,0.220141 0.292205,0.0013 0.968951,0.0553 1.504301,0.119891 1.607339,0.193937 1.856288,0.173617 2.601907,-0.210839 0.825426,-0.425606 1.466054,-0.908756 1.675353,-1.263491 0.09095,-0.154154 0.425127,-0.47797 0.74259,-0.719852 0.31746,-0.241885 0.668266,-0.509624 0.779796,-0.594797 0.51808,-0.395607 1.52096,-1.012174 1.814359,-1.115692 0.852725,-0.30086 1.643152,-0.426664 4.116027,-0.655256 1.298861,-0.120055 2.385822,-0.145614 6.23683,-0.144696 1.519785,2.65e-4 2.836638,0.007 4.03076,0.01757 z m -32.807298,0.112139 -1.106908,1.639691 -1.106392,1.639179 0.30644,0.181901 c 0.168518,0.09997 1.200909,0.727808 2.293916,1.395261 1.093007,0.667457 2.005463,1.214565 2.027783,1.216465 0.05057,0.0039 1.979353,-2.747566 2.008664,-2.865459 0.01175,-0.04727 -0.718635,-0.604091 -1.62264,-1.237134 -0.90401,-0.633036 -1.903759,-1.33492 -2.222087,-1.56011 z m 32.807298,1.267105 c -0.917273,0.01873 -2.279528,0.07255 -3.416326,0.138494 -1.424369,0.08261 -2.712691,0.130315 -2.862876,0.105936 -0.266306,-0.04321 -1.924553,0.06369 -2.420525,0.156062 -0.211085,0.03931 -0.262766,0.09872 -0.342096,0.395324 -0.0579,0.216461 -0.242474,0.514898 -0.485759,0.784966 l -0.392223,0.435115 0.06976,0.40566 c 0.03838,0.223065 0.06997,1.099018 0.07028,1.946653 5.29e-4,1.445117 -0.02545,1.898369 -0.253214,4.380092 -0.04914,0.53535 -0.07851,1.389965 -0.06511,1.899111 l 0.02429,0.926041 0.247528,0.08785 c 0.674423,0.240406 1.151901,0.872641 1.2299,1.628325 0.02569,0.248777 0.06853,0.46577 0.0956,0.48214 0.02708,0.01635 0.450805,0.05565 0.941544,0.08733 0.490738,0.03168 1.129569,0.08728 1.419553,0.124024 0.289978,0.03673 1.165928,0.04405 1.94665,0.01601 0.780717,-0.02801 2.131423,-0.05441 3.001368,-0.05891 0.420055,-0.0021 0.813479,-0.01275 1.191656,-0.02791 v -0.264067 c -0.160668,0.0064 -0.288245,0.01495 -0.46147,0.02066 -4.88379,0.161319 -6.582672,0.144298 -7.543726,-0.07545 -0.236958,-0.05418 -0.287993,-0.104711 -0.309023,-0.305406 -0.08238,-0.786222 -0.320672,-1.151067 -1.093475,-1.675868 l -0.487825,-0.331245 0.05271,-1.712558 c 0.02904,-0.941742 0.09309,-1.967674 0.142629,-2.279962 0.04953,-0.31229 0.09954,-1.631376 0.111104,-2.931604 l 0.02119,-2.364198 0.250629,-0.312642 c 0.137819,-0.171982 0.337106,-0.476909 0.442868,-0.677479 0.161914,-0.307057 0.242718,-0.375118 0.510563,-0.429948 0.174951,-0.03581 1.577473,-0.09927 3.116604,-0.141076 1.539132,-0.04181 3.437112,-0.108394 4.217831,-0.147793 0.331706,-0.01672 0.69092,-0.02755 1.029394,-0.03411 z m -31.735529,0.4377 c 0.2032,-4.7e-5 0.449191,0.110366 0.820621,0.331245 0.687176,0.408647 1.17099,0.85743 1.17099,1.085723 0,0.288102 -0.397748,0.987372 -0.73484,1.29191 -0.362122,0.327158 -0.349343,0.360519 -0.75551,0.170016 -0.243475,-0.114194 -0.328568,-0.129743 -0.139827,-0.427836 0.172503,-0.27245 0.188539,-0.243835 0.25777,-0.230577 0.119211,0.02283 0.237609,0.03514 0.436547,-0.304321 0.113413,-0.193516 0.206187,-0.373041 0.206187,-0.398941 0,-0.05985 -0.568018,-0.413787 -0.60048,-0.374137 -0.01331,0.01625 -0.233397,0.274191 -0.467415,0.642247 -0.234019,0.368046 -0.403892,0.635135 -0.524516,0.669208 -0.151569,0.04281 -0.765439,-0.514689 -0.849299,-0.735264 -0.09911,-0.260667 0.193461,-0.91926 0.6165,-1.387512 0.199695,-0.220996 0.360072,-0.331716 0.563272,-0.331761 z m -0.170532,0.743622 c -0.07357,1.1e-5 -0.134006,0.09613 -0.287322,0.348816 -0.199985,0.329608 -0.20701,0.367919 -0.08113,0.441317 0.206037,0.12015 0.220039,0.112403 0.461989,-0.253214 0.213056,-0.321937 0.216826,-0.343342 0.07648,-0.445968 -0.07692,-0.05624 -0.125873,-0.09096 -0.170016,-0.09095 z m 6.745324,3.408061 c -0.08824,0.02424 -0.08843,0.507672 0,2.115116 0.03978,0.723117 0.08561,1.028576 0.150379,1.007174 0.05402,-0.01783 0.101708,-0.248904 0.113689,-0.551387 0.02871,-0.724241 -0.163822,-2.598433 -0.264068,-2.570903 z m -10.563179,0.01654 c -0.03516,0.02976 -0.603032,3.710495 -0.576192,3.734657 0.01483,0.01336 1.15846,0.114826 2.541448,0.225824 1.382987,0.110998 2.55012,0.194837 2.593639,0.186037 0.09569,-0.01931 0.775303,-2.820784 0.702283,-2.894915 -0.05043,-0.05119 -5.225028,-1.282203 -5.261178,-1.251603 z m 9.136911,0.167949 -0.23668,0.276984 c -0.130167,0.152244 -0.217908,0.307325 -0.194818,0.344684 0.111331,0.180139 0.438994,-0.129572 0.434599,-0.410829 z m 3.336229,0.608232 c -0.03144,0 -0.02801,0.210116 0.0078,0.466638 0.03575,0.256524 0.08705,0.642212 0.113688,0.856795 0.03095,0.249322 0.08303,0.37769 0.144177,0.35605 0.05264,-0.01863 0.08633,-0.103164 0.07493,-0.187585 -0.0114,-0.08442 -0.04371,-0.408598 -0.07183,-0.720886 -0.04769,-0.529749 -0.131863,-0.771012 -0.268719,-0.771012 z m -3.241145,0.243396 c -0.10146,0 -0.172136,0.337849 -0.115756,0.553455 0.05423,0.207407 0.216297,0.195305 0.257866,-0.01913 0.03704,-0.191056 -0.05434,-0.534334 -0.14211,-0.534334 z m -7.498768,0.0987 c 0.302104,-0.01106 0.701796,0.08736 0.850595,0.236159 0.161928,0.16193 0.165013,0.366691 0.01757,1.150834 -0.0422,0.224422 -0.0376,0.227462 0.309025,0.202573 0.34467,-0.02477 0.322191,-0.0363 0.377756,-0.335897 0.04667,-0.251637 0.03581,-0.215802 -0.03928,-0.237053 -0.16593,-0.04696 -0.211949,-0.220623 -0.118337,-0.464571 0.06611,-0.172276 0.268406,-0.173104 0.579292,0.03307 0.189029,0.125362 0.161234,0.07333 0.161234,0.493884 0,0.521499 -0.159229,0.962022 -0.393258,1.087274 -0.332081,0.177725 -1.168696,0.100573 -1.281234,-0.134247 -0.05508,-0.11493 -0.01328,-0.690489 0.02734,-1.15692 0.01778,-0.204362 -0.04355,-0.324758 -0.321705,-0.324758 -0.271616,0 -0.278794,0.01156 -0.331763,0.376206 -0.08006,0.551146 -0.110842,0.570767 -0.01394,0.597379 0.133522,0.03667 0.161912,0.03523 0.122473,0.182417 -0.0269,0.100378 -0.04948,0.227944 -0.05013,0.283705 -0.0016,0.154556 -0.229939,0.120965 -0.445453,-0.05374 -0.169931,-0.137756 -0.191719,-0.222708 -0.191719,-0.75396 0,-0.65592 0.13603,-0.97387 0.484724,-1.132747 0.06613,-0.03013 0.156131,-0.04592 0.256831,-0.04961 z m 20.528462,2.675805 c -0.03454,0.008 -0.05891,0.04521 -0.05891,0.09818 0,0.07063 0.05803,0.128675 0.128674,0.128675 0.143238,0 0.118362,-0.174662 -0.03204,-0.224793 -0.01326,-0.0044 -0.02622,-0.0047 -0.03772,-0.0021 z m -15.741158,0.07803 c -0.719389,2.64e-4 -1.270206,0.384617 -1.270206,0.933794 0,0.337738 0.09852,0.516829 0.364837,0.66249 0.271367,0.148428 0.725339,0.108032 1.020609,-0.09095 0.157514,-0.106145 0.37335,-0.378012 0.506947,-0.639236 0.293967,-0.574815 0.22611,-0.762777 -0.304374,-0.842327 -0.108522,-0.01627 -0.215041,-0.02381 -0.317813,-0.02376 z m -0.07596,0.635619 c 0.206579,0 0.226076,0.06066 0.08061,0.250116 -0.132101,0.172058 -0.399225,0.304334 -0.524516,0.259413 -0.276838,-0.09927 0.08058,-0.509529 0.443902,-0.509529 z m 16.083772,0.747241 c -0.02904,0.0045 -0.05889,0.0245 -0.08423,0.0646 -0.04207,0.06654 -0.0769,0.166449 -0.07752,0.22221 -0.0019,0.14986 0.216228,0.123415 0.276468,-0.03359 0.05413,-0.140947 -0.02761,-0.266785 -0.114721,-0.253215 z m 6.521567,1.533758 c -0.06444,0.004 -0.114724,0.03469 -0.114724,0.09922 0,0.0663 0.04603,0.139248 0.101804,0.161748 0.206835,0.08345 0.315262,0.05017 0.28887,-0.08837 -0.02125,-0.111532 -0.168553,-0.179337 -0.27595,-0.172598 z m -36.951234,0.495575 c -0.810996,-0.0037 -1.721165,0.01474 -2.787427,0.05064 -3.22449,0.10863 -5.110729,0.245393 -7.5029008,0.544153 C 4.5246801,72.831327 1.8048276,73.445157 3.8460169e-6,74.173092 v 0.89762 C 3.0123322,73.741737 9.8515382,72.733852 16.809828,72.681721 c 0.577165,-0.0043 1.155114,-0.0024 1.731677,0.0067 3.10666,0.04946 3.909539,0.153355 7.388696,0.956014 0.722618,0.166703 0.987863,0.178681 4.258655,0.192751 2.787597,0.01201 3.691187,0.043 4.501534,0.154515 2.58087,0.355155 4.307094,0.911526 4.738211,1.527037 0.827921,1.182015 -2.109994,3.111566 -6.697781,4.398698 -1.936764,0.543369 -2.960691,0.658878 -6.922058,0.779798 -3.296909,0.100637 -3.289488,0.09908 -7.787122,1.286225 -2.028157,0.535336 -3.067315,0.76491 -4.258654,0.939479 C 11.555058,83.246466 9.8366002,83.095529 8.8924822,82.495573 8.4355102,82.205202 8.1415662,81.833862 7.6310605,80.902925 7.1142829,79.960548 6.4373809,79.231174 5.7851782,78.913383 5.2458968,78.650615 5.2157417,78.642408 2.4479144,78.015247 1.3775719,77.772714 0.61204705,77.564953 1.8460169e-6,77.367738 v 0.992706 C 0.80216955,78.596719 1.8798196,78.860821 3.3765399,79.200184 c 0.8700336,0.19727 1.7728866,0.452032 2.0065958,0.566375 0.5420621,0.265205 0.9306067,0.709459 1.4872477,1.701704 0.8930582,1.591929 1.7447868,2.206728 3.4137446,2.464449 0.752047,0.11613 2.798261,0.03781 3.925342,-0.150379 1.390379,-0.232156 2.227661,-0.423474 4.704622,-1.07487 3.516033,-0.924655 3.172287,-0.873482 6.713286,-0.997871 3.232595,-0.113553 3.448863,-0.12782 4.967138,-0.33383 1.85933,-0.252288 4.957667,-1.226611 6.71277,-2.110464 1.820396,-0.916739 2.980655,-2.071349 3.119188,-3.104203 0.170889,-1.27408 -1.475517,-2.279669 -4.519104,-2.760557 -2.097188,-0.331348 -3.949684,-0.416478 -7.462594,-0.342098 -1.499664,0.03175 -1.730539,0.0013 -3.893302,-0.517798 -2.200465,-0.52819 -3.742863,-0.737756 -6.17585,-0.748792 z m 36.357988,0.588079 c -0.01508,0.0021 -0.02771,0.0075 -0.03721,0.01707 -0.02779,0.02779 -0.0099,0.09981 0.03979,0.159681 0.1061,0.127839 0.204306,0.139089 0.270785,0.03152 0.04807,-0.07778 -0.167809,-0.223804 -0.273367,-0.208257 z m -38.068478,0.645957 c -0.02104,-0.02103 -0.68452,0.186647 -1.474329,0.46147 -1.053697,0.366649 -1.424466,0.529333 -1.393196,0.610814 0.02344,0.06108 0.3058,1.059241 0.627352,2.218471 0.321552,1.159227 0.623677,2.10788 0.671277,2.10788 0.07717,0 3.05625,-0.970429 3.109371,-1.012857 0.02675,-0.02138 -1.487685,-4.332989 -1.540475,-4.385778 z m 8.323006,0.756025 c -0.02305,-0.0019 -0.03665,-0.0011 -0.03979,0.0026 -0.06048,0.06949 -1.370459,4.172765 -1.370459,4.292761 0,0.04719 0.283154,0.161275 0.628902,0.253215 0.345746,0.09194 1.030101,0.27592 1.520838,0.408762 0.490738,0.132837 0.934151,0.243912 0.985469,0.247013 0.103376,0.0064 1.228344,-4.417825 1.144633,-4.501534 -0.08628,-0.08627 -2.523782,-0.676949 -2.869592,-0.702799 z m -8.760705,0.75706 c 0.164817,0.0096 0.286019,0.09922 0.418062,0.272333 0.241482,0.316598 0.222188,0.397468 -0.12299,0.517798 -0.196046,0.06834 -0.255589,0.06049 -0.313159,-0.04237 -0.06086,-0.108731 -0.114391,-0.112956 -0.37207,-0.02791 -0.165551,0.05464 -0.319162,0.147233 -0.341582,0.205672 -0.02243,0.05844 0.108094,0.462494 0.289905,0.89762 0.181811,0.435123 0.321329,0.798187 0.310059,0.807185 -0.01127,0.0089 -0.100471,0.05786 -0.197921,0.108522 -0.290263,0.150886 -0.201936,0.286803 -0.876432,-1.350823 C 14.712622,75.177528 14.708041,75.04 14.989789,74.9839 c 0.0616,-0.01228 0.312737,-0.118634 0.558106,-0.236677 0.306547,-0.147479 0.514727,-0.217893 0.679545,-0.208257 z m 9.100736,0.651122 c 0.02892,0.0051 0.06032,0.01508 0.09509,0.02894 0.07807,0.03114 0.31787,0.0699 0.532784,0.08578 0.214914,0.0159 0.50707,0.09615 0.649056,0.1788 0.225962,0.13153 0.261157,0.199181 0.283187,0.542602 l 0.02532,0.392742 -0.258381,-0.05168 c -0.142108,-0.02841 -0.292823,-0.05168 -0.334863,-0.05168 -0.04203,0 -0.05456,-0.07043 -0.02739,-0.156062 0.05165,-0.162732 0.009,-0.187288 -0.497127,-0.288872 -0.284851,-0.05717 -0.253134,-0.132405 -0.518832,1.23765 -0.05428,0.279918 -0.120871,0.520652 -0.148311,0.534852 -0.02744,0.01421 -0.141168,0.0013 -0.252698,-0.02842 -0.239029,-0.06352 -0.239536,-0.05437 0.01602,-1.410251 0.159047,-0.843862 0.233706,-1.050258 0.436149,-1.014409 z m -3.165698,0.509529 c -0.03012,-0.0024 -0.06741,0.0011 -0.115239,0.0088 -0.117206,0.01873 -0.861257,0.05733 -1.653129,0.08578 l -1.439705,0.05219 v 2.181262 c 0,1.688121 0.02282,2.182233 0.101286,2.186429 0.05577,0.003 0.740119,0.07167 1.520837,0.152448 0.780719,0.08077 1.502107,0.151595 1.602486,0.157096 l 0.182418,0.0098 -0.001,-2.129586 c -5.02e-4,-1.17108 -0.02335,-2.264225 -0.05064,-2.429309 -0.03341,-0.202118 -0.05692,-0.267547 -0.147278,-0.274921 z M 9.9911252,76.088227 c -0.02055,0.02267 -1.390329,4.303287 -1.620573,5.064289 l -0.101286,0.335381 1.9559528,0.613399 c 1.81833,0.570251 2.240173,0.680485 2.240173,0.584978 0,-0.02053 0.332437,-1.179634 0.738973,-2.575555 0.406536,-1.395918 0.744242,-2.569432 0.750342,-2.607593 0.01052,-0.06546 -3.916174,-1.467191 -3.9635818,-1.414899 z m 9.9807858,0.191201 h 0.280603 v 0.742591 0.869198 l 0.38809,-0.382405 c 0.330094,-0.32513 0.435319,-0.382407 0.706934,-0.382407 h 0.31936 l -0.518831,0.523999 -0.519349,0.523483 0.461471,0.692981 0.460954,0.692981 h -0.22841 c -0.187291,0 -0.297929,-0.09525 -0.61805,-0.531233 -0.374009,-0.509373 -0.396623,-0.52532 -0.54312,-0.392742 -0.104984,0.09501 -0.152445,0.248234 -0.152445,0.49041 0,0.335447 -0.01155,0.352433 -0.237195,0.352433 h -0.237195 l 0.03824,-1.398881 c 0.05285,-1.928051 0.05255,-1.800408 0.398943,-1.800408 z m -9.345683,0.596863 c 0.121421,-0.0011 0.406119,0.08135 0.923975,0.263033 0.525779,0.184468 1.036178,0.387572 1.134297,0.451652 0.539291,0.352197 0.337867,1.550458 -0.356567,2.122868 -0.237286,0.195588 -0.281192,0.270711 -0.204122,0.347782 0.13675,0.136747 0.123136,0.837155 -0.0217,1.117245 -0.06603,0.127683 -0.216942,0.308367 -0.33538,0.401527 -0.308987,0.243051 -0.669028,0.208269 -1.690853,-0.163298 -0.4889558,-0.1778 -0.9005828,-0.334717 -0.9146728,-0.348817 -0.01914,-0.01913 1.1486788,-3.50443 1.3952638,-4.164086 0.0068,-0.01815 0.02929,-0.02759 0.06976,-0.02791 z m 0.915707,0.807702 c -0.153921,0.01725 -0.260826,0.207213 -0.409794,0.626837 -0.120345,0.338995 -0.20745,0.62492 -0.19327,0.635619 0.01418,0.01069 0.171916,0.07804 0.350366,0.149863 0.17845,0.07182 0.347824,0.132773 0.376204,0.134874 0.09517,0.0077 0.336811,-0.593944 0.375171,-0.93431 0.03212,-0.284924 0.0084,-0.357436 -0.151928,-0.469738 -0.145337,-0.101799 -0.254397,-0.153485 -0.346749,-0.143145 z m 23.297801,0.29559 c -0.162378,0.0047 -0.3961,0.08292 -0.725535,0.235127 -1.603735,0.740971 -4.208076,1.182875 -6.968567,1.182875 -0.964191,0 -1.054359,0.01288 -1.134299,0.162264 -0.06255,0.116792 -0.06066,0.210971 0.0062,0.335896 0.09194,0.171794 0.111705,0.173022 1.969906,0.12609 2.463819,-0.06222 3.760732,-0.251322 5.473049,-0.798401 1.304306,-0.416724 1.781027,-0.711732 1.677419,-1.038178 -0.04489,-0.141438 -0.135795,-0.210343 -0.298175,-0.205673 z M 10.55698,79.52523 c -0.04368,0.0021 -0.06864,0.02117 -0.08217,0.05788 -0.01995,0.05415 -0.124719,0.361233 -0.233061,0.682128 l -0.196887,0.583427 0.216525,0.07907 c 0.492757,0.180435 0.582681,0.113945 0.783931,-0.580843 0.153441,-0.529727 0.113325,-0.636622 -0.291455,-0.777732 -0.09034,-0.03149 -0.153207,-0.04612 -0.196887,-0.04392 z"
       sodipodi:nodetypes="cccsssccsccccssssssssccccsscscccssccssssssscsscsssscsssccsscccssscsccscccssccsssccsssscccssssssssscscccsssssscsccccssssssscsssssssscsssscsssscsscccccccscssccccssscccsscccscsscccccsscccscccssscccssssssssssssscsssssssssccsssscssccsccsssssssssssscsscsssssssssssscssscccsssccssssssssssssssccssssssscsccscscssssssssssccsssssssssssscsscsssssssssssccssscsccssssssscssssssccscccssssscsssscccssscccssssccssscssccccscccccsssssccssssssssssssscssscsscssscssssscscccssc" />
    <path
       id="path5792"
       d="m 8.8273682,54.182222 v 0.745175 H 8.4031047 v 0.274402 h 0.4242635 v 1.807124 H 9.1394938 V 55.201799 H 9.6185343 V 54.927397 H 9.1394938 v -0.745175 z m 2.0355348,0.711585 c -0.210914,0 -0.39391,0.0486 -0.549321,0.145728 -0.15541,0.09436 -0.274862,0.22332 -0.3581173,0.387056 -0.083255,0.16096 -0.1245402,0.341756 -0.1245402,0.541569 0,0.197038 0.041285,0.377316 0.1245402,0.541052 0.083255,0.163736 0.2027073,0.294059 0.3581173,0.391191 0.155411,0.09436 0.338407,0.141593 0.549321,0.141593 0.213689,0 0.397202,-0.04724 0.549837,-0.141593 0.155411,-0.09713 0.274346,-0.227455 0.357601,-0.391191 0.08325,-0.163736 0.125057,-0.344014 0.125057,-0.541052 0,-0.199813 -0.0418,-0.380609 -0.125057,-0.541569 -0.08325,-0.163736 -0.20219,-0.2927 -0.357601,-0.387056 -0.152635,-0.09713 -0.336148,-0.145728 -0.549837,-0.145728 z m 2.447912,0 c -0.169286,0 -0.30828,0.03501 -0.416512,0.104386 -0.108232,0.06938 -0.199472,0.153825 -0.274401,0.253732 v -0.324528 h -0.312126 v 2.081526 l 0.312126,-5.16e-4 V 55.81003 c 0,-0.124883 0.02769,-0.234823 0.0832,-0.329179 0.05828,-0.09713 0.13457,-0.172066 0.228926,-0.224792 0.09436,-0.05273 0.199703,-0.07906 0.31626,-0.07906 0.172062,0 0.312414,0.05811 0.420646,0.174666 0.108233,0.113783 0.162264,0.265007 0.162264,0.453719 v 1.203544 h 0.312126 v -1.211812 c 0,-0.197038 -0.04044,-0.361851 -0.120923,-0.49506 -0.0777,-0.135982 -0.180333,-0.237251 -0.307992,-0.303858 -0.124883,-0.06938 -0.259283,-0.104386 -0.403593,-0.104386 z m 2.256193,0 c -0.210914,0 -0.39391,0.0486 -0.54932,0.145728 -0.155411,0.09436 -0.274862,0.22332 -0.358118,0.387056 -0.08326,0.16096 -0.125057,0.341756 -0.125057,0.541569 0,0.197038 0.04316,0.377316 0.129191,0.541052 0.08881,0.163736 0.212335,0.294059 0.37052,0.391191 0.158186,0.09436 0.342541,0.141593 0.553455,0.141593 0.246992,0 0.44817,-0.05811 0.603581,-0.174666 0.158185,-0.119333 0.273561,-0.271916 0.345715,-0.457853 h -0.341581 c -0.0555,0.102679 -0.133154,0.187124 -0.233061,0.253731 -0.09991,0.06383 -0.223435,0.0956 -0.37052,0.0956 -0.138759,0 -0.260412,-0.02905 -0.365869,-0.08733 -0.10546,-0.06105 -0.190421,-0.141422 -0.254248,-0.241329 -0.06105,-0.102682 -0.09962,-0.215338 -0.116272,-0.337447 h 1.74408 v -0.12454 c 0,-0.199813 -0.0418,-0.380609 -0.125057,-0.541569 -0.08326,-0.163736 -0.202708,-0.2927 -0.358118,-0.387056 -0.152635,-0.09713 -0.335631,-0.145728 -0.549321,-0.145728 z m -4.704105,0.283187 c 0.15541,0 0.286251,0.03637 0.391707,0.10852 0.108236,0.07216 0.189963,0.167471 0.245463,0.286805 0.05551,0.119332 0.0832,0.251531 0.0832,0.395841 0,0.141535 -0.02769,0.273217 -0.0832,0.395325 -0.0555,0.119333 -0.13723,0.215166 -0.245463,0.287321 -0.105456,0.07215 -0.236297,0.108003 -0.391707,0.108003 -0.152635,0 -0.282959,-0.03585 -0.391191,-0.108003 -0.108236,-0.07216 -0.189963,-0.167988 -0.245463,-0.287321 -0.05551,-0.122108 -0.0832,-0.25379 -0.0832,-0.395325 0,-0.14431 0.02769,-0.276509 0.0832,-0.395841 0.0555,-0.119334 0.137231,-0.21465 0.245463,-0.286805 0.108232,-0.07215 0.238556,-0.10852 0.391191,-0.10852 z m 4.704105,0 c 0.199814,0 0.361067,0.05947 0.483175,0.1788 0.122107,0.119333 0.197039,0.267839 0.224793,0.445451 h -1.415418 c 0.03053,-0.177612 0.10546,-0.326118 0.224793,-0.445451 0.122107,-0.119332 0.282844,-0.1788 0.482657,-0.1788 z"
       style="font-size:4.16278px;line-height:1.25;font-family:Questrial;-inkscape-font-specification:'Questrial, Normal';letter-spacing:0px;word-spacing:0px;fill:none;stroke-width:0.1;stroke:#000000;stroke-opacity:1;stroke-dasharray:none" />
    <path
       id="path5801"
       d="m 46.849337,24.056413 v 1.169437 c -0.07771,-0.11378 -0.178974,-0.203661 -0.303858,-0.270267 -0.122108,-0.06661 -0.269255,-0.100253 -0.441316,-0.100253 -0.202589,0 -0.38015,0.0486 -0.532784,0.145728 -0.149861,0.09436 -0.266595,0.223321 -0.34985,0.387056 -0.08325,0.160962 -0.125057,0.341756 -0.125057,0.541569 0,0.197038 0.0418,0.377317 0.125057,0.541053 0.08326,0.163736 0.199989,0.294059 0.34985,0.39119 0.152634,0.09436 0.330195,0.141594 0.532784,0.141594 0.172061,0 0.319208,-0.03313 0.441316,-0.09974 0.124884,-0.0666 0.226152,-0.155642 0.303858,-0.26665 v 0.333313 h 0.312125 v -2.914034 z m 2.276863,0.07493 v 0.407727 h 0.337447 v -0.407727 z m -0.345715,0.723986 c -0.127659,0 -0.23844,0.02226 -0.332796,0.06666 -0.09158,0.04163 -0.167874,0.09294 -0.228927,0.153996 -0.06106,0.06105 -0.108293,0.122398 -0.141593,0.183451 -0.03053,0.05828 -0.05143,0.105514 -0.06253,0.141594 v -0.51211 h -0.312125 v 2.081527 h 0.312125 v -0.916223 c 0,-0.152636 0.02905,-0.295189 0.08733,-0.428398 0.06105,-0.135984 0.147375,-0.245923 0.258383,-0.329179 0.113782,-0.08603 0.248182,-0.128674 0.403593,-0.128674 h 0.03772 V 24.85533 Z m 4.108793,0 c -0.210914,0 -0.39391,0.0486 -0.54932,0.145728 -0.155411,0.09436 -0.274863,0.223321 -0.358118,0.387056 -0.08326,0.160962 -0.125057,0.341756 -0.125057,0.541569 0,0.197038 0.04316,0.377317 0.129191,0.541053 0.08881,0.163736 0.212335,0.294059 0.37052,0.39119 0.158185,0.09436 0.34254,0.141594 0.553455,0.141594 0.246991,0 0.448687,-0.05811 0.604097,-0.174667 0.158185,-0.119332 0.273044,-0.271915 0.345199,-0.457853 H 53.51818 c -0.0555,0.10268 -0.133671,0.187125 -0.233577,0.253731 -0.09991,0.06383 -0.222919,0.0956 -0.370003,0.0956 -0.13876,0 -0.260929,-0.02905 -0.366386,-0.08733 -0.10546,-0.06105 -0.190422,-0.141423 -0.254248,-0.241329 -0.06105,-0.102681 -0.09962,-0.215339 -0.116272,-0.337447 h 1.744079 v -0.124541 c 0,-0.199813 -0.0418,-0.380607 -0.125057,-0.541569 -0.08326,-0.163735 -0.202191,-0.2927 -0.357601,-0.387056 -0.152635,-0.09713 -0.336148,-0.145728 -0.549837,-0.145728 z m -3.750675,0.03359 v 2.081527 h 0.312125 V 24.88892 Z m 0.60358,0 0.815971,2.081527 h 0.366386 l 0.811837,-2.081527 h -0.341581 l -0.65319,1.748214 -0.657841,-1.748214 z m -3.596679,0.249597 c 0.15541,0 0.286251,0.03637 0.391707,0.108521 0.108236,0.07215 0.189963,0.167471 0.245463,0.286804 0.05551,0.119333 0.0832,0.251532 0.0832,0.395841 0,0.141535 -0.02769,0.273217 -0.0832,0.395325 -0.0555,0.119333 -0.13723,0.215166 -0.245463,0.287321 -0.105456,0.07216 -0.236297,0.108004 -0.391707,0.108004 -0.152635,0 -0.284318,-0.03585 -0.395325,-0.108004 -0.111006,-0.07215 -0.195451,-0.167988 -0.253731,-0.287321 -0.05828,-0.122108 -0.08733,-0.25379 -0.08733,-0.395325 0,-0.144309 0.02905,-0.276508 0.08733,-0.395841 0.05828,-0.119333 0.142724,-0.21465 0.253731,-0.286804 0.111007,-0.07215 0.24269,-0.108521 0.395325,-0.108521 z m 6.743774,0 c 0.199813,0 0.361067,0.05947 0.483175,0.178801 0.122106,0.119333 0.197039,0.267839 0.224792,0.445451 h -1.415417 c 0.03053,-0.177612 0.10546,-0.326118 0.224792,-0.445451 0.122109,-0.119333 0.282845,-0.178801 0.482658,-0.178801 z"
       style="font-size:4.16278px;line-height:1.25;font-family:Questrial;-inkscape-font-specification:'Questrial, Normal';letter-spacing:0px;word-spacing:0px;fill:none;stroke-width:0.1;stroke:#000000;stroke-opacity:1;stroke-dasharray:none" />
    <path
       id="path5852"
       d="m 30.387809,3.2726685 c -0.06766,0.00193 -0.13026,0.018225 -0.187585,0.049093 -0.06115,0.032926 -0.109791,0.078288 -0.146245,0.135909 -0.03645,0.056444 -0.05478,0.121396 -0.05478,0.1943034 0,0.074083 0.01743,0.1397833 0.05271,0.1974039 0.03528,0.056444 0.08317,0.100916 0.143144,0.133842 0.06115,0.03175 0.128114,0.048059 0.201021,0.048059 0.06585,0 0.125741,-0.015418 0.179834,-0.045992 0.05527,-0.03175 0.09684,-0.071677 0.125057,-0.1198894 0,0.088194 -0.01073,0.1680472 -0.03307,0.2397787 -0.02117,0.071732 -0.05491,0.1287157 -0.10077,0.171049 -0.04468,0.042333 -0.103309,0.063562 -0.176216,0.063562 -0.04351,0 -0.07978,-0.00745 -0.108004,-0.022738 -0.02823,-0.016463 -0.0502,-0.036943 -0.06666,-0.060461 -0.01529,-0.024694 -0.02742,-0.049203 -0.03566,-0.073897 H 30.03279 c 0.01058,0.045861 0.02928,0.091224 0.05633,0.135909 0.02822,0.043509 0.06689,0.079265 0.116272,0.107487 0.04939,0.028222 0.111436,0.042375 0.185519,0.042375 0.14699,0 0.257163,-0.053705 0.331246,-0.1607137 0.07408,-0.1070092 0.111104,-0.2525623 0.111104,-0.4371826 0,-0.1916759 -0.03613,-0.3393856 -0.109037,-0.442867 -0.07291,-0.1034815 -0.180691,-0.1550293 -0.322978,-0.1550293 -0.0046,0 -0.0089,-1.287e-4 -0.01344,0 z m 0.526583,0.013953 0.472839,1.1678874 h 0.151929 l 0.472323,-1.1678874 h -0.144177 l -0.40411,1.0180257 -0.40411,-1.0180257 z m -0.522449,0.1147217 c 0.0031,-8.27e-5 0.0062,0 0.0093,0 0.05057,0 0.09593,0.011247 0.135909,0.03359 0.04115,0.021167 0.07363,0.051112 0.09715,0.089917 0.02469,0.038806 0.03669,0.084168 0.03669,0.1359091 0,0.048212 -0.012,0.091044 -0.03669,0.1286743 -0.02351,0.036454 -0.05599,0.065133 -0.09715,0.0863 -0.04116,0.019991 -0.08652,0.029972 -0.135909,0.029972 -0.04939,-5e-7 -0.09475,-0.011247 -0.135909,-0.03359 -0.03998,-0.022343 -0.07194,-0.052288 -0.09664,-0.089917 -0.02469,-0.038806 -0.03721,-0.082012 -0.03721,-0.1302246 0,-0.049389 0.01251,-0.093111 0.03721,-0.1307414 0.02469,-0.037629 0.05666,-0.0672 0.09664,-0.088367 0.03859,-0.019844 0.08079,-0.030282 0.126607,-0.031523 z"
       style="font-size:1.76389px;line-height:1.25;font-family:Questrial;-inkscape-font-specification:'Questrial, Normal';letter-spacing:0px;word-spacing:0px;fill:none;stroke-width:0.1;stroke:#000000;stroke-opacity:1;stroke-dasharray:none" />
    <path
       id="path5812"
       d="m 10.439673,24.056413 v 2.914034 h 0.312126 V 24.056413 Z M 8.9947998,24.85533 c -0.2109139,0 -0.3939102,0.0486 -0.5493205,0.145728 -0.1554103,0.09436 -0.2748622,0.223321 -0.3581176,0.387056 -0.083256,0.160962 -0.1245402,0.341756 -0.1245402,0.541569 0,0.197038 0.041285,0.377317 0.1245402,0.541053 0.083255,0.163736 0.2027073,0.294059 0.3581176,0.39119 0.1554103,0.09436 0.3384066,0.141594 0.5493205,0.141594 0.2136892,0 0.3972021,-0.04724 0.5498372,-0.141594 0.1554104,-0.09713 0.2743455,-0.227454 0.357601,-0.39119 0.083255,-0.163736 0.125057,-0.344015 0.125057,-0.541053 0,-0.199813 -0.041802,-0.380607 -0.125057,-0.541569 C 9.8189825,25.224379 9.7000474,25.095414 9.544637,25.001058 9.3920019,24.903927 9.208489,24.85533 8.9947998,24.85533 Z m 5.5991412,0 c -0.169286,0 -0.305045,0.03773 -0.407727,0.112655 -0.10268,0.07493 -0.177612,0.15394 -0.224792,0.237195 v -0.31626 h -0.312643 v 2.081527 h 0.312643 v -1.244885 c 0,-0.185938 0.05539,-0.330368 0.166398,-0.433049 0.111007,-0.102682 0.242689,-0.153996 0.395325,-0.153996 0.147084,0 0.269254,0.05403 0.366385,0.162264 0.09991,0.105457 0.149862,0.24581 0.149862,0.420646 v 1.24902 h 0.312126 v -1.244885 c 0,-0.185938 0.05539,-0.330368 0.166398,-0.433049 0.111007,-0.102682 0.243206,-0.153996 0.395841,-0.153996 0.147085,0 0.268738,0.05403 0.365869,0.162264 0.09991,0.105457 0.149862,0.24581 0.149862,0.420646 v 1.24902 h 0.312643 v -1.257288 c 0,-0.174836 -0.03773,-0.32606 -0.112655,-0.453719 -0.07215,-0.130433 -0.166629,-0.230343 -0.283187,-0.299723 -0.116558,-0.06938 -0.241446,-0.104387 -0.374654,-0.104387 -0.135984,0 -0.252202,0.02498 -0.349333,0.07493 -0.09713,0.04995 -0.176141,0.108577 -0.237195,0.175183 -0.05828,0.0666 -0.101437,0.123353 -0.129191,0.170533 -0.0666,-0.133209 -0.15972,-0.235837 -0.279052,-0.307992 C 14.860306,24.893055 14.7327,24.85533 14.593941,24.85533 Z m 3.571875,0 c -0.210914,0 -0.394426,0.0486 -0.549837,0.145728 -0.155411,0.09436 -0.274862,0.223321 -0.358118,0.387056 -0.08326,0.160962 -0.12454,0.341756 -0.12454,0.541569 0,0.197038 0.04316,0.377317 0.129191,0.541053 0.08881,0.163736 0.211818,0.294059 0.370003,0.39119 0.158186,0.09436 0.343057,0.141594 0.553972,0.141594 0.246991,0 0.44817,-0.05811 0.603581,-0.174667 0.158185,-0.119332 0.27356,-0.271915 0.345715,-0.457853 h -0.341581 c -0.0555,0.10268 -0.133154,0.187125 -0.233061,0.253731 -0.09991,0.06383 -0.223435,0.0956 -0.37052,0.0956 -0.138759,0 -0.260929,-0.02905 -0.366386,-0.08733 -0.10546,-0.06105 -0.189905,-0.141423 -0.253731,-0.241329 -0.06105,-0.102681 -0.100136,-0.215339 -0.116789,-0.337447 h 1.74408 v -0.124541 c 0,-0.199813 -0.04128,-0.380607 -0.124541,-0.541569 -0.08326,-0.163735 -0.202707,-0.2927 -0.358117,-0.387056 -0.152635,-0.09713 -0.335632,-0.145728 -0.549321,-0.145728 z m -12.3594521,0.03359 0.8159709,2.081527 h 0.3663859 l 0.81132,-2.081527 H 7.4589762 L 6.8052694,26.637134 6.1474284,24.88892 Z m 5.4658161,0 v 1.211296 c 0,0.197037 0.03857,0.363727 0.116272,0.499711 0.08048,0.133209 0.184467,0.234478 0.312126,0.303857 0.127658,0.06661 0.262576,0.09974 0.404109,0.09974 0.169287,0 0.307764,-0.03449 0.415996,-0.10387 0.108232,-0.06938 0.199988,-0.154341 0.274918,-0.254248 v 0.325045 h 0.312126 V 24.88892 h -0.312126 v 1.198893 c 0,0.124884 -0.02905,0.234307 -0.08733,0.328662 -0.0555,0.09436 -0.130436,0.169293 -0.224792,0.224793 -0.09436,0.05273 -0.199702,0.07906 -0.31626,0.07906 -0.169286,0 -0.309638,-0.05675 -0.420646,-0.170532 -0.108232,-0.116558 -0.162264,-0.269141 -0.162264,-0.457854 V 24.88892 Z m -2.2773802,0.249597 c 0.1554103,0 0.2862503,0.03637 0.3917074,0.108521 0.1082319,0.07215 0.1899591,0.167471 0.245463,0.286804 0.055504,0.119333 0.083199,0.251532 0.083199,0.395841 0,0.141535 -0.027695,0.273217 -0.083199,0.395325 -0.055504,0.119333 -0.1372309,0.215166 -0.245463,0.287321 -0.1054571,0.07216 -0.2362971,0.108004 -0.3917074,0.108004 -0.152635,0 -0.2829584,-0.03585 -0.3911906,-0.108004 -0.1082319,-0.07215 -0.1899591,-0.167988 -0.245463,-0.287321 -0.055504,-0.122108 -0.083199,-0.25379 -0.083199,-0.395325 0,-0.144309 0.027695,-0.276508 0.083199,-0.395841 0.055504,-0.119333 0.1372309,-0.21465 0.245463,-0.286804 0.1082322,-0.07215 0.2385556,-0.108521 0.3911906,-0.108521 z m 9.1710162,0 c 0.199813,0 0.36055,0.05947 0.482658,0.178801 0.122107,0.119333 0.197039,0.267839 0.224793,0.445451 h -1.415418 c 0.03053,-0.177612 0.10546,-0.326118 0.224793,-0.445451 0.122108,-0.119333 0.283361,-0.178801 0.483174,-0.178801 z"
       style="font-size:4.16278px;line-height:1.25;font-family:Questrial;-inkscape-font-specification:'Questrial, Normal';letter-spacing:0px;word-spacing:0px;fill:none;stroke-width:0.1;stroke:#000000;stroke-opacity:1;stroke-dasharray:none" />
    <path
       id="path5825"
       d="m 53.058777,30.353703 c -0.09583,0.0031 -0.171854,0.02983 -0.22841,0.0801 -0.06256,0.05362 -0.110664,0.122838 -0.144177,0.20774 -0.03351,0.0849 -0.05913,0.175744 -0.077,0.271818 -0.02011,0.09384 -0.04035,0.183299 -0.06046,0.2682 -0.02235,0.0849 -0.05159,0.15412 -0.08733,0.20774 -0.03575,0.05362 -0.08697,0.0801 -0.153995,0.0801 -0.160867,0 -0.241329,-0.132549 -0.241329,-0.398425 0,-0.140758 0.02561,-0.241464 0.077,-0.301791 0.05139,-0.06256 0.112989,-0.09855 0.184485,-0.107487 v -0.254764 c -0.08267,0.0089 -0.160014,0.03818 -0.23151,0.08733 -0.07149,0.04692 -0.129463,0.117518 -0.17415,0.211356 -0.04692,0.09161 -0.07028,0.211174 -0.07028,0.358635 0,0.216723 0.04222,0.380764 0.127124,0.492476 0.08267,0.109479 0.199988,0.164331 0.351917,0.164331 0.102774,0 0.18462,-0.02699 0.244946,-0.08061 0.05809,-0.05362 0.103946,-0.122838 0.13746,-0.207739 0.03128,-0.0849 0.05689,-0.174362 0.077,-0.268201 0.02011,-0.09607 0.04122,-0.186399 0.06356,-0.271301 0.02011,-0.0849 0.04935,-0.15412 0.08733,-0.20774 0.03798,-0.05362 0.09145,-0.08062 0.160713,-0.08062 0.05586,0 0.101713,0.01575 0.13746,0.04703 0.03575,0.03128 0.06222,0.07038 0.0801,0.117305 0.01787,0.04469 0.03051,0.09141 0.03721,0.14056 0.0067,0.04915 0.0098,0.09051 0.0098,0.124024 0,0.107244 -0.01575,0.194454 -0.04703,0.261482 -0.03352,0.06703 -0.07574,0.117382 -0.127124,0.150896 -0.05362,0.03128 -0.108478,0.05014 -0.164331,0.05684 v 0.261482 c 0.09831,-0.0067 0.190017,-0.0382 0.274919,-0.09405 0.08267,-0.05586 0.149634,-0.136318 0.201021,-0.241329 0.05139,-0.107244 0.077,-0.237543 0.077,-0.391707 0,-0.207786 -0.04222,-0.37321 -0.127124,-0.496094 -0.08714,-0.125118 -0.212587,-0.187585 -0.375688,-0.187585 -0.0066,0 -0.01273,-2.1e-4 -0.01912,0 z m -1.850533,1.729093 v 0.251148 h 0.941544 c -0.09161,0.06256 -0.163937,0.144404 -0.217557,0.244946 -0.05362,0.09831 -0.08062,0.216493 -0.08062,0.355017 0,0.163101 0.03911,0.30603 0.117306,0.428914 0.07596,0.12065 0.179788,0.214609 0.311609,0.281637 0.129587,0.06703 0.274766,0.100769 0.435632,0.100769 0.158633,0 0.303811,-0.03374 0.435632,-0.100769 0.131822,-0.06703 0.237028,-0.160987 0.315227,-0.281637 0.07596,-0.122884 0.113688,-0.265813 0.113688,-0.428914 0,-0.138524 -0.02648,-0.25671 -0.0801,-0.355017 -0.05362,-0.100541 -0.125086,-0.182386 -0.214457,-0.244946 h 0.267684 v -0.251148 z m 1.486214,0.238229 c 0.0072,-1.75e-4 0.01444,0 0.0217,0 0.113947,0 0.22002,0.02198 0.318327,0.06666 0.09607,0.04469 0.173417,0.110785 0.23151,0.197921 0.05809,0.0849 0.08682,0.190108 0.08682,0.315226 0,0.122885 -0.02872,0.228957 -0.08682,0.318327 -0.05809,0.08937 -0.135437,0.157202 -0.23151,0.204122 -0.09831,0.04692 -0.20438,0.07028 -0.318327,0.07028 -0.116181,0 -0.222253,-0.02336 -0.318327,-0.07028 -0.09607,-0.04692 -0.173417,-0.114751 -0.23151,-0.204122 -0.05809,-0.08937 -0.08682,-0.195442 -0.08682,-0.318327 0,-0.125118 0.02872,-0.230324 0.08682,-0.315226 0.05809,-0.08714 0.135437,-0.153234 0.23151,-0.197921 0.09007,-0.04189 0.188881,-0.06404 0.296623,-0.06666 z"
       style="font-size:3.35139px;line-height:1.25;font-family:Questrial;-inkscape-font-specification:'Questrial, Normal';letter-spacing:0px;word-spacing:0px;fill:none;stroke-width:0.1;stroke:#000000;stroke-opacity:1;stroke-dasharray:none" />
    <path
       id="path5830"
       d="m 49.892562,30.443103 c -0.105009,0 -0.18772,0.02699 -0.248047,0.08061 -0.06256,0.05362 -0.110664,0.122838 -0.144177,0.20774 -0.03351,0.0849 -0.05913,0.175228 -0.077,0.271301 -0.02011,0.09384 -0.04036,0.183299 -0.06046,0.2682 -0.02235,0.0849 -0.05107,0.15412 -0.08682,0.20774 -0.03575,0.05362 -0.08749,0.08062 -0.154513,0.08062 -0.160866,0 -0.241328,-0.133066 -0.241328,-0.398942 0,-0.140757 0.02561,-0.240947 0.077,-0.301274 0.05139,-0.06256 0.112989,-0.09855 0.184485,-0.107487 v -0.254764 c -0.08267,0.0089 -0.159497,0.03818 -0.230993,0.08733 -0.0715,0.04692 -0.12998,0.117001 -0.174667,0.21084 -0.04692,0.0916 -0.07028,0.211173 -0.07028,0.358634 0,0.216723 0.04274,0.381281 0.127641,0.492993 0.08267,0.109479 0.199987,0.163814 0.351917,0.163814 0.102774,0 0.184103,-0.02648 0.244429,-0.0801 0.05809,-0.05362 0.103946,-0.122837 0.137459,-0.207739 0.03128,-0.0849 0.05689,-0.174362 0.077,-0.268201 0.02011,-0.09607 0.04122,-0.186399 0.06356,-0.271301 0.02011,-0.0849 0.04935,-0.154636 0.08733,-0.208256 0.03798,-0.05362 0.09145,-0.0801 0.160713,-0.0801 0.05586,0 0.101713,0.01575 0.13746,0.04703 0.03575,0.03128 0.06274,0.07038 0.08062,0.117305 0.01787,0.04469 0.02999,0.09141 0.03669,0.14056 0.0067,0.04915 0.01034,0.09051 0.01034,0.124024 0,0.107244 -0.01575,0.194454 -0.04703,0.261482 -0.03352,0.06703 -0.07625,0.117382 -0.127641,0.150896 -0.05363,0.03128 -0.107961,0.05014 -0.163814,0.05684 v 0.261482 c 0.09831,-0.0067 0.1895,-0.0382 0.274402,-0.09405 0.08267,-0.05586 0.149634,-0.136319 0.201021,-0.241329 0.05139,-0.107244 0.07751,-0.23806 0.07751,-0.392224 0,-0.207786 -0.04274,-0.372692 -0.127641,-0.495577 -0.08714,-0.125118 -0.212071,-0.188102 -0.375171,-0.188102 z m -0.362252,1.625741 c -0.160866,0 -0.306045,0.03322 -0.435632,0.100252 -0.131821,0.06703 -0.235645,0.16237 -0.311609,0.285254 -0.0782,0.12065 -0.117306,0.262196 -0.117306,0.425297 0,0.138524 0.027,0.258093 0.08062,0.358634 0.05362,0.09831 0.125953,0.178769 0.217557,0.241329 h -0.941544 v 0.251148 h 2.34611 V 33.47961 h -0.268201 c 0.08937,-0.06256 0.160837,-0.143022 0.214457,-0.241329 0.05362,-0.100541 0.08062,-0.22011 0.08062,-0.358634 0,-0.163101 -0.03824,-0.304647 -0.114205,-0.425297 -0.0782,-0.122884 -0.182889,-0.218226 -0.31471,-0.285254 -0.131821,-0.06703 -0.277516,-0.100252 -0.436149,-0.100252 z m 0,0.251147 c 0.113947,0 0.220536,0.02336 0.318844,0.07028 0.09607,0.04692 0.1729,0.115269 0.230993,0.204639 0.05809,0.08714 0.08733,0.193209 0.08733,0.318326 0,0.122885 -0.02924,0.228091 -0.08733,0.315227 -0.05809,0.08713 -0.13492,0.152717 -0.230993,0.197404 -0.09831,0.04469 -0.204897,0.06718 -0.318844,0.06718 -0.116181,0 -0.222254,-0.02249 -0.318327,-0.06718 -0.09607,-0.04469 -0.1729,-0.110268 -0.230993,-0.197404 -0.05809,-0.08714 -0.08733,-0.192342 -0.08733,-0.315227 0,-0.125117 0.02924,-0.23119 0.08733,-0.318326 0.05809,-0.08937 0.13492,-0.157719 0.230993,-0.204639 0.09607,-0.04692 0.202146,-0.07028 0.318327,-0.07028 z"
       style="font-size:3.35139px;line-height:1.25;font-family:Questrial;-inkscape-font-specification:'Questrial, Normal';letter-spacing:0px;word-spacing:0px;fill:none;stroke-width:0.1;stroke:#000000;stroke-opacity:1;stroke-dasharray:none" />
    <path
       id="path5835"
       d="m 44.848425,30.263269 v 0.251148 h 0.941545 c -0.09161,0.06256 -0.163938,0.144405 -0.217558,0.244946 -0.05362,0.09831 -0.08062,0.216493 -0.08062,0.355017 0,0.163101 0.03911,0.30603 0.117305,0.428914 0.07596,0.12065 0.179788,0.214609 0.311609,0.281637 0.129587,0.06703 0.274766,0.100769 0.435633,0.100769 0.158632,0 0.303811,-0.03374 0.435632,-0.100769 0.131821,-0.06703 0.237028,-0.160987 0.315226,-0.281637 0.07596,-0.122884 0.114205,-0.265813 0.114205,-0.428914 h -5.17e-4 c 0,-0.138524 -0.02648,-0.25671 -0.0801,-0.355017 -0.05362,-0.100541 -0.125087,-0.182387 -0.214457,-0.244946 h 0.2682 v -0.251148 z m 1.507919,0.237712 c 0.113947,0 0.220019,0.02249 0.318326,0.06718 0.09607,0.04469 0.173418,0.110785 0.231511,0.197921 0.05809,0.0849 0.08733,0.189591 0.08733,0.314709 0,0.122884 -0.02924,0.229473 -0.08733,0.318844 -0.05809,0.08937 -0.135437,0.157202 -0.231511,0.204122 -0.09831,0.04692 -0.204379,0.07028 -0.318326,0.07028 -0.116182,0 -0.222254,-0.02336 -0.318327,-0.07028 -0.09607,-0.04692 -0.172901,-0.114752 -0.230994,-0.204122 -0.05809,-0.08937 -0.08733,-0.19596 -0.08733,-0.318844 0,-0.125118 0.02924,-0.229807 0.08733,-0.314709 0.05809,-0.08713 0.134921,-0.153234 0.230994,-0.197921 0.09607,-0.04469 0.202145,-0.06718 0.318327,-0.06718 z m -0.02997,1.652612 c -0.148979,0.0039 -0.284172,0.03741 -0.40566,0.100252 -0.131821,0.06703 -0.235644,0.163236 -0.311609,0.288355 -0.0782,0.122884 -0.117305,0.270312 -0.117305,0.44235 0,0.169804 0.03911,0.317232 0.117305,0.44235 0.07596,0.125119 0.179788,0.221327 0.311609,0.288355 0.129587,0.06703 0.274766,0.100252 0.435633,0.100252 0.158632,0 0.303811,-0.03322 0.435632,-0.100252 0.131821,-0.06703 0.237028,-0.163236 0.315226,-0.288355 0.07596,-0.125118 0.114205,-0.272546 0.114205,-0.44235 0,-0.172038 -0.03824,-0.319466 -0.114205,-0.44235 -0.0782,-0.125119 -0.183405,-0.221327 -0.315226,-0.288355 -0.131821,-0.06703 -0.277,-0.100252 -0.435632,-0.100252 -0.01006,0 -0.02004,-2.62e-4 -0.02997,0 z m 0.02997,0.251147 c 0.113947,0 0.220019,0.02249 0.318326,0.06718 0.09607,0.04468 0.173418,0.110267 0.231511,0.197404 0.05809,0.0849 0.08733,0.190107 0.08733,0.315226 0,0.122885 -0.02924,0.22809 -0.08733,0.315226 -0.05809,0.08713 -0.135437,0.152718 -0.231511,0.197404 -0.09831,0.04469 -0.204379,0.06718 -0.318326,0.06718 -0.116182,0 -0.222254,-0.02249 -0.318327,-0.06718 -0.09607,-0.04469 -0.172901,-0.110268 -0.230994,-0.197404 -0.05809,-0.08714 -0.08733,-0.192341 -0.08733,-0.315226 0,-0.125119 0.02924,-0.230325 0.08733,-0.315226 0.05809,-0.08714 0.134921,-0.152718 0.230994,-0.197404 0.09607,-0.04469 0.202145,-0.06718 0.318327,-0.06718 z"
       style="font-size:3.35139px;line-height:1.25;font-family:Questrial;-inkscape-font-specification:'Questrial, Normal';letter-spacing:0px;word-spacing:0px;fill:none;stroke-width:0.1;stroke:#000000;stroke-opacity:1;stroke-dasharray:none" />
    <path
       id="path3367-1"
       style="color:#000000;display:inline;fill:none;stroke:#000000;stroke-width:0.1;stroke-miterlimit:4;stroke-dasharray:none;stroke-opacity:1"
       d="m 49.401817,34.425373 v 0.900203 H 46.59992 V 34.42744 h -0.198954 v 1.099157 h 0.198954 2.799829 v 5.998084 h 0.201022 l -0.0021,-5.998084 h 2.89388 10e-4 0.199988 V 34.42744 h -0.201021 v 0.898136 h -2.891747 v -0.900203 z" />
  </g>
</svg>
