<?xml version="1.0" encoding="UTF-8" standalone="no"?>
<!-- Created with Inkscape (http://www.inkscape.org/) -->

<svg
   width="210mm"
   height="297mm"
   viewBox="0 0 210 297"
   version="1.1"
   id="svg2661"
   inkscape:version="1.1 (1:1.1+202105261517+ce6663b3b7)"
   sodipodi:docname="graphic.svg"
   xmlns:inkscape="http://www.inkscape.org/namespaces/inkscape"
   xmlns:sodipodi="http://sodipodi.sourceforge.net/DTD/sodipodi-0.dtd"
   xmlns="http://www.w3.org/2000/svg"
   xmlns:svg="http://www.w3.org/2000/svg">
  <sodipodi:namedview
     id="namedview2663"
     pagecolor="#505050"
     bordercolor="#eeeeee"
     borderopacity="1"
     inkscape:pageshadow="0"
     inkscape:pageopacity="0"
     inkscape:pagecheckerboard="0"
     inkscape:document-units="mm"
     showgrid="true"
     inkscape:zoom="1.5518659"
     inkscape:cx="165.60709"
     inkscape:cy="649.86285"
     inkscape:window-width="3840"
     inkscape:window-height="2105"
     inkscape:window-x="0"
     inkscape:window-y="360"
     inkscape:window-maximized="1"
     inkscape:current-layer="layer1">
    <inkscape:grid
       type="xygrid"
       id="grid127" />
  </sodipodi:namedview>
  <defs
     id="defs2658" />
  <g
     inkscape:label="Layer 1"
     inkscape:groupmode="layer"
     id="layer1">
    <path
       style="fill:#000000;stroke-width:0.264583"
       d="m 99.149352,192.58863 c -7.84307,-0.30471 -18.41979,-1.36829 -30.149668,-3.03179 -4.360637,-0.61841 -5.910106,-0.75049 -6.217709,-0.52999 -1.203877,0.86296 -3.534518,1.87482 -4.967823,2.15681 -5.487299,1.07956 -11.190446,-3.03353 -12.261043,-8.84263 -0.39607,-2.14909 0.04942,-4.56987 1.241956,-6.74882 0.917893,-1.67713 0.924264,-1.71117 0.643675,-3.43958 -0.328775,-2.02524 -1.190733,-10.81629 -1.62393,-16.56236 -0.777224,-10.30935 -0.1296,-25.85609 1.632009,-39.17772 l 0.282465,-2.13606 -0.930644,-1.7004 c -1.196244,-2.18568 -1.64207,-4.60368 -1.245531,-6.75532 1.070597,-5.80909 6.773744,-9.922191 12.261043,-8.842631 1.43138,0.281607 3.766996,1.295136 4.962479,2.153443 0.301166,0.216224 2.158006,0.04946 7.276042,-0.653459 15.564889,-2.13771 25.015519,-2.921706 35.049967,-2.907626 10.21486,0.01433 20.60227,0.937574 35.24869,3.132929 l 6.01222,0.90117 1.32007,-0.888339 c 3.92726,-2.64285 8.64572,-2.458412 12.65732,0.494759 2.63098,1.936824 4.02837,4.776554 4.02837,8.186324 0,2.4019 -0.52713,4.21968 -1.75082,6.03772 -0.80417,1.19474 -0.9283,1.57057 -0.81501,2.46772 0.0735,0.58208 0.43988,3.20146 0.81416,5.82083 1.44482,10.1113 2.16162,20.01104 1.89661,26.19374 -0.30296,7.0679 -0.76463,11.2422 -2.70688,24.47478 -0.11082,0.75501 0.0397,1.188 0.81186,2.33543 1.22302,1.8174 1.75008,3.63549 1.75008,6.0369 0,3.40977 -1.39739,6.24951 -4.02837,8.18632 -4.05486,2.98502 -8.69956,3.15814 -12.68968,0.47298 l -1.35243,-0.91012 -2.14341,0.39923 c -2.95218,0.54987 -10.1984,1.63346 -14.18194,2.12075 -11.94046,1.46064 -21.21288,1.92842 -30.824128,1.55501 z m 15.742878,-5.38592 c 8.0623,-0.55611 21.29924,-2.20698 28.83584,-3.59633 1.96247,-0.36178 3.84474,-0.58835 4.18282,-0.5035 0.33808,0.0849 1.1254,0.62504 1.7496,1.2004 2.52062,2.32342 5.41136,2.44085 7.65545,0.31098 2.41506,-2.29214 2.35152,-5.62478 -0.15609,-8.18611 -1.38141,-1.41101 -1.3819,-1.44289 -0.13528,-8.79934 2.26697,-13.37763 2.69555,-23.3936 1.51707,-35.45416 -0.46143,-4.72227 -1.57966,-12.96958 -2.1222,-15.65197 -0.28424,-1.40531 -0.5168,-2.74987 -0.5168,-2.9879 0,-0.23804 0.53361,-1.00327 1.1858,-1.70051 0.65219,-0.69724 1.36656,-1.70034 1.5875,-2.22912 1.14697,-2.74509 -0.25378,-5.99502 -3.09553,-7.18209 -2.01255,-0.84069 -3.96392,-0.36752 -5.91992,1.43546 -1.44707,1.33387 -2.04891,1.47088 -4.25941,0.96968 -3.95627,-0.89704 -17.69462,-2.67643 -28.25989,-3.66022 -5.51287,-0.51334 -19.959138,-0.43904 -26.193918,0.13471 -7.12904,0.65605 -13.29669,1.38867 -20.76979,2.46714 -3.56526,0.51452 -6.972763,0.9981 -7.57223,1.07463 -0.961754,0.12278 -1.210689,0.033 -2.116666,-0.76337 -1.813703,-1.59429 -2.502577,-1.91808 -4.069436,-1.91276 -2.627626,0.009 -4.649496,1.5518 -5.416001,4.1329 -0.521311,1.75544 -0.200799,3.02912 1.232021,4.89593 1.223241,1.59374 1.213941,1.27872 0.243841,8.2596 -1.655685,11.91437 -2.1179,24.26026 -1.342888,35.86893 0.363039,5.43784 1.269382,14.5043 1.626644,16.27187 0.681955,3.37402 0.635201,3.85191 -0.524953,5.36573 -1.256304,1.63929 -1.634288,2.84707 -1.391558,4.44648 0.24399,1.60771 0.992063,2.78095 2.345509,3.67855 2.473186,1.64022 4.610051,1.35275 7.263043,-0.97709 0.546122,-0.4796 1.206769,-0.872 1.468103,-0.872 0.261335,0 2.79107,0.35348 5.621634,0.78552 10.211057,1.55853 22.422627,2.89089 29.885017,3.26064 4.158728,0.20605 13.948688,0.1597 17.462668,-0.0827 z m -10.40695,-28.21695 c -0.097,-0.097 -0.17639,-2.96308 -0.17639,-6.36904 v -6.19264 l 0.72761,-1.23774 0.7276,-1.23774 0.0705,7.27229 c 0.0388,3.99976 0.0128,7.42281 -0.0578,7.60677 -0.13537,0.35277 -0.99196,0.45763 -1.29149,0.1581 z m -52.780035,-15.99436 0.0837,-0.84603 2.235729,10e-4 2.235729,0.001 6.35e-4,0.76794 6.35e-4,0.76795 -2.320051,0.0767 -2.320051,0.0767 0.0837,-0.84603 z m 6.382394,0.0312 0.299607,-0.79375 h 4.662024 4.662023 l 0.307052,0.67391 c 0.168881,0.37065 0.307054,0.72784 0.307054,0.79375 0,0.0659 -2.370907,0.11984 -5.268683,0.11984 h -5.268684 z m 23.731513,0.51178 c 0,-0.15509 0.12325,-0.51228 0.27389,-0.79375 0.2547,-0.47593 0.59693,-0.51178 4.88548,-0.51178 4.28856,0 4.63078,0.0358 4.88548,0.51178 0.56074,1.04774 0.43364,1.07572 -4.88548,1.07572 -3.47537,0 -5.15937,-0.092 -5.15937,-0.28197 z m 23.812658,0 c 0,-0.15509 0.12325,-0.51228 0.27389,-0.79375 0.2544,-0.47536 0.59596,-0.51178 4.79948,-0.51178 3.99979,0 4.56642,0.0538 4.87707,0.46302 0.81587,1.07478 0.60412,1.12448 -4.79106,1.12448 -3.47537,0 -5.15938,-0.092 -5.15938,-0.28197 z m 23.8125,0.16691 c 0,-0.0633 0.11612,-0.42048 0.25803,-0.79375 l 0.25804,-0.67869 h 4.62745 c 4.30423,0 4.64658,0.0358 4.90134,0.51178 0.56073,1.04774 0.43363,1.07572 -4.88549,1.07572 -2.83765,0 -5.15937,-0.0518 -5.15937,-0.11506 z m -59.002244,-0.39246 c 0,-0.13362 -0.07227,-0.43128 -0.1606,-0.66146 -0.14292,-0.37245 0.384474,-0.41852 4.790806,-0.41852 4.40633,0 4.93373,0.0461 4.79081,0.41852 -0.0883,0.23018 -0.1606,0.52784 -0.1606,0.66146 0,0.13828 -1.99474,0.24294 -4.63021,0.24294 -2.63547,0 -4.630206,-0.10466 -4.630206,-0.24294 z m 23.416376,-0.28386 c -0.092,-0.28974 -0.093,-0.64693 -0.002,-0.79375 0.23277,-0.37664 10.188088,-0.36195 10.188088,0.015 0,0.15509 -0.12325,0.51227 -0.27389,0.79375 -0.25523,0.47671 -0.59843,0.51177 -5.009518,0.51177 -4.4959,0 -4.74382,-0.0266 -4.90256,-0.5268 z m 23.846378,-0.0685 c -0.0877,-0.32743 -0.16116,-0.68461 -0.16315,-0.79375 -0.002,-0.10914 2.31811,-0.19844 5.15577,-0.19844 5.31911,0 5.44621,0.028 4.88548,1.07573 -0.25509,0.47662 -0.59818,0.51177 -4.99623,0.51177 -4.67357,0 -4.72398,-0.006 -4.88187,-0.59531 z m 23.91963,0.0835 c -0.56155,-1.04928 -0.43815,-1.07573 5.01778,-1.07573 2.91041,0 5.29166,0.0539 5.29166,0.11984 0,0.0659 -0.13817,0.4231 -0.30705,0.79375 l -0.30705,0.67391 h -4.71072 c -4.38657,0 -4.72957,-0.0352 -4.98462,-0.51177 z m 11.89694,-0.14969 c 0,-0.64676 0.0441,-0.66146 1.98438,-0.66146 1.94027,0 1.98437,0.0147 1.98437,0.66146 0,0.64676 -0.0441,0.66146 -1.98437,0.66146 -1.94028,0 -1.98438,-0.0147 -1.98438,-0.66146 z m -49.2125,-8.99583 v -6.74688 h 0.79375 0.79375 v 5.43276 c 0,5.28016 -0.0187,5.46966 -0.66591,6.74687 -0.36625,0.72277 -0.72344,1.31412 -0.79375,1.31412 -0.0703,0 -0.12784,-3.03609 -0.12784,-6.74687 z"
       id="path27" />
    <path
       style="fill:#000000;stroke-width:0.264583"
       d="m 46.821391,213.33302 c -5.004395,-0.75 -7.512852,-5.02104 -6.110673,-10.40437 0.720424,-2.76589 2.446578,-4.48038 5.419481,-5.38286 2.768023,-0.84028 9.648823,-0.43413 10.715448,0.6325 0.244827,0.24482 0.397053,0.89343 0.397053,1.69176 0,1.69815 -0.434884,1.95445 -2.697889,1.59 -1.394209,-0.22453 -1.794511,-0.19482 -2.584759,0.19185 -2.420116,1.18414 -2.409698,5.35831 0.01649,6.60518 0.349774,0.17975 1.594406,0.32858 2.765849,0.33073 1.298819,0.002 2.253783,0.12778 2.447396,0.3214 0.174625,0.17462 0.3175,0.94547 0.3175,1.71299 0,1.26941 -0.06872,1.43104 -0.76053,1.78879 -1.499651,0.7755 -7.304776,1.31477 -9.925362,0.92203 z m 18.435932,0.0138 c -2.751476,-0.37305 -4.876176,-1.52607 -6.08195,-3.30052 -1.103282,-1.62363 -1.470509,-3.78492 -1.361222,-8.0114 0.08765,-3.38987 0.154801,-3.85197 0.607864,-4.18326 0.77772,-0.56868 7.88346,-0.53227 8.459078,0.0433 0.34268,0.34268 0.415774,1.14633 0.415774,4.57134 0,3.22716 0.08686,4.27957 0.388782,4.71062 0.562871,0.80362 1.349308,0.91913 2.121614,0.31164 0.657249,-0.51699 0.664647,-0.56723 0.668504,-4.53847 0.0051,-5.26047 0.03162,-5.31416 2.673964,-5.41515 1.621621,-0.062 2.073318,0.009 2.374345,0.37112 0.289904,0.3491 0.37175,1.53099 0.37175,5.36821 0,4.36075 -0.0592,5.03995 -0.520393,5.9701 -1.584042,3.19479 -5.400223,4.74208 -10.11811,4.10242 z m 16.062462,-0.0233 c -1.984219,-0.2883 -4.369946,-1.35249 -4.789501,-2.13644 -0.169312,-0.31636 -0.216713,-1.01855 -0.114687,-1.69891 0.251826,-1.67929 0.794084,-1.88283 3.047773,-1.14399 1.953993,0.6406 2.650165,0.56676 2.650165,-0.28107 0,-0.38969 -0.554289,-0.89516 -1.943275,-1.77212 -2.160865,-1.36429 -2.949967,-2.3334 -3.206943,-3.93852 -0.563341,-3.51873 3.131473,-5.68663 9.021109,-5.29306 2.681611,0.1792 4.650182,0.67673 5.414545,1.36847 0.954236,0.86357 0.400251,3.54923 -0.732115,3.54923 -0.22688,0 -0.982755,-0.20253 -1.679723,-0.45007 -1.058535,-0.37596 -1.336699,-0.39241 -1.689156,-0.0999 -0.91458,0.75904 -0.502939,1.29773 1.922444,2.51583 1.289413,0.64759 2.647469,1.53762 3.017901,1.97785 1.65026,1.96123 0.941107,4.82767 -1.525828,6.1675 -2.161609,1.174 -6.178365,1.70223 -9.392709,1.2352 z m 56.091675,0.12793 c -4.15798,-0.41627 -7.1448,-1.95489 -8.58922,-4.42462 -2.62305,-4.48499 -0.28335,-9.5059 5.28193,-11.33479 1.51293,-0.4972 2.40924,-0.60633 4.89479,-0.59601 3.86187,0.0161 5.97416,0.65258 7.89423,2.37888 1.82425,1.64017 2.52459,3.35654 2.36612,5.79885 -0.13065,2.01362 -0.57159,3.1043 -1.93674,4.79061 -1.83427,2.26577 -6.20197,3.75841 -9.91111,3.38708 z m 4.82864,-6.9714 c 2.03649,-2.25903 -0.68897,-5.0335 -3.51102,-3.57416 -0.89927,0.46503 -1.31762,1.13622 -1.31762,2.11393 0,2.35154 3.16287,3.30802 4.82864,1.46023 z m -47.704938,6.12253 -0.647668,-0.52437 v -6.92385 c 0,-6.54845 0.02785,-6.94422 0.513591,-7.29951 0.382939,-0.28009 1.412425,-0.37565 4.046921,-0.37565 3.398664,0 3.558084,0.0247 4.182764,0.64943 0.61036,0.61036 0.64944,0.82356 0.64944,3.54357 0,3.17403 0.0217,3.21533 1.68851,3.21533 1.34114,0 1.48649,-0.33697 1.48649,-3.44638 0,-2.5966 0.0468,-2.85533 0.61236,-3.38667 0.56412,-0.52996 0.88203,-0.57496 4.0349,-0.57123 1.88239,0.002 3.59547,0.11345 3.80685,0.24717 0.52404,0.33151 0.81627,5.30973 0.61289,10.44086 -0.20381,5.14186 0.005,4.91833 -4.58648,4.91833 -1.90134,0 -3.68728,-0.12325 -3.96875,-0.27389 -0.40886,-0.21881 -0.51177,-0.56085 -0.51177,-1.70089 0,-1.60208 -0.43352,-2.25855 -1.49151,-2.25855 -1.30702,0 -1.68315,0.42961 -1.68755,1.92754 -0.006,2.17827 0.0252,2.16166 -4.299054,2.25831 -3.461057,0.0774 -3.85114,0.0388 -4.441934,-0.43955 z m 23.139698,-0.0698 c -0.45391,-0.50143 -0.51334,-1.09573 -0.59773,-5.9766 -0.10292,-5.9536 0.0588,-8.07831 0.66083,-8.68031 0.55999,-0.55999 7.68229,-0.57816 8.44428,-0.0215 0.4797,0.35041 0.51912,0.79851 0.59743,6.79068 0.0461,3.52853 0.0162,6.68513 -0.0665,7.01466 -0.33008,1.31514 -0.71192,1.4299 -4.75768,1.4299 -3.50295,0 -3.81307,-0.0403 -4.28058,-0.55679 z m 33.11306,-0.0312 c -0.34618,-0.49424 -0.41188,-1.64551 -0.41188,-7.21717 0,-8.1029 -0.10918,-7.80482 2.85928,-7.80608 2.03317,-8.6e-4 2.04059,0.002 6.44246,2.24896 2.42383,1.2374 4.47765,2.24982 4.56407,2.24982 0.0864,0 0.15711,-0.86915 0.15711,-1.93145 0,-1.14947 0.12855,-2.06001 0.3175,-2.24896 0.44474,-0.44474 4.02888,-0.42202 4.40229,0.0279 0.39354,0.4742 0.69018,8.13344 0.45058,11.63404 -0.25572,3.73598 -0.219,3.70154 -3.82252,3.58477 l -2.80306,-0.0908 -3.25392,-1.91585 c -1.78966,-1.05372 -3.36724,-1.91586 -3.50573,-1.91586 -0.13849,0 -0.25181,0.77686 -0.25181,1.72634 0,1.60967 -0.0459,1.74378 -0.67868,1.98438 -0.37327,0.14192 -1.43809,0.25803 -2.36625,0.25803 -1.44394,0 -1.74702,-0.0849 -2.09944,-0.58803 z"
       id="path3485" />
    <path
       style="fill:#000000;stroke-width:0.264583"
       d="m 64.223566,95.931079 c -0.169768,-0.752224 -1.198643,-6.935576 -1.198643,-7.203629 0,-0.109742 -0.654548,-0.11775 -1.45455,-0.0178 -1.419239,0.177322 -1.461553,0.16361 -1.743025,-0.564827 -0.313276,-0.810742 -0.473312,-3.906424 -0.21542,-4.166989 0.236636,-0.239088 10.598016,-2.009252 10.849843,-1.853614 0.365893,0.226134 0.762206,2.026855 0.763759,3.470276 0.0016,1.466997 0.02802,1.440246 -1.784461,1.805037 -0.472943,0.09519 -0.859896,0.219846 -0.859896,0.277021 0,0.05718 0.298621,1.803887 0.663604,3.881581 0.607428,3.457844 0.627359,3.804297 0.235453,4.09268 -0.55038,0.404994 -2.744284,0.875573 -4.08204,0.875573 -0.8626,0 -1.063216,-0.101675 -1.174624,-0.595313 z m 79.254994,0.05983 c -1.62222,-0.341436 -3.46736,-1.314765 -4.07173,-2.147873 -1.05226,-1.450538 -1.01332,-4.693282 0.0821,-6.840582 1.01748,-1.994415 3.56769,-2.767618 6.99523,-2.120889 3.17871,0.59978 4.5577,2.235647 3.81706,4.528092 -0.54748,1.694564 -1.40713,2.183887 -4.12546,2.348257 -2.22235,0.13438 -2.27298,0.152004 -1.79738,0.625706 0.36308,0.361642 0.70011,0.442589 1.30596,0.313669 2.54142,-0.540792 2.50375,-0.546943 2.93235,0.478846 0.45928,1.099202 0.52158,2.448773 0.12437,2.694259 -0.47708,0.294851 -4.04595,0.37658 -5.26255,0.120515 z m 1.64438,-7.236647 c 0.25438,-0.763136 0.074,-1.230939 -0.312,-0.809184 -0.12431,0.135819 -0.30611,0.586019 -0.40401,1.000443 -0.23439,0.992277 0.37584,0.829274 0.71601,-0.191259 z M 72.777775,88.258163 c -0.370609,-3.674401 -0.623832,-6.820306 -0.562717,-6.9909 0.272846,-0.761613 4.650211,-1.680386 5.232366,-1.098231 0.08531,0.08531 0.22636,1.004908 0.313436,2.043541 l 0.158318,1.888424 0.656302,-0.430026 c 0.360967,-0.236514 1.348776,-0.492817 2.195132,-0.569562 1.438114,-0.130403 1.589866,-0.0885 2.318607,0.640241 0.538837,0.538837 0.867212,1.224228 1.062752,2.218197 0.357541,1.817458 0.936498,7.641193 0.775629,7.802062 -0.261196,0.261196 -3.194761,0.672987 -4.249456,0.596506 l -1.116763,-0.08098 -0.446245,-3.836458 c -0.522545,-4.492426 -0.431873,-3.96875 -0.687167,-3.96875 -0.114053,0 -0.03833,1.730055 0.168282,3.844566 0.206608,2.114511 0.309357,3.910859 0.228331,3.991886 -0.30004,0.30004 -2.221699,0.61778 -3.773295,0.623903 l -1.599678,0.0063 z m 60.097165,6.17575 c -0.52603,-0.14923 -0.65402,-0.346968 -0.62514,-0.965814 0.02,-0.427991 0.12668,-2.236681 0.2371,-4.019311 0.14723,-2.376645 0.1199,-3.241146 -0.10247,-3.241146 -0.16678,0 -0.31528,0.386953 -0.32999,0.859896 -0.0147,0.472943 -0.16354,2.229114 -0.33073,3.902604 l -0.30398,3.042708 -2.45524,-0.02107 c -1.44332,-0.01239 -2.57839,-0.144222 -2.75404,-0.319869 -0.222,-0.222006 -0.18822,-1.507828 0.13146,-5.003215 0.34913,-3.817345 0.51626,-4.767308 0.88638,-5.037943 0.68297,-0.4994 4.03429,-0.438038 4.61162,0.08444 0.35699,0.323071 0.58303,0.353106 0.99562,0.132292 0.29359,-0.157119 1.24935,-0.285671 2.12393,-0.285671 1.30046,0 1.72537,0.116502 2.3325,0.63952 0.73679,0.634731 0.74228,0.662967 0.73258,3.770312 -0.005,1.721936 -0.10415,3.934464 -0.2195,4.91673 l -0.20972,1.785937 -2.02946,-0.02637 c -1.11621,-0.01451 -2.32712,-0.110816 -2.69092,-0.214022 z M 88.028048,93.519839 C 86.925309,93.00777 85.81748,91.761967 85.509295,90.687388 85.36664,90.18998 85.249923,89.003781 85.249923,88.051389 c 0,-3.625317 1.713724,-5.217709 5.896086,-5.478637 3.562817,-0.222277 5.151877,0.63357 5.408817,2.913112 0.25966,2.303724 -1.15127,3.604596 -4.370174,4.029271 -1.1595,0.152974 -1.346875,0.248242 -1.092084,0.555249 0.427099,0.514621 1.140492,0.463284 2.385028,-0.171629 1.36327,-0.695491 1.87969,-0.511378 2.65269,0.945729 0.71517,1.34811 0.57157,1.847504 -0.71831,2.498048 -1.08757,0.548508 -6.314268,0.674015 -7.383928,0.177307 z m 3.307291,-7.063229 c 0,-0.8436 -0.370842,-1.043185 -0.639151,-0.343986 -0.212923,0.554872 0.07087,1.473336 0.393618,1.27387 0.135043,-0.08346 0.245533,-0.501909 0.245533,-0.929884 z m 25.003141,6.808507 c -2.3353,-0.913819 -3.02786,-2.106504 -3.0369,-5.229923 -0.008,-2.677529 0.68158,-4.050713 2.50428,-4.988706 1.1206,-0.576681 1.59831,-0.656196 3.76055,-0.625953 4.49676,0.0629 5.97324,1.389611 5.95594,5.351798 -0.0131,2.989212 -0.87558,4.535043 -3.03349,5.436676 -1.1627,0.485806 -4.96366,0.520481 -6.15038,0.05611 z m 3.52986,-5.08021 c 0.11001,-2.178461 -0.0644,-3.035017 -0.52433,-2.575083 -0.35619,0.356183 -0.62263,3.480846 -0.37945,4.449781 0.3168,1.262224 0.79552,0.269222 0.90378,-1.874698 z m -15.65659,4.990096 c -0.097,-0.09701 -0.17639,-1.995792 -0.17639,-4.219506 v -4.043118 l -1.38907,-0.07997 -1.38906,-0.07997 -0.0776,-1.91412 c -0.12708,-3.132408 -0.43395,-2.980672 6.0281,-2.980672 h 5.53495 l 0.17405,0.927808 c 0.16312,0.869484 -0.0192,2.9211 -0.33196,3.736227 -0.0918,0.239229 -0.58084,0.363048 -1.43392,0.363048 h -1.29461 v 4.067969 4.067969 l -0.82682,0.165364 c -1.09976,0.219951 -4.59465,0.211954 -4.81762,-0.01103 z"
       id="path3603" />
    <rect
       style="fill:#000000;fill-opacity:1;stroke-width:1.21278"
       id="rect2051"
       width="1.4708405"
       height="32.000004"
       x="104.34915"
       y="127.1507" />
    <rect
       style="fill:#000000;fill-opacity:1;stroke-width:0.866025"
       id="rect2155"
       width="106"
       height="1.5"
       x="51.74427"
       y="142.1456" />
    <path
       style="fill:#e74d93;fill-opacity:1;stroke-width:0.264583"
       d="m 73.960658,152 c -0.834228,-0.5087 -1.720933,-1.57582 -2.534811,-3.05055 -1.064642,-1.92913 -3.388829,-6.87345 -3.388829,-7.20917 0,-0.53431 -2.296016,-4.52577 -3.358732,-5.83891 -1.096376,-1.35474 -1.712926,-1.41596 -2.777951,-0.27585 -0.865589,0.92662 -3.383192,5.73597 -3.396732,6.48875 -0.01272,0.70727 -0.642014,1.39387 -1.277524,1.39387 -0.871795,0 -0.716997,-0.60919 1.063711,-4.18612 1.887537,-3.79152 3.632309,-5.86805 4.93054,-5.86805 0.981626,0 2.353568,1.26123 3.479394,3.1986 0.457556,0.78739 0.946275,1.6102 1.086041,1.82849 0.899061,1.40411 2.632503,4.84604 2.632503,5.22711 0,0.25155 0.532831,1.52984 1.18407,2.84065 2.369845,4.76999 3.563643,5.42968 5.390124,2.97859 1.579405,-2.11953 3.215389,-5.29457 3.215389,-6.24028 0,-0.46053 0.09717,-0.83732 0.215934,-0.83732 0.118765,0 0.565237,-0.74415 0.99216,-1.65365 2.800851,-5.96685 4.845773,-8.10652 6.701265,-7.01176 0.843748,0.49782 2.283753,2.34025 3.298584,4.2204 2.103596,3.89728 2.487186,4.68802 2.921042,6.02144 0.59514,1.82912 2.353924,5.04783 3.328125,6.09071 0.410777,0.43974 0.986627,0.79952 1.279677,0.79952 1.234552,0 4.135952,-4.52868 5.424462,-8.46666 0.85445,-2.61139 1.52106,-3.96875 1.94907,-3.96875 0.19134,0 0.34788,-0.17179 0.34788,-0.38176 0,-0.64859 1.09474,-2.34183 2.27635,-3.52085 1.49218,-1.48889 2.37701,-1.51493 3.7944,-0.11164 1.06724,1.05664 2.76828,3.66833 3.89102,5.97411 0.36085,0.74108 0.82516,1.64508 1.0318,2.00889 0.20664,0.3638 0.37746,0.87999 0.37961,1.14709 0.006,0.77562 2.56416,5.54409 3.47222,6.47287 1.15954,1.18601 1.78998,1.09767 2.92667,-0.41007 1.31008,-1.73775 3.0595,-4.90713 3.39372,-6.14832 0.15305,-0.56837 0.6921,-1.76556 1.1979,-2.66041 0.5058,-0.89485 0.91964,-1.77034 0.91964,-1.94554 0,-0.1752 0.10809,-0.43165 0.24021,-0.5699 0.13211,-0.13824 0.56242,-0.84666 0.95624,-1.57427 1.03327,-1.90901 2.56499,-3.30729 3.62292,-3.30729 1.15959,0 3.16445,2.15891 4.57334,4.92473 0.58208,1.14271 1.38575,2.60901 1.78593,3.25847 0.40019,0.64945 0.72761,1.39493 0.72761,1.65661 0,0.78057 2.356,5.38128 3.35101,6.54372 1.25541,1.46667 1.9576,1.44032 3.07059,-0.11523 1.40438,-1.96283 3.36738,-5.49243 3.3764,-6.07099 0.0144,-0.92634 0.673,-1.55162 1.43327,-1.3608 0.80249,0.20141 0.84116,0.50012 0.18661,1.4414 -0.26861,0.38626 -0.88911,1.47621 -1.3789,2.42209 -1.50822,2.9127 -3.1492,5.24195 -4.1124,5.83724 -0.80554,0.49785 -1.01841,0.52771 -1.71252,0.2402 -0.43595,-0.18058 -1.23504,-0.832 -1.77575,-1.44761 -0.97984,-1.11557 -4.34041,-7.55206 -4.65901,-8.92339 -0.24541,-1.05633 -2.7012,-5.22471 -3.66662,-6.22363 -0.45709,-0.47294 -1.00201,-0.85989 -1.21095,-0.85989 -0.70918,0 -2.18778,1.91278 -3.50011,4.5279 -0.71933,1.43343 -1.30787,2.79187 -1.30787,3.01875 0,0.40058 -1.5295,3.56466 -1.85161,3.83043 -0.0882,0.0728 -0.37996,0.60854 -0.64838,1.19063 -1.10589,2.39815 -3.09139,4.76071 -4.24405,5.05001 -0.99047,0.24859 -2.31506,-0.73235 -3.51974,-2.60659 -1.26687,-1.971 -3.75914,-6.98291 -3.75914,-7.55956 0,-0.61164 -2.60072,-5.18695 -3.63568,-6.39607 -0.49691,-0.58053 -1.12304,-1.0555 -1.3914,-1.0555 -1.10492,0 -4.11547,4.76244 -4.76806,7.54269 -0.38871,1.65603 -1.34293,3.56981 -1.77992,3.56981 -0.18216,0 -0.33119,0.21332 -0.33119,0.47405 0,0.26073 -0.72955,1.57958 -1.62124,2.93078 -1.9633,2.97525 -2.857992,3.56895 -4.324472,2.86963 -0.505322,-0.24097 -1.29087,-0.94763 -1.745659,-1.57036 -1.032682,-1.41401 -4.479253,-8.23693 -4.479515,-8.86776 -2.04e-4,-0.49418 -2.187437,-4.31378 -3.322021,-5.8013 -0.951145,-1.24701 -1.931585,-1.20869 -2.981185,0.11654 -1.035187,1.30703 -2.957017,4.96683 -2.957017,5.63114 0,0.63049 -3.186723,6.62751 -4.209333,7.92144 -0.402523,0.50933 -0.873778,1.1927 -1.047232,1.51862 -0.319569,0.60046 -1.57534,1.39262 -2.204775,1.39081 C 74.938633,152.50243 74.413437,152.2761 73.960658,152 Z"
       id="path1066" />
  </g>
</svg>
