<?xml version="1.0" encoding="UTF-8" standalone="no"?>
<svg
   width="62mm"
   height="117mm"
   viewBox="0 0 62 117"
   version="1.1"
   id="svg8"
   inkscape:version="1.2.2 (b0a8486541, 2022-12-01)"
   sodipodi:docname="tone_cushion_front_freecad.svg"
   inkscape:export-filename="/home/yann/_dev/98 - Graphics/graphics-pedals/Shining Pig/shining_pig_front_9V.png"
   inkscape:export-xdpi="96"
   inkscape:export-ydpi="96"
   xmlns:inkscape="http://www.inkscape.org/namespaces/inkscape"
   xmlns:sodipodi="http://sodipodi.sourceforge.net/DTD/sodipodi-0.dtd"
   xmlns="http://www.w3.org/2000/svg"
   xmlns:svg="http://www.w3.org/2000/svg"
   xmlns:rdf="http://www.w3.org/1999/02/22-rdf-syntax-ns#"
   xmlns:cc="http://creativecommons.org/ns#"
   xmlns:dc="http://purl.org/dc/elements/1.1/">
  <defs
     id="defs2">
    <inkscape:path-effect
       effect="spiro"
       id="path-effect1664"
       is_visible="true"
       lpeversion="1" />
    <inkscape:path-effect
       effect="spiro"
       id="path-effect1510"
       is_visible="true"
       lpeversion="1" />
    <inkscape:path-effect
       effect="spiro"
       id="path-effect1664-3"
       is_visible="true"
       lpeversion="1" />
    <inkscape:path-effect
       effect="spiro"
       id="path-effect1664-3-7"
       is_visible="true"
       lpeversion="1" />
    <inkscape:path-effect
       effect="spiro"
       id="path-effect1664-5"
       is_visible="true"
       lpeversion="1" />
    <inkscape:path-effect
       effect="spiro"
       id="path-effect1664-3-7-7"
       is_visible="true"
       lpeversion="1" />
    <inkscape:path-effect
       effect="spiro"
       id="path-effect1664-3-7-3"
       is_visible="true"
       lpeversion="1" />
  </defs>
  <sodipodi:namedview
     id="base"
     pagecolor="#ffffff"
     bordercolor="#666666"
     borderopacity="1.0"
     inkscape:pageopacity="0"
     inkscape:pageshadow="2"
     inkscape:zoom="2.8284271"
     inkscape:cx="-38.53732"
     inkscape:cy="209.65716"
     inkscape:document-units="mm"
     inkscape:current-layer="layer6"
     inkscape:document-rotation="0"
     showgrid="true"
     inkscape:window-width="3836"
     inkscape:window-height="2113"
     inkscape:window-x="0"
     inkscape:window-y="881"
     inkscape:window-maximized="1"
     showborder="true"
     inkscape:showpageshadow="false"
     inkscape:pagecheckerboard="true"
     inkscape:deskcolor="#d1d1d1">
    <sodipodi:guide
       position="-2.0168617,58.500093"
       orientation="0,117.16536"
       id="guide1967"
       inkscape:locked="false" />
    <sodipodi:guide
       position="31.001653,138.8865"
       orientation="-221.10236,0"
       id="guide1969"
       inkscape:locked="false" />
    <inkscape:grid
       type="xygrid"
       id="grid1973"
       visible="true"
       enabled="true"
       originx="31.000001"
       originy="58.500002"
       dotted="false" />
  </sodipodi:namedview>
  <metadata
     id="metadata5">
    <rdf:RDF>
      <cc:Work
         rdf:about="">
        <dc:format>image/svg+xml</dc:format>
        <dc:type
           rdf:resource="http://purl.org/dc/dcmitype/StillImage" />
      </cc:Work>
    </rdf:RDF>
  </metadata>
  <g
     inkscape:groupmode="layer"
     id="layer6"
     inkscape:label="Controls"
     style="display:inline;fill:none;stroke:#000000;stroke-opacity:1">
    <path
       id="path1577"
       d="m 45.593599,24.071399 v 2.914034 h 0.312126 v -2.914034 z m 7.484815,0 v 2.914034 h 0.312126 v -2.914034 z m -5.728333,0.799434 c -0.210913,0 -0.39391,0.0486 -0.54932,0.145728 -0.15541,0.09436 -0.274862,0.223321 -0.358118,0.387056 -0.08325,0.160961 -0.12454,0.341239 -0.12454,0.541053 0,0.197037 0.04264,0.377316 0.128674,0.541052 0.08881,0.163736 0.212335,0.294059 0.37052,0.39119 0.158186,0.09436 0.343058,0.141594 0.553972,0.141594 0.246991,0 0.448171,-0.05811 0.60358,-0.174666 0.158186,-0.119333 0.273044,-0.271917 0.345199,-0.457854 h -0.341064 c -0.0555,0.10268 -0.133155,0.187125 -0.233061,0.253732 -0.09991,0.06383 -0.223436,0.09612 -0.37052,0.09612 -0.138759,0 -0.260929,-0.02957 -0.366386,-0.08785 -0.105459,-0.06105 -0.190422,-0.141422 -0.254248,-0.241329 -0.06105,-0.102681 -0.09962,-0.214822 -0.116272,-0.33693 h 1.744079 V 25.94467 c 0,-0.199814 -0.0418,-0.380092 -0.125056,-0.541053 -0.08326,-0.163735 -0.202191,-0.2927 -0.357601,-0.387056 -0.152636,-0.09713 -0.336149,-0.145728 -0.549838,-0.145728 z m 4.312915,0 c -0.210913,0 -0.39391,0.0486 -0.54932,0.145728 -0.15541,0.09436 -0.274862,0.223321 -0.358118,0.387056 -0.08326,0.160961 -0.125057,0.341239 -0.125057,0.541053 0,0.197037 0.04316,0.377316 0.129191,0.541052 0.08881,0.163736 0.212335,0.294059 0.37052,0.39119 0.158186,0.09436 0.342541,0.141594 0.553455,0.141594 0.246992,0 0.448171,-0.05811 0.603581,-0.174666 0.158186,-0.119333 0.27356,-0.271917 0.345715,-0.457854 h -0.341581 c -0.0555,0.10268 -0.133154,0.187125 -0.233061,0.253732 -0.09991,0.06383 -0.223435,0.09612 -0.37052,0.09612 -0.138759,0 -0.260929,-0.02957 -0.366386,-0.08785 -0.105459,-0.06105 -0.189904,-0.141422 -0.253731,-0.241329 -0.06105,-0.102681 -0.100136,-0.214822 -0.116789,-0.33693 h 1.744597 V 25.94467 c 0,-0.199814 -0.0418,-0.380092 -0.125057,-0.541053 -0.08326,-0.163735 -0.202708,-0.2927 -0.358118,-0.387056 -0.152635,-0.09713 -0.335631,-0.145728 -0.549321,-0.145728 z m -3.147094,0.03307 0.815971,2.081527 h 0.366385 l 0.81132,-2.081527 h -0.341064 l -0.653707,1.748214 -0.657841,-1.748214 z M 47.350081,25.1535 c 0.199814,0 0.361066,0.05999 0.483175,0.179318 0.122107,0.119333 0.197039,0.267839 0.224793,0.44545 h -1.415418 c 0.03053,-0.177611 0.105459,-0.326117 0.224793,-0.44545 0.122107,-0.119333 0.282844,-0.179318 0.482657,-0.179318 z m 4.312915,0 c 0.199814,0 0.36055,0.05999 0.482658,0.179318 0.122107,0.119333 0.197039,0.267839 0.224793,0.44545 h -1.415418 c 0.03053,-0.177611 0.10546,-0.326117 0.224793,-0.44545 0.122108,-0.119333 0.283361,-0.179318 0.483174,-0.179318 z"
       style="font-size:4.16278px;line-height:1.25;font-family:Questrial;-inkscape-font-specification:'Questrial, Normal';letter-spacing:0px;word-spacing:0px;fill:none;stroke:#000000;stroke-width:0.1;stroke-dasharray:none;stroke-opacity:1" />
    <path
       id="path1568"
       d="m 8.8335693,24.158732 v 0.745174 H 8.4093058 v 0.274919 h 0.4242635 v 1.806608 H 9.145695 V 25.178825 H 9.6247355 V 24.903906 H 9.145695 v -0.745174 z m 2.0355347,0.712101 c -0.210914,0 -0.39391,0.0486 -0.54932,0.145728 -0.15541,0.09436 -0.274862,0.223321 -0.3581181,0.387056 -0.083256,0.160961 -0.1245402,0.341239 -0.1245402,0.541053 0,0.197037 0.041285,0.377316 0.1245402,0.541052 0.083256,0.163736 0.2027081,0.294059 0.3581181,0.39119 0.15541,0.09436 0.338406,0.141594 0.54932,0.141594 0.213689,0 0.397202,-0.04724 0.549837,-0.141594 0.155411,-0.09713 0.274863,-0.227454 0.358118,-0.39119 0.08326,-0.163736 0.12454,-0.344015 0.12454,-0.541052 0,-0.199814 -0.04128,-0.380092 -0.12454,-0.541053 -0.08325,-0.163735 -0.202707,-0.2927 -0.358118,-0.387056 -0.152635,-0.09713 -0.336148,-0.145728 -0.549837,-0.145728 z m 2.41639,0 c -0.155128,0.0041 -0.283005,0.03883 -0.384473,0.10387 -0.108232,0.06938 -0.199988,0.153825 -0.274918,0.253731 v -0.324528 h -0.312126 v 2.081527 h 0.312126 V 25.78654 c 0,-0.124883 0.02769,-0.234823 0.0832,-0.329179 0.05828,-0.09713 0.13457,-0.172066 0.228926,-0.224793 0.09436,-0.05273 0.199702,-0.07906 0.31626,-0.07906 0.172061,0 0.312414,0.05863 0.420646,0.175184 0.108233,0.113782 0.162264,0.265006 0.162264,0.453719 v 1.203027 h 0.312126 v -1.211296 c 0,-0.197037 -0.03993,-0.362367 -0.120406,-0.495577 -0.0777,-0.135981 -0.18085,-0.23725 -0.308508,-0.303857 -0.124884,-0.06938 -0.259284,-0.10387 -0.403593,-0.10387 -0.01058,0 -0.02118,-2.71e-4 -0.03152,0 z m 2.287716,0 c -0.210914,0 -0.39391,0.0486 -0.549321,0.145728 -0.15541,0.09436 -0.274862,0.223321 -0.358118,0.387056 -0.08325,0.160961 -0.125056,0.341239 -0.125056,0.541053 0,0.197037 0.04316,0.377316 0.129191,0.541052 0.08881,0.163736 0.212334,0.294059 0.37052,0.39119 0.158185,0.09436 0.34254,0.141594 0.553454,0.141594 0.246991,0 0.44817,-0.05811 0.603581,-0.174666 0.158185,-0.119333 0.27356,-0.271917 0.345715,-0.457854 h -0.341064 c -0.0555,0.10268 -0.133671,0.187125 -0.233578,0.253732 -0.09991,0.06383 -0.223435,0.09612 -0.37052,0.09612 -0.138759,0 -0.260412,-0.02957 -0.365869,-0.08785 -0.10546,-0.06105 -0.190421,-0.141422 -0.254248,-0.241329 -0.06105,-0.102681 -0.09962,-0.214822 -0.116272,-0.33693 h 1.74408 V 25.94467 c 0,-0.199814 -0.0418,-0.380092 -0.125057,-0.541053 -0.08326,-0.163735 -0.202708,-0.2927 -0.358118,-0.387056 -0.152635,-0.09713 -0.335631,-0.145728 -0.54932,-0.145728 z m -4.704106,0.28267 c 0.155411,0 0.28625,0.03637 0.391707,0.108521 0.10823,0.07215 0.189957,0.167988 0.245463,0.287321 0.0555,0.119332 0.0832,0.251015 0.0832,0.395325 0,0.141534 -0.0277,0.273216 -0.0832,0.395324 -0.0555,0.119334 -0.137231,0.215167 -0.245463,0.287321 -0.105457,0.07216 -0.236296,0.108521 -0.391707,0.108521 -0.152635,0 -0.282959,-0.03637 -0.391191,-0.108521 -0.108229,-0.07215 -0.189956,-0.167987 -0.245463,-0.287321 -0.05551,-0.122108 -0.0832,-0.25379 -0.0832,-0.395324 0,-0.14431 0.02769,-0.275993 0.0832,-0.395325 0.0555,-0.119333 0.137232,-0.215166 0.245463,-0.287321 0.108232,-0.07215 0.238556,-0.108521 0.391191,-0.108521 z m 4.704106,0 c 0.199813,0 0.361066,0.05999 0.483174,0.179318 0.122107,0.119333 0.197039,0.267839 0.224793,0.44545 h -1.415418 c 0.03053,-0.177611 0.10546,-0.326117 0.224793,-0.44545 0.122108,-0.119333 0.282845,-0.179318 0.482658,-0.179318 z"
       style="font-size:4.16278px;line-height:1.25;font-family:Questrial;-inkscape-font-specification:'Questrial, Normal';letter-spacing:0px;word-spacing:0px;fill:none;stroke:#000000;stroke-width:0.1;stroke-dasharray:none;stroke-opacity:1" />
    <path
       id="path1551"
       d="m 30.383675,3.2768026 c -0.06766,0.00193 -0.13026,0.018225 -0.187585,0.049093 -0.06115,0.032926 -0.109791,0.078288 -0.146245,0.135909 -0.03645,0.056444 -0.05478,0.121396 -0.05478,0.1943034 0,0.074083 0.01743,0.1397833 0.05271,0.197404 0.03528,0.056444 0.08317,0.1009159 0.143144,0.1338419 0.06115,0.03175 0.128114,0.048059 0.201021,0.048059 0.06585,0 0.125741,-0.015418 0.179834,-0.045992 0.05527,-0.03175 0.09735,-0.071677 0.125574,-0.1198894 0,0.088194 -0.01125,0.1680472 -0.03359,0.2397787 -0.02117,0.071731 -0.05491,0.1287157 -0.100769,0.171049 -0.04469,0.042333 -0.103309,0.063562 -0.176216,0.063562 -0.04351,0 -0.07927,-0.00745 -0.107487,-0.022738 -0.02823,-0.016463 -0.05072,-0.036943 -0.06718,-0.060462 -0.01529,-0.024694 -0.02691,-0.049203 -0.03514,-0.073897 h -0.148311 c 0.01059,0.045861 0.02928,0.091224 0.05633,0.1359091 0.02822,0.043509 0.06689,0.079265 0.116272,0.1074869 0.04939,0.028222 0.111435,0.042375 0.185519,0.042375 0.14699,0 0.257679,-0.053704 0.331762,-0.1607137 0.07408,-0.1070092 0.111105,-0.2525623 0.111105,-0.4371826 0,-0.1916759 -0.03665,-0.3393856 -0.109554,-0.442867 -0.07291,-0.1034815 -0.180691,-0.1550293 -0.322978,-0.1550293 -0.0046,0 -0.0089,-1.286e-4 -0.01344,0 z m 0.5271,0.013953 0.472322,1.1678874 h 0.151929 L 32.007865,3.2907552 H 31.863171 L 31.459062,4.3087809 31.055469,3.2907552 Z m -0.522449,0.1147217 c 0.0031,-8.27e-5 0.0057,0 0.0088,0 0.05057,0 0.09593,0.011247 0.135909,0.03359 0.04115,0.021167 0.07363,0.051112 0.09715,0.089917 0.02469,0.038806 0.03721,0.084168 0.03721,0.135909 0,0.048212 -0.01251,0.091044 -0.03721,0.1286743 -0.02351,0.036454 -0.05599,0.065133 -0.09715,0.0863 -0.04116,0.019991 -0.08652,0.029972 -0.135909,0.029972 -0.04939,2e-7 -0.09423,-0.011247 -0.135392,-0.03359 -0.03998,-0.022343 -0.07246,-0.052288 -0.09715,-0.089917 -0.02469,-0.038806 -0.03721,-0.082012 -0.03721,-0.1302246 0,-0.049389 0.01251,-0.093111 0.03721,-0.1307414 0.02469,-0.03763 0.05717,-0.0672 0.09715,-0.088367 0.03859,-0.019844 0.08079,-0.030282 0.126607,-0.031523 z"
       style="font-size:1.76389px;line-height:1.25;font-family:Questrial;-inkscape-font-specification:'Questrial, Normal';letter-spacing:0px;word-spacing:0px;fill:none;stroke:#000000;stroke-width:0.1;stroke-dasharray:none;stroke-opacity:1" />
    <path
       style="display:inline;fill:none;stroke:#000000;stroke-width:0.288349;stroke-dasharray:none;stroke-opacity:1"
       d="m 77.149353,81.58863 c -7.84307,-0.30471 -18.41979,-1.36829 -30.149668,-3.03179 -4.360637,-0.61841 -5.910106,-0.75049 -6.217709,-0.52999 -1.203877,0.86296 -3.534518,1.87482 -4.967823,2.15681 -5.487299,1.07956 -11.190446,-3.03353 -12.261043,-8.84263 -0.39607,-2.14909 0.04942,-4.56987 1.241956,-6.74882 0.917893,-1.67713 0.924264,-1.71117 0.643675,-3.43958 C 25.109966,59.12739 24.248008,50.33634 23.814811,44.59027 23.037587,34.28092 23.685211,18.73418 25.44682,5.41255 l 0.282465,-2.13606 -0.930644,-1.7004 c -1.196244,-2.18568 -1.64207,-4.60368 -1.245531,-6.75532 1.070597,-5.80909 6.773744,-9.922191 12.261043,-8.842631 1.43138,0.281607 3.766996,1.295136 4.962479,2.153443 0.301166,0.216224 2.158006,0.04946 7.276042,-0.653459 15.564889,-2.13771 25.015519,-2.921706 35.049967,-2.907626 10.21486,0.01433 20.602269,0.937574 35.248689,3.132929 l 6.01222,0.90117 1.32007,-0.888339 c 3.92726,-2.64285 8.64572,-2.458412 12.65732,0.494759 2.63098,1.936824 4.02837,4.776554 4.02837,8.186324 0,2.4019 -0.52713,4.21968 -1.75082,6.03772 -0.80417,1.19474 -0.9283,1.57057 -0.81501,2.46772 0.0735,0.58208 0.43988,3.20146 0.81416,5.82083 1.44482,10.1113 2.16162,20.01104 1.89661,26.19374 -0.30296,7.0679 -0.76463,11.2422 -2.70688,24.47478 -0.11082,0.75501 0.0397,1.188 0.81186,2.33543 1.22302,1.8174 1.75008,3.63549 1.75008,6.0369 0,3.40977 -1.39739,6.24951 -4.02837,8.18632 -4.05486,2.98502 -8.69956,3.15814 -12.68968,0.47298 l -1.35243,-0.91012 -2.14341,0.39923 c -2.95218,0.54987 -10.1984,1.63346 -14.18194,2.12075 -11.940459,1.46064 -21.212879,1.92842 -30.824127,1.55501 z m 15.742878,-5.38592 c 8.062299,-0.55611 21.299239,-2.20698 28.835839,-3.59633 1.96247,-0.36178 3.84474,-0.58835 4.18282,-0.5035 0.33808,0.0849 1.1254,0.62504 1.7496,1.2004 2.52062,2.32342 5.41136,2.44085 7.65545,0.31098 2.41506,-2.29214 2.35152,-5.62478 -0.15609,-8.18611 -1.38141,-1.41101 -1.3819,-1.44289 -0.13528,-8.79934 2.26697,-13.37763 2.69555,-23.3936 1.51707,-35.45416 -0.46143,-4.72227 -1.57966,-12.96958 -2.1222,-15.65197 -0.28424,-1.40531 -0.5168,-2.74987 -0.5168,-2.9879 0,-0.23804 0.53361,-1.00327 1.1858,-1.70051 0.65219,-0.69724 1.36656,-1.70034 1.5875,-2.22912 1.14697,-2.74509 -0.25378,-5.99502 -3.09553,-7.18209 -2.01255,-0.84069 -3.96392,-0.36752 -5.91992,1.43546 -1.44707,1.33387 -2.04891,1.47088 -4.25941,0.96968 -3.95627,-0.89704 -17.69462,-2.67643 -28.259889,-3.66022 -5.51287,-0.51334 -19.959138,-0.43904 -26.193918,0.13471 -7.12904,0.65605 -13.29669,1.38867 -20.76979,2.46714 -3.56526,0.51452 -6.972763,0.9981 -7.57223,1.07463 -0.961754,0.12278 -1.210689,0.033 -2.116666,-0.76337 -1.813703,-1.59429 -2.502577,-1.91808 -4.069436,-1.91276 -2.627626,0.009 -4.649496,1.5518 -5.416001,4.1329 -0.521311,1.75544 -0.200799,3.02912 1.232021,4.89593 1.223241,1.59374 1.213941,1.27872 0.243841,8.2596 -1.655685,11.91437 -2.1179,24.26026 -1.342888,35.86893 0.363039,5.43784 1.269382,14.5043 1.626644,16.27187 0.681955,3.37402 0.635201,3.85191 -0.524953,5.36573 -1.256304,1.63929 -1.634288,2.84707 -1.391558,4.44648 0.24399,1.60771 0.992063,2.78095 2.345509,3.67855 2.473186,1.64022 4.610051,1.35275 7.263043,-0.97709 0.546122,-0.4796 1.206769,-0.872 1.468103,-0.872 0.261335,0 2.79107,0.35348 5.621634,0.78552 10.211057,1.55853 22.422627,2.89089 29.885017,3.26064 4.158728,0.20605 13.948688,0.1597 17.462668,-0.0827 z"
       id="path27"
       sodipodi:nodetypes="ssssssssscssssssscsssssssssssscssssscssssssssssssssssscssssssssssssss"
       transform="matrix(0.34680189,0,0,0.34680189,2.2281385,44.613478)" />
    <path
       style="display:inline;fill:none;stroke:#000000;stroke-width:0.288349;stroke-dasharray:none;stroke-opacity:1"
       d="m 24.821392,102.33302 c -5.004395,-0.75 -7.512852,-5.02104 -6.110673,-10.40437 0.720424,-2.76589 2.446578,-4.48038 5.419481,-5.38286 2.768023,-0.84028 9.408715,-0.43413 10.47534,0.6325 0.244827,0.24482 0.397053,0.89343 0.397053,1.69176 0,1.69815 -0.194776,1.95445 -2.457781,1.59 -1.394209,-0.22453 -1.794511,-0.19482 -2.584759,0.19185 -2.420116,1.18414 -2.409698,5.35831 0.01649,6.60518 0.349774,0.17975 1.594406,0.32858 2.765849,0.33073 1.298819,0.002 2.182259,0.12778 2.375872,0.3214 0.174625,0.17462 0.3175,0.94547 0.3175,1.71299 0,1.26941 -0.06872,1.43104 -0.76053,1.78879 -1.499651,0.7755 -7.233252,1.31477 -9.853838,0.92203 z m 18.435932,0.0138 c -2.751476,-0.37305 -4.876176,-1.52607 -6.08195,-3.30052 -1.103282,-1.62363 -1.470509,-3.78492 -1.361222,-8.0114 0.08765,-3.38987 0.154801,-3.85197 0.607864,-4.18326 0.77772,-0.56868 7.88346,-0.53227 8.459078,0.0433 0.34268,0.34268 0.415774,1.14633 0.415774,4.57134 0,3.22716 0.08686,4.27957 0.388782,4.71062 0.562871,0.80362 1.349308,0.91913 2.121614,0.31164 0.657249,-0.51699 0.664647,-0.56723 0.668504,-4.53847 0.0051,-5.26047 0.03162,-5.31416 2.673964,-5.41515 1.621621,-0.062 2.073318,0.009 2.374345,0.37112 0.289904,0.3491 0.37175,1.53099 0.37175,5.36821 0,4.36075 -0.0592,5.03995 -0.520393,5.9701 -1.584042,3.19479 -5.400223,4.74208 -10.11811,4.10242 z m 16.062462,-0.0233 c -1.984219,-0.2883 -4.369946,-1.35249 -4.789501,-2.13644 -0.169312,-0.31636 -0.216713,-1.01855 -0.114687,-1.69891 0.251826,-1.67929 0.794084,-1.88283 3.047773,-1.14399 1.953993,0.6406 2.650165,0.56676 2.650165,-0.28107 0,-0.38969 -0.554289,-0.89516 -1.943275,-1.77212 -2.160865,-1.36429 -2.949967,-2.3334 -3.206943,-3.93852 -0.563341,-3.51873 3.131473,-5.68663 9.021109,-5.29306 2.681611,0.1792 4.650182,0.67673 5.414545,1.36847 0.954236,0.86357 0.400251,3.54923 -0.732115,3.54923 -0.22688,0 -0.982755,-0.20253 -1.679723,-0.45007 -1.058535,-0.37596 -1.336699,-0.39241 -1.689156,-0.0999 -0.91458,0.75904 -0.502939,1.29773 1.922444,2.51583 1.289413,0.64759 2.647469,1.53762 3.017901,1.97785 1.65026,1.96123 0.941107,4.82767 -1.525828,6.1675 -2.161609,1.174 -6.178365,1.70223 -9.392709,1.2352 z m 56.091674,0.12793 c -4.15798,-0.41627 -7.00175,-1.95489 -8.44617,-4.42462 -2.62305,-4.48499 -0.4264,-9.5059 5.13888,-11.33479 1.51293,-0.4972 2.40924,-0.60633 4.89479,-0.59601 3.86187,0.0161 5.83111,0.65258 7.75118,2.37888 1.82425,1.64017 2.52459,3.35654 2.36612,5.79885 -0.13065,2.01362 -0.57159,3.1043 -1.93674,4.79061 -1.83427,2.26577 -6.05892,3.75841 -9.76806,3.38708 z m 4.82864,-6.9714 c 2.03649,-2.25903 -0.68897,-5.0335 -3.51102,-3.57416 -0.89927,0.46503 -1.31762,1.13622 -1.31762,2.11393 0,2.35154 3.16287,3.30802 4.82864,1.46023 z m -47.561889,6.12253 -0.647668,-0.52437 v -6.92385 c 0,-6.54845 0.02785,-6.94422 0.513591,-7.29951 0.382939,-0.28009 1.269377,-0.37565 3.903873,-0.37565 3.398664,0 3.558084,0.0247 4.182764,0.64943 0.61036,0.61036 0.64944,0.82356 0.64944,3.54357 0,3.17403 0.0217,3.21533 1.68851,3.21533 1.34114,0 1.48649,-0.33697 1.48649,-3.44638 0,-2.5966 0.0468,-2.85533 0.61236,-3.38667 0.56412,-0.52996 0.88203,-0.57496 4.0349,-0.57123 1.88239,0.002 3.59547,0.11345 3.80685,0.24717 0.52404,0.33151 0.81627,5.30973 0.61289,10.44086 -0.20381,5.14186 0.005,4.91833 -4.58648,4.91833 -1.90134,0 -3.68728,-0.12325 -3.96875,-0.27389 -0.40886,-0.21881 -0.51177,-0.56085 -0.51177,-1.70089 0,-1.60208 -0.43352,-2.25855 -1.49151,-2.25855 -1.30702,0 -1.68315,0.42961 -1.68755,1.92754 -0.006,2.17827 0.0252,2.16166 -4.299054,2.25831 -3.461057,0.0774 -3.708079,0.0388 -4.298886,-0.43955 z m 22.99665,-0.0698 c -0.45391,-0.50143 -0.51334,-1.09573 -0.59773,-5.9766 -0.10292,-5.9536 0.0588,-8.07831 0.66083,-8.68031 0.55999,-0.55999 7.682289,-0.57816 8.444279,-0.0215 0.4797,0.35041 0.51912,0.79851 0.59743,6.79068 0.0461,3.52853 0.0162,6.68513 -0.0665,7.01466 -0.33008,1.31514 -0.71192,1.4299 -4.757679,1.4299 -3.50295,0 -3.81307,-0.0403 -4.28058,-0.55679 z m 33.113059,-0.0312 c -0.34618,-0.49424 -0.41188,-1.64551 -0.41188,-7.21717 0,-8.1029 -0.10918,-7.80482 2.85928,-7.80608 2.03317,-8.6e-4 2.04059,0.002 6.44246,2.24896 2.42383,1.2374 4.47765,2.24982 4.56407,2.24982 0.0864,0 0.15711,-0.86915 0.15711,-1.93145 0,-1.14947 0.12855,-2.06001 0.3175,-2.24896 0.44474,-0.44474 4.02888,-0.42202 4.40229,0.0279 0.39354,0.4742 0.69018,8.13344 0.45058,11.63404 -0.25572,3.73598 -0.219,3.70154 -3.82252,3.58477 l -2.80306,-0.0908 -3.25392,-1.91585 c -1.78966,-1.05372 -3.36724,-1.91586 -3.50573,-1.91586 -0.13849,0 -0.25181,0.77686 -0.25181,1.72634 0,1.60967 -0.0459,1.74378 -0.67868,1.98438 -0.37327,0.14192 -1.43809,0.25803 -2.36625,0.25803 -1.44394,0 -1.74702,-0.0849 -2.09944,-0.58803 z"
       id="path3485"
       transform="matrix(0.34680189,0,0,0.34680189,2.2281385,44.613478)"
       sodipodi:nodetypes="sssssssscssssscssssssssscssccssssssssssssssssssscssssssssscsssssssscsssssscsssssssssssssscsssssscsssssss" />
    <path
       style="color:#000000;fill:none;stroke:#000000;stroke-width:0.1;stroke-linecap:round;stroke-dasharray:none;stroke-opacity:1"
       d="m 33.029297,52.392578 c -0.13794,0.01 -0.24625,0.06525 -0.332031,0.119141 -0.126036,0.07918 -0.229427,0.173933 -0.320313,0.267578 -0.153024,0.15767 -0.289997,0.329428 -0.410156,0.509765 -0.139797,0.20981 -0.254359,0.426874 -0.365235,0.638672 -0.183114,0.349792 -0.362351,0.708444 -0.515625,1.082032 -0.07072,0.172382 -0.140536,0.346552 -0.19909,0.523437 -0.03486,0.104009 -0.06686,0.162756 -0.113584,0.269575 -0.01737,0.0397 -0.04735,0.113969 -0.07014,0.160113 -0.07314,0.14809 -0.128731,0.291358 -0.189453,0.419921 -0.07068,0.149649 -0.156477,0.301451 -0.242188,0.460938 -0.07556,0.140597 -0.145843,0.279056 -0.21875,0.412109 -0.06788,0.123884 -0.140248,0.245298 -0.214843,0.365235 -0.07517,0.120855 -0.151807,0.236899 -0.234375,0.345703 -0.06182,0.08146 -0.130567,0.163042 -0.201172,0.248047 -0.04144,0.0499 -0.07853,0.09455 -0.113282,0.128906 -0.04374,0.04325 -0.09744,0.08476 -0.158203,0.126953 -0.03985,0.02767 -0.07212,0.04801 -0.09961,0.06055 -0.02172,0.0099 -0.04104,0.01542 -0.05664,0.01758 -0.01069,0.0015 -0.02383,0.003 -0.03711,0.002 -0.04567,-0.0037 -0.107186,-0.02687 -0.177734,-0.06836 -0.06227,-0.03662 -0.121969,-0.08038 -0.173829,-0.126953 -0.07473,-0.06712 -0.145484,-0.150792 -0.21875,-0.246094 -0.08158,-0.106112 -0.158136,-0.213996 -0.230468,-0.324219 -0.208726,-0.318065 -0.381254,-0.669187 -0.546875,-1.029297 -0.10875,-0.236453 -0.212768,-0.473472 -0.3125,-0.71289 C 27.185738,55.823058 27.095745,55.596858 27,55.371094 26.849848,55.017038 26.686573,54.66797 26.5,54.328125 c -0.176475,-0.32145 -0.371402,-0.630558 -0.574219,-0.931641 -0.08351,-0.123975 -0.171303,-0.24979 -0.269531,-0.373047 -0.06818,-0.08555 -0.139478,-0.167645 -0.212891,-0.246093 -0.08194,-0.08756 -0.181048,-0.188731 -0.320312,-0.263672 -0.09979,-0.0537 -0.220815,-0.09389 -0.357422,-0.08398 -0.137944,0.01 -0.246264,0.06527 -0.332031,0.119141 -0.126018,0.07916 -0.229392,0.175784 -0.320313,0.269531 -0.153075,0.157833 -0.288004,0.330047 -0.408203,0.509766 -0.13986,0.209115 -0.25888,0.426303 -0.369141,0.640625 -0.182031,0.35383 -0.34955,0.711228 -0.511718,1.070312 -0.08132,0.180058 -0.16125,0.361876 -0.240235,0.542969 -0.0059,0.01361 -0.01166,0.0274 -0.01758,0.04102 -0.03015,0.06471 -0.06054,0.128262 -0.08984,0.193359 -0.08317,0.184747 -0.161387,0.365884 -0.248046,0.533203 -0.07735,0.149337 -0.168598,0.300911 -0.25586,0.466797 -0.07602,0.144513 -0.142138,0.286275 -0.210937,0.416016 -0.06446,0.121564 -0.135373,0.240813 -0.210938,0.361328 -0.07614,0.121425 -0.154037,0.239032 -0.236328,0.347656 -0.06161,0.08132 -0.130503,0.162995 -0.201172,0.248047 -0.04148,0.04992 -0.07659,0.0926 -0.111328,0.126953 -0.04373,0.04324 -0.09744,0.08476 -0.158203,0.126953 -0.03985,0.02767 -0.07407,0.04996 -0.101563,0.0625 -0.02172,0.0099 -0.04104,0.01542 -0.05664,0.01758 -0.01069,0.0015 -0.02383,0.0011 -0.03711,0 -0.04567,-0.0037 -0.107186,-0.02687 -0.177734,-0.06836 -0.06227,-0.03662 -0.120016,-0.07843 -0.171875,-0.125 -0.07473,-0.06712 -0.145485,-0.152745 -0.21875,-0.248047 -0.08158,-0.106112 -0.160089,-0.213996 -0.232422,-0.324219 -0.208726,-0.318064 -0.379301,-0.667234 -0.544922,-1.027343 -0.108749,-0.236454 -0.214721,-0.475426 -0.314453,-0.714844 -0.09161,-0.219911 -0.179645,-0.444158 -0.27539,-0.669922 -0.150153,-0.354055 -0.31538,-0.703124 -0.501954,-1.042969 -0.176474,-0.321449 -0.371402,-0.63251 -0.574218,-0.933593 -0.08351,-0.123975 -0.16935,-0.249791 -0.267578,-0.373047 -0.06818,-0.08555 -0.141432,-0.167646 -0.214844,-0.246094 -0.08194,-0.08756 -0.179094,-0.188731 -0.31836,-0.263672 -0.09979,-0.0537 -0.220816,-0.09193 -0.357421,-0.08203 -0.137943,0.01 -0.248213,0.06526 -0.333985,0.11914 -0.126023,0.07917 -0.229404,0.173867 -0.320312,0.267579 -0.153058,0.157776 -0.288018,0.329833 -0.408203,0.509765 -0.139839,0.209356 -0.256712,0.427176 -0.367188,0.640625 -0.182407,0.352425 -0.354489,0.710107 -0.513672,1.074219 -0.08957,0.204884 -0.174315,0.410932 -0.255859,0.619141 -0.04789,0.11974 0.01083,0.255578 0.130859,0.302734 0.119734,0.04638 0.254397,-0.01308 0.300782,-0.132813 0.07935,-0.2026 0.162841,-0.40415 0.25,-0.603515 0.154893,-0.354302 0.322003,-0.702972 0.5,-1.046875 0.10779,-0.20826 0.217888,-0.410197 0.341796,-0.595703 0.106442,-0.159357 0.224429,-0.308279 0.355469,-0.44336 0.07765,-0.08005 0.155405,-0.14961 0.234375,-0.199218 0.05194,-0.03263 0.09488,-0.04707 0.119141,-0.04883 0.02337,-0.0017 0.06206,0.007 0.103515,0.0293 0.06102,0.03283 0.127711,0.09338 0.201172,0.171875 0.06634,0.07089 0.128212,0.142402 0.1875,0.216797 0.08542,0.107189 0.166929,0.223329 0.248047,0.34375 0.197012,0.292467 0.382852,0.590599 0.550781,0.896485 0.177538,0.323386 0.33717,0.659453 0.482422,1.001953 0.09262,0.218406 0.179522,0.442512 0.273438,0.667968 0.102247,0.245457 0.209584,0.48776 0.320312,0.728516 0.16867,0.366739 0.349865,0.739035 0.580078,1.089844 0.07979,0.12158 0.164545,0.237863 0.251953,0.351562 0.0786,0.102242 0.166692,0.21117 0.277344,0.310547 0.0769,0.06906 0.159188,0.128574 0.246094,0.179688 0.100487,0.0591 0.224855,0.118461 0.376953,0.130859 0.04468,0.0036 0.0898,0.0045 0.136719,-0.002 0.06855,-0.0095 0.131926,-0.0313 0.1875,-0.05664 0.06944,-0.03167 0.124214,-0.06847 0.171875,-0.101562 0.07258,-0.05039 0.149004,-0.10684 0.220703,-0.177735 0.05693,-0.05629 0.103627,-0.112879 0.144531,-0.162109 0.06966,-0.08383 0.141908,-0.169974 0.212891,-0.263672 0.09481,-0.125152 0.178146,-0.253803 0.257812,-0.380859 0.07906,-0.126097 0.158564,-0.256982 0.230469,-0.392578 0.07674,-0.144715 0.140377,-0.285591 0.208984,-0.416016 0.07875,-0.149714 0.171156,-0.303388 0.257813,-0.470703 0.09709,-0.187457 0.178922,-0.375115 0.259766,-0.554688 0.03004,-0.06674 0.06085,-0.132898 0.0918,-0.199218 0.002,-0.0045 0.0039,-0.0091 0.0059,-0.01367 0.01581,-0.03381 0.03083,-0.06787 0.04687,-0.101563 6.93e-4,-0.002 0.0014,-0.0039 0.002,-0.0059 0.06669,-0.152096 0.132817,-0.305676 0.201172,-0.457031 0.160524,-0.355443 0.325321,-0.705493 0.501953,-1.048828 0.106973,-0.207934 0.215712,-0.410105 0.339844,-0.595704 0.10663,-0.15943 0.226437,-0.308303 0.357422,-0.443359 0.07762,-0.08003 0.153441,-0.149607 0.232421,-0.199219 0.05195,-0.03263 0.09488,-0.04707 0.119141,-0.04883 0.02337,-0.0017 0.06402,0.005 0.105469,0.02734 0.06102,0.03283 0.125757,0.09533 0.199219,0.173828 0.06634,0.07089 0.130164,0.142402 0.189453,0.216797 0.08542,0.107189 0.166928,0.223329 0.248047,0.34375 0.197012,0.292466 0.382851,0.590599 0.550781,0.896484 0.177538,0.323387 0.335217,0.6575 0.480469,1 0.09262,0.218407 0.181474,0.442512 0.27539,0.667969 0.102247,0.245457 0.209585,0.489713 0.320313,0.730469 0.168669,0.366739 0.349864,0.737082 0.580078,1.08789 0.07979,0.121581 0.164545,0.239817 0.251953,0.353516 0.0786,0.102242 0.164738,0.21117 0.275391,0.310547 0.0769,0.06906 0.16114,0.128574 0.248046,0.179687 0.100487,0.0591 0.224855,0.118461 0.376954,0.13086 0.04468,0.0036 0.0898,0.0026 0.136718,-0.0039 0.06855,-0.0095 0.129974,-0.02935 0.185547,-0.05469 0.06944,-0.03167 0.126165,-0.06847 0.173828,-0.101562 0.07258,-0.05039 0.149011,-0.108806 0.220703,-0.179688 0.05693,-0.05628 0.101654,-0.110885 0.142579,-0.160156 0.06969,-0.0839 0.143923,-0.17217 0.214843,-0.265625 0.09473,-0.124834 0.178079,-0.25266 0.257813,-0.38086 0.07912,-0.127212 0.154582,-0.257309 0.226562,-0.388671 0.07731,-0.141084 0.150238,-0.281262 0.222657,-0.416016 0.08215,-0.152863 0.171194,-0.309484 0.251953,-0.480469 0.06938,-0.146899 0.125738,-0.287052 0.1875,-0.412109 0.01924,-0.03896 0.04165,-0.08069 0.06445,-0.126953 0.04781,-0.097 0.08632,-0.199079 0.123047,-0.300782 0.0013,-6.54e-4 0.0026,-0.0013 0.0039,-0.002 0.0066,-0.02041 0.01475,-0.0402 0.02148,-0.06055 0.05519,-0.166766 0.114965,-0.331625 0.181641,-0.49414 0.144393,-0.351942 0.31745,-0.696033 0.498047,-1.041016 0.109342,-0.208869 0.218309,-0.412323 0.341797,-0.597656 0.106086,-0.159217 0.224322,-0.308231 0.355468,-0.443359 0.07772,-0.08008 0.153471,-0.149617 0.232422,-0.199219 0.05193,-0.03262 0.09488,-0.04707 0.119141,-0.04883 0.02338,-0.0017 0.06402,0.007 0.105469,0.0293 0.06102,0.03283 0.125757,0.09337 0.199218,0.171875 0.06634,0.07089 0.130165,0.142401 0.189454,0.216796 0.08542,0.107189 0.166928,0.223329 0.248046,0.34375 0.197013,0.292467 0.382852,0.5906 0.550782,0.896485 0.177538,0.323387 0.335217,0.659453 0.480468,1.001953 0.09262,0.218407 0.181475,0.442512 0.275391,0.667969 0.102247,0.245456 0.209585,0.48776 0.320313,0.728515 0.168669,0.366739 0.349864,0.739036 0.580078,1.089844 0.07979,0.121581 0.164544,0.237864 0.251953,0.351563 0.0786,0.102241 0.164738,0.211169 0.27539,0.310546 0.0769,0.06906 0.161141,0.128574 0.248047,0.179688 0.100487,0.0591 0.224855,0.118461 0.376953,0.130859 0.04468,0.0036 0.0898,0.0045 0.136719,-0.002 0.06855,-0.0095 0.129973,-0.0313 0.185547,-0.05664 0.06944,-0.03167 0.126167,-0.06847 0.173828,-0.101563 0.07258,-0.05039 0.149005,-0.10684 0.220703,-0.177734 0.05693,-0.05629 0.101674,-0.11288 0.142578,-0.16211 0.06966,-0.08383 0.143861,-0.169974 0.214844,-0.263672 0.09481,-0.125152 0.178147,-0.253803 0.257813,-0.380859 0.07906,-0.126097 0.156611,-0.256982 0.228515,-0.392578 0.07674,-0.144715 0.14233,-0.285591 0.210938,-0.416016 0.07875,-0.149713 0.171156,-0.303388 0.257812,-0.470703 0.09709,-0.187457 0.176969,-0.375115 0.257813,-0.554687 0.02973,-0.06604 0.06118,-0.131633 0.0918,-0.197266 3.65e-4,-7.83e-4 0.0016,-0.0012 0.002,-0.002 0.0059,-0.01361 0.01165,-0.02741 0.01758,-0.04102 0.01163,-0.02474 0.0234,-0.04954 0.03516,-0.07422 6.93e-4,-0.002 0.0014,-0.0039 0.002,-0.0059 0.06669,-0.152096 0.132818,-0.305676 0.201172,-0.457031 0.160524,-0.355443 0.325321,-0.705493 0.501953,-1.048828 0.106974,-0.207934 0.215713,-0.410105 0.339844,-0.595703 0.10663,-0.159431 0.224484,-0.308304 0.355469,-0.44336 0.07762,-0.08003 0.155395,-0.149606 0.234375,-0.199218 0.05195,-0.03263 0.09488,-0.04707 0.11914,-0.04883 0.02337,-0.0017 0.06206,0.005 0.103516,0.02734 0.06102,0.03283 0.127711,0.09533 0.201172,0.173828 0.06634,0.07089 0.130164,0.142402 0.189453,0.216797 0.08542,0.107189 0.164975,0.223329 0.246094,0.34375 0.197012,0.292467 0.384805,0.590599 0.552734,0.896485 0.177538,0.323386 0.335217,0.6575 0.480469,1 0.09262,0.218406 0.181474,0.442512 0.275391,0.667968 0.102247,0.245457 0.209584,0.489713 0.320312,0.730469 0.16867,0.366739 0.347912,0.737082 0.578125,1.087891 0.07979,0.12158 0.164545,0.239816 0.251953,0.353515 0.0786,0.102242 0.166692,0.21117 0.277344,0.310547 0.0769,0.06906 0.159187,0.128574 0.246094,0.179688 0.100486,0.0591 0.224854,0.118461 0.376953,0.130859 0.04468,0.0036 0.09176,0.0026 0.138672,-0.0039 0.06855,-0.0095 0.129973,-0.02934 0.185547,-0.05469 0.06944,-0.03167 0.126167,-0.06847 0.173828,-0.101562 0.07258,-0.05039 0.149004,-0.108793 0.220703,-0.179688 0.05693,-0.05629 0.101674,-0.110926 0.142578,-0.160156 0.06966,-0.08383 0.141908,-0.171927 0.212891,-0.265625 0.09481,-0.125152 0.180099,-0.253803 0.259765,-0.380859 0.07906,-0.126098 0.156611,-0.255029 0.228516,-0.390625 0.07674,-0.144715 0.14233,-0.285591 0.210937,-0.416016 0.07876,-0.149714 0.171156,-0.303388 0.257813,-0.470703 0.09709,-0.187457 0.176968,-0.375115 0.257812,-0.554688 0.0474,-0.105291 0.09683,-0.210204 0.146485,-0.314453 0.05548,-0.116475 0.0055,-0.255847 -0.111328,-0.310547 -0.115449,-0.05443 -0.253188,-0.0056 -0.308594,0.109375 -0.05109,0.107256 -0.101621,0.215891 -0.150391,0.324219 -0.08317,0.184747 -0.161388,0.363931 -0.248047,0.53125 -0.07735,0.149337 -0.168598,0.302864 -0.255859,0.46875 -0.07602,0.144513 -0.140185,0.284322 -0.208984,0.414063 -0.06446,0.121564 -0.137327,0.242766 -0.212891,0.363281 -0.07614,0.121425 -0.152084,0.237079 -0.234375,0.345703 -0.06161,0.08132 -0.130503,0.162995 -0.201172,0.248047 -0.04148,0.04992 -0.07854,0.09456 -0.113281,0.128906 -0.04373,0.04324 -0.09744,0.08476 -0.158203,0.126953 -0.03985,0.02767 -0.07407,0.04801 -0.101563,0.06055 -0.02172,0.0099 -0.04104,0.01542 -0.05664,0.01758 -0.01069,0.0015 -0.02187,0.003 -0.03516,0.002 -0.04567,-0.0037 -0.109139,-0.02687 -0.179687,-0.06836 -0.06227,-0.03662 -0.120016,-0.07843 -0.171875,-0.125 -0.07473,-0.06712 -0.145485,-0.152745 -0.21875,-0.248047 -0.08158,-0.106112 -0.158137,-0.213996 -0.230469,-0.324219 -0.208726,-0.318064 -0.381254,-0.669187 -0.546875,-1.029296 -0.108749,-0.236454 -0.214721,-0.473473 -0.314453,-0.712891 -0.09161,-0.219911 -0.179646,-0.446111 -0.275391,-0.671875 -0.150152,-0.354055 -0.315379,-0.703124 -0.501953,-1.042969 -0.176474,-0.32145 -0.369449,-0.630557 -0.572265,-0.93164 -0.08351,-0.123975 -0.171304,-0.249791 -0.269532,-0.373047 -0.06818,-0.08555 -0.139478,-0.167646 -0.21289,-0.246094 -0.08194,-0.08756 -0.181048,-0.188731 -0.320313,-0.263672 -0.09979,-0.0537 -0.220815,-0.09388 -0.357422,-0.08398 -0.137943,0.01 -0.248217,0.06527 -0.333984,0.11914 -0.126018,0.07916 -0.227438,0.175785 -0.318359,0.269532 -0.153075,0.157833 -0.289957,0.330047 -0.410157,0.509765 -0.13986,0.209116 -0.256927,0.426303 -0.367187,0.640625 -0.182031,0.35383 -0.34955,0.711229 -0.511719,1.070313 -0.07809,0.172901 -0.154534,0.347628 -0.230469,0.521484 -0.04017,0.0853 -0.08044,0.169887 -0.11914,0.255859 -0.08317,0.184747 -0.159435,0.365884 -0.246094,0.533204 -0.07735,0.149336 -0.170551,0.300911 -0.257813,0.466796 -0.07602,0.144514 -0.140184,0.286276 -0.208984,0.416016 -0.06446,0.121564 -0.137326,0.240814 -0.212891,0.361328 -0.07614,0.121425 -0.152084,0.239033 -0.234375,0.347656 -0.06161,0.08132 -0.130503,0.162996 -0.201171,0.248047 -0.04148,0.04993 -0.07854,0.0926 -0.113282,0.126953 -0.04373,0.04324 -0.09744,0.08476 -0.158203,0.126954 -0.03985,0.02767 -0.07212,0.04996 -0.09961,0.0625 -0.02172,0.0099 -0.04104,0.01542 -0.05664,0.01758 -0.01069,0.0015 -0.02383,0.0011 -0.03711,0 -0.04567,-0.0037 -0.107186,-0.02687 -0.177735,-0.06836 -0.06227,-0.03662 -0.121969,-0.07843 -0.173828,-0.125 -0.07473,-0.06712 -0.145484,-0.152745 -0.21875,-0.248047 -0.08158,-0.106111 -0.158136,-0.213995 -0.230468,-0.324218 -0.208726,-0.318065 -0.381255,-0.667234 -0.546875,-1.027344 -0.10875,-0.236454 -0.212768,-0.475425 -0.3125,-0.714844 -0.09161,-0.219911 -0.181599,-0.444157 -0.277344,-0.669922 -0.150152,-0.354055 -0.313427,-0.703124 -0.5,-1.042968 -0.176475,-0.32145 -0.371402,-0.632511 -0.574219,-0.933594 -0.08351,-0.123975 -0.171303,-0.24979 -0.269531,-0.373047 -0.06818,-0.08555 -0.139479,-0.167646 -0.212891,-0.246094 -0.08194,-0.08756 -0.181046,-0.188731 -0.320312,-0.263672 -0.0998,-0.0537 -0.220821,-0.09193 -0.357422,-0.08203 z"
       id="path1662-6-5"
       sodipodi:nodetypes="cssssscscsssssssssccssssscsssssssssssscccsssssssssccsssssssssssssssssscccsssssssssssssssssscsssssssssssccccsssssscssssssssssscsssssssssssscccsssssssssssssssssscssssssssssssccccsssssscssssssssssscssssssssssssccssssssssssccsssssssssssssssssscssssssssssccsssssssssssscc" />
    <path
       id="rect6448"
       style="display:inline;fill:none;stroke:#000000;stroke-width:0.288349;stroke-dasharray:none;stroke-opacity:1"
       d="m 48.369441,31.136298 0.688419,1.490086 h 4.333811 0.147518 3.965116 l 0.627326,-1.490086 h -4.592442 -0.147518 z m 23.894158,-0.01192 0.694379,1.490086 4.339128,0.01192 h 0.149009 3.905513 l 0.634776,-1.490086 h -4.540289 -0.149009 z m 23.862426,0.01192 0.68991,1.490086 h 4.316575 0.14752 3.87755 l 0.62733,-1.490086 h -4.50488 -0.14752 z m 23.836885,0 0.69438,1.490086 h 4.35383 0.14752 3.9624 l 0.63179,-1.490086 h -4.59419 -0.14752 z m 12.82967,0 -0.64074,1.490086 h 3.472 v -1.490086 z m -102.461467,0.01639 v 1.491576 h 3.434917 l 0.640737,-1.491576 z m 6.757405,0.01937 -0.612425,1.490086 h 4.518069 0.144539 4.948748 L 45.415421,31.17206 h -4.27672 -0.144539 z m 23.999442,0 -0.607955,1.490086 h 4.418103 0.141558 4.894929 L 69.267037,31.17206 h -4.227371 -0.141558 z m 23.917473,0 -0.612425,1.490086 h 4.376264 0.143048 4.800002 L 93.038804,31.17206 H 88.91232 88.769272 Z m 23.840897,0 -0.61243,1.490086 h 4.39163 0.14305 4.89817 l -0.67203,-1.490086 h -4.22614 -0.14305 z"
       sodipodi:nodetypes="cccccccccccccccccccccccccccccccccccccccccccccccccccccccccccccccccccccccccccccccccc"
       transform="matrix(0.34680189,0,0,0.34680189,2.2281385,44.613478)" />
    <path
       id="rect6448-9"
       style="display:inline;fill:none;stroke:#000000;stroke-width:0.288349;stroke-dasharray:none;stroke-opacity:1"
       d="m 82.336574,15.868886 v 14.137081 l 1.490085,-3.529748 V 15.868886 Z m 1.490085,18.362728 -1.490085,3.175722 v 10.708482 h 1.490085 z"
       transform="matrix(0.34680189,0,0,0.34680189,2.2281385,44.613478)"
       sodipodi:nodetypes="cccccccccc" />
    <path
       id="path10508-90"
       style="display:inline;fill:none;stroke:#000000;stroke-width:0.1;stroke-dasharray:none;stroke-opacity:1"
       d="m 53.499571,14.491486 a 3.9999995,3.9999995 0 0 1 -4,4.000002 3.9999995,3.9999995 0 0 1 -4,-4.000002 3.9999995,3.9999995 0 0 1 4,-4.000002 3.9999995,3.9999995 0 0 1 4,4.000002 z" />
    <path
       id="path10508-91"
       style="display:inline;fill:none;stroke:#000000;stroke-width:0.1;stroke-dasharray:none;stroke-opacity:1"
       d="m 16.499571,14.491486 a 3.9999995,3.9999995 0 0 1 -4,4.000002 3.9999995,3.9999995 0 0 1 -3.9998841,-4.000002 3.9999995,3.9999995 0 0 1 3.9998841,-4.000002 3.9999995,3.9999995 0 0 1 4,4.000002 z" />
    <path
       style="display:inline;fill:none;stroke:#000000;stroke-width:0.092;stroke-dasharray:none;stroke-opacity:1"
       d="m 16.474457,39.387558 c -0.05888,-0.260873 -0.415692,-2.405271 -0.415692,-2.498232 0,-0.03806 -0.226998,-0.04084 -0.504441,-0.0062 -0.492194,0.0615 -0.506869,0.05674 -0.604484,-0.195883 -0.108645,-0.281166 -0.164145,-1.354755 -0.07471,-1.445119 0.08207,-0.08292 3.675412,-0.696813 3.762746,-0.642837 0.126893,0.07842 0.264335,0.702917 0.264873,1.203498 5.55e-4,0.508758 0.0097,0.49948 -0.618854,0.62599 -0.164018,0.03301 -0.298214,0.07624 -0.298214,0.09607 0,0.01983 0.103563,0.625591 0.230139,1.346139 0.210657,1.199187 0.21757,1.319338 0.08166,1.41935 -0.190873,0.140452 -0.951723,0.30365 -1.415659,0.30365 -0.299152,0 -0.368726,-0.03526 -0.407362,-0.206456 z m 27.485781,0.02075 c -0.562589,-0.118411 -1.202487,-0.455963 -1.412083,-0.744887 -0.364926,-0.503049 -0.351422,-1.627639 0.02847,-2.372326 0.352864,-0.691667 1.237282,-0.959815 2.425959,-0.735529 1.102383,0.208005 1.580619,0.775327 1.323764,1.570351 -0.189868,0.587678 -0.486924,0.779362 -1.430718,0.81438 -0.770715,0.0286 -0.764042,0.09569 -0.623335,0.301771 0.100216,0.146771 0.2428,0.153491 0.45291,0.108781 0.881369,-0.187548 0.868305,-0.189681 1.016944,0.166065 0.15928,0.381205 0.180885,0.764464 0.04313,0.849599 -0.165452,0.102255 -1.403143,0.130599 -1.825062,0.0418 z m 0.719826,-2.469849 c 0.08822,-0.264657 -0.170096,-0.496001 -0.303962,-0.349735 -0.04311,0.0471 -0.113664,0.201576 -0.147616,0.345299 -0.08129,0.344123 0.333606,0.358358 0.451578,0.0044 z M 19.441073,36.726576 c -0.128528,-1.274289 -0.216346,-2.365295 -0.195152,-2.424457 0.09462,-0.264129 1.612702,-0.582761 1.814595,-0.380869 0.02958,0.02959 0.0785,0.348504 0.1087,0.708704 l 0.0549,0.654909 0.227607,-0.149134 c 0.125184,-0.08202 0.467758,-0.17091 0.761276,-0.197525 0.49874,-0.04522 0.551368,-0.03069 0.804097,0.222037 0.18687,0.186869 0.300751,0.424564 0.368564,0.769275 0.123996,0.630297 0.32478,2.64998 0.26899,2.705769 -0.09058,0.09058 -1.107949,0.233394 -1.473719,0.20687 l -0.255923,-0.01701 -0.157032,-1.341566 c -0.182348,-1.55785 -0.278874,-1.37637 -0.36741,-1.37637 -0.03955,0 -0.147763,0.599986 -0.07611,1.333302 0.07165,0.733317 0.113614,1.389765 0.08551,1.417865 -0.104054,0.104055 -0.642348,0.180776 -1.180445,0.1829 l -0.554771,0.0022 z m 20.911968,2.141762 c -0.184537,-0.04364 -0.226816,-0.120329 -0.2168,-0.334946 0.0069,-0.148428 0.04393,-0.775686 0.08223,-1.393905 0.05106,-0.824225 -0.02858,-1.124036 -0.105695,-1.124036 -0.05784,0 -0.16196,0.134196 -0.167061,0.298214 -0.0051,0.164017 -0.05672,0.773061 -0.114698,1.35343 l -0.105421,1.055217 -0.798862,-0.0073 c -0.500542,-0.0046 -0.89419,-0.05002 -0.955106,-0.110931 -0.07699,-0.07699 -0.06527,-0.522918 0.04559,-1.735124 0.121079,-1.323863 0.17904,-1.653312 0.307398,-1.747169 0.236855,-0.173192 1.399099,-0.151912 1.599318,0.02928 0.123805,0.112042 0.202196,0.122458 0.345283,0.04588 0.101818,-0.05449 0.433277,-0.09907 0.736583,-0.09907 0.451002,0 0.598362,0.0404 0.808916,0.221787 0.25552,0.220126 0.257424,0.229918 0.25406,1.307551 -0.0017,0.597171 -0.03612,1.36448 -0.07612,1.705132 l -0.07273,0.619366 -0.510079,0.02008 c -0.386837,0.01523 -0.805593,-0.04404 -0.933216,-0.07422 z M 24.729896,38.551335 c -0.382432,-0.177586 -0.766629,-0.609633 -0.873508,-0.982299 -0.04947,-0.172502 -0.08995,-0.583878 -0.08995,-0.91417 0,-1.257266 0.594323,-1.809511 2.044774,-1.900001 1.235592,-0.07709 1.786681,0.219723 1.875788,1.010272 0.09005,0.798936 -0.399263,1.250081 -1.515585,1.397359 -0.402116,0.05305 -0.467098,0.08609 -0.378736,0.192562 0.148118,0.178471 0.395524,0.247484 0.827132,0.02729 0.472784,-0.241198 0.65188,-0.177347 0.919958,0.327981 0.248022,0.467527 0.198221,0.553901 -0.249112,0.779511 -0.377171,0.190224 -2.1898,0.23375 -2.56076,0.06149 z m 1.273907,-2.458869 c 0,-0.292562 -0.375653,-0.33551 -0.468703,-0.09303 -0.03692,0.09622 -0.01148,0.212573 0.03927,0.301354 0.05074,0.08878 0.131528,0.147434 0.19579,0.133336 0.02611,-0.0057 0.126523,-0.06316 0.167439,-0.125482 0.04091,-0.06232 0.06621,-0.141971 0.06621,-0.216182 z m 8.544205,2.370531 c -0.809887,-0.316914 -1.050068,-0.73054 -1.053203,-1.813747 -0.0028,-0.928572 0.236373,-1.404795 0.868489,-1.730093 0.388626,-0.199994 0.554297,-0.22757 1.304166,-0.217081 1.559484,0.02181 2.07153,0.481919 2.065531,1.856013 -0.0045,1.036665 -0.303653,1.572762 -1.05202,1.88545 -0.403227,0.168478 -1.721407,0.180503 -2.132963,0.01946 z m 1.30521,-1.757692 c 0.03815,-0.755495 -0.172661,-1.059251 -0.332165,-0.899745 -0.123528,0.123525 -0.219314,1.217283 -0.134978,1.553311 0.109867,0.437742 0.429598,0.08995 0.467143,-0.653566 z m -5.510783,1.72644 c -0.03364,-0.03364 -0.06117,-0.692144 -0.06117,-1.463332 v -1.402161 l -0.481732,-0.02773 -0.481728,-0.02773 -0.02691,-0.66382 c -0.04407,-1.086325 -0.150495,-1.033703 2.090556,-1.033703 h 1.919531 l 0.06036,0.321766 c 0.05657,0.301538 -0.0067,1.013043 -0.115124,1.29573 -0.03184,0.08297 -0.201437,0.125906 -0.497286,0.125906 h -0.448974 v 1.410779 1.41078 l -0.286742,0.05735 c -0.381399,0.07628 -1.593434,0.07351 -1.67076,-0.0038 z"
       id="path3603-3"
       inkscape:label="The Tone"
       sodipodi:nodetypes="sssssssssssssscscsssssssccsssssssscsssssscssssscssssssscsssssssscscsssssssssssssssssssssssscsssscsscsccccscssscccsccs" />
  </g>
</svg>
