<?xml version="1.0" encoding="UTF-8" standalone="no"?>
<svg
   width="62mm"
   height="117mm"
   viewBox="0 0 62 117"
   version="1.1"
   id="svg8"
   inkscape:version="1.1.1 (3bf5ae0d25, 2021-09-20)"
   sodipodi:docname="tone_cushion_front_tayda.svg"
   inkscape:export-filename="/home/yann/_dev/98 - Graphics/graphics-pedals/Shining Pig/shining_pig_front_9V.png"
   inkscape:export-xdpi="96"
   inkscape:export-ydpi="96"
   xmlns:inkscape="http://www.inkscape.org/namespaces/inkscape"
   xmlns:sodipodi="http://sodipodi.sourceforge.net/DTD/sodipodi-0.dtd"
   xmlns="http://www.w3.org/2000/svg"
   xmlns:svg="http://www.w3.org/2000/svg"
   xmlns:rdf="http://www.w3.org/1999/02/22-rdf-syntax-ns#"
   xmlns:cc="http://creativecommons.org/ns#"
   xmlns:dc="http://purl.org/dc/elements/1.1/">
  <defs
     id="defs2" />
  <sodipodi:namedview
     id="base"
     pagecolor="#ffffff"
     bordercolor="#666666"
     borderopacity="1.0"
     inkscape:pageopacity="0"
     inkscape:pageshadow="2"
     inkscape:zoom="2"
     inkscape:cx="-239.75"
     inkscape:cy="281.75"
     inkscape:document-units="mm"
     inkscape:current-layer="layer1"
     inkscape:document-rotation="0"
     showgrid="true"
     inkscape:window-width="3836"
     inkscape:window-height="2113"
     inkscape:window-x="0"
     inkscape:window-y="881"
     inkscape:window-maximized="1"
     showborder="true"
     inkscape:showpageshadow="false"
     inkscape:pagecheckerboard="true">
    <sodipodi:guide
       position="-2.0168617,58.500093"
       orientation="0,117.16536"
       id="guide1967" />
    <sodipodi:guide
       position="31.001653,138.8865"
       orientation="-221.10236,0"
       id="guide1969" />
    <inkscape:grid
       type="xygrid"
       id="grid1973"
       visible="true"
       enabled="true"
       originx="31.000001"
       originy="58.500002"
       dotted="false" />
  </sodipodi:namedview>
  <metadata
     id="metadata5">
    <rdf:RDF>
      <cc:Work
         rdf:about="">
        <dc:format>image/svg+xml</dc:format>
        <dc:type
           rdf:resource="http://purl.org/dc/dcmitype/StillImage" />
      </cc:Work>
    </rdf:RDF>
  </metadata>
  <g
     inkscape:groupmode="layer"
     id="layer4"
     inkscape:label="COLOR"
     style="display:inline">
    <text
       xml:space="preserve"
       style="font-style:normal;font-variant:normal;font-weight:normal;font-stretch:normal;font-size:4.16278px;line-height:1.25;font-family:Questrial;-inkscape-font-specification:'Questrial, Normal';font-variant-ligatures:normal;font-variant-caps:normal;font-variant-numeric:normal;font-variant-east-asian:normal;letter-spacing:0px;word-spacing:0px;display:inline;fill:#e74d93;fill-opacity:1;stroke:none;stroke-width:0.0959977"
       x="8.3383703"
       y="26.985346"
       id="text2395"
       inkscape:label="t"
       sodipodi:insensitive="true"><tspan
         sodipodi:role="line"
         id="tspan2393"
         x="8.3383703"
         y="26.985346"
         style="font-style:normal;font-variant:normal;font-weight:normal;font-stretch:normal;font-size:4.16278px;font-family:Questrial;-inkscape-font-specification:'Questrial, Normal';font-variant-ligatures:normal;font-variant-caps:normal;font-variant-numeric:normal;font-variant-east-asian:normal;fill:#e74d93;fill-opacity:1;stroke-width:0.0959977">t<tspan
   style="fill:#ffffff;fill-opacity:1"
   id="tspan2391" /></tspan></text>
    <text
       xml:space="preserve"
       style="font-style:normal;font-variant:normal;font-weight:normal;font-stretch:normal;font-size:4.16278px;line-height:1.25;font-family:Questrial;-inkscape-font-specification:'Questrial, Normal';font-variant-ligatures:normal;font-variant-caps:normal;font-variant-numeric:normal;font-variant-east-asian:normal;letter-spacing:0px;word-spacing:0px;display:inline;fill:#e74d93;fill-opacity:1;stroke:none;stroke-width:0.0959977"
       x="45.323002"
       y="26.985346"
       id="text2389"
       inkscape:label="l"
       sodipodi:insensitive="true"><tspan
         sodipodi:role="line"
         id="tspan2387"
         x="45.323002"
         y="26.985346"
         style="font-style:normal;font-variant:normal;font-weight:normal;font-stretch:normal;font-size:4.16278px;font-family:Questrial;-inkscape-font-specification:'Questrial, Normal';font-variant-ligatures:normal;font-variant-caps:normal;font-variant-numeric:normal;font-variant-east-asian:normal;fill:#e74d93;fill-opacity:1;stroke-width:0.0959977">l<tspan
   style="fill:#ffffff;fill-opacity:1"
   id="tspan2385" /></tspan></text>
    <path
       id="path4725"
       style="display:inline;fill:#e74d93;fill-opacity:1;stroke:none;stroke-width:0.084604"
       d="m 39.538155,83.188203 c -0.108002,0.0035 -0.216537,0.01355 -0.32246,0.02479 -0.733772,0.07822 -1.46685,0.164986 -2.199349,0.254248 -3.269353,0.398412 -6.545459,0.740553 -9.814388,1.141532 -1.35282,0.165936 -2.708001,0.310187 -4.060735,0.476456 -0.543327,0.06678 -1.246291,0.04335 -1.644861,0.478523 -0.414898,0.45293 -0.301274,1.181695 -0.301274,1.747181 H 0 v 0.422714 h 21.195088 v 0.169498 H 0 v 0.08423 h 21.195088 v 0.507978 H 0 v 0.422715 H 21.195088 V 89.08757 H 0 v 0.168984 h 21.195088 v 0.507979 H 0 v 0.337963 h 21.195088 v 0.254248 H 0 v 0.08423 h 21.195088 v 0.507979 H 0 v 0.422714 h 21.195088 v 0.169498 H 0 v 0.08423 h 21.195088 v 0.507979 H 0 v 0.422714 h 21.195088 v 0.169498 H 0 v 0.168984 h 21.195088 c 0,0.761436 -0.004,1.523264 5.3e-4,2.284613 0.0027,0.441889 0.01277,0.900158 0.367936,1.218015 0.353138,0.316167 0.803828,0.263872 1.239201,0.219625 0.790539,-0.08037 1.580168,-0.182618 2.368847,-0.279569 3.325107,-0.408554 6.657923,-0.75629 9.983371,-1.163238 1.239446,-0.151609 2.483236,-0.270351 3.722769,-0.42323 0.514057,-0.06346 1.170205,-0.05388 1.552361,-0.45837 0.355505,-0.376234 0.308083,-0.919326 0.308509,-1.397846 H 61.999846 V 92.725591 H 40.738612 V 92.556093 H 61.999846 V 92.133379 H 40.738612 V 91.6254 H 61.999846 V 91.54117 H 40.738612 v -0.1695 H 61.999846 V 90.948956 H 40.738612 v -0.507979 h 21.261234 v -0.08423 H 40.738612 V 90.102496 H 61.999846 V 89.764533 H 40.738612 V 89.256554 H 61.999846 V 89.08757 H 40.738612 V 88.918073 H 61.999846 V 88.495358 H 40.738612 V 87.98738 H 61.999846 V 87.90315 H 40.738612 V 87.733649 H 61.999846 V 87.310935 H 40.738612 v -2.538346 c -0.0013,-0.442582 0.02246,-0.957265 -0.312126,-1.298628 -0.243155,-0.248036 -0.564311,-0.296209 -0.888317,-0.285771 z m -0.02997,0.423746 c 0.962205,0.0346 0.807702,1.019974 0.807702,1.837613 v 6.175852 c 0,0.605258 0.246263,1.926195 -0.225827,2.3828 -0.312526,0.302374 -0.892077,0.290113 -1.297078,0.340032 -1.070832,0.132064 -2.14354,0.255704 -3.215306,0.37982 -2.876368,0.333171 -5.754264,0.652912 -8.629449,0.996323 l -2.961059,0.348816 c -0.543497,0.06625 -1.14167,0.20375 -1.689819,0.163814 C 21.353676,96.168329 21.61832,94.72124 21.61832,94.079011 V 87.90316 c 0,-0.560975 -0.230732,-1.786231 0.29559,-2.158008 0.385371,-0.272214 1.029429,-0.235021 1.481046,-0.29042 1.126841,-0.138218 2.257026,-0.246718 3.384289,-0.381373 4.166241,-0.497657 8.341001,-1.092041 12.5212,-1.455724 0.07445,-0.0065 0.143592,-0.008 0.20774,-0.0057 z m -0.525033,0.396875 c -0.184254,0.0013 -0.369097,0.02355 -0.528651,0.04031 -3.865134,0.406218 -7.728172,0.841701 -11.591023,1.268656 l -3.130041,0.358116 c -0.446709,0.05055 -1.036118,0.02429 -1.419035,0.290423 -0.620402,0.431133 -0.44235,1.455407 -0.44235,2.105813 v 5.922122 c 1.69e-4,0.754747 -0.06949,1.792935 0.931209,1.851564 1.288519,0.07546 2.693726,-0.265694 3.975984,-0.404108 2.821123,-0.304576 5.639007,-0.637612 8.460465,-0.939478 l 3.045293,-0.338481 c 0.440365,-0.04713 1.037101,-0.02384 1.388547,-0.33383 0.575051,-0.507368 0.303855,-1.933647 0.303855,-2.627231 v -4.907192 c 0,-0.569765 0.17226,-1.506861 -0.195852,-1.988511 -0.185706,-0.243019 -0.491313,-0.300233 -0.798401,-0.298172 z m -0.02222,0.206706 c 0.978868,-0.03411 0.762743,1.161537 0.762743,1.826247 v 5.583637 c 0,0.531061 0.205684,1.629886 -0.233577,2.022615 -0.315997,0.282495 -0.893299,0.253693 -1.289328,0.299206 -0.986229,0.113456 -1.974238,0.209958 -2.96106,0.318845 l -8.376232,0.930693 c -0.846125,0.0934 -1.692127,0.185978 -2.53783,0.283186 -0.514984,0.05922 -1.085648,0.183012 -1.603003,0.100769 -0.844336,-0.134265 -0.596857,-1.392671 -0.596857,-2.00918 v -5.499407 c 0,-0.561295 -0.188483,-1.55431 0.364319,-1.913061 0.398655,-0.258723 1.038005,-0.237604 1.497066,-0.286803 1.072187,-0.114906 2.143026,-0.237689 3.214792,-0.35605 l 7.699271,-0.845945 c 1.341311,-0.148071 2.711532,-0.407773 4.059701,-0.454752 z"
       inkscape:label="contour" />
    <path
       style="display:inline;fill:#e74d93;fill-opacity:1;stroke-width:0.0917579"
       d="m 20.248193,58.832355 c -0.289312,-0.176418 -0.596823,-0.546497 -0.879077,-1.057936 -0.36922,-0.669026 -1.175253,-2.383726 -1.175253,-2.500154 0,-0.1853 -0.796262,-1.569546 -1.164814,-2.024945 -0.380226,-0.469826 -0.594046,-0.491058 -0.963399,-0.09566 -0.300188,0.321353 -1.173297,1.989245 -1.177993,2.25031 -0.0044,0.245283 -0.222652,0.483397 -0.443048,0.483397 -0.30234,0 -0.248656,-0.211268 0.368897,-1.451754 0.654602,-1.314906 1.259692,-2.035051 1.709921,-2.035051 0.34043,0 0.816222,0.437397 1.20666,1.109281 0.158681,0.273068 0.32817,0.55842 0.376641,0.634123 0.311796,0.486948 0.912957,1.680616 0.912957,1.812772 0,0.08724 0.184787,0.530551 0.410638,0.985143 0.821867,1.654241 1.235878,1.883023 1.869305,1.03298 0.547741,-0.735057 1.115103,-1.836167 1.115103,-2.164141 0,-0.159712 0.0337,-0.290384 0.07489,-0.290384 0.04119,0 0.196026,-0.258072 0.344083,-0.573489 0.971341,-2.069314 1.680523,-2.811356 2.324012,-2.431691 0.292613,0.172645 0.792009,0.811603 1.143955,1.463642 0.729531,1.351584 0.86256,1.625815 1.013023,2.088247 0.206395,0.634342 0.816345,1.750597 1.1542,2.11227 0.142458,0.152502 0.342164,0.277275 0.443794,0.277275 0.428145,0 1.434356,-1.570555 1.881214,-2.936254 0.296324,-0.905635 0.527506,-1.37637 0.675941,-1.37637 0.06636,0 0.120645,-0.05958 0.120645,-0.132395 0,-0.224932 0.379658,-0.812151 0.789443,-1.221037 0.51749,-0.51635 0.824351,-0.525381 1.315905,-0.03872 0.370121,0.366445 0.960044,1.272184 1.349413,2.071832 0.125143,0.257008 0.286167,0.570517 0.35783,0.696687 0.07166,0.126167 0.130904,0.305182 0.131649,0.397813 0.0021,0.268987 0.889256,1.922701 1.204173,2.244804 0.40213,0.41131 0.620768,0.380674 1.014974,-0.142213 0.454338,-0.602655 1.06104,-1.701802 1.176949,-2.132249 0.05308,-0.197112 0.240021,-0.6123 0.415434,-0.922635 0.175412,-0.310336 0.318932,-0.613958 0.318932,-0.674717 0,-0.06076 0.03749,-0.149697 0.08331,-0.197643 0.04582,-0.04794 0.195048,-0.293623 0.331626,-0.54596 0.35834,-0.662048 0.889543,-1.146974 1.256435,-1.146974 0.402148,0 1.097437,0.748714 1.586043,1.707906 0.201866,0.396294 0.480581,0.904809 0.619364,1.130043 0.138786,0.225231 0.252336,0.483765 0.252336,0.574516 0,0.270703 0.817066,1.866238 1.162137,2.269374 0.435378,0.508644 0.678899,0.499506 1.064886,-0.03996 0.487042,-0.680713 1.167814,-1.904785 1.170942,-2.105431 0.005,-0.321256 0.233398,-0.538104 0.497061,-0.471928 0.278305,0.06985 0.291716,0.173443 0.06472,0.499881 -0.09315,0.133955 -0.308345,0.511952 -0.478206,0.839985 -0.523053,1.01013 -1.092148,1.817918 -1.426188,2.024366 -0.279362,0.172655 -0.353186,0.183011 -0.593905,0.0833 -0.151188,-0.06263 -0.428314,-0.28854 -0.615833,-0.502034 -0.339811,-0.386882 -1.505263,-2.619069 -1.615754,-3.094649 -0.08511,-0.366337 -0.936781,-1.811939 -1.27159,-2.158366 -0.15852,-0.164017 -0.347499,-0.298212 -0.41996,-0.298212 -0.245945,0 -0.758726,0.663356 -1.213845,1.570284 -0.249465,0.497117 -0.453572,0.968226 -0.453572,1.046909 0,0.138921 -0.530433,1.23623 -0.642141,1.3284 -0.03059,0.02525 -0.131771,0.211043 -0.22486,0.412913 -0.383525,0.831683 -1.0721,1.651023 -1.471844,1.751353 -0.343497,0.08621 -0.802867,-0.253981 -1.220652,-0.903971 -0.439353,-0.683546 -1.303677,-2.421686 -1.303677,-2.621669 0,-0.212118 -0.901935,-1.798844 -1.260861,-2.218169 -0.172329,-0.201329 -0.389472,-0.36605 -0.48254,-0.36605 -0.383188,0 -1.427253,1.651623 -1.653572,2.615819 -0.134806,0.574315 -0.465731,1.238017 -0.61728,1.238017 -0.06317,0 -0.114857,0.07398 -0.114857,0.164401 0,0.09042 -0.253009,0.547802 -0.562249,1.0164 -0.680876,1.031823 -0.991157,1.237719 -1.499735,0.995194 -0.175247,-0.08357 -0.447676,-0.32864 -0.605398,-0.544604 -0.358136,-0.490382 -1.553413,-2.856583 -1.553504,-3.075356 -7.1e-5,-0.171383 -0.758608,-1.496027 -1.152083,-2.011902 -0.329859,-0.432465 -0.669878,-0.419176 -1.033881,0.04042 -0.359005,0.453281 -1.025499,1.722506 -1.025499,1.95289 0,0.218656 -1.105162,2.298433 -1.459805,2.747171 -0.139595,0.176636 -0.303027,0.41363 -0.363182,0.52666 -0.110827,0.208241 -0.546331,0.482963 -0.76462,0.482335 -0.06559,-1.9e-4 -0.247729,-0.07868 -0.404753,-0.174434 z"
       id="path1066"
       inkscape:label="sine" />
    <rect
       style="display:inline;fill:#000000;fill-opacity:1;stroke-width:0.300339"
       id="rect2155"
       width="36.760998"
       height="0.52020282"
       x="12.543508"
       y="55.414829"
       inkscape:label="horizontal" />
    <rect
       style="display:inline;fill:#000000;fill-opacity:1;stroke-width:0.420594"
       id="rect2051"
       width="0.51009023"
       height="11.097661"
       x="30.78698"
       y="50.214573"
       inkscape:label="vertical" />
    <path
       style="display:inline;fill:#000000;stroke-width:0.0917579"
       d="m 16.871351,39.387548 c -0.05888,-0.260873 -0.415692,-2.405271 -0.415692,-2.498232 0,-0.03806 -0.226998,-0.04084 -0.50444,-0.0062 -0.492195,0.0615 -0.50687,0.05674 -0.604485,-0.195883 -0.108644,-0.281167 -0.164145,-1.354756 -0.07471,-1.44512 0.08207,-0.08292 3.675412,-0.696812 3.762746,-0.642837 0.126893,0.07842 0.264335,0.702917 0.264873,1.203498 5.55e-4,0.508758 0.0097,0.49948 -0.618854,0.625991 -0.164018,0.03301 -0.298214,0.07624 -0.298214,0.09607 0,0.01983 0.103563,0.625591 0.230139,1.34614 0.210658,1.199186 0.21757,1.319337 0.08166,1.419349 -0.190873,0.140452 -0.951723,0.30365 -1.415659,0.30365 -0.299152,0 -0.368726,-0.03526 -0.407362,-0.206456 z m 27.48578,0.02075 c -0.562588,-0.118411 -1.202486,-0.455963 -1.412083,-0.744886 -0.364926,-0.50305 -0.351421,-1.627639 0.02847,-2.372327 0.352864,-0.691667 1.237282,-0.959815 2.425959,-0.735528 1.102383,0.208004 1.580619,0.775326 1.323764,1.57035 -0.189867,0.587678 -0.487996,0.757377 -1.430717,0.81438 -0.770716,0.0466 -0.788274,0.05272 -0.623335,0.216996 0.125917,0.125419 0.242799,0.153491 0.452909,0.108781 0.881369,-0.187547 0.868305,-0.18968 1.016945,0.166065 0.159279,0.381205 0.180885,0.849239 0.04313,0.934374 -0.165452,0.102255 -1.403143,0.130599 -1.825062,0.0418 z m 0.570275,-2.509683 c 0.08822,-0.264657 0.02566,-0.426892 -0.108203,-0.280626 -0.04311,0.0471 -0.106159,0.203232 -0.140111,0.346955 -0.08129,0.344124 0.130342,0.287594 0.248314,-0.06633 z M 19.837967,36.726566 c -0.128528,-1.274289 -0.216346,-2.365295 -0.195152,-2.424457 0.09462,-0.264129 1.612702,-0.582761 1.814595,-0.380869 0.02959,0.02959 0.0785,0.348504 0.1087,0.708704 l 0.05491,0.654909 0.227607,-0.149134 c 0.125184,-0.08202 0.467758,-0.170909 0.761276,-0.197525 0.49874,-0.04522 0.551368,-0.03069 0.804097,0.222037 0.18687,0.18687 0.300751,0.424565 0.368564,0.769275 0.123996,0.630298 0.32478,2.64998 0.26899,2.70577 -0.09058,0.09058 -1.107949,0.233393 -1.473719,0.206869 l -0.387296,-0.02808 -0.154759,-1.330491 c -0.181219,-1.557982 -0.149774,-1.37637 -0.23831,-1.37637 -0.03955,0 -0.01329,0.599987 0.05836,1.333303 0.07165,0.733316 0.107286,1.356293 0.07919,1.384393 -0.104055,0.104055 -0.77049,0.214248 -1.308586,0.216371 l -0.554771,0.0022 z m 20.841809,2.141762 c -0.182428,-0.05175 -0.226815,-0.120329 -0.2168,-0.334946 0.0069,-0.148428 0.04393,-0.775685 0.08223,-1.393905 0.05106,-0.824225 0.04158,-1.124035 -0.03554,-1.124035 -0.05784,0 -0.109339,0.134196 -0.114441,0.298213 -0.0051,0.164018 -0.05672,0.773061 -0.114698,1.353431 l -0.10542,1.055216 -0.851482,-0.0073 c -0.500546,-0.0043 -0.894191,-0.05002 -0.955107,-0.110931 -0.07699,-0.07699 -0.06527,-0.522917 0.04559,-1.735124 0.121079,-1.323863 0.17904,-1.653312 0.307398,-1.747168 0.236856,-0.173193 1.3991,-0.151913 1.599319,0.02928 0.123805,0.112041 0.202196,0.122457 0.345283,0.04588 0.101817,-0.05449 0.433277,-0.09907 0.736583,-0.09907 0.451002,0 0.598361,0.0404 0.808915,0.221786 0.25552,0.220126 0.257424,0.229918 0.25406,1.307552 -0.0017,0.59717 -0.03612,1.364479 -0.07612,1.705131 l -0.07273,0.619366 -0.703821,-0.0091 c -0.387103,-0.005 -0.807049,-0.03843 -0.933216,-0.07422 z M 25.12679,38.551325 c -0.382432,-0.177586 -0.766629,-0.609633 -0.873508,-0.982299 -0.04947,-0.172502 -0.08995,-0.583878 -0.08995,-0.914169 0,-1.257267 0.594323,-1.809512 2.044774,-1.900002 1.235591,-0.07709 1.78668,0.219723 1.875788,1.010273 0.09005,0.798935 -0.399263,1.25008 -1.515585,1.397358 -0.402117,0.05305 -0.467099,0.08609 -0.378737,0.192562 0.148119,0.178471 0.395525,0.160668 0.827133,-0.05952 0.472784,-0.241198 0.65188,-0.177347 0.919957,0.32798 0.248023,0.467527 0.198222,0.640718 -0.249111,0.866328 -0.377171,0.190224 -2.1898,0.23375 -2.56076,0.06149 z m 1.146975,-2.449541 c 0,-0.292562 -0.128609,-0.361778 -0.221659,-0.119295 -0.07384,0.192431 0.02458,0.510956 0.136507,0.441781 0.04683,-0.02894 0.08515,-0.174063 0.08515,-0.322486 z m 8.671136,2.361203 c -0.809886,-0.316914 -1.050067,-0.730539 -1.053203,-1.813747 -0.0028,-0.928572 0.236374,-1.404795 0.868489,-1.730093 0.388627,-0.199994 0.554297,-0.22757 1.304166,-0.217081 1.559485,0.02181 2.071531,0.48192 2.065531,1.856013 -0.0045,1.036665 -0.303653,1.572762 -1.05202,1.88545 -0.403226,0.168478 -1.721406,0.180504 -2.132963,0.01946 z m 1.224162,-1.761826 c 0.03815,-0.755495 -0.02233,-1.05255 -0.181838,-0.893044 -0.123528,0.123525 -0.21593,1.207164 -0.131594,1.543193 0.109866,0.437741 0.275887,0.09337 0.313432,-0.650149 z m -5.429735,1.730575 c -0.03364,-0.03364 -0.06117,-0.692145 -0.06117,-1.463333 v -1.402161 l -0.481732,-0.02773 -0.481729,-0.02773 -0.02691,-0.66382 c -0.04407,-1.086325 -0.150494,-1.033703 2.090557,-1.033703 h 1.919531 l 0.06036,0.321766 c 0.05657,0.301539 -0.0067,1.013043 -0.115125,1.295731 -0.03184,0.08297 -0.201436,0.125905 -0.497286,0.125905 h -0.448973 v 1.41078 1.410779 l -0.286743,0.05735 c -0.381399,0.07628 -1.593433,0.07351 -1.670759,-0.0038 z"
       id="path3603"
       inkscape:label="The Tone" />
    <path
       style="display:inline;fill:#000000;stroke-width:0.0917579"
       d="M 10.836244,80.102762 C 9.1007103,79.84266 8.2307727,78.361456 8.717051,76.494507 c 0.2498444,-0.959216 0.8484779,-1.553805 1.879486,-1.866786 0.959956,-0.291411 3.34623,-0.150557 3.716138,0.219352 0.08491,0.0849 0.137698,0.309843 0.137698,0.586705 0,0.588922 -0.150818,0.677807 -0.935633,0.551415 -0.483514,-0.07787 -0.622339,-0.06756 -0.896399,0.06653 -0.839301,0.410662 -0.835688,1.858272 0.0057,2.290689 0.121302,0.06234 0.552943,0.113952 0.959202,0.114698 0.450432,6.94e-4 0.781616,0.04431 0.848761,0.111462 0.06056,0.06056 0.11011,0.327891 0.11011,0.594068 0,0.440234 -0.02383,0.496288 -0.263754,0.620356 -0.520081,0.268945 -2.53331,0.455965 -3.442134,0.319762 z m 6.393616,0.0048 c -0.954217,-0.129375 -1.691067,-0.529244 -2.109232,-1.144627 -0.38262,-0.563078 -0.509975,-1.312617 -0.472074,-2.778369 0.0304,-1.175613 0.05368,-1.33587 0.210808,-1.450762 0.269715,-0.197219 2.733999,-0.184592 2.933624,0.01502 0.118842,0.118842 0.144191,0.397549 0.144191,1.585349 0,1.119185 0.03012,1.484163 0.134831,1.633652 0.195205,0.278697 0.467942,0.318756 0.73578,0.108077 0.227935,-0.179293 0.2305,-0.196716 0.231838,-1.57395 0.0018,-1.824341 0.01097,-1.842961 0.927336,-1.877984 0.562381,-0.0215 0.71903,0.0031 0.823427,0.128705 0.100539,0.121069 0.128924,0.53095 0.128924,1.861705 0,1.512317 -0.02053,1.747865 -0.180474,2.070442 -0.549348,1.107959 -1.872807,1.644563 -3.508979,1.422727 z m 5.570492,-0.0081 c -0.688131,-0.09998 -1.515506,-0.469046 -1.661008,-0.740921 -0.05872,-0.109715 -0.07516,-0.353235 -0.03977,-0.589185 0.08733,-0.582381 0.27539,-0.652969 1.056974,-0.396738 0.677648,0.222161 0.919082,0.196553 0.919082,-0.09748 0,-0.135145 -0.192229,-0.310443 -0.673932,-0.614575 -0.749392,-0.473138 -1.023054,-0.809227 -1.112173,-1.365886 -0.195368,-1.220302 1.086,-1.972134 3.128537,-1.835643 0.929988,0.06215 1.612692,0.234691 1.877774,0.474588 0.330931,0.299488 0.138808,1.23088 -0.253898,1.23088 -0.07868,0 -0.340822,-0.07024 -0.582531,-0.156085 -0.367102,-0.130384 -0.46357,-0.136089 -0.585803,-0.03465 -0.317178,0.263237 -0.17442,0.450055 0.666707,0.872495 0.447171,0.224585 0.918147,0.533249 1.046614,0.685922 0.572313,0.680158 0.326378,1.674245 -0.52916,2.1389 -0.74965,0.407146 -2.142669,0.590337 -3.257409,0.42837 z m 19.452698,0.04437 c -1.441995,-0.144363 -2.47783,-0.677959 -2.978758,-1.534466 -0.909679,-1.555403 -0.09827,-3.296664 1.831783,-3.930927 0.524687,-0.172429 0.835529,-0.210276 1.697523,-0.206697 1.339304,0.0056 2.07185,0.226316 2.737734,0.825 0.632653,0.568814 0.875532,1.164055 0.820574,2.011052 -0.04531,0.698327 -0.198228,1.076577 -0.671665,1.661393 -0.636128,0.785773 -2.150854,1.303423 -3.437191,1.174645 z m 1.674581,-2.417694 c 0.706259,-0.783436 -0.238936,-1.745627 -1.217628,-1.239526 -0.311869,0.161274 -0.456953,0.394044 -0.456953,0.733115 0,0.815519 1.096889,1.147228 1.674581,0.506411 z M 27.383469,79.849443 27.158857,79.66759 v -2.401204 c 0,-2.271015 0.0097,-2.408268 0.178114,-2.531484 0.132804,-0.09714 0.489832,-0.130276 1.40348,-0.130276 1.178663,0 1.23395,0.0086 1.45059,0.225224 0.211674,0.211674 0.225227,0.285612 0.225227,1.228916 0,1.10076 0.0075,1.115083 0.585579,1.115083 0.46511,0 0.515517,-0.116862 0.515517,-1.195211 0,-0.900506 0.01623,-0.990234 0.212368,-1.174504 0.195638,-0.183791 0.30589,-0.199397 1.399311,-0.198103 0.652816,6.93e-4 1.246916,0.03934 1.320223,0.08572 0.181738,0.114968 0.283084,1.841424 0.212551,3.62091 -0.07068,1.783206 0.0017,1.705686 -1.5906,1.705686 -0.659388,0 -1.278755,-0.04274 -1.37637,-0.09499 -0.141793,-0.07588 -0.177483,-0.194504 -0.177483,-0.589872 0,-0.555604 -0.150345,-0.783269 -0.517258,-0.783269 -0.453277,0 -0.58372,0.148989 -0.585246,0.668474 -0.0021,0.755429 0.0087,0.749668 -1.49092,0.783187 -1.200301,0.02684 -1.335582,0.01346 -1.540471,-0.152437 z m 8.024891,-0.02421 c -0.157417,-0.173897 -0.178027,-0.380001 -0.207294,-2.072696 -0.03569,-2.06472 0.02039,-2.801573 0.229177,-3.010348 0.194206,-0.194206 2.664233,-0.200507 2.928492,-0.0075 0.166361,0.121523 0.180032,0.276925 0.20719,2.35502 0.01599,1.223701 0.0056,2.318416 -0.02306,2.432698 -0.114473,0.456093 -0.246895,0.495892 -1.649972,0.495892 -1.21483,0 -1.32238,-0.01398 -1.484513,-0.193096 z m 11.483671,-0.01082 c -0.120056,-0.171404 -0.14284,-0.570666 -0.14284,-2.502928 0,-2.810101 -0.03786,-2.706727 0.991603,-2.707164 0.705107,-2.98e-4 0.707681,6.94e-4 2.234257,0.779944 0.840589,0.429133 1.552858,0.780242 1.582828,0.780242 0.02996,0 0.05449,-0.301423 0.05449,-0.669831 0,-0.398638 0.04458,-0.714415 0.110109,-0.779943 0.154237,-0.154237 1.397223,-0.146358 1.526723,0.0097 0.13648,0.164453 0.239355,2.820692 0.156262,4.034706 -0.08868,1.295645 -0.07595,1.283701 -1.325658,1.243205 l -0.972106,-0.03149 -1.128466,-0.664421 C 49.358576,78.941001 48.811468,78.64201 48.76344,78.64201 c -0.04803,0 -0.08733,0.269416 -0.08733,0.598698 0,0.558236 -0.01592,0.604746 -0.235367,0.688186 -0.129451,0.04922 -0.498732,0.08949 -0.82062,0.08949 -0.500761,0 -0.60587,-0.02944 -0.72809,-0.20393 z"
       id="path3485"
       inkscape:label="cushion" />
    <path
       style="display:inline;fill:#000000;stroke-width:0.0917579"
       d="m 28.983679,72.908568 c -2.719991,-0.105674 -6.388018,-0.474525 -10.455961,-1.05143 -1.512277,-0.214466 -2.049636,-0.260272 -2.156314,-0.183802 -0.417506,0.299276 -1.225777,0.650191 -1.72285,0.747986 -1.903006,0.374393 -3.880868,-1.052034 -4.252153,-3.066641 -0.137357,-0.745308 0.01714,-1.584839 0.430713,-2.340503 0.318327,-0.581632 0.320536,-0.593437 0.223228,-1.192853 -0.11402,-0.702357 -0.412949,-3.75111 -0.563182,-5.743858 -0.269543,-3.575301 -0.04495,-8.96694 0.565984,-13.586906 l 0.09796,-0.74079 -0.322749,-0.589702 c -0.41486,-0.757998 -0.569473,-1.596565 -0.431953,-2.342758 0.371285,-2.014603 2.349147,-3.441034 4.252153,-3.066641 0.496405,0.09766 1.306401,0.449156 1.720997,0.746818 0.104445,0.07499 0.748401,0.01715 2.523345,-0.22662 5.397933,-0.741362 8.675429,-1.013254 12.155395,-1.008371 3.542532,0.005 7.144905,0.325153 12.224311,1.086506 l 2.085049,0.312527 0.457803,-0.308077 c 1.361981,-0.916546 2.998352,-0.852582 4.389583,0.171583 0.912428,0.671694 1.397046,1.656518 1.397046,2.839033 0,0.832983 -0.18281,1.463393 -0.607188,2.093892 -0.278887,0.414338 -0.321936,0.544677 -0.282647,0.85581 0.02549,0.201867 0.152551,1.110273 0.282352,2.018675 0.501067,3.506618 0.749654,6.939866 0.657748,9.084038 -0.105067,2.451161 -0.265175,3.898816 -0.938751,8.4879 -0.03843,0.261839 0.01377,0.412001 0.281555,0.809932 0.424145,0.630277 0.606931,1.260794 0.606931,2.093608 0,1.182515 -0.484618,2.167342 -1.397046,2.839031 -1.406233,1.035211 -3.017024,1.095249 -4.400805,0.16403 l -0.469026,-0.315631 -0.743338,0.138454 c -1.023822,0.190696 -3.536824,0.566487 -4.918324,0.73548 -4.140973,0.506553 -7.356666,0.66878 -10.689865,0.53928 z m 5.45966,-1.867847 c 2.79602,-0.19286 7.386616,-0.765385 10.000323,-1.247214 0.680588,-0.125466 1.333363,-0.204041 1.45061,-0.174615 0.117247,0.02944 0.390291,0.216765 0.606764,0.416301 0.874156,0.805767 1.87667,0.846492 2.654925,0.107849 0.837547,-0.794919 0.815511,-1.950685 -0.05413,-2.838959 -0.479076,-0.48934 -0.479246,-0.500397 -0.04692,-3.051627 0.78619,-4.639387 0.934822,-8.112945 0.526123,-12.29557 -0.160025,-1.637692 -0.547829,-4.497874 -0.735983,-5.428132 -0.09857,-0.487364 -0.179227,-0.95366 -0.179227,-1.03621 0,-0.08255 0.185057,-0.347935 0.411237,-0.58974 0.226181,-0.241804 0.473926,-0.589681 0.550548,-0.773063 0.397772,-0.952002 -0.08801,-2.079084 -1.073535,-2.490762 -0.697956,-0.291553 -1.374695,-0.127457 -2.05304,0.49782 -0.501846,0.462589 -0.710565,0.510104 -1.477171,0.336287 -1.372042,-0.311095 -6.136527,-0.928191 -9.800583,-1.269371 -1.911873,-0.178027 -6.921866,-0.15226 -9.0841,0.04672 -2.472364,0.227519 -4.611317,0.481593 -7.203002,0.855608 -1.236439,0.178437 -2.418167,0.346143 -2.626063,0.372684 -0.333539,0.04258 -0.41987,0.01145 -0.734064,-0.264738 -0.628996,-0.552903 -0.867899,-0.665194 -1.411288,-0.663349 -0.911266,0.0031 -1.612454,0.538167 -1.87828,1.433298 -0.180791,0.60879 -0.06964,1.050504 0.427268,1.697917 0.424222,0.552712 0.420997,0.443463 0.08456,2.864445 -0.574195,4.131926 -0.734492,8.413504 -0.465716,12.439413 0.125903,1.885853 0.440224,5.030118 0.564123,5.643115 0.236504,1.170116 0.220289,1.335849 -0.182054,1.860845 -0.435689,0.568509 -0.566775,0.987369 -0.482595,1.542048 0.08462,0.557556 0.344049,0.964438 0.813427,1.275728 0.857705,0.568831 1.598774,0.469136 2.518837,-0.338857 0.189396,-0.166326 0.418509,-0.302411 0.50914,-0.302411 0.09063,0 0.967949,0.122587 1.949594,0.27242 3.541213,0.540501 7.776209,1.002566 10.36418,1.130796 1.442254,0.07146 4.837431,0.05538 6.056086,-0.02868 z m -3.60915,-9.785691 c -0.03364,-0.03364 -0.06117,-1.027602 -0.06117,-2.208795 v -2.147619 l 0.252336,-0.429251 0.252333,-0.429251 0.02445,2.522044 c 0.01346,1.387125 0.0044,2.574245 -0.02004,2.638042 -0.04695,0.122342 -0.344014,0.158707 -0.447892,0.05483 z m -18.304215,-5.546874 0.02903,-0.293405 0.775355,3.47e-4 0.775355,3.46e-4 2.2e-4,0.266324 2.2e-4,0.266326 -0.804598,0.0266 -0.804598,0.0266 0.02903,-0.293404 z m 2.213426,0.01082 0.103904,-0.275274 h 1.616799 1.616798 l 0.106486,0.233713 c 0.05857,0.128542 0.106487,0.252416 0.106487,0.275274 0,0.02285 -0.822235,0.04156 -1.827189,0.04156 h -1.827189 z m 8.230133,0.177486 c 0,-0.05378 0.04274,-0.17766 0.09499,-0.275274 0.08833,-0.165053 0.207016,-0.177486 1.694293,-0.177486 1.487281,0 1.605964,0.01241 1.694294,0.177486 0.194466,0.363358 0.150387,0.373062 -1.694294,0.373062 -1.205264,0 -1.789279,-0.03191 -1.789279,-0.09779 z m 8.258275,0 c 0,-0.05378 0.04274,-0.17766 0.09498,-0.275274 0.08823,-0.164856 0.20668,-0.177486 1.664469,-0.177486 1.387135,0 1.583643,0.01866 1.691377,0.160576 0.282945,0.372736 0.20951,0.389972 -1.661549,0.389972 -1.205264,0 -1.789282,-0.03191 -1.789282,-0.09779 z m 8.258219,0.05788 c 0,-0.02195 0.04027,-0.145823 0.08949,-0.275274 l 0.08949,-0.235371 h 1.604809 c 1.492715,0 1.611442,0.01241 1.699794,0.177486 0.194462,0.363358 0.150383,0.373062 -1.694298,0.373062 -0.984102,0 -1.789279,-0.01796 -1.789279,-0.0399 z M 19.027938,55.818241 c 0,-0.04634 -0.02506,-0.149569 -0.0557,-0.229396 -0.04957,-0.129166 0.133336,-0.145143 1.661461,-0.145143 1.528123,0 1.711026,0.01599 1.661461,0.145143 -0.03062,0.07983 -0.0557,0.183056 -0.0557,0.229396 0,0.04796 -0.691779,0.08425 -1.605765,0.08425 -0.913986,0 -1.605765,-0.0363 -1.605765,-0.08425 z m 8.120844,-0.09844 c -0.03191,-0.100483 -0.03225,-0.224357 -6.94e-4,-0.275274 0.08072,-0.13062 3.533248,-0.125525 3.533248,0.0052 0,0.05379 -0.04274,0.177656 -0.09499,0.275274 -0.08852,0.165324 -0.207537,0.177483 -1.737311,0.177483 -1.559186,0 -1.645165,-0.0092 -1.700217,-0.182696 z m 8.269968,-0.02376 c -0.03041,-0.113553 -0.05589,-0.237424 -0.05658,-0.275274 -6.94e-4,-0.03785 0.803925,-0.06882 1.78803,-0.06882 1.844677,0 1.888756,0.0097 1.694294,0.373065 -0.08847,0.165292 -0.20745,0.177483 -1.732702,0.177483 -1.620803,0 -1.638285,-0.0021 -1.693042,-0.206455 z m 8.295373,0.02896 c -0.194747,-0.363892 -0.151952,-0.373065 1.740175,-0.373065 1.009336,0 1.835158,0.01869 1.835158,0.04156 0,0.02285 -0.04792,0.146732 -0.106486,0.275274 l -0.106485,0.233714 h -1.633687 c -1.52127,0 -1.640224,-0.01221 -1.728675,-0.177483 z m 4.125881,-0.05191 c 0,-0.224298 0.01529,-0.229396 0.688187,-0.229396 0.672889,0 0.688183,0.0051 0.688183,0.229396 0,0.224298 -0.01529,0.229396 -0.688183,0.229396 -0.672893,0 -0.688187,-0.0051 -0.688187,-0.229396 z M 30.773017,52.553316 v -2.33983 h 0.275274 0.275274 v 1.884091 c 0,1.831169 -0.0065,1.896888 -0.230939,2.339827 -0.127016,0.250658 -0.250891,0.45574 -0.275274,0.45574 -0.02438,0 -0.04434,-1.052922 -0.04434,-2.339828 z"
       id="path27"
       inkscape:label="pillow" />
    <text
       xml:space="preserve"
       style="font-style:normal;font-variant:normal;font-weight:normal;font-stretch:normal;font-size:1.76389px;line-height:1.25;font-family:Questrial;-inkscape-font-specification:'Questrial, Normal';font-variant-ligatures:normal;font-variant-caps:normal;font-variant-numeric:normal;font-variant-east-asian:normal;letter-spacing:0px;word-spacing:0px;fill:#a4d8f8;fill-opacity:1;stroke:none;stroke-width:0.0410394"
       x="44.037243"
       y="2.2994757"
       id="text3397-4-6-1"
       inkscape:label="in"
       sodipodi:insensitive="true"><tspan
         sodipodi:role="line"
         id="tspan3395-7-3-0"
         x="44.037243"
         y="2.2994757"
         style="font-style:normal;font-variant:normal;font-weight:normal;font-stretch:normal;font-size:1.76389px;font-family:Questrial;-inkscape-font-specification:'Questrial, Normal';font-variant-ligatures:normal;font-variant-caps:normal;font-variant-numeric:normal;font-variant-east-asian:normal;fill:#a4d8f8;fill-opacity:1;stroke-width:0.0410394">IN</tspan></text>
    <text
       xml:space="preserve"
       style="font-style:normal;font-variant:normal;font-weight:normal;font-stretch:normal;font-size:1.76389px;line-height:1.25;font-family:Questrial;-inkscape-font-specification:'Questrial, Normal';font-variant-ligatures:normal;font-variant-caps:normal;font-variant-numeric:normal;font-variant-east-asian:normal;letter-spacing:0px;word-spacing:0px;fill:#a4d8f8;fill-opacity:1;stroke:none;stroke-width:0.0410394"
       x="15.307714"
       y="2.2994752"
       id="text3397-4-3"
       inkscape:label="out"
       sodipodi:insensitive="true"><tspan
         sodipodi:role="line"
         id="tspan3395-7-1"
         x="15.307714"
         y="2.2994752"
         style="font-style:normal;font-variant:normal;font-weight:normal;font-stretch:normal;font-size:1.76389px;font-family:Questrial;-inkscape-font-specification:'Questrial, Normal';font-variant-ligatures:normal;font-variant-caps:normal;font-variant-numeric:normal;font-variant-east-asian:normal;fill:#a4d8f8;fill-opacity:1;stroke-width:0.0410394">OUT</tspan></text>
    <text
       xml:space="preserve"
       style="font-style:normal;font-variant:normal;font-weight:normal;font-stretch:normal;font-size:1.76389px;line-height:1.25;font-family:Questrial;-inkscape-font-specification:'Questrial, Normal';font-variant-ligatures:normal;font-variant-caps:normal;font-variant-numeric:normal;font-variant-east-asian:normal;letter-spacing:0px;word-spacing:0px;fill:#a4d8f8;fill-opacity:1;stroke:none;stroke-width:0.0410394"
       x="29.935148"
       y="4.4585214"
       id="text3397-8"
       inkscape:label="9V"
       sodipodi:insensitive="true"><tspan
         sodipodi:role="line"
         id="tspan3395-1"
         x="29.935148"
         y="4.4585214"
         style="font-style:normal;font-variant:normal;font-weight:normal;font-stretch:normal;font-size:1.76389px;font-family:Questrial;-inkscape-font-specification:'Questrial, Normal';font-variant-ligatures:normal;font-variant-caps:normal;font-variant-numeric:normal;font-variant-east-asian:normal;fill:#a4d8f8;fill-opacity:1;stroke-width:0.0410394">9V</tspan></text>
    <path
       id="circle817"
       style="vector-effect:none;fill:#a4d8f8;fill-opacity:1;stroke:none;stroke-width:0.0547981;stroke-linecap:butt;stroke-linejoin:miter;stroke-miterlimit:4;stroke-dasharray:none;stroke-dashoffset:0;stroke-opacity:1"
       d="m 27.267069,0.81493732 a 0.90072,0.90072 0 0 0 -0.90072,0.90072018 0.90072,0.90072 0 0 0 0.90072,0.9007202 0.90072,0.90072 0 0 0 0.895035,-0.8118367 h 2.116151 c 0.04569,0.4607611 0.433049,0.8118204 0.896069,0.8118367 0.17394,-3.122e-4 0.344115,-0.050835 0.489892,-0.1457275 v -0.225826 c -0.133209,0.1235861 -0.308181,0.1919968 -0.489892,0.1922363 -0.398544,-8e-7 -0.721402,-0.3228589 -0.721402,-0.721403 -1.3e-5,-0.398551 0.32285,-0.72191871 0.721402,-0.72191971 C 31.35608,0.99405 31.53106,1.0632936 31.664216,1.1870076 V 0.96014809 C 31.518357,0.86551811 31.348187,0.81500934 31.174324,0.81493732 30.711645,0.81540563 30.324438,1.1663541 30.278771,1.6267741 h -2.115632 a 0.90072,0.90072 0 0 0 -0.89607,-0.81183678 z m 7.471378,0 A 0.90072,0.90072 0 0 0 33.842896,1.6267741 H 31.655948 A 0.48986524,0.48986524 0 0 0 31.174324,1.225765 0.48986524,0.48986524 0 0 0 30.684433,1.7156575 0.48986524,0.48986524 0 0 0 31.174324,2.2055501 0.48986524,0.48986524 0 0 0 31.655948,1.804541 h 2.185914 a 0.90072,0.90072 0 0 0 0.896585,0.8118367 0.90072,0.90072 0 0 0 0.900721,-0.9007202 0.90072,0.90072 0 0 0 -0.900721,-0.90072018 z m -7.471378,0.17880047 a 0.72162944,0.72162944 0 0 1 0.721402,0.72191971 0.72162944,0.72162944 0 0 1 -0.721402,0.721403 0.72162944,0.72162944 0 0 1 -0.721921,-0.721403 0.72162944,0.72162944 0 0 1 0.721921,-0.72191971 z m 7.471378,0 a 0.72162944,0.72162944 0 0 1 0.721402,0.72191971 0.72162944,0.72162944 0 0 1 -0.721402,0.721403 0.72162944,0.72162944 0 0 1 -0.721918,-0.721403 0.72162944,0.72162944 0 0 1 0.721918,-0.72191971 z M 27.174052,1.2676229 v 0.3503662 h -0.352433 v 0.1937866 h 0.352433 v 0.3519165 h 0.192752 V 1.8117757 H 27.71717 V 1.6179891 H 27.366804 V 1.2676229 Z m 7.10551,0.3477824 V 1.8159098 H 35.28415 V 1.6154053 Z"
       inkscape:label="polarity" />
    <path
       id="rect1638"
       style="display:inline;fill:#6dcff6;fill-opacity:1;stroke:none;stroke-width:7.11005"
       inkscape:label="background"
       d="m 0,0 v 329.99414 h 80.107422 c 0,-2.13727 -0.429447,-4.89165 1.138672,-6.60352 1.506406,-1.64462 4.163277,-1.55619 6.216797,-1.80859 5.112695,-0.62842 10.234599,-1.17362 15.347659,-1.80078 12.355,-1.51551 24.73714,-2.80864 37.09375,-4.31445 2.7685,-0.33737 5.53919,-0.66531 8.3125,-0.96094 0.40034,-0.0425 0.81055,-0.0805 1.21875,-0.0937 1.22459,-0.0394 2.43841,0.14262 3.35742,1.08008 1.26458,1.29019 1.17477,3.23545 1.17969,4.9082 v 9.59375 h 80.35742 V 0 Z m 103.05664,3.0800781 a 3.4042961,3.4042961 0 0 1 3.38672,3.0683594 h 7.99609 c 0.1726,-1.7401701 1.63606,-3.0665894 3.38477,-3.0683594 0.65712,2.722e-4 1.30028,0.1911717 1.85156,0.5488281 v 0.8574219 c -0.50327,-0.4675804 -1.16461,-0.7292887 -1.85156,-0.7304687 -1.50634,3.8e-6 -2.72661,1.2221811 -2.72656,2.7285156 0,1.5063084 1.22025,2.7265595 2.72656,2.7265625 0.68678,-9.052e-4 1.34809,-0.2594654 1.85156,-0.7265625 v 0.8535156 c -0.55097,0.3586488 -1.19415,0.5496013 -1.85156,0.5507813 -1.75,-6.16e-5 -3.21403,-1.3269001 -3.38672,-3.0683594 h -7.99805 A 3.4042961,3.4042961 0 0 1 103.05664,9.8886719 3.4042961,3.4042961 0 0 1 99.652344,6.484375 3.4042961,3.4042961 0 0 1 103.05664,3.0800781 Z m 28.23828,0 a 3.4042961,3.4042961 0 0 1 3.4043,3.4042969 3.4042961,3.4042961 0 0 1 -3.4043,3.4042969 3.4042961,3.4042961 0 0 1 -3.38867,-3.0683594 h -8.26172 a 1.8514592,1.8514592 0 0 1 -1.82031,1.515625 1.8514592,1.8514592 0 0 1 -1.85156,-1.8515625 1.8514592,1.8514592 0 0 1 1.85156,-1.8515625 1.8514592,1.8514592 0 0 1 1.82031,1.515625 h 8.26563 a 3.4042961,3.4042961 0 0 1 3.38476,-3.0683594 z m -28.23828,0.6757813 a 2.7274184,2.7274184 0 0 0 -2.72852,2.7285156 2.7274184,2.7274184 0 0 0 2.72852,2.7265625 2.7274184,2.7274184 0 0 0 2.72656,-2.7265625 2.7274184,2.7274184 0 0 0 -2.72656,-2.7285156 z m 28.23828,0 a 2.7274184,2.7274184 0 0 0 -2.72851,2.7285156 2.7274184,2.7274184 0 0 0 2.72851,2.7265625 2.7274184,2.7274184 0 0 0 2.72656,-2.7265625 2.7274184,2.7274184 0 0 0 -2.72656,-2.7285156 z m -70.939451,0.46875 c 0.333333,0 0.638507,0.058272 0.914062,0.1738281 0.275556,0.1155556 0.51148,0.2774391 0.707031,0.4863281 0.200001,0.208889 0.352318,0.4476387 0.458985,0.71875 0.106667,0.2711113 0.160156,0.5653036 0.160156,0.8808594 0,0.3111113 -0.05349,0.6053036 -0.160156,0.8808594 -0.106667,0.2711113 -0.258984,0.509861 -0.458985,0.71875 -0.195551,0.208889 -0.431475,0.3707725 -0.707031,0.4863281 -0.275555,0.1155556 -0.580729,0.1738281 -0.914062,0.1738281 -0.333334,0 -0.636554,-0.058272 -0.91211,-0.1738281 C 59.167804,8.4547569 58.928516,8.2928734 58.728516,8.0839844 58.53296,7.8750954 58.382057,7.6363457 58.275391,7.3652344 58.168724,7.0896786 58.115234,6.7954863 58.115234,6.484375 c 0,-0.3155558 0.05349,-0.6097481 0.160157,-0.8808594 0.106666,-0.2711113 0.257569,-0.509861 0.453125,-0.71875 0.2,-0.208889 0.439288,-0.3707725 0.714843,-0.4863281 0.275556,-0.1155556 0.578776,-0.1738281 0.91211,-0.1738281 z m 2.986328,0.052734 h 0.5 v 2.5273437 c 0,0.3422224 0.06447,0.6186978 0.193359,0.8320313 0.133334,0.213333 0.304783,0.372387 0.513672,0.4746093 0.213334,0.097778 0.436858,0.1464844 0.667969,0.1464844 0.235556,0 0.45713,-0.048706 0.666015,-0.1464844 0.20889,-0.1022223 0.380339,-0.2612763 0.513672,-0.4746093 0.133334,-0.2133335 0.199219,-0.4898089 0.199219,-0.8320313 V 4.2773438 h 0.5 v 2.5136718 c 0,0.3866669 -0.08023,0.7261978 -0.240234,1.0195313 -0.16,0.2933335 -0.381571,0.5230554 -0.666016,0.6875 -0.28,0.1644445 -0.603767,0.2460937 -0.972656,0.2460937 -0.364445,0 -0.690169,-0.080234 -0.974609,-0.2402344 C 63.962187,8.3394621 63.742031,8.1116929 63.582031,7.8183594 63.422031,7.5250259 63.341797,7.182127 63.341797,6.7910156 Z m 4.333984,0 h 3.580078 V 4.75 h -1.539062 v 3.9414062 h -0.5 V 4.75 h -1.541016 z m 99.304689,0 h 0.5 v 4.4140624 h -0.5 z m 1.58008,0 h 0.58007 l 2.72657,3.7128906 V 4.2773438 h 0.5 v 4.4140624 h -0.58008 l -2.72656,-3.7265624 v 3.7265624 h -0.5 z M 60.355469,4.7109375 c -0.355556,0 -0.663563,0.080234 -0.925781,0.2402344 -0.262223,0.1555556 -0.4652,0.3661456 -0.607422,0.6328125 -0.137778,0.2666668 -0.207032,0.5670571 -0.207032,0.9003906 0,0.3288891 0.06925,0.6292793 0.207032,0.9003906 0.142222,0.2666669 0.345199,0.4786718 0.607422,0.6386719 0.262218,0.1555557 0.570225,0.234375 0.925781,0.234375 0.36,0 0.669956,-0.078819 0.927734,-0.234375 0.262223,-0.1600001 0.461836,-0.372005 0.599609,-0.6386719 0.142223,-0.2711113 0.212891,-0.5715015 0.212891,-0.9003906 0,-0.3333335 -0.07067,-0.6337238 -0.212891,-0.9003906 C 61.745039,5.3173175 61.545426,5.1067275 61.283203,4.9511719 61.025425,4.7911718 60.715469,4.7109375 60.355469,4.7109375 Z m 42.349611,0.080078 h 0.72851 v 1.3242188 h 1.32422 v 0.7324218 h -1.32422 v 1.3300782 h -0.72851 V 6.8476562 h -1.33203 V 6.1152344 h 1.33203 z m 26.85547,1.3144532 h 3.79687 v 0.7578124 h -3.79687 z m -14.67383,6.2792973 c 0.53778,0 0.94515,0.194826 1.2207,0.585937 0.27556,0.391111 0.41406,0.949383 0.41406,1.673828 0,0.697778 -0.13992,1.247899 -0.41992,1.652344 -0.28,0.404445 -0.69835,0.607422 -1.2539,0.607422 -0.28,0 -0.51451,-0.05349 -0.70118,-0.160156 -0.18666,-0.106667 -0.33278,-0.241806 -0.43945,-0.40625 -0.10222,-0.168889 -0.17289,-0.340339 -0.21289,-0.513672 h 0.56055 c 0.0311,0.09333 0.075,0.185963 0.13281,0.279297 0.0622,0.08889 0.14724,0.166293 0.25391,0.228515 0.10666,0.05778 0.2418,0.08594 0.40625,0.08594 0.27555,0 0.49712,-0.08023 0.66601,-0.240235 0.17334,-0.16 0.30086,-0.375373 0.38086,-0.646484 0.0845,-0.271111 0.12695,-0.572916 0.12695,-0.90625 -0.10666,0.182222 -0.26575,0.333125 -0.4746,0.453125 -0.20445,0.115556 -0.4308,0.173828 -0.67969,0.173828 -0.27556,0 -0.52866,-0.06164 -0.75977,-0.181641 -0.22666,-0.124441 -0.40573,-0.292525 -0.53906,-0.505859 -0.13333,-0.217778 -0.20117,-0.466093 -0.20117,-0.746094 0,-0.275555 0.0693,-0.521041 0.20703,-0.734375 0.13778,-0.217778 0.32162,-0.389227 0.55273,-0.513672 0.23111,-0.124441 0.48421,-0.185546 0.75977,-0.185546 z m 1.9414,0.05273 h 0.54688 l 1.52539,3.847656 1.52734,-3.847656 h 0.54688 l -1.78711,4.414062 h -0.57422 z m -1.9414,0.433594 c -0.18667,0 -0.35616,0.03914 -0.51172,0.11914 -0.15111,0.08 -0.27385,0.191762 -0.36719,0.333985 -0.0933,0.142222 -0.14062,0.307474 -0.14062,0.49414 0,0.182223 0.0473,0.345521 0.14062,0.492188 0.0933,0.142222 0.21608,0.255399 0.36719,0.339844 0.15556,0.08444 0.32505,0.126953 0.51172,0.126953 0.18667,0 0.35811,-0.03773 0.51367,-0.113282 0.15556,-0.08 0.2783,-0.188394 0.36719,-0.326171 0.0933,-0.142223 0.14062,-0.304106 0.14062,-0.486329 0,-0.195552 -0.0473,-0.367005 -0.14062,-0.513671 -0.0889,-0.146667 -0.21163,-0.259844 -0.36719,-0.339844 -0.15111,-0.08445 -0.32256,-0.126953 -0.51367,-0.126953 z m 57.43555,78.107422 h 1.17968 v 11.013678 h -1.17968 z m 28.28906,0 h 1.17969 v 11.013678 h -1.17969 z M 33.386719,91.308594 h 1.179687 V 94.125 h 1.810547 v 1.039062 h -1.810547 v 6.828128 H 33.386719 V 95.164062 H 31.783203 V 94.125 h 1.603516 z M 41.080078,94 c 0.807645,0 1.501236,0.18367 2.078125,0.550781 0.587378,0.356623 1.038849,0.844046 1.353516,1.462891 0.314667,0.608356 0.470703,1.289721 0.470703,2.044922 0,0.744711 -0.156036,1.426073 -0.470703,2.044926 -0.314667,0.61884 -0.766138,1.1114 -1.353516,1.47851 -0.576889,0.35662 -1.27048,0.53516 -2.078125,0.53516 -0.797156,0 -1.488794,-0.17854 -2.076172,-0.53516 -0.587378,-0.36711 -1.038849,-0.85967 -1.353515,-1.47851 -0.314667,-0.618853 -0.470704,-1.300215 -0.470703,-2.044926 0,-0.755201 0.156036,-1.436566 0.470703,-2.044922 0.314666,-0.618845 0.766137,-1.106268 1.353515,-1.462891 C 39.591284,94.18367 40.282922,94 41.080078,94 Z m 9.251953,0 c 0.545423,0 1.053391,0.130356 1.525391,0.392578 0.482489,0.251734 0.872326,0.634482 1.166016,1.148438 0.304176,0.503467 0.455078,1.128336 0.455078,1.873046 v 4.578128 h -1.179688 v -4.546878 c 0,-0.713243 -0.204214,-1.284799 -0.613281,-1.714843 -0.409067,-0.440534 -0.939532,-0.66211 -1.589844,-0.66211 -0.440533,0 -0.83869,0.09954 -1.195312,0.298829 -0.356623,0.199287 -0.644968,0.482498 -0.865235,0.849609 -0.209778,0.356622 -0.314453,0.77214 -0.314453,1.244141 v 4.531252 H 46.541016 V 94.125 h 1.179687 v 1.226562 c 0.2832,-0.377599 0.629996,-0.696762 1.039063,-0.958984 C 49.168832,94.130356 49.692209,94 50.332031,94 Z m 8.527344,0 c 0.807645,0 1.499283,0.18367 2.076172,0.550781 0.587378,0.356623 1.03885,0.844046 1.353515,1.462891 0.314667,0.608356 0.472657,1.289721 0.472657,2.044922 v 0.472656 h -6.591797 c 0.06293,0.461511 0.208697,0.885348 0.439453,1.273438 0.241245,0.377602 0.562361,0.681352 0.960937,0.912112 0.398578,0.22026 0.858368,0.33203 1.382813,0.33203 0.555911,0 1.02279,-0.12204 1.400391,-0.36328 0.3776,-0.25174 0.671081,-0.5709 0.880859,-0.958988 h 1.291016 c -0.272712,0.702758 -0.708774,1.279448 -1.306641,1.730468 -0.587378,0.44053 -1.347738,0.66016 -2.28125,0.66016 -0.797156,0 -1.49393,-0.17854 -2.091797,-0.53516 -0.597867,-0.36711 -1.064746,-0.85967 -1.400391,-1.47851 -0.325154,-0.618853 -0.488281,-1.300215 -0.488281,-2.044926 0,-0.755201 0.15799,-1.436566 0.472657,-2.044922 0.314665,-0.618845 0.766137,-1.106268 1.353515,-1.462891 C 57.370581,94.18367 58.062219,94 58.859375,94 Z m 120.101565,0 c 0.80764,0 1.50123,0.18367 2.07812,0.550781 0.58738,0.356623 1.0369,0.844046 1.35156,1.462891 0.31467,0.608356 0.47266,1.289721 0.47266,2.044922 v 0.472656 h -6.5918 c 0.0629,0.461511 0.2087,0.885348 0.43946,1.273438 0.24124,0.377602 0.56236,0.681352 0.96094,0.912112 0.39857,0.22026 0.86032,0.33203 1.38476,0.33203 0.55591,0 1.02279,-0.12204 1.40039,-0.36328 0.3776,-0.25174 0.67108,-0.5709 0.88086,-0.958988 h 1.28906 c -0.27271,0.702758 -0.70682,1.279448 -1.30468,1.730468 -0.58738,0.44053 -1.34774,0.66016 -2.28125,0.66016 -0.79716,0 -1.49589,-0.17854 -2.09375,-0.53516 -0.59787,-0.36711 -1.06475,-0.85967 -1.40039,-1.47851 -0.32516,-0.618849 -0.48633,-1.300215 -0.48633,-2.044926 0,-0.755201 0.15603,-1.436566 0.4707,-2.044922 0.31467,-0.618845 0.76614,-1.106268 1.35352,-1.462891 C 177.47214,94.18367 178.16378,94 178.96094,94 Z m 16.30078,0 c 0.80764,0 1.49928,0.18367 2.07617,0.550781 0.58738,0.356623 1.03885,0.844046 1.35352,1.462891 0.31466,0.608356 0.47265,1.289721 0.47265,2.044922 v 0.472656 h -6.59375 c 0.0629,0.461511 0.21065,0.885348 0.44141,1.273438 0.24124,0.377602 0.56041,0.681352 0.95898,0.912112 0.39858,0.22026 0.86032,0.33203 1.38477,0.33203 0.55591,0 1.02279,-0.12204 1.40039,-0.36328 0.3776,-0.25174 0.67108,-0.5709 0.88086,-0.958988 h 1.29101 c -0.27271,0.702758 -0.70877,1.279448 -1.30664,1.730468 -0.58737,0.44053 -1.34773,0.66016 -2.28125,0.66016 -0.79715,0 -1.49393,-0.17854 -2.09179,-0.53516 -0.59787,-0.36711 -1.06475,-0.85967 -1.40039,-1.47851 -0.32516,-0.618849 -0.48828,-1.300215 -0.48828,-2.044926 0,-0.755201 0.15798,-1.436566 0.47265,-2.044922 0.31467,-0.618845 0.76419,-1.106268 1.35156,-1.462891 C 193.77097,94.18367 194.46456,94 195.26172,94 Z m -11.89453,0.125 h 1.28906 l 2.48633,6.60742 2.4707,-6.60742 h 1.28906 l -3.0664,7.86719 h -1.38477 z M 41.080078,95.068359 c -0.576889,0 -1.069449,0.137445 -1.478516,0.410157 -0.409065,0.272711 -0.717956,0.634915 -0.927734,1.085937 -0.209778,0.451023 -0.314453,0.948718 -0.314453,1.494141 0,0.534933 0.104675,1.032629 0.314453,1.49414 0.209778,0.451026 0.518669,0.813226 0.927734,1.085936 0.409067,0.27271 0.901627,0.41016 1.478516,0.41016 0.587378,0 1.081891,-0.13745 1.480469,-0.41016 0.409067,-0.27271 0.717956,-0.63491 0.927734,-1.085936 0.209778,-0.461511 0.314453,-0.959207 0.314453,-1.49414 0,-0.545423 -0.104675,-1.043118 -0.314453,-1.494141 -0.209778,-0.451022 -0.518667,-0.813226 -0.927734,-1.085937 -0.398578,-0.272712 -0.893091,-0.410157 -1.480469,-0.410157 z m 17.779297,0 c -0.7552,0 -1.362707,0.226712 -1.824219,0.677735 -0.451022,0.451022 -0.734231,1.012304 -0.849609,1.683594 h 5.349609 c -0.104889,-0.67129 -0.388098,-1.232572 -0.849609,-1.683594 -0.461511,-0.451023 -1.070972,-0.677735 -1.826172,-0.677735 z m 120.101565,0 c -0.7552,0 -1.36271,0.226712 -1.82422,0.677735 -0.45102,0.451022 -0.73423,1.012304 -0.84961,1.683594 h 5.34961 c -0.10489,-0.67129 -0.3881,-1.232572 -0.84961,-1.683594 -0.46151,-0.451023 -1.07097,-0.677735 -1.82617,-0.677735 z m 16.30078,0 c -0.7552,0 -1.36466,0.226712 -1.82617,0.677735 -0.45103,0.451022 -0.73423,1.012304 -0.84961,1.683594 h 5.34961 c -0.10489,-0.67129 -0.3881,-1.232572 -0.84961,-1.683594 -0.46151,-0.451023 -1.06902,-0.677735 -1.82422,-0.677735 z m -77.9336,32.728521 c 0.7993,-0.003 1.72054,0.002 2.7793,0.002 h 7.25391 l 0.22851,1.21484 c 0.21381,1.13968 -0.0258,3.83001 -0.43554,4.89844 -0.12034,0.31359 -0.76074,0.47461 -1.87891,0.47461 h -1.69727 v 5.33203 5.33203 l -1.08398,0.2168 c -1.44151,0.2883 -6.0222,0.27876 -6.31445,-0.0137 -0.12715,-0.12715 -0.23047,-2.61653 -0.23047,-5.53125 v -5.29883 l -1.82031,-0.10547 -1.82227,-0.10352 -0.10156,-2.50976 c -0.14575,-3.59257 -0.47192,-3.89022 5.12304,-3.9082 z m -37.572261,0.17187 c 0.650797,-0.0212 1.152985,0.0475 1.34375,0.23828 0.111837,0.11184 0.296015,1.31635 0.410157,2.67774 l 0.207031,2.47461 0.861328,-0.5625 c 0.473136,-0.31 1.767594,-0.6455 2.876953,-0.7461 1.885002,-0.17091 2.083866,-0.1173 3.039063,0.83789 0.70628,0.70628 1.136277,1.60536 1.392578,2.90821 0.468646,2.38214 1.228438,10.0157 1.017578,10.22656 -0.34235,0.34235 -4.187875,0.8815 -5.570313,0.78125 l -1.464843,-0.10547 -0.583985,-5.0293 c -0.684922,-5.88843 -0.565766,-5.20117 -0.90039,-5.20117 -0.149481,0 -0.0501,2.26747 0.220703,5.03906 0.270803,2.77159 0.405017,5.12622 0.298828,5.23242 -0.393279,0.39328 -2.911564,0.80839 -4.945313,0.81641 l -2.097656,0.01 -0.882812,-8.75782 c -0.485775,-4.81621 -0.818385,-8.9385 -0.738282,-9.16211 0.268215,-0.74871 3.563237,-1.61415 5.515625,-1.67773 z m -7.882812,2.78906 c 0.03539,0.002 0.06,0.005 0.07031,0.0117 0.479596,0.29639 0.997967,2.65687 1,4.54883 0.0021,1.92286 0.03775,1.88708 -2.33789,2.36523 -0.619911,0.12477 -1.128906,0.28834 -1.128907,0.36329 0,0.0749 0.392697,2.36455 0.871094,5.08789 0.796188,4.53235 0.82227,4.98528 0.308594,5.36328 -0.72141,0.53084 -3.598112,1.14843 -5.351562,1.14843 -1.129496,0 -1.392947,-0.13397 -1.539063,-0.77929 -0.223059,-0.98937 -1.570313,-9.0921 -1.570313,-9.44336 0,-0.14385 -0.859603,-0.15468 -1.908203,-0.0234 -1.860264,0.23244 -1.914264,0.21456 -2.283203,-0.74023 -0.410623,-1.06268 -0.621225,-5.11941 -0.283203,-5.46094 0.300493,-0.30361 13.055359,-2.49049 14.152344,-2.44141 z m 63.468753,0.39258 c 0.29122,-5.3e-4 0.61057,0.003 0.96484,0.008 5.89412,0.0824 7.82932,1.82025 7.80664,7.01368 -0.017,3.91802 -1.14809,5.94514 -3.97656,7.12695 -1.52401,0.63677 -6.50506,0.68061 -8.06055,0.0723 -3.06098,-1.19778 -3.97057,-2.7595 -3.98242,-6.85351 -0.0106,-3.50957 0.89411,-5.30959 3.2832,-6.53906 1.28523,-0.6614 1.92626,-0.8244 3.96485,-0.82813 z m -34.65625,0.16406 c 3.53177,0.0604 5.16429,1.24691 5.45898,3.86133 0.34035,3.0196 -1.50934,4.72461 -5.72851,5.28125 -1.519849,0.20051 -1.765612,0.32415 -1.431645,0.72656 0.55982,0.67454 1.495675,0.6076 3.126955,-0.22461 1.7869,-0.91161 2.46336,-0.66966 3.47656,1.24024 0.93741,1.76703 0.7493,2.42074 -0.94141,3.27344 -1.42552,0.71895 -8.27763,0.88348 -9.679683,0.23242 -1.445412,-0.67119 -2.896829,-2.30244 -3.300781,-3.71094 -0.186974,-0.65198 -0.339844,-2.20869 -0.339844,-3.45703 0,-4.75188 2.246496,-6.83768 7.728516,-7.17969 0.583735,-0.0364 1.126322,-0.0516 1.630862,-0.043 z m 48.73828,0.98243 c 1.30467,0.0239 2.59233,0.21422 2.9707,0.55664 0.46793,0.42346 0.76389,0.46325 1.30469,0.17382 0.38482,-0.20594 1.63685,-0.37304 2.7832,-0.37304 1.70458,0 2.26085,0.15233 3.05664,0.83789 0.96575,0.83197 0.97365,0.86846 0.96094,4.9414 -0.006,2.25702 -0.13593,5.15781 -0.28711,6.44532 l -0.27539,2.33984 -2.66016,-0.0332 c -1.46306,-0.0189 -3.05049,-0.14598 -3.52734,-0.28125 -0.68949,-0.19559 -0.85621,-0.45448 -0.81836,-1.26563 0.0261,-0.56099 0.16579,-2.93295 0.31055,-5.26953 0.19298,-3.11518 0.15671,-4.24805 -0.13477,-4.24805 -0.21861,0 -0.41236,0.50705 -0.43164,1.12696 -0.0193,0.61991 -0.21446,2.92171 -0.43359,5.11523 l -0.39844,3.98828 -3.21875,-0.0273 c -1.89183,-0.0162 -3.37914,-0.18971 -3.60938,-0.41992 -0.2909,-0.29099 -0.24712,-1.97507 0.17188,-6.55664 0.45762,-5.00358 0.67698,-6.24879 1.16211,-6.60352 0.4476,-0.32729 1.76954,-0.47115 3.07422,-0.44726 z m 19.02344,1.79492 c 0.96599,-0.0167 2.01746,0.0791 3.14062,0.29101 4.16649,0.78616 5.9747,2.93073 5.00391,5.93555 -0.71761,2.22114 -1.84517,2.86268 -5.40821,3.07812 -2.91294,0.17613 -2.97878,0.19943 -2.35547,0.82032 0.47591,0.47402 0.91878,0.57914 1.7129,0.41015 3.33115,-0.70884 3.28,-0.71564 3.84179,0.62891 0.602,1.44077 0.68463,3.20948 0.16407,3.53125 -0.62534,0.38647 -5.30379,0.49382 -6.89844,0.1582 -2.12632,-0.44754 -4.54376,-1.72441 -5.33594,-2.8164 -1.37925,-1.9013 -1.32839,-6.15028 0.10742,-8.96485 1.00025,-1.96063 3.12937,-3.02231 6.02735,-3.07226 z m -32.13282,1.08984 c -0.0867,-0.008 -0.18579,0.0432 -0.29883,0.15625 -0.46679,0.46687 -0.81679,4.562 -0.49804,5.83203 0.41524,1.65446 1.04169,0.35312 1.18359,-2.45703 0.11716,-2.32002 -0.0109,-3.4951 -0.38672,-3.53125 z m -37.363278,0.26172 c -0.153352,-0.0221 -0.332466,0.15178 -0.486328,0.55273 -0.279081,0.7273 0.09259,1.93137 0.515625,1.66993 0.176995,-0.10938 0.322265,-0.65779 0.322265,-1.21875 0,-0.62199 -0.154395,-0.97555 -0.351562,-1.00391 z m 70.767578,2.74805 c -0.0881,0.005 -0.19773,0.0688 -0.32422,0.20703 -0.16293,0.17801 -0.40097,0.76929 -0.5293,1.3125 -0.30723,1.30062 0.49358,1.08571 0.93946,-0.25196 0.25007,-0.7502 0.17805,-1.28145 -0.0859,-1.26757 z m -52.37109,10.20312 c 13.38909,0.0189 27.00537,1.22792 46.20312,4.10547 l 7.87891,1.18164 1.73047,-1.16406 c 5.14764,-3.46411 11.3336,-3.22242 16.59179,0.64844 3.44855,2.53868 5.2793,6.26112 5.2793,10.73046 0,3.14829 -0.69097,5.53108 -2.29492,7.91407 -1.05406,1.566 -1.21686,2.05844 -1.06836,3.23437 0.0963,0.76296 0.57777,4.19558 1.06836,7.62891 1.89379,13.25336 2.83173,26.23003 2.48437,34.33398 -0.3971,9.26423 -1.00107,14.73551 -3.54687,32.08008 -0.14525,0.98963 0.0523,1.55656 1.06445,3.06055 1.60307,2.38215 2.29297,4.76446 2.29297,7.91211 0,4.46934 -1.83075,8.1918 -5.2793,10.73047 -5.31489,3.9126 -11.40277,4.14066 -16.63281,0.62109 l -1.77344,-1.19336 -2.80859,0.52344 c -3.86956,0.72074 -13.36843,2.14058 -18.58984,2.77929 -15.65093,1.91454 -27.80443,2.52852 -40.40235,2.03907 -10.280257,-0.3994 -24.144638,-1.79418 -39.519529,-3.97461 -5.715693,-0.81058 -7.745245,-0.98423 -8.148438,-0.69532 -1.577975,1.13113 -4.633018,2.45851 -6.511719,2.82813 -7.192463,1.41503 -14.668983,-3.97753 -16.072265,-11.5918 -0.519145,-2.81691 0.0658,-5.98965 1.628906,-8.8457 1.203126,-2.19829 1.211528,-2.2423 0.84375,-4.50781 -0.430942,-2.65458 -1.561096,-14.17734 -2.128906,-21.70899 -1.018745,-13.51295 -0.17037,-33.89027 2.138672,-51.35156 l 0.371093,-2.80078 -1.220703,-2.22852 c -1.567975,-2.86487 -2.152573,-6.03325 -1.632812,-8.85351 1.403282,-7.61425 8.879802,-13.00683 16.072265,-11.5918 1.876177,0.36911 4.93693,1.69725 6.503907,2.82227 0.394752,0.28342 2.828659,0.0659 9.537109,-0.85547 20.401637,-2.802 32.78878,-3.829 45.94141,-3.81055 z m -1.03321,6.89063 c -6.65862,0.0342 -13.43537,0.24506 -17.521481,0.62109 -9.344368,0.85991 -17.427312,1.82089 -27.222657,3.23437 -4.673144,0.67441 -9.140032,1.3079 -9.925781,1.40821 -1.26062,0.16093 -1.587885,0.0439 -2.77539,-1 -2.377308,-2.08971 -3.280231,-2.51479 -5.333985,-2.50781 -3.444155,0.0117 -6.092959,2.03479 -7.097656,5.41796 -0.683305,2.30094 -0.262843,3.97106 1.615234,6.41797 1.603359,2.08899 1.589933,1.67612 0.31836,10.82617 -2.170186,15.61673 -2.775612,31.79764 -1.759766,47.01368 0.475854,7.12763 1.664533,19.01324 2.132813,21.33008 0.893873,4.42237 0.831202,5.04712 -0.689453,7.03124 -1.646699,2.1487 -2.14238,3.73366 -1.824219,5.83008 0.319823,2.1073 1.302145,3.64379 3.076172,4.82032 3.241719,2.14991 6.042127,1.77258 9.519531,-1.28125 0.715827,-0.62864 1.581286,-1.14258 1.923828,-1.14258 0.342539,0 3.658986,0.463 7.369141,1.02929 13.384101,2.04284 29.390523,3.79075 39.171879,4.2754 5.45103,0.26997 18.28273,0.20833 22.88867,-0.10938 10.56763,-0.72892 27.91829,-2.8918 37.79687,-4.71289 2.5723,-0.4742 5.03929,-0.77137 5.48242,-0.66016 0.44314,0.11127 1.47481,0.81812 2.29297,1.57227 3.3039,3.04542 7.09372,3.19992 10.03516,0.4082 3.16553,-3.00442 3.08175,-7.37321 -0.20508,-10.73047 -1.81068,-1.84947 -1.81172,-1.89076 -0.17773,-11.5332 2.97142,-17.53469 3.53297,-30.66236 1.98828,-46.4707 -0.60482,-6.18971 -2.07012,-16.99969 -2.78125,-20.51563 -0.37255,-1.842 -0.67774,-3.60597 -0.67774,-3.91797 0,-0.312 0.69984,-1.3146 1.55469,-2.22851 0.85486,-0.91391 1.79048,-2.22878 2.08008,-2.92188 1.50339,-3.59812 -0.33182,-7.85811 -4.05664,-9.41406 -2.63795,-1.10193 -5.19594,-0.48044 -7.75977,1.88281 -1.89674,1.74837 -2.68657,1.92648 -5.58398,1.26953 -5.18567,-1.17579 -23.19262,-3.50737 -37.04102,-4.79687 -3.61299,-0.33643 -10.15387,-0.47956 -16.8125,-0.44531 z m -0.008,34.49804 h 1.04102 1.04101 v 7.1211 c 0,2.89342 -0.0326,4.18903 -0.0996,5.34179 v 3.01563 c 0.24502,-0.36846 0.47066,-0.62305 0.65235,-0.62305 0.25081,0 0.45507,-0.22479 0.45507,-0.5 0,-0.85013 1.43559,-3.06984 2.98438,-4.61523 0.97793,-0.97578 1.75678,-1.47158 2.52344,-1.49414 0.76666,-0.0226 1.52029,0.42798 2.44922,1.34765 1.39888,1.38499 3.62993,4.80779 5.10156,7.83008 0.39479,0.81079 0.83775,1.66956 1.14258,2.23438 h 0.66406 c 0.4793,-0.12516 2.76437,-0.23633 6.14844,-0.23633 3.67911,0 5.40151,0.0254 6.1582,0.23633 h 1.37891 c 0.27994,-0.61799 0.44111,-1.12662 0.76367,-1.69727 0.66297,-1.17292 1.20508,-2.31919 1.20508,-2.54883 0,-0.22964 0.14127,-0.56683 0.31445,-0.74804 0.17318,-0.18119 0.7377,-1.10879 1.25391,-2.0625 1.35425,-2.50223 3.36136,-4.33594 4.74804,-4.33594 1.51993,0 4.14744,2.82978 5.99414,6.45508 0.76296,1.4978 1.81727,3.4202 2.3418,4.27148 0.13582,0.22042 0.24743,0.44377 0.36133,0.66602 h 0.61328 c 0.76548,-0.21041 2.53095,-0.23633 6.25195,-0.23633 3.81482,0 6.9375,0.0698 6.9375,0.15625 0,0.007 -0.0292,0.0691 -0.0312,0.0801 h 7.64649 v 1.96679 h -5.78907 c -0.0273,0.0411 -0.0401,0.0698 -0.0703,0.11328 -0.35206,0.50629 -1.1666,1.93402 -1.80859,3.17383 -1.9769,3.81782 -4.12811,6.87207 -5.39063,7.65235 -1.05585,0.65255 -1.33433,0.69131 -2.24414,0.31445 -0.57142,-0.23671 -1.61744,-1.09153 -2.32617,-1.89844 -0.96875,-1.10293 -3.70436,-6.15892 -5.17383,-9.35547 h -1.39062 c -0.7764,0.20168 -2.51619,0.22266 -6.13868,0.22266 -3.71933,0 -6.76171,-0.0675 -6.76171,-0.15039 0,-0.006 0.0155,-0.0479 0.0234,-0.0723 h -0.0391 c -0.6227,1.36603 -1.48856,3.0714 -1.75,3.28711 -0.11561,0.0954 -0.49778,0.79758 -0.84961,1.56055 -1.44954,3.14337 -4.05165,6.23994 -5.5625,6.61914 -1.29825,0.32583 -3.03425,-0.95936 -4.61328,-3.41602 -1.29938,-2.02157 -3.19526,-5.84336 -4.12695,-8.05078 h -1.30469 c -0.79575,0.20269 -2.62297,0.22266 -6.22656,0.22266 -3.30465,0 -4.90948,-0.0894 -5.73828,-0.22266 h -0.77735 v 8.10352 l 0.0176,1.82617 c 0.0121,1.24161 -0.0206,1.25086 -0.0176,2.36133 v 8.03125 h -0.81836 c -0.005,5.9e-4 -0.007,-5.6e-4 -0.0117,0 h -1.0996 v -6.66992 c -0.01,-0.90608 -0.0527,-0.88157 -0.0527,-1.89453 v -8.11524 l 0.0527,-0.0898 v -0.60938 c -0.23676,0.003 -0.42969,0.27948 -0.42969,0.61914 0,0.34175 -0.95622,2.07072 -2.125,3.8418 -2.57339,3.8998 -3.74579,4.67835 -5.66797,3.76172 -0.66235,-0.31586 -1.69295,-1.24235 -2.28906,-2.0586 -0.95627,-1.30928 -3.4416,-6.08222 -4.84766,-9.10742 h -1.269531 c -0.776395,0.20168 -2.516187,0.22266 -6.138672,0.22266 -3.352629,0 -5.01413,-0.089 -5.878906,-0.22266 h -0.97461 c -1.328822,2.70255 -3.507402,6.64471 -4.417969,7.79688 -0.527593,0.6676 -1.143736,1.56303 -1.371093,1.99023 -0.418874,0.78706 -2.065596,1.82464 -2.890625,1.82227 -0.247899,-7.2e-4 -0.935821,-0.2964 -1.529297,-0.6582 -1.093463,-0.66678 -2.255479,-2.06711 -3.322266,-4 -0.953224,-1.72725 -2.370041,-4.72083 -3.367187,-6.95118 h -0.722656 c 0.0014,0.009 0.02539,0.0609 0.02539,0.0664 0,0.0864 -3.107999,0.15625 -6.90625,0.15625 h -6.90625 l 0.08398,-0.22266 h -2.083984 v 0.0488 l -3.041016,0.10156 -3.041015,0.0996 0.109375,-1.10742 0.05078,-0.51562 v -0.59375 h 0.05859 6.875 c 0.293828,-0.82765 0.686979,-1.7738 1.646484,-3.70118 2.474087,-4.96972 4.761238,-7.6914 6.462891,-7.6914 1.286664,0 3.084876,1.65395 4.560547,4.19336 0.599739,1.03207 1.24063,2.11036 1.423828,2.39648 0.765609,1.1957 1.785287,3.18481 2.550781,4.80274 h 14.253906 c 0.243557,-0.27172 0.604007,-0.79498 1.060547,-1.76758 3.67121,-7.82103 6.351119,-10.62636 8.783203,-9.19141 1.105939,0.65252 2.99403,3.06685 4.324219,5.53125 1.615516,2.99303 2.258086,4.26999 2.791016,5.42774 h 1.31836 c 1.05318,-0.15461 3.25862,-0.25191 5.88086,-0.24805 2.52102,0.004 4.55815,0.10223 5.59765,0.24805 h 1.36329 v -8.03711 c -0.0131,-1.25723 -0.0527,-1.24986 -0.0527,-2.77735 z m 8.63867,10 c -1.42142,0 -5.21591,5.99 -6.16601,9.65821 H 131.492 c -0.12644,-0.97858 -3.39214,-6.72098 -4.72266,-8.27539 -0.65132,-0.76093 -1.47246,-1.38282 -1.82422,-1.38282 z m 31.27149,0 c -0.92956,0 -2.86581,2.50779 -4.58594,5.93555 -0.83614,1.6662 -1.493,3.17768 -1.64063,3.72266 h 12.76954 c -0.0282,-0.0899 -0.13209,-0.30266 -0.14844,-0.37305 -0.32168,-1.38458 -3.54122,-6.84887 -4.80664,-8.1582 -0.59913,-0.61991 -1.31402,-1.12696 -1.58789,-1.12696 z m -93.691409,0.0684 c -0.556025,-0.0552 -1.106698,0.29772 -1.804688,1.04492 -1.134569,1.21457 -4.435376,7.51721 -4.453125,8.50391 -2.45e-4,0.0137 -0.0013,0.0273 -0.002,0.041 h 12.726563 c -0.02624,-0.0814 -0.228516,-0.5016 -0.228516,-0.53125 0,-0.70035 -3.009391,-5.93115 -4.402344,-7.65235 -0.718537,-0.88786 -1.279913,-1.35108 -1.835937,-1.40625 z m 31.191406,0.24805 c -0.648754,0.0253 -1.314074,0.47132 -2.001953,1.33984 -1.35687,1.71319 -3.876953,6.51012 -3.876953,7.38086 0,0.0852 -0.139014,0.40011 -0.220703,0.6211 H 100.1875 c -0.0444,-0.13903 -0.210913,-0.49097 -0.210938,-0.55079 -2.58e-4,-0.64764 -2.868319,-5.65375 -4.355468,-7.60351 -0.623356,-0.81726 -1.255543,-1.21277 -1.904297,-1.1875 z M 71.849609,211.4082 c 8.78e-4,0.009 0.03516,0.0751 0.03516,0.082 0,0.32973 0.699124,2.00452 1.552734,3.72266 3.106269,6.25225 4.670398,7.11706 7.064453,3.9043 1.897403,-2.54628 3.777827,-6.15323 4.091797,-7.70899 z m 31.210941,0 c 0.0582,0.16457 0.11937,0.32468 0.17578,0.49805 0.78007,2.39751 3.08635,6.61752 4.36328,7.98437 0.53842,0.57639 1.29167,1.04688 1.67578,1.04688 1.45599,0 4.60736,-4.80606 6.46875,-9.5293 z m 31.26562,0 c 0.0745,1.11031 3.35112,7.21496 4.5293,8.41992 1.51986,1.55456 2.34602,1.43916 3.83594,-0.5371 1.67738,-2.22498 3.85849,-6.18153 4.36914,-7.88282 z m 31.34375,0 c 0.39864,1.5854 3.03648,6.70435 4.24414,8.11524 1.64553,1.92243 2.56654,1.88853 4.02539,-0.15039 1.84079,-2.57278 4.41396,-7.19869 4.42578,-7.95703 5e-5,-0.003 0.002,-0.005 0.002,-0.008 z M 90.875,281.36133 c 0.459353,0.006 0.931582,0.0263 1.414062,0.0586 3.514916,0.2349 6.095772,0.88627 7.097657,1.79297 1.250761,1.13192 0.523305,4.65234 -0.960938,4.65234 -0.297373,0 -1.287626,-0.26539 -2.201172,-0.58984 -1.387472,-0.49279 -1.75286,-0.51425 -2.214843,-0.13086 -1.198783,0.99491 -0.657579,1.70221 2.521484,3.29883 1.690095,0.84882 3.46953,2.01476 3.95508,2.5918 2.16307,2.57067 1.23353,6.3278 -2.000002,8.08398 -2.833323,1.53882 -8.099309,2.2313 -12.3125,1.61914 -2.60081,-0.37788 -5.727415,-1.77322 -6.277344,-2.80078 -0.221933,-0.41467 -0.284148,-1.33478 -0.15039,-2.22656 0.330066,-2.20113 1.042075,-2.46843 3.996094,-1.5 2.56118,0.83966 3.472656,0.74412 3.472656,-0.36719 0,-0.51078 -0.726265,-1.17474 -2.546875,-2.32422 -2.832348,-1.78824 -3.866298,-3.0582 -4.203125,-5.16211 -0.692249,-4.3239 3.519856,-7.09208 10.410156,-6.99609 z m -45.15625,0.10547 c 3.650946,0.01 7.503155,0.54612 8.376953,1.41992 0.32092,0.32088 0.519531,1.17039 0.519531,2.2168 0,2.22584 -0.568926,2.56168 -3.535156,2.08398 -1.827454,-0.29431 -2.352854,-0.25484 -3.388672,0.25195 -3.172161,1.55211 -3.15852,7.02387 0.02148,8.65821 0.458464,0.23561 2.089533,0.43077 3.625,0.43359 1.70242,0.003 2.955208,0.16612 3.208984,0.41992 0.228888,0.22889 0.416016,1.24007 0.416016,2.2461 0,1.66387 -0.09125,1.87678 -0.998047,2.3457 -1.965661,1.01648 -9.574841,1.72181 -13.009766,1.20703 -6.559497,-0.98306 -9.845715,-6.58053 -8.007812,-13.63672 0.944293,-3.62538 3.206792,-5.87372 7.103515,-7.05664 1.360568,-0.41302 3.477402,-0.59581 5.667969,-0.58984 z m 116.05859,0.002 c 5.06194,0.0212 7.83093,0.85444 10.34766,3.11719 2.39113,2.14985 3.30928,4.40031 3.10156,7.60156 -0.17125,2.63935 -0.74969,4.06897 -2.53906,6.2793 -2.40426,2.96985 -8.12849,4.92617 -12.99023,4.43945 -5.45006,-0.54562 -9.3665,-2.56359 -11.25977,-5.80078 -3.43816,-5.87869 -0.37086,-12.45826 6.92383,-14.85547 1.98307,-0.6517 3.15808,-0.79478 6.41601,-0.78125 z m -99.972652,0.45508 c 2.550183,0.0131 5.068068,0.21467 5.445312,0.59179 0.449167,0.44917 0.544922,1.50287 0.544922,5.99219 0,4.22999 0.112054,5.60883 0.507812,6.17383 0.737783,1.05334 1.768949,1.20447 2.78125,0.4082 0.861487,-0.67764 0.871896,-0.74392 0.876954,-5.94922 0.0068,-6.89505 0.04048,-6.96528 3.503906,-7.09765 2.125534,-0.0813 2.71871,0.0116 3.113281,0.48633 0.37999,0.45758 0.486328,2.00748 0.486328,7.03711 0,5.71584 -0.07713,6.60512 -0.681641,7.82421 -2.076266,4.18757 -7.077761,6.21735 -13.261718,5.37891 -3.60649,-0.48898 -6.392199,-2.00031 -7.972656,-4.32617 -1.446123,-2.12817 -1.926451,-4.9621 -1.783204,-10.50195 0.114898,-4.44327 0.203006,-5.04819 0.796875,-5.48243 0.509698,-0.37269 3.092386,-0.54821 5.642579,-0.53515 z m 77.539062,0.004 c 2.55048,-0.007 5.13538,0.16847 5.63477,0.53321 0.62876,0.4593 0.68055,1.04812 0.7832,8.90234 0.0604,4.62501 0.0204,8.76143 -0.0879,9.19336 -0.43266,1.72382 -0.93336,1.875 -6.23633,1.875 -4.59148,0 -4.99854,-0.0535 -5.61133,-0.73047 -0.59496,-0.65725 -0.67259,-1.4364 -0.7832,-7.83398 -0.13489,-7.80367 0.0781,-10.58788 0.86719,-11.37696 0.367,-0.367 2.88311,-0.55598 5.43359,-0.5625 z m 59.0625,0.0371 c 1.30852,0.008 2.60488,0.16408 2.84961,0.45899 0.51583,0.62155 0.90585,10.65965 0.5918,15.24805 -0.33517,4.89683 -0.28646,4.85227 -5.00977,4.69921 l -3.67578,-0.11914 -4.26367,-2.51172 c -2.34579,-1.38116 -4.41418,-2.50976 -4.59571,-2.50976 -0.18153,0 -0.33007,1.01719 -0.33007,2.26172 0,2.10987 -0.0593,2.2862 -0.88868,2.60156 -0.48926,0.18603 -1.88497,0.33789 -3.10156,0.33789 -1.89264,0 -2.29002,-0.11199 -2.75195,-0.77148 -0.45376,-0.64783 -0.54102,-2.15595 -0.54102,-9.45899 0,-10.62085 -0.14283,-10.23077 3.74805,-10.23242 2.66497,-10e-4 2.67558,0.002 8.44531,2.94727 3.17703,1.62192 5.86915,2.94921 5.98242,2.94921 0.11324,0 0.20508,-1.13884 0.20508,-2.53125 0,-1.50666 0.16835,-2.6996 0.41602,-2.94726 0.29147,-0.29147 1.6114,-0.43018 2.91992,-0.42188 z m -89.78125,0.006 c 4.45479,0 4.66363,0.0328 5.48242,0.85157 0.80003,0.80002 0.85156,1.07928 0.85156,4.64453 0,4.16035 0.028,4.21484 2.2129,4.21484 1.7578,0 1.94921,-0.44193 1.94921,-4.51758 0,-3.40348 0.0614,-3.743 0.80274,-4.43945 0.73942,-0.69464 1.15645,-0.75489 5.28906,-0.75 2.46734,0.003 4.71122,0.14892 4.98828,0.32422 0.68689,0.43452 1.07127,6.95993 0.80469,13.68555 -0.26714,6.73958 0.006,6.44726 -6.01172,6.44726 -2.49217,0 -4.83419,-0.16189 -5.20312,-0.35937 -0.53591,-0.28679 -0.66993,-0.73422 -0.66993,-2.22852 0,-2.09992 -0.56832,-2.96094 -1.95507,-2.96094 -1.71318,0 -2.20713,0.56394 -2.2129,2.52735 -0.008,2.85516 0.0331,2.83229 -5.63476,2.95898 -4.53657,0.10144 -5.04788,0.0508 -5.82227,-0.57617 l -0.84765,-0.6875 v -9.07422 c 0,-8.58336 0.0354,-9.10266 0.67187,-9.56836 0.50194,-0.36714 1.85153,-0.49219 5.30469,-0.49219 z m 54.82617,6.58008 c -0.64435,0.009 -1.33378,0.17455 -2.02734,0.5332 -1.17872,0.60954 -1.72656,1.48801 -1.72656,2.76954 0,3.08227 4.14472,4.33604 6.32812,1.91406 2.16883,-2.40583 0.21796,-5.25793 -2.57422,-5.2168 z m -14.1289,27.46289 c -0.24245,-0.009 -0.50377,-0.003 -0.78516,0.0215 -15.79918,1.37455 -31.5778,3.62104 -47.32422,5.50195 -4.260509,0.50893 -8.532088,0.91901 -12.791015,1.44141 -1.706899,0.20938 -4.141136,0.0688 -5.597656,1.09765 -1.989249,1.40514 -1.117188,6.03603 -1.117188,8.15625 v 23.3418 c 0,2.42732 -1.000232,7.89663 2.566407,8.15625 2.071732,0.15094 4.332556,-0.36875 6.386718,-0.61914 l 11.191404,-1.31836 c 10.86684,-1.29793 21.74392,-2.5064 32.61524,-3.76563 4.05077,-0.4691 8.1051,-0.9364 12.15234,-1.43554 1.53071,-0.18867 3.72114,-0.14233 4.90234,-1.28516 1.78428,-1.72575 0.85352,-6.71827 0.85352,-9.00586 v -23.3418 c 0,-3.09028 0.58395,-6.81454 -3.05273,-6.94531 z m -1.98438,1.5 c 1.16065,-0.008 2.3157,0.20858 3.01758,1.12695 1.39129,1.82041 0.74023,5.36219 0.74023,7.51563 v 18.54687 c 0,2.62142 1.02499,8.01208 -1.14843,9.92969 -1.3283,1.17162 -3.58368,1.08359 -5.24805,1.26172 l -11.50977,1.2793 c -10.66378,1.14091 -21.31405,2.39963 -31.97656,3.55078 -4.846317,0.52314 -10.15735,1.81255 -15.027343,1.52734 -3.78217,-0.22159 -3.518893,-4.14546 -3.519531,-6.99804 v -22.38282 c 0,-2.45822 -0.672952,-6.3295 1.671875,-7.95898 1.447245,-1.00586 3.674932,-0.9066 5.363281,-1.09766 l 11.830078,-1.35351 c 14.59975,-1.61369 29.20021,-3.25961 43.80859,-4.79492 0.60304,-0.0634 1.30166,-0.14743 1.99805,-0.15235 z m -0.084,0.78125 c -5.09545,0.17756 -10.27423,1.15911 -15.34375,1.71875 l -29.09961,3.19727 c -4.050808,0.44735 -8.098033,0.91141 -12.150394,1.3457 -1.735033,0.18595 -4.151475,0.10625 -5.658203,1.08398 -2.08933,1.35591 -1.376953,5.10904 -1.376953,7.23047 v 20.78516 c 0,2.33011 -0.935332,7.08629 2.255859,7.59375 1.955358,0.31084 4.112198,-0.15704 6.058594,-0.38086 3.196358,-0.3674 6.393844,-0.7173 9.591797,-1.07031 l 31.6582,-3.51758 c 3.72972,-0.41154 7.46393,-0.77627 11.19141,-1.20508 1.4968,-0.17202 3.67873,-0.0632 4.87305,-1.13086 1.6602,-1.48433 0.88281,-5.63737 0.88281,-7.64453 v -21.10351 c 0,-2.51229 0.81684,-7.03127 -2.88281,-6.90235 z m 1.77148,1.7793 c 0.0532,-5e-5 0.0827,0.0232 0.0645,0.0527 -0.0185,0.0295 -0.0667,0.4582 -0.10742,0.95117 -0.0405,0.49312 -0.10295,1.42634 -0.13867,2.07422 -0.0367,0.66635 -0.0651,2.49184 -0.0644,4.20313 8.1e-4,1.66387 0.0402,4.54313 0.0879,6.39844 0.0475,1.85529 0.10018,3.73405 0.11719,4.17578 0.0174,0.44174 0.0887,1.82848 0.16015,3.08008 0.0714,1.25158 0.15769,2.96147 0.19141,3.80078 0.0333,0.85142 0.0462,2.11837 0.0273,2.86523 -0.0193,0.73623 -0.0682,1.73479 -0.11133,2.2207 -0.0432,0.48592 -0.104,1.0643 -0.13476,1.28516 -0.031,0.22088 -0.0827,0.53039 -0.11719,0.6875 -0.0484,0.22061 -0.1041,0.31601 -0.24023,0.41992 -0.097,0.074 -0.35008,0.19001 -0.56446,0.25782 -0.21437,0.0679 -0.65652,0.16891 -0.98047,0.22265 -0.41907,0.0695 -0.87649,0.0968 -1.58789,0.0977 -0.93199,10e-4 -1.01043,-0.005 -1.15039,-0.10938 -0.12381,-0.0924 -0.18914,-0.2424 -0.37109,-0.8457 -0.1214,-0.40258 -0.30967,-0.97778 -0.41992,-1.2793 -0.11021,-0.30149 -0.37927,-0.97162 -0.59766,-1.48828 -0.21838,-0.51666 -0.67014,-1.49193 -1.00391,-2.16797 -0.33377,-0.67603 -0.99465,-1.96312 -1.46679,-2.86133 -0.47214,-0.89819 -1.04951,-2.01905 -1.28516,-2.49023 -0.23565,-0.47119 -0.5502,-1.12138 -0.69726,-1.44531 -0.1471,-0.32391 -1.46627,-3.30026 -2.93165,-6.61328 -1.46525,-3.31304 -2.68532,-6.04625 -2.71093,-6.07422 -0.0268,-0.0287 -0.0454,0.89516 -0.0449,2.14062 2e-4,1.20594 0.0242,3.79554 0.0527,5.75391 0.0283,1.95836 0.0867,6.18653 0.13086,9.39648 0.044,3.20995 0.0897,6.56559 0.10156,7.45703 l 0.0215,1.6211 -0.13477,0.10742 c -0.0741,0.0583 -0.2576,0.14249 -0.4082,0.1875 -0.15058,0.0451 -0.56262,0.12732 -0.91602,0.18359 -0.35335,0.0563 -0.90652,0.12651 -1.23047,0.15625 -0.3239,0.0295 -0.80722,0.0653 -1.07226,0.0781 -0.26506,0.0128 -0.6008,0.006 -0.74805,-0.0156 -0.14725,-0.0212 -0.30579,-0.0557 -0.35156,-0.0762 -0.0719,-0.0321 -0.0922,-0.34801 -0.14844,-2.32422 -0.0355,-1.258 -0.10035,-2.93923 -0.14453,-3.73437 -0.0441,-0.79512 -0.17664,-2.89126 -0.29297,-4.65821 -0.1163,-1.76681 -0.24826,-3.85045 -0.29297,-4.63085 -0.0446,-0.78041 -0.10662,-2.03421 -0.13867,-2.78516 -0.0321,-0.75095 -0.0597,-2.44823 -0.0606,-3.77344 -6.1e-4,-1.32521 0.0273,-2.91673 0.0606,-3.53515 0.0333,-0.61843 0.10912,-1.65291 0.16797,-2.30079 0.0589,-0.64787 0.15584,-1.52806 0.21484,-1.95507 0.0589,-0.427 0.15473,-1.06652 0.21289,-1.41993 0.0582,-0.35334 0.11968,-0.71093 0.13672,-0.79492 0.0246,-0.12011 0.0897,-0.17873 0.30664,-0.27734 0.1516,-0.0689 0.51606,-0.17342 0.81055,-0.23242 0.2945,-0.059 0.8622,-0.14579 1.25977,-0.19141 0.3974,-0.0455 1.08365,-0.0824 1.52539,-0.082 0.53018,4.1e-4 0.84775,0.023 0.93359,0.0664 0.0715,0.0363 0.22203,0.23525 0.33398,0.4414 0.11188,0.20614 0.3755,0.74863 0.58594,1.20508 0.21037,0.45645 0.53404,1.20644 0.7207,1.66602 0.18671,0.45957 0.71158,1.83175 1.16602,3.05078 0.45446,1.21902 0.94624,2.5186 1.09375,2.88672 0.14755,0.36808 0.53355,1.2842 0.85742,2.03515 0.32383,0.75095 0.96247,2.19494 1.41797,3.21094 0.45549,1.01599 1.39476,3.07622 2.08789,4.57812 0.69313,1.50191 1.6216,3.49742 2.0625,4.4336 0.51376,1.09088 0.81262,1.67088 0.83399,1.61523 0.0185,-0.0478 0.034,-1.82589 0.0332,-3.95117 -6e-4,-2.1253 -0.0355,-5.2248 -0.0781,-6.88867 -0.0619,-2.41502 -0.0698,-4.2521 -0.0332,-9.10352 0.025,-3.34246 0.0632,-6.11898 0.084,-6.16992 0.0208,-0.051 0.11428,-0.13877 0.20703,-0.19531 0.0928,-0.0565 0.28773,-0.14269 0.43359,-0.19141 0.14574,-0.0487 0.49884,-0.12353 0.7832,-0.16601 0.28441,-0.0427 1.16506,-0.11211 1.95703,-0.15625 0.79197,-0.0441 1.48189,-0.0801 1.53516,-0.0801 z m -26.70703,3.13281 0.25391,0.14844 c 0.13965,0.0821 0.28972,0.21885 0.33398,0.30469 0.0545,0.10533 0.0801,0.31478 0.0801,0.64453 0,0.26834 -0.0236,0.84103 -0.0547,1.27343 -0.031,0.43255 -0.10238,1.19791 -0.1582,1.69922 -0.0559,0.50133 -0.11737,0.9517 -0.13672,1.00196 -0.0196,0.0502 -0.11045,0.13794 -0.20313,0.19531 -0.0928,0.0574 -0.34801,0.15422 -0.5664,0.21484 -0.21846,0.0606 -0.73761,0.14931 -1.15235,0.19727 -0.54275,0.0627 -1.00887,0.0785 -1.66406,0.0586 -0.57514,-0.0181 -1.01419,-0.0576 -1.19531,-0.10937 -0.15761,-0.0451 -0.29334,-0.0885 -0.30078,-0.0977 -0.007,-0.009 0.0667,-0.88515 0.16406,-1.94531 0.0974,-1.06017 0.17818,-1.96617 0.17969,-2.01367 0.002,-0.0583 -0.0896,-0.1148 -0.2793,-0.17383 -0.15458,-0.0481 -0.41165,-0.11103 -0.57031,-0.14063 -0.15863,-0.0295 -0.61579,-0.0547 -1.01758,-0.0547 -0.40175,0 -1.01858,0.0362 -1.37109,0.0801 -0.35248,0.0436 -0.90653,0.1275 -1.23047,0.18555 -0.32391,0.058 -0.96972,0.19467 -1.43555,0.30469 -0.55399,0.13081 -0.86356,0.22866 -0.89258,0.2832 -0.0246,0.046 -0.0774,0.4935 -0.11718,0.99414 -0.0451,0.56683 -0.0698,1.70833 -0.0684,3.02539 0.001,1.25376 0.038,2.80289 0.0918,3.80274 0.0499,0.92764 0.11509,2.2513 0.14453,2.94336 0.0291,0.69205 0.0785,2.52856 0.10938,4.08008 0.0392,1.97844 0.0398,3.60891 0,5.46093 -0.0314,1.45229 -0.0808,2.99096 -0.10938,3.41797 -0.0283,0.427 -0.12355,1.57115 -0.21093,2.54297 -0.0873,0.97182 -0.18501,2.21788 -0.2168,2.76953 -0.0405,0.70519 -0.0413,1.03504 -0.002,1.10938 0.0321,0.0609 0.13943,0.12148 0.25195,0.14257 0.10745,0.0208 0.43922,0.0207 0.73633,0.004 0.29711,-0.0181 1.13005,-0.10368 1.85156,-0.19141 0.7215,-0.0877 1.5784,-0.17519 1.90234,-0.19335 0.32395,-0.0185 0.82753,-0.0668 1.11914,-0.10938 0.30584,-0.0446 0.65523,-0.136 0.82813,-0.21484 0.16486,-0.0752 0.41638,-0.24908 0.55664,-0.38672 0.1618,-0.15886 0.29227,-0.35342 0.35937,-0.53321 0.0583,-0.15579 0.14216,-0.56652 0.18555,-0.91211 0.0437,-0.34547 0.1043,-0.95399 0.13477,-1.35156 0.0306,-0.39753 0.0916,-1.31366 0.13672,-2.03515 0.045,-0.72151 0.10697,-2.55173 0.13672,-4.06836 0.0295,-1.51663 0.0395,-2.91405 0.0215,-3.10547 -0.0185,-0.1914 -0.0716,-0.51651 -0.11719,-0.72266 -0.0455,-0.20613 -0.12792,-0.46623 -0.18359,-0.57617 -0.0621,-0.12276 -0.15285,-0.21194 -0.23438,-0.23242 -0.0731,-0.0193 -0.3796,-0.004 -0.68164,0.0312 -0.3021,0.0355 -0.81473,0.065 -1.13867,0.0644 -0.32398,-6.1e-4 -0.76046,-0.0377 -0.9707,-0.082 -0.21022,-0.0441 -0.47834,-0.12962 -0.59571,-0.18945 -0.11735,-0.0599 -0.27529,-0.18292 -0.35156,-0.27344 -0.0762,-0.0905 -0.15463,-0.24918 -0.17383,-0.35156 -0.0196,-0.10239 -0.0192,-0.28694 0,-0.41211 0.0197,-0.12514 0.0917,-0.35546 0.16407,-0.51172 0.0724,-0.15628 0.24068,-0.42252 0.37304,-0.58984 0.13236,-0.16751 0.31964,-0.35597 0.41602,-0.41993 0.11894,-0.079 0.3566,-0.14354 0.73828,-0.19922 0.30924,-0.0451 1.09236,-0.13022 1.74023,-0.18945 0.64788,-0.0592 1.53052,-0.13414 1.96289,-0.16797 0.58908,-0.046 0.87444,-0.0475 1.13672,-0.002 0.19253,0.0333 0.45854,0.10778 0.58985,0.16406 0.1313,0.0563 0.5243,0.29434 0.875,0.5293 l 0.63867,0.42773 0.0332,1.83789 c 0.0193,1.01115 0.0831,2.57446 0.14258,3.47266 0.0595,0.8982 0.13296,2.24709 0.16406,2.99805 0.0397,0.96004 0.0396,1.68862 0,2.45703 -0.0314,0.60105 -0.10599,1.42915 -0.16601,1.83984 -0.06,0.41069 -0.19094,1.06668 -0.29102,1.45703 -0.10008,0.39031 -0.24404,0.86313 -0.32031,1.05078 -0.0764,0.18766 -0.22817,0.43398 -0.33789,0.54688 -0.10972,0.11293 -0.33686,0.28948 -0.50586,0.39258 -0.16902,0.10303 -0.49719,0.25544 -0.72852,0.33984 -0.23134,0.0844 -0.79242,0.22582 -1.24609,0.31445 -0.45369,0.0886 -1.37931,0.24748 -2.05664,0.35157 -0.67733,0.10416 -1.79624,0.26004 -2.48828,0.34765 -0.69206,0.0877 -1.99439,0.23277 -2.89258,0.32227 -0.89821,0.0896 -2.2238,0.21005 -2.94531,0.26758 -0.7207,0.0575 -1.62229,0.11814 -2.00586,0.13281 h -0.002 c -0.38239,0.015 -0.81066,0.004 -0.95313,-0.0215 -0.14279,-0.0253 -0.35067,-0.10675 -0.46094,-0.17969 -0.1104,-0.0731 -0.24657,-0.22485 -0.30273,-0.33789 -0.0919,-0.18509 -0.1022,-0.33151 -0.0996,-1.46485 0.002,-0.97028 0.0368,-1.57018 0.14648,-2.62304 0.0784,-0.75095 0.16647,-1.72624 0.19727,-2.16797 0.031,-0.44174 0.0803,-1.37044 0.10937,-2.0625 0.0287,-0.69206 0.0528,-2.43785 0.0527,-3.88086 -1.2e-4,-1.443 -0.0235,-3.15486 -0.0527,-3.80274 -0.0291,-0.64787 -0.10146,-2.06858 -0.16015,-3.1582 -0.0587,-1.08961 -0.13091,-2.51227 -0.16016,-3.16016 -0.0291,-0.64787 -0.0691,-2.28595 -0.0879,-3.64062 -0.0246,-1.7451 -0.0161,-2.66503 0.0293,-3.1582 0.0355,-0.38289 0.0984,-0.86613 0.14062,-1.07227 0.042,-0.2061 0.11603,-0.48272 0.16407,-0.61523 0.0481,-0.13248 0.14545,-0.31672 0.21484,-0.41016 0.0695,-0.0933 0.25328,-0.24186 0.4082,-0.33008 0.15485,-0.0882 0.43434,-0.21288 0.6211,-0.27539 0.1867,-0.0626 0.56104,-0.15868 0.83398,-0.21484 0.27296,-0.0562 0.84381,-0.13854 1.26758,-0.1836 0.42379,-0.0451 1.32461,-0.12062 2.00195,-0.16601 0.67733,-0.0455 1.90589,-0.15293 2.73047,-0.24024 0.82457,-0.0873 2.01723,-0.20584 2.65039,-0.26367 0.63315,-0.0578 1.53663,-0.13491 2.00781,-0.17187 0.47119,-0.0367 1.45909,-0.0689 2.19532,-0.0703 z m -23.023438,1.98828 c 0.464031,-0.003 0.613129,0.0205 1.109378,0.17578 l 0.57226,0.17969 0.0215,9.13477 c 0.0196,7.75519 0.0361,9.33355 0.11133,10.44726 0.0486,0.72151 0.10317,2.20336 0.12109,3.29297 0.0212,1.2989 0.0111,2.2762 -0.0293,2.83789 -0.0336,0.47119 -0.11043,1.19318 -0.16992,1.60547 -0.0594,0.41231 -0.16492,1.00327 -0.23437,1.3125 -0.0696,0.30928 -0.21392,0.83106 -0.32032,1.16016 -0.14067,0.435 -0.25756,0.68591 -0.42968,0.91992 -0.13035,0.17707 -0.388732,0.4436 -0.574224,0.5918 -0.185461,0.14819 -0.595386,0.4011 -0.910156,0.5625 -0.314683,0.16142 -0.772808,0.35539 -1.017578,0.42968 -0.244725,0.0743 -0.865502,0.21785 -1.38086,0.32032 -0.515348,0.10246 -1.334397,0.24796 -1.820312,0.32226 -0.485907,0.0743 -1.233149,0.17068 -1.660156,0.21484 -0.426992,0.0441 -1.125712,0.095 -1.552735,0.11329 -0.426996,0.0185 -1.4382,0.11759 -2.248047,0.2207 -0.980589,0.12484 -1.769051,0.19407 -2.357421,0.20703 h -0.002 c -0.485912,0.011 -0.983635,-0.003 -1.107422,-0.0293 -0.12378,-0.0268 -0.275654,-0.0732 -0.335938,-0.10546 -0.06028,-0.0321 -0.143896,-0.11239 -0.185547,-0.17774 -0.04176,-0.0652 -0.1251,-0.35707 -0.1875,-0.64844 -0.06236,-0.29136 -0.138904,-0.84229 -0.167969,-1.22461 -0.03553,-0.46772 -0.03338,-0.95162 0.0039,-1.47851 0.03061,-0.4307 0.09077,-1.01125 0.134765,-1.29102 0.04411,-0.27968 0.13193,-0.75881 0.195313,-1.06445 0.0892,-0.43012 0.153679,-0.60654 0.283203,-0.77734 0.09203,-0.1214 0.276399,-0.29465 0.410156,-0.38477 0.13372,-0.0901 0.386095,-0.21032 0.560547,-0.26758 0.248655,-0.0815 0.467665,-0.10351 1.017578,-0.10351 0.696639,0 0.704381,0.001 1.066407,0.1875 0.213001,0.10953 0.434641,0.27243 0.53125,0.39257 0.155741,0.19363 0.164502,0.23121 0.160156,0.64258 -0.0025,0.2403 -0.02513,0.93198 -0.04883,1.53711 -0.03137,0.80164 -0.02425,1.15235 0.02148,1.29102 0.03553,0.10839 0.117491,0.2152 0.189453,0.24804 0.06951,0.0317 0.272611,0.0855 0.453125,0.1211 0.215773,0.0427 0.608133,0.0546 1.144531,0.0351 0.568668,-0.0208 1.098683,-0.0802 1.751953,-0.19726 0.515362,-0.0924 1.275224,-0.22369 1.6875,-0.29297 0.412317,-0.0693 0.954775,-0.15487 1.207032,-0.18945 0.252245,-0.0348 0.489526,-0.0813 0.52539,-0.10352 0.03591,-0.0215 0.148546,-0.37524 0.251954,-0.78516 0.103432,-0.40976 0.269814,-1.19151 0.36914,-1.73632 0.09933,-0.54482 0.217751,-1.28373 0.263672,-1.64258 0.04596,-0.35887 0.11078,-0.99642 0.144531,-1.41797 0.03477,-0.43426 0.04852,-1.16204 0.03125,-1.67773 -0.01739,-0.50064 -0.06785,-1.11492 -0.113281,-1.36524 -0.04551,-0.25028 -0.132131,-0.60949 -0.193359,-0.79883 -0.06112,-0.18939 -0.156286,-0.43191 -0.210938,-0.53906 -0.05465,-0.10711 -0.136765,-0.22677 -0.183594,-0.26562 -0.06255,-0.0519 -0.181093,-0.0608 -0.445312,-0.0332 -0.197821,0.0208 -1.070192,0.1784 -1.939453,0.35156 -0.869258,0.17322 -2.063361,0.39915 -2.652344,0.50196 -0.588979,0.10273 -1.310979,0.20159 -1.605469,0.21875 -0.294501,0.0174 -1.031058,0.007 -1.634765,-0.0215 -0.603701,-0.0283 -1.306135,-0.0878 -1.5625,-0.13281 -0.256328,-0.045 -0.598806,-0.13239 -0.761719,-0.19336 -0.162898,-0.061 -0.410683,-0.18752 -0.548828,-0.28125 -0.138104,-0.0937 -0.295626,-0.23232 -0.351563,-0.30859 -0.09815,-0.13402 -0.103811,-0.37332 -0.134765,-6.98828 -0.01852,-3.76681 -0.03213,-7.63525 -0.03516,-8.59571 l -0.0039,-1.74609 0.179688,-0.26172 c 0.09849,-0.14392 0.278039,-0.33638 0.40039,-0.42969 0.122381,-0.0933 0.348724,-0.23371 0.501953,-0.31054 0.153222,-0.0769 0.464423,-0.18793 0.691407,-0.2461 0.278286,-0.0711 0.58695,-0.10393 0.951172,-0.10351 0.297133,4e-4 0.661339,0.0326 0.808593,0.0723 0.147251,0.0392 0.364656,0.12285 0.482422,0.18555 0.11777,0.0627 0.251672,0.14411 0.296875,0.18164 0.04505,0.037 0.140399,0.15287 0.212891,0.25586 0.130658,0.18576 0.132064,0.20264 0.173828,1.84766 0.02343,0.91293 0.04845,3.09347 0.05469,4.8457 l 0.01172,3.18555 -0.15625,1.44531 c -0.115238,1.0715 -0.156339,1.72943 -0.160156,2.54297 -0.0034,0.71251 0.0193,1.20142 0.0625,1.39258 0.03704,0.16195 0.105402,0.4183 0.152344,0.57031 0.05979,0.19351 0.119218,0.2863 0.197265,0.30664 0.06134,0.0166 0.366865,0.004 0.677735,-0.0254 0.310941,-0.0291 1.035113,-0.12312 1.609375,-0.20899 0.574257,-0.0858 1.815444,-0.2779 2.757812,-0.42773 0.942372,-0.1499 1.765765,-0.28481 1.832031,-0.29883 l 0.121094,-0.0254 v -7.77148 c 0,-5.92518 0.01551,-7.82218 0.06445,-7.99024 0.04271,-0.14517 0.169935,-0.32662 0.373047,-0.53125 0.22337,-0.22492 0.430939,-0.36672 0.751953,-0.51562 0.243818,-0.11301 0.612217,-0.24739 0.81836,-0.29883 0.223407,-0.0558 0.590975,-0.0955 0.910156,-0.0977 z M 0,331.5918 v 0.64062 h 80.107422 v -0.64062 z m 153.97266,0 v 0.64062 h 80.35742 V 331.5918 Z M 0,332.55078 v 1.91992 h 80.107422 v -1.91992 z m 153.97266,0 v 1.91992 h 80.35742 v -1.91992 z M 0,336.06836 v 0.64062 h 80.107422 v -0.64062 z m 153.97266,0 v 0.64062 h 80.35742 v -0.64062 z M 0,337.34766 v 1.91992 h 80.107422 v -1.91992 z m 153.97266,0 v 1.91992 h 80.35742 v -1.91992 z M 0,340.54492 v 0.96094 h 80.107422 v -0.96094 z m 153.97266,0 v 0.96094 h 80.35742 v -0.96094 z M 0,341.82422 v 1.91992 h 80.107422 v -1.91992 z m 153.97266,0 v 1.91992 h 80.35742 v -1.91992 z M 0,345.3418 v 0.64062 h 80.107422 v -0.64062 z m 153.97266,0 v 0.64062 h 80.35742 V 345.3418 Z M 0,346.30078 v 1.91992 h 80.107422 v -1.91992 z m 153.97266,0 v 1.91992 h 80.35742 v -1.91992 z M 0,349.81836 v 0.64062 h 80.107422 v -0.64062 z m 153.97266,0 v 0.64062 h 80.35742 v -0.64062 z M 0,351.09766 v 91.10742 h 234.33008 v -91.10742 h -80.35742 c -0.002,1.80858 0.17762,3.86121 -1.16602,5.2832 -1.44437,1.52878 -3.92429,1.49257 -5.86719,1.73242 -4.68485,0.57781 -9.38579,1.0266 -14.07031,1.59961 -12.56862,1.53807 -25.16509,2.85234 -37.732421,4.39649 -2.980834,0.3663 -5.965261,0.75287 -8.953125,1.05664 -1.645505,0.16723 -3.348899,0.36488 -4.683594,-0.83008 -1.34236,-1.20135 -1.38042,-2.93339 -1.390625,-4.60352 -0.01712,-2.87754 -0.002,-5.7569 -0.002,-8.63476 z"
       transform="scale(0.26458333)" />
  </g>
  <g
     inkscape:groupmode="layer"
     id="layer1"
     inkscape:label="WHITE">
    <text
       xml:space="preserve"
       style="font-style:normal;font-variant:normal;font-weight:normal;font-stretch:normal;font-size:4.16278px;line-height:1.25;font-family:Questrial;-inkscape-font-specification:'Questrial, Normal';font-variant-ligatures:normal;font-variant-caps:normal;font-variant-numeric:normal;font-variant-east-asian:normal;letter-spacing:0px;word-spacing:0px;fill:#e74d93;fill-opacity:1;stroke:none;stroke-width:0.0959977"
       x="9.6964827"
       y="26.985346"
       id="text14410"
       inkscape:label="one"
       sodipodi:insensitive="true"><tspan
         sodipodi:role="line"
         id="tspan14408"
         x="9.6964827"
         y="26.985346"
         style="font-style:normal;font-variant:normal;font-weight:normal;font-stretch:normal;font-size:4.16278px;font-family:Questrial;-inkscape-font-specification:'Questrial, Normal';font-variant-ligatures:normal;font-variant-caps:normal;font-variant-numeric:normal;font-variant-east-asian:normal;fill:#e74d93;fill-opacity:1;stroke-width:0.0959977"><tspan
           style="fill:#ffffff;fill-opacity:1"
           id="tspan74677">one</tspan></tspan></text>
    <text
       xml:space="preserve"
       style="font-style:normal;font-variant:normal;font-weight:normal;font-stretch:normal;font-size:4.16278px;line-height:1.25;font-family:Questrial;-inkscape-font-specification:'Questrial, Normal';font-variant-ligatures:normal;font-variant-caps:normal;font-variant-numeric:normal;font-variant-east-asian:normal;letter-spacing:0px;word-spacing:0px;fill:#e74d93;fill-opacity:1;stroke:none;stroke-width:0.0959977"
       x="46.176647"
       y="26.985346"
       id="text30375"
       inkscape:label="evel"
       sodipodi:insensitive="true"><tspan
         sodipodi:role="line"
         id="tspan30373"
         x="46.176647"
         y="26.985346"
         style="font-style:normal;font-variant:normal;font-weight:normal;font-stretch:normal;font-size:4.16278px;font-family:Questrial;-inkscape-font-specification:'Questrial, Normal';font-variant-ligatures:normal;font-variant-caps:normal;font-variant-numeric:normal;font-variant-east-asian:normal;fill:#e74d93;fill-opacity:1;stroke-width:0.0959977"><tspan
           style="fill:#ffffff;fill-opacity:1"
           id="tspan79431">evel</tspan></tspan></text>
    <path
       style="display:inline;fill:#ffffff;fill-opacity:1;stroke-width:0.0141668"
       d="m 22.892824,95.049956 c -0.128564,0.0029 -0.260551,-5.89e-4 -0.293303,-0.0075 -0.03275,-0.0071 -0.07259,-0.01969 -0.08854,-0.02823 -0.01595,-0.0085 -0.03803,-0.02962 -0.04905,-0.04691 -0.01105,-0.01726 -0.03357,-0.09444 -0.05008,-0.17153 -0.0165,-0.07709 -0.03631,-0.222915 -0.044,-0.32407 -0.0094,-0.123752 -0.0092,-0.251694 6.99e-4,-0.391101 0.0081,-0.113956 0.02419,-0.26775 0.03583,-0.341771 0.01167,-0.074 0.03484,-0.200751 0.05161,-0.281619 0.0236,-0.113803 0.04049,-0.160227 0.07476,-0.205419 0.02435,-0.03212 0.07326,-0.07788 0.10865,-0.101723 0.03538,-0.02383 0.102121,-0.05569 0.148278,-0.07084 0.06579,-0.02155 0.124044,-0.02752 0.269542,-0.02752 0.184319,0 0.186296,3.22e-4 0.282082,0.04958 0.05636,0.02898 0.114657,0.07219 0.140218,0.103977 0.04121,0.05123 0.04369,0.06116 0.04254,0.170001 -6.74e-4,0.06358 -0.0064,0.246591 -0.01267,0.406699 -0.0083,0.212099 -0.0068,0.30477 0.0053,0.341458 0.0094,0.02868 0.031,0.0569 0.05004,0.06559 0.01839,0.0084 0.07248,0.02291 0.120241,0.03233 0.05709,0.0113 0.160702,0.01442 0.302624,0.0093 0.15046,-0.0055 0.290881,-0.0212 0.463729,-0.05217 0.136356,-0.02444 0.33717,-0.05941 0.446255,-0.07774 0.109092,-0.01835 0.252941,-0.04083 0.319684,-0.04998 0.06674,-0.0092 0.129115,-0.02144 0.138604,-0.02731 0.0095,-0.0057 0.03966,-0.09941 0.06702,-0.207868 0.02737,-0.108451 0.0713,-0.315142 0.09758,-0.45929 0.02628,-0.144149 0.05773,-0.339771 0.06988,-0.434716 0.01216,-0.09495 0.02936,-0.263887 0.03829,-0.375421 0.0092,-0.114897 0.01267,-0.307181 0.0081,-0.443626 -0.0046,-0.13246 -0.01802,-0.295023 -0.03004,-0.361253 -0.01204,-0.06622 -0.03506,-0.161405 -0.05126,-0.2115 -0.01617,-0.05011 -0.04123,-0.114268 -0.05569,-0.142618 -0.01446,-0.02834 -0.03642,-0.05994 -0.04881,-0.07022 -0.01655,-0.01374 -0.04776,-0.01611 -0.117668,-0.0088 -0.05234,0.0055 -0.283317,0.04725 -0.513309,0.0931 -0.229991,0.04583 -0.545666,0.105579 -0.701501,0.13278 -0.155834,0.02718 -0.347086,0.05314 -0.425003,0.05768 -0.07792,0.0046 -0.272358,0.002 -0.432089,-0.0055 -0.159729,-0.0075 -0.345916,-0.02354 -0.413746,-0.03545 -0.06782,-0.01192 -0.158597,-0.03485 -0.201701,-0.05098 -0.0431,-0.01614 -0.108274,-0.0496 -0.144825,-0.0744 -0.03654,-0.0248 -0.07855,-0.06161 -0.09335,-0.08179 -0.02597,-0.03546 -0.02719,-0.09856 -0.03538,-1.848768 -0.0049,-0.996635 -0.0087,-2.019981 -0.0095,-2.274101 l -10e-4,-0.46204 0.04738,-0.06922 c 0.02606,-0.03808 0.07387,-0.08943 0.106242,-0.114118 0.03238,-0.0247 0.09202,-0.06154 0.132562,-0.08187 0.04054,-0.02034 0.122838,-0.04951 0.182894,-0.0649 0.07363,-0.01882 0.155767,-0.02786 0.252134,-0.02775 0.07862,1.06e-4 0.174818,0.0086 0.213779,0.01908 0.03896,0.01038 0.09634,0.0325 0.127499,0.04909 0.03116,0.01659 0.06646,0.03828 0.07842,0.04821 0.01192,0.0098 0.03745,0.04035 0.05663,0.0676 0.03457,0.04915 0.03495,0.05351 0.046,0.488753 0.0062,0.241546 0.01256,0.818488 0.01421,1.282099 l 0.0031,0.842924 -0.04112,0.382503 c -0.03049,0.283501 -0.04148,0.457676 -0.04249,0.672925 -9.02e-4,0.188519 0.0051,0.317759 0.01653,0.368336 0.0098,0.04285 0.02809,0.110828 0.04051,0.151046 0.01582,0.0512 0.03143,0.07544 0.05208,0.08082 0.01623,0.0044 0.09683,0.0013 0.179081,-0.0064 0.08227,-0.0077 0.273891,-0.0327 0.425831,-0.05542 0.151939,-0.02271 0.480254,-0.07375 0.729589,-0.113392 0.249336,-0.03966 0.467682,-0.07512 0.485215,-0.07883 l 0.03188,-0.0067 V 88.53747 c 0,-1.567703 0.0042,-2.069661 0.01715,-2.114126 0.0113,-0.03841 0.04502,-0.08636 0.09876,-0.1405 0.0591,-0.05951 0.113954,-0.09717 0.198889,-0.136567 0.06451,-0.0299 0.161907,-0.06553 0.216449,-0.07914 0.05911,-0.01477 0.156384,-0.02514 0.240834,-0.02571 0.122775,-8.2e-4 0.161867,0.0055 0.293155,0.04658 l 0.151484,0.0475 0.0061,2.41686 c 0.0052,2.051895 0.0095,2.469277 0.02939,2.763948 0.01287,0.190899 0.0273,0.582967 0.03204,0.871261 0.0056,0.343668 0.003,0.602227 -0.0077,0.75084 -0.0089,0.124669 -0.0293,0.31592 -0.04504,0.425004 -0.01573,0.109091 -0.04366,0.265275 -0.06207,0.347091 -0.01842,0.08183 -0.05648,0.219995 -0.08463,0.307068 -0.03722,0.115095 -0.06829,0.181559 -0.113866,0.243473 -0.03447,0.04685 -0.10285,0.117242 -0.151928,0.156453 -0.04907,0.03921 -0.157375,0.10623 -0.240658,0.148932 -0.08326,0.04271 -0.204408,0.09371 -0.26917,0.113366 -0.06475,0.01966 -0.229308,0.0579 -0.365663,0.08501 -0.136356,0.02711 -0.353107,0.06534 -0.481672,0.085 -0.128563,0.01965 -0.326191,0.04532 -0.43917,0.05704 -0.112975,0.01167 -0.297857,0.02524 -0.41084,0.03007 -0.112976,0.0049 -0.380732,0.03108 -0.595004,0.05836 -0.259451,0.03303 -0.467668,0.0513 -0.623341,0.05473 z m 5.546304,-0.625382 c -0.101303,0.004 -0.215065,0.0013 -0.252826,-0.0055 -0.03778,-0.0067 -0.09257,-0.0283 -0.121745,-0.0476 -0.02921,-0.01933 -0.06522,-0.05961 -0.08008,-0.08952 -0.02432,-0.04897 -0.02694,-0.08745 -0.02629,-0.387311 5.45e-4,-0.25672 0.0094,-0.415603 0.03843,-0.694172 0.02075,-0.198689 0.04441,-0.45688 0.05256,-0.573756 0.0082,-0.116877 0.02111,-0.362315 0.02881,-0.545422 0.0076,-0.183106 0.01395,-0.645298 0.01393,-1.027094 -3e-5,-0.381793 -0.0065,-0.834425 -0.01423,-1.005842 -0.0077,-0.171417 -0.0269,-0.547547 -0.04243,-0.835842 -0.01554,-0.288293 -0.03458,-0.664423 -0.04232,-0.835842 -0.0077,-0.171418 -0.01813,-0.604921 -0.02311,-0.963343 -0.0065,-0.461723 -0.0042,-0.705355 0.0078,-0.835841 0.0094,-0.101304 0.02614,-0.228794 0.03732,-0.283336 0.01112,-0.05453 0.03073,-0.127856 0.04344,-0.162916 0.01273,-0.03505 0.03817,-0.08396 0.05653,-0.108683 0.01838,-0.0247 0.06692,-0.06403 0.107909,-0.08737 0.04097,-0.02334 0.114932,-0.056 0.164345,-0.07254 0.0494,-0.01656 0.148931,-0.04226 0.221147,-0.05712 0.07222,-0.01488 0.223043,-0.03675 0.335164,-0.04867 0.112128,-0.01192 0.350481,-0.0315 0.529693,-0.04351 0.179211,-0.01204 0.504339,-0.04075 0.722508,-0.06385 0.218167,-0.02309 0.533734,-0.0545 0.701257,-0.0698 0.167521,-0.01529 0.406587,-0.03579 0.531254,-0.04557 0.124669,-0.0097 0.386045,-0.0181 0.580839,-0.01847 l 0.354171,-6.98e-4 0.06722,0.03952 c 0.03695,0.02173 0.07683,0.05805 0.08854,0.08076 0.01442,0.02787 0.02132,0.08309 0.02132,0.170337 0,0.071 -0.0066,0.222725 -0.01484,0.337167 -0.0082,0.114443 -0.02693,0.316598 -0.0417,0.449237 -0.01479,0.132642 -0.03105,0.252045 -0.03617,0.265341 -0.0052,0.01328 -0.02939,0.03659 -0.05391,0.05177 -0.02456,0.01519 -0.09193,0.04068 -0.149713,0.05672 -0.0578,0.01604 -0.194848,0.03948 -0.30458,0.05217 -0.143604,0.0166 -0.266994,0.02099 -0.440345,0.01571 -0.152173,-0.0048 -0.268756,-0.01531 -0.316677,-0.02901 -0.0417,-0.01192 -0.07743,-0.02364 -0.0794,-0.02607 -0.0019,-0.0023 0.01749,-0.23394 0.04325,-0.514442 0.02576,-0.280504 0.04713,-0.520289 0.04753,-0.532857 4.83e-4,-0.01542 -0.02347,-0.03037 -0.07366,-0.04599 -0.0409,-0.01273 -0.108705,-0.02952 -0.150683,-0.03735 -0.04197,-0.0078 -0.163288,-0.01423 -0.269595,-0.01423 -0.106296,0 -0.269591,0.0094 -0.362861,0.02102 -0.09326,0.01153 -0.239704,0.03361 -0.325414,0.04897 -0.0857,0.01535 -0.256676,0.05177 -0.379926,0.08088 -0.146577,0.03461 -0.22815,0.06056 -0.235828,0.07499 -0.0065,0.01216 -0.02037,0.130432 -0.0309,0.262894 -0.01192,0.149972 -0.01892,0.451951 -0.01854,0.800424 3.75e-4,0.331724 0.01039,0.7413 0.02463,1.005842 0.0132,0.24544 0.03037,0.596069 0.03816,0.779175 0.0077,0.183105 0.02083,0.668788 0.02899,1.079292 0.01038,0.523499 0.01027,0.955001 -2.7e-4,1.445015 -0.0083,0.384251 -0.02126,0.791079 -0.02882,0.904059 -0.0075,0.112976 -0.03267,0.415796 -0.05579,0.672923 -0.02309,0.257128 -0.04888,0.586925 -0.05729,0.732884 -0.01072,0.186581 -0.01072,0.273683 -3.21e-4,0.29335 0.0085,0.01611 0.0369,0.03208 0.06667,0.03766 0.02843,0.0055 0.116013,0.006 0.194623,0.0012 0.07861,-0.0048 0.299113,-0.02735 0.490012,-0.05056 0.190898,-0.0232 0.417211,-0.04618 0.50292,-0.05102 0.08571,-0.0049 0.218964,-0.01803 0.29612,-0.02931 0.08092,-0.0118 0.17384,-0.03579 0.219585,-0.05665 0.04362,-0.01989 0.109655,-0.06598 0.146766,-0.102397 0.04281,-0.04203 0.07771,-0.09361 0.0955,-0.141177 0.01543,-0.04122 0.03744,-0.149763 0.04892,-0.2412 0.01156,-0.09144 0.0275,-0.252313 0.03556,-0.357502 0.0081,-0.105181 0.02447,-0.347441 0.03641,-0.538337 0.01192,-0.190899 0.02818,-0.675403 0.03605,-1.076678 0.0078,-0.401275 0.01027,-0.771028 0.0055,-0.821674 -0.0049,-0.05064 -0.01869,-0.136709 -0.03074,-0.191253 -0.01204,-0.05454 -0.03395,-0.122975 -0.04868,-0.152064 -0.01642,-0.03248 -0.04033,-0.05629 -0.0619,-0.06171 -0.01933,-0.0051 -0.100541,-0.0011 -0.180456,0.0083 -0.07993,0.0094 -0.215444,0.0169 -0.301153,0.01676 -0.08572,-1.61e-4 -0.201348,-0.0098 -0.256974,-0.02153 -0.05562,-0.01167 -0.126542,-0.03419 -0.157595,-0.05002 -0.03105,-0.01585 -0.07293,-0.0484 -0.09311,-0.07235 -0.02015,-0.02395 -0.04079,-0.06571 -0.04587,-0.0928 -0.0052,-0.02709 -0.0053,-0.07636 -2.12e-4,-0.109478 0.0052,-0.03311 0.0247,-0.09404 0.04386,-0.135383 0.01917,-0.04135 0.06347,-0.111433 0.09849,-0.155738 0.03502,-0.04432 0.08453,-0.09442 0.11003,-0.111343 0.03147,-0.02089 0.09413,-0.03776 0.195115,-0.05249 0.08182,-0.01192 0.289003,-0.03452 0.460421,-0.05019 0.171417,-0.01567 0.405296,-0.0358 0.51973,-0.04475 0.15586,-0.01216 0.231301,-0.01216 0.300696,-1.09e-4 0.05094,0.0088 0.121067,0.02833 0.155808,0.04322 0.03474,0.0149 0.139091,0.07794 0.231881,0.140107 l 0.168709,0.113025 0.0088,0.486422 c 0.0051,0.267532 0.02184,0.680859 0.03759,0.918507 0.01575,0.23765 0.03542,0.594652 0.04365,0.793342 0.01049,0.254012 0.01049,0.447088 1.5e-5,0.650395 -0.0083,0.159028 -0.02796,0.378046 -0.04384,0.486707 -0.01586,0.108661 -0.05052,0.282071 -0.077,0.385352 -0.02648,0.10327 -0.06463,0.228407 -0.08481,0.278058 -0.0202,0.04965 -0.06043,0.11472 -0.08946,0.144591 -0.02903,0.02988 -0.08937,0.07661 -0.134086,0.103888 -0.04472,0.02726 -0.131384,0.06786 -0.192588,0.09019 -0.06121,0.02233 -0.209495,0.0598 -0.329528,0.08325 -0.12004,0.02345 -0.364875,0.06519 -0.544085,0.09273 -0.179209,0.02756 -0.47565,0.06909 -0.658754,0.09227 -0.183108,0.0232 -0.527361,0.06159 -0.765007,0.08527 -0.237651,0.02372 -0.588278,0.05559 -0.779177,0.07081 -0.190897,0.01524 -0.429962,0.03087 -0.531256,0.03473 z m 5.822559,-0.610139 c -0.07013,0.0034 -0.159378,0.0014 -0.198337,-0.0043 -0.03896,-0.0056 -0.08074,-0.01469 -0.09285,-0.02011 -0.01903,-0.0085 -0.02436,-0.09212 -0.03923,-0.614992 -0.0094,-0.332847 -0.02675,-0.7773 -0.03844,-0.98768 -0.01167,-0.210376 -0.04644,-0.765006 -0.07722,-1.232511 -0.03077,-0.467504 -0.06565,-1.018947 -0.07748,-1.225428 -0.01179,-0.206482 -0.02846,-0.537986 -0.03694,-0.736675 -0.0085,-0.198689 -0.01554,-0.64813 -0.01571,-0.998759 -1.61e-4,-0.350629 0.0071,-0.771384 0.01589,-0.935009 0.0088,-0.163626 0.02893,-0.437756 0.0445,-0.609173 0.01557,-0.171417 0.04107,-0.404107 0.05668,-0.517089 0.01559,-0.112975 0.04097,-0.281917 0.05636,-0.375421 0.0154,-0.09349 0.03171,-0.188182 0.03622,-0.210404 0.0065,-0.03178 0.02377,-0.04747 0.08116,-0.07356 0.04011,-0.01824 0.136683,-0.04596 0.214601,-0.06157 0.07792,-0.01562 0.227731,-0.03829 0.332919,-0.05036 0.105181,-0.01204 0.286879,-0.02188 0.403755,-0.02178 0.140277,1.09e-4 0.224196,0.0062 0.246908,0.01769 0.01892,0.0096 0.05864,0.06212 0.08826,0.116664 0.0296,0.05454 0.09939,0.197981 0.15507,0.31875 0.05566,0.120768 0.141631,0.319074 0.19102,0.440671 0.0494,0.121596 0.18818,0.484976 0.308418,0.807509 0.120242,0.322532 0.250549,0.666112 0.289578,0.763508 0.03904,0.09739 0.141077,0.339651 0.226768,0.53834 0.08568,0.198689 0.254412,0.581192 0.37493,0.850008 0.120515,0.268815 0.36917,0.813883 0.552561,1.211262 0.183389,0.397379 0.428883,0.925169 0.545539,1.172867 0.135933,0.288629 0.215266,0.442109 0.220918,0.427386 0.0049,-0.01264 0.0087,-0.483049 0.0085,-1.045363 -1.59e-4,-0.562318 -0.0094,-1.382587 -0.02067,-1.82282 -0.01637,-0.638975 -0.01808,-1.124753 -0.0084,-2.408358 0.0066,-0.884361 0.01659,-1.618957 0.0221,-1.632435 0.0055,-0.01348 0.0301,-0.03673 0.05464,-0.05169 0.02456,-0.01495 0.07619,-0.03776 0.114783,-0.05065 0.03856,-0.0129 0.131698,-0.0327 0.206937,-0.04394 0.07525,-0.0113 0.308239,-0.03 0.517782,-0.04168 0.209541,-0.01167 0.392517,-0.02124 0.406612,-0.02124 0.01407,-1.2e-5 0.02165,0.0064 0.01682,0.01422 -0.0049,0.0078 -0.01764,0.120993 -0.02842,0.25146 -0.01072,0.130469 -0.02738,0.377467 -0.03683,0.548886 -0.0097,0.176304 -0.01706,0.659315 -0.01688,1.112094 2.15e-4,0.440233 0.01061,1.202052 0.02322,1.692934 0.01257,0.490881 0.02657,0.988136 0.03107,1.10501 0.0046,0.116878 0.02371,0.483441 0.04261,0.814592 0.0189,0.331149 0.04165,0.783778 0.05057,1.005844 0.0088,0.225273 0.0123,0.560316 0.0073,0.757923 -0.0051,0.194794 -0.01821,0.459358 -0.02961,0.587922 -0.01142,0.128564 -0.0274,0.281565 -0.03554,0.340002 -0.0082,0.05844 -0.02224,0.140265 -0.03137,0.181834 -0.0128,0.05837 -0.02721,0.08368 -0.06323,0.111174 -0.02567,0.01957 -0.09305,0.05032 -0.14977,0.06826 -0.05672,0.01797 -0.173231,0.04429 -0.258943,0.05851 -0.110881,0.01838 -0.232157,0.02593 -0.420382,0.02615 -0.246589,3.21e-4 -0.267247,-0.0017 -0.304278,-0.0293 -0.03276,-0.02444 -0.05,-0.06367 -0.09814,-0.223293 -0.03212,-0.106517 -0.08226,-0.258929 -0.111431,-0.338705 -0.02916,-0.07977 -0.100298,-0.256888 -0.15808,-0.393586 -0.05778,-0.136699 -0.177302,-0.394888 -0.265611,-0.573756 -0.08831,-0.178867 -0.262768,-0.519652 -0.38769,-0.757302 -0.124919,-0.237647 -0.278139,-0.534088 -0.340487,-0.658754 -0.06235,-0.12467 -0.145195,-0.296797 -0.184105,-0.382504 -0.03892,-0.0857 -0.387971,-0.873029 -0.775685,-1.7496 -0.387717,-0.876574 -0.710481,-1.599823 -0.717257,-1.607225 -0.0071,-0.0076 -0.0123,0.237145 -0.01216,0.566673 5.3e-5,0.31907 0.0063,1.00407 0.01384,1.522221 0.0075,0.518151 0.02329,1.636976 0.03498,2.486275 0.01165,0.849298 0.02385,1.73716 0.02698,1.973021 l 0.0057,0.428839 -0.03568,0.02808 c -0.01962,0.01543 -0.06826,0.03784 -0.108108,0.04975 -0.03984,0.01192 -0.148929,0.03386 -0.242431,0.04875 -0.09349,0.01489 -0.240125,0.03351 -0.325835,0.04138 -0.0857,0.0078 -0.21321,0.01707 -0.283337,0.02046 z"
       id="path6281"
       sodipodi:insensitive="true"
       inkscape:label="logo" />
  </g>
</svg>
