<?xml version="1.0" encoding="UTF-8" standalone="no"?>
<svg
   width="62mm"
   height="117mm"
   viewBox="0 0 62 117"
   version="1.1"
   id="svg8"
   inkscape:version="1.2.2 (b0a8486541, 2022-12-01)"
   sodipodi:docname="bass_compressor_front_freecad.svg"
   inkscape:export-filename="/home/yann/_dev/98 - Graphics/graphics-pedals/Shining Pig/shining_pig_front_9V.png"
   inkscape:export-xdpi="96"
   inkscape:export-ydpi="96"
   xmlns:inkscape="http://www.inkscape.org/namespaces/inkscape"
   xmlns:sodipodi="http://sodipodi.sourceforge.net/DTD/sodipodi-0.dtd"
   xmlns="http://www.w3.org/2000/svg"
   xmlns:svg="http://www.w3.org/2000/svg"
   xmlns:rdf="http://www.w3.org/1999/02/22-rdf-syntax-ns#"
   xmlns:cc="http://creativecommons.org/ns#"
   xmlns:dc="http://purl.org/dc/elements/1.1/">
  <defs
     id="defs2" />
  <sodipodi:namedview
     id="base"
     pagecolor="#ffffff"
     bordercolor="#666666"
     borderopacity="1.0"
     inkscape:pageopacity="0"
     inkscape:pageshadow="2"
     inkscape:zoom="4"
     inkscape:cx="97.5"
     inkscape:cy="186.5"
     inkscape:document-units="mm"
     inkscape:current-layer="layer6"
     inkscape:document-rotation="0"
     showgrid="true"
     inkscape:window-width="3836"
     inkscape:window-height="2113"
     inkscape:window-x="0"
     inkscape:window-y="881"
     inkscape:window-maximized="1"
     showborder="true"
     inkscape:showpageshadow="false"
     inkscape:pagecheckerboard="true"
     inkscape:deskcolor="#d1d1d1">
    <sodipodi:guide
       position="-2.0168617,58.500093"
       orientation="0,117.16536"
       id="guide1967"
       inkscape:locked="false" />
    <sodipodi:guide
       position="31.001653,138.8865"
       orientation="-221.10236,0"
       id="guide1969"
       inkscape:locked="false" />
    <inkscape:grid
       type="xygrid"
       id="grid1973"
       visible="true"
       enabled="true"
       originx="31.000001"
       originy="58.500002"
       dotted="false" />
  </sodipodi:namedview>
  <metadata
     id="metadata5">
    <rdf:RDF>
      <cc:Work
         rdf:about="">
        <dc:format>image/svg+xml</dc:format>
        <dc:type
           rdf:resource="http://purl.org/dc/dcmitype/StillImage" />
      </cc:Work>
    </rdf:RDF>
  </metadata>
  <g
     inkscape:groupmode="layer"
     id="layer5"
     inkscape:label="Graphic"
     style="display:inline;fill:none;stroke:#000000;stroke-opacity:1;stroke-linejoin:round">
    <path
       style="fill:none;stroke:#000000;stroke-width:0.1;stroke-opacity:1;stroke-dasharray:none"
       d="m 4.0256084,80.031085 c -0.09526,0.01285 -0.1452199,0.0023 -0.1781303,-0.03736 -0.026823,-0.03232 -0.036848,-0.09054 -0.024228,-0.140792 0.011881,-0.04713 0.056446,-0.110146 0.099139,-0.140051 0.042707,-0.02989 0.21441,-0.149842 0.3815733,-0.266534 0.1671648,-0.116687 0.4049468,-0.304722 0.5284049,-0.41785 0.1234634,-0.113126 0.3227887,-0.328571 0.4429554,-0.478761 0.120172,-0.150191 0.2901488,-0.409923 0.3777356,-0.577184 0.087586,-0.167262 0.2014299,-0.436629 0.2529814,-0.598596 0.070923,-0.222826 0.098128,-0.39237 0.1117863,-0.696723 C 6.031511,76.372581 6.021646,76.211134 5.97733,76.01176 5.9451271,75.866982 5.8720732,75.65508 5.8149991,75.540868 5.7579245,75.42665 5.6409005,75.254986 5.5549418,75.159379 5.459476,75.053191 5.3151494,74.944439 5.1840692,74.879908 5.0660548,74.82181 4.8882291,74.764639 4.7889148,74.75288 c -0.099317,-0.01175 -0.2784662,-0.0023 -0.3981166,0.02106 -0.1196531,0.02334 -0.3209943,0.09661 -0.4474338,0.162819 -0.1264408,0.06621 -0.2655763,0.158356 -0.3091873,0.204777 -0.079295,0.08441 -0.079295,0.08441 -0.00287,0.08441 0.042039,0 0.1344031,0.02417 0.20525,0.05373 0.070842,0.02955 0.1813806,0.103611 0.2456363,0.164566 0.064258,0.06096 0.1457635,0.173204 0.1811267,0.249424 0.037777,0.08143 0.064613,0.217934 0.065064,0.33099 5.245e-4,0.138384 -0.02427,0.242641 -0.088391,0.371306 -0.052773,0.105903 -0.1466363,0.221174 -0.2300507,0.282517 -0.077492,0.057 -0.2205681,0.11964 -0.3179363,0.139203 -0.1080443,0.02172 -0.2272725,0.02379 -0.3059629,0.0053 -0.07091,-0.01664 -0.1990371,-0.07135 -0.2847213,-0.121551 -0.085687,-0.05022 -0.2008017,-0.157191 -0.2558195,-0.237727 -0.055013,-0.08054 -0.1197896,-0.207031 -0.1439387,-0.281095 -0.026632,-0.08167 -0.037559,-0.231634 -0.027765,-0.381098 0.012156,-0.186393 0.045766,-0.309749 0.1377657,-0.506278 0.066895,-0.142913 0.1900382,-0.336669 0.2736478,-0.43057 0.083609,-0.09393 0.2648546,-0.244412 0.4027652,-0.334442 0.1379117,-0.09004 0.3718997,-0.205184 0.5199725,-0.2559 0.1830592,-0.0627 0.3745657,-0.09844 0.5983583,-0.111703 0.2440577,-0.01446 0.3873382,-0.0047 0.5543253,0.03733 0.1238597,0.03125 0.3265338,0.107171 0.4503906,0.168715 0.1481837,0.07363 0.314481,0.200842 0.4862866,0.371986 0.200374,0.199604 0.2947814,0.328569 0.4059709,0.554574 0.079692,0.161966 0.1714532,0.403619 0.2039292,0.537003 0.035783,0.14697 0.059547,0.38584 0.060325,0.606295 7.852e-4,0.232345 -0.021578,0.463915 -0.06199,0.640941 -0.034799,0.152438 -0.1066786,0.386294 -0.1597228,0.51968 -0.053046,0.133379 -0.1537722,0.343856 -0.2238365,0.467712 -0.070062,0.12386 -0.209769,0.33433 -0.3104546,0.467714 -0.1006825,0.133379 -0.3060462,0.363547 -0.4563548,0.511471 -0.1503071,0.147879 -0.3958737,0.360578 -0.5457031,0.472619 -0.1498305,0.112032 -0.4027096,0.269161 -0.561953,0.34916 -0.159246,0.07999 -0.3491135,0.153443 -0.4219284,0.163208 z m 4.1318684,-1.860636 c -0.1121964,-7e-5 -0.2085676,-0.0234 -0.2735254,-0.06622 -0.055162,-0.03637 -0.1322179,-0.116539 -0.1712278,-0.178147 -0.04537,-0.07166 -0.070936,-0.170356 -0.070936,-0.273899 0,-0.105594 0.026113,-0.204131 0.075129,-0.283438 0.041327,-0.06688 0.1274651,-0.149756 0.1914381,-0.184205 0.087544,-0.04715 0.1654766,-0.05856 0.3151071,-0.04616 0.1713573,0.01422 0.216073,0.03377 0.3239047,0.141593 0.1098056,0.109803 0.1266861,0.149675 0.1380135,0.326076 0.010106,0.158042 -0.00222,0.225089 -0.057974,0.313884 -0.03899,0.0621 -0.1217017,0.143896 -0.1837977,0.181758 -0.073015,0.04452 -0.1741235,0.0688 -0.2861414,0.06875 z m 0,-2.322599 c -0.019056,-7.87e-4 -0.097009,-0.0234 -0.1732276,-0.05036 -0.076223,-0.02696 -0.1731262,-0.08889 -0.215347,-0.137613 -0.042228,-0.04872 -0.093486,-0.150698 -0.1139305,-0.226613 -0.02569,-0.09539 -0.026263,-0.17853 -0.00191,-0.269166 0.019422,-0.07212 0.090003,-0.184149 0.1568546,-0.24894 0.1043021,-0.101098 0.1498649,-0.119625 0.3211392,-0.130621 0.156579,-0.01014 0.2239336,0.0024 0.3125114,0.05807 0.062099,0.039 0.1448128,0.121702 0.1837985,0.183799 0.05561,0.08858 0.068121,0.155931 0.058069,0.31251 -0.010924,0.171153 -0.029559,0.216868 -0.1302923,0.320808 -0.064614,0.06666 -0.1727407,0.136561 -0.2402794,0.155326 -0.067533,0.01877 -0.1383856,0.03351 -0.1574406,0.03279 z"
       id="path14142"
       sodipodi:nodetypes="sssssssssssssssssssssscsssssssssssssssssscsssssssssssssssssssssssssssssssssss" />
    <path
       id="path3959"
       style="color:#000000;display:inline;fill:none;stroke:#000000;stroke-width:0.1;stroke-linejoin:miter;stroke-opacity:1;stroke-dasharray:none"
       d="m 38.449899,63.90048 a 0.32162081,0.32162081 0 0 0 -0.321235,0.321755 v 13.399562 a 0.32162081,0.32162081 0 0 0 0.321235,0.321235 h 0.05371 a 0.32162081,0.32162081 0 0 0 0.322277,-0.321235 V 64.222235 A 0.32162081,0.32162081 0 0 0 38.503612,63.90048 Z m 1.316228,0 a 0.32162081,0.32162081 0 0 0 -0.321756,0.321755 v 13.399562 a 0.32162081,0.32162081 0 0 0 0.321756,0.321235 h 13.399562 a 0.32162081,0.32162081 0 0 0 0.321235,-0.321235 V 64.222235 A 0.32162081,0.32162081 0 0 0 53.165689,63.90048 Z m 14.661556,0 a 0.32162081,0.32162081 0 0 0 -0.321235,0.321755 v 13.399562 a 0.32162081,0.32162081 0 0 0 0.321235,0.321235 h 0.05371 a 0.32162081,0.32162081 0 0 0 0.322278,-0.321235 V 64.222235 A 0.32162081,0.32162081 0 0 0 54.481396,63.90048 Z m -14.340321,0.64299 h 12.75657 v 12.756571 h -12.75657 z m 9.105131,0.951711 c -0.490444,4e-5 -0.93304,0.0011 -1.2573,0.0031 -0.162131,10e-4 -0.293716,0.0018 -0.387985,0.0031 -0.04713,6.43e-4 -0.08553,0.0013 -0.113163,0.0021 -0.01382,3.76e-4 -0.02472,0.0016 -0.03442,0.0021 -0.0097,4.72e-4 -0.0027,-0.004 -0.0412,0.0042 -0.20958,0.04437 -0.292511,0.07135 -0.426054,0.138193 -0.163756,0.08197 -0.269986,0.157737 -0.399457,0.284731 -0.111761,0.10962 -0.22363,0.261994 -0.282645,0.398936 -0.01374,0.03186 -0.03311,0.076 -0.0412,0.09387 -0.05054,0.111504 -0.0801,0.257389 -0.09387,0.398937 -0.0044,0.04583 -0.0037,0.09942 -0.0052,0.208594 -0.0015,0.109174 -0.0032,0.259837 -0.0042,0.448999 -0.002,0.378323 -0.0038,0.909515 -0.0037,1.562891 3.73e-4,1.795619 0.0016,2.649463 -0.001,3.061639 -0.375359,-0.3967 -0.833801,-0.702272 -1.37307,-0.803609 -0.228453,-0.04294 -0.584252,-0.05083 -0.816646,-0.01877 -0.736895,0.101618 -1.371986,0.497212 -1.795473,1.115978 -0.171432,0.250479 -0.31184,0.585239 -0.374427,0.889654 -0.23841,1.159706 0.347522,2.31351 1.429913,2.823321 0.219232,0.10326 0.452588,0.171637 0.723299,0.21433 0.215273,0.03394 0.601222,0.02429 0.827076,-0.01669 0.975883,-0.17706 1.772437,-0.912422 2.020233,-1.866395 0.03759,-0.144698 0.06141,-0.22765 0.07092,-0.476116 0.0095,-0.248467 0.01015,-0.677518 0.01199,-1.582186 0.0019,-0.908772 0.0041,-2.20898 0.0042,-2.889028 v -1.069045 h 1.443471 c 0.865527,0 1.292931,6.16e-4 1.534731,-0.0073 0.241802,-0.0079 0.325889,-0.03172 0.418753,-0.06258 0.455016,-0.151177 0.813496,-0.516728 0.952232,-0.971526 0.02771,-0.0908 0.04766,-0.172744 0.0558,-0.301418 0.0081,-0.128675 0.0083,-0.309713 0.0083,-0.642992 5.2e-5,-0.355506 0.0027,-0.524811 -0.01043,-0.640384 -0.0065,-0.05779 -0.01847,-0.112337 -0.05476,-0.164268 -0.03629,-0.05193 -0.0783,-0.07435 -0.097,-0.08604 l -0.05058,-0.03129 a 0.16678076,0.16678076 0 0 0 -0.08761,-0.02503 z m 1.337088,0.709741 -0.0031,0.369212 c -0.0028,0.299769 -0.005,0.449195 -0.0146,0.527743 -0.0095,0.07855 -0.01915,0.09017 -0.06414,0.183041 -0.02025,0.0418 -0.06703,0.117522 -0.08031,0.135065 -0.07926,0.10467 -0.250536,0.223284 -0.407281,0.271172 l -0.06831,0.01982 -1.602524,0.0042 -1.460159,0.0031 v -0.352524 c 5e-5,-0.298549 0.0022,-0.456636 0.01356,-0.546516 0.01138,-0.08988 0.02371,-0.113438 0.07196,-0.205987 0.09323,-0.178816 0.241272,-0.302634 0.464122,-0.379119 l 0.06466,-0.02295 1.613997,-0.0031 z m 10.069358,1.666145 a 0.32162081,0.32162081 0 0 0 -0.137151,0.04015 l -2.383709,1.328744 -2.384751,1.328223 a 0.32162081,0.32162081 0 0 0 -0.164268,0.276387 0.32162081,0.32162081 0 0 0 0.155923,0.280559 l 2.342512,1.400709 2.34199,1.400709 a 0.32162081,0.32162081 0 0 0 0.486546,-0.271172 l 0.04224,-2.728932 0.04172,-2.729453 A 0.32162081,0.32162081 0 0 0 60.59894,67.871062 Z m -28.302044,0.001 a 0.32162081,0.32162081 0 0 0 -0.292553,0.324886 l 0.04172,2.729453 0.04172,2.728932 a 0.32162081,0.32162081 0 0 0 0.487067,0.271172 l 2.341469,-1.400709 2.343033,-1.400709 a 0.32162081,0.32162081 0 0 0 0.155924,-0.280559 0.32162081,0.32162081 0 0 0 -0.164268,-0.276387 l -2.384752,-1.328223 -2.383708,-1.328744 a 0.32162081,0.32162081 0 0 0 -0.185649,-0.03911 z m 0.359303,0.872445 1.897163,1.057572 1.897685,1.05705 -1.86431,1.113893 -1.864309,1.114935 -0.03338,-2.170943 z m 27.631414,0 -0.03233,2.172507 -0.03337,2.170943 -1.86431,-1.114935 -1.864309,-1.113893 1.897684,-1.05705 z m -16.023675,3.237902 c 0.201962,5.89e-4 0.223295,0.0018 0.354088,0.0292 0.182327,0.03828 0.305047,0.08049 0.465687,0.160096 0.03968,0.01967 0.07629,0.03615 0.107947,0.04902 0.0087,0.0035 0.01679,0.0064 0.02503,0.0094 0.0054,0.0048 0.01088,0.0098 0.01669,0.0146 0.02475,0.02048 0.05552,0.04396 0.08917,0.06727 0.164081,0.113662 0.35416,0.305783 0.47403,0.482374 0.428456,0.631186 0.405582,1.489381 -0.05632,2.102107 -0.271807,0.36056 -0.667848,0.61039 -1.117021,0.703483 -0.133316,0.02764 -0.483028,0.04107 -0.59345,0.02607 -0.881003,-0.119624 -1.541898,-0.806395 -1.617647,-1.677096 -0.02745,-0.315576 0.03646,-0.649235 0.181477,-0.942845 0.235556,-0.476924 0.689699,-0.845213 1.190029,-0.968398 0.219067,-0.05397 0.24308,-0.05591 0.480288,-0.05528 z m 0.886003,0.05841 c -4.4e-5,1.57e-4 -0.0029,0.03296 -0.0042,0.05215 -6.97e-4,-0.01 -0.0016,-0.01827 -0.001,-0.02503 0.0011,-0.01128 0.0031,-0.01978 0.0052,-0.02712 z" />
    <path
       id="path3967"
       d="m 12.179561,74.808385 c -0.45223,0 -0.802211,0.132918 -1.049228,0.398936 -0.243216,0.262217 -0.364518,0.642655 -0.364518,1.140488 0,0.505434 0.12711,0.889222 0.381727,1.15144 0.254617,0.258416 0.61763,0.387462 1.088861,0.387462 0.186213,0 0.37617,-0.0169 0.569984,-0.0511 0.08741,-0.0152 0.157999,-0.05727 0.211201,-0.125679 0.057,-0.0684 0.08552,-0.148155 0.08552,-0.239361 0,-0.0722 -0.03046,-0.131177 -0.09126,-0.176784 -0.057,-0.0456 -0.121788,-0.05863 -0.193992,-0.03963 -0.13681,0.0342 -0.298248,0.05111 -0.484461,0.05111 -0.262217,0 -0.456048,-0.07394 -0.581456,-0.222153 -0.125407,-0.148209 -0.188256,-0.393271 -0.188256,-0.735294 0,-0.334421 0.05898,-0.578069 0.176783,-0.730079 0.117809,-0.15201 0.296672,-0.227889 0.536087,-0.227889 0.182413,0 0.347723,0.01549 0.495933,0.04589 0.07601,0.0152 0.142204,-2.84e-4 0.199207,-0.04589 0.0608,-0.0456 0.09126,-0.106514 0.09126,-0.18252 0,-0.09121 -0.02852,-0.170957 -0.08552,-0.239361 -0.057,-0.0684 -0.12901,-0.108017 -0.216416,-0.11942 -0.186212,-0.0266 -0.380042,-0.04015 -0.581456,-0.04015 z m 2.923968,0 c -0.456031,0 -0.811299,0.134855 -1.065916,0.404672 -0.250817,0.266019 -0.375991,0.64452 -0.375991,1.134752 0,0.490233 0.125174,0.870149 0.375991,1.139967 0.254617,0.266018 0.609885,0.398935 1.065916,0.398935 0.456029,0 0.809884,-0.132917 1.0607,-0.398935 0.254617,-0.269818 0.381728,-0.649734 0.381728,-1.139967 0,-0.490232 -0.127111,-0.868733 -0.381728,-1.134752 -0.250816,-0.269817 -0.604671,-0.404672 -1.0607,-0.404672 z m 3.52889,0 c -0.281219,0 -0.534024,0.13679 -0.75824,0.410408 0,0.0038 -0.0039,0.0057 -0.01147,0.0057 -0.0038,0 -0.0057,-0.002 -0.0057,-0.0057 v -0.03963 c -0.0038,-0.08741 -0.03813,-0.161871 -0.102732,-0.222674 -0.0608,-0.06081 -0.134747,-0.09074 -0.222153,-0.09074 h -0.07979 c -0.08741,0 -0.163284,0.03187 -0.227889,0.09647 -0.0608,0.0646 -0.09126,0.141004 -0.09126,0.22841 v 2.314352 c 0,0.0874 0.03046,0.163284 0.09126,0.227889 0.06461,0.0646 0.140484,0.097 0.227889,0.097 h 0.113684 c 0.0874,0 0.163806,-0.03239 0.22841,-0.097 0.06461,-0.0646 0.097,-0.140483 0.097,-0.227889 v -1.710472 c 0,-0.09121 0.0493,-0.182052 0.148101,-0.273258 0.09881,-0.09121 0.197396,-0.13715 0.296204,-0.13715 0.152012,0 0.254475,0.04594 0.307676,0.13715 0.057,0.08741 0.08552,0.267684 0.08552,0.541302 v 1.442428 c 0,0.0874 0.03046,0.163284 0.09126,0.227889 0.0646,0.0646 0.141004,0.097 0.22841,0.097 h 0.09648 c 0.08741,0 0.163806,-0.03239 0.22841,-0.097 0.06461,-0.0646 0.09647,-0.140483 0.09647,-0.227889 v -1.710472 c 0,-0.09121 0.04982,-0.182052 0.148623,-0.273258 0.09881,-0.09121 0.197397,-0.13715 0.296204,-0.13715 0.152012,0 0.254474,0.04401 0.307676,0.131414 0.0532,0.08741 0.07979,0.269619 0.07979,0.547038 v 1.442428 c 0,0.0874 0.03239,0.163284 0.097,0.227889 0.06461,0.0646 0.140484,0.097 0.227889,0.097 h 0.097 c 0.08741,0 0.161872,-0.03239 0.222675,-0.097 0.06461,-0.0646 0.09647,-0.140483 0.09647,-0.227889 v -1.556633 c 0,-0.418028 -0.07007,-0.712385 -0.210681,-0.883396 -0.136808,-0.171011 -0.36303,-0.256571 -0.678451,-0.256571 -0.30022,0 -0.56993,0.146471 -0.809345,0.43909 -0.0038,0.0038 -0.0077,0.0057 -0.01147,0.0057 -0.0076,0 -0.01147,-0.002 -0.01147,-0.0057 -0.0798,-0.16341 -0.172587,-0.277489 -0.278995,-0.342094 -0.102606,-0.06461 -0.239397,-0.097 -0.410408,-0.097 z m 4.804964,0 c -0.182412,0 -0.341914,0.03239 -0.478723,0.097 -0.136809,0.0646 -0.2736,0.172875 -0.410409,0.324885 -0.0038,0.0038 -0.0077,0.0057 -0.01147,0.0057 -0.0038,0 -0.0052,-0.002 -0.0052,-0.0057 v -0.03963 c -0.0038,-0.09121 -0.03813,-0.167607 -0.102733,-0.22841 -0.06461,-0.06461 -0.142419,-0.09647 -0.233625,-0.09647 h -0.06884 c -0.08741,0 -0.163284,0.03187 -0.227889,0.09647 -0.06461,0.0646 -0.097,0.141004 -0.097,0.22841 v 3.568002 c 0,0.08741 0.03239,0.163805 0.097,0.22841 0.0646,0.06461 0.140483,0.097 0.227889,0.097 h 0.114205 c 0.08741,0 0.161348,-0.03239 0.222153,-0.097 0.06461,-0.0646 0.097,-0.141004 0.097,-0.22841 v -1.231226 c 0,-0.0038 0.002,-0.0052 0.0057,-0.0052 0.0038,0 0.0077,0.0014 0.01147,0.0052 0.243216,0.239415 0.529828,0.359302 0.86045,0.359302 0.338223,0 0.617612,-0.13679 0.838026,-0.410408 0.224216,-0.277418 0.336358,-0.653462 0.336358,-1.128494 0,-0.490232 -0.106334,-0.868733 -0.319148,-1.134752 -0.212814,-0.269817 -0.498012,-0.404672 -0.855236,-0.404672 z m -8.333854,0.553296 c 0.224215,0 0.391462,0.07975 0.501669,0.239361 0.114008,0.15581 0.171047,0.404745 0.171047,0.746767 0,0.342023 -0.05704,0.592893 -0.171047,0.752503 -0.110207,0.155811 -0.277454,0.233625 -0.501669,0.233625 -0.224216,0 -0.393397,-0.07781 -0.507405,-0.233625 -0.110207,-0.15961 -0.165311,-0.41048 -0.165311,-0.752503 0,-0.342022 0.0551,-0.590957 0.165311,-0.746767 0.114008,-0.15961 0.283189,-0.239361 0.507405,-0.239361 z m 8.105965,0.01669 c 0.437029,0 0.655507,0.323399 0.655507,0.969441 0,0.319222 -0.05845,0.560411 -0.176261,0.723822 -0.117809,0.163411 -0.277832,0.245097 -0.479246,0.245097 -0.17481,0 -0.328505,-0.05898 -0.461514,-0.176783 -0.129209,-0.117807 -0.193993,-0.252662 -0.193993,-0.404672 v -0.775449 c 0,-0.15201 0.06478,-0.286865 0.193993,-0.404673 0.133009,-0.117807 0.286704,-0.176783 0.461514,-0.176783 z"
       style="font-weight:bold;font-size:5.64878px;font-family:'Rounded Mplus 1c Bold';-inkscape-font-specification:'Rounded Mplus 1c Bold, Bold';display:inline;fill:none;stroke:#000000;stroke-width:0.1;stroke-linejoin:round;stroke-opacity:1;stroke-dasharray:none" />
  </g>
  <g
     inkscape:groupmode="layer"
     id="layer6"
     inkscape:label="Controls">
    <path
       id="path4128"
       d="M 9.5317179 54.097473 L 9.5317179 57.011507 L 9.8438436 57.011507 L 9.8438436 54.097473 L 9.5317179 54.097473 z M 6.8853678 54.896908 C 6.7676394 54.89951 6.6648017 54.921422 6.5763428 54.963053 C 6.4847616 55.004682 6.4084701 55.055996 6.3474162 55.117049 C 6.2863619 55.178104 6.2391247 55.239447 6.2058228 55.3005 C 6.1752955 55.358777 6.1543949 55.406014 6.1432943 55.442094 L 6.1432943 54.92998 L 5.8311686 54.92998 L 5.8311686 57.011507 L 6.1432943 57.011507 L 6.1432943 56.095801 C 6.1432943 55.943166 6.1723488 55.800095 6.2306274 55.666886 C 6.2916815 55.530903 6.3774855 55.420963 6.4884928 55.337708 C 6.6022754 55.251677 6.7371923 55.209033 6.8926025 55.209033 L 6.9298096 55.209033 L 6.9298096 54.896908 L 6.909139 54.896908 C 6.9011603 54.896908 6.8932164 54.896734 6.8853678 54.896908 z M 8.1163005 54.896908 C 7.9053865 54.896908 7.7223902 54.945503 7.56698 55.042635 C 7.4115697 55.136991 7.2921178 55.265956 7.2088623 55.429692 C 7.1256068 55.590653 7.0838053 55.770931 7.0838053 55.970744 C 7.0838053 56.167782 7.1269657 56.34806 7.2129964 56.511796 C 7.3018023 56.675532 7.4253309 56.805855 7.5835164 56.902987 C 7.7417019 56.997343 7.926057 57.04458 8.136971 57.04458 C 8.3839624 57.04458 8.5851414 56.986472 8.7405518 56.869914 C 8.8987372 56.750581 9.0141123 56.597995 9.0862671 56.412061 L 8.7452026 56.412061 C 8.689699 56.51474 8.6115317 56.599185 8.5116252 56.665792 C 8.4117185 56.729618 8.2887066 56.761393 8.1416219 56.761393 C 8.0028627 56.761393 7.880693 56.73234 7.775236 56.67406 C 7.6697791 56.613006 7.5848172 56.532638 7.520988 56.432731 C 7.4599341 56.330049 7.4213673 56.217909 7.404716 56.095801 L 9.1487956 56.095801 L 9.1487956 55.970744 C 9.1487956 55.770931 9.1069941 55.590653 9.0237386 55.429692 C 8.9404831 55.265956 8.8210312 55.136991 8.6656209 55.042635 C 8.5129858 54.945503 8.3299896 54.896908 8.1163005 54.896908 z M 11.2882 54.896908 C 11.077286 54.896908 10.89429 54.945503 10.738879 55.042635 C 10.583469 55.136991 10.464017 55.265956 10.380762 55.429692 C 10.297506 55.590653 10.256222 55.770931 10.256222 55.970744 C 10.256222 56.167782 10.298865 56.34806 10.384896 56.511796 C 10.473702 56.675532 10.597231 56.805855 10.755416 56.902987 C 10.913602 56.997343 11.098473 57.04458 11.309387 57.04458 C 11.556378 57.04458 11.757557 56.986472 11.912968 56.869914 C 12.071153 56.750581 12.186011 56.597998 12.258167 56.412061 L 11.917102 56.412061 C 11.861598 56.51474 11.783948 56.599185 11.684041 56.665792 C 11.584135 56.729618 11.460606 56.761393 11.313521 56.761393 C 11.174762 56.761393 11.052593 56.73234 10.947135 56.67406 C 10.841676 56.613006 10.756714 56.532638 10.692887 56.432731 C 10.631835 56.330049 10.593269 56.217909 10.576615 56.095801 L 12.320695 56.095801 L 12.320695 55.970744 C 12.320695 55.770931 12.27941 55.590653 12.196155 55.429692 C 12.1129 55.265956 11.993448 55.136991 11.838037 55.042635 C 11.685402 54.945503 11.501889 54.896908 11.2882 54.896908 z M 13.582117 54.896908 C 13.379528 54.896908 13.201967 54.945503 13.049333 55.042635 C 12.899472 55.136991 12.782738 55.265956 12.699483 55.429692 C 12.616228 55.590653 12.574943 55.770931 12.574943 55.970744 C 12.574943 56.167782 12.616228 56.34806 12.699483 56.511796 C 12.782738 56.675532 12.899472 56.805855 13.049333 56.902987 C 13.201967 56.997343 13.379528 57.04458 13.582117 57.04458 C 13.754179 57.04458 13.901326 57.011451 14.023433 56.944845 C 14.148317 56.87824 14.249586 56.789201 14.327291 56.678194 L 14.327291 57.011507 L 14.639417 57.011507 L 14.639417 54.92998 L 14.327291 54.92998 L 14.327291 55.267428 C 14.249586 55.153647 14.148317 55.06325 14.023433 54.996643 C 13.901326 54.930036 13.754179 54.896908 13.582117 54.896908 z M 15.904972 54.896908 C 15.635779 54.896908 15.431883 54.94958 15.293123 55.055037 C 15.15714 55.157719 15.089001 55.303508 15.089001 55.49222 C 15.089001 55.619879 15.12213 55.721148 15.188737 55.796077 C 15.255342 55.868233 15.341662 55.924983 15.447119 55.96661 C 15.552576 56.005463 15.663357 56.037238 15.779915 56.062211 C 15.899249 56.087184 16.011906 56.113523 16.117362 56.141276 C 16.222818 56.166251 16.308621 56.202617 16.375228 56.249797 C 16.441834 56.296975 16.47548 56.363237 16.47548 56.449268 C 16.47548 56.51865 16.455939 56.575917 16.417086 56.620317 C 16.378234 56.664723 16.329638 56.697852 16.271358 56.720052 C 16.215854 56.742252 16.157228 56.757201 16.096175 56.765527 C 16.035121 56.773854 15.983806 56.778446 15.942179 56.778446 C 15.80897 56.778446 15.700907 56.758905 15.617651 56.720052 C 15.534395 56.678421 15.472209 56.625749 15.430583 56.561922 C 15.391729 56.495318 15.368113 56.42718 15.359786 56.3578 L 15.034741 56.3578 C 15.043067 56.479908 15.082151 56.593924 15.15153 56.699382 C 15.22091 56.802066 15.320819 56.885152 15.451253 56.948979 C 15.584462 57.012805 15.746557 57.04458 15.938045 57.04458 C 16.196137 57.04458 16.40191 56.991907 16.554545 56.88645 C 16.709956 56.778218 16.787606 56.622917 16.787606 56.420329 C 16.787606 56.289895 16.75396 56.187267 16.687354 56.112337 C 16.620749 56.034631 16.534945 55.974647 16.429488 55.93302 C 16.324031 55.891393 16.211374 55.859619 16.092041 55.837419 C 15.975483 55.812439 15.864702 55.787461 15.759245 55.762488 C 15.65379 55.734739 15.567986 55.698891 15.501379 55.654484 C 15.434773 55.610081 15.401127 55.54602 15.401127 55.462764 C 15.401127 55.262951 15.566457 55.163041 15.896704 55.163041 C 16.071541 55.163041 16.196428 55.194816 16.271358 55.258643 C 16.349064 55.322472 16.393583 55.398763 16.404683 55.487569 L 16.720943 55.487569 C 16.709842 55.384887 16.673476 55.289571 16.612423 55.200765 C 16.554144 55.111956 16.466981 55.039741 16.350423 54.984241 C 16.236641 54.925961 16.088134 54.896908 15.904972 54.896908 z M 18.090369 54.896908 C 17.879455 54.896908 17.696459 54.945503 17.541048 55.042635 C 17.385638 55.136991 17.266186 55.265956 17.182931 55.429692 C 17.099675 55.590653 17.057874 55.770931 17.057874 55.970744 C 17.057874 56.167782 17.101034 56.34806 17.187065 56.511796 C 17.275871 56.675532 17.399399 56.805855 17.557585 56.902987 C 17.71577 56.997343 17.900125 57.04458 18.111039 57.04458 C 18.35803 57.04458 18.559209 56.986472 18.71462 56.869914 C 18.872806 56.750581 18.988181 56.597998 19.060335 56.412061 L 18.718754 56.412061 C 18.66325 56.51474 18.5856 56.599185 18.485693 56.665792 C 18.385787 56.729618 18.262258 56.761393 18.115173 56.761393 C 17.976414 56.761393 17.854761 56.73234 17.749304 56.67406 C 17.643845 56.613006 17.558883 56.532638 17.495056 56.432731 C 17.434004 56.330049 17.395437 56.217909 17.378784 56.095801 L 19.122864 56.095801 L 19.122864 55.970744 C 19.122864 55.770931 19.081063 55.590653 18.997807 55.429692 C 18.914552 55.265956 18.7951 55.136991 18.639689 55.042635 C 18.487054 54.945503 18.304058 54.896908 18.090369 54.896908 z M 8.1163005 55.179578 C 8.3161137 55.179578 8.477367 55.239562 8.5994751 55.358895 C 8.7215831 55.478228 8.7965156 55.626735 8.8242676 55.804346 L 7.4088501 55.804346 C 7.4393771 55.626735 7.5143097 55.478228 7.6336426 55.358895 C 7.7557507 55.239562 7.9164872 55.179578 8.1163005 55.179578 z M 11.2882 55.179578 C 11.488013 55.179578 11.649266 55.239562 11.771375 55.358895 C 11.893481 55.478228 11.968414 55.626735 11.996167 55.804346 L 10.58075 55.804346 C 10.611276 55.626735 10.686209 55.478228 10.805542 55.358895 C 10.92765 55.239562 11.088387 55.179578 11.2882 55.179578 z M 13.623975 55.179578 C 13.779385 55.179578 13.909708 55.215943 14.015165 55.288098 C 14.123394 55.360253 14.205122 55.456086 14.260628 55.575419 C 14.316135 55.694752 14.343827 55.826434 14.343827 55.970744 C 14.343827 56.112278 14.316135 56.24396 14.260628 56.366069 C 14.205124 56.485401 14.123397 56.581234 14.015165 56.653389 C 13.909708 56.725544 13.779385 56.761393 13.623975 56.761393 C 13.471339 56.761393 13.33914 56.725544 13.228133 56.653389 C 13.117127 56.581234 13.032682 56.485401 12.974402 56.366069 C 12.916122 56.24396 12.887069 56.112278 12.887069 55.970744 C 12.887069 55.826434 12.916122 55.694752 12.974402 55.575419 C 13.03268 55.456086 13.117126 55.360253 13.228133 55.288098 C 13.33914 55.215943 13.471339 55.179578 13.623975 55.179578 z M 18.090369 55.179578 C 18.290182 55.179578 18.450918 55.239562 18.573027 55.358895 C 18.695133 55.478228 18.770066 55.626735 18.797819 55.804346 L 17.382918 55.804346 C 17.413445 55.626735 17.488378 55.478228 17.607711 55.358895 C 17.729819 55.239562 17.890556 55.179578 18.090369 55.179578 z "
       style="font-size:4.16278px;font-family:Questrial;-inkscape-font-specification:'Questrial, Normal';letter-spacing:0px;word-spacing:0px;stroke-width:0.1;stroke-dasharray:none;fill:none;stroke:#000000;stroke-opacity:1" />
    <path
       id="path4182"
       d="M 50.955029 24.133927 L 50.955029 24.541654 L 51.29196 24.541654 L 51.29196 24.133927 L 50.955029 24.133927 z M 49.835201 24.14633 L 49.835201 24.891504 L 49.410421 24.891504 L 49.410421 25.166423 L 49.835201 25.166423 L 49.835201 26.973031 L 50.147327 26.973031 L 50.147327 25.166423 L 50.62585 25.166423 L 50.62585 24.891504 L 50.147327 24.891504 L 50.147327 24.14633 L 49.835201 24.14633 z M 46.805929 24.858431 C 46.6882 24.861033 46.584846 24.882952 46.496387 24.924577 C 46.404805 24.966205 46.328513 25.017519 46.26746 25.078573 C 46.206404 25.139627 46.159167 25.200971 46.125867 25.262024 C 46.09534 25.320301 46.074955 25.367537 46.063855 25.403617 L 46.063855 24.891504 L 45.751213 24.891504 L 45.751213 26.973031 L 46.063855 26.973031 L 46.063855 26.057324 C 46.063855 25.904689 46.092908 25.761618 46.151188 25.62841 C 46.212242 25.492426 46.298046 25.382487 46.409054 25.299231 C 46.522836 25.2132 46.657753 25.170557 46.813163 25.170557 L 46.85037 25.170557 L 46.85037 24.858431 L 46.8297 24.858431 C 46.821721 24.858431 46.813777 24.858258 46.805929 24.858431 z M 48.012056 24.858431 C 47.809468 24.858431 47.63139 24.906511 47.478756 25.003642 C 47.328895 25.097998 47.212678 25.227479 47.129423 25.391215 C 47.046168 25.552176 47.004366 25.732454 47.004366 25.932267 C 47.004366 26.129305 47.046168 26.309584 47.129423 26.473319 C 47.212678 26.637055 47.328895 26.767379 47.478756 26.86451 C 47.63139 26.958867 47.809468 27.006104 48.012056 27.006104 C 48.184118 27.006104 48.330749 26.972975 48.452856 26.906368 C 48.57774 26.839764 48.679525 26.750725 48.757231 26.639718 L 48.757231 26.973031 L 49.069356 26.973031 L 49.069356 24.891504 L 48.757231 24.891504 L 48.757231 25.228434 C 48.679525 25.114654 48.57774 25.024773 48.452856 24.958167 C 48.330749 24.89156 48.184118 24.858431 48.012056 24.858431 z M 52.723914 24.858431 C 52.513 24.858431 52.330004 24.906511 52.174593 25.003642 C 52.019183 25.097998 51.899731 25.227479 51.816475 25.391215 C 51.73322 25.552176 51.691935 25.732454 51.691935 25.932267 C 51.691935 26.129305 51.73322 26.309584 51.816475 26.473319 C 51.899731 26.637055 52.019183 26.767379 52.174593 26.86451 C 52.330004 26.958867 52.513 27.006104 52.723914 27.006104 C 52.937603 27.006104 53.121116 26.958867 53.273751 26.86451 C 53.429161 26.767379 53.548096 26.637055 53.631352 26.473319 C 53.714607 26.309584 53.756409 26.129305 53.756409 25.932267 C 53.756409 25.732454 53.714607 25.552176 53.631352 25.391215 C 53.548096 25.227479 53.429161 25.097998 53.273751 25.003642 C 53.121116 24.906511 52.937603 24.858431 52.723914 24.858431 z M 50.967432 24.891504 L 50.967432 26.973031 L 51.279557 26.973031 L 51.279557 24.891504 L 50.967432 24.891504 z M 48.053398 25.141101 C 48.208808 25.141101 48.339132 25.177467 48.444588 25.249622 C 48.552817 25.321776 48.635061 25.417609 48.690568 25.536943 C 48.746075 25.656275 48.773767 25.787957 48.773767 25.932267 C 48.773767 26.073802 48.746075 26.205484 48.690568 26.327592 C 48.635065 26.446925 48.552821 26.542758 48.444588 26.614913 C 48.339132 26.687068 48.208808 26.722917 48.053398 26.722917 C 47.900762 26.722917 47.76908 26.687068 47.658073 26.614913 C 47.547066 26.542758 47.462105 26.446925 47.403825 26.327592 C 47.345545 26.205484 47.316492 26.073802 47.316492 25.932267 C 47.316492 25.787957 47.345545 25.656275 47.403825 25.536943 C 47.462104 25.417609 47.547066 25.321776 47.658073 25.249622 C 47.76908 25.177467 47.900762 25.141101 48.053398 25.141101 z M 52.723914 25.141101 C 52.879324 25.141101 53.010164 25.177467 53.115621 25.249622 C 53.22385 25.321776 53.305577 25.417609 53.361084 25.536943 C 53.416591 25.656275 53.444283 25.787957 53.444283 25.932267 C 53.444283 26.073802 53.416591 26.205484 53.361084 26.327592 C 53.305581 26.446925 53.223853 26.542758 53.115621 26.614913 C 53.010164 26.687068 52.879324 26.722917 52.723914 26.722917 C 52.571278 26.722917 52.440955 26.687068 52.332723 26.614913 C 52.224494 26.542758 52.142767 26.446925 52.08726 26.327592 C 52.031753 26.205484 52.004061 26.073802 52.004061 25.932267 C 52.004061 25.787957 52.031753 25.656275 52.08726 25.536943 C 52.142763 25.417609 52.22449 25.321776 52.332723 25.249622 C 52.440955 25.177467 52.571278 25.141101 52.723914 25.141101 z "
       style="font-size:4.16278px;font-family:Questrial;-inkscape-font-specification:'Questrial, Normal';letter-spacing:0px;word-spacing:0px;stroke-width:0.1;stroke-dasharray:none;fill:none;stroke:#000000;stroke-opacity:1" />
    <path
       id="path4082"
       d="M 10.42262 24.058997 L 10.42262 26.973031 L 10.734745 26.973031 L 10.734745 24.058997 L 10.42262 24.058997 z M 8.9782633 24.858431 C 8.7673494 24.858431 8.5838364 24.906511 8.4284261 25.003642 C 8.2730158 25.097998 8.1540807 25.227479 8.0708252 25.391215 C 7.9875697 25.552176 7.9457682 25.732454 7.9457682 25.932267 C 7.9457682 26.129305 7.9875697 26.309584 8.0708252 26.473319 C 8.1540807 26.637055 8.2730158 26.767379 8.4284261 26.86451 C 8.5838364 26.958867 8.7673494 27.006104 8.9782633 27.006104 C 9.1919525 27.006104 9.3749487 26.958867 9.5275838 26.86451 C 9.6829941 26.767379 9.802446 26.637055 9.8857015 26.473319 C 9.9689568 26.309584 10.010242 26.129305 10.010242 25.932267 C 10.010242 25.732454 9.9689568 25.552176 9.8857015 25.391215 C 9.802446 25.227479 9.6829941 25.097998 9.5275838 25.003642 C 9.3749487 24.906511 9.1919525 24.858431 8.9782633 24.858431 z M 14.545882 24.858431 C 14.391079 24.862821 14.265425 24.900322 14.169161 24.970569 C 14.06648 25.045499 13.991548 25.124508 13.944368 25.207764 L 13.944368 24.891504 L 13.632243 24.891504 L 13.632243 26.973031 L 13.944368 26.973031 L 13.944368 25.728145 C 13.944368 25.542208 13.999759 25.397779 14.110767 25.295097 C 14.221774 25.192416 14.353456 25.141101 14.506091 25.141101 C 14.653176 25.141101 14.775346 25.195133 14.872477 25.303365 C 14.972384 25.408822 15.022339 25.549175 15.022339 25.724011 L 15.022339 26.973031 L 15.334465 26.973031 L 15.334465 25.728145 C 15.334465 25.542208 15.390372 25.397779 15.501379 25.295097 C 15.612387 25.192416 15.744069 25.141101 15.896704 25.141101 C 16.043789 25.141101 16.165958 25.195133 16.26309 25.303365 C 16.362997 25.408822 16.412952 25.549175 16.412952 25.724011 L 16.412952 26.973031 L 16.725077 26.973031 L 16.725077 25.715743 C 16.725077 25.540907 16.687353 25.389682 16.612423 25.262024 C 16.540268 25.131591 16.44631 25.031681 16.329753 24.962301 C 16.213195 24.892921 16.088308 24.858431 15.955098 24.858431 C 15.819115 24.858431 15.70238 24.883409 15.605249 24.933362 C 15.508116 24.983312 15.429107 25.041422 15.368054 25.108028 C 15.309777 25.174631 15.266616 25.23138 15.238863 25.27856 C 15.172259 25.145352 15.079143 25.042723 14.95981 24.970569 C 14.843253 24.895639 14.715647 24.858431 14.576888 24.858431 C 14.566308 24.858431 14.556202 24.858138 14.545882 24.858431 z M 18.148763 24.858431 C 17.937849 24.858431 17.754336 24.906511 17.598926 25.003642 C 17.443515 25.097998 17.32458 25.227479 17.241325 25.391215 C 17.158069 25.552176 17.116268 25.732454 17.116268 25.932267 C 17.116268 26.129305 17.159428 26.309584 17.245459 26.473319 C 17.334265 26.637055 17.457794 26.767379 17.615979 26.86451 C 17.774164 26.958867 17.958519 27.006104 18.169434 27.006104 C 18.416425 27.006104 18.617604 26.947995 18.773014 26.831437 C 18.931199 26.712105 19.046574 26.559522 19.11873 26.373584 L 18.777148 26.373584 C 18.721644 26.476264 18.643994 26.560709 18.544088 26.627315 C 18.444181 26.691142 18.320652 26.722917 18.173568 26.722917 C 18.034809 26.722917 17.912639 26.693863 17.807182 26.635583 C 17.701722 26.574529 17.617277 26.494161 17.553451 26.394255 C 17.492399 26.291573 17.453315 26.179433 17.436662 26.057324 L 19.181258 26.057324 L 19.181258 25.932267 C 19.181258 25.732454 19.139456 25.552176 19.056201 25.391215 C 18.972945 25.227479 18.853493 25.097998 18.698083 25.003642 C 18.545448 24.906511 18.362452 24.858431 18.148763 24.858431 z M 5.7893107 24.891504 L 6.6052816 26.973031 L 6.9716675 26.973031 L 7.7835042 24.891504 L 7.441923 24.891504 L 6.7882161 26.639718 L 6.1308919 24.891504 L 5.7893107 24.891504 z M 11.255127 24.891504 L 11.255127 26.102799 C 11.255127 26.299837 11.293694 26.466527 11.371399 26.602511 C 11.45188 26.73572 11.556383 26.836989 11.684041 26.906368 C 11.8117 26.972975 11.9461 27.006104 12.087634 27.006104 C 12.25692 27.006104 12.395914 26.971613 12.504146 26.902234 C 12.612378 26.832854 12.703618 26.747892 12.778548 26.647986 L 12.778548 26.973031 L 13.090674 26.973031 L 13.090674 24.891504 L 12.778548 24.891504 L 12.778548 26.090397 C 12.778548 26.215281 12.749495 26.324703 12.691215 26.419059 C 12.635711 26.513412 12.560778 26.588345 12.466423 26.643852 C 12.372066 26.696578 12.266721 26.722917 12.150163 26.722917 C 11.980877 26.722917 11.840524 26.666167 11.729517 26.552384 C 11.621285 26.435827 11.567253 26.283244 11.567253 26.094531 L 11.567253 24.891504 L 11.255127 24.891504 z M 8.9782633 25.141101 C 9.1336737 25.141101 9.263997 25.177467 9.3694539 25.249622 C 9.4776858 25.321776 9.559413 25.417609 9.614917 25.536943 C 9.6704209 25.656275 9.698116 25.787957 9.698116 25.932267 C 9.698116 26.073802 9.6704209 26.205484 9.614917 26.327592 C 9.5594133 26.446925 9.4776861 26.542758 9.3694539 26.614913 C 9.263997 26.687068 9.1336737 26.722917 8.9782633 26.722917 C 8.8256282 26.722917 8.6947881 26.687068 8.586556 26.614913 C 8.4783241 26.542758 8.3965969 26.446925 8.3410929 26.327592 C 8.285589 26.205484 8.2578939 26.073802 8.2578939 25.932267 C 8.2578939 25.787957 8.285589 25.656275 8.3410929 25.536943 C 8.3965966 25.417609 8.4783238 25.321776 8.586556 25.249622 C 8.6947881 25.177467 8.8256282 25.141101 8.9782633 25.141101 z M 18.148763 25.141101 C 18.348576 25.141101 18.509313 25.201086 18.631421 25.320418 C 18.753527 25.439752 18.82846 25.588257 18.856213 25.765869 L 17.440796 25.765869 C 17.471323 25.588257 17.546256 25.439752 17.665588 25.320418 C 17.787697 25.201086 17.94895 25.141101 18.148763 25.141101 z "
       style="font-size:4.16278px;font-family:Questrial;-inkscape-font-specification:'Questrial, Normal';letter-spacing:0px;word-spacing:0px;stroke-width:0.1;stroke-dasharray:none;fill:none;stroke:#000000;stroke-opacity:1" />
    <path
       id="path4057"
       d="M 35.10225 54.097473 L 35.10225 57.011507 L 35.414376 57.011507 L 35.414376 56.353666 L 35.806083 55.96661 L 36.534204 57.011507 L 36.917643 57.011507 L 36.018473 55.750085 L 36.855115 54.92998 L 36.417932 54.92998 L 35.414376 55.962476 L 35.414376 54.097473 L 35.10225 54.097473 z M 27.913542 54.184806 L 27.913542 54.92998 L 27.488761 54.92998 L 27.488761 55.204899 L 27.913542 55.204899 L 27.913542 57.011507 L 28.225667 57.011507 L 28.225667 55.204899 L 28.704191 55.204899 L 28.704191 54.92998 L 28.225667 54.92998 L 28.225667 54.184806 L 27.913542 54.184806 z M 29.270565 54.184806 L 29.270565 54.92998 L 28.845785 54.92998 L 28.845785 55.204899 L 29.270565 55.204899 L 29.270565 57.011507 L 29.58269 57.011507 L 29.58269 55.204899 L 30.061214 55.204899 L 30.061214 54.92998 L 29.58269 54.92998 L 29.58269 54.184806 L 29.270565 54.184806 z M 26.08988 54.896908 C 25.887292 54.896908 25.709732 54.945503 25.557096 55.042635 C 25.407237 55.136991 25.290503 55.265956 25.207247 55.429692 C 25.123992 55.590653 25.082707 55.770931 25.082707 55.970744 C 25.082707 56.167782 25.123992 56.34806 25.207247 56.511796 C 25.290503 56.675532 25.407237 56.805855 25.557096 56.902987 C 25.709732 56.997343 25.887292 57.04458 26.08988 57.04458 C 26.261942 57.04458 26.409089 57.011451 26.531197 56.944845 C 26.65608 56.87824 26.757349 56.789201 26.835055 56.678194 L 26.835055 57.011507 L 27.14718 57.011507 L 27.14718 54.92998 L 26.835055 54.92998 L 26.835055 55.267428 C 26.757349 55.153647 26.65608 55.06325 26.531197 54.996643 C 26.409089 54.930036 26.261942 54.896908 26.08988 54.896908 z M 31.239437 54.896908 C 31.036849 54.896908 30.859288 54.945503 30.706653 55.042635 C 30.556793 55.136991 30.440059 55.265956 30.356803 55.429692 C 30.273548 55.590653 30.231746 55.770931 30.231746 55.970744 C 30.231746 56.167782 30.273548 56.34806 30.356803 56.511796 C 30.440059 56.675532 30.556793 56.805855 30.706653 56.902987 C 30.859288 56.997343 31.036849 57.04458 31.239437 57.04458 C 31.411499 57.04458 31.558646 57.011451 31.680754 56.944845 C 31.805637 56.87824 31.906906 56.789201 31.984611 56.678194 L 31.984611 57.011507 L 32.296737 57.011507 L 32.296737 54.92998 L 31.984611 54.92998 L 31.984611 55.267428 C 31.906906 55.153647 31.805637 55.06325 31.680754 54.996643 C 31.558646 54.930036 31.411499 54.896908 31.239437 54.896908 z M 33.732825 54.896908 C 33.524686 54.896908 33.344408 54.945503 33.191772 55.042635 C 33.039137 55.136991 32.919685 55.265956 32.833655 55.429692 C 32.7504 55.590653 32.708598 55.770931 32.708598 55.970744 C 32.708598 56.167782 32.7504 56.34806 32.833655 56.511796 C 32.919685 56.675532 33.039137 56.805855 33.191772 56.902987 C 33.344408 56.997343 33.524686 57.04458 33.732825 57.04458 C 33.979816 57.04458 34.189149 56.981036 34.36121 56.853377 C 34.536048 56.725719 34.65414 56.560389 34.715194 56.3578 L 34.378263 56.3578 C 34.331085 56.477134 34.254793 56.574325 34.149337 56.649255 C 34.046655 56.724185 33.921768 56.761393 33.774683 56.761393 C 33.622047 56.761393 33.48849 56.725544 33.374707 56.653389 C 33.260924 56.581234 33.173761 56.485401 33.112708 56.366069 C 33.051654 56.24396 33.02124 56.112278 33.02124 55.970744 C 33.02124 55.826434 33.051654 55.694752 33.112708 55.575419 C 33.173762 55.456086 33.260925 55.360253 33.374707 55.288098 C 33.48849 55.215943 33.622047 55.179578 33.774683 55.179578 C 33.921768 55.179578 34.046655 55.217302 34.149337 55.292232 C 34.254791 55.367162 34.331083 55.464355 34.378263 55.583687 L 34.715194 55.583687 C 34.654139 55.381099 34.536047 55.215769 34.36121 55.08811 C 34.189149 54.960452 33.979816 54.896908 33.732825 54.896908 z M 26.131738 55.179578 C 26.287149 55.179578 26.417472 55.215943 26.522929 55.288098 C 26.631158 55.360253 26.712885 55.456086 26.768392 55.575419 C 26.823899 55.694752 26.851591 55.826434 26.851591 55.970744 C 26.851591 56.112278 26.823899 56.24396 26.768392 56.366069 C 26.712888 56.485401 26.631161 56.581234 26.522929 56.653389 C 26.417472 56.725544 26.287149 56.761393 26.131738 56.761393 C 25.979104 56.761393 25.847421 56.725544 25.736414 56.653389 C 25.625408 56.581234 25.540445 56.485401 25.482166 56.366069 C 25.423886 56.24396 25.394832 56.112278 25.394832 55.970744 C 25.394832 55.826434 25.423886 55.694752 25.482166 55.575419 C 25.540444 55.456086 25.625406 55.360253 25.736414 55.288098 C 25.847421 55.215943 25.979104 55.179578 26.131738 55.179578 z M 31.280778 55.179578 C 31.436189 55.179578 31.567028 55.215943 31.672485 55.288098 C 31.780715 55.360253 31.862442 55.456086 31.917948 55.575419 C 31.973455 55.694752 32.001147 55.826434 32.001147 55.970744 C 32.001147 56.112278 31.973455 56.24396 31.917948 56.366069 C 31.862444 56.485401 31.780717 56.581234 31.672485 56.653389 C 31.567028 56.725544 31.436189 56.761393 31.280778 56.761393 C 31.128143 56.761393 30.996461 56.725544 30.885453 56.653389 C 30.774447 56.581234 30.690002 56.485401 30.631722 56.366069 C 30.573442 56.24396 30.544389 56.112278 30.544389 55.970744 C 30.544389 55.826434 30.573442 55.694752 30.631722 55.575419 C 30.690001 55.456086 30.774446 55.360253 30.885453 55.288098 C 30.996461 55.215943 31.128143 55.179578 31.280778 55.179578 z "
       style="font-size:4.16278px;font-family:Questrial;-inkscape-font-specification:'Questrial, Normal';letter-spacing:0px;word-spacing:0px;stroke-width:0.1;stroke-dasharray:none;fill:none;stroke:#000000;stroke-opacity:1" />
    <path
       id="path4020"
       d="M 42.521952 54.097473 L 42.521952 57.011507 L 42.834078 57.011507 L 42.834078 55.812614 C 42.834078 55.687731 42.86177 55.577792 42.917277 55.483435 C 42.975556 55.386302 43.051847 55.311369 43.146204 55.258643 C 43.24056 55.205916 43.345905 55.179578 43.462463 55.179578 C 43.634525 55.179578 43.774877 55.238203 43.88311 55.354761 C 43.991341 55.468543 44.045374 55.619767 44.045374 55.80848 L 44.045374 57.011507 L 44.357499 57.011507 L 44.357499 55.800212 C 44.357499 55.603173 44.317574 55.437843 44.237093 55.304635 C 44.159388 55.168653 44.05676 55.067384 43.929102 55.000777 C 43.804218 54.931397 43.669301 54.896908 43.524992 54.896908 C 43.355705 54.896908 43.217228 54.931397 43.108997 55.000777 C 43.000764 55.070156 42.909008 55.154601 42.834078 55.254508 L 42.834078 54.097473 L 42.521952 54.097473 z M 50.585026 54.097473 L 50.585026 57.011507 L 50.897152 57.011507 L 50.897152 55.812614 C 50.897152 55.687731 50.925361 55.577792 50.980868 55.483435 C 51.039147 55.386302 51.115438 55.311369 51.209794 55.258643 C 51.304151 55.205916 51.409497 55.179578 51.526054 55.179578 C 51.698116 55.179578 51.837951 55.238203 51.946183 55.354761 C 52.054416 55.468543 52.108964 55.619767 52.108964 55.80848 L 52.108964 57.011507 L 52.42109 57.011507 L 52.42109 55.800212 C 52.42109 55.603173 52.380647 55.437843 52.300167 55.304635 C 52.222462 55.168653 52.119834 55.067384 51.992175 55.000777 C 51.867292 54.931397 51.732892 54.896908 51.588582 54.896908 C 51.419297 54.896908 51.280303 54.931397 51.17207 55.000777 C 51.063838 55.070156 50.972082 55.154601 50.897152 55.254508 L 50.897152 54.097473 L 50.585026 54.097473 z M 55.289132 54.097473 L 55.289132 57.011507 L 55.601257 57.011507 L 55.601257 54.097473 L 55.289132 54.097473 z M 57.765983 54.097473 L 57.765983 55.267428 C 57.688278 55.153647 57.587009 55.06325 57.462126 54.996643 C 57.340017 54.930036 57.19287 54.896908 57.020809 54.896908 C 56.81822 54.896908 56.64066 54.945503 56.488025 55.042635 C 56.338165 55.136991 56.221431 55.265956 56.138175 55.429692 C 56.05492 55.590653 56.013635 55.770931 56.013635 55.970744 C 56.013635 56.167782 56.05492 56.34806 56.138175 56.511796 C 56.221431 56.675532 56.338165 56.805855 56.488025 56.902987 C 56.64066 56.997343 56.81822 57.04458 57.020809 57.04458 C 57.19287 57.04458 57.340017 57.011451 57.462126 56.944845 C 57.587009 56.87824 57.688278 56.789201 57.765983 56.678194 L 57.765983 57.011507 L 58.078109 57.011507 L 58.078109 54.097473 L 57.765983 54.097473 z M 41.389722 54.184806 L 41.389722 54.92998 L 40.964941 54.92998 L 40.964941 55.204899 L 41.389722 55.204899 L 41.389722 57.011507 L 41.701847 57.011507 L 41.701847 55.204899 L 42.180371 55.204899 L 42.180371 54.92998 L 41.701847 54.92998 L 41.701847 54.184806 L 41.389722 54.184806 z M 45.932597 54.896908 C 45.814868 54.89951 45.711514 54.921422 45.623055 54.963053 C 45.531473 55.004682 45.455182 55.055996 45.394128 55.117049 C 45.333072 55.178104 45.285835 55.239447 45.252535 55.3005 C 45.222008 55.358777 45.201106 55.406014 45.190007 55.442094 L 45.190007 54.92998 L 44.877881 54.92998 L 44.877881 57.011507 L 45.190007 57.011507 L 45.190007 56.095801 C 45.190007 55.943166 45.219577 55.800095 45.277856 55.666886 C 45.33891 55.530903 45.424715 55.420963 45.535722 55.337708 C 45.649504 55.251677 45.783904 55.209033 45.939315 55.209033 L 45.977039 55.209033 L 45.977039 54.896908 L 45.956368 54.896908 C 45.948389 54.896908 45.940445 54.896734 45.932597 54.896908 z M 47.163529 54.896908 C 46.952616 54.896908 46.769103 54.945503 46.613692 55.042635 C 46.458282 55.136991 46.339347 55.265956 46.256091 55.429692 C 46.172836 55.590653 46.131034 55.770931 46.131034 55.970744 C 46.131034 56.167782 46.174195 56.34806 46.260225 56.511796 C 46.349031 56.675532 46.47256 56.805855 46.630745 56.902987 C 46.788931 56.997343 46.973286 57.04458 47.1842 57.04458 C 47.431191 57.04458 47.63237 56.986472 47.787781 56.869914 C 47.945967 56.750581 48.061341 56.597998 48.133496 56.412061 L 47.791915 56.412061 C 47.736411 56.51474 47.658761 56.599185 47.558854 56.665792 C 47.458948 56.729618 47.335419 56.761393 47.188334 56.761393 C 47.049575 56.761393 46.927405 56.73234 46.821948 56.67406 C 46.716489 56.613006 46.632044 56.532638 46.568217 56.432731 C 46.507165 56.330049 46.468082 56.217909 46.451428 56.095801 L 48.195508 56.095801 L 48.195508 55.970744 C 48.195508 55.770931 48.154224 55.590653 48.070968 55.429692 C 47.987712 55.265956 47.86826 55.136991 47.71285 55.042635 C 47.560215 54.945503 47.377219 54.896908 47.163529 54.896908 z M 49.302934 54.896908 C 49.033741 54.896908 48.829844 54.94958 48.691085 55.055037 C 48.555101 55.157719 48.486963 55.303508 48.486963 55.49222 C 48.486963 55.619879 48.520609 55.721148 48.587215 55.796077 C 48.653819 55.868233 48.739623 55.924983 48.845081 55.96661 C 48.950538 56.005463 49.061836 56.037238 49.178394 56.062211 C 49.297727 56.087184 49.409867 56.113523 49.515324 56.141276 C 49.620779 56.166251 49.706583 56.202617 49.773189 56.249797 C 49.839796 56.296975 49.873442 56.363237 49.873442 56.449268 C 49.873442 56.51865 49.8539 56.575917 49.815047 56.620317 C 49.776195 56.664723 49.7276 56.697852 49.66932 56.720052 C 49.613816 56.742252 49.555707 56.757201 49.494653 56.765527 C 49.433598 56.773854 49.382284 56.778446 49.340658 56.778446 C 49.207448 56.778446 49.098868 56.758905 49.015613 56.720052 C 48.932356 56.678421 48.870171 56.625749 48.828544 56.561922 C 48.789691 56.495318 48.766074 56.42718 48.757747 56.3578 L 48.433219 56.3578 C 48.441545 56.479908 48.480111 56.593924 48.549491 56.699382 C 48.618871 56.802066 48.718781 56.885152 48.849215 56.948979 C 48.982423 57.012805 49.145036 57.04458 49.336523 57.04458 C 49.594615 57.04458 49.799871 56.991907 49.952507 56.88645 C 50.107917 56.778218 50.185567 56.622917 50.185567 56.420329 C 50.185567 56.289895 50.152438 56.187267 50.085832 56.112337 C 50.019228 56.034631 49.932907 55.974647 49.82745 55.93302 C 49.721992 55.891393 49.609852 55.859619 49.490519 55.837419 C 49.373961 55.812439 49.262663 55.787461 49.157206 55.762488 C 49.051752 55.734739 48.965947 55.698891 48.899341 55.654484 C 48.832734 55.610081 48.799089 55.54602 48.799089 55.462764 C 48.799089 55.262951 48.964419 55.163041 49.294666 55.163041 C 49.469502 55.163041 49.59439 55.194816 49.66932 55.258643 C 49.747026 55.322472 49.791545 55.398763 49.802645 55.487569 L 50.118905 55.487569 C 50.107803 55.384887 50.071954 55.289571 50.010901 55.200765 C 49.952622 55.111956 49.864942 55.039741 49.748385 54.984241 C 49.634602 54.925961 49.486096 54.896908 49.302934 54.896908 z M 53.844775 54.896908 C 53.633862 54.896908 53.450349 54.945503 53.294938 55.042635 C 53.139528 55.136991 53.020592 55.265956 52.937337 55.429692 C 52.854081 55.590653 52.81228 55.770931 52.81228 55.970744 C 52.81228 56.167782 52.854081 56.34806 52.937337 56.511796 C 53.020592 56.675532 53.139528 56.805855 53.294938 56.902987 C 53.450349 56.997343 53.633862 57.04458 53.844775 57.04458 C 54.058465 57.04458 54.241461 56.997343 54.394096 56.902987 C 54.549506 56.805855 54.668958 56.675532 54.752214 56.511796 C 54.835469 56.34806 54.876754 56.167782 54.876754 55.970744 C 54.876754 55.770931 54.835469 55.590653 54.752214 55.429692 C 54.668958 55.265956 54.549506 55.136991 54.394096 55.042635 C 54.241461 54.945503 54.058465 54.896908 53.844775 54.896908 z M 47.163529 55.179578 C 47.363343 55.179578 47.524079 55.239562 47.646187 55.358895 C 47.768294 55.478228 47.843227 55.626735 47.87098 55.804346 L 46.455562 55.804346 C 46.486089 55.626735 46.561022 55.478228 46.680355 55.358895 C 46.802463 55.239562 46.963716 55.179578 47.163529 55.179578 z M 53.844775 55.179578 C 54.000185 55.179578 54.130509 55.215943 54.235966 55.288098 C 54.344195 55.360253 54.425922 55.456086 54.481429 55.575419 C 54.536936 55.694752 54.564628 55.826434 54.564628 55.970744 C 54.564628 56.112278 54.536936 56.24396 54.481429 56.366069 C 54.425926 56.485401 54.344199 56.581234 54.235966 56.653389 C 54.130509 56.725544 54.000185 56.761393 53.844775 56.761393 C 53.69214 56.761393 53.561817 56.725544 53.453585 56.653389 C 53.345356 56.581234 53.263112 56.485401 53.207605 56.366069 C 53.152098 56.24396 53.124406 56.112278 53.124406 55.970744 C 53.124406 55.826434 53.152098 55.694752 53.207605 55.575419 C 53.263108 55.456086 53.345352 55.360253 53.453585 55.288098 C 53.561817 55.215943 53.69214 55.179578 53.844775 55.179578 z M 57.062667 55.179578 C 57.218077 55.179578 57.3484 55.215943 57.453857 55.288098 C 57.562087 55.360253 57.643814 55.456086 57.69932 55.575419 C 57.754827 55.694752 57.78252 55.826434 57.78252 55.970744 C 57.78252 56.112278 57.754827 56.24396 57.69932 56.366069 C 57.643817 56.485401 57.562089 56.581234 57.453857 56.653389 C 57.3484 56.725544 57.218077 56.761393 57.062667 56.761393 C 56.910032 56.761393 56.777833 56.725544 56.666825 56.653389 C 56.555819 56.581234 56.471374 56.485401 56.413094 56.366069 C 56.354814 56.24396 56.325761 56.112278 56.325761 55.970744 C 56.325761 55.826434 56.354814 55.694752 56.413094 55.575419 C 56.471373 55.456086 56.555817 55.360253 56.666825 55.288098 C 56.777833 55.215943 56.910032 55.179578 57.062667 55.179578 z "
       style="font-size:4.16278px;font-family:Questrial;-inkscape-font-specification:'Questrial, Normal';letter-spacing:0px;word-spacing:0px;stroke-width:0.1;stroke-dasharray:none;fill:none;stroke:#000000;stroke-opacity:1" />
    <path
       id="path4011"
       d="M 30.384192 3.2768026 C 30.316529 3.2787318 30.253931 3.2950271 30.196606 3.3258952 C 30.135458 3.3588208 30.086299 3.4041836 30.049845 3.4618042 C 30.013392 3.5182486 29.995585 3.5832002 29.995585 3.6561076 C 29.995585 3.7301906 30.013015 3.7958909 30.048295 3.8535116 C 30.083572 3.9099559 30.131466 3.9544275 30.191439 3.9873535 C 30.252587 4.0191035 30.319553 4.0354126 30.39246 4.0354126 C 30.458311 4.0354126 30.518201 4.0199945 30.572294 3.9894206 C 30.627565 3.9576703 30.669131 3.9177439 30.697351 3.8695312 C 30.697351 3.9577256 30.686101 4.0375784 30.663761 4.1093099 C 30.642593 4.1810414 30.609369 4.2380256 30.563509 4.2803589 C 30.518824 4.3226922 30.459684 4.3439209 30.386776 4.3439209 C 30.343264 4.3439209 30.307509 4.3364706 30.279289 4.3211833 C 30.251069 4.3047206 30.228576 4.2842405 30.212109 4.2607218 C 30.196823 4.2360279 30.185203 4.2115192 30.176969 4.1868245 L 30.029175 4.1868245 C 30.039755 4.2326855 30.058455 4.2780483 30.085502 4.3227336 C 30.113727 4.3662431 30.152387 4.4019986 30.201774 4.4302205 C 30.251163 4.4584425 30.312692 4.4725952 30.386776 4.4725952 C 30.533767 4.4725952 30.644455 4.4188907 30.718538 4.3118815 C 30.792622 4.2048723 30.829643 4.0593192 30.829643 3.8746989 C 30.829643 3.683023 30.793513 3.5353133 30.720605 3.4318319 C 30.647698 3.3283504 30.539915 3.2768026 30.397628 3.2768026 C 30.393071 3.2768026 30.388703 3.276674 30.384192 3.2768026 z M 30.910775 3.2907552 L 31.383614 4.4586426 L 31.535026 4.4586426 L 32.007865 3.2907552 L 31.863171 3.2907552 L 31.459578 4.3087809 L 31.055469 3.2907552 L 30.910775 3.2907552 z M 30.388326 3.4054769 C 30.391381 3.4053942 30.394541 3.4054769 30.397628 3.4054769 C 30.448194 3.4054769 30.493557 3.4167239 30.533537 3.4390666 C 30.57469 3.4602332 30.606652 3.4901783 30.630172 3.5289836 C 30.654865 3.5677893 30.667379 3.613152 30.667379 3.6648926 C 30.667379 3.7131051 30.654865 3.7559369 30.630172 3.7935669 C 30.606658 3.8300209 30.574697 3.8586999 30.533537 3.8798665 C 30.492377 3.8998572 30.447014 3.9098389 30.397628 3.9098389 C 30.348241 3.9098391 30.302879 3.8985918 30.261719 3.8762492 C 30.221739 3.8539065 30.18926 3.8239615 30.164567 3.7863322 C 30.139874 3.7475263 30.127877 3.7043202 30.127877 3.6561076 C 30.127877 3.606719 30.139874 3.5629962 30.164567 3.5253662 C 30.18926 3.4877362 30.221739 3.4581662 30.261719 3.4369995 C 30.300306 3.4171558 30.342508 3.4067171 30.388326 3.4054769 z "
       style="font-size:1.76389px;font-family:Questrial;-inkscape-font-specification:'Questrial, Normal';letter-spacing:0px;word-spacing:0px;stroke-width:0.1;stroke-dasharray:none;fill:none;stroke:#000000;stroke-opacity:1" />
    <path
       id="path10508"
       d="m 53.498848,44.803437 a 3.9999995,3.9999995 0 0 1 -4,4 3.9999995,3.9999995 0 0 1 -4,-4 3.9999995,3.9999995 0 0 1 4,-3.999999 3.9999995,3.9999995 0 0 1 4,3.999999 z"
       style="display:inline;fill:none;stroke:#000000;stroke-width:0.05;stroke-dasharray:none;stroke-opacity:1" />
    <path
       id="path10508-90"
       style="display:inline;fill:none;stroke:#000000;stroke-width:0.05;stroke-dasharray:none;stroke-opacity:1"
       d="m 53.498848,14.503428 a 3.9999995,3.9999995 0 0 1 -4,4.000002 3.9999995,3.9999995 0 0 1 -4,-4.000002 3.9999995,3.9999995 0 0 1 4,-4.000002 3.9999995,3.9999995 0 0 1 4,4.000002 z" />
    <path
       id="path10508-9-4"
       style="display:inline;fill:none;stroke:#000000;stroke-width:0.05;stroke-dasharray:none;stroke-opacity:1"
       d="m 16.498848,44.803437 a 3.9999995,3.9999995 0 0 1 -4,4 3.9999995,3.9999995 0 0 1 -4.0000147,-4 3.9999995,3.9999995 0 0 1 4.0000147,-3.999999 3.9999995,3.9999995 0 0 1 4,3.999999 z" />
    <path
       id="path10508-91"
       style="display:inline;fill:none;stroke:#000000;stroke-width:0.05;stroke-dasharray:none;stroke-opacity:1"
       d="m 16.498848,14.503428 a 3.9999995,3.9999995 0 0 1 -4,4.000002 3.9999995,3.9999995 0 0 1 -4.0000147,-4.000002 3.9999995,3.9999995 0 0 1 4.0000147,-4.000002 3.9999995,3.9999995 0 0 1 4,4.000002 z" />
    <path
       id="path10508-7"
       d="m 34.999026,44.803437 a 3.9999995,3.9999995 0 0 1 -4,4 3.9999995,3.9999995 0 0 1 -4,-4 3.9999995,3.9999995 0 0 1 4,-3.999999 3.9999995,3.9999995 0 0 1 4,3.999999 z"
       style="display:inline;fill:none;stroke:#000000;stroke-width:0.05;stroke-dasharray:none;stroke-opacity:1" />
  </g>
</svg>
