<?xml version="1.0" encoding="UTF-8" standalone="no"?>
<!-- Created with Inkscape (http://www.inkscape.org/) -->

<svg
   width="210mm"
   height="297mm"
   viewBox="0 0 210 297"
   version="1.1"
   id="svg6890"
   xml:space="preserve"
   inkscape:version="1.2.2 (b0a8486541, 2022-12-01)"
   sodipodi:docname="graphic.svg"
   xmlns:inkscape="http://www.inkscape.org/namespaces/inkscape"
   xmlns:sodipodi="http://sodipodi.sourceforge.net/DTD/sodipodi-0.dtd"
   xmlns="http://www.w3.org/2000/svg"
   xmlns:svg="http://www.w3.org/2000/svg"><sodipodi:namedview
     id="namedview6892"
     pagecolor="#505050"
     bordercolor="#ffffff"
     borderopacity="1"
     inkscape:showpageshadow="0"
     inkscape:pageopacity="0"
     inkscape:pagecheckerboard="1"
     inkscape:deskcolor="#505050"
     inkscape:document-units="mm"
     showgrid="false"
     inkscape:zoom="3.3638608"
     inkscape:cx="51.726278"
     inkscape:cy="120.99193"
     inkscape:current-layer="layer1" /><defs
     id="defs6887" /><g
     inkscape:label="Layer 1"
     inkscape:groupmode="layer"
     id="layer1"><rect
       style="fill:none;stroke:#000000;stroke-width:1.2;stroke-linecap:round;stroke-linejoin:round;stroke-dasharray:none;paint-order:normal"
       id="rect7071"
       width="25"
       height="25"
       x="46.289585"
       y="17.247753" /><rect
       style="fill:none;stroke:#000000;stroke-width:1.2;stroke-linecap:round;stroke-linejoin:round;stroke-dasharray:none;paint-order:normal"
       id="rect8162"
       height="25"
       x="73.644905"
       y="17.247753"
       width="0.1" /><rect
       style="fill:none;stroke:#000000;stroke-width:1.2;stroke-linecap:round;stroke-linejoin:round;stroke-dasharray:none;paint-order:normal"
       id="rect8162-5"
       height="25"
       x="43.834255"
       y="17.247753"
       width="0.1" /><path
       sodipodi:type="star"
       style="fill:none;stroke:#000000;stroke-width:1.2;stroke-linecap:round;stroke-linejoin:round;stroke-dasharray:none;paint-order:normal"
       id="path8256"
       inkscape:flatsided="false"
       sodipodi:sides="3"
       sodipodi:cx="84.854149"
       sodipodi:cy="23.411629"
       sodipodi:r1="5.8793683"
       sodipodi:r2="2.9396842"
       sodipodi:arg1="0.50828703"
       sodipodi:arg2="1.5554846"
       inkscape:rounded="0"
       inkscape:randomized="0"
       d="m 89.990244,26.273009 -5.091085,0.07796 -5.091086,0.07796 2.478028,-4.447989 2.478028,-4.447989 2.613058,4.370029 z"
       inkscape:transform-center-x="-1.4306904"
       inkscape:transform-center-y="0.045008708"
       transform="rotate(90,56.994221,1.8428089)" /><path
       sodipodi:type="star"
       style="fill:none;stroke:#000000;stroke-width:1.2;stroke-linecap:round;stroke-linejoin:round;stroke-dasharray:none;paint-order:normal"
       id="path8256-3"
       inkscape:flatsided="false"
       sodipodi:sides="3"
       sodipodi:cx="84.854149"
       sodipodi:cy="23.411629"
       sodipodi:r1="5.8793683"
       sodipodi:r2="2.9396842"
       sodipodi:arg1="0.50828703"
       sodipodi:arg2="1.5554846"
       inkscape:rounded="0"
       inkscape:randomized="0"
       d="m 89.990244,26.273009 -5.091085,0.07796 -5.091086,0.07796 2.478028,-4.447989 2.478028,-4.447989 2.613058,4.370029 z"
       inkscape:transform-center-x="1.4306902"
       inkscape:transform-center-y="0.045008708"
       transform="matrix(0,1,1,0,58.76509,-55.151413)" /><path
       style="fill:#000000;fill-opacity:1;stroke:#000000;stroke-width:0.622276;stroke-dasharray:none;stroke-opacity:1"
       d="m 54.041602,39.527301 c -0.48191,-0.076 -0.885938,-0.195564 -1.266417,-0.374773 -1.895795,-0.892928 -2.911817,-2.898031 -2.495251,-4.924344 0.106748,-0.51921 0.360717,-1.122937 0.650568,-1.54644 0.743656,-1.086571 1.844637,-1.770662 3.136407,-1.948797 0.374307,-0.05163 1.057823,-0.03587 1.423341,0.03283 1.169526,0.219772 2.203204,0.893349 2.891331,1.884087 0.04477,0.06446 0.04295,0.345002 0.04155,-6.403376 -5.2e-4,-2.437335 0.0077,-3.963526 0.02224,-4.112574 0.02254,-0.23168 0.08622,-0.508821 0.148488,-0.646205 0.01711,-0.03779 0.05271,-0.118784 0.07911,-0.180004 0.07734,-0.179463 0.292339,-0.481262 0.459906,-0.645619 0.228311,-0.223943 0.377588,-0.330287 0.666905,-0.475106 0.238439,-0.119352 0.33496,-0.150438 0.72062,-0.232093 0.05365,-0.01135 1.528444,-0.02039 3.35752,-0.02054 l 3.261823,-2.56e-4 0.09315,0.05826 c 0.161773,0.101177 0.158304,0.07051 0.158111,1.397618 -2.61e-4,1.242554 -0.0067,1.346315 -0.105796,1.67102 -0.228316,0.748457 -0.82694,1.358007 -1.579095,1.607909 -0.351969,0.11694 -0.315873,0.115765 -3.545648,0.115765 h -3.005504 l -1.72e-4,2.30608 c -8.7e-5,1.268345 -0.003,3.69313 -0.0065,5.388409 -0.0069,3.376128 -5.22e-4,3.209777 -0.144054,3.762256 -0.431167,1.659917 -1.823898,2.945912 -3.524597,3.254481 -0.352187,0.0639 -1.125023,0.08078 -1.438053,0.03142 z m 1.373291,-0.745426 c 0.910861,-0.188781 1.716379,-0.69633 2.269399,-1.429929 0.942552,-1.250321 0.988636,-2.993883 0.113209,-4.283531 -0.248505,-0.366093 -0.618464,-0.743005 -0.964737,-0.982874 -0.113244,-0.07844 -0.203077,-0.152776 -0.199619,-0.165168 0.0035,-0.0124 -0.0035,-0.01658 -0.01535,-0.0093 -0.01192,0.0073 -0.133124,-0.042 -0.269388,-0.109537 -0.318527,-0.157852 -0.583787,-0.249142 -0.943217,-0.324607 -0.252593,-0.05302 -0.342145,-0.06069 -0.722993,-0.06178 -0.448508,-0.0012 -0.557113,0.01135 -0.972332,0.11365 -1.029063,0.253362 -1.943331,0.996378 -2.424317,1.970218 -0.295804,0.598902 -0.425863,1.276676 -0.369443,1.925233 0.15373,1.767063 1.503937,3.168577 3.285647,3.410501 0.284488,0.03862 0.901325,0.01175 1.213138,-0.05289 z m 9.985215,-14.763853 c 0.358416,-0.109502 0.715985,-0.349065 0.916744,-0.614189 0.05121,-0.06763 0.133008,-0.205313 0.181775,-0.305966 0.16746,-0.345632 0.16677,-0.33996 0.177256,-1.458426 l 0.0093,-1.003448 -3.061666,0.0061 -3.061672,0.0061 -0.171589,0.0589 c -0.477869,0.16401 -0.8282,0.453288 -1.039294,0.858174 -0.186298,0.357332 -0.195794,0.432352 -0.19598,1.548149 l -1.72e-4,0.969378 3.037109,-0.0064 3.037109,-0.0064 0.170962,-0.05223 z"
       id="path8361" /></g></svg>
