<?xml version="1.0" encoding="UTF-8" standalone="no"?>
<svg
   width="62mm"
   height="117mm"
   viewBox="0 0 62 117"
   version="1.1"
   id="svg8"
   inkscape:version="1.2.2 (b0a8486541, 2022-12-01)"
   sodipodi:docname="bass_preamp_front_freecad.svg"
   inkscape:export-filename="/home/yann/_dev/98 - Graphics/graphics-pedals/Shining Pig/shining_pig_front_9V.png"
   inkscape:export-xdpi="96"
   inkscape:export-ydpi="96"
   xmlns:inkscape="http://www.inkscape.org/namespaces/inkscape"
   xmlns:sodipodi="http://sodipodi.sourceforge.net/DTD/sodipodi-0.dtd"
   xmlns="http://www.w3.org/2000/svg"
   xmlns:svg="http://www.w3.org/2000/svg"
   xmlns:rdf="http://www.w3.org/1999/02/22-rdf-syntax-ns#"
   xmlns:cc="http://creativecommons.org/ns#"
   xmlns:dc="http://purl.org/dc/elements/1.1/">
  <defs
     id="defs2" />
  <sodipodi:namedview
     id="base"
     pagecolor="#ffffff"
     bordercolor="#666666"
     borderopacity="1.0"
     inkscape:pageopacity="0"
     inkscape:pageshadow="2"
     inkscape:zoom="2.8284271"
     inkscape:cx="-26.162951"
     inkscape:cy="199.40411"
     inkscape:document-units="mm"
     inkscape:current-layer="layer6"
     inkscape:document-rotation="0"
     showgrid="true"
     inkscape:window-width="3836"
     inkscape:window-height="2113"
     inkscape:window-x="0"
     inkscape:window-y="881"
     inkscape:window-maximized="1"
     showborder="true"
     inkscape:showpageshadow="false"
     inkscape:pagecheckerboard="true"
     inkscape:deskcolor="#d1d1d1">
    <sodipodi:guide
       position="-2.0168617,58.500093"
       orientation="0,117.16536"
       id="guide1967"
       inkscape:locked="false" />
    <sodipodi:guide
       position="31.001653,138.8865"
       orientation="-221.10236,0"
       id="guide1969"
       inkscape:locked="false" />
    <inkscape:grid
       type="xygrid"
       id="grid1973"
       visible="true"
       enabled="true"
       originx="31.000001"
       originy="58.500002"
       dotted="false" />
  </sodipodi:namedview>
  <metadata
     id="metadata5">
    <rdf:RDF>
      <cc:Work
         rdf:about="">
        <dc:format>image/svg+xml</dc:format>
        <dc:type
           rdf:resource="http://purl.org/dc/dcmitype/StillImage" />
      </cc:Work>
    </rdf:RDF>
  </metadata>
  <g
     inkscape:groupmode="layer"
     id="layer6"
     inkscape:label="Controls">
    <path
       id="path6833"
       d="m 30.384192,3.2768026 c -0.06766,0.00193 -0.130261,0.018225 -0.187586,0.049093 -0.06115,0.032926 -0.110307,0.078288 -0.146761,0.135909 -0.03645,0.056444 -0.05426,0.121396 -0.05426,0.1943034 0,0.074083 0.01743,0.1397833 0.05271,0.197404 0.03528,0.056444 0.08317,0.1009159 0.143144,0.1338419 0.06115,0.03175 0.128114,0.048059 0.201021,0.048059 0.06585,0 0.125741,-0.015418 0.179834,-0.045992 0.05527,-0.03175 0.09684,-0.071677 0.125057,-0.1198894 0,0.088194 -0.01125,0.1680472 -0.03359,0.2397787 -0.02117,0.071731 -0.05439,0.1287157 -0.100252,0.171049 -0.04469,0.042333 -0.103825,0.063562 -0.176733,0.063562 -0.04351,0 -0.07927,-0.00745 -0.107487,-0.022738 -0.02822,-0.016463 -0.05071,-0.036943 -0.06718,-0.060462 -0.01529,-0.024694 -0.02691,-0.049203 -0.03514,-0.073897 h -0.147794 c 0.01058,0.045861 0.02928,0.091224 0.05633,0.1359091 0.02822,0.043509 0.06688,0.079265 0.116272,0.1074869 0.04939,0.028222 0.110918,0.042375 0.185002,0.042375 0.146991,0 0.257679,-0.053704 0.331762,-0.1607137 0.07408,-0.1070092 0.111105,-0.2525623 0.111105,-0.4371826 0,-0.1916759 -0.03613,-0.3393856 -0.109038,-0.442867 -0.07291,-0.1034815 -0.18069,-0.1550293 -0.322977,-0.1550293 -0.0046,0 -0.0089,-1.286e-4 -0.01344,0 z m 0.526583,0.013953 0.472839,1.1678874 h 0.151412 L 32.007865,3.2907552 H 31.863171 L 31.459578,4.3087809 31.055469,3.2907552 Z m -0.522449,0.1147217 c 0.0031,-8.27e-5 0.0062,0 0.0093,0 0.05057,0 0.09593,0.011247 0.135909,0.03359 0.04115,0.021167 0.07312,0.051112 0.09664,0.089917 0.02469,0.038806 0.03721,0.084168 0.03721,0.135909 0,0.048212 -0.01251,0.091044 -0.03721,0.1286743 -0.02351,0.036454 -0.05548,0.065133 -0.09664,0.0863 -0.04116,0.019991 -0.08652,0.029972 -0.135909,0.029972 -0.04939,2e-7 -0.09475,-0.011247 -0.135909,-0.03359 -0.03998,-0.022343 -0.07246,-0.052288 -0.09715,-0.089917 -0.02469,-0.038806 -0.03669,-0.082012 -0.03669,-0.1302246 0,-0.049389 0.012,-0.093111 0.03669,-0.1307414 0.02469,-0.03763 0.05717,-0.0672 0.09715,-0.088367 0.03859,-0.019844 0.08079,-0.030282 0.126607,-0.031523 z"
       style="font-size:1.76389px;font-family:Questrial;-inkscape-font-specification:'Questrial, Normal';letter-spacing:0px;word-spacing:0px;stroke-width:0.1;fill:none;stroke:#000000;stroke-opacity:1;stroke-dasharray:none" />
    <path
       id="path6733"
       d="m 35.10225,54.097473 v 2.914034 h 0.312126 v -0.657841 l 0.391707,-0.387056 0.728121,1.044897 h 0.383439 l -0.89917,-1.261422 0.836642,-0.820105 h -0.437183 l -1.003556,1.032496 v -1.865003 z m -7.188708,0.08733 v 0.745174 h -0.424781 v 0.274919 h 0.424781 v 1.806608 h 0.312125 v -1.806608 h 0.478524 V 54.92998 h -0.478524 v -0.745174 z m 1.357023,0 v 0.745174 h -0.42478 v 0.274919 h 0.42478 v 1.806608 h 0.312125 v -1.806608 h 0.478524 V 54.92998 H 29.58269 v -0.745174 z m -3.180685,0.712102 c -0.202588,0 -0.380148,0.04859 -0.532784,0.145727 -0.149859,0.09436 -0.266593,0.223321 -0.349849,0.387057 -0.08325,0.160961 -0.12454,0.341239 -0.12454,0.541052 0,0.197038 0.04129,0.377316 0.12454,0.541052 0.08326,0.163736 0.19999,0.294059 0.349849,0.391191 0.152636,0.09436 0.330196,0.141593 0.532784,0.141593 0.172062,0 0.319209,-0.03313 0.441317,-0.09974 0.124883,-0.06661 0.226152,-0.155644 0.303858,-0.266651 v 0.333313 H 27.14718 V 54.92998 h -0.312125 v 0.337448 c -0.07771,-0.113781 -0.178975,-0.204178 -0.303858,-0.270785 -0.122108,-0.06661 -0.269255,-0.09973 -0.441317,-0.09973 z m 5.149557,0 c -0.202588,0 -0.380149,0.04859 -0.532784,0.145727 -0.14986,0.09436 -0.266594,0.223321 -0.34985,0.387057 -0.08325,0.160961 -0.125057,0.341239 -0.125057,0.541052 0,0.197038 0.0418,0.377316 0.125057,0.541052 0.08326,0.163736 0.19999,0.294059 0.34985,0.391191 0.152635,0.09436 0.330196,0.141593 0.532784,0.141593 0.172062,0 0.319209,-0.03313 0.441317,-0.09974 0.124883,-0.06661 0.226152,-0.155644 0.303857,-0.266651 v 0.333313 h 0.312126 V 54.92998 h -0.312126 v 0.337448 c -0.07771,-0.113781 -0.178974,-0.204178 -0.303857,-0.270785 -0.122108,-0.06661 -0.269255,-0.09973 -0.441317,-0.09973 z m 2.493388,0 c -0.208139,0 -0.388417,0.04859 -0.541053,0.145727 -0.152635,0.09436 -0.272087,0.223321 -0.358117,0.387057 -0.08326,0.160961 -0.125057,0.341239 -0.125057,0.541052 0,0.197038 0.0418,0.377316 0.125057,0.541052 0.08603,0.163736 0.205482,0.294059 0.358117,0.391191 0.152636,0.09436 0.332914,0.141593 0.541053,0.141593 0.246991,0 0.456324,-0.06354 0.628385,-0.191203 0.174838,-0.127658 0.29293,-0.292988 0.353984,-0.495577 h -0.336931 c -0.04718,0.119334 -0.12347,0.216525 -0.228926,0.291455 -0.102682,0.07493 -0.227569,0.112138 -0.374654,0.112138 -0.152636,0 -0.286193,-0.03585 -0.399976,-0.108004 -0.113783,-0.07215 -0.200946,-0.167988 -0.261999,-0.28732 -0.06105,-0.122109 -0.09147,-0.253791 -0.09147,-0.395325 0,-0.14431 0.03041,-0.275992 0.09147,-0.395325 0.06105,-0.119333 0.148217,-0.215166 0.261999,-0.287321 0.113783,-0.07215 0.24734,-0.10852 0.399976,-0.10852 0.147085,0 0.271972,0.03772 0.374654,0.112654 0.105454,0.07493 0.181746,0.172123 0.228926,0.291455 h 0.336931 C 34.654139,55.381099 34.536047,55.215769 34.36121,55.08811 34.189149,54.960452 33.979816,54.896908 33.732825,54.896908 Z m -7.601087,0.28267 c 0.155411,0 0.285734,0.03637 0.391191,0.10852 0.108229,0.07216 0.189956,0.167988 0.245463,0.287321 0.05551,0.119333 0.0832,0.251015 0.0832,0.395325 0,0.141534 -0.02769,0.273216 -0.0832,0.395325 -0.0555,0.119332 -0.137231,0.215165 -0.245463,0.28732 -0.105457,0.07216 -0.23578,0.108004 -0.391191,0.108004 -0.152634,0 -0.284317,-0.03585 -0.395324,-0.108004 -0.111006,-0.07215 -0.195969,-0.167988 -0.254248,-0.28732 -0.05828,-0.122109 -0.08733,-0.253791 -0.08733,-0.395325 0,-0.14431 0.02905,-0.275992 0.08733,-0.395325 0.05828,-0.119333 0.14324,-0.215166 0.254248,-0.287321 0.111007,-0.07215 0.24269,-0.10852 0.395324,-0.10852 z m 5.14904,0 c 0.155411,0 0.28625,0.03637 0.391707,0.10852 0.10823,0.07216 0.189957,0.167988 0.245463,0.287321 0.05551,0.119333 0.0832,0.251015 0.0832,0.395325 0,0.141534 -0.02769,0.273216 -0.0832,0.395325 -0.0555,0.119332 -0.137231,0.215165 -0.245463,0.28732 -0.105457,0.07216 -0.236296,0.108004 -0.391707,0.108004 -0.152635,0 -0.284317,-0.03585 -0.395325,-0.108004 -0.111006,-0.07215 -0.195451,-0.167988 -0.253731,-0.28732 -0.05828,-0.122109 -0.08733,-0.253791 -0.08733,-0.395325 0,-0.14431 0.02905,-0.275992 0.08733,-0.395325 0.05828,-0.119333 0.142724,-0.215166 0.253731,-0.287321 0.111008,-0.07215 0.24269,-0.10852 0.395325,-0.10852 z"
       style="font-size:4.16278px;font-family:Questrial;-inkscape-font-specification:'Questrial, Normal';letter-spacing:0px;word-spacing:0px;stroke-width:0.1;fill:none;stroke:#000000;stroke-opacity:1;stroke-dasharray:none" />
    <path
       id="path6758"
       d="m 10.42262,24.058997 v 2.914034 h 0.312125 v -2.914034 z m -1.4443567,0.799434 c -0.2109139,0 -0.3944269,0.04808 -0.5498372,0.145211 -0.1554103,0.09436 -0.2743454,0.223837 -0.3576009,0.387573 -0.083255,0.160961 -0.125057,0.341239 -0.125057,0.541052 0,0.197038 0.041802,0.377317 0.125057,0.541052 0.083255,0.163736 0.2021906,0.29406 0.3576009,0.391191 0.1554103,0.09436 0.3389233,0.141594 0.5498372,0.141594 0.2136892,0 0.3966854,-0.04724 0.5493205,-0.141594 0.1554103,-0.09713 0.2748622,-0.227455 0.3581177,-0.391191 0.083255,-0.163735 0.1245405,-0.344014 0.1245405,-0.541052 0,-0.199813 -0.041285,-0.380091 -0.1245405,-0.541052 C 9.802446,25.227479 9.6829941,25.097998 9.5275838,25.003642 9.3749487,24.906511 9.1919525,24.858431 8.9782633,24.858431 Z m 5.5676187,0 c -0.154803,0.0044 -0.280457,0.04189 -0.376721,0.112138 -0.102681,0.07493 -0.177613,0.153939 -0.224793,0.237195 v -0.31626 h -0.312125 v 2.081527 h 0.312125 v -1.244886 c 0,-0.185937 0.05539,-0.330366 0.166399,-0.433048 0.111007,-0.102681 0.242689,-0.153996 0.395324,-0.153996 0.147085,0 0.269255,0.05403 0.366386,0.162264 0.09991,0.105457 0.149862,0.24581 0.149862,0.420646 v 1.24902 h 0.312126 v -1.244886 c 0,-0.185937 0.05591,-0.330366 0.166914,-0.433048 0.111008,-0.102681 0.24269,-0.153996 0.395325,-0.153996 0.147085,0 0.269254,0.05403 0.366386,0.162264 0.09991,0.105457 0.149862,0.24581 0.149862,0.420646 v 1.24902 h 0.312125 v -1.257288 c 0,-0.174836 -0.03772,-0.326061 -0.112654,-0.453719 -0.07215,-0.130433 -0.166113,-0.230343 -0.28267,-0.299723 -0.116558,-0.06938 -0.241445,-0.10387 -0.374655,-0.10387 -0.135983,0 -0.252718,0.02498 -0.349849,0.07493 -0.09713,0.04995 -0.176142,0.10806 -0.237195,0.174666 -0.05828,0.0666 -0.101438,0.123352 -0.129191,0.170532 -0.0666,-0.133208 -0.15972,-0.235837 -0.279053,-0.307991 -0.116557,-0.07493 -0.244163,-0.112138 -0.382922,-0.112138 -0.01058,0 -0.02069,-2.93e-4 -0.03101,0 z m 3.602881,0 c -0.210914,0 -0.394427,0.04808 -0.549837,0.145211 -0.155411,0.09436 -0.274346,0.223837 -0.357601,0.387573 -0.08326,0.160961 -0.125057,0.341239 -0.125057,0.541052 0,0.197038 0.04316,0.377317 0.129191,0.541052 0.08881,0.163736 0.212335,0.29406 0.37052,0.391191 0.158185,0.09436 0.34254,0.141594 0.553455,0.141594 0.246991,0 0.44817,-0.05811 0.60358,-0.174667 0.158185,-0.119332 0.27356,-0.271915 0.345716,-0.457853 h -0.341582 c -0.0555,0.10268 -0.133154,0.187125 -0.23306,0.253731 -0.09991,0.06383 -0.223436,0.0956 -0.37052,0.0956 -0.138759,0 -0.260929,-0.02905 -0.366386,-0.08733 -0.10546,-0.06105 -0.189905,-0.141422 -0.253731,-0.241328 -0.06105,-0.102682 -0.100136,-0.214822 -0.116789,-0.336931 h 1.744596 v -0.125057 c 0,-0.199813 -0.0418,-0.380091 -0.125057,-0.541052 -0.08326,-0.163736 -0.202708,-0.293217 -0.358118,-0.387573 -0.152635,-0.09713 -0.335631,-0.145211 -0.54932,-0.145211 z m -12.3594523,0.03307 0.8159709,2.081527 H 6.9716675 L 7.7835042,24.891504 H 7.441923 L 6.7882161,26.639718 6.1308919,24.891504 Z m 5.4658163,0 v 1.211295 c 0,0.197038 0.03857,0.363728 0.116272,0.499712 0.08048,0.133209 0.184984,0.234478 0.312642,0.303857 0.127659,0.06661 0.262059,0.09974 0.403593,0.09974 0.169286,0 0.30828,-0.03449 0.416512,-0.10387 0.108232,-0.06938 0.199472,-0.154342 0.274402,-0.254248 v 0.325045 h 0.312126 v -2.081527 h -0.312126 v 1.198893 c 0,0.124884 -0.02905,0.234306 -0.08733,0.328662 -0.0555,0.09435 -0.130437,0.169286 -0.224792,0.224793 -0.09436,0.05273 -0.199702,0.07906 -0.31626,0.07906 -0.169286,0 -0.309639,-0.05675 -0.420646,-0.170533 -0.108232,-0.116557 -0.162264,-0.26914 -0.162264,-0.457853 V 24.8915 Z m -2.2768637,0.249597 c 0.1554104,0 0.2857337,0.03637 0.3911906,0.108521 0.1082319,0.07215 0.1899591,0.167987 0.2454631,0.287321 0.055504,0.119332 0.083199,0.251014 0.083199,0.395324 0,0.141535 -0.027695,0.273217 -0.083199,0.395325 -0.055504,0.119333 -0.1372309,0.215166 -0.2454631,0.287321 -0.1054569,0.07215 -0.2357802,0.108004 -0.3911906,0.108004 -0.1526351,0 -0.2834752,-0.03585 -0.3917073,-0.108004 -0.1082319,-0.07216 -0.1899591,-0.167988 -0.2454631,-0.287321 -0.055504,-0.122108 -0.083199,-0.25379 -0.083199,-0.395325 0,-0.14431 0.027695,-0.275992 0.083199,-0.395324 0.055504,-0.119334 0.1372309,-0.215167 0.2454631,-0.287321 0.1082321,-0.07215 0.2390722,-0.108521 0.3917073,-0.108521 z m 9.1704997,0 c 0.199813,0 0.36055,0.05999 0.482658,0.179317 0.122106,0.119334 0.197039,0.267839 0.224792,0.445451 h -1.415417 c 0.03053,-0.177612 0.10546,-0.326117 0.224792,-0.445451 0.122109,-0.119332 0.283362,-0.179317 0.483175,-0.179317 z"
       style="font-size:4.16278px;font-family:Questrial;-inkscape-font-specification:'Questrial, Normal';letter-spacing:0px;word-spacing:0px;stroke-width:0.1;fill:none;stroke:#000000;stroke-opacity:1;stroke-dasharray:none" />
    <path
       id="path6696"
       d="m 42.521952,54.097473 v 2.914034 h 0.312126 v -1.198893 c 0,-0.124883 0.02769,-0.234822 0.0832,-0.329179 0.05828,-0.09713 0.13457,-0.172066 0.228927,-0.224792 0.09436,-0.05273 0.199701,-0.07906 0.316259,-0.07906 0.172062,0 0.312414,0.05862 0.420647,0.175183 0.108231,0.113782 0.162264,0.265006 0.162264,0.453719 v 1.203027 H 44.3575 v -1.211295 c 0,-0.197039 -0.03992,-0.362369 -0.120406,-0.495577 -0.07771,-0.135982 -0.180333,-0.237251 -0.307991,-0.303858 -0.124884,-0.06938 -0.259801,-0.103869 -0.40411,-0.103869 -0.169287,0 -0.307764,0.03449 -0.415995,0.103869 -0.108233,0.06938 -0.199989,0.153824 -0.274919,0.253731 v -1.157035 z m 8.063074,0 v 2.914034 h 0.312126 v -1.198893 c 0,-0.124883 0.02821,-0.234822 0.08372,-0.329179 0.05828,-0.09713 0.13457,-0.172066 0.228926,-0.224792 0.09436,-0.05273 0.199703,-0.07906 0.31626,-0.07906 0.172062,0 0.311897,0.05862 0.420129,0.175183 0.108233,0.113782 0.162781,0.265006 0.162781,0.453719 v 1.203027 h 0.312126 v -1.211295 c 0,-0.197039 -0.04044,-0.362369 -0.120923,-0.495577 -0.07771,-0.135982 -0.180333,-0.237251 -0.307992,-0.303858 -0.124883,-0.06938 -0.259283,-0.103869 -0.403593,-0.103869 -0.169285,0 -0.308279,0.03449 -0.416512,0.103869 -0.108232,0.06938 -0.199988,0.153824 -0.274918,0.253731 v -1.157035 z m 4.704106,0 v 2.914034 h 0.312125 v -2.914034 z m 2.476851,0 v 1.169955 c -0.07771,-0.113781 -0.178974,-0.204178 -0.303857,-0.270785 -0.122109,-0.06661 -0.269256,-0.09973 -0.441317,-0.09973 -0.202589,0 -0.380149,0.04859 -0.532784,0.145727 -0.14986,0.09436 -0.266594,0.223321 -0.34985,0.387057 -0.08325,0.160961 -0.12454,0.341239 -0.12454,0.541052 0,0.197038 0.04129,0.377316 0.12454,0.541052 0.08326,0.163736 0.19999,0.294059 0.34985,0.391191 0.152635,0.09436 0.330195,0.141593 0.532784,0.141593 0.172061,0 0.319208,-0.03313 0.441317,-0.09974 0.124883,-0.06661 0.226152,-0.155644 0.303857,-0.266651 v 0.333313 h 0.312126 v -2.914034 z m -16.376261,0.08733 v 0.745174 h -0.424781 v 0.274919 h 0.424781 v 1.806608 h 0.312125 v -1.806608 h 0.478524 V 54.92998 h -0.478524 v -0.745174 z m 4.542875,0.712102 c -0.117729,0.0026 -0.221083,0.02451 -0.309542,0.06614 -0.09158,0.04163 -0.167873,0.09294 -0.228927,0.153996 -0.06106,0.06105 -0.108293,0.122398 -0.141593,0.183451 -0.03053,0.05828 -0.05143,0.105514 -0.06253,0.141594 V 54.92998 h -0.312126 v 2.081527 h 0.312126 v -0.915706 c 0,-0.152635 0.02957,-0.295706 0.08785,-0.428915 0.06105,-0.135983 0.146859,-0.245923 0.257866,-0.329178 0.113782,-0.08603 0.248182,-0.128675 0.403593,-0.128675 h 0.03772 v -0.312125 h -0.02067 c -0.008,0 -0.01592,-1.74e-4 -0.02377,0 z m 1.230932,0 c -0.210913,0 -0.394426,0.04859 -0.549837,0.145727 -0.15541,0.09436 -0.274345,0.223321 -0.357601,0.387057 -0.08326,0.160961 -0.125057,0.341239 -0.125057,0.541052 0,0.197038 0.04316,0.377316 0.129191,0.541052 0.08881,0.163736 0.212335,0.294059 0.37052,0.391191 0.158186,0.09436 0.342541,0.141593 0.553455,0.141593 0.246991,0 0.44817,-0.05811 0.603581,-0.174666 0.158186,-0.119333 0.27356,-0.271916 0.345715,-0.457853 h -0.341581 c -0.0555,0.102679 -0.133154,0.187124 -0.233061,0.253731 -0.09991,0.06383 -0.223435,0.0956 -0.37052,0.0956 -0.138759,0 -0.260929,-0.02905 -0.366386,-0.08733 -0.105459,-0.06105 -0.189904,-0.141422 -0.253731,-0.241329 -0.06105,-0.102682 -0.100135,-0.214822 -0.116789,-0.33693 h 1.74408 v -0.125057 c 0,-0.199813 -0.04128,-0.380091 -0.12454,-0.541052 -0.08326,-0.163736 -0.202708,-0.292701 -0.358118,-0.387057 -0.152635,-0.09713 -0.335631,-0.145727 -0.549321,-0.145727 z m 2.139405,0 c -0.269193,0 -0.47309,0.05267 -0.611849,0.158129 -0.135984,0.102682 -0.204122,0.248471 -0.204122,0.437183 0,0.127659 0.03365,0.228928 0.100252,0.303857 0.0666,0.07216 0.152408,0.128906 0.257866,0.170533 0.105457,0.03885 0.216755,0.07063 0.333313,0.0956 0.119333,0.02497 0.231473,0.05131 0.33693,0.07906 0.105455,0.02498 0.191259,0.06134 0.257865,0.108521 0.06661,0.04718 0.100253,0.11344 0.100253,0.199471 0,0.06938 -0.01954,0.126649 -0.05839,0.171049 -0.03885,0.04441 -0.08745,0.07753 -0.145727,0.09974 -0.0555,0.0222 -0.113613,0.03715 -0.174667,0.04547 -0.06105,0.0083 -0.112369,0.01292 -0.153995,0.01292 -0.13321,0 -0.24179,-0.01954 -0.325045,-0.05839 -0.08326,-0.04163 -0.145442,-0.0943 -0.187069,-0.15813 -0.03885,-0.0666 -0.06247,-0.134742 -0.0708,-0.204122 h -0.324528 c 0.0083,0.122108 0.04689,0.236124 0.116272,0.341582 0.06938,0.102684 0.16929,0.18577 0.299724,0.249597 0.133208,0.06383 0.295821,0.0956 0.487308,0.0956 0.258092,0 0.463348,-0.05267 0.615984,-0.15813 0.15541,-0.108232 0.23306,-0.263533 0.23306,-0.466121 0,-0.130434 -0.03313,-0.233062 -0.09973,-0.307992 -0.0666,-0.07771 -0.152925,-0.13769 -0.258382,-0.179317 -0.105458,-0.04163 -0.217598,-0.0734 -0.336931,-0.0956 -0.116558,-0.02498 -0.227856,-0.04996 -0.333313,-0.07493 -0.105454,-0.02775 -0.191259,-0.0636 -0.257865,-0.108004 -0.06661,-0.0444 -0.100252,-0.108464 -0.100252,-0.19172 0,-0.199813 0.16533,-0.299723 0.495577,-0.299723 0.174836,0 0.299724,0.03178 0.374654,0.0956 0.07771,0.06383 0.122225,0.14012 0.133325,0.228926 h 0.31626 c -0.0111,-0.102682 -0.04695,-0.197998 -0.108004,-0.286804 -0.05828,-0.08881 -0.145959,-0.161024 -0.262516,-0.216524 -0.113783,-0.05828 -0.262289,-0.08733 -0.445451,-0.08733 z m 4.541841,0 c -0.210913,0 -0.394426,0.04859 -0.549837,0.145727 -0.15541,0.09436 -0.274346,0.223321 -0.357601,0.387057 -0.08326,0.160961 -0.125057,0.341239 -0.125057,0.541052 0,0.197038 0.0418,0.377316 0.125057,0.541052 0.08326,0.163736 0.202191,0.294059 0.357601,0.391191 0.155411,0.09436 0.338924,0.141593 0.549837,0.141593 0.21369,0 0.396686,-0.04724 0.549321,-0.141593 0.15541,-0.09713 0.274862,-0.227455 0.358118,-0.391191 0.08326,-0.163736 0.12454,-0.344014 0.12454,-0.541052 0,-0.199813 -0.04128,-0.380091 -0.12454,-0.541052 -0.08326,-0.163736 -0.202708,-0.292701 -0.358118,-0.387057 -0.152635,-0.09713 -0.335631,-0.145727 -0.549321,-0.145727 z m -6.681246,0.28267 c 0.199814,0 0.36055,0.05998 0.482658,0.179317 0.122107,0.119333 0.19704,0.26784 0.224793,0.445451 h -1.415418 c 0.03053,-0.177611 0.10546,-0.326118 0.224793,-0.445451 0.122108,-0.119333 0.283361,-0.179317 0.483174,-0.179317 z m 6.681246,0 c 0.15541,0 0.285734,0.03637 0.391191,0.10852 0.108229,0.07216 0.189956,0.167988 0.245463,0.287321 0.05551,0.119333 0.0832,0.251015 0.0832,0.395325 0,0.141534 -0.02769,0.273216 -0.0832,0.395325 -0.0555,0.119332 -0.13723,0.215165 -0.245463,0.28732 -0.105457,0.07216 -0.235781,0.108004 -0.391191,0.108004 -0.152635,0 -0.282958,-0.03585 -0.39119,-0.108004 -0.108229,-0.07215 -0.190473,-0.167988 -0.24598,-0.28732 -0.05551,-0.122109 -0.0832,-0.253791 -0.0832,-0.395325 0,-0.14431 0.02769,-0.275992 0.0832,-0.395325 0.0555,-0.119333 0.137747,-0.215166 0.24598,-0.287321 0.108232,-0.07215 0.238555,-0.10852 0.39119,-0.10852 z m 3.217892,0 c 0.15541,0 0.285733,0.03637 0.39119,0.10852 0.10823,0.07216 0.189957,0.167988 0.245463,0.287321 0.05551,0.119333 0.0832,0.251015 0.0832,0.395325 0,0.141534 -0.02769,0.273216 -0.0832,0.395325 -0.0555,0.119332 -0.137231,0.215165 -0.245463,0.28732 -0.105457,0.07216 -0.23578,0.108004 -0.39119,0.108004 -0.152635,0 -0.284834,-0.03585 -0.395842,-0.108004 -0.111006,-0.07215 -0.195451,-0.167988 -0.253731,-0.28732 -0.05828,-0.122109 -0.08733,-0.253791 -0.08733,-0.395325 0,-0.14431 0.02905,-0.275992 0.08733,-0.395325 0.05828,-0.119333 0.142723,-0.215166 0.253731,-0.287321 0.111008,-0.07215 0.243207,-0.10852 0.395842,-0.10852 z"
       style="font-size:4.16278px;font-family:Questrial;-inkscape-font-specification:'Questrial, Normal';letter-spacing:0px;word-spacing:0px;stroke-width:0.1;fill:none;stroke:#000000;stroke-opacity:1;stroke-dasharray:none" />
    <path
       id="path6783"
       d="m 50.955029,24.133927 v 0.407727 h 0.336931 v -0.407727 z m -1.119828,0.0124 v 0.745174 h -0.42478 v 0.274919 h 0.42478 v 1.806608 h 0.312126 V 25.166423 H 50.62585 V 24.891504 H 50.147327 V 24.14633 Z m -3.029272,0.712101 c -0.117729,0.0026 -0.221083,0.02452 -0.309542,0.06615 -0.09158,0.04163 -0.167874,0.09294 -0.228927,0.153996 -0.06106,0.06105 -0.108293,0.122398 -0.141593,0.183451 -0.03053,0.05828 -0.05091,0.105513 -0.06201,0.141593 v -0.512113 h -0.312642 v 2.081527 h 0.312642 v -0.915707 c 0,-0.152635 0.02905,-0.295706 0.08733,-0.428914 0.06105,-0.135984 0.146858,-0.245923 0.257866,-0.329179 0.113782,-0.08603 0.248699,-0.128674 0.404109,-0.128674 h 0.03721 V 24.858431 H 46.8297 c -0.008,0 -0.01592,-1.73e-4 -0.02377,0 z m 1.206127,0 c -0.202588,0 -0.380666,0.04808 -0.5333,0.145211 -0.149861,0.09436 -0.266078,0.223837 -0.349333,0.387573 -0.08326,0.160961 -0.125057,0.341239 -0.125057,0.541052 0,0.197038 0.0418,0.377317 0.125057,0.541052 0.08325,0.163736 0.199472,0.29406 0.349333,0.391191 0.152634,0.09436 0.330712,0.141594 0.5333,0.141594 0.172062,0 0.318693,-0.03313 0.4408,-0.09974 0.124884,-0.0666 0.226669,-0.155643 0.304375,-0.26665 v 0.333313 h 0.312125 v -2.081527 h -0.312125 v 0.33693 c -0.07771,-0.11378 -0.179491,-0.203661 -0.304375,-0.270267 -0.122107,-0.06661 -0.268738,-0.09974 -0.4408,-0.09974 z m 4.711858,0 c -0.210914,0 -0.39391,0.04808 -0.549321,0.145211 -0.15541,0.09436 -0.274862,0.223837 -0.358118,0.387573 -0.08325,0.160961 -0.12454,0.341239 -0.12454,0.541052 0,0.197038 0.04129,0.377317 0.12454,0.541052 0.08326,0.163736 0.202708,0.29406 0.358118,0.391191 0.155411,0.09436 0.338407,0.141594 0.549321,0.141594 0.213689,0 0.397202,-0.04724 0.549837,-0.141594 0.15541,-0.09713 0.274345,-0.227455 0.357601,-0.391191 0.08326,-0.163735 0.125057,-0.344014 0.125057,-0.541052 0,-0.199813 -0.0418,-0.380091 -0.125057,-0.541052 -0.08326,-0.163736 -0.202191,-0.293217 -0.357601,-0.387573 -0.152635,-0.09713 -0.336148,-0.145211 -0.549837,-0.145211 z m -1.756482,0.03307 v 2.081527 h 0.312125 v -2.081527 z m -2.914034,0.249597 c 0.15541,0 0.285734,0.03637 0.39119,0.108521 0.108229,0.07215 0.190473,0.167987 0.24598,0.287321 0.05551,0.119332 0.0832,0.251014 0.0832,0.395324 0,0.141535 -0.02769,0.273217 -0.0832,0.395325 -0.0555,0.119333 -0.137747,0.215166 -0.24598,0.287321 -0.105456,0.07215 -0.23578,0.108004 -0.39119,0.108004 -0.152636,0 -0.284318,-0.03585 -0.395325,-0.108004 -0.111007,-0.07216 -0.195968,-0.167988 -0.254248,-0.287321 -0.05828,-0.122108 -0.08733,-0.25379 -0.08733,-0.395325 0,-0.14431 0.02905,-0.275992 0.08733,-0.395324 0.05828,-0.119334 0.143241,-0.215167 0.254248,-0.287321 0.111007,-0.07215 0.242689,-0.108521 0.395325,-0.108521 z m 4.670516,0 c 0.15541,0 0.28625,0.03637 0.391707,0.108521 0.108229,0.07215 0.189956,0.167987 0.245463,0.287321 0.05551,0.119332 0.0832,0.251014 0.0832,0.395324 0,0.141535 -0.02769,0.273217 -0.0832,0.395325 -0.0555,0.119333 -0.137231,0.215166 -0.245463,0.287321 -0.105457,0.07215 -0.236297,0.108004 -0.391707,0.108004 -0.152636,0 -0.282959,-0.03585 -0.391191,-0.108004 -0.108229,-0.07216 -0.189956,-0.167988 -0.245463,-0.287321 -0.05551,-0.122108 -0.0832,-0.25379 -0.0832,-0.395325 0,-0.14431 0.02769,-0.275992 0.0832,-0.395324 0.0555,-0.119334 0.13723,-0.215167 0.245463,-0.287321 0.108232,-0.07215 0.238555,-0.108521 0.391191,-0.108521 z"
       style="font-size:4.16278px;font-family:Questrial;-inkscape-font-specification:'Questrial, Normal';letter-spacing:0px;word-spacing:0px;stroke-width:0.1;fill:none;stroke:#000000;stroke-opacity:1;stroke-dasharray:none" />
    <path
       id="path6804"
       d="m 9.5317179,54.097473 v 2.914034 h 0.3121257 v -2.914034 z m -2.6463501,0.799435 c -0.1177284,0.0026 -0.2205661,0.02451 -0.309025,0.06614 -0.091581,0.04163 -0.1678727,0.09294 -0.2289266,0.153996 -0.061054,0.06105 -0.1082915,0.122398 -0.1415934,0.183451 -0.030527,0.05828 -0.051428,0.105514 -0.062528,0.141594 V 54.92998 H 5.8311686 v 2.081527 h 0.3121257 v -0.915706 c 0,-0.152635 0.029054,-0.295706 0.087333,-0.428915 0.061054,-0.135983 0.1468581,-0.245923 0.2578654,-0.329178 0.1137826,-0.08603 0.2486995,-0.128675 0.4041097,-0.128675 h 0.037207 v -0.312125 h -0.02067 c -0.00798,0 -0.015923,-1.74e-4 -0.023771,0 z m 1.2309327,0 c -0.210914,0 -0.3939103,0.04859 -0.5493205,0.145727 -0.1554103,0.09436 -0.2748622,0.223321 -0.3581177,0.387057 -0.083255,0.160961 -0.125057,0.341239 -0.125057,0.541052 0,0.197038 0.04316,0.377316 0.1291911,0.541052 0.088806,0.163736 0.2123345,0.294059 0.37052,0.391191 0.1581855,0.09436 0.3425406,0.141593 0.5534546,0.141593 0.2469914,0 0.4481704,-0.05811 0.6035808,-0.174666 0.1581854,-0.119333 0.2735605,-0.271919 0.3457153,-0.457853 H 8.7452026 c -0.055504,0.102679 -0.1336709,0.187124 -0.2335774,0.253731 -0.099907,0.06383 -0.2229186,0.0956 -0.3700033,0.0956 -0.1387592,0 -0.2609289,-0.02905 -0.3663859,-0.08733 C 7.6697791,56.613012 7.5848172,56.53264 7.520988,56.432733 7.459934,56.330051 7.421367,56.217911 7.404716,56.095803 h 1.7440796 v -0.125057 c 0,-0.199813 -0.041802,-0.380091 -0.125057,-0.541052 C 8.9404831,55.265956 8.8210312,55.136991 8.6656209,55.042635 8.5129858,54.945503 8.3299896,54.896908 8.1163005,54.896908 Z m 3.1718995,0 c -0.210914,0 -0.39391,0.04859 -0.549321,0.145727 -0.15541,0.09436 -0.274862,0.223321 -0.358117,0.387057 -0.08326,0.160961 -0.12454,0.341239 -0.12454,0.541052 0,0.197038 0.04264,0.377316 0.128674,0.541052 0.08881,0.163736 0.212335,0.294059 0.37052,0.391191 0.158186,0.09436 0.343057,0.141593 0.553971,0.141593 0.246991,0 0.44817,-0.05811 0.603581,-0.174666 0.158185,-0.119333 0.273043,-0.271916 0.345199,-0.457853 h -0.341065 c -0.0555,0.102679 -0.133154,0.187124 -0.233061,0.253731 -0.09991,0.06383 -0.223435,0.0956 -0.37052,0.0956 -0.138759,0 -0.260928,-0.02905 -0.366386,-0.08733 -0.105459,-0.06105 -0.190421,-0.141422 -0.254248,-0.241329 -0.06105,-0.102682 -0.09962,-0.214822 -0.116272,-0.33693 h 1.74408 v -0.125057 c 0,-0.199813 -0.04129,-0.380091 -0.12454,-0.541052 -0.08325,-0.163736 -0.202707,-0.292701 -0.358118,-0.387057 C 11.685402,54.945507 11.501889,54.89691 11.2882,54.89691 Z m 2.293917,0 c -0.202589,0 -0.38015,0.04859 -0.532784,0.145727 -0.149861,0.09436 -0.266595,0.223321 -0.34985,0.387057 -0.08326,0.160961 -0.12454,0.341239 -0.12454,0.541052 0,0.197038 0.04129,0.377316 0.12454,0.541052 0.08325,0.163736 0.199989,0.294059 0.34985,0.391191 0.152634,0.09436 0.330195,0.141593 0.532784,0.141593 0.172062,0 0.319209,-0.03313 0.441316,-0.09974 0.124884,-0.06661 0.226153,-0.155644 0.303858,-0.266651 v 0.333313 h 0.312126 V 54.92998 h -0.312126 v 0.337448 c -0.0777,-0.113781 -0.178974,-0.204178 -0.303858,-0.270785 -0.122107,-0.06661 -0.269254,-0.09973 -0.441316,-0.09973 z m 2.322855,0 c -0.269193,0 -0.473089,0.05267 -0.611849,0.158129 -0.135983,0.102682 -0.204122,0.248471 -0.204122,0.437183 0,0.127659 0.03313,0.228928 0.09974,0.303857 0.06661,0.07216 0.152925,0.128906 0.258382,0.170533 0.105457,0.03885 0.216238,0.07063 0.332796,0.0956 0.119334,0.02497 0.231991,0.05131 0.337447,0.07906 0.105456,0.02498 0.191259,0.06134 0.257866,0.108521 0.06661,0.04718 0.100252,0.11344 0.100252,0.199471 0,0.06938 -0.01954,0.126649 -0.05839,0.171049 -0.03885,0.04441 -0.08745,0.07753 -0.145728,0.09974 -0.0555,0.0222 -0.11413,0.03715 -0.175183,0.04547 -0.06105,0.0083 -0.112369,0.01292 -0.153996,0.01292 -0.133209,0 -0.241272,-0.01954 -0.324528,-0.05839 -0.08326,-0.04163 -0.145442,-0.0943 -0.187068,-0.15813 -0.03885,-0.0666 -0.06247,-0.134742 -0.0708,-0.204122 h -0.325045 c 0.0083,0.122108 0.04741,0.236124 0.116789,0.341582 0.06938,0.102684 0.169289,0.18577 0.299723,0.249597 0.133209,0.06383 0.295304,0.0956 0.486792,0.0956 0.258092,0 0.463865,-0.05267 0.6165,-0.15813 0.155411,-0.108232 0.233061,-0.263533 0.233061,-0.466121 0,-0.130434 -0.03365,-0.233062 -0.100252,-0.307992 -0.0666,-0.07771 -0.152409,-0.13769 -0.257866,-0.179317 -0.105457,-0.04163 -0.218114,-0.0734 -0.337447,-0.0956 -0.116558,-0.02498 -0.227339,-0.04996 -0.332796,-0.07493 -0.105455,-0.02775 -0.191259,-0.0636 -0.257866,-0.108004 -0.06661,-0.0444 -0.100252,-0.108464 -0.100252,-0.19172 0,-0.199813 0.16533,-0.299723 0.495577,-0.299723 0.174837,0 0.299724,0.03178 0.374654,0.0956 0.07771,0.06383 0.122225,0.14012 0.133325,0.228926 h 0.31626 c -0.0111,-0.102682 -0.04747,-0.197998 -0.10852,-0.286804 -0.05828,-0.08881 -0.145442,-0.161024 -0.262,-0.216524 -0.113782,-0.05828 -0.262289,-0.08733 -0.445451,-0.08733 z m 2.185397,0 c -0.210914,0 -0.39391,0.04859 -0.549321,0.145727 -0.15541,0.09436 -0.274862,0.223321 -0.358117,0.387057 -0.08326,0.160961 -0.125057,0.341239 -0.125057,0.541052 0,0.197038 0.04316,0.377316 0.129191,0.541052 0.08881,0.163736 0.212334,0.294059 0.37052,0.391191 0.158185,0.09436 0.34254,0.141593 0.553454,0.141593 0.246991,0 0.44817,-0.05811 0.603581,-0.174666 0.158186,-0.119333 0.273561,-0.271916 0.345715,-0.457853 h -0.341581 c -0.0555,0.102679 -0.133154,0.187124 -0.233061,0.253731 -0.09991,0.06383 -0.223435,0.0956 -0.37052,0.0956 -0.138759,0 -0.260412,-0.02905 -0.365869,-0.08733 -0.105459,-0.06105 -0.190421,-0.141422 -0.254248,-0.241329 -0.06105,-0.102682 -0.09962,-0.214822 -0.116272,-0.33693 h 1.74408 v -0.125057 c 0,-0.199813 -0.0418,-0.380091 -0.125057,-0.541052 -0.08326,-0.163736 -0.202707,-0.292701 -0.358118,-0.387057 -0.152635,-0.09713 -0.335631,-0.145727 -0.54932,-0.145727 z m -9.9740685,0.28267 c 0.1998132,0 0.3610665,0.05998 0.4831746,0.179317 0.122108,0.119333 0.1970405,0.26784 0.2247925,0.445451 H 7.4088501 c 0.030527,-0.177611 0.1054596,-0.326118 0.2247925,-0.445451 0.1221081,-0.119333 0.2828446,-0.179317 0.4826579,-0.179317 z m 3.1718995,0 c 0.199813,0 0.361066,0.05998 0.483175,0.179317 0.122106,0.119333 0.197039,0.26784 0.224792,0.445451 H 10.58075 c 0.03053,-0.177611 0.105459,-0.326118 0.224792,-0.445451 0.122108,-0.119333 0.282845,-0.179317 0.482658,-0.179317 z m 2.335775,0 c 0.15541,0 0.285733,0.03637 0.39119,0.10852 0.108229,0.07216 0.189957,0.167988 0.245463,0.287321 0.05551,0.119333 0.0832,0.251015 0.0832,0.395325 0,0.141534 -0.02769,0.273216 -0.0832,0.395325 -0.0555,0.119332 -0.137231,0.215165 -0.245463,0.28732 -0.105457,0.07216 -0.23578,0.108004 -0.39119,0.108004 -0.152636,0 -0.284835,-0.03585 -0.395842,-0.108004 -0.111006,-0.07215 -0.195451,-0.167988 -0.253731,-0.28732 -0.05828,-0.122109 -0.08733,-0.253791 -0.08733,-0.395325 0,-0.14431 0.02905,-0.275992 0.08733,-0.395325 0.05828,-0.119333 0.142724,-0.215166 0.253731,-0.287321 0.111007,-0.07215 0.243206,-0.10852 0.395842,-0.10852 z m 4.466394,0 c 0.199813,0 0.360549,0.05998 0.482658,0.179317 0.122106,0.119333 0.197039,0.26784 0.224792,0.445451 h -1.414901 c 0.03053,-0.177611 0.10546,-0.326118 0.224793,-0.445451 0.122108,-0.119333 0.282845,-0.179317 0.482658,-0.179317 z"
       style="font-size:4.16278px;font-family:Questrial;-inkscape-font-specification:'Questrial, Normal';letter-spacing:0px;word-spacing:0px;stroke-width:0.1;fill:none;stroke:#000000;stroke-opacity:1;stroke-dasharray:none" />
    <path
       id="path6639"
       style="display:inline;fill:none;stroke:#000000;stroke-opacity:1;stroke-linejoin:round;font-weight:bold;font-size:5.64878px;font-family:'Rounded Mplus 1c Bold';-inkscape-font-specification:'Rounded Mplus 1c Bold, Bold';stroke-width:0.1;stroke-dasharray:none"
       d="M 12.741858 76.437712 C 12.575042 76.441463 12.428155 76.473294 12.301058 76.533313 C 12.165487 76.597332 12.029935 76.705139 11.894364 76.855774 C 11.890564 76.859507 11.886729 76.860942 11.882996 76.860942 C 11.879262 76.860942 11.877828 76.859507 11.877828 76.855774 L 11.877828 76.815983 C 11.874062 76.725602 11.840045 76.65041 11.776025 76.590157 C 11.712006 76.526137 11.634895 76.494039 11.544515 76.494039 L 11.476302 76.494039 C 11.389688 76.494039 11.314496 76.526137 11.250476 76.590157 C 11.186456 76.654176 11.154358 76.729368 11.154358 76.815983 L 11.154358 80.352201 C 11.154358 80.438816 11.186456 80.514007 11.250476 80.578027 C 11.314495 80.642047 11.389688 80.674146 11.476302 80.674146 L 11.589473 80.674146 C 11.676088 80.674146 11.749362 80.642047 11.809615 80.578027 C 11.873635 80.514007 11.905733 80.438816 11.905733 80.352201 L 11.905733 79.132121 C 11.905733 79.128387 11.907684 79.126436 11.911418 79.126436 C 11.915218 79.126436 11.919053 79.128387 11.922786 79.132121 C 12.163801 79.369369 12.448335 79.487655 12.775964 79.487655 C 13.111125 79.487655 13.387469 79.352102 13.605888 79.080961 C 13.828073 78.806054 13.939201 78.433415 13.939201 77.962683 C 13.939201 77.476889 13.833828 77.10233 13.622941 76.838721 C 13.412053 76.571346 13.129954 76.437712 12.775964 76.437712 C 12.764667 76.437712 12.752979 76.437462 12.741858 76.437712 z M 18.320846 76.437712 C 17.893098 76.445578 17.564177 76.575628 17.334342 76.827352 C 17.097094 77.087196 16.978292 77.465592 16.978292 77.962683 C 16.978292 78.463541 17.110524 78.843855 17.374133 79.103699 C 17.641509 79.359776 18.021823 79.487655 18.515149 79.487655 C 18.7411 79.487655 18.959519 79.465152 19.170406 79.419958 C 19.253258 79.404895 19.318857 79.365639 19.36781 79.301619 C 19.42053 79.233834 19.446875 79.156724 19.446875 79.070109 C 19.446875 78.99856 19.416695 78.942037 19.356441 78.90061 C 19.299953 78.85919 19.238191 78.847677 19.170406 78.866504 C 18.963284 78.922991 18.774529 78.951253 18.605066 78.951253 C 18.333925 78.951253 18.127017 78.89473 17.983915 78.781755 C 17.844577 78.665013 17.761712 78.480612 17.735352 78.2283 C 17.727818 78.194407 17.741249 78.17714 17.775142 78.17714 L 19.317167 78.17714 C 19.407547 78.17714 19.486577 78.147477 19.554362 78.087223 C 19.622115 78.026969 19.654213 77.951261 19.65048 77.860881 C 19.627885 76.911887 19.198205 76.437712 18.362187 76.437712 C 18.348182 76.437712 18.334644 76.437458 18.320846 76.437712 z M 21.331514 76.437712 C 21.092986 76.441463 20.839154 76.473294 20.570837 76.533313 C 20.487987 76.548376 20.420469 76.591986 20.367749 76.663538 C 20.315029 76.731323 20.288684 76.808433 20.288684 76.895048 C 20.288684 76.966596 20.316947 77.025038 20.373433 77.070231 C 20.429921 77.111651 20.4922 77.123164 20.559985 77.104338 C 20.876317 77.025255 21.143584 76.985482 21.362004 76.985482 C 21.572891 76.985482 21.719438 77.021418 21.802287 77.092969 C 21.885135 77.160754 21.926827 77.280958 21.926827 77.454187 L 21.926827 77.499662 C 21.926827 77.533556 21.910077 77.550305 21.876184 77.550305 L 21.644157 77.550305 C 21.128235 77.550305 20.744084 77.640846 20.491772 77.821606 C 20.243226 78.002367 20.119185 78.256205 20.119185 78.583834 C 20.119185 78.85121 20.202051 79.069628 20.367749 79.239091 C 20.537212 79.404788 20.749875 79.487655 21.005953 79.487655 C 21.405133 79.487655 21.719848 79.335352 21.949565 79.030318 C 21.949565 79.026585 21.9534 79.024634 21.960933 79.024634 C 21.964667 79.024634 21.966101 79.026585 21.966101 79.030318 L 21.966101 79.109383 C 21.969866 79.199763 22.003884 79.276874 22.067904 79.340894 C 22.131924 79.401147 22.209034 79.431327 22.299414 79.431327 L 22.361943 79.431327 C 22.448557 79.431327 22.521831 79.399229 22.582084 79.335209 C 22.646104 79.27119 22.678202 79.195998 22.678202 79.109383 L 22.678202 77.606632 C 22.678202 77.17356 22.581906 76.870356 22.389848 76.697127 C 22.197789 76.523898 21.861086 76.437712 21.379057 76.437712 C 21.363287 76.437712 21.347416 76.437462 21.331514 76.437712 z M 24.88892 76.437712 C 24.620666 76.44592 24.379142 76.581737 24.1639 76.844405 C 24.1639 76.848138 24.160064 76.85009 24.152531 76.85009 C 24.148798 76.85009 24.146847 76.848138 24.146847 76.844405 L 24.146847 76.804614 C 24.143081 76.717999 24.109064 76.644726 24.045044 76.584473 C 23.984791 76.524219 23.911517 76.494039 23.824902 76.494039 L 23.745837 76.494039 C 23.659223 76.494039 23.583515 76.526137 23.519495 76.590157 C 23.459241 76.654176 23.429578 76.729368 23.429578 76.815983 L 23.429578 79.109383 C 23.429578 79.195997 23.459241 79.271189 23.519495 79.335209 C 23.583515 79.399229 23.659223 79.431327 23.745837 79.431327 L 23.858492 79.431327 C 23.945106 79.431327 24.020815 79.399229 24.084835 79.335209 C 24.148855 79.27119 24.180436 79.195998 24.180436 79.109383 L 24.180436 77.414913 C 24.180436 77.324532 24.229802 77.233992 24.327714 77.143612 C 24.425626 77.053232 24.523324 77.008219 24.621236 77.008219 C 24.771872 77.008219 24.873407 77.053232 24.926127 77.143612 C 24.982614 77.230226 25.010876 77.408872 25.010876 77.680013 L 25.010876 79.109383 C 25.010876 79.195997 25.041057 79.271189 25.10131 79.335209 C 25.165329 79.399229 25.240522 79.431327 25.327136 79.431327 L 25.423254 79.431327 C 25.509868 79.431327 25.58506 79.399229 25.64908 79.335209 C 25.7131 79.27119 25.745199 79.195998 25.745199 79.109383 L 25.745199 77.414913 C 25.745199 77.324532 25.794048 77.233992 25.89196 77.143612 C 25.989872 77.053232 26.088086 77.008219 26.185999 77.008219 C 26.336634 77.008219 26.43817 77.051313 26.490889 77.137927 C 26.543609 77.224542 26.569954 77.405107 26.569954 77.680013 L 26.569954 79.109383 C 26.569954 79.195997 26.602053 79.271189 26.666073 79.335209 C 26.730092 79.399229 26.805284 79.431327 26.891899 79.431327 L 26.988017 79.431327 C 27.074632 79.431327 27.147905 79.399229 27.208158 79.335209 C 27.272178 79.27119 27.304277 79.195998 27.304277 79.109383 L 27.304277 77.567358 C 27.304277 77.153115 27.23484 76.861423 27.095504 76.69196 C 26.959933 76.522496 26.735759 76.437712 26.423193 76.437712 C 26.125692 76.437712 25.858424 76.58234 25.621175 76.87231 C 25.617375 76.876044 25.61354 76.877995 25.609806 76.877995 C 25.602273 76.877995 25.598437 76.876044 25.598437 76.87231 C 25.519355 76.710379 25.426896 76.597333 25.321452 76.533313 C 25.219774 76.469293 25.084221 76.437712 24.914758 76.437712 C 24.90605 76.437712 24.897573 76.437447 24.88892 76.437712 z M 29.643152 76.437712 C 29.476337 76.441463 29.329449 76.473294 29.202352 76.533313 C 29.066781 76.597332 28.931229 76.705139 28.795658 76.855774 C 28.791858 76.859507 28.788023 76.860942 28.78429 76.860942 C 28.780556 76.860942 28.778605 76.859507 28.778605 76.855774 L 28.778605 76.815983 C 28.77484 76.725602 28.741339 76.65041 28.677319 76.590157 C 28.6133 76.526137 28.535673 76.494039 28.445292 76.494039 L 28.377596 76.494039 C 28.290982 76.494039 28.21579 76.526137 28.15177 76.590157 C 28.08775 76.654176 28.055652 76.729368 28.055652 76.815983 L 28.055652 80.352201 C 28.055652 80.438816 28.08775 80.514007 28.15177 80.578027 C 28.215789 80.642047 28.290981 80.674146 28.377596 80.674146 L 28.490767 80.674146 C 28.577383 80.674146 28.650656 80.642047 28.710909 80.578027 C 28.774929 80.514007 28.807027 80.438816 28.807027 80.352201 L 28.807027 79.132121 C 28.807027 79.128387 28.808978 79.126436 28.812712 79.126436 C 28.816512 79.126436 28.820347 79.128387 28.82408 79.132121 C 29.065095 79.369369 29.349113 79.487655 29.676742 79.487655 C 30.011902 79.487655 30.288762 79.352102 30.507182 79.080961 C 30.729367 78.806054 30.840495 78.433415 30.840495 77.962683 C 30.840495 77.476889 30.735123 77.10233 30.524235 76.838721 C 30.313347 76.571346 30.030731 76.437712 29.676742 76.437712 C 29.665444 76.437712 29.654273 76.437462 29.643152 76.437712 z M 14.871444 76.494039 C 14.78483 76.494039 14.709638 76.526137 14.645618 76.590157 C 14.581598 76.654176 14.5495 76.729368 14.5495 76.815983 L 14.5495 79.109383 C 14.5495 79.195997 14.581598 79.271189 14.645618 79.335209 C 14.709637 79.399229 14.784829 79.431327 14.871444 79.431327 L 15.01252 79.431327 C 15.099135 79.431327 15.174326 79.399229 15.238346 79.335209 C 15.302366 79.27119 15.334465 79.195998 15.334465 79.109383 L 15.334465 78.10376 C 15.334465 77.478627 15.667848 77.140004 16.334403 77.087284 C 16.413487 77.079751 16.481522 77.047653 16.538009 76.991166 C 16.594495 76.934679 16.622758 76.866644 16.622758 76.787561 C 16.622758 76.708477 16.594495 76.640959 16.538009 76.584473 C 16.481521 76.524219 16.413486 76.497874 16.334403 76.505408 C 16.123516 76.528003 15.929521 76.588363 15.752527 76.686275 C 15.575532 76.780422 15.432306 76.902544 15.323096 77.053178 C 15.323096 77.056911 15.319777 77.058862 15.312244 77.058862 C 15.30851 77.058862 15.306559 77.056911 15.306559 77.053178 L 15.306559 76.815983 C 15.306559 76.729369 15.274461 76.654177 15.210441 76.590157 C 15.146422 76.526137 15.07123 76.494039 14.984615 76.494039 L 14.871444 76.494039 z M 18.373556 76.962744 C 18.731308 76.962744 18.917628 77.188837 18.932694 77.640739 C 18.932694 77.670866 18.917863 77.685697 18.887736 77.685697 L 17.780827 77.685697 C 17.7507 77.685697 17.735352 77.670866 17.735352 77.640739 C 17.761713 77.403491 17.82591 77.232002 17.927588 77.126558 C 18.033032 77.017349 18.181498 76.962744 18.373556 76.962744 z M 12.549622 77.002535 C 12.982694 77.002535 13.199194 77.322489 13.199194 77.962683 C 13.199194 78.279015 13.141269 78.51802 13.024528 78.679952 C 12.907787 78.841883 12.749212 78.922831 12.549622 78.922831 C 12.376392 78.922831 12.22409 78.864389 12.092285 78.747648 C 11.964247 78.630907 11.900049 78.497274 11.900049 78.346639 L 11.900049 77.578727 C 11.900049 77.428093 11.964247 77.294459 12.092285 77.177718 C 12.22409 77.060977 12.376392 77.002535 12.549622 77.002535 z M 29.450916 77.002535 C 29.883988 77.002535 30.100488 77.322489 30.100488 77.962683 C 30.100488 78.279015 30.042047 78.51802 29.925305 78.679952 C 29.808564 78.841883 29.650505 78.922831 29.450916 78.922831 C 29.277686 78.922831 29.125384 78.864389 28.993579 78.747648 C 28.86554 78.630907 28.801343 78.497274 28.801343 78.346639 L 28.801343 77.578727 C 28.801343 77.428093 28.86554 77.294459 28.993579 77.177718 C 29.125384 77.060977 29.277686 77.002535 29.450916 77.002535 z M 21.644157 78.01901 L 21.876184 78.01901 C 21.910077 78.01901 21.926827 78.036277 21.926827 78.07017 L 21.926827 78.171456 C 21.926827 78.404939 21.860711 78.589857 21.728906 78.725427 C 21.597101 78.857232 21.424211 78.922831 21.209558 78.922831 C 21.100348 78.922831 21.009808 78.885494 20.938257 78.810177 C 20.870472 78.73486 20.836454 78.636645 20.836454 78.516138 C 20.836454 78.184743 21.10564 78.01901 21.644157 78.01901 z " />
    <path
       id="path6579"
       style="display:inline;fill:none;stroke:#000000;stroke-opacity:1;stroke-linejoin:miter;color:#000000;stroke-width:0.01539535;stroke-dasharray:none"
       d="M 278.4883 -251.32029 L 278.4883 -251.06388 C 278.37257 -251.09854 278.24997 -251.11718 278.12305 -251.11718 C 277.44005 -251.11718 276.88159 -250.57784 276.85093 -249.90233 L 276.52736 -249.90233 L 276.52736 -249.89064 L 276.52736 -249.78713 L 276.85085 -249.78713 C 276.88052 -249.11072 277.43939 -248.5703 278.12305 -248.5703 C 278.24997 -248.5703 278.37257 -248.58894 278.4883 -248.6236 L 278.4883 -248.3613 L 278.50588 -248.3613 L 278.60358 -248.3613 L 278.60358 -248.66426 C 279.06844 -248.85413 279.39645 -249.31111 279.39645 -249.84378 C 279.39645 -250.37645 279.06844 -250.83335 278.60358 -251.02322 L 278.60358 -251.32029 L 278.4883 -251.32029 z M 278.12305 -250.99808 C 278.25071 -250.99808 278.37353 -250.97735 278.4883 -250.93913 L 278.4883 -250.41405 L 277.9746 -250.41405 L 277.9746 -250.69338 L 277.86131 -250.69338 L 277.86131 -250.67778 L 277.86131 -249.84951 L 277.63966 -249.97752 L 277.40926 -250.11038 L 277.40926 -249.90233 L 276.97026 -249.90233 C 277.00073 -250.51287 277.50492 -250.99808 278.12305 -250.99808 z M 278.60358 -250.89362 C 279.00126 -250.71142 279.27735 -250.31004 279.27735 -249.84378 C 279.27735 -249.37752 279.00126 -248.97709 278.60358 -248.79545 L 278.60358 -249.3047 L 278.6035 -249.3047 L 278.6035 -249.38871 L 277.9746 -249.38863 L 277.9746 -250.30076 L 278.6035 -250.30076 L 278.6035 -250.38477 L 278.60358 -250.38477 L 278.60358 -250.89362 z M 277.86131 -249.83932 L 277.86131 -248.99609 L 277.9746 -248.99609 L 277.9746 -249.27343 L 278.4883 -249.27343 L 278.4883 -248.75018 C 278.37353 -248.71208 278.25071 -248.69139 278.12305 -248.69139 C 277.50428 -248.69139 276.99961 -249.17581 276.9701 -249.78713 L 277.40926 -249.78713 L 277.40926 -249.5783 L 277.4317 -249.59134 L 277.63966 -249.7114 L 277.86131 -249.83932 z "
       transform="matrix(6.4954674,0,0,6.4954674,-1757.3536,1693.9077)" />
    <path
       style="display:inline;fill:none;stroke:#000000;stroke-opacity:1;stroke-linejoin:round;stroke-width:0.1;stroke-dasharray:none"
       d="m 4.2495329,81.463979 c -0.0944,0.01273 -0.1439061,0.0023 -0.1765181,-0.03702 -0.02658,-0.03203 -0.03651,-0.08972 -0.02401,-0.139518 0.01177,-0.0467 0.05594,-0.109149 0.09824,-0.138783 0.04232,-0.02962 0.212469,-0.148486 0.378119,-0.264121 0.165652,-0.115631 0.401281,-0.301964 0.523621,-0.414068 0.122346,-0.112101 0.319867,-0.325596 0.438946,-0.474426 0.119084,-0.148832 0.2875221,-0.406213 0.3743161,-0.571959 0.08679,-0.165748 0.1996059,-0.432677 0.2506909,-0.593177 0.07028,-0.220809 0.09724,-0.388818 0.110774,-0.690416 0.01356,-0.301895 0.0038,-0.461881 -0.04013,-0.65945 -0.03191,-0.143468 -0.104305,-0.353452 -0.160862,-0.46663 -0.05656,-0.113184 -0.1725229,-0.283294 -0.2577029,-0.378036 -0.0946,-0.105226 -0.2376221,-0.212994 -0.3675161,-0.276941 -0.1169459,-0.05757 -0.293162,-0.114225 -0.391577,-0.125878 -0.09842,-0.01164 -0.2759449,-0.0023 -0.394512,0.02087 -0.11857,0.02313 -0.318089,0.09574 -0.443384,0.161345 -0.125296,0.06561 -0.263172,0.156922 -0.306388,0.202923 -0.07858,0.08365 -0.07858,0.08365 -0.0028,0.08365 0.04166,0 0.133186,0.02395 0.203392,0.05324 0.0702,0.02928 0.1797391,0.102673 0.243413,0.163077 0.06368,0.06041 0.144443,0.171636 0.179487,0.247166 0.03744,0.08069 0.06403,0.215961 0.06448,0.327993 5.19e-4,0.137132 -0.02405,0.240445 -0.08759,0.367945 -0.0523,0.104944 -0.145309,0.219172 -0.2279679,0.279959 -0.07679,0.05648 -0.2185721,0.118557 -0.3150591,0.137943 -0.107066,0.02152 -0.2252149,0.02358 -0.303193,0.0053 -0.07027,-0.01649 -0.197235,-0.0707 -0.282143,-0.120451 -0.08491,-0.04976 -0.1989839,-0.155768 -0.253504,-0.235575 -0.05451,-0.07981 -0.118705,-0.205156 -0.142636,-0.27855 -0.02639,-0.08093 -0.03722,-0.229537 -0.02751,-0.377648 0.01205,-0.184706 0.04535,-0.306945 0.136519,-0.501695 0.06629,-0.141619 0.188318,-0.333621 0.27117,-0.426672 0.08285,-0.09308 0.262457,-0.242199 0.3991191,-0.331414 0.1366639,-0.08922 0.3685329,-0.203327 0.515266,-0.253584 0.1814019,-0.06213 0.3711739,-0.09755 0.5929409,-0.110692 0.241849,-0.01433 0.383832,-0.0047 0.549307,0.03699 0.122739,0.03097 0.323578,0.1062 0.4463141,0.167187 0.1468419,0.07296 0.3116339,0.199024 0.481884,0.368619 0.1985599,0.197797 0.2921129,0.325594 0.4022959,0.549553 0.07897,0.1605 0.1699011,0.399965 0.2020831,0.532142 0.03546,0.145639 0.05901,0.382347 0.05978,0.600806 7.78e-4,0.230242 -0.02138,0.459716 -0.06143,0.635139 -0.03448,0.151058 -0.1057131,0.382797 -0.1582771,0.514976 -0.05257,0.132171 -0.15238,0.340743 -0.22181,0.463478 -0.06943,0.122738 -0.2078699,0.331303 -0.307644,0.463479 -0.09977,0.132172 -0.303276,0.360256 -0.4522239,0.506841 -0.1489461,0.146541 -0.3922901,0.357314 -0.5407631,0.468341 -0.148474,0.111018 -0.399064,0.266724 -0.556866,0.345999 -0.157804,0.07927 -0.345953,0.152054 -0.4181079,0.16173 z m 4.094464,-1.843792 c -0.111181,-6.9e-5 -0.20668,-0.02319 -0.27105,-0.06562 -0.05466,-0.03604 -0.131021,-0.115484 -0.169677,-0.176535 -0.04496,-0.07101 -0.07029,-0.168814 -0.07029,-0.271419 0,-0.104638 0.02588,-0.202283 0.07445,-0.280872 0.04095,-0.06627 0.126311,-0.148401 0.189705,-0.182538 0.08675,-0.04672 0.163978,-0.05803 0.312254,-0.04574 0.169806,0.01409 0.214117,0.03346 0.320973,0.140311 0.108811,0.108809 0.125539,0.14832 0.136764,0.323124 0.01001,0.156612 -0.0022,0.223052 -0.05745,0.311043 -0.03864,0.06154 -0.1206,0.142593 -0.182134,0.180113 -0.07235,0.04412 -0.172547,0.06818 -0.283551,0.06813 z m 0,-2.301573 c -0.01888,-7.8e-4 -0.09613,-0.02319 -0.17166,-0.0499 -0.07553,-0.02672 -0.171559,-0.08809 -0.213397,-0.136367 -0.04185,-0.04828 -0.09264,-0.149334 -0.1128991,-0.224562 -0.02546,-0.09453 -0.02603,-0.176914 -0.0019,-0.266729 0.01925,-0.07147 0.08919,-0.182482 0.1554341,-0.246687 0.103358,-0.100182 0.148508,-0.118542 0.318232,-0.129438 0.155162,-0.01005 0.221907,0.0024 0.309683,0.05754 0.06154,0.03865 0.143501,0.1206 0.182134,0.182135 0.05511,0.08778 0.0675,0.15452 0.05754,0.309681 -0.01082,0.169604 -0.02929,0.214905 -0.129113,0.317904 -0.06403,0.06606 -0.171177,0.135325 -0.238104,0.15392 -0.06692,0.0186 -0.137133,0.03321 -0.156015,0.03249 z"
       id="path14142"
       sodipodi:nodetypes="sssssssssssssssssssssscsssssssssssssssssscsssssssssssssssssssssssssssssssssss" />
  </g>
</svg>
