<?xml version="1.0" encoding="UTF-8" standalone="no"?>
<svg
   width="62mm"
   height="117mm"
   viewBox="0 0 62 117"
   version="1.1"
   id="svg8"
   inkscape:version="1.2.2 (b0a8486541, 2022-12-01)"
   sodipodi:docname="bass_distortion_front_freecad.svg"
   inkscape:export-filename="/home/yann/_dev/98 - Graphics/graphics-pedals/Shining Pig/shining_pig_front_9V.png"
   inkscape:export-xdpi="96"
   inkscape:export-ydpi="96"
   xmlns:inkscape="http://www.inkscape.org/namespaces/inkscape"
   xmlns:sodipodi="http://sodipodi.sourceforge.net/DTD/sodipodi-0.dtd"
   xmlns="http://www.w3.org/2000/svg"
   xmlns:svg="http://www.w3.org/2000/svg"
   xmlns:rdf="http://www.w3.org/1999/02/22-rdf-syntax-ns#"
   xmlns:cc="http://creativecommons.org/ns#"
   xmlns:dc="http://purl.org/dc/elements/1.1/">
  <defs
     id="defs2" />
  <sodipodi:namedview
     id="base"
     pagecolor="#ffffff"
     bordercolor="#666666"
     borderopacity="1.0"
     inkscape:pageopacity="0"
     inkscape:pageshadow="2"
     inkscape:zoom="5.6568543"
     inkscape:cx="34.294679"
     inkscape:cy="131.87541"
     inkscape:document-units="mm"
     inkscape:current-layer="layer6"
     inkscape:document-rotation="0"
     showgrid="true"
     inkscape:window-width="3836"
     inkscape:window-height="2113"
     inkscape:window-x="0"
     inkscape:window-y="881"
     inkscape:window-maximized="1"
     showborder="true"
     inkscape:showpageshadow="false"
     inkscape:pagecheckerboard="true"
     inkscape:deskcolor="#d1d1d1">
    <sodipodi:guide
       position="-2.0168617,58.500093"
       orientation="0,117.16536"
       id="guide1967"
       inkscape:locked="false" />
    <sodipodi:guide
       position="31.001653,138.8865"
       orientation="-221.10236,0"
       id="guide1969"
       inkscape:locked="false" />
    <inkscape:grid
       type="xygrid"
       id="grid1973"
       visible="true"
       enabled="true"
       originx="31.000001"
       originy="58.500002"
       dotted="false" />
  </sodipodi:namedview>
  <metadata
     id="metadata5">
    <rdf:RDF>
      <cc:Work
         rdf:about="">
        <dc:format>image/svg+xml</dc:format>
        <dc:type
           rdf:resource="http://purl.org/dc/dcmitype/StillImage" />
      </cc:Work>
    </rdf:RDF>
  </metadata>
  <g
     inkscape:groupmode="layer"
     id="layer6"
     inkscape:label="Controls">
    <path
       id="path2914"
       d="M 30.384192 3.2768026 C 30.316529 3.2787318 30.253931 3.2950271 30.196606 3.3258952 C 30.135458 3.3588208 30.086299 3.4041836 30.049845 3.4618042 C 30.013392 3.5182486 29.995585 3.5832002 29.995585 3.6561076 C 29.995585 3.7301906 30.013015 3.7958909 30.048295 3.8535116 C 30.083572 3.9099559 30.131466 3.9544275 30.191439 3.9873535 C 30.252587 4.0191035 30.319553 4.0354126 30.39246 4.0354126 C 30.458311 4.0354126 30.518201 4.0199945 30.572294 3.9894206 C 30.627565 3.9576703 30.669131 3.9177439 30.697351 3.8695312 C 30.697351 3.9577256 30.686101 4.0375784 30.663761 4.1093099 C 30.642593 4.1810414 30.609369 4.2380256 30.563509 4.2803589 C 30.518824 4.3226922 30.459684 4.3439209 30.386776 4.3439209 C 30.343264 4.3439209 30.307509 4.3364706 30.279289 4.3211833 C 30.251069 4.3047206 30.228576 4.2842405 30.212109 4.2607218 C 30.196823 4.2360279 30.185203 4.2115192 30.176969 4.1868245 L 30.029175 4.1868245 C 30.039755 4.2326855 30.058455 4.2780483 30.085502 4.3227336 C 30.113727 4.3662431 30.152387 4.4019986 30.201774 4.4302205 C 30.251163 4.4584425 30.312692 4.4725952 30.386776 4.4725952 C 30.533767 4.4725952 30.644455 4.4188907 30.718538 4.3118815 C 30.792622 4.2048723 30.829643 4.0593192 30.829643 3.8746989 C 30.829643 3.683023 30.793513 3.5353133 30.720605 3.4318319 C 30.647698 3.3283504 30.539915 3.2768026 30.397628 3.2768026 C 30.393071 3.2768026 30.388703 3.276674 30.384192 3.2768026 z M 30.910775 3.2907552 L 31.383614 4.4586426 L 31.535026 4.4586426 L 32.007865 3.2907552 L 31.863171 3.2907552 L 31.459578 4.3087809 L 31.055469 3.2907552 L 30.910775 3.2907552 z M 30.388326 3.4054769 C 30.391381 3.4053942 30.394541 3.4054769 30.397628 3.4054769 C 30.448194 3.4054769 30.493557 3.4167239 30.533537 3.4390666 C 30.57469 3.4602332 30.606652 3.4901783 30.630172 3.5289836 C 30.654865 3.5677893 30.667379 3.613152 30.667379 3.6648926 C 30.667379 3.7131051 30.654865 3.7559369 30.630172 3.7935669 C 30.606658 3.8300209 30.574697 3.8586999 30.533537 3.8798665 C 30.492377 3.8998572 30.447014 3.9098389 30.397628 3.9098389 C 30.348241 3.9098391 30.302879 3.8985918 30.261719 3.8762492 C 30.221739 3.8539065 30.18926 3.8239615 30.164567 3.7863322 C 30.139874 3.7475263 30.127877 3.7043202 30.127877 3.6561076 C 30.127877 3.606719 30.139874 3.5629962 30.164567 3.5253662 C 30.18926 3.4877362 30.221739 3.4581662 30.261719 3.4369995 C 30.300306 3.4171558 30.342508 3.4067171 30.388326 3.4054769 z "
       style="font-size:1.76389px;font-family:Questrial;-inkscape-font-specification:'Questrial, Normal';letter-spacing:0px;word-spacing:0px;stroke-width:0.1;fill:none;stroke:#000000;stroke-opacity:1;stroke-dasharray:none" />
    <path
       style="display:inline;fill:none;stroke:#000000;stroke-opacity:1;stroke-linejoin:round;stroke-width:0.1;stroke-dasharray:none"
       d="m 4.2495329,80.405645 c -0.0944,0.01273 -0.1439061,0.0023 -0.1765181,-0.03702 -0.02658,-0.03203 -0.03651,-0.08972 -0.02401,-0.139518 0.01177,-0.0467 0.05594,-0.109149 0.09824,-0.138783 0.04232,-0.02962 0.212469,-0.148486 0.378119,-0.264121 0.165652,-0.115631 0.401281,-0.301964 0.523621,-0.414068 0.122346,-0.112101 0.319867,-0.325596 0.438946,-0.474426 0.119084,-0.148832 0.2875221,-0.406213 0.3743161,-0.571959 0.08679,-0.165748 0.1996059,-0.432677 0.2506909,-0.593177 0.07028,-0.220809 0.09724,-0.388818 0.110774,-0.690416 0.01356,-0.301895 0.0038,-0.461881 -0.04013,-0.65945 -0.03191,-0.143468 -0.104305,-0.353452 -0.160862,-0.46663 -0.05656,-0.113184 -0.1725229,-0.283294 -0.2577029,-0.378036 -0.0946,-0.105226 -0.2376221,-0.212994 -0.3675161,-0.276941 -0.1169459,-0.05757 -0.293162,-0.114225 -0.391577,-0.125878 -0.09842,-0.01164 -0.2759449,-0.0023 -0.394512,0.02087 -0.11857,0.02313 -0.318089,0.09574 -0.443384,0.161345 -0.125296,0.06561 -0.263172,0.156922 -0.306388,0.202923 -0.07858,0.08365 -0.07858,0.08365 -0.0028,0.08365 0.04166,0 0.133186,0.02395 0.203392,0.05324 0.0702,0.02928 0.1797391,0.102673 0.243413,0.163077 0.06368,0.06041 0.144443,0.171636 0.179487,0.247166 0.03744,0.08069 0.06403,0.215961 0.06448,0.327993 5.19e-4,0.137132 -0.02405,0.240445 -0.08759,0.367945 -0.0523,0.104944 -0.145309,0.219172 -0.2279679,0.279959 -0.07679,0.05648 -0.2185721,0.118557 -0.3150591,0.137943 -0.107066,0.02152 -0.2252149,0.02358 -0.303193,0.0053 -0.07027,-0.01649 -0.197235,-0.0707 -0.282143,-0.120451 -0.08491,-0.04976 -0.1989839,-0.155768 -0.253504,-0.235575 -0.05451,-0.07981 -0.118705,-0.205156 -0.142636,-0.27855 -0.02639,-0.08093 -0.03722,-0.229537 -0.02751,-0.377648 0.01205,-0.184706 0.04535,-0.306945 0.136519,-0.501695 0.06629,-0.141619 0.188318,-0.333621 0.27117,-0.426672 0.08285,-0.09308 0.262457,-0.242199 0.3991191,-0.331414 0.1366639,-0.08922 0.3685329,-0.203327 0.515266,-0.253584 0.1814019,-0.06213 0.3711739,-0.09755 0.5929409,-0.110692 0.241849,-0.01433 0.383832,-0.0047 0.549307,0.03699 0.122739,0.03097 0.323578,0.1062 0.4463141,0.167187 0.1468419,0.07296 0.3116339,0.199024 0.481884,0.368619 0.1985599,0.197797 0.2921129,0.325594 0.4022959,0.549553 0.07897,0.1605 0.1699011,0.399965 0.2020831,0.532142 0.03546,0.145639 0.05901,0.382347 0.05978,0.600806 7.78e-4,0.230242 -0.02138,0.459716 -0.06143,0.635139 -0.03448,0.151058 -0.1057131,0.382797 -0.1582771,0.514976 -0.05257,0.132171 -0.15238,0.340743 -0.22181,0.463478 -0.06943,0.122738 -0.2078699,0.331303 -0.307644,0.463479 -0.09977,0.132172 -0.303276,0.360256 -0.4522239,0.506841 -0.1489461,0.146541 -0.3922901,0.357314 -0.5407631,0.468341 -0.148474,0.111018 -0.399064,0.266724 -0.556866,0.345999 -0.157804,0.07927 -0.345953,0.152054 -0.4181079,0.16173 z m 4.094464,-1.843792 c -0.111181,-6.9e-5 -0.20668,-0.02319 -0.27105,-0.06562 -0.05466,-0.03604 -0.131021,-0.115484 -0.169677,-0.176535 -0.04496,-0.07101 -0.07029,-0.168814 -0.07029,-0.271419 0,-0.104638 0.02588,-0.202283 0.07445,-0.280872 0.04095,-0.06627 0.126311,-0.148401 0.189705,-0.182538 0.08675,-0.04672 0.163978,-0.05803 0.312254,-0.04574 0.169806,0.01409 0.214117,0.03346 0.320973,0.140311 0.108811,0.108809 0.125539,0.14832 0.136764,0.323124 0.01001,0.156612 -0.0022,0.223052 -0.05745,0.311043 -0.03864,0.06154 -0.1206,0.142593 -0.182134,0.180113 -0.07235,0.04412 -0.172547,0.06818 -0.283551,0.06813 z m 0,-2.301573 c -0.01888,-7.8e-4 -0.09613,-0.02319 -0.17166,-0.0499 -0.07553,-0.02672 -0.171559,-0.08809 -0.213397,-0.136367 -0.04185,-0.04828 -0.09264,-0.149334 -0.1128991,-0.224562 -0.02546,-0.09453 -0.02603,-0.176914 -0.0019,-0.266729 0.01925,-0.07147 0.08919,-0.182482 0.1554341,-0.246687 0.103358,-0.100182 0.148508,-0.118542 0.318232,-0.129438 0.155162,-0.01005 0.221907,0.0024 0.309683,0.05754 0.06154,0.03865 0.143501,0.1206 0.182134,0.182135 0.05511,0.08778 0.0675,0.15452 0.05754,0.309681 -0.01082,0.169604 -0.02929,0.214905 -0.129113,0.317904 -0.06403,0.06606 -0.171177,0.135325 -0.238104,0.15392 -0.06692,0.0186 -0.137133,0.03321 -0.156015,0.03249 z"
       id="path14142"
       sodipodi:nodetypes="sssssssssssssssssssssscsssssssssssssssssscsssssssssssssssssssssssssssssssssss" />
    <path
       id="path2893"
       d="M 13.340788 74.17325 C 13.254173 74.17325 13.178465 74.205349 13.114445 74.269368 C 13.050425 74.333388 13.018844 74.40858 13.018844 74.495194 L 13.018844 75.766435 C 13.018844 75.770168 13.016893 75.771602 13.013159 75.771602 C 13.009359 75.771602 13.005524 75.770168 13.00179 75.766435 C 12.75701 75.532952 12.474394 75.416069 12.154297 75.416069 C 11.800307 75.416069 11.516289 75.549702 11.301636 75.817078 C 11.090748 76.080687 10.984859 76.455245 10.984859 76.94104 C 10.984859 77.411772 11.095987 77.784928 11.318172 78.059835 C 11.540357 78.330977 11.819136 78.466528 12.154297 78.466528 C 12.496989 78.466528 12.792519 78.327139 13.041064 78.048466 C 13.044864 78.044733 13.0487 78.042782 13.052433 78.042782 C 13.056167 78.042782 13.058118 78.044733 13.058118 78.048466 L 13.063802 78.08774 C 13.067569 78.17812 13.099667 78.255231 13.15992 78.31925 C 13.22394 78.379504 13.30105 78.409684 13.391431 78.409684 L 13.453442 78.409684 C 13.540056 78.409684 13.615765 78.377586 13.679785 78.313566 C 13.743805 78.249546 13.775387 78.174355 13.775387 78.08774 L 13.775387 74.495194 C 13.775387 74.408581 13.743805 74.333388 13.679785 74.269368 C 13.615766 74.205349 13.540057 74.17325 13.453442 74.17325 L 13.340788 74.17325 z M 15.075049 74.17325 C 14.988435 74.17325 14.912726 74.205349 14.848706 74.269368 C 14.784686 74.333388 14.752588 74.40858 14.752588 74.495194 L 14.752588 74.529301 C 14.752588 74.615915 14.784686 74.691107 14.848706 74.755127 C 14.912725 74.819147 14.988434 74.851245 15.075049 74.851245 L 15.22181 74.851245 C 15.308424 74.851245 15.383616 74.819147 15.447636 74.755127 C 15.511656 74.691108 15.543754 74.615916 15.543754 74.529301 L 15.543754 74.495194 C 15.543754 74.408581 15.511656 74.333388 15.447636 74.269368 C 15.383617 74.205349 15.308424 74.17325 15.22181 74.17325 L 15.075049 74.17325 z M 20.074227 74.512248 C 19.987613 74.512248 19.911904 74.544346 19.847884 74.608366 C 19.787631 74.672385 19.75745 74.747577 19.75745 74.834192 L 19.75745 75.534408 C 19.75745 75.568301 19.740701 75.585567 19.706807 75.585567 L 19.435506 75.585567 C 19.360187 75.585567 19.296507 75.611912 19.243787 75.664632 C 19.191067 75.717354 19.164722 75.781035 19.164722 75.856352 C 19.164722 75.93167 19.191067 75.997786 19.243787 76.054272 C 19.296509 76.106992 19.360189 76.133337 19.435506 76.133337 L 19.706807 76.133337 C 19.740701 76.133337 19.75745 76.148686 19.75745 76.178813 L 19.75745 77.393209 C 19.75745 77.796155 19.83124 78.076335 19.978109 78.234501 C 20.124977 78.388901 20.380733 78.466528 20.746021 78.466528 C 20.828869 78.466528 20.953427 78.458857 21.119124 78.443791 C 21.198209 78.43626 21.263808 78.400324 21.316528 78.336304 C 21.373015 78.268518 21.401278 78.193327 21.401278 78.110478 C 21.401278 78.038929 21.373015 77.982406 21.316528 77.940979 C 21.260041 77.899552 21.194442 77.882803 21.119124 77.890336 C 21.073934 77.897869 21.0059 77.901188 20.915519 77.901188 C 20.74982 77.901188 20.640611 77.865769 20.587891 77.794218 C 20.535171 77.722667 20.508826 77.564609 20.508826 77.319828 L 20.508826 76.178813 C 20.508826 76.148686 20.526092 76.133337 20.559985 76.133337 L 21.203874 76.133337 C 21.279192 76.133337 21.342873 76.106992 21.395593 76.054272 C 21.45208 75.997785 21.480343 75.931669 21.480343 75.856352 C 21.480343 75.781033 21.45208 75.717352 21.395593 75.664632 C 21.342871 75.611912 21.27919 75.585567 21.203874 75.585567 L 20.559985 75.585567 C 20.526092 75.585567 20.508826 75.568301 20.508826 75.534408 L 20.508826 74.834192 C 20.508826 74.747578 20.476727 74.672386 20.412708 74.608366 C 20.348688 74.544346 20.273496 74.512248 20.186882 74.512248 L 20.074227 74.512248 z M 17.605644 75.416069 C 17.210229 75.416069 16.910863 75.493179 16.707507 75.647579 C 16.507917 75.798213 16.407784 76.008957 16.407784 76.280098 C 16.407784 76.521113 16.49065 76.717026 16.656348 76.86766 C 16.825811 77.018293 17.108428 77.137096 17.503841 77.22371 C 17.67707 77.268901 17.795872 77.319669 17.859892 77.376156 C 17.927677 77.432644 17.961178 77.509754 17.961178 77.607666 C 17.961178 77.811022 17.790206 77.912557 17.447514 77.912557 C 17.229094 77.912557 16.997246 77.879056 16.752466 77.811271 C 16.68468 77.792438 16.620483 77.801516 16.560229 77.839176 C 16.503743 77.876835 16.47548 77.931439 16.47548 78.002991 C 16.47548 78.093371 16.501825 78.174319 16.554545 78.24587 C 16.607267 78.313658 16.675301 78.357268 16.75815 78.376095 C 17.021759 78.436348 17.279951 78.466528 17.532263 78.466528 C 17.920146 78.466528 18.215675 78.39082 18.419031 78.240186 C 18.622387 78.089552 18.723922 77.878807 18.723922 77.607666 C 18.723922 77.325228 18.642974 77.110646 18.481042 76.963778 C 18.322877 76.81691 18.027348 76.700026 17.594275 76.613411 C 17.439876 76.579518 17.330666 76.532588 17.266646 76.472335 C 17.202626 76.412082 17.170528 76.336889 17.170528 76.246509 C 17.170528 76.058216 17.340097 75.963839 17.679024 75.963839 C 17.912507 75.963839 18.134762 75.990184 18.34565 76.042904 C 18.417202 76.061737 18.480883 76.050741 18.53737 76.009314 C 18.593856 75.964124 18.622119 75.905682 18.622119 75.834131 C 18.622119 75.747517 18.595774 75.671808 18.543054 75.607788 C 18.494098 75.539999 18.428499 75.498825 18.34565 75.483765 C 18.10087 75.438571 17.854189 75.416069 17.605644 75.416069 z M 15.075049 75.472396 C 14.988435 75.472396 14.912726 75.504494 14.848706 75.568514 C 14.784686 75.632533 14.752588 75.707725 14.752588 75.79434 L 14.752588 78.08774 C 14.752588 78.174355 14.784686 78.249546 14.848706 78.313566 C 14.912725 78.377586 14.988434 78.409684 15.075049 78.409684 L 15.22181 78.409684 C 15.308424 78.409684 15.383616 78.377586 15.447636 78.313566 C 15.511656 78.249546 15.543754 78.174355 15.543754 78.08774 L 15.543754 75.79434 C 15.543754 75.707726 15.511656 75.632534 15.447636 75.568514 C 15.383617 75.504494 15.308424 75.472396 15.22181 75.472396 L 15.075049 75.472396 z M 12.380123 75.980892 C 12.557118 75.980892 12.709938 76.039333 12.837976 76.156075 C 12.966015 76.272816 13.030212 76.40645 13.030212 76.557084 L 13.030212 77.325513 C 13.030212 77.476147 12.966015 77.609781 12.837976 77.726522 C 12.709938 77.843264 12.557118 77.901188 12.380123 77.901188 C 12.180533 77.901188 12.022475 77.822159 11.905733 77.663993 C 11.788992 77.502061 11.73055 77.261137 11.73055 76.94104 C 11.73055 76.300845 11.94705 75.980892 12.380123 75.980892 z "
       style="display:inline;fill:none;stroke:#000000;stroke-opacity:1;stroke-linejoin:round;font-weight:bold;font-size:5.64878px;font-family:'Rounded Mplus 1c Bold';-inkscape-font-specification:'Rounded Mplus 1c Bold, Bold';stroke-width:0.1;stroke-dasharray:none" />
    <path
       id="path17749"
       style="display:inline;fill:none;stroke:#000000;stroke-opacity:1;stroke-linejoin:round;stroke-width:4.13379273;stroke-dasharray:none"
       d="M -387.03637 -595.02169 L -388.55307 -593.50499 L -390.06976 -591.98829 L -390.06976 -202.41013 L -390.06976 187.18941 L -388.74532 188.68474 L -387.42088 190.18008 L 2.3922699 190.22281 L 392.20542 190.26553 L 393.70076 188.74883 L 395.21746 187.23213 L 395.21746 -202.3674 L 395.21746 -591.98829 L 393.70076 -593.50499 L 392.20542 -595.02169 L 2.5845276 -595.02169 L -387.03637 -595.02169 z M -259.88995 -591.86012 L -259.88995 -528.351 L -259.88995 -464.84187 L -323.39907 -464.84187 L -386.90819 -464.84187 L -386.63049 -528.07329 L -386.35278 -591.30471 L -323.12136 -591.58242 L -259.88995 -591.86012 z M -129.94511 -591.86012 L -129.26153 -563.53416 L -128.55658 -535.22955 L -127.55257 -507.18129 L -126.54856 -479.13303 L -126.54856 -471.97677 L -126.52719 -464.84187 L -191.12578 -464.84187 L -255.72436 -464.84187 L -256.23705 -466.16632 L -256.72837 -467.49076 L -256.45067 -529.39774 L -256.17296 -591.30471 L -193.06972 -591.58242 L -129.94511 -591.86012 z M 265.03764 -591.86012 L 328.29042 -591.58242 L 391.52184 -591.30471 L 391.79954 -528.07329 L 392.05589 -464.84187 L 326.81644 -464.84187 L 261.55564 -464.84187 L 262.28195 -484.68714 L 263.00825 -504.53241 L 264.01226 -538.92517 L 264.99491 -573.31794 L 265.01628 -582.58903 L 265.03764 -591.86012 z M -125.48046 -591.83876 L -62.612192 -591.83876 L 0.23471137 -591.83876 L 0.8969323 -576.22316 L 1.5377913 -560.62893 L 2.6272515 -537.87844 L 3.6953498 -515.10658 L 5.2334114 -493.93687 L 6.7928349 -472.78853 L 7.348246 -468.8152 L 7.9036571 -464.84187 L -57.122167 -464.84187 L -122.12663 -464.84187 L -122.74613 -472.51082 L -123.36562 -480.17977 L -124.41236 -512.20135 L -125.48046 -544.22294 L -125.48046 -568.04153 L -125.48046 -591.83876 z M 4.6993622 -591.83876 L 67.674437 -591.83876 L 130.64951 -591.83876 L 130.62815 -576.22316 L 130.62815 -560.62893 L 129.58141 -540.50596 L 128.53468 -520.40435 L 126.93253 -498.1879 L 125.30902 -475.9501 L 124.68952 -470.39599 L 124.04866 -464.84187 L 67.695799 -464.84187 L 11.321572 -464.84187 L 10.680713 -470.93003 L 10.039854 -477.0182 L 8.4377062 -498.70059 L 6.8569208 -520.40435 L 5.7888225 -541.04001 L 4.7207242 -561.67567 L 4.7207242 -576.75721 L 4.6993622 -591.83876 z M 135.0928 -591.83876 L 197.96107 -591.83876 L 260.80797 -591.83876 L 260.80797 -567.22978 L 260.82933 -542.62079 L 259.73987 -510.34286 L 258.67177 -478.06493 L 258.07364 -471.46408 L 257.4755 -464.84187 L 192.4924 -464.84187 L 127.5093 -464.84187 L 128.00063 -467.7471 L 128.51332 -470.67369 L 130.07274 -492.89014 L 131.65352 -515.10658 L 132.70026 -534.6955 L 133.747 -554.26306 L 134.40922 -573.06159 L 135.0928 -591.83876 z M 6.1519759 -461.6803 L 7.0278165 -460.82582 L 7.8822951 -459.94998 L 12.133326 -416.09387 L 16.384357 -372.23775 L 19.011879 -345.91981 L 21.639401 -319.60187 L 21.639401 -319.19599 L 21.639401 -318.79011 L 10.253473 -319.00373 L -1.1324544 -319.23872 L -11.172578 -319.55915 L -21.234064 -319.87957 L -68.209027 -321.95169 L -115.18399 -324.0238 L -115.48306 -324.32286 L -115.76076 -324.62193 L -118.51646 -381.23114 L -121.27215 -437.86171 L -121.52849 -449.50398 L -121.78484 -461.14625 L -57.80575 -461.4026 L 6.1519759 -461.6803 z M 129.17554 -461.6803 L 193.13326 -461.4026 L 257.11235 -461.14625 L 256.79192 -446.8551 L 256.47149 -432.56394 L 253.92942 -380.8039 L 251.38734 -329.0225 L 250.02018 -328.16802 L 248.63165 -327.29218 L 245.76915 -327.27082 L 242.90664 -327.24945 L 210.84233 -324.66466 L 178.79938 -322.07986 L 159.74451 -321.01176 L 140.68964 -319.9223 L 127.08206 -319.21735 L 113.47449 -318.53377 L 114.13671 -323.682 L 114.79893 -328.8516 L 118.51592 -366.93999 L 122.25426 -405.04973 L 124.83906 -432.49986 L 127.42386 -459.94998 L 128.2997 -460.80446 L 129.17554 -461.6803 z M 12.453756 -461.65894 L 67.781247 -461.65894 L 123.10874 -461.65894 L 123.53598 -460.86855 L 123.98458 -460.07816 L 123.06601 -450.55072 L 122.16881 -441.02328 L 116.23019 -380.1844 L 110.31292 -319.32416 L 110.07794 -319.06782 L 109.8216 -318.79011 L 78.163162 -318.4056 L 46.504729 -318.02108 L 35.823746 -318.44832 L 25.164125 -318.8542 L 20.614027 -365.12422 L 16.063928 -411.39424 L 13.756836 -436.02458 L 11.449743 -460.65493 L 11.962431 -461.16762 L 12.453756 -461.65894 z M -386.35278 -461.14625 L -323.37771 -461.14625 L -260.42399 -461.14625 L -260.14629 -396.31269 L -259.86858 -331.50048 L -272.32261 -331.65002 L -284.75527 -331.82091 L -307.50577 -332.63267 L -330.25626 -333.46579 L -358.58223 -334.19209 L -386.90819 -334.9184 L -386.63049 -398.02165 L -386.35278 -461.14625 z M -256.17296 -461.14625 L -191.10442 -461.14625 L -126.01451 -461.14625 L -125.26684 -446.8551 L -124.54053 -432.56394 L -122.38297 -386.52891 L -120.22541 -340.49387 L -119.60592 -332.29088 L -118.98642 -324.08788 L -122.48978 -324.21605 L -126.01451 -324.34423 L -173.63033 -326.77949 L -221.26751 -329.19339 L -238.72024 -330.09059 L -256.17296 -330.96644 L -256.17296 -396.05634 L -256.17296 -461.14625 z M 261.34202 -461.14625 L 326.43193 -461.14625 L 391.52184 -461.14625 L 391.79954 -398.04301 L 392.05589 -334.9184 L 366.91285 -334.23482 L 341.76982 -333.55123 L 319.55338 -332.46177 L 297.31557 -331.39367 L 277.21396 -329.85561 L 257.11235 -328.33891 L 256.04425 -328.31755 L 254.97615 -328.31755 L 255.36067 -336.79825 L 255.74518 -345.27895 L 258.5436 -403.2126 L 261.34202 -461.14625 z M -386.88683 -330.43239 L -363.0896 -330.43239 L -339.27101 -330.43239 L -307.24942 -329.38565 L -275.22784 -328.31755 L -267.55889 -327.69805 L -259.88995 -327.07856 L -259.88995 -262.0741 L -259.88995 -197.091 L -261.21439 -197.24053 L -262.53883 -197.39006 L -285.28932 -199.24855 L -308.03982 -201.10705 L -331.85841 -202.26059 L -355.677 -203.41414 L -371.27124 -204.055 L -386.88683 -204.71722 L -386.88683 -267.56412 L -386.88683 -330.43239 z M 349.18242 -330.43239 L 370.60847 -330.43239 L 392.05589 -330.43239 L 392.05589 -267.56412 L 392.05589 -204.71722 L 377.48703 -204.07636 L 362.93953 -203.4355 L 344.95275 -202.34604 L 326.96598 -201.25658 L 307.9111 -199.12038 L 288.85623 -197.00555 L 271.4035 -194.39939 L 253.92942 -191.81459 L 251.47279 -191.23782 L 249.03753 -190.66104 L 249.67839 -206.83205 L 250.29788 -223.00306 L 252.43408 -273.28913 L 254.59164 -323.55383 L 255.31794 -324.25878 L 256.04425 -324.96372 L 280.39689 -326.65132 L 304.72817 -328.31755 L 326.96598 -329.36429 L 349.18242 -330.43239 z M -256.17296 -326.73677 L -244.01801 -326.45906 L -231.84168 -326.18135 L -175.74516 -323.46839 L -119.67 -320.73405 L -119.37093 -320.43499 L -119.07187 -320.13592 L -117.06384 -274.22905 L -115.03446 -228.30083 L -114.30815 -205.80668 L -113.56048 -183.33389 L -116.08119 -183.46206 L -118.6019 -183.56887 L -131.82496 -184.97876 L -145.04802 -186.36729 L -200.03372 -191.72914 L -255.01942 -197.091 L -255.8739 -197.94547 L -256.72837 -198.79995 L -256.45067 -262.75768 L -256.17296 -326.73677 z M 251.53688 -324.38695 L 250.87466 -316.03442 L 250.2338 -307.68189 L 248.61029 -267.99136 L 246.96542 -228.30083 L 246.21775 -209.26732 L 245.47008 -190.21244 L 224.83442 -186.83725 L 204.19876 -183.48342 L 181.4269 -180.25777 L 158.67641 -177.01075 L 143.87257 -175.47269 L 129.04736 -173.91326 L 116.08065 -173.16559 L 103.11394 -172.43929 L 103.11394 -179.25375 L 103.11394 -186.04686 L 104.73745 -210.89083 L 106.3396 -235.71343 L 108.39034 -260.06607 L 110.46245 -284.39735 L 111.616 -297.62041 L 112.76955 -310.86483 L 113.19679 -313.02238 L 113.62403 -315.17994 L 140.92462 -316.48302 L 168.20385 -317.7861 L 201.01583 -320.3709 L 233.82781 -322.97706 L 242.67166 -323.682 L 251.53688 -324.38695 z M -114.37223 -320.56316 L -74.681703 -318.70467 L -34.99117 -316.82481 L -6.6652036 -316.05578 L 21.660763 -315.28675 L 22.152088 -313.06511 L 22.643413 -310.86483 L 25.313659 -280.16768 L 28.005267 -249.47054 L 29.543328 -227.93767 L 31.102752 -206.40481 L 31.807697 -189.57158 L 32.534004 -172.73835 L 22.045278 -172.93061 L 11.577915 -173.12287 L 6.2801477 -173.46466 L 0.98238017 -173.82782 L -22.302163 -175.42996 L -45.565343 -177.03211 L -75.728439 -179.68099 L -105.89153 -182.32988 L -108.28407 -182.84256 L -110.65525 -183.37661 L -110.65525 -194.69846 L -110.65525 -206.04166 L -111.8088 -234.11128 L -112.94098 -262.18091 L -114.28679 -290.74185 L -115.61123 -319.32416 L -114.99173 -319.94366 L -114.37223 -320.56316 z M 25.86907 -315.09449 L 67.674437 -315.09449 L 109.4798 -315.09449 L 109.4798 -313.38554 L 109.4798 -311.69794 L 106.85228 -282.68839 L 104.24612 -253.70021 L 102.66534 -232.01781 L 101.08455 -210.31405 L 100.46505 -195.48885 L 99.845558 -180.68501 L 99.311509 -176.17763 L 98.756097 -171.69162 L 67.695799 -171.69162 L 36.614139 -171.69162 L 36.037366 -178.29247 L 35.460593 -184.91468 L 34.862458 -197.60368 L 34.264323 -210.31405 L 32.662175 -232.5305 L 31.08139 -254.7683 L 28.47523 -283.32925 L 25.86907 -311.91156 L 25.86907 -313.49235 L 25.86907 -315.09449 z M -386.88683 -200.25257 L -372.74521 -200.25257 L -358.62495 -200.25257 L -337.028 -199.18447 L -315.45242 -198.11637 L -293.74866 -196.51422 L -272.06627 -194.93344 L -265.97811 -194.29258 L -259.88995 -193.63036 L -259.88995 -137.27749 L -259.88995 -80.903264 L -265.44406 -80.283767 L -270.99817 -79.642908 L -293.21461 -78.040761 L -315.45242 -76.417251 L -335.55403 -75.370515 L -355.677 -74.323779 L -371.27124 -74.323779 L -386.88683 -74.323779 L -386.88683 -137.29885 L -386.88683 -200.25257 z M 361.89279 -200.25257 L 376.97434 -200.25257 L 392.05589 -200.25257 L 392.05589 -137.29885 L 392.05589 -74.323779 L 373.79141 -74.45195 L 355.52693 -74.580122 L 337.77513 -75.947288 L 320.02334 -77.335816 L 305.4972 -79.066135 L 290.97107 -80.817816 L 276.67991 -82.868565 L 262.41012 -84.940676 L 255.93744 -86.07286 L 249.48613 -87.183682 L 248.88799 -112.64715 L 248.31122 -138.08925 L 248.88799 -162.74095 L 249.48613 -187.39266 L 255.93744 -188.50349 L 262.41012 -189.61431 L 280.93094 -192.22047 L 299.45177 -194.84799 L 309.8764 -195.98017 L 320.32241 -197.11236 L 341.1076 -198.69314 L 361.89279 -200.25257 z M -255.12623 -193.58763 L -240.83507 -192.19911 L -226.54392 -190.81058 L -170.29786 -185.29919 L -114.05181 -179.80917 L -113.28277 -159.19487 L -112.51374 -138.58057 L -113.28277 -116.77 L -114.05181 -94.959438 L -114.20134 -94.809904 L -114.37223 -94.66037 L -169.93471 -89.213069 L -225.49718 -83.765767 L -237.13945 -82.740393 L -248.78172 -81.715019 L -252.11419 -81.266417 L -255.46802 -80.839178 L -256.08752 -81.458675 L -256.70701 -82.078172 L -256.70701 -137.40566 L -256.70701 -192.73315 L -255.91662 -193.16039 L -255.12623 -193.58763 z M 244.25245 -186.49546 L 244.85058 -186.49546 L 245.47008 -186.49546 L 245.47008 -137.29885 L 245.47008 -88.080885 L 243.35524 -88.166332 L 241.24041 -88.25178 L 223.23227 -91.306541 L 205.2455 -94.382664 L 183.5631 -97.522873 L 161.85934 -100.68444 L 146.52145 -102.26523 L 131.1622 -103.86738 L 117.93914 -104.55096 L 104.71609 -105.2559 L 103.39164 -106.92214 L 102.0672 -108.58837 L 102.0672 -137.96107 L 102.0672 -167.33378 L 103.3062 -168.08145 L 104.54519 -168.85048 L 123.66415 -170.26037 L 142.80447 -171.67026 L 164.35869 -174.38323 L 185.93428 -177.0962 L 215.09336 -181.79583 L 244.25245 -186.49546 z M -110.14257 -179.08286 L -107.49368 -179.08286 L -104.8448 -179.0615 L -95.317361 -178.05748 L -85.789925 -177.07483 L -60.390547 -174.93864 L -34.99117 -172.78108 L -20.700015 -171.7557 L -6.40886 -170.73033 L 6.8141968 -170.13219 L 20.037254 -169.5127 L 26.659463 -168.93592 L 33.26031 -168.33779 L 33.26031 -137.27749 L 33.26031 -106.19583 L 28.774298 -105.64042 L 24.266923 -105.10637 L 9.4630806 -104.48687 L -5.3621237 -103.86738 L -26.531832 -102.30795 L -47.70154 -100.72717 L -59.856498 -99.680432 L -72.032819 -98.612334 L -88.972858 -97.05291 L -105.89153 -95.493487 L -108.00637 -95.493487 L -110.14257 -95.493487 L -110.14257 -137.27749 L -110.14257 -179.08286 z M 36.443243 -168.50869 L 67.674437 -168.50869 L 98.884269 -168.50869 L 98.884269 -137.29885 L 98.884269 -106.06766 L 67.674437 -106.06766 L 36.443243 -106.06766 L 36.443243 -137.29885 L 36.443243 -168.50869 z M 67.48218 -157.87043 A 20.262991 20.262991 0 0 0 47.209674 -137.61928 A 20.262991 20.262991 0 0 0 67.48218 -117.34678 A 20.262991 20.262991 0 0 0 87.733323 -137.61928 A 20.262991 20.262991 0 0 0 67.48218 -157.87043 z M 37.468618 -102.88473 L 66.905406 -102.88473 L 96.363557 -102.88473 L 98.029791 -101.56028 L 99.696024 -100.25721 L 100.40097 -87.012786 L 101.08455 -73.789729 L 102.6867 -58.451838 L 104.28885 -43.092585 L 106.91637 -24.57176 L 109.54389 -6.050936 L 113.21815 15.823717 L 116.87104 37.69837 L 116.87104 39.10826 L 116.87104 40.518149 L 67.674437 40.518149 L 18.456468 40.518149 L 18.456468 39.898652 L 18.456468 39.279155 L 23.134739 10.20552 L 27.834371 -18.889477 L 30.568703 -40.379615 L 33.303034 -61.891115 L 34.435219 -80.006061 L 35.588765 -98.121008 L 36.528691 -100.51355 L 37.468618 -102.88473 z M 103.11394 -102.13706 L 115.03392 -101.43211 L 126.93253 -100.70581 L 142.80447 -99.125021 L 158.67641 -97.522873 L 184.07579 -93.869977 L 209.47517 -90.195719 L 227.22696 -87.183682 L 244.95739 -84.171645 L 245.38463 -83.744405 L 245.81187 -83.317166 L 246.98678 -61.07936 L 248.18305 -38.862915 L 250.83193 -4.4701506 L 253.48082 29.922614 L 254.35666 39.450051 L 255.2325 48.977488 L 254.59164 49.554261 L 253.95078 50.131034 L 244.42334 49.362003 L 234.89591 48.57161 L 200.50314 45.901365 L 166.08901 43.209757 L 143.87257 42.034849 L 121.65612 40.859941 L 121.20752 40.411339 L 120.73756 39.962738 L 116.25155 12.726232 L 111.76553 -14.531636 L 109.05256 -35.167295 L 106.31823 -55.802954 L 104.73745 -74.323779 L 103.1353 -92.844603 L 103.1353 -97.480149 L 103.11394 -102.13706 z M 18.905069 -101.83799 L 25.719537 -101.83799 L 32.512642 -101.83799 L 31.786335 -89.405326 L 31.060028 -76.972662 L 29.457881 -61.613409 L 27.877095 -46.275518 L 25.270935 -27.220644 L 22.664775 -8.1657706 L 18.69145 16.165508 L 14.739486 40.518149 L -4.3153873 41.265818 L -23.348899 42.013487 L -63.039431 43.636996 L -102.72996 45.281868 L -110.93296 45.922727 L -119.13595 46.542224 L -119.13595 43.871978 L -119.13595 41.201732 L -117.02112 15.973251 L -114.92765 -9.2338689 L -113.36822 -31.984362 L -111.78744 -54.734856 L -111.06113 -72.977975 L -110.33482 -91.221093 L -107.06644 -91.755143 L -103.7767 -92.26783 L -86.323974 -93.869977 L -68.849886 -95.450763 L -49.816374 -97.031548 L -30.761501 -98.633696 L -5.9175348 -100.23584 L 18.905069 -101.83799 z M -114.47904 -91.17837 L -114.07317 -90.772492 L -113.66729 -90.366615 L -114.88492 -66.206232 L -116.10255 -42.045848 L -117.55517 -22.456926 L -119.00778 -2.8893651 L -120.86627 20.672883 L -122.7034 44.213769 L -123.38698 45.30323 L -124.04921 46.39269 L -154.12685 47.930751 L -184.22586 49.468813 L -217.93504 51.07096 L -251.64423 52.673108 L -253.48136 52.673108 L -255.29712 52.673108 L -256.00207 51.968163 L -256.70701 51.263218 L -256.70701 -12.523612 L -256.70701 -76.310441 L -255.703 -76.929938 L -254.69899 -77.549435 L -226.3303 -80.219681 L -197.98297 -82.889927 L -156.22033 -87.034148 L -114.47904 -91.17837 z M 249.42204 -82.783117 L 251.83594 -82.783117 L 254.22848 -82.783117 L 271.06171 -80.198319 L 287.89494 -77.592159 L 306.88573 -75.477325 L 325.89788 -73.36249 L 341.76982 -72.294392 L 357.64176 -71.204932 L 374.83814 -70.521349 L 392.05589 -69.837766 L 392.05589 -6.9908625 L 392.05589 55.856041 L 365.33207 55.706507 L 338.60825 55.535611 L 321.13416 54.681133 L 303.68143 53.805292 L 281.55044 52.181783 L 259.39808 50.579635 L 259.03493 50.19512 L 258.67177 49.831966 L 255.57429 11.29498 L 252.4768 -27.220644 L 251.34462 -48.390352 L 250.21243 -69.56006 L 249.80656 -76.160908 L 249.42204 -82.783117 z M -259.88995 -77.442626 L -259.88995 -12.459526 L -259.88995 52.523574 L -266.51216 53.121709 L -273.113 53.719844 L -305.39093 54.787942 L -337.66886 55.877403 L -362.27785 55.856041 L -386.88683 55.856041 L -386.88683 -6.9908625 L -386.88683 -69.859128 L -368.10966 -70.542711 L -349.31113 -71.226294 L -329.74357 -72.251668 L -310.15465 -73.298404 L -287.93821 -74.87919 L -265.7004 -76.459975 L -262.79517 -76.9513 L -259.88995 -77.442626 z M 18.349658 43.978788 L 67.674437 43.978788 L 116.99922 43.978788 L 117.42646 44.427389 L 117.87506 44.854628 L 120.01125 58.034961 L 122.14745 71.193932 L 124.77497 91.850953 L 127.38113 112.48661 L 129.00464 134.16901 L 130.62815 155.87276 L 130.62815 171.48836 L 130.64951 171.48836 L 130.64951 187.0826 L 67.674437 187.0826 L 4.6993622 187.0826 L 4.6993622 172.00105 L 4.6993622 156.9195 L 6.3015096 135.77115 L 7.8822951 114.60145 L 9.5058045 100.31029 L 11.150676 86.019136 L 14.269523 65.468925 L 17.38837 44.940076 L 17.858333 44.448751 L 18.349658 43.978788 z M 13.457768 44.171045 L 13.714112 44.448751 L 13.970455 44.747819 L 12.005154 56.774605 L 10.039854 68.801392 L 7.3696079 89.842928 L 4.7207242 110.8631 L 3.0972148 134.42535 L 1.4737054 157.9876 L 0.85420837 172.5351 L 0.25607333 187.0826 L -62.612192 187.0826 L -125.48046 187.0826 L -125.48046 165.01569 L -125.48046 142.94878 L -124.41236 121.37319 L -123.34426 99.776242 L -121.67803 75.444963 L -120.01179 51.092322 L -119.30685 50.387377 L -118.6019 49.661071 L -81.560256 47.994837 L -44.518607 46.349966 L -15.530419 45.260506 L 13.457768 44.171045 z M 122.16881 44.448751 L 128.79102 44.854628 L 135.39187 45.260506 L 156.56158 46.39269 L 177.73128 47.524874 L 216.24691 50.622359 L 254.7839 53.698482 L 255.14705 54.082998 L 255.5102 54.446151 L 257.09099 76.043098 L 258.65041 97.661408 L 259.73987 119.83513 L 260.80797 142.00885 L 260.80797 164.54572 L 260.80797 187.0826 L 197.96107 187.0826 L 135.11416 187.0826 L 134.43058 169.88621 L 133.747 152.68983 L 132.65754 136.81789 L 131.58944 120.94595 L 129.4746 101.9338 L 127.35977 82.943013 L 124.77497 66.109784 L 122.16881 49.276555 L 122.16881 46.862653 L 122.16881 44.448751 z M -124.2201 50.045586 L -123.7715 50.750531 L -123.34426 51.455476 L -124.90368 71.920239 L -126.46311 92.36364 L -127.53121 115.11413 L -128.57794 137.88599 L -129.28289 162.47361 L -129.98783 187.0826 L -192.8561 187.0826 L -255.72436 187.0826 L -256.23705 185.75815 L -256.72837 184.45507 L -256.45067 120.4119 L -256.17296 56.39009 L -190.20721 53.207157 L -124.2201 50.045586 z M 260.27392 54.082998 L 277.74801 55.407439 L 295.20073 56.731881 L 317.43854 57.842704 L 339.65499 58.974888 L 365.86612 59.679833 L 392.05589 60.384777 L 391.79954 123.46666 L 391.52184 186.56991 L 328.41859 186.82625 L 265.33671 187.10396 L 264.63176 161.42688 L 263.92682 135.77115 L 262.77327 112.48661 L 261.64109 89.202069 L 260.33801 72.26203 L 259.03493 55.321992 L 259.65442 54.702495 L 260.27392 54.082998 z M -273.113 56.924139 L -266.51216 56.924139 L -259.88995 56.924139 L -259.88995 121.99269 L -259.88995 187.0826 L -322.67276 187.0826 L -385.47694 187.0826 L -386.18189 186.37765 L -386.88683 185.67271 L -386.88683 122.9967 L -386.88683 60.342054 L -355.39929 59.615747 L -323.91176 58.88944 L -298.51238 57.906789 L -273.113 56.924139 z "
       transform="matrix(0.02419086,0,0,0.02419086,48.191896,75.702488)" />
    <path
       id="path10508-90"
       style="display:inline;fill:none;stroke:#000000;stroke-width:0.1;stroke-dasharray:none;stroke-opacity:1"
       d="m 53.501235,14.482654 a 3.9999995,3.9999995 0 0 1 -4,4 3.9999995,3.9999995 0 0 1 -4,-4 3.9999995,3.9999995 0 0 1 4,-4 3.9999995,3.9999995 0 0 1 4,4 z" />
    <path
       id="path10508-9-4"
       style="display:inline;fill:none;stroke:#000000;stroke-width:0.1;stroke-dasharray:none;stroke-opacity:1"
       d="m 16.501235,44.782653 a 3.9999995,3.9999995 0 0 1 -4,4 3.9999995,3.9999995 0 0 1 -4.0000234,-4 3.9999995,3.9999995 0 0 1 4.0000234,-3.999999 3.9999995,3.9999995 0 0 1 4,3.999999 z" />
    <path
       id="path10508-91"
       style="display:inline;fill:none;stroke:#000000;stroke-width:0.1;stroke-dasharray:none;stroke-opacity:1"
       d="m 16.501235,14.482654 a 3.9999995,3.9999995 0 0 1 -4,4 3.9999995,3.9999995 0 0 1 -4.0000234,-4 3.9999995,3.9999995 0 0 1 4.0000234,-4 3.9999995,3.9999995 0 0 1 4,4 z" />
    <path
       id="path4837"
       d="m 53.623944,57.011349 v -2.913946 h 0.312208 v 1.864925 l 1.00323,-1.032369 h 0.437092 l -0.836719,0.820067 0.899161,1.261323 H 55.05594 l -0.728486,-1.044858 -0.391302,0.387139 v 0.657719 z m -1.369557,0.0333 q -0.312209,0 -0.541161,-0.141535 -0.228953,-0.145697 -0.358,-0.391301 -0.124883,-0.245604 -0.124883,-0.541161 0,-0.29972 0.124883,-0.541162 0.129047,-0.245604 0.358,-0.387138 0.228952,-0.145697 0.541161,-0.145697 0.370487,0 0.62858,0.191487 0.262255,0.191488 0.353836,0.495371 h -0.337185 q -0.07077,-0.178999 -0.228953,-0.291394 -0.154023,-0.112395 -0.37465,-0.112395 -0.228953,0 -0.399627,0.108232 -0.170674,0.108232 -0.262255,0.287232 -0.09158,0.178999 -0.09158,0.395464 0,0.212302 0.09158,0.395464 0.09158,0.178999 0.262255,0.287232 0.170674,0.108232 0.399627,0.108232 0.220627,0 0.37465,-0.112395 0.158185,-0.112395 0.228953,-0.291395 h 0.337185 q -0.09158,0.303883 -0.353836,0.495371 -0.258093,0.191488 -0.62858,0.191488 z m -2.493502,0 q -0.303883,0 -0.532836,-0.141535 -0.22479,-0.145697 -0.349674,-0.391301 -0.124883,-0.245604 -0.124883,-0.541161 0,-0.29972 0.124883,-0.541162 0.124884,-0.245604 0.349674,-0.387138 0.228953,-0.145697 0.532836,-0.145697 0.258092,0 0.441254,0.09991 0.187326,0.09991 0.303883,0.270581 v -0.337185 h 0.312209 v 2.08139 H 50.506022 V 56.67833 q -0.116557,0.166512 -0.303883,0.266418 -0.183162,0.09991 -0.441254,0.09991 z m 0.04163,-0.283069 q 0.233115,0 0.391301,-0.108232 0.162348,-0.108233 0.245604,-0.287232 0.08325,-0.183162 0.08325,-0.395464 0,-0.216465 -0.08325,-0.395464 -0.08326,-0.179 -0.245604,-0.287232 -0.158186,-0.108232 -0.391301,-0.108232 -0.228953,0 -0.395465,0.108232 -0.166511,0.108232 -0.253929,0.287232 -0.08742,0.178999 -0.08742,0.395464 0,0.212302 0.08742,0.395464 0.08742,0.178999 0.253929,0.287232 0.166512,0.108232 0.395465,0.108232 z M 47.79189,57.011347 V 55.2047 h -0.424604 v -0.274743 h 0.424604 v -0.745138 h 0.312208 v 0.745138 h 0.47872 V 55.2047 h -0.47872 v 1.806647 z m -1.357067,0 V 55.2047 h -0.424604 v -0.274743 h 0.424604 v -0.745138 h 0.312208 v 0.745138 h 0.47872 V 55.2047 h -0.47872 v 1.806647 z m -1.823295,0.0333 q -0.303883,0 -0.532836,-0.141535 -0.22479,-0.145697 -0.349673,-0.391301 -0.124884,-0.245604 -0.124884,-0.541161 0,-0.29972 0.124884,-0.541162 0.124883,-0.245604 0.349673,-0.387138 0.228953,-0.145697 0.532836,-0.145697 0.258092,0 0.441255,0.09991 0.187325,0.09991 0.303883,0.270581 v -0.337185 h 0.312208 v 2.08139 H 45.356666 V 56.67833 q -0.116558,0.166512 -0.303883,0.266418 -0.183163,0.09991 -0.441255,0.09991 z m 0.04163,-0.283069 q 0.233115,0 0.391301,-0.108232 0.162348,-0.108233 0.245604,-0.287232 0.08326,-0.183162 0.08326,-0.395464 0,-0.216465 -0.08326,-0.395464 -0.08326,-0.179 -0.245604,-0.287232 -0.158186,-0.108232 -0.391301,-0.108232 -0.228953,0 -0.395464,0.108232 -0.166512,0.108232 -0.25393,0.287232 -0.08742,0.178999 -0.08742,0.395464 0,0.212302 0.08742,0.395464 0.08742,0.178999 0.25393,0.287232 0.166511,0.108232 0.395464,0.108232 z"
       style="font-size:4.16278px;line-height:1.25;font-family:Questrial;-inkscape-font-specification:'Questrial, Normal';letter-spacing:0px;word-spacing:0px;stroke-width:0.1;fill:none;stroke:#000000;stroke-opacity:1;stroke-dasharray:none" />
    <path
       id="path4848"
       d="M 35.092812,57.011406 V 55.20476 h -0.424603 v -0.274744 h 0.424603 v -0.745138 h 0.312209 v 0.745138 h 0.47872 v 0.274744 h -0.47872 v 1.806646 z m -2.530973,0 v -2.08139 h 0.312209 v 0.324697 q 0.112395,-0.14986 0.274743,-0.25393 0.162348,-0.104069 0.416278,-0.104069 0.216465,0 0.40379,0.104069 0.191487,0.09991 0.308045,0.303883 0.120721,0.199814 0.120721,0.495371 v 1.211369 h -0.312209 v -1.203043 q 0,-0.283069 -0.162348,-0.453743 -0.162348,-0.174837 -0.420441,-0.174837 -0.174836,0 -0.316371,0.07909 -0.141535,0.07909 -0.228953,0.22479 -0.08326,0.141534 -0.08326,0.328859 v 1.198881 z m -1.544391,0.0333 q -0.212302,0 -0.40379,-0.09991 Q 30.42217,56.840727 30.301449,56.640914 30.184892,56.436937 30.184892,56.14138 V 54.930016 H 30.4971 v 1.203043 q 0,0.283069 0.162349,0.457906 0.166511,0.170674 0.42044,0.170674 0.174837,0 0.316372,-0.07909 0.141534,-0.08326 0.22479,-0.22479 0.08742,-0.141534 0.08742,-0.328859 v -1.198881 h 0.312209 v 2.08139 h -0.312209 v -0.324697 q -0.112395,0.14986 -0.274743,0.25393 -0.162349,0.104069 -0.416278,0.104069 z m -2.247898,-0.0333 v -2.08139 h 0.312208 v 0.512022 q 0.01665,-0.05412 0.06244,-0.141535 0.04995,-0.09158 0.141534,-0.183162 0.09158,-0.09158 0.228953,-0.154023 0.141535,-0.0666 0.333022,-0.0666 h 0.02081 v 0.312208 h -0.03747 q -0.233115,0 -0.403789,0.129046 -0.166511,0.124884 -0.258093,0.32886 -0.08742,0.199813 -0.08742,0.428766 v 0.915812 z m -1.523575,0.857533 q -0.391301,0 -0.636905,-0.170674 -0.245604,-0.166512 -0.333023,-0.437092 h 0.345511 q 0.06244,0.154023 0.216464,0.237278 0.154023,0.08742 0.391302,0.08742 0.357999,0 0.520347,-0.170674 0.166511,-0.166512 0.166511,-0.487046 V 56.64092 q -0.116557,0.166511 -0.303882,0.27058 -0.183163,0.09991 -0.441255,0.09991 -0.303883,0 -0.532836,-0.137372 -0.22479,-0.141534 -0.349673,-0.382976 -0.124884,-0.241441 -0.124884,-0.536998 0,-0.29972 0.124884,-0.536999 0.124883,-0.241441 0.349673,-0.378813 0.228953,-0.141534 0.532836,-0.141534 0.258092,0 0.441255,0.09991 0.187325,0.09574 0.303882,0.266417 v -0.333022 h 0.312209 v 2.018948 q 0,0.445418 -0.258092,0.682696 -0.25393,0.237279 -0.724324,0.237279 z m -0.0333,-1.140602 q 0.228953,0 0.387138,-0.10407 0.162349,-0.104069 0.245604,-0.278906 0.08742,-0.178999 0.08742,-0.391301 0,-0.216465 -0.08742,-0.391301 -0.08325,-0.174837 -0.245604,-0.278907 -0.158185,-0.104069 -0.387138,-0.104069 -0.228953,0 -0.395464,0.104069 -0.166512,0.10407 -0.25393,0.278907 -0.08742,0.174836 -0.08742,0.391301 0,0.212302 0.08742,0.391301 0.08742,0.174837 0.25393,0.278906 0.166511,0.10407 0.395464,0.10407 z"
       style="font-size:4.16278px;line-height:1.25;font-family:Questrial;-inkscape-font-specification:'Questrial, Normal';letter-spacing:0px;word-spacing:0px;stroke-width:0.1;fill:none;stroke:#000000;stroke-opacity:1;stroke-dasharray:none" />
    <path
       id="path4859"
       d="m 16.386642,27.006227 q -0.303883,0 -0.532836,-0.141534 -0.22479,-0.145697 -0.349673,-0.391301 -0.124884,-0.245604 -0.124884,-0.541162 0,-0.29972 0.124884,-0.541161 0.124883,-0.245604 0.349673,-0.387139 0.228953,-0.145697 0.532836,-0.145697 0.258092,0 0.441255,0.09991 0.187325,0.09991 0.303883,0.27058 v -1.169741 h 0.312208 v 2.913946 H 17.13178 v -0.333022 q -0.116558,0.166511 -0.303883,0.266418 -0.183163,0.09991 -0.441255,0.09991 z m 0.04163,-0.283069 q 0.233115,0 0.391301,-0.108232 0.162349,-0.108232 0.245604,-0.287232 0.08326,-0.183162 0.08326,-0.395464 0,-0.216464 -0.08326,-0.395464 -0.08326,-0.178999 -0.245604,-0.287232 -0.158186,-0.108232 -0.391301,-0.108232 -0.228953,0 -0.395464,0.108232 -0.166511,0.108233 -0.25393,0.287232 -0.08742,0.179 -0.08742,0.395464 0,0.212302 0.08742,0.395464 0.08742,0.179 0.25393,0.287232 0.166511,0.108232 0.395464,0.108232 z m -3.27611,0.249767 v -2.08139 h 0.312208 v 0.324697 q 0.112396,-0.14986 0.274744,-0.253929 0.162348,-0.10407 0.416278,-0.10407 0.216464,0 0.40379,0.10407 0.191487,0.09991 0.308045,0.303882 0.120721,0.199814 0.120721,0.495371 v 1.211369 h -0.312209 v -1.203043 q 0,-0.283069 -0.162348,-0.453743 -0.162348,-0.174837 -0.420441,-0.174837 -0.174837,0 -0.316371,0.07909 -0.141535,0.07909 -0.228953,0.22479 -0.08326,0.141535 -0.08326,0.32886 v 1.19888 z m -1.394528,0.0333 q -0.316371,0 -0.55365,-0.141534 -0.237278,-0.145697 -0.370487,-0.391301 -0.129046,-0.245604 -0.129046,-0.541162 0,-0.29972 0.124883,-0.541161 0.124884,-0.245604 0.357999,-0.387139 0.233116,-0.145697 0.549487,-0.145697 0.320534,0 0.549487,0.145697 0.233116,0.141535 0.357999,0.387139 0.124884,0.241441 0.124884,0.541161 v 0.124884 h -1.744205 q 0.02498,0.183162 0.116558,0.337185 0.09574,0.14986 0.253929,0.241441 0.158186,0.08742 0.366325,0.08742 0.220627,0 0.370487,-0.09574 0.14986,-0.09991 0.233116,-0.253929 h 0.341348 q -0.108232,0.278906 -0.345511,0.457906 -0.233116,0.174836 -0.603603,0.174836 z m -0.728486,-1.240508 h 1.415345 q -0.04163,-0.266418 -0.22479,-0.445417 -0.183163,-0.179 -0.482883,-0.179 -0.29972,0 -0.482882,0.179 -0.179,0.178999 -0.22479,0.445417 z m -1.0490205,1.207206 v -2.913946 h 0.3122085 v 2.913946 z m -1.4195052,0.0333 q -0.2580923,0 -0.4454174,-0.09991 -0.1831623,-0.09991 -0.2997201,-0.266418 v 0.333022 H 7.5032763 v -2.913946 h 0.3122085 v 1.169741 q 0.1165578,-0.170674 0.2997201,-0.27058 0.1873251,-0.09991 0.4454174,-0.09991 0.303883,0 0.5286731,0.145697 0.2289529,0.141535 0.3538363,0.387139 0.1248834,0.241441 0.1248834,0.541161 0,0.295558 -0.1248834,0.541162 -0.1248834,0.245604 -0.3538363,0.391301 -0.2247901,0.141534 -0.5286731,0.141534 z m -0.041628,-0.283069 q 0.2331157,0 0.3954641,-0.108232 0.1665112,-0.108232 0.2539296,-0.287232 0.087418,-0.183162 0.087418,-0.395464 0,-0.216464 -0.087418,-0.395464 Q 9.08097,25.357767 8.9144584,25.249534 8.75211,25.141302 8.5189943,25.141302 q -0.2289528,0 -0.3913013,0.108232 -0.1623484,0.108233 -0.245604,0.287232 -0.083256,0.179 -0.083256,0.395464 0,0.212302 0.083256,0.395464 0.083256,0.179 0.245604,0.287232 0.1623485,0.108232 0.3913013,0.108232 z"
       style="font-size:4.16278px;line-height:1.25;font-family:Questrial;-inkscape-font-specification:'Questrial, Normal';letter-spacing:0px;word-spacing:0px;stroke-width:0.1;fill:none;stroke:#000000;stroke-opacity:1;stroke-dasharray:none" />
    <path
       id="path4870"
       d="m 53.1548,27.006227 q -0.316371,0 -0.553649,-0.141534 -0.237279,-0.145697 -0.370488,-0.391301 -0.129046,-0.245604 -0.129046,-0.541162 0,-0.29972 0.124883,-0.541161 0.124884,-0.245604 0.358,-0.387139 0.233115,-0.145697 0.549486,-0.145697 0.320534,0 0.549487,0.145697 0.233116,0.141535 0.357999,0.387139 0.124884,0.241441 0.124884,0.541161 v 0.124884 h -1.744205 q 0.02498,0.183162 0.116558,0.337185 0.09574,0.14986 0.253929,0.241441 0.158186,0.08742 0.366325,0.08742 0.220627,0 0.370488,-0.09574 0.14986,-0.09991 0.233115,-0.253929 h 0.341348 q -0.108232,0.278906 -0.345511,0.457906 -0.233115,0.174836 -0.603603,0.174836 z m -0.728486,-1.240508 h 1.415345 q -0.04163,-0.266418 -0.22479,-0.445417 -0.183162,-0.179 -0.482883,-0.179 -0.29972,0 -0.482882,0.179 -0.179,0.178999 -0.22479,0.445417 z m -1.623485,1.207206 -0.815904,-2.08139 h 0.341348 l 0.657719,1.748368 0.653556,-1.748368 h 0.341348 l -0.811742,2.08139 z m -1.431996,-2.431063 v -0.407953 h 0.337186 v 0.407953 z m 0.01249,2.431063 v -2.08139 h 0.312208 v 2.08139 z m -1.436157,0 v -2.08139 h 0.312208 v 0.512022 q 0.01665,-0.05412 0.06244,-0.141534 0.04995,-0.09158 0.141534,-0.183163 0.09158,-0.09158 0.228953,-0.154022 0.141535,-0.06661 0.333023,-0.06661 h 0.02081 v 0.312209 h -0.03747 q -0.233115,0 -0.403789,0.129046 -0.166511,0.124883 -0.258092,0.328859 -0.08742,0.199814 -0.08742,0.428767 v 0.915811 z m -1.598505,0.0333 q -0.303883,0 -0.532836,-0.141534 -0.22479,-0.145697 -0.349673,-0.391301 -0.124884,-0.245604 -0.124884,-0.541162 0,-0.29972 0.124884,-0.541161 0.124883,-0.245604 0.349673,-0.387139 0.228953,-0.145697 0.532836,-0.145697 0.258092,0 0.441255,0.09991 0.187325,0.09991 0.303883,0.27058 V 24.05898 h 0.312208 v 2.913946 h -0.312208 v -0.333022 q -0.116558,0.166511 -0.303883,0.266418 -0.183163,0.09991 -0.441255,0.09991 z m 0.04163,-0.283069 q 0.233115,0 0.391301,-0.108232 0.162348,-0.108232 0.245604,-0.287232 0.08326,-0.183162 0.08326,-0.395464 0,-0.216464 -0.08326,-0.395464 -0.08326,-0.178999 -0.245604,-0.287232 -0.158186,-0.108232 -0.391301,-0.108232 -0.228953,0 -0.395464,0.108232 -0.166512,0.108233 -0.25393,0.287232 -0.08742,0.179 -0.08742,0.395464 0,0.212302 0.08742,0.395464 0.08742,0.179 0.25393,0.287232 0.166511,0.108232 0.395464,0.108232 z"
       style="font-size:4.16278px;line-height:1.25;font-family:Questrial;-inkscape-font-specification:'Questrial, Normal';letter-spacing:0px;word-spacing:0px;stroke-width:0.1;fill:none;stroke:#000000;stroke-opacity:1;stroke-dasharray:none" />
    <path
       id="path4881"
       d="M 16.063248,57.011406 V 54.09746 h 0.312209 v 2.913946 z m -1.394528,0.0333 q -0.316371,0 -0.55365,-0.141534 -0.237278,-0.145698 -0.370487,-0.391302 -0.129046,-0.245604 -0.129046,-0.541161 0,-0.29972 0.124883,-0.541161 0.124884,-0.245604 0.357999,-0.387139 0.233116,-0.145697 0.549487,-0.145697 0.320534,0 0.549487,0.145697 0.233116,0.141535 0.357999,0.387139 0.124884,0.241441 0.124884,0.541161 v 0.124883 h -1.744205 q 0.02498,0.183163 0.116558,0.337186 0.09574,0.14986 0.253929,0.241441 0.158186,0.08742 0.366325,0.08742 0.220627,0 0.370487,-0.09574 0.14986,-0.09991 0.233116,-0.253929 h 0.341348 q -0.108232,0.278906 -0.345511,0.457905 -0.233115,0.174837 -0.603603,0.174837 z M 13.940234,55.8042 h 1.415345 q -0.04163,-0.266418 -0.22479,-0.445418 -0.183163,-0.178999 -0.482883,-0.178999 -0.29972,0 -0.482882,0.178999 -0.179,0.179 -0.22479,0.445418 z m -1.623485,1.207206 -0.815905,-2.08139 h 0.341348 l 0.657719,1.748368 0.653557,-1.748368 h 0.341348 l -0.811742,2.08139 z m -1.960666,0.0333 q -0.316371,0 -0.5536496,-0.141534 -0.2372784,-0.145696 -0.3704874,-0.3913 -0.1290462,-0.245604 -0.1290462,-0.541161 0,-0.29972 0.1248834,-0.541161 0.1248834,-0.245604 0.3579991,-0.387139 0.2331157,-0.145697 0.5494867,-0.145697 0.320534,0 0.549487,0.145697 0.233116,0.141535 0.357999,0.387139 0.124884,0.241441 0.124884,0.541161 v 0.124883 H 9.6234339 q 0.024977,0.183163 0.1165578,0.337186 0.095744,0.14986 0.2539296,0.241441 0.1581857,0.08742 0.3663247,0.08742 0.220627,0 0.370487,-0.09574 0.14986,-0.09991 0.233116,-0.253929 h 0.341348 q -0.108232,0.278906 -0.345511,0.457905 -0.233115,0.174837 -0.603603,0.174837 z M 9.6275967,55.8042 h 1.4153453 q -0.04163,-0.266418 -0.22479,-0.445418 -0.183163,-0.178999 -0.482883,-0.178999 -0.29972,0 -0.4828822,0.178999 -0.1789996,0.179 -0.2247901,0.445418 z M 8.5785765,57.011406 V 54.09746 H 8.890785 v 2.913946 z"
       style="font-size:4.16278px;line-height:1.25;font-family:Questrial;-inkscape-font-specification:'Questrial, Normal';letter-spacing:0px;word-spacing:0px;stroke-width:0.1;fill:none;stroke:#000000;stroke-opacity:1;stroke-dasharray:none" />
    <path
       id="path10508-9"
       style="display:inline;fill:none;stroke:#000000;stroke-width:0.1;stroke-dasharray:none;stroke-opacity:1"
       d="m 34.501413,44.782653 a 3.4999995,3.4999995 0 0 1 -3.5,3.5 3.4999995,3.4999995 0 0 1 -3.5,-3.5 3.4999995,3.4999995 0 0 1 3.5,-3.499999 3.4999995,3.4999995 0 0 1 3.5,3.499999 z" />
    <path
       id="path10508-9-7"
       style="display:inline;fill:none;stroke:#000000;stroke-width:0.1;stroke-dasharray:none;stroke-opacity:1"
       d="m 52.988827,44.782653 a 3.4999995,3.4999995 0 0 1 -3.5,3.5 3.4999995,3.4999995 0 0 1 -3.5,-3.5 3.4999995,3.4999995 0 0 1 3.5,-3.499999 3.4999995,3.4999995 0 0 1 3.5,3.499999 z" />
  </g>
</svg>
