<?xml version="1.0" encoding="UTF-8" standalone="no"?>
<svg
   width="62mm"
   height="117mm"
   viewBox="0 0 62 117"
   version="1.1"
   id="svg8"
   inkscape:version="1.2.2 (b0a8486541, 2022-12-01)"
   sodipodi:docname="bass_distortion_front_freecad.svg"
   inkscape:export-filename="/home/yann/_dev/98 - Graphics/graphics-pedals/Shining Pig/shining_pig_front_9V.png"
   inkscape:export-xdpi="96"
   inkscape:export-ydpi="96"
   xmlns:inkscape="http://www.inkscape.org/namespaces/inkscape"
   xmlns:sodipodi="http://sodipodi.sourceforge.net/DTD/sodipodi-0.dtd"
   xmlns="http://www.w3.org/2000/svg"
   xmlns:svg="http://www.w3.org/2000/svg"
   xmlns:rdf="http://www.w3.org/1999/02/22-rdf-syntax-ns#"
   xmlns:cc="http://creativecommons.org/ns#"
   xmlns:dc="http://purl.org/dc/elements/1.1/">
  <defs
     id="defs2" />
  <sodipodi:namedview
     id="base"
     pagecolor="#ffffff"
     bordercolor="#666666"
     borderopacity="1.0"
     inkscape:pageopacity="0"
     inkscape:pageshadow="2"
     inkscape:zoom="4"
     inkscape:cx="15.75"
     inkscape:cy="204.5"
     inkscape:document-units="mm"
     inkscape:current-layer="layer6"
     inkscape:document-rotation="0"
     showgrid="true"
     inkscape:window-width="3836"
     inkscape:window-height="2113"
     inkscape:window-x="0"
     inkscape:window-y="881"
     inkscape:window-maximized="1"
     showborder="true"
     inkscape:showpageshadow="false"
     inkscape:pagecheckerboard="true"
     inkscape:deskcolor="#d1d1d1">
    <sodipodi:guide
       position="-2.0168617,58.500093"
       orientation="0,117.16536"
       id="guide1967"
       inkscape:locked="false" />
    <sodipodi:guide
       position="31.001653,138.8865"
       orientation="-221.10236,0"
       id="guide1969"
       inkscape:locked="false" />
    <inkscape:grid
       type="xygrid"
       id="grid1973"
       visible="true"
       enabled="true"
       originx="31.000001"
       originy="58.500002"
       dotted="false" />
  </sodipodi:namedview>
  <metadata
     id="metadata5">
    <rdf:RDF>
      <cc:Work
         rdf:about="">
        <dc:format>image/svg+xml</dc:format>
        <dc:type
           rdf:resource="http://purl.org/dc/dcmitype/StillImage" />
      </cc:Work>
    </rdf:RDF>
  </metadata>
  <g
     inkscape:groupmode="layer"
     id="layer6"
     inkscape:label="Controls">
    <path
       id="path3053"
       d="M 9.5317179 54.097473 L 9.5317179 57.011507 L 9.8438436 57.011507 L 9.8438436 54.097473 L 9.5317179 54.097473 z M 6.8853678 54.896908 C 6.7676394 54.89951 6.6648017 54.921422 6.5763428 54.963053 C 6.4847616 55.004682 6.4084701 55.055996 6.3474162 55.117049 C 6.2863619 55.178104 6.2391247 55.239447 6.2058228 55.3005 C 6.1752955 55.358777 6.1543949 55.406014 6.1432943 55.442094 L 6.1432943 54.92998 L 5.8311686 54.92998 L 5.8311686 57.011507 L 6.1432943 57.011507 L 6.1432943 56.095801 C 6.1432943 55.943166 6.1723488 55.800095 6.2306274 55.666886 C 6.2916815 55.530903 6.3774855 55.420963 6.4884928 55.337708 C 6.6022754 55.251677 6.7371923 55.209033 6.8926025 55.209033 L 6.9298096 55.209033 L 6.9298096 54.896908 L 6.909139 54.896908 C 6.9011603 54.896908 6.8932164 54.896734 6.8853678 54.896908 z M 8.1163005 54.896908 C 7.9053865 54.896908 7.7223902 54.945503 7.56698 55.042635 C 7.4115697 55.136991 7.2921178 55.265956 7.2088623 55.429692 C 7.1256068 55.590653 7.0838053 55.770931 7.0838053 55.970744 C 7.0838053 56.167782 7.1269657 56.34806 7.2129964 56.511796 C 7.3018023 56.675532 7.4253309 56.805855 7.5835164 56.902987 C 7.7417019 56.997343 7.926057 57.04458 8.136971 57.04458 C 8.3839624 57.04458 8.5851414 56.986472 8.7405518 56.869914 C 8.8987372 56.750581 9.0141123 56.597995 9.0862671 56.412061 L 8.7452026 56.412061 C 8.689699 56.51474 8.6115317 56.599185 8.5116252 56.665792 C 8.4117185 56.729618 8.2887066 56.761393 8.1416219 56.761393 C 8.0028627 56.761393 7.880693 56.73234 7.775236 56.67406 C 7.6697791 56.613006 7.5848172 56.532638 7.520988 56.432731 C 7.4599341 56.330049 7.4213673 56.217909 7.404716 56.095801 L 9.1487956 56.095801 L 9.1487956 55.970744 C 9.1487956 55.770931 9.1069941 55.590653 9.0237386 55.429692 C 8.9404831 55.265956 8.8210312 55.136991 8.6656209 55.042635 C 8.5129858 54.945503 8.3299896 54.896908 8.1163005 54.896908 z M 11.2882 54.896908 C 11.077286 54.896908 10.89429 54.945503 10.738879 55.042635 C 10.583469 55.136991 10.464017 55.265956 10.380762 55.429692 C 10.297506 55.590653 10.256222 55.770931 10.256222 55.970744 C 10.256222 56.167782 10.298865 56.34806 10.384896 56.511796 C 10.473702 56.675532 10.597231 56.805855 10.755416 56.902987 C 10.913602 56.997343 11.098473 57.04458 11.309387 57.04458 C 11.556378 57.04458 11.757557 56.986472 11.912968 56.869914 C 12.071153 56.750581 12.186011 56.597998 12.258167 56.412061 L 11.917102 56.412061 C 11.861598 56.51474 11.783948 56.599185 11.684041 56.665792 C 11.584135 56.729618 11.460606 56.761393 11.313521 56.761393 C 11.174762 56.761393 11.052593 56.73234 10.947135 56.67406 C 10.841676 56.613006 10.756714 56.532638 10.692887 56.432731 C 10.631835 56.330049 10.593269 56.217909 10.576615 56.095801 L 12.320695 56.095801 L 12.320695 55.970744 C 12.320695 55.770931 12.27941 55.590653 12.196155 55.429692 C 12.1129 55.265956 11.993448 55.136991 11.838037 55.042635 C 11.685402 54.945503 11.501889 54.896908 11.2882 54.896908 z M 13.582117 54.896908 C 13.379528 54.896908 13.201967 54.945503 13.049333 55.042635 C 12.899472 55.136991 12.782738 55.265956 12.699483 55.429692 C 12.616228 55.590653 12.574943 55.770931 12.574943 55.970744 C 12.574943 56.167782 12.616228 56.34806 12.699483 56.511796 C 12.782738 56.675532 12.899472 56.805855 13.049333 56.902987 C 13.201967 56.997343 13.379528 57.04458 13.582117 57.04458 C 13.754179 57.04458 13.901326 57.011451 14.023433 56.944845 C 14.148317 56.87824 14.249586 56.789201 14.327291 56.678194 L 14.327291 57.011507 L 14.639417 57.011507 L 14.639417 54.92998 L 14.327291 54.92998 L 14.327291 55.267428 C 14.249586 55.153647 14.148317 55.06325 14.023433 54.996643 C 13.901326 54.930036 13.754179 54.896908 13.582117 54.896908 z M 15.904972 54.896908 C 15.635779 54.896908 15.431883 54.94958 15.293123 55.055037 C 15.15714 55.157719 15.089001 55.303508 15.089001 55.49222 C 15.089001 55.619879 15.12213 55.721148 15.188737 55.796077 C 15.255342 55.868233 15.341662 55.924983 15.447119 55.96661 C 15.552576 56.005463 15.663357 56.037238 15.779915 56.062211 C 15.899249 56.087184 16.011906 56.113523 16.117362 56.141276 C 16.222818 56.166251 16.308621 56.202617 16.375228 56.249797 C 16.441834 56.296975 16.47548 56.363237 16.47548 56.449268 C 16.47548 56.51865 16.455939 56.575917 16.417086 56.620317 C 16.378234 56.664723 16.329638 56.697852 16.271358 56.720052 C 16.215854 56.742252 16.157228 56.757201 16.096175 56.765527 C 16.035121 56.773854 15.983806 56.778446 15.942179 56.778446 C 15.80897 56.778446 15.700907 56.758905 15.617651 56.720052 C 15.534395 56.678421 15.472209 56.625749 15.430583 56.561922 C 15.391729 56.495318 15.368113 56.42718 15.359786 56.3578 L 15.034741 56.3578 C 15.043067 56.479908 15.082151 56.593924 15.15153 56.699382 C 15.22091 56.802066 15.320819 56.885152 15.451253 56.948979 C 15.584462 57.012805 15.746557 57.04458 15.938045 57.04458 C 16.196137 57.04458 16.40191 56.991907 16.554545 56.88645 C 16.709956 56.778218 16.787606 56.622917 16.787606 56.420329 C 16.787606 56.289895 16.75396 56.187267 16.687354 56.112337 C 16.620749 56.034631 16.534945 55.974647 16.429488 55.93302 C 16.324031 55.891393 16.211374 55.859619 16.092041 55.837419 C 15.975483 55.812439 15.864702 55.787461 15.759245 55.762488 C 15.65379 55.734739 15.567986 55.698891 15.501379 55.654484 C 15.434773 55.610081 15.401127 55.54602 15.401127 55.462764 C 15.401127 55.262951 15.566457 55.163041 15.896704 55.163041 C 16.071541 55.163041 16.196428 55.194816 16.271358 55.258643 C 16.349064 55.322472 16.393583 55.398763 16.404683 55.487569 L 16.720943 55.487569 C 16.709842 55.384887 16.673476 55.289571 16.612423 55.200765 C 16.554144 55.111956 16.466981 55.039741 16.350423 54.984241 C 16.236641 54.925961 16.088134 54.896908 15.904972 54.896908 z M 18.090369 54.896908 C 17.879455 54.896908 17.696459 54.945503 17.541048 55.042635 C 17.385638 55.136991 17.266186 55.265956 17.182931 55.429692 C 17.099675 55.590653 17.057874 55.770931 17.057874 55.970744 C 17.057874 56.167782 17.101034 56.34806 17.187065 56.511796 C 17.275871 56.675532 17.399399 56.805855 17.557585 56.902987 C 17.71577 56.997343 17.900125 57.04458 18.111039 57.04458 C 18.35803 57.04458 18.559209 56.986472 18.71462 56.869914 C 18.872806 56.750581 18.988181 56.597998 19.060335 56.412061 L 18.718754 56.412061 C 18.66325 56.51474 18.5856 56.599185 18.485693 56.665792 C 18.385787 56.729618 18.262258 56.761393 18.115173 56.761393 C 17.976414 56.761393 17.854761 56.73234 17.749304 56.67406 C 17.643845 56.613006 17.558883 56.532638 17.495056 56.432731 C 17.434004 56.330049 17.395437 56.217909 17.378784 56.095801 L 19.122864 56.095801 L 19.122864 55.970744 C 19.122864 55.770931 19.081063 55.590653 18.997807 55.429692 C 18.914552 55.265956 18.7951 55.136991 18.639689 55.042635 C 18.487054 54.945503 18.304058 54.896908 18.090369 54.896908 z M 8.1163005 55.179578 C 8.3161137 55.179578 8.477367 55.239562 8.5994751 55.358895 C 8.7215831 55.478228 8.7965156 55.626735 8.8242676 55.804346 L 7.4088501 55.804346 C 7.4393771 55.626735 7.5143097 55.478228 7.6336426 55.358895 C 7.7557507 55.239562 7.9164872 55.179578 8.1163005 55.179578 z M 11.2882 55.179578 C 11.488013 55.179578 11.649266 55.239562 11.771375 55.358895 C 11.893481 55.478228 11.968414 55.626735 11.996167 55.804346 L 10.58075 55.804346 C 10.611276 55.626735 10.686209 55.478228 10.805542 55.358895 C 10.92765 55.239562 11.088387 55.179578 11.2882 55.179578 z M 13.623975 55.179578 C 13.779385 55.179578 13.909708 55.215943 14.015165 55.288098 C 14.123394 55.360253 14.205122 55.456086 14.260628 55.575419 C 14.316135 55.694752 14.343827 55.826434 14.343827 55.970744 C 14.343827 56.112278 14.316135 56.24396 14.260628 56.366069 C 14.205124 56.485401 14.123397 56.581234 14.015165 56.653389 C 13.909708 56.725544 13.779385 56.761393 13.623975 56.761393 C 13.471339 56.761393 13.33914 56.725544 13.228133 56.653389 C 13.117127 56.581234 13.032682 56.485401 12.974402 56.366069 C 12.916122 56.24396 12.887069 56.112278 12.887069 55.970744 C 12.887069 55.826434 12.916122 55.694752 12.974402 55.575419 C 13.03268 55.456086 13.117126 55.360253 13.228133 55.288098 C 13.33914 55.215943 13.471339 55.179578 13.623975 55.179578 z M 18.090369 55.179578 C 18.290182 55.179578 18.450918 55.239562 18.573027 55.358895 C 18.695133 55.478228 18.770066 55.626735 18.797819 55.804346 L 17.382918 55.804346 C 17.413445 55.626735 17.488378 55.478228 17.607711 55.358895 C 17.729819 55.239562 17.890556 55.179578 18.090369 55.179578 z "
       style="font-size:4.16278px;font-family:Questrial;-inkscape-font-specification:'Questrial, Normal';letter-spacing:0px;word-spacing:0px;stroke-width:0.1;fill:none;stroke:#000000;stroke-opacity:1;stroke-dasharray:none" />
    <path
       id="path3032"
       d="M 50.955029 24.133927 L 50.955029 24.541654 L 51.29196 24.541654 L 51.29196 24.133927 L 50.955029 24.133927 z M 49.835201 24.14633 L 49.835201 24.891504 L 49.410421 24.891504 L 49.410421 25.166423 L 49.835201 25.166423 L 49.835201 26.973031 L 50.147327 26.973031 L 50.147327 25.166423 L 50.62585 25.166423 L 50.62585 24.891504 L 50.147327 24.891504 L 50.147327 24.14633 L 49.835201 24.14633 z M 46.805929 24.858431 C 46.6882 24.861033 46.584846 24.882952 46.496387 24.924577 C 46.404805 24.966205 46.328513 25.017519 46.26746 25.078573 C 46.206404 25.139627 46.159167 25.200971 46.125867 25.262024 C 46.09534 25.320301 46.074955 25.367537 46.063855 25.403617 L 46.063855 24.891504 L 45.751213 24.891504 L 45.751213 26.973031 L 46.063855 26.973031 L 46.063855 26.057324 C 46.063855 25.904689 46.092908 25.761618 46.151188 25.62841 C 46.212242 25.492426 46.298046 25.382487 46.409054 25.299231 C 46.522836 25.2132 46.657753 25.170557 46.813163 25.170557 L 46.85037 25.170557 L 46.85037 24.858431 L 46.8297 24.858431 C 46.821721 24.858431 46.813777 24.858258 46.805929 24.858431 z M 48.012056 24.858431 C 47.809468 24.858431 47.63139 24.906511 47.478756 25.003642 C 47.328895 25.097998 47.212678 25.227479 47.129423 25.391215 C 47.046168 25.552176 47.004366 25.732454 47.004366 25.932267 C 47.004366 26.129305 47.046168 26.309584 47.129423 26.473319 C 47.212678 26.637055 47.328895 26.767379 47.478756 26.86451 C 47.63139 26.958867 47.809468 27.006104 48.012056 27.006104 C 48.184118 27.006104 48.330749 26.972975 48.452856 26.906368 C 48.57774 26.839764 48.679525 26.750725 48.757231 26.639718 L 48.757231 26.973031 L 49.069356 26.973031 L 49.069356 24.891504 L 48.757231 24.891504 L 48.757231 25.228434 C 48.679525 25.114654 48.57774 25.024773 48.452856 24.958167 C 48.330749 24.89156 48.184118 24.858431 48.012056 24.858431 z M 52.723914 24.858431 C 52.513 24.858431 52.330004 24.906511 52.174593 25.003642 C 52.019183 25.097998 51.899731 25.227479 51.816475 25.391215 C 51.73322 25.552176 51.691935 25.732454 51.691935 25.932267 C 51.691935 26.129305 51.73322 26.309584 51.816475 26.473319 C 51.899731 26.637055 52.019183 26.767379 52.174593 26.86451 C 52.330004 26.958867 52.513 27.006104 52.723914 27.006104 C 52.937603 27.006104 53.121116 26.958867 53.273751 26.86451 C 53.429161 26.767379 53.548096 26.637055 53.631352 26.473319 C 53.714607 26.309584 53.756409 26.129305 53.756409 25.932267 C 53.756409 25.732454 53.714607 25.552176 53.631352 25.391215 C 53.548096 25.227479 53.429161 25.097998 53.273751 25.003642 C 53.121116 24.906511 52.937603 24.858431 52.723914 24.858431 z M 50.967432 24.891504 L 50.967432 26.973031 L 51.279557 26.973031 L 51.279557 24.891504 L 50.967432 24.891504 z M 48.053398 25.141101 C 48.208808 25.141101 48.339132 25.177467 48.444588 25.249622 C 48.552817 25.321776 48.635061 25.417609 48.690568 25.536943 C 48.746075 25.656275 48.773767 25.787957 48.773767 25.932267 C 48.773767 26.073802 48.746075 26.205484 48.690568 26.327592 C 48.635065 26.446925 48.552821 26.542758 48.444588 26.614913 C 48.339132 26.687068 48.208808 26.722917 48.053398 26.722917 C 47.900762 26.722917 47.76908 26.687068 47.658073 26.614913 C 47.547066 26.542758 47.462105 26.446925 47.403825 26.327592 C 47.345545 26.205484 47.316492 26.073802 47.316492 25.932267 C 47.316492 25.787957 47.345545 25.656275 47.403825 25.536943 C 47.462104 25.417609 47.547066 25.321776 47.658073 25.249622 C 47.76908 25.177467 47.900762 25.141101 48.053398 25.141101 z M 52.723914 25.141101 C 52.879324 25.141101 53.010164 25.177467 53.115621 25.249622 C 53.22385 25.321776 53.305577 25.417609 53.361084 25.536943 C 53.416591 25.656275 53.444283 25.787957 53.444283 25.932267 C 53.444283 26.073802 53.416591 26.205484 53.361084 26.327592 C 53.305581 26.446925 53.223853 26.542758 53.115621 26.614913 C 53.010164 26.687068 52.879324 26.722917 52.723914 26.722917 C 52.571278 26.722917 52.440955 26.687068 52.332723 26.614913 C 52.224494 26.542758 52.142767 26.446925 52.08726 26.327592 C 52.031753 26.205484 52.004061 26.073802 52.004061 25.932267 C 52.004061 25.787957 52.031753 25.656275 52.08726 25.536943 C 52.142763 25.417609 52.22449 25.321776 52.332723 25.249622 C 52.440955 25.177467 52.571278 25.141101 52.723914 25.141101 z "
       style="font-size:4.16278px;font-family:Questrial;-inkscape-font-specification:'Questrial, Normal';letter-spacing:0px;word-spacing:0px;stroke-width:0.1;fill:none;stroke:#000000;stroke-opacity:1;stroke-dasharray:none" />
    <path
       id="path3007"
       d="M 10.42262 24.058997 L 10.42262 26.973031 L 10.734745 26.973031 L 10.734745 24.058997 L 10.42262 24.058997 z M 8.9782633 24.858431 C 8.7673494 24.858431 8.5838364 24.906511 8.4284261 25.003642 C 8.2730158 25.097998 8.1540807 25.227479 8.0708252 25.391215 C 7.9875697 25.552176 7.9457682 25.732454 7.9457682 25.932267 C 7.9457682 26.129305 7.9875697 26.309584 8.0708252 26.473319 C 8.1540807 26.637055 8.2730158 26.767379 8.4284261 26.86451 C 8.5838364 26.958867 8.7673494 27.006104 8.9782633 27.006104 C 9.1919525 27.006104 9.3749487 26.958867 9.5275838 26.86451 C 9.6829941 26.767379 9.802446 26.637055 9.8857015 26.473319 C 9.9689568 26.309584 10.010242 26.129305 10.010242 25.932267 C 10.010242 25.732454 9.9689568 25.552176 9.8857015 25.391215 C 9.802446 25.227479 9.6829941 25.097998 9.5275838 25.003642 C 9.3749487 24.906511 9.1919525 24.858431 8.9782633 24.858431 z M 14.545882 24.858431 C 14.391079 24.862821 14.265425 24.900322 14.169161 24.970569 C 14.06648 25.045499 13.991548 25.124508 13.944368 25.207764 L 13.944368 24.891504 L 13.632243 24.891504 L 13.632243 26.973031 L 13.944368 26.973031 L 13.944368 25.728145 C 13.944368 25.542208 13.999759 25.397779 14.110767 25.295097 C 14.221774 25.192416 14.353456 25.141101 14.506091 25.141101 C 14.653176 25.141101 14.775346 25.195133 14.872477 25.303365 C 14.972384 25.408822 15.022339 25.549175 15.022339 25.724011 L 15.022339 26.973031 L 15.334465 26.973031 L 15.334465 25.728145 C 15.334465 25.542208 15.390372 25.397779 15.501379 25.295097 C 15.612387 25.192416 15.744069 25.141101 15.896704 25.141101 C 16.043789 25.141101 16.165958 25.195133 16.26309 25.303365 C 16.362997 25.408822 16.412952 25.549175 16.412952 25.724011 L 16.412952 26.973031 L 16.725077 26.973031 L 16.725077 25.715743 C 16.725077 25.540907 16.687353 25.389682 16.612423 25.262024 C 16.540268 25.131591 16.44631 25.031681 16.329753 24.962301 C 16.213195 24.892921 16.088308 24.858431 15.955098 24.858431 C 15.819115 24.858431 15.70238 24.883409 15.605249 24.933362 C 15.508116 24.983312 15.429107 25.041422 15.368054 25.108028 C 15.309777 25.174631 15.266616 25.23138 15.238863 25.27856 C 15.172259 25.145352 15.079143 25.042723 14.95981 24.970569 C 14.843253 24.895639 14.715647 24.858431 14.576888 24.858431 C 14.566308 24.858431 14.556202 24.858138 14.545882 24.858431 z M 18.148763 24.858431 C 17.937849 24.858431 17.754336 24.906511 17.598926 25.003642 C 17.443515 25.097998 17.32458 25.227479 17.241325 25.391215 C 17.158069 25.552176 17.116268 25.732454 17.116268 25.932267 C 17.116268 26.129305 17.159428 26.309584 17.245459 26.473319 C 17.334265 26.637055 17.457794 26.767379 17.615979 26.86451 C 17.774164 26.958867 17.958519 27.006104 18.169434 27.006104 C 18.416425 27.006104 18.617604 26.947995 18.773014 26.831437 C 18.931199 26.712105 19.046574 26.559522 19.11873 26.373584 L 18.777148 26.373584 C 18.721644 26.476264 18.643994 26.560709 18.544088 26.627315 C 18.444181 26.691142 18.320652 26.722917 18.173568 26.722917 C 18.034809 26.722917 17.912639 26.693863 17.807182 26.635583 C 17.701722 26.574529 17.617277 26.494161 17.553451 26.394255 C 17.492399 26.291573 17.453315 26.179433 17.436662 26.057324 L 19.181258 26.057324 L 19.181258 25.932267 C 19.181258 25.732454 19.139456 25.552176 19.056201 25.391215 C 18.972945 25.227479 18.853493 25.097998 18.698083 25.003642 C 18.545448 24.906511 18.362452 24.858431 18.148763 24.858431 z M 5.7893107 24.891504 L 6.6052816 26.973031 L 6.9716675 26.973031 L 7.7835042 24.891504 L 7.441923 24.891504 L 6.7882161 26.639718 L 6.1308919 24.891504 L 5.7893107 24.891504 z M 11.255127 24.891504 L 11.255127 26.102799 C 11.255127 26.299837 11.293694 26.466527 11.371399 26.602511 C 11.45188 26.73572 11.556383 26.836989 11.684041 26.906368 C 11.8117 26.972975 11.9461 27.006104 12.087634 27.006104 C 12.25692 27.006104 12.395914 26.971613 12.504146 26.902234 C 12.612378 26.832854 12.703618 26.747892 12.778548 26.647986 L 12.778548 26.973031 L 13.090674 26.973031 L 13.090674 24.891504 L 12.778548 24.891504 L 12.778548 26.090397 C 12.778548 26.215281 12.749495 26.324703 12.691215 26.419059 C 12.635711 26.513412 12.560778 26.588345 12.466423 26.643852 C 12.372066 26.696578 12.266721 26.722917 12.150163 26.722917 C 11.980877 26.722917 11.840524 26.666167 11.729517 26.552384 C 11.621285 26.435827 11.567253 26.283244 11.567253 26.094531 L 11.567253 24.891504 L 11.255127 24.891504 z M 8.9782633 25.141101 C 9.1336737 25.141101 9.263997 25.177467 9.3694539 25.249622 C 9.4776858 25.321776 9.559413 25.417609 9.614917 25.536943 C 9.6704209 25.656275 9.698116 25.787957 9.698116 25.932267 C 9.698116 26.073802 9.6704209 26.205484 9.614917 26.327592 C 9.5594133 26.446925 9.4776861 26.542758 9.3694539 26.614913 C 9.263997 26.687068 9.1336737 26.722917 8.9782633 26.722917 C 8.8256282 26.722917 8.6947881 26.687068 8.586556 26.614913 C 8.4783241 26.542758 8.3965969 26.446925 8.3410929 26.327592 C 8.285589 26.205484 8.2578939 26.073802 8.2578939 25.932267 C 8.2578939 25.787957 8.285589 25.656275 8.3410929 25.536943 C 8.3965966 25.417609 8.4783238 25.321776 8.586556 25.249622 C 8.6947881 25.177467 8.8256282 25.141101 8.9782633 25.141101 z M 18.148763 25.141101 C 18.348576 25.141101 18.509313 25.201086 18.631421 25.320418 C 18.753527 25.439752 18.82846 25.588257 18.856213 25.765869 L 17.440796 25.765869 C 17.471323 25.588257 17.546256 25.439752 17.665588 25.320418 C 17.787697 25.201086 17.94895 25.141101 18.148763 25.141101 z "
       style="font-size:4.16278px;font-family:Questrial;-inkscape-font-specification:'Questrial, Normal';letter-spacing:0px;word-spacing:0px;stroke-width:0.1;fill:none;stroke:#000000;stroke-opacity:1;stroke-dasharray:none" />
    <path
       id="path2973"
       d="M 35.10225 54.097473 L 35.10225 57.011507 L 35.414376 57.011507 L 35.414376 56.353666 L 35.806083 55.96661 L 36.534204 57.011507 L 36.917643 57.011507 L 36.018473 55.750085 L 36.855115 54.92998 L 36.417932 54.92998 L 35.414376 55.962476 L 35.414376 54.097473 L 35.10225 54.097473 z M 27.913542 54.184806 L 27.913542 54.92998 L 27.488761 54.92998 L 27.488761 55.204899 L 27.913542 55.204899 L 27.913542 57.011507 L 28.225667 57.011507 L 28.225667 55.204899 L 28.704191 55.204899 L 28.704191 54.92998 L 28.225667 54.92998 L 28.225667 54.184806 L 27.913542 54.184806 z M 29.270565 54.184806 L 29.270565 54.92998 L 28.845785 54.92998 L 28.845785 55.204899 L 29.270565 55.204899 L 29.270565 57.011507 L 29.58269 57.011507 L 29.58269 55.204899 L 30.061214 55.204899 L 30.061214 54.92998 L 29.58269 54.92998 L 29.58269 54.184806 L 29.270565 54.184806 z M 26.08988 54.896908 C 25.887292 54.896908 25.709732 54.945503 25.557096 55.042635 C 25.407237 55.136991 25.290503 55.265956 25.207247 55.429692 C 25.123992 55.590653 25.082707 55.770931 25.082707 55.970744 C 25.082707 56.167782 25.123992 56.34806 25.207247 56.511796 C 25.290503 56.675532 25.407237 56.805855 25.557096 56.902987 C 25.709732 56.997343 25.887292 57.04458 26.08988 57.04458 C 26.261942 57.04458 26.409089 57.011451 26.531197 56.944845 C 26.65608 56.87824 26.757349 56.789201 26.835055 56.678194 L 26.835055 57.011507 L 27.14718 57.011507 L 27.14718 54.92998 L 26.835055 54.92998 L 26.835055 55.267428 C 26.757349 55.153647 26.65608 55.06325 26.531197 54.996643 C 26.409089 54.930036 26.261942 54.896908 26.08988 54.896908 z M 31.239437 54.896908 C 31.036849 54.896908 30.859288 54.945503 30.706653 55.042635 C 30.556793 55.136991 30.440059 55.265956 30.356803 55.429692 C 30.273548 55.590653 30.231746 55.770931 30.231746 55.970744 C 30.231746 56.167782 30.273548 56.34806 30.356803 56.511796 C 30.440059 56.675532 30.556793 56.805855 30.706653 56.902987 C 30.859288 56.997343 31.036849 57.04458 31.239437 57.04458 C 31.411499 57.04458 31.558646 57.011451 31.680754 56.944845 C 31.805637 56.87824 31.906906 56.789201 31.984611 56.678194 L 31.984611 57.011507 L 32.296737 57.011507 L 32.296737 54.92998 L 31.984611 54.92998 L 31.984611 55.267428 C 31.906906 55.153647 31.805637 55.06325 31.680754 54.996643 C 31.558646 54.930036 31.411499 54.896908 31.239437 54.896908 z M 33.732825 54.896908 C 33.524686 54.896908 33.344408 54.945503 33.191772 55.042635 C 33.039137 55.136991 32.919685 55.265956 32.833655 55.429692 C 32.7504 55.590653 32.708598 55.770931 32.708598 55.970744 C 32.708598 56.167782 32.7504 56.34806 32.833655 56.511796 C 32.919685 56.675532 33.039137 56.805855 33.191772 56.902987 C 33.344408 56.997343 33.524686 57.04458 33.732825 57.04458 C 33.979816 57.04458 34.189149 56.981036 34.36121 56.853377 C 34.536048 56.725719 34.65414 56.560389 34.715194 56.3578 L 34.378263 56.3578 C 34.331085 56.477134 34.254793 56.574325 34.149337 56.649255 C 34.046655 56.724185 33.921768 56.761393 33.774683 56.761393 C 33.622047 56.761393 33.48849 56.725544 33.374707 56.653389 C 33.260924 56.581234 33.173761 56.485401 33.112708 56.366069 C 33.051654 56.24396 33.02124 56.112278 33.02124 55.970744 C 33.02124 55.826434 33.051654 55.694752 33.112708 55.575419 C 33.173762 55.456086 33.260925 55.360253 33.374707 55.288098 C 33.48849 55.215943 33.622047 55.179578 33.774683 55.179578 C 33.921768 55.179578 34.046655 55.217302 34.149337 55.292232 C 34.254791 55.367162 34.331083 55.464355 34.378263 55.583687 L 34.715194 55.583687 C 34.654139 55.381099 34.536047 55.215769 34.36121 55.08811 C 34.189149 54.960452 33.979816 54.896908 33.732825 54.896908 z M 26.131738 55.179578 C 26.287149 55.179578 26.417472 55.215943 26.522929 55.288098 C 26.631158 55.360253 26.712885 55.456086 26.768392 55.575419 C 26.823899 55.694752 26.851591 55.826434 26.851591 55.970744 C 26.851591 56.112278 26.823899 56.24396 26.768392 56.366069 C 26.712888 56.485401 26.631161 56.581234 26.522929 56.653389 C 26.417472 56.725544 26.287149 56.761393 26.131738 56.761393 C 25.979104 56.761393 25.847421 56.725544 25.736414 56.653389 C 25.625408 56.581234 25.540445 56.485401 25.482166 56.366069 C 25.423886 56.24396 25.394832 56.112278 25.394832 55.970744 C 25.394832 55.826434 25.423886 55.694752 25.482166 55.575419 C 25.540444 55.456086 25.625406 55.360253 25.736414 55.288098 C 25.847421 55.215943 25.979104 55.179578 26.131738 55.179578 z M 31.280778 55.179578 C 31.436189 55.179578 31.567028 55.215943 31.672485 55.288098 C 31.780715 55.360253 31.862442 55.456086 31.917948 55.575419 C 31.973455 55.694752 32.001147 55.826434 32.001147 55.970744 C 32.001147 56.112278 31.973455 56.24396 31.917948 56.366069 C 31.862444 56.485401 31.780717 56.581234 31.672485 56.653389 C 31.567028 56.725544 31.436189 56.761393 31.280778 56.761393 C 31.128143 56.761393 30.996461 56.725544 30.885453 56.653389 C 30.774447 56.581234 30.690002 56.485401 30.631722 56.366069 C 30.573442 56.24396 30.544389 56.112278 30.544389 55.970744 C 30.544389 55.826434 30.573442 55.694752 30.631722 55.575419 C 30.690001 55.456086 30.774446 55.360253 30.885453 55.288098 C 30.996461 55.215943 31.128143 55.179578 31.280778 55.179578 z "
       style="font-size:4.16278px;font-family:Questrial;-inkscape-font-specification:'Questrial, Normal';letter-spacing:0px;word-spacing:0px;stroke-width:0.1;fill:none;stroke:#000000;stroke-opacity:1;stroke-dasharray:none" />
    <path
       id="path2936"
       d="M 42.521952 54.097473 L 42.521952 57.011507 L 42.834078 57.011507 L 42.834078 55.812614 C 42.834078 55.687731 42.86177 55.577792 42.917277 55.483435 C 42.975556 55.386302 43.051847 55.311369 43.146204 55.258643 C 43.24056 55.205916 43.345905 55.179578 43.462463 55.179578 C 43.634525 55.179578 43.774877 55.238203 43.88311 55.354761 C 43.991341 55.468543 44.045374 55.619767 44.045374 55.80848 L 44.045374 57.011507 L 44.357499 57.011507 L 44.357499 55.800212 C 44.357499 55.603173 44.317574 55.437843 44.237093 55.304635 C 44.159388 55.168653 44.05676 55.067384 43.929102 55.000777 C 43.804218 54.931397 43.669301 54.896908 43.524992 54.896908 C 43.355705 54.896908 43.217228 54.931397 43.108997 55.000777 C 43.000764 55.070156 42.909008 55.154601 42.834078 55.254508 L 42.834078 54.097473 L 42.521952 54.097473 z M 50.585026 54.097473 L 50.585026 57.011507 L 50.897152 57.011507 L 50.897152 55.812614 C 50.897152 55.687731 50.925361 55.577792 50.980868 55.483435 C 51.039147 55.386302 51.115438 55.311369 51.209794 55.258643 C 51.304151 55.205916 51.409497 55.179578 51.526054 55.179578 C 51.698116 55.179578 51.837951 55.238203 51.946183 55.354761 C 52.054416 55.468543 52.108964 55.619767 52.108964 55.80848 L 52.108964 57.011507 L 52.42109 57.011507 L 52.42109 55.800212 C 52.42109 55.603173 52.380647 55.437843 52.300167 55.304635 C 52.222462 55.168653 52.119834 55.067384 51.992175 55.000777 C 51.867292 54.931397 51.732892 54.896908 51.588582 54.896908 C 51.419297 54.896908 51.280303 54.931397 51.17207 55.000777 C 51.063838 55.070156 50.972082 55.154601 50.897152 55.254508 L 50.897152 54.097473 L 50.585026 54.097473 z M 55.289132 54.097473 L 55.289132 57.011507 L 55.601257 57.011507 L 55.601257 54.097473 L 55.289132 54.097473 z M 57.765983 54.097473 L 57.765983 55.267428 C 57.688278 55.153647 57.587009 55.06325 57.462126 54.996643 C 57.340017 54.930036 57.19287 54.896908 57.020809 54.896908 C 56.81822 54.896908 56.64066 54.945503 56.488025 55.042635 C 56.338165 55.136991 56.221431 55.265956 56.138175 55.429692 C 56.05492 55.590653 56.013635 55.770931 56.013635 55.970744 C 56.013635 56.167782 56.05492 56.34806 56.138175 56.511796 C 56.221431 56.675532 56.338165 56.805855 56.488025 56.902987 C 56.64066 56.997343 56.81822 57.04458 57.020809 57.04458 C 57.19287 57.04458 57.340017 57.011451 57.462126 56.944845 C 57.587009 56.87824 57.688278 56.789201 57.765983 56.678194 L 57.765983 57.011507 L 58.078109 57.011507 L 58.078109 54.097473 L 57.765983 54.097473 z M 41.389722 54.184806 L 41.389722 54.92998 L 40.964941 54.92998 L 40.964941 55.204899 L 41.389722 55.204899 L 41.389722 57.011507 L 41.701847 57.011507 L 41.701847 55.204899 L 42.180371 55.204899 L 42.180371 54.92998 L 41.701847 54.92998 L 41.701847 54.184806 L 41.389722 54.184806 z M 45.932597 54.896908 C 45.814868 54.89951 45.711514 54.921422 45.623055 54.963053 C 45.531473 55.004682 45.455182 55.055996 45.394128 55.117049 C 45.333072 55.178104 45.285835 55.239447 45.252535 55.3005 C 45.222008 55.358777 45.201106 55.406014 45.190007 55.442094 L 45.190007 54.92998 L 44.877881 54.92998 L 44.877881 57.011507 L 45.190007 57.011507 L 45.190007 56.095801 C 45.190007 55.943166 45.219577 55.800095 45.277856 55.666886 C 45.33891 55.530903 45.424715 55.420963 45.535722 55.337708 C 45.649504 55.251677 45.783904 55.209033 45.939315 55.209033 L 45.977039 55.209033 L 45.977039 54.896908 L 45.956368 54.896908 C 45.948389 54.896908 45.940445 54.896734 45.932597 54.896908 z M 47.163529 54.896908 C 46.952616 54.896908 46.769103 54.945503 46.613692 55.042635 C 46.458282 55.136991 46.339347 55.265956 46.256091 55.429692 C 46.172836 55.590653 46.131034 55.770931 46.131034 55.970744 C 46.131034 56.167782 46.174195 56.34806 46.260225 56.511796 C 46.349031 56.675532 46.47256 56.805855 46.630745 56.902987 C 46.788931 56.997343 46.973286 57.04458 47.1842 57.04458 C 47.431191 57.04458 47.63237 56.986472 47.787781 56.869914 C 47.945967 56.750581 48.061341 56.597998 48.133496 56.412061 L 47.791915 56.412061 C 47.736411 56.51474 47.658761 56.599185 47.558854 56.665792 C 47.458948 56.729618 47.335419 56.761393 47.188334 56.761393 C 47.049575 56.761393 46.927405 56.73234 46.821948 56.67406 C 46.716489 56.613006 46.632044 56.532638 46.568217 56.432731 C 46.507165 56.330049 46.468082 56.217909 46.451428 56.095801 L 48.195508 56.095801 L 48.195508 55.970744 C 48.195508 55.770931 48.154224 55.590653 48.070968 55.429692 C 47.987712 55.265956 47.86826 55.136991 47.71285 55.042635 C 47.560215 54.945503 47.377219 54.896908 47.163529 54.896908 z M 49.302934 54.896908 C 49.033741 54.896908 48.829844 54.94958 48.691085 55.055037 C 48.555101 55.157719 48.486963 55.303508 48.486963 55.49222 C 48.486963 55.619879 48.520609 55.721148 48.587215 55.796077 C 48.653819 55.868233 48.739623 55.924983 48.845081 55.96661 C 48.950538 56.005463 49.061836 56.037238 49.178394 56.062211 C 49.297727 56.087184 49.409867 56.113523 49.515324 56.141276 C 49.620779 56.166251 49.706583 56.202617 49.773189 56.249797 C 49.839796 56.296975 49.873442 56.363237 49.873442 56.449268 C 49.873442 56.51865 49.8539 56.575917 49.815047 56.620317 C 49.776195 56.664723 49.7276 56.697852 49.66932 56.720052 C 49.613816 56.742252 49.555707 56.757201 49.494653 56.765527 C 49.433598 56.773854 49.382284 56.778446 49.340658 56.778446 C 49.207448 56.778446 49.098868 56.758905 49.015613 56.720052 C 48.932356 56.678421 48.870171 56.625749 48.828544 56.561922 C 48.789691 56.495318 48.766074 56.42718 48.757747 56.3578 L 48.433219 56.3578 C 48.441545 56.479908 48.480111 56.593924 48.549491 56.699382 C 48.618871 56.802066 48.718781 56.885152 48.849215 56.948979 C 48.982423 57.012805 49.145036 57.04458 49.336523 57.04458 C 49.594615 57.04458 49.799871 56.991907 49.952507 56.88645 C 50.107917 56.778218 50.185567 56.622917 50.185567 56.420329 C 50.185567 56.289895 50.152438 56.187267 50.085832 56.112337 C 50.019228 56.034631 49.932907 55.974647 49.82745 55.93302 C 49.721992 55.891393 49.609852 55.859619 49.490519 55.837419 C 49.373961 55.812439 49.262663 55.787461 49.157206 55.762488 C 49.051752 55.734739 48.965947 55.698891 48.899341 55.654484 C 48.832734 55.610081 48.799089 55.54602 48.799089 55.462764 C 48.799089 55.262951 48.964419 55.163041 49.294666 55.163041 C 49.469502 55.163041 49.59439 55.194816 49.66932 55.258643 C 49.747026 55.322472 49.791545 55.398763 49.802645 55.487569 L 50.118905 55.487569 C 50.107803 55.384887 50.071954 55.289571 50.010901 55.200765 C 49.952622 55.111956 49.864942 55.039741 49.748385 54.984241 C 49.634602 54.925961 49.486096 54.896908 49.302934 54.896908 z M 53.844775 54.896908 C 53.633862 54.896908 53.450349 54.945503 53.294938 55.042635 C 53.139528 55.136991 53.020592 55.265956 52.937337 55.429692 C 52.854081 55.590653 52.81228 55.770931 52.81228 55.970744 C 52.81228 56.167782 52.854081 56.34806 52.937337 56.511796 C 53.020592 56.675532 53.139528 56.805855 53.294938 56.902987 C 53.450349 56.997343 53.633862 57.04458 53.844775 57.04458 C 54.058465 57.04458 54.241461 56.997343 54.394096 56.902987 C 54.549506 56.805855 54.668958 56.675532 54.752214 56.511796 C 54.835469 56.34806 54.876754 56.167782 54.876754 55.970744 C 54.876754 55.770931 54.835469 55.590653 54.752214 55.429692 C 54.668958 55.265956 54.549506 55.136991 54.394096 55.042635 C 54.241461 54.945503 54.058465 54.896908 53.844775 54.896908 z M 47.163529 55.179578 C 47.363343 55.179578 47.524079 55.239562 47.646187 55.358895 C 47.768294 55.478228 47.843227 55.626735 47.87098 55.804346 L 46.455562 55.804346 C 46.486089 55.626735 46.561022 55.478228 46.680355 55.358895 C 46.802463 55.239562 46.963716 55.179578 47.163529 55.179578 z M 53.844775 55.179578 C 54.000185 55.179578 54.130509 55.215943 54.235966 55.288098 C 54.344195 55.360253 54.425922 55.456086 54.481429 55.575419 C 54.536936 55.694752 54.564628 55.826434 54.564628 55.970744 C 54.564628 56.112278 54.536936 56.24396 54.481429 56.366069 C 54.425926 56.485401 54.344199 56.581234 54.235966 56.653389 C 54.130509 56.725544 54.000185 56.761393 53.844775 56.761393 C 53.69214 56.761393 53.561817 56.725544 53.453585 56.653389 C 53.345356 56.581234 53.263112 56.485401 53.207605 56.366069 C 53.152098 56.24396 53.124406 56.112278 53.124406 55.970744 C 53.124406 55.826434 53.152098 55.694752 53.207605 55.575419 C 53.263108 55.456086 53.345352 55.360253 53.453585 55.288098 C 53.561817 55.215943 53.69214 55.179578 53.844775 55.179578 z M 57.062667 55.179578 C 57.218077 55.179578 57.3484 55.215943 57.453857 55.288098 C 57.562087 55.360253 57.643814 55.456086 57.69932 55.575419 C 57.754827 55.694752 57.78252 55.826434 57.78252 55.970744 C 57.78252 56.112278 57.754827 56.24396 57.69932 56.366069 C 57.643817 56.485401 57.562089 56.581234 57.453857 56.653389 C 57.3484 56.725544 57.218077 56.761393 57.062667 56.761393 C 56.910032 56.761393 56.777833 56.725544 56.666825 56.653389 C 56.555819 56.581234 56.471374 56.485401 56.413094 56.366069 C 56.354814 56.24396 56.325761 56.112278 56.325761 55.970744 C 56.325761 55.826434 56.354814 55.694752 56.413094 55.575419 C 56.471373 55.456086 56.555817 55.360253 56.666825 55.288098 C 56.777833 55.215943 56.910032 55.179578 57.062667 55.179578 z "
       style="font-size:4.16278px;font-family:Questrial;-inkscape-font-specification:'Questrial, Normal';letter-spacing:0px;word-spacing:0px;stroke-width:0.1;fill:none;stroke:#000000;stroke-opacity:1;stroke-dasharray:none" />
    <path
       id="path2914"
       d="M 30.384192 3.2768026 C 30.316529 3.2787318 30.253931 3.2950271 30.196606 3.3258952 C 30.135458 3.3588208 30.086299 3.4041836 30.049845 3.4618042 C 30.013392 3.5182486 29.995585 3.5832002 29.995585 3.6561076 C 29.995585 3.7301906 30.013015 3.7958909 30.048295 3.8535116 C 30.083572 3.9099559 30.131466 3.9544275 30.191439 3.9873535 C 30.252587 4.0191035 30.319553 4.0354126 30.39246 4.0354126 C 30.458311 4.0354126 30.518201 4.0199945 30.572294 3.9894206 C 30.627565 3.9576703 30.669131 3.9177439 30.697351 3.8695312 C 30.697351 3.9577256 30.686101 4.0375784 30.663761 4.1093099 C 30.642593 4.1810414 30.609369 4.2380256 30.563509 4.2803589 C 30.518824 4.3226922 30.459684 4.3439209 30.386776 4.3439209 C 30.343264 4.3439209 30.307509 4.3364706 30.279289 4.3211833 C 30.251069 4.3047206 30.228576 4.2842405 30.212109 4.2607218 C 30.196823 4.2360279 30.185203 4.2115192 30.176969 4.1868245 L 30.029175 4.1868245 C 30.039755 4.2326855 30.058455 4.2780483 30.085502 4.3227336 C 30.113727 4.3662431 30.152387 4.4019986 30.201774 4.4302205 C 30.251163 4.4584425 30.312692 4.4725952 30.386776 4.4725952 C 30.533767 4.4725952 30.644455 4.4188907 30.718538 4.3118815 C 30.792622 4.2048723 30.829643 4.0593192 30.829643 3.8746989 C 30.829643 3.683023 30.793513 3.5353133 30.720605 3.4318319 C 30.647698 3.3283504 30.539915 3.2768026 30.397628 3.2768026 C 30.393071 3.2768026 30.388703 3.276674 30.384192 3.2768026 z M 30.910775 3.2907552 L 31.383614 4.4586426 L 31.535026 4.4586426 L 32.007865 3.2907552 L 31.863171 3.2907552 L 31.459578 4.3087809 L 31.055469 3.2907552 L 30.910775 3.2907552 z M 30.388326 3.4054769 C 30.391381 3.4053942 30.394541 3.4054769 30.397628 3.4054769 C 30.448194 3.4054769 30.493557 3.4167239 30.533537 3.4390666 C 30.57469 3.4602332 30.606652 3.4901783 30.630172 3.5289836 C 30.654865 3.5677893 30.667379 3.613152 30.667379 3.6648926 C 30.667379 3.7131051 30.654865 3.7559369 30.630172 3.7935669 C 30.606658 3.8300209 30.574697 3.8586999 30.533537 3.8798665 C 30.492377 3.8998572 30.447014 3.9098389 30.397628 3.9098389 C 30.348241 3.9098391 30.302879 3.8985918 30.261719 3.8762492 C 30.221739 3.8539065 30.18926 3.8239615 30.164567 3.7863322 C 30.139874 3.7475263 30.127877 3.7043202 30.127877 3.6561076 C 30.127877 3.606719 30.139874 3.5629962 30.164567 3.5253662 C 30.18926 3.4877362 30.221739 3.4581662 30.261719 3.4369995 C 30.300306 3.4171558 30.342508 3.4067171 30.388326 3.4054769 z "
       style="font-size:1.76389px;font-family:Questrial;-inkscape-font-specification:'Questrial, Normal';letter-spacing:0px;word-spacing:0px;stroke-width:0.1;fill:none;stroke:#000000;stroke-opacity:1;stroke-dasharray:none" />
    <path
       style="display:inline;fill:none;stroke:#000000;stroke-opacity:1;stroke-linejoin:round;stroke-width:0.1;stroke-dasharray:none"
       d="m 4.2495329,80.405645 c -0.0944,0.01273 -0.1439061,0.0023 -0.1765181,-0.03702 -0.02658,-0.03203 -0.03651,-0.08972 -0.02401,-0.139518 0.01177,-0.0467 0.05594,-0.109149 0.09824,-0.138783 0.04232,-0.02962 0.212469,-0.148486 0.378119,-0.264121 0.165652,-0.115631 0.401281,-0.301964 0.523621,-0.414068 0.122346,-0.112101 0.319867,-0.325596 0.438946,-0.474426 0.119084,-0.148832 0.2875221,-0.406213 0.3743161,-0.571959 0.08679,-0.165748 0.1996059,-0.432677 0.2506909,-0.593177 0.07028,-0.220809 0.09724,-0.388818 0.110774,-0.690416 0.01356,-0.301895 0.0038,-0.461881 -0.04013,-0.65945 -0.03191,-0.143468 -0.104305,-0.353452 -0.160862,-0.46663 -0.05656,-0.113184 -0.1725229,-0.283294 -0.2577029,-0.378036 -0.0946,-0.105226 -0.2376221,-0.212994 -0.3675161,-0.276941 -0.1169459,-0.05757 -0.293162,-0.114225 -0.391577,-0.125878 -0.09842,-0.01164 -0.2759449,-0.0023 -0.394512,0.02087 -0.11857,0.02313 -0.318089,0.09574 -0.443384,0.161345 -0.125296,0.06561 -0.263172,0.156922 -0.306388,0.202923 -0.07858,0.08365 -0.07858,0.08365 -0.0028,0.08365 0.04166,0 0.133186,0.02395 0.203392,0.05324 0.0702,0.02928 0.1797391,0.102673 0.243413,0.163077 0.06368,0.06041 0.144443,0.171636 0.179487,0.247166 0.03744,0.08069 0.06403,0.215961 0.06448,0.327993 5.19e-4,0.137132 -0.02405,0.240445 -0.08759,0.367945 -0.0523,0.104944 -0.145309,0.219172 -0.2279679,0.279959 -0.07679,0.05648 -0.2185721,0.118557 -0.3150591,0.137943 -0.107066,0.02152 -0.2252149,0.02358 -0.303193,0.0053 -0.07027,-0.01649 -0.197235,-0.0707 -0.282143,-0.120451 -0.08491,-0.04976 -0.1989839,-0.155768 -0.253504,-0.235575 -0.05451,-0.07981 -0.118705,-0.205156 -0.142636,-0.27855 -0.02639,-0.08093 -0.03722,-0.229537 -0.02751,-0.377648 0.01205,-0.184706 0.04535,-0.306945 0.136519,-0.501695 0.06629,-0.141619 0.188318,-0.333621 0.27117,-0.426672 0.08285,-0.09308 0.262457,-0.242199 0.3991191,-0.331414 0.1366639,-0.08922 0.3685329,-0.203327 0.515266,-0.253584 0.1814019,-0.06213 0.3711739,-0.09755 0.5929409,-0.110692 0.241849,-0.01433 0.383832,-0.0047 0.549307,0.03699 0.122739,0.03097 0.323578,0.1062 0.4463141,0.167187 0.1468419,0.07296 0.3116339,0.199024 0.481884,0.368619 0.1985599,0.197797 0.2921129,0.325594 0.4022959,0.549553 0.07897,0.1605 0.1699011,0.399965 0.2020831,0.532142 0.03546,0.145639 0.05901,0.382347 0.05978,0.600806 7.78e-4,0.230242 -0.02138,0.459716 -0.06143,0.635139 -0.03448,0.151058 -0.1057131,0.382797 -0.1582771,0.514976 -0.05257,0.132171 -0.15238,0.340743 -0.22181,0.463478 -0.06943,0.122738 -0.2078699,0.331303 -0.307644,0.463479 -0.09977,0.132172 -0.303276,0.360256 -0.4522239,0.506841 -0.1489461,0.146541 -0.3922901,0.357314 -0.5407631,0.468341 -0.148474,0.111018 -0.399064,0.266724 -0.556866,0.345999 -0.157804,0.07927 -0.345953,0.152054 -0.4181079,0.16173 z m 4.094464,-1.843792 c -0.111181,-6.9e-5 -0.20668,-0.02319 -0.27105,-0.06562 -0.05466,-0.03604 -0.131021,-0.115484 -0.169677,-0.176535 -0.04496,-0.07101 -0.07029,-0.168814 -0.07029,-0.271419 0,-0.104638 0.02588,-0.202283 0.07445,-0.280872 0.04095,-0.06627 0.126311,-0.148401 0.189705,-0.182538 0.08675,-0.04672 0.163978,-0.05803 0.312254,-0.04574 0.169806,0.01409 0.214117,0.03346 0.320973,0.140311 0.108811,0.108809 0.125539,0.14832 0.136764,0.323124 0.01001,0.156612 -0.0022,0.223052 -0.05745,0.311043 -0.03864,0.06154 -0.1206,0.142593 -0.182134,0.180113 -0.07235,0.04412 -0.172547,0.06818 -0.283551,0.06813 z m 0,-2.301573 c -0.01888,-7.8e-4 -0.09613,-0.02319 -0.17166,-0.0499 -0.07553,-0.02672 -0.171559,-0.08809 -0.213397,-0.136367 -0.04185,-0.04828 -0.09264,-0.149334 -0.1128991,-0.224562 -0.02546,-0.09453 -0.02603,-0.176914 -0.0019,-0.266729 0.01925,-0.07147 0.08919,-0.182482 0.1554341,-0.246687 0.103358,-0.100182 0.148508,-0.118542 0.318232,-0.129438 0.155162,-0.01005 0.221907,0.0024 0.309683,0.05754 0.06154,0.03865 0.143501,0.1206 0.182134,0.182135 0.05511,0.08778 0.0675,0.15452 0.05754,0.309681 -0.01082,0.169604 -0.02929,0.214905 -0.129113,0.317904 -0.06403,0.06606 -0.171177,0.135325 -0.238104,0.15392 -0.06692,0.0186 -0.137133,0.03321 -0.156015,0.03249 z"
       id="path14142"
       sodipodi:nodetypes="sssssssssssssssssssssscsssssssssssssssssscsssssssssssssssssssssssssssssssssss" />
    <path
       id="path2893"
       d="M 13.340788 74.17325 C 13.254173 74.17325 13.178465 74.205349 13.114445 74.269368 C 13.050425 74.333388 13.018844 74.40858 13.018844 74.495194 L 13.018844 75.766435 C 13.018844 75.770168 13.016893 75.771602 13.013159 75.771602 C 13.009359 75.771602 13.005524 75.770168 13.00179 75.766435 C 12.75701 75.532952 12.474394 75.416069 12.154297 75.416069 C 11.800307 75.416069 11.516289 75.549702 11.301636 75.817078 C 11.090748 76.080687 10.984859 76.455245 10.984859 76.94104 C 10.984859 77.411772 11.095987 77.784928 11.318172 78.059835 C 11.540357 78.330977 11.819136 78.466528 12.154297 78.466528 C 12.496989 78.466528 12.792519 78.327139 13.041064 78.048466 C 13.044864 78.044733 13.0487 78.042782 13.052433 78.042782 C 13.056167 78.042782 13.058118 78.044733 13.058118 78.048466 L 13.063802 78.08774 C 13.067569 78.17812 13.099667 78.255231 13.15992 78.31925 C 13.22394 78.379504 13.30105 78.409684 13.391431 78.409684 L 13.453442 78.409684 C 13.540056 78.409684 13.615765 78.377586 13.679785 78.313566 C 13.743805 78.249546 13.775387 78.174355 13.775387 78.08774 L 13.775387 74.495194 C 13.775387 74.408581 13.743805 74.333388 13.679785 74.269368 C 13.615766 74.205349 13.540057 74.17325 13.453442 74.17325 L 13.340788 74.17325 z M 15.075049 74.17325 C 14.988435 74.17325 14.912726 74.205349 14.848706 74.269368 C 14.784686 74.333388 14.752588 74.40858 14.752588 74.495194 L 14.752588 74.529301 C 14.752588 74.615915 14.784686 74.691107 14.848706 74.755127 C 14.912725 74.819147 14.988434 74.851245 15.075049 74.851245 L 15.22181 74.851245 C 15.308424 74.851245 15.383616 74.819147 15.447636 74.755127 C 15.511656 74.691108 15.543754 74.615916 15.543754 74.529301 L 15.543754 74.495194 C 15.543754 74.408581 15.511656 74.333388 15.447636 74.269368 C 15.383617 74.205349 15.308424 74.17325 15.22181 74.17325 L 15.075049 74.17325 z M 20.074227 74.512248 C 19.987613 74.512248 19.911904 74.544346 19.847884 74.608366 C 19.787631 74.672385 19.75745 74.747577 19.75745 74.834192 L 19.75745 75.534408 C 19.75745 75.568301 19.740701 75.585567 19.706807 75.585567 L 19.435506 75.585567 C 19.360187 75.585567 19.296507 75.611912 19.243787 75.664632 C 19.191067 75.717354 19.164722 75.781035 19.164722 75.856352 C 19.164722 75.93167 19.191067 75.997786 19.243787 76.054272 C 19.296509 76.106992 19.360189 76.133337 19.435506 76.133337 L 19.706807 76.133337 C 19.740701 76.133337 19.75745 76.148686 19.75745 76.178813 L 19.75745 77.393209 C 19.75745 77.796155 19.83124 78.076335 19.978109 78.234501 C 20.124977 78.388901 20.380733 78.466528 20.746021 78.466528 C 20.828869 78.466528 20.953427 78.458857 21.119124 78.443791 C 21.198209 78.43626 21.263808 78.400324 21.316528 78.336304 C 21.373015 78.268518 21.401278 78.193327 21.401278 78.110478 C 21.401278 78.038929 21.373015 77.982406 21.316528 77.940979 C 21.260041 77.899552 21.194442 77.882803 21.119124 77.890336 C 21.073934 77.897869 21.0059 77.901188 20.915519 77.901188 C 20.74982 77.901188 20.640611 77.865769 20.587891 77.794218 C 20.535171 77.722667 20.508826 77.564609 20.508826 77.319828 L 20.508826 76.178813 C 20.508826 76.148686 20.526092 76.133337 20.559985 76.133337 L 21.203874 76.133337 C 21.279192 76.133337 21.342873 76.106992 21.395593 76.054272 C 21.45208 75.997785 21.480343 75.931669 21.480343 75.856352 C 21.480343 75.781033 21.45208 75.717352 21.395593 75.664632 C 21.342871 75.611912 21.27919 75.585567 21.203874 75.585567 L 20.559985 75.585567 C 20.526092 75.585567 20.508826 75.568301 20.508826 75.534408 L 20.508826 74.834192 C 20.508826 74.747578 20.476727 74.672386 20.412708 74.608366 C 20.348688 74.544346 20.273496 74.512248 20.186882 74.512248 L 20.074227 74.512248 z M 17.605644 75.416069 C 17.210229 75.416069 16.910863 75.493179 16.707507 75.647579 C 16.507917 75.798213 16.407784 76.008957 16.407784 76.280098 C 16.407784 76.521113 16.49065 76.717026 16.656348 76.86766 C 16.825811 77.018293 17.108428 77.137096 17.503841 77.22371 C 17.67707 77.268901 17.795872 77.319669 17.859892 77.376156 C 17.927677 77.432644 17.961178 77.509754 17.961178 77.607666 C 17.961178 77.811022 17.790206 77.912557 17.447514 77.912557 C 17.229094 77.912557 16.997246 77.879056 16.752466 77.811271 C 16.68468 77.792438 16.620483 77.801516 16.560229 77.839176 C 16.503743 77.876835 16.47548 77.931439 16.47548 78.002991 C 16.47548 78.093371 16.501825 78.174319 16.554545 78.24587 C 16.607267 78.313658 16.675301 78.357268 16.75815 78.376095 C 17.021759 78.436348 17.279951 78.466528 17.532263 78.466528 C 17.920146 78.466528 18.215675 78.39082 18.419031 78.240186 C 18.622387 78.089552 18.723922 77.878807 18.723922 77.607666 C 18.723922 77.325228 18.642974 77.110646 18.481042 76.963778 C 18.322877 76.81691 18.027348 76.700026 17.594275 76.613411 C 17.439876 76.579518 17.330666 76.532588 17.266646 76.472335 C 17.202626 76.412082 17.170528 76.336889 17.170528 76.246509 C 17.170528 76.058216 17.340097 75.963839 17.679024 75.963839 C 17.912507 75.963839 18.134762 75.990184 18.34565 76.042904 C 18.417202 76.061737 18.480883 76.050741 18.53737 76.009314 C 18.593856 75.964124 18.622119 75.905682 18.622119 75.834131 C 18.622119 75.747517 18.595774 75.671808 18.543054 75.607788 C 18.494098 75.539999 18.428499 75.498825 18.34565 75.483765 C 18.10087 75.438571 17.854189 75.416069 17.605644 75.416069 z M 15.075049 75.472396 C 14.988435 75.472396 14.912726 75.504494 14.848706 75.568514 C 14.784686 75.632533 14.752588 75.707725 14.752588 75.79434 L 14.752588 78.08774 C 14.752588 78.174355 14.784686 78.249546 14.848706 78.313566 C 14.912725 78.377586 14.988434 78.409684 15.075049 78.409684 L 15.22181 78.409684 C 15.308424 78.409684 15.383616 78.377586 15.447636 78.313566 C 15.511656 78.249546 15.543754 78.174355 15.543754 78.08774 L 15.543754 75.79434 C 15.543754 75.707726 15.511656 75.632534 15.447636 75.568514 C 15.383617 75.504494 15.308424 75.472396 15.22181 75.472396 L 15.075049 75.472396 z M 12.380123 75.980892 C 12.557118 75.980892 12.709938 76.039333 12.837976 76.156075 C 12.966015 76.272816 13.030212 76.40645 13.030212 76.557084 L 13.030212 77.325513 C 13.030212 77.476147 12.966015 77.609781 12.837976 77.726522 C 12.709938 77.843264 12.557118 77.901188 12.380123 77.901188 C 12.180533 77.901188 12.022475 77.822159 11.905733 77.663993 C 11.788992 77.502061 11.73055 77.261137 11.73055 76.94104 C 11.73055 76.300845 11.94705 75.980892 12.380123 75.980892 z "
       style="display:inline;fill:none;stroke:#000000;stroke-opacity:1;stroke-linejoin:round;font-weight:bold;font-size:5.64878px;font-family:'Rounded Mplus 1c Bold';-inkscape-font-specification:'Rounded Mplus 1c Bold, Bold';stroke-width:0.1;stroke-dasharray:none" />
    <path
       id="path17749"
       style="display:inline;fill:none;stroke:#000000;stroke-opacity:1;stroke-linejoin:round;stroke-width:4.13379273;stroke-dasharray:none"
       d="M -387.03637 -595.02169 L -388.55307 -593.50499 L -390.06976 -591.98829 L -390.06976 -202.41013 L -390.06976 187.18941 L -388.74532 188.68474 L -387.42088 190.18008 L 2.3922699 190.22281 L 392.20542 190.26553 L 393.70076 188.74883 L 395.21746 187.23213 L 395.21746 -202.3674 L 395.21746 -591.98829 L 393.70076 -593.50499 L 392.20542 -595.02169 L 2.5845276 -595.02169 L -387.03637 -595.02169 z M -259.88995 -591.86012 L -259.88995 -528.351 L -259.88995 -464.84187 L -323.39907 -464.84187 L -386.90819 -464.84187 L -386.63049 -528.07329 L -386.35278 -591.30471 L -323.12136 -591.58242 L -259.88995 -591.86012 z M -129.94511 -591.86012 L -129.26153 -563.53416 L -128.55658 -535.22955 L -127.55257 -507.18129 L -126.54856 -479.13303 L -126.54856 -471.97677 L -126.52719 -464.84187 L -191.12578 -464.84187 L -255.72436 -464.84187 L -256.23705 -466.16632 L -256.72837 -467.49076 L -256.45067 -529.39774 L -256.17296 -591.30471 L -193.06972 -591.58242 L -129.94511 -591.86012 z M 265.03764 -591.86012 L 328.29042 -591.58242 L 391.52184 -591.30471 L 391.79954 -528.07329 L 392.05589 -464.84187 L 326.81644 -464.84187 L 261.55564 -464.84187 L 262.28195 -484.68714 L 263.00825 -504.53241 L 264.01226 -538.92517 L 264.99491 -573.31794 L 265.01628 -582.58903 L 265.03764 -591.86012 z M -125.48046 -591.83876 L -62.612192 -591.83876 L 0.23471137 -591.83876 L 0.8969323 -576.22316 L 1.5377913 -560.62893 L 2.6272515 -537.87844 L 3.6953498 -515.10658 L 5.2334114 -493.93687 L 6.7928349 -472.78853 L 7.348246 -468.8152 L 7.9036571 -464.84187 L -57.122167 -464.84187 L -122.12663 -464.84187 L -122.74613 -472.51082 L -123.36562 -480.17977 L -124.41236 -512.20135 L -125.48046 -544.22294 L -125.48046 -568.04153 L -125.48046 -591.83876 z M 4.6993622 -591.83876 L 67.674437 -591.83876 L 130.64951 -591.83876 L 130.62815 -576.22316 L 130.62815 -560.62893 L 129.58141 -540.50596 L 128.53468 -520.40435 L 126.93253 -498.1879 L 125.30902 -475.9501 L 124.68952 -470.39599 L 124.04866 -464.84187 L 67.695799 -464.84187 L 11.321572 -464.84187 L 10.680713 -470.93003 L 10.039854 -477.0182 L 8.4377062 -498.70059 L 6.8569208 -520.40435 L 5.7888225 -541.04001 L 4.7207242 -561.67567 L 4.7207242 -576.75721 L 4.6993622 -591.83876 z M 135.0928 -591.83876 L 197.96107 -591.83876 L 260.80797 -591.83876 L 260.80797 -567.22978 L 260.82933 -542.62079 L 259.73987 -510.34286 L 258.67177 -478.06493 L 258.07364 -471.46408 L 257.4755 -464.84187 L 192.4924 -464.84187 L 127.5093 -464.84187 L 128.00063 -467.7471 L 128.51332 -470.67369 L 130.07274 -492.89014 L 131.65352 -515.10658 L 132.70026 -534.6955 L 133.747 -554.26306 L 134.40922 -573.06159 L 135.0928 -591.83876 z M 6.1519759 -461.6803 L 7.0278165 -460.82582 L 7.8822951 -459.94998 L 12.133326 -416.09387 L 16.384357 -372.23775 L 19.011879 -345.91981 L 21.639401 -319.60187 L 21.639401 -319.19599 L 21.639401 -318.79011 L 10.253473 -319.00373 L -1.1324544 -319.23872 L -11.172578 -319.55915 L -21.234064 -319.87957 L -68.209027 -321.95169 L -115.18399 -324.0238 L -115.48306 -324.32286 L -115.76076 -324.62193 L -118.51646 -381.23114 L -121.27215 -437.86171 L -121.52849 -449.50398 L -121.78484 -461.14625 L -57.80575 -461.4026 L 6.1519759 -461.6803 z M 129.17554 -461.6803 L 193.13326 -461.4026 L 257.11235 -461.14625 L 256.79192 -446.8551 L 256.47149 -432.56394 L 253.92942 -380.8039 L 251.38734 -329.0225 L 250.02018 -328.16802 L 248.63165 -327.29218 L 245.76915 -327.27082 L 242.90664 -327.24945 L 210.84233 -324.66466 L 178.79938 -322.07986 L 159.74451 -321.01176 L 140.68964 -319.9223 L 127.08206 -319.21735 L 113.47449 -318.53377 L 114.13671 -323.682 L 114.79893 -328.8516 L 118.51592 -366.93999 L 122.25426 -405.04973 L 124.83906 -432.49986 L 127.42386 -459.94998 L 128.2997 -460.80446 L 129.17554 -461.6803 z M 12.453756 -461.65894 L 67.781247 -461.65894 L 123.10874 -461.65894 L 123.53598 -460.86855 L 123.98458 -460.07816 L 123.06601 -450.55072 L 122.16881 -441.02328 L 116.23019 -380.1844 L 110.31292 -319.32416 L 110.07794 -319.06782 L 109.8216 -318.79011 L 78.163162 -318.4056 L 46.504729 -318.02108 L 35.823746 -318.44832 L 25.164125 -318.8542 L 20.614027 -365.12422 L 16.063928 -411.39424 L 13.756836 -436.02458 L 11.449743 -460.65493 L 11.962431 -461.16762 L 12.453756 -461.65894 z M -386.35278 -461.14625 L -323.37771 -461.14625 L -260.42399 -461.14625 L -260.14629 -396.31269 L -259.86858 -331.50048 L -272.32261 -331.65002 L -284.75527 -331.82091 L -307.50577 -332.63267 L -330.25626 -333.46579 L -358.58223 -334.19209 L -386.90819 -334.9184 L -386.63049 -398.02165 L -386.35278 -461.14625 z M -256.17296 -461.14625 L -191.10442 -461.14625 L -126.01451 -461.14625 L -125.26684 -446.8551 L -124.54053 -432.56394 L -122.38297 -386.52891 L -120.22541 -340.49387 L -119.60592 -332.29088 L -118.98642 -324.08788 L -122.48978 -324.21605 L -126.01451 -324.34423 L -173.63033 -326.77949 L -221.26751 -329.19339 L -238.72024 -330.09059 L -256.17296 -330.96644 L -256.17296 -396.05634 L -256.17296 -461.14625 z M 261.34202 -461.14625 L 326.43193 -461.14625 L 391.52184 -461.14625 L 391.79954 -398.04301 L 392.05589 -334.9184 L 366.91285 -334.23482 L 341.76982 -333.55123 L 319.55338 -332.46177 L 297.31557 -331.39367 L 277.21396 -329.85561 L 257.11235 -328.33891 L 256.04425 -328.31755 L 254.97615 -328.31755 L 255.36067 -336.79825 L 255.74518 -345.27895 L 258.5436 -403.2126 L 261.34202 -461.14625 z M -386.88683 -330.43239 L -363.0896 -330.43239 L -339.27101 -330.43239 L -307.24942 -329.38565 L -275.22784 -328.31755 L -267.55889 -327.69805 L -259.88995 -327.07856 L -259.88995 -262.0741 L -259.88995 -197.091 L -261.21439 -197.24053 L -262.53883 -197.39006 L -285.28932 -199.24855 L -308.03982 -201.10705 L -331.85841 -202.26059 L -355.677 -203.41414 L -371.27124 -204.055 L -386.88683 -204.71722 L -386.88683 -267.56412 L -386.88683 -330.43239 z M 349.18242 -330.43239 L 370.60847 -330.43239 L 392.05589 -330.43239 L 392.05589 -267.56412 L 392.05589 -204.71722 L 377.48703 -204.07636 L 362.93953 -203.4355 L 344.95275 -202.34604 L 326.96598 -201.25658 L 307.9111 -199.12038 L 288.85623 -197.00555 L 271.4035 -194.39939 L 253.92942 -191.81459 L 251.47279 -191.23782 L 249.03753 -190.66104 L 249.67839 -206.83205 L 250.29788 -223.00306 L 252.43408 -273.28913 L 254.59164 -323.55383 L 255.31794 -324.25878 L 256.04425 -324.96372 L 280.39689 -326.65132 L 304.72817 -328.31755 L 326.96598 -329.36429 L 349.18242 -330.43239 z M -256.17296 -326.73677 L -244.01801 -326.45906 L -231.84168 -326.18135 L -175.74516 -323.46839 L -119.67 -320.73405 L -119.37093 -320.43499 L -119.07187 -320.13592 L -117.06384 -274.22905 L -115.03446 -228.30083 L -114.30815 -205.80668 L -113.56048 -183.33389 L -116.08119 -183.46206 L -118.6019 -183.56887 L -131.82496 -184.97876 L -145.04802 -186.36729 L -200.03372 -191.72914 L -255.01942 -197.091 L -255.8739 -197.94547 L -256.72837 -198.79995 L -256.45067 -262.75768 L -256.17296 -326.73677 z M 251.53688 -324.38695 L 250.87466 -316.03442 L 250.2338 -307.68189 L 248.61029 -267.99136 L 246.96542 -228.30083 L 246.21775 -209.26732 L 245.47008 -190.21244 L 224.83442 -186.83725 L 204.19876 -183.48342 L 181.4269 -180.25777 L 158.67641 -177.01075 L 143.87257 -175.47269 L 129.04736 -173.91326 L 116.08065 -173.16559 L 103.11394 -172.43929 L 103.11394 -179.25375 L 103.11394 -186.04686 L 104.73745 -210.89083 L 106.3396 -235.71343 L 108.39034 -260.06607 L 110.46245 -284.39735 L 111.616 -297.62041 L 112.76955 -310.86483 L 113.19679 -313.02238 L 113.62403 -315.17994 L 140.92462 -316.48302 L 168.20385 -317.7861 L 201.01583 -320.3709 L 233.82781 -322.97706 L 242.67166 -323.682 L 251.53688 -324.38695 z M -114.37223 -320.56316 L -74.681703 -318.70467 L -34.99117 -316.82481 L -6.6652036 -316.05578 L 21.660763 -315.28675 L 22.152088 -313.06511 L 22.643413 -310.86483 L 25.313659 -280.16768 L 28.005267 -249.47054 L 29.543328 -227.93767 L 31.102752 -206.40481 L 31.807697 -189.57158 L 32.534004 -172.73835 L 22.045278 -172.93061 L 11.577915 -173.12287 L 6.2801477 -173.46466 L 0.98238017 -173.82782 L -22.302163 -175.42996 L -45.565343 -177.03211 L -75.728439 -179.68099 L -105.89153 -182.32988 L -108.28407 -182.84256 L -110.65525 -183.37661 L -110.65525 -194.69846 L -110.65525 -206.04166 L -111.8088 -234.11128 L -112.94098 -262.18091 L -114.28679 -290.74185 L -115.61123 -319.32416 L -114.99173 -319.94366 L -114.37223 -320.56316 z M 25.86907 -315.09449 L 67.674437 -315.09449 L 109.4798 -315.09449 L 109.4798 -313.38554 L 109.4798 -311.69794 L 106.85228 -282.68839 L 104.24612 -253.70021 L 102.66534 -232.01781 L 101.08455 -210.31405 L 100.46505 -195.48885 L 99.845558 -180.68501 L 99.311509 -176.17763 L 98.756097 -171.69162 L 67.695799 -171.69162 L 36.614139 -171.69162 L 36.037366 -178.29247 L 35.460593 -184.91468 L 34.862458 -197.60368 L 34.264323 -210.31405 L 32.662175 -232.5305 L 31.08139 -254.7683 L 28.47523 -283.32925 L 25.86907 -311.91156 L 25.86907 -313.49235 L 25.86907 -315.09449 z M -386.88683 -200.25257 L -372.74521 -200.25257 L -358.62495 -200.25257 L -337.028 -199.18447 L -315.45242 -198.11637 L -293.74866 -196.51422 L -272.06627 -194.93344 L -265.97811 -194.29258 L -259.88995 -193.63036 L -259.88995 -137.27749 L -259.88995 -80.903264 L -265.44406 -80.283767 L -270.99817 -79.642908 L -293.21461 -78.040761 L -315.45242 -76.417251 L -335.55403 -75.370515 L -355.677 -74.323779 L -371.27124 -74.323779 L -386.88683 -74.323779 L -386.88683 -137.29885 L -386.88683 -200.25257 z M 361.89279 -200.25257 L 376.97434 -200.25257 L 392.05589 -200.25257 L 392.05589 -137.29885 L 392.05589 -74.323779 L 373.79141 -74.45195 L 355.52693 -74.580122 L 337.77513 -75.947288 L 320.02334 -77.335816 L 305.4972 -79.066135 L 290.97107 -80.817816 L 276.67991 -82.868565 L 262.41012 -84.940676 L 255.93744 -86.07286 L 249.48613 -87.183682 L 248.88799 -112.64715 L 248.31122 -138.08925 L 248.88799 -162.74095 L 249.48613 -187.39266 L 255.93744 -188.50349 L 262.41012 -189.61431 L 280.93094 -192.22047 L 299.45177 -194.84799 L 309.8764 -195.98017 L 320.32241 -197.11236 L 341.1076 -198.69314 L 361.89279 -200.25257 z M -255.12623 -193.58763 L -240.83507 -192.19911 L -226.54392 -190.81058 L -170.29786 -185.29919 L -114.05181 -179.80917 L -113.28277 -159.19487 L -112.51374 -138.58057 L -113.28277 -116.77 L -114.05181 -94.959438 L -114.20134 -94.809904 L -114.37223 -94.66037 L -169.93471 -89.213069 L -225.49718 -83.765767 L -237.13945 -82.740393 L -248.78172 -81.715019 L -252.11419 -81.266417 L -255.46802 -80.839178 L -256.08752 -81.458675 L -256.70701 -82.078172 L -256.70701 -137.40566 L -256.70701 -192.73315 L -255.91662 -193.16039 L -255.12623 -193.58763 z M 244.25245 -186.49546 L 244.85058 -186.49546 L 245.47008 -186.49546 L 245.47008 -137.29885 L 245.47008 -88.080885 L 243.35524 -88.166332 L 241.24041 -88.25178 L 223.23227 -91.306541 L 205.2455 -94.382664 L 183.5631 -97.522873 L 161.85934 -100.68444 L 146.52145 -102.26523 L 131.1622 -103.86738 L 117.93914 -104.55096 L 104.71609 -105.2559 L 103.39164 -106.92214 L 102.0672 -108.58837 L 102.0672 -137.96107 L 102.0672 -167.33378 L 103.3062 -168.08145 L 104.54519 -168.85048 L 123.66415 -170.26037 L 142.80447 -171.67026 L 164.35869 -174.38323 L 185.93428 -177.0962 L 215.09336 -181.79583 L 244.25245 -186.49546 z M -110.14257 -179.08286 L -107.49368 -179.08286 L -104.8448 -179.0615 L -95.317361 -178.05748 L -85.789925 -177.07483 L -60.390547 -174.93864 L -34.99117 -172.78108 L -20.700015 -171.7557 L -6.40886 -170.73033 L 6.8141968 -170.13219 L 20.037254 -169.5127 L 26.659463 -168.93592 L 33.26031 -168.33779 L 33.26031 -137.27749 L 33.26031 -106.19583 L 28.774298 -105.64042 L 24.266923 -105.10637 L 9.4630806 -104.48687 L -5.3621237 -103.86738 L -26.531832 -102.30795 L -47.70154 -100.72717 L -59.856498 -99.680432 L -72.032819 -98.612334 L -88.972858 -97.05291 L -105.89153 -95.493487 L -108.00637 -95.493487 L -110.14257 -95.493487 L -110.14257 -137.27749 L -110.14257 -179.08286 z M 36.443243 -168.50869 L 67.674437 -168.50869 L 98.884269 -168.50869 L 98.884269 -137.29885 L 98.884269 -106.06766 L 67.674437 -106.06766 L 36.443243 -106.06766 L 36.443243 -137.29885 L 36.443243 -168.50869 z M 67.48218 -157.87043 A 20.262991 20.262991 0 0 0 47.209674 -137.61928 A 20.262991 20.262991 0 0 0 67.48218 -117.34678 A 20.262991 20.262991 0 0 0 87.733323 -137.61928 A 20.262991 20.262991 0 0 0 67.48218 -157.87043 z M 37.468618 -102.88473 L 66.905406 -102.88473 L 96.363557 -102.88473 L 98.029791 -101.56028 L 99.696024 -100.25721 L 100.40097 -87.012786 L 101.08455 -73.789729 L 102.6867 -58.451838 L 104.28885 -43.092585 L 106.91637 -24.57176 L 109.54389 -6.050936 L 113.21815 15.823717 L 116.87104 37.69837 L 116.87104 39.10826 L 116.87104 40.518149 L 67.674437 40.518149 L 18.456468 40.518149 L 18.456468 39.898652 L 18.456468 39.279155 L 23.134739 10.20552 L 27.834371 -18.889477 L 30.568703 -40.379615 L 33.303034 -61.891115 L 34.435219 -80.006061 L 35.588765 -98.121008 L 36.528691 -100.51355 L 37.468618 -102.88473 z M 103.11394 -102.13706 L 115.03392 -101.43211 L 126.93253 -100.70581 L 142.80447 -99.125021 L 158.67641 -97.522873 L 184.07579 -93.869977 L 209.47517 -90.195719 L 227.22696 -87.183682 L 244.95739 -84.171645 L 245.38463 -83.744405 L 245.81187 -83.317166 L 246.98678 -61.07936 L 248.18305 -38.862915 L 250.83193 -4.4701506 L 253.48082 29.922614 L 254.35666 39.450051 L 255.2325 48.977488 L 254.59164 49.554261 L 253.95078 50.131034 L 244.42334 49.362003 L 234.89591 48.57161 L 200.50314 45.901365 L 166.08901 43.209757 L 143.87257 42.034849 L 121.65612 40.859941 L 121.20752 40.411339 L 120.73756 39.962738 L 116.25155 12.726232 L 111.76553 -14.531636 L 109.05256 -35.167295 L 106.31823 -55.802954 L 104.73745 -74.323779 L 103.1353 -92.844603 L 103.1353 -97.480149 L 103.11394 -102.13706 z M 18.905069 -101.83799 L 25.719537 -101.83799 L 32.512642 -101.83799 L 31.786335 -89.405326 L 31.060028 -76.972662 L 29.457881 -61.613409 L 27.877095 -46.275518 L 25.270935 -27.220644 L 22.664775 -8.1657706 L 18.69145 16.165508 L 14.739486 40.518149 L -4.3153873 41.265818 L -23.348899 42.013487 L -63.039431 43.636996 L -102.72996 45.281868 L -110.93296 45.922727 L -119.13595 46.542224 L -119.13595 43.871978 L -119.13595 41.201732 L -117.02112 15.973251 L -114.92765 -9.2338689 L -113.36822 -31.984362 L -111.78744 -54.734856 L -111.06113 -72.977975 L -110.33482 -91.221093 L -107.06644 -91.755143 L -103.7767 -92.26783 L -86.323974 -93.869977 L -68.849886 -95.450763 L -49.816374 -97.031548 L -30.761501 -98.633696 L -5.9175348 -100.23584 L 18.905069 -101.83799 z M -114.47904 -91.17837 L -114.07317 -90.772492 L -113.66729 -90.366615 L -114.88492 -66.206232 L -116.10255 -42.045848 L -117.55517 -22.456926 L -119.00778 -2.8893651 L -120.86627 20.672883 L -122.7034 44.213769 L -123.38698 45.30323 L -124.04921 46.39269 L -154.12685 47.930751 L -184.22586 49.468813 L -217.93504 51.07096 L -251.64423 52.673108 L -253.48136 52.673108 L -255.29712 52.673108 L -256.00207 51.968163 L -256.70701 51.263218 L -256.70701 -12.523612 L -256.70701 -76.310441 L -255.703 -76.929938 L -254.69899 -77.549435 L -226.3303 -80.219681 L -197.98297 -82.889927 L -156.22033 -87.034148 L -114.47904 -91.17837 z M 249.42204 -82.783117 L 251.83594 -82.783117 L 254.22848 -82.783117 L 271.06171 -80.198319 L 287.89494 -77.592159 L 306.88573 -75.477325 L 325.89788 -73.36249 L 341.76982 -72.294392 L 357.64176 -71.204932 L 374.83814 -70.521349 L 392.05589 -69.837766 L 392.05589 -6.9908625 L 392.05589 55.856041 L 365.33207 55.706507 L 338.60825 55.535611 L 321.13416 54.681133 L 303.68143 53.805292 L 281.55044 52.181783 L 259.39808 50.579635 L 259.03493 50.19512 L 258.67177 49.831966 L 255.57429 11.29498 L 252.4768 -27.220644 L 251.34462 -48.390352 L 250.21243 -69.56006 L 249.80656 -76.160908 L 249.42204 -82.783117 z M -259.88995 -77.442626 L -259.88995 -12.459526 L -259.88995 52.523574 L -266.51216 53.121709 L -273.113 53.719844 L -305.39093 54.787942 L -337.66886 55.877403 L -362.27785 55.856041 L -386.88683 55.856041 L -386.88683 -6.9908625 L -386.88683 -69.859128 L -368.10966 -70.542711 L -349.31113 -71.226294 L -329.74357 -72.251668 L -310.15465 -73.298404 L -287.93821 -74.87919 L -265.7004 -76.459975 L -262.79517 -76.9513 L -259.88995 -77.442626 z M 18.349658 43.978788 L 67.674437 43.978788 L 116.99922 43.978788 L 117.42646 44.427389 L 117.87506 44.854628 L 120.01125 58.034961 L 122.14745 71.193932 L 124.77497 91.850953 L 127.38113 112.48661 L 129.00464 134.16901 L 130.62815 155.87276 L 130.62815 171.48836 L 130.64951 171.48836 L 130.64951 187.0826 L 67.674437 187.0826 L 4.6993622 187.0826 L 4.6993622 172.00105 L 4.6993622 156.9195 L 6.3015096 135.77115 L 7.8822951 114.60145 L 9.5058045 100.31029 L 11.150676 86.019136 L 14.269523 65.468925 L 17.38837 44.940076 L 17.858333 44.448751 L 18.349658 43.978788 z M 13.457768 44.171045 L 13.714112 44.448751 L 13.970455 44.747819 L 12.005154 56.774605 L 10.039854 68.801392 L 7.3696079 89.842928 L 4.7207242 110.8631 L 3.0972148 134.42535 L 1.4737054 157.9876 L 0.85420837 172.5351 L 0.25607333 187.0826 L -62.612192 187.0826 L -125.48046 187.0826 L -125.48046 165.01569 L -125.48046 142.94878 L -124.41236 121.37319 L -123.34426 99.776242 L -121.67803 75.444963 L -120.01179 51.092322 L -119.30685 50.387377 L -118.6019 49.661071 L -81.560256 47.994837 L -44.518607 46.349966 L -15.530419 45.260506 L 13.457768 44.171045 z M 122.16881 44.448751 L 128.79102 44.854628 L 135.39187 45.260506 L 156.56158 46.39269 L 177.73128 47.524874 L 216.24691 50.622359 L 254.7839 53.698482 L 255.14705 54.082998 L 255.5102 54.446151 L 257.09099 76.043098 L 258.65041 97.661408 L 259.73987 119.83513 L 260.80797 142.00885 L 260.80797 164.54572 L 260.80797 187.0826 L 197.96107 187.0826 L 135.11416 187.0826 L 134.43058 169.88621 L 133.747 152.68983 L 132.65754 136.81789 L 131.58944 120.94595 L 129.4746 101.9338 L 127.35977 82.943013 L 124.77497 66.109784 L 122.16881 49.276555 L 122.16881 46.862653 L 122.16881 44.448751 z M -124.2201 50.045586 L -123.7715 50.750531 L -123.34426 51.455476 L -124.90368 71.920239 L -126.46311 92.36364 L -127.53121 115.11413 L -128.57794 137.88599 L -129.28289 162.47361 L -129.98783 187.0826 L -192.8561 187.0826 L -255.72436 187.0826 L -256.23705 185.75815 L -256.72837 184.45507 L -256.45067 120.4119 L -256.17296 56.39009 L -190.20721 53.207157 L -124.2201 50.045586 z M 260.27392 54.082998 L 277.74801 55.407439 L 295.20073 56.731881 L 317.43854 57.842704 L 339.65499 58.974888 L 365.86612 59.679833 L 392.05589 60.384777 L 391.79954 123.46666 L 391.52184 186.56991 L 328.41859 186.82625 L 265.33671 187.10396 L 264.63176 161.42688 L 263.92682 135.77115 L 262.77327 112.48661 L 261.64109 89.202069 L 260.33801 72.26203 L 259.03493 55.321992 L 259.65442 54.702495 L 260.27392 54.082998 z M -273.113 56.924139 L -266.51216 56.924139 L -259.88995 56.924139 L -259.88995 121.99269 L -259.88995 187.0826 L -322.67276 187.0826 L -385.47694 187.0826 L -386.18189 186.37765 L -386.88683 185.67271 L -386.88683 122.9967 L -386.88683 60.342054 L -355.39929 59.615747 L -323.91176 58.88944 L -298.51238 57.906789 L -273.113 56.924139 z "
       transform="matrix(0.02419086,0,0,0.02419086,48.191896,75.702488)" />
  </g>
</svg>
