<?xml version="1.0" encoding="UTF-8" standalone="no"?>
<svg
   xmlns:dc="http://purl.org/dc/elements/1.1/"
   xmlns:cc="http://creativecommons.org/ns#"
   xmlns:rdf="http://www.w3.org/1999/02/22-rdf-syntax-ns#"
   xmlns:svg="http://www.w3.org/2000/svg"
   xmlns="http://www.w3.org/2000/svg"
   xmlns:sodipodi="http://sodipodi.sourceforge.net/DTD/sodipodi-0.dtd"
   xmlns:inkscape="http://www.inkscape.org/namespaces/inkscape"
   width="210mm"
   height="297mm"
   viewBox="0 0 210 297"
   version="1.1"
   id="svg8"
   inkscape:version="1.0.2 (1.0.2+r75+1)"
   sodipodi:docname="center_negative.svg">
  <defs
     id="defs2" />
  <sodipodi:namedview
     id="base"
     pagecolor="#ffffff"
     bordercolor="#666666"
     borderopacity="1.0"
     inkscape:pageopacity="0.0"
     inkscape:pageshadow="2"
     inkscape:zoom="1.4"
     inkscape:cx="210.84189"
     inkscape:cy="113.82852"
     inkscape:document-units="mm"
     inkscape:current-layer="g3307"
     showgrid="false"
     inkscape:window-width="3840"
     inkscape:window-height="2105"
     inkscape:window-x="0"
     inkscape:window-y="360"
     inkscape:window-maximized="1"
     inkscape:document-rotation="0" />
  <metadata
     id="metadata5">
    <rdf:RDF>
      <cc:Work
         rdf:about="">
        <dc:format>image/svg+xml</dc:format>
        <dc:type
           rdf:resource="http://purl.org/dc/dcmitype/StillImage" />
        <dc:title></dc:title>
      </cc:Work>
    </rdf:RDF>
  </metadata>
  <g
     inkscape:label="Ebene 1"
     inkscape:groupmode="layer"
     id="layer1">
    <g
       id="g3307"
       style="fill:#000000;fill-opacity:1">
      <path
         style="opacity:1;vector-effect:none;fill:#000000;fill-opacity:1;stroke:none;stroke-width:0.70478;stroke-linecap:butt;stroke-linejoin:miter;stroke-miterlimit:4;stroke-dasharray:none;stroke-dashoffset:0;stroke-opacity:1"
         d="m 143.59841,26.758935 a 11.584516,11.584516 0 0 0 -11.51629,10.44116 h -28.12897 a 6.3003506,6.3003506 0 0 0 -6.192499,-5.15719 6.3003506,6.3003506 0 0 0 -6.300427,6.30043 6.3003506,6.3003506 0 0 0 6.300427,6.30043 6.3003506,6.3003506 0 0 0 6.191189,-5.15718 h 28.11902 a 11.584516,11.584516 0 0 0 11.52755,10.44141 11.584516,11.584516 0 0 0 11.5844,-11.5844 11.584516,11.584516 0 0 0 -11.5844,-11.58466 z m 0,2.30326 a 9.2811614,9.2811614 0 0 1 9.28114,9.2814 9.2811614,9.2811614 0 0 1 -9.28114,9.28115 9.2811614,9.2811614 0 0 1 -9.28114,-9.28115 9.2811614,9.2811614 0 0 1 9.28114,-9.2814 z"
         id="circle817"
         inkscape:connector-curvature="0" />
      <path
         style="opacity:1;vector-effect:none;fill:#000000;fill-opacity:1;stroke:none;stroke-width:0.70478;stroke-linecap:butt;stroke-linejoin:miter;stroke-miterlimit:4;stroke-dasharray:none;stroke-dashoffset:0;stroke-opacity:1"
         d="m 47.503946,26.758935 a 11.584516,11.584516 0 0 0 -11.584663,11.58466 11.584516,11.584516 0 0 0 11.584663,11.5844 11.584516,11.584516 0 0 0 11.516288,-10.44141 h 27.212864 c 0.587615,5.92603 5.572461,10.4412 11.527553,10.44141 2.237115,-0.004 4.425269,-0.65527 6.300169,-1.87572 v -2.90474 c -1.71327,1.58949 -3.96313,2.47413 -6.300169,2.47721 -5.125828,-10e-6 -9.281135,-4.15532 -9.281144,-9.28115 -1.33e-4,-5.12593 4.155216,-9.28139 9.281144,-9.2814 2.337639,0.004 4.587579,0.89055 6.300169,2.48166 v -2.91889 c -1.87595,-1.21703 -4.064032,-1.86511 -6.300169,-1.86603 -5.950685,0.006 -10.928974,4.51952 -11.516289,10.44116 H 59.031237 A 11.584516,11.584516 0 0 0 47.503946,26.758935 Z m 0,2.30326 a 9.2811614,9.2811614 0 0 1 9.281143,9.2814 9.2811614,9.2811614 0 0 1 -9.281143,9.28115 9.2811614,9.2811614 0 0 1 -9.281143,-9.28115 9.2811614,9.2811614 0 0 1 9.281143,-9.2814 z"
         id="circle817-9"
         inkscape:connector-curvature="0" />
      <g
         aria-label="+"
         style="font-style:normal;font-variant:normal;font-weight:bold;font-stretch:normal;font-size:42.3333px;line-height:1.25;font-family:'DejaVu Sans Mono';-inkscape-font-specification:'DejaVu Sans Mono, Bold';font-variant-ligatures:normal;font-variant-caps:normal;font-variant-numeric:normal;font-feature-settings:normal;text-align:start;letter-spacing:0px;word-spacing:0px;writing-mode:lr-tb;text-anchor:start;fill:#000000;fill-opacity:1;stroke:none;stroke-width:0.974319"
         id="text886"
         transform="matrix(0.50694673,0,0,0.50694673,42.636827,-36.938242)">
        <path
           d="m 12.139819,137.13119 v 8.88834 h 8.888346 v 4.9196 h -8.888346 v 8.92969 H 7.2408938 v -8.92969 h -8.9296873 v -4.9196 h 8.9296873 v -8.88834 z"
           style="font-style:normal;font-variant:normal;font-weight:bold;font-stretch:normal;font-size:42.3333px;font-family:'DejaVu Sans Mono';-inkscape-font-specification:'DejaVu Sans Mono, Bold';font-variant-ligatures:normal;font-variant-caps:normal;font-variant-numeric:normal;font-feature-settings:normal;text-align:start;writing-mode:lr-tb;text-anchor:start;fill:#000000;fill-opacity:1;stroke-width:0.974319"
           id="path892"
           inkscape:connector-curvature="0" />
      </g>
      <g
         aria-label="—"
         style="font-style:normal;font-variant:normal;font-weight:bold;font-stretch:normal;font-size:42.3333px;line-height:1.25;font-family:'DejaVu Sans Mono';-inkscape-font-specification:'DejaVu Sans Mono, Bold';font-variant-ligatures:normal;font-variant-caps:normal;font-variant-numeric:normal;font-feature-settings:normal;text-align:start;letter-spacing:0px;word-spacing:0px;writing-mode:lr-tb;text-anchor:start;fill:#000000;fill-opacity:1;stroke:none;stroke-width:0.974319"
         id="text890"
         transform="matrix(0.50694673,0,0,0.50694673,42.369557,-36.938242)">
        <path
           d="m 188.04466,145.95752 h 25.48682 v 5.08496 h -25.48682 z"
           style="font-style:normal;font-variant:normal;font-weight:bold;font-stretch:normal;font-size:42.3333px;font-family:'DejaVu Sans Mono';-inkscape-font-specification:'DejaVu Sans Mono, Bold';font-variant-ligatures:normal;font-variant-caps:normal;font-variant-numeric:normal;font-feature-settings:normal;text-align:start;writing-mode:lr-tb;text-anchor:start;fill:#000000;fill-opacity:1;stroke-width:0.974319"
           id="path895"
           inkscape:connector-curvature="0" />
      </g>
    </g>
  </g>
</svg>
