<?xml version="1.0" encoding="UTF-8" standalone="no"?>
<!-- Created with Inkscape (http://www.inkscape.org/) -->

<svg
   width="68mm"
   height="31.5mm"
   viewBox="0 0 68 31.5"
   version="1.1"
   id="svg319"
   inkscape:version="1.2.2 (b0a8486541, 2022-12-01)"
   sodipodi:docname="template_side_v3.svg"
   xml:space="preserve"
   xmlns:inkscape="http://www.inkscape.org/namespaces/inkscape"
   xmlns:sodipodi="http://sodipodi.sourceforge.net/DTD/sodipodi-0.dtd"
   xmlns="http://www.w3.org/2000/svg"
   xmlns:svg="http://www.w3.org/2000/svg"><sodipodi:namedview
     id="namedview321"
     pagecolor="#505050"
     bordercolor="#ffffff"
     borderopacity="1"
     inkscape:showpageshadow="0"
     inkscape:pageopacity="0"
     inkscape:pagecheckerboard="1"
     inkscape:deskcolor="#505050"
     inkscape:document-units="mm"
     showgrid="true"
     showborder="true"
     showguides="true"
     inkscape:zoom="8"
     inkscape:cx="72.0625"
     inkscape:cy="48.375"
     inkscape:current-layer="layer1"
     guidecolor="#ff031d"
     guideopacity="0.6"
     inkscape:lockguides="false"><sodipodi:guide
       position="34.000001,31.5"
       orientation="-1,0"
       id="guide444"
       inkscape:locked="false"
       inkscape:label=""
       inkscape:color="rgb(224,27,36)" /><sodipodi:guide
       position="14,31.500002"
       orientation="-1,0"
       id="guide2188"
       inkscape:locked="false"
       inkscape:label=""
       inkscape:color="rgb(224,27,36)" /><sodipodi:guide
       position="54.000001,31.500002"
       orientation="-1,0"
       id="guide2190"
       inkscape:locked="false"
       inkscape:label=""
       inkscape:color="rgb(224,27,36)" /><inkscape:grid
       type="xygrid"
       id="grid2270"
       units="mm"
       spacingx="0.99999998"
       spacingy="0.99999998"
       dotted="true"
       color="#2fb675"
       opacity="0.14901961"
       empcolor="#559253"
       empopacity="0.30196078"
       visible="true"
       originx="0"
       originy="0" /><sodipodi:guide
       position="0,12.5"
       orientation="0,1"
       id="guide189"
       inkscape:locked="false"
       inkscape:label=""
       inkscape:color="rgb(255,3,29)" /><sodipodi:guide
       position="0,17"
       orientation="0,1"
       id="guide191"
       inkscape:locked="false"
       inkscape:label=""
       inkscape:color="rgb(255,3,29)" /></sodipodi:namedview><defs
     id="defs316" /><g
     inkscape:groupmode="layer"
     id="layer1"
     inkscape:label="Layer 1"><path
       id="rect313"
       style="stroke-width:0.100994"
       d="M 8.3628239e-4,8.3628239e-4 H 67.999997 V 31.500001 H 8.3628239e-4 Z" /><text
       xml:space="preserve"
       style="font-style:normal;font-variant:normal;font-weight:normal;font-stretch:normal;font-size:4.40972px;line-height:1.25;font-family:Questrial;-inkscape-font-specification:'Questrial, Normal';font-variant-ligatures:normal;font-variant-caps:normal;font-variant-numeric:normal;font-variant-east-asian:normal;letter-spacing:0.185208px;fill:#ffffff;fill-opacity:1;stroke:none;stroke-width:0.1;stroke-dasharray:none;stroke-opacity:1"
       x="7.1504507"
       y="8.2701874"
       id="text2625-3-5-6-5"
       inkscape:label="VOLUME"><tspan
         sodipodi:role="line"
         id="tspan2623-6-6-7-3"
         style="font-style:normal;font-variant:normal;font-weight:normal;font-stretch:normal;font-size:4.40972px;font-family:Questrial;-inkscape-font-specification:'Questrial, Normal';font-variant-ligatures:normal;font-variant-caps:normal;font-variant-numeric:normal;font-variant-east-asian:normal;fill:#ffffff;fill-opacity:1;stroke:none;stroke-width:0.1;stroke-dasharray:none;stroke-opacity:1"
         x="7.1504507"
         y="8.2701874"><tspan
   style="fill:#ff0a0a;fill-opacity:1"
   id="tspan12589">I</tspan>NPUT</tspan></text><text
       xml:space="preserve"
       style="font-style:normal;font-variant:normal;font-weight:normal;font-stretch:normal;font-size:4.40972px;line-height:1.25;font-family:Questrial;-inkscape-font-specification:'Questrial, Normal';font-variant-ligatures:normal;font-variant-caps:normal;font-variant-numeric:normal;font-variant-east-asian:normal;letter-spacing:0.185208px;fill:#ffffff;fill-opacity:1;stroke:none;stroke-width:0.1;stroke-dasharray:none;stroke-opacity:1"
       x="44.826523"
       y="8.2701874"
       id="text2625-3-5-6"
       inkscape:label="VOLUME"><tspan
         sodipodi:role="line"
         id="tspan2623-6-6-7"
         style="font-style:normal;font-variant:normal;font-weight:normal;font-stretch:normal;font-size:4.40972px;font-family:Questrial;-inkscape-font-specification:'Questrial, Normal';font-variant-ligatures:normal;font-variant-caps:normal;font-variant-numeric:normal;font-variant-east-asian:normal;fill:#ffffff;fill-opacity:1;stroke:none;stroke-width:0.1;stroke-dasharray:none;stroke-opacity:1"
         x="44.826523"
         y="8.2701874"><tspan
   style="fill:#ff0a0a;fill-opacity:1"
   id="tspan12585">O</tspan>UTPUT</tspan></text><path
       sodipodi:type="star"
       style="fill:#4f4f4f;fill-opacity:1;stroke:none;stroke-width:0.1"
       id="path6643-3"
       inkscape:flatsided="true"
       sodipodi:sides="3"
       sodipodi:cx="53.999996"
       sodipodi:cy="6.9999995"
       sodipodi:r1="1.9999999"
       sodipodi:r2="0.99999994"
       sodipodi:arg1="1.5707963"
       sodipodi:arg2="2.6179939"
       inkscape:rounded="0"
       inkscape:randomized="0"
       d="m 53.999996,8.9999994 -1.732051,-2.9999998 3.464102,-10e-8 z"
       transform="matrix(-0.5386756,0.93301351,-0.93301351,-0.5386756,49.620523,-44.641756)"
       inkscape:transform-center-y="0.53867608" /><path
       id="path4681"
       style="fill:#ffffff;stroke-width:0.125"
       d="m 18.999999,18.999998 a 5,5 0 0 1 -5,5 5,5 0 0 1 -5,-5 5,5 0 0 1 5,-5 5,5 0 0 1 5,5 z" /><path
       id="path4891"
       style="fill:#ffffff;stroke-width:0.1"
       d="m 58.999996,18.999998 a 5,5 0 0 1 -5,5 5,5 0 0 1 -5,-5 5,5 0 0 1 5,-5 5,5 0 0 1 5,5 z" /><path
       id="path4893"
       style="fill:#ffffff;stroke-width:0.133333"
       d="m 38,14.5 a 4,4 0 0 1 -4,4 4,4 0 0 1 -4,-4 4,4 0 0 1 4,-4 4,4 0 0 1 4,4 z" /><path
       id="circle817-6"
       style="display:inline;vector-effect:none;fill:#505050;fill-opacity:1;stroke:none;stroke-width:0.102918;stroke-linecap:butt;stroke-linejoin:miter;stroke-miterlimit:4;stroke-dasharray:none;stroke-dashoffset:0;stroke-opacity:1"
       d="m 28.071511,0.81724838 c -0.934283,-1.2e-7 -1.691667,0.75738552 -1.691667,1.69166752 0,0.9342824 0.757384,1.6916682 1.691667,1.6916679 0.869077,-7.446e-4 1.5962,-0.6598967 1.68196,-1.5247324 h 2.885817 c 0.08581,0.8653668 0.813321,1.5247018 1.682933,1.5247324 0.326681,-5.84e-4 0.646294,-0.095477 0.92008,-0.273695 v -0.42413 c -0.250184,0.2321101 -0.578806,0.361565 -0.92008,0.3620148 -0.748515,-1.4e-6 -1.354885,-0.6073413 -1.354887,-1.3558577 -2e-5,-0.7485277 0.606356,-1.3548854 1.354887,-1.3548873 0.341361,5.84e-4 0.669996,0.1296643 0.92008,0.3620152 V 1.089973 C 34.968361,0.91224595 34.64876,0.81738362 34.322221,0.81724838 33.453254,0.81812548 32.726995,1.4772549 32.64123,2.3419823 H 29.754443 C 29.668647,1.4767765 28.940962,0.81749422 28.071511,0.81724838 Z m 11.856974,0 c -0.869078,7.4467e-4 -1.596201,0.65989782 -1.68196,1.52473392 h -3.019751 c -0.08048,-0.4363133 -0.460879,-0.7530421 -0.904552,-0.753146 -0.508158,-2.84e-5 -0.920109,0.4119216 -0.920081,0.9200796 -2.9e-5,0.5081585 0.411923,0.9201096 0.920081,0.9200811 0.443673,-1.039e-4 0.824075,-0.3168325 0.904552,-0.7531456 h 3.01878 c 0.08579,0.8652051 0.813483,1.5244861 1.682931,1.5247324 0.934284,1.3e-6 1.691671,-0.7573848 1.691671,-1.6916679 0,-0.9342828 -0.757388,-1.69166878 -1.691671,-1.69166752 z M 28.071511,1.1540286 c 0.748186,2.35e-4 1.354652,0.6067014 1.354887,1.3548873 3.01e-4,0.748565 -0.606321,1.3556227 -1.354887,1.3558577 -0.748944,3.015e-4 -1.356158,-0.6069132 -1.355858,-1.3558577 2.35e-4,-0.7485652 0.607293,-1.3551887 1.355858,-1.3548873 z m 11.856974,0 c 0.748565,-3.014e-4 1.355623,0.6063221 1.355857,1.3548873 3.02e-4,0.7489445 -0.606912,1.3561592 -1.355857,1.3558577 C 39.17992,3.8645386 38.573298,3.2574809 38.573599,2.5089159 38.573834,1.76073 39.180298,1.1542636 39.928485,1.1540286 Z M 27.896812,1.667451 v 0.658032 h -0.660943 v 0.3639548 h 0.660943 v 0.6609448 h 0.362015 V 2.6894378 H 28.91686 V 2.325483 H 28.258827 V 1.667451 Z m 11.067862,0.6531788 v 0.376574 h 1.88675 v -0.376574 z"
       sodipodi:nodetypes="csccccccccccccccccccccccccsccccccccccccccccccccccccccccc" /><text
       xml:space="preserve"
       style="font-style:normal;font-variant:normal;font-weight:normal;font-stretch:normal;font-size:4.40972px;line-height:1.25;font-family:Questrial;-inkscape-font-specification:'Questrial, Normal';font-variant-ligatures:normal;font-variant-caps:normal;font-variant-numeric:normal;font-variant-east-asian:normal;letter-spacing:0.185208px;fill:#ffffff;fill-opacity:1;stroke:none;stroke-width:0.1;stroke-dasharray:none;stroke-opacity:1"
       x="31.633373"
       y="8.2701874"
       id="text2625-3-5"
       inkscape:label="VOLUME"><tspan
         sodipodi:role="line"
         id="tspan2623-6-6"
         style="font-style:normal;font-variant:normal;font-weight:normal;font-stretch:normal;font-size:4.40972px;font-family:Questrial;-inkscape-font-specification:'Questrial, Normal';font-variant-ligatures:normal;font-variant-caps:normal;font-variant-numeric:normal;font-variant-east-asian:normal;fill:#ffffff;fill-opacity:1;stroke:none;stroke-width:0.1;stroke-dasharray:none;stroke-opacity:1"
         x="31.633373"
         y="8.2701874"><tspan
   style="fill:#ff0a0a;fill-opacity:1"
   id="tspan12587">9</tspan>V</tspan></text><path
       sodipodi:type="star"
       style="fill:#4f4f4f;fill-opacity:1;stroke:none;stroke-width:0.1"
       id="path6643"
       inkscape:flatsided="true"
       sodipodi:sides="3"
       sodipodi:cx="53.999996"
       sodipodi:cy="6.9999995"
       sodipodi:r1="1.9999999"
       sodipodi:r2="0.99999994"
       sodipodi:arg1="1.5707963"
       sodipodi:arg2="2.6179939"
       inkscape:rounded="0"
       inkscape:randomized="0"
       d="m 53.999996,8.9999994 -1.732051,-2.9999998 3.464102,-10e-8 z"
       inkscape:transform-center-y="-0.53867652"
       transform="matrix(0.5386756,-0.93301351,0.93301351,0.5386756,18.381372,49.659589)" /></g></svg>
