<?xml version="1.0" encoding="UTF-8" standalone="no"?>
<svg
   width="62mm"
   height="117mm"
   viewBox="0 0 62 117"
   version="1.1"
   id="svg8"
   inkscape:version="1.2.2 (b0a8486541, 2022-12-01)"
   sodipodi:docname="template_freecad.svg"
   inkscape:export-filename="/home/yann/_dev/98 - Graphics/graphics-pedals/Shining Pig/shining_pig_front_9V.png"
   inkscape:export-xdpi="96"
   inkscape:export-ydpi="96"
   xmlns:inkscape="http://www.inkscape.org/namespaces/inkscape"
   xmlns:sodipodi="http://sodipodi.sourceforge.net/DTD/sodipodi-0.dtd"
   xmlns="http://www.w3.org/2000/svg"
   xmlns:svg="http://www.w3.org/2000/svg"
   xmlns:rdf="http://www.w3.org/1999/02/22-rdf-syntax-ns#"
   xmlns:cc="http://creativecommons.org/ns#"
   xmlns:dc="http://purl.org/dc/elements/1.1/">
  <defs
     id="defs2" />
  <sodipodi:namedview
     id="base"
     pagecolor="#ffffff"
     bordercolor="#666666"
     borderopacity="1.0"
     inkscape:pageopacity="0"
     inkscape:pageshadow="2"
     inkscape:zoom="5.6568545"
     inkscape:cx="58.15953"
     inkscape:cy="376.18079"
     inkscape:document-units="mm"
     inkscape:current-layer="layer6"
     inkscape:document-rotation="0"
     showgrid="true"
     inkscape:window-width="3836"
     inkscape:window-height="2113"
     inkscape:window-x="0"
     inkscape:window-y="881"
     inkscape:window-maximized="1"
     showborder="true"
     inkscape:showpageshadow="false"
     inkscape:pagecheckerboard="true"
     inkscape:deskcolor="#d1d1d1">
    <sodipodi:guide
       position="-2.0168617,58.500093"
       orientation="0,117.16536"
       id="guide1967"
       inkscape:locked="false" />
    <sodipodi:guide
       position="31.001653,138.8865"
       orientation="-221.10236,0"
       id="guide1969"
       inkscape:locked="false" />
    <inkscape:grid
       type="xygrid"
       id="grid1973"
       visible="true"
       enabled="true"
       originx="31.000001"
       originy="58.500002"
       dotted="false" />
  </sodipodi:namedview>
  <metadata
     id="metadata5">
    <rdf:RDF>
      <cc:Work
         rdf:about="">
        <dc:format>image/svg+xml</dc:format>
        <dc:type
           rdf:resource="http://purl.org/dc/dcmitype/StillImage" />
      </cc:Work>
    </rdf:RDF>
  </metadata>
  <g
     inkscape:groupmode="layer"
     id="layer6"
     inkscape:label="Controls"
     style="display:inline;fill:none;stroke:#000000;stroke-opacity:1;stroke-width:0.1;stroke-dasharray:none">
    <path
       id="path2306"
       d="M 44.178699,1.1348145 V 2.3027018 H 44.31099 V 1.1348145 Z m 0.418062,0 v 1.1678873 h 0.132292 V 1.3167155 l 0.721403,0.9859863 h 0.153479 V 1.1348145 h -0.132292 v 0.9823689 l -0.72192,-0.9823689 z"
       style="font-size:1.76389px;line-height:1.25;font-family:Questrial;-inkscape-font-specification:'Questrial, Normal';letter-spacing:0px;word-spacing:0px;fill:none;stroke:#000000;stroke-width:0.1;stroke-opacity:1;stroke-dasharray:none" />
    <path
       id="rect7321-12-0"
       style="display:inline;fill:none;stroke:#000000;stroke-opacity:1;stroke-width:0.1;stroke-dasharray:none"
       inkscape:label="contour 2"
       d="m 39.825803,83.11005 c -0.0386,0.001 -0.0774,0.004 -0.11678,0.008 l -17.295587,1.97921 c -0.62996,0.0721 -1.181841,0.57823 -1.181841,1.17616 v 0.83664 H -0.08336609 v 0.49971 H 21.231595 v 0.32039 H -0.08336609 v 0.26975 H 21.231595 v 0.49765 H -0.08336609 v 0.49971 H 21.231595 v 0.32039 H -0.08336609 v 0.26975 H 21.231595 v 0.497651 H -0.08336609 v 0.49971 H 21.231595 v 0.32039 H -0.08336609 v 0.26975 H 21.231595 v 0.49765 H -0.08336609 v 0.49971 H 21.231595 v 0.32039 H -0.08336609 v 0.26975 H 21.231595 v 2.85203 c 0,0.59793 0.551881,0.97798 1.181841,0.90589 l 17.295587,-1.97921 c 0.62995,-0.0721 1.18339,-0.57874 1.18339,-1.17668 v -0.60203 h 21.19405 v -0.26975 h -21.19405 v -0.32039 h 21.19405 v -0.49971 h -21.19405 v -0.49765 h 21.19405 v -0.26975 h -21.19405 v -0.32039 h 21.19405 v -0.49971 H 40.892413 V 89.78741 h 21.19405 v -0.26975 h -21.19405 v -0.32039 h 21.19405 v -0.49971 h -21.19405 v -0.49765 h 21.19405 v -0.26975 h -21.19405 v -0.32039 h 21.19405 v -0.49971 h -21.19405 v -3.08662 c 0,-0.56056 -0.4867,-0.92914 -1.06661,-0.91364 z m -0.12247,0.51728 c 0.34943,0.004 0.69668,0.32591 0.6966,0.51677 l -0.004,9.339481 c -1.2e-4,0.26535 -0.37567,0.72215 -0.74259,0.76429 l -17.088877,1.96267 c -0.406242,0.0467 -0.832927,-0.19987 -0.833025,-0.56431 l -0.0026,-9.429391 c 0.0078,-0.31583 0.368014,-0.59936 0.684715,-0.61702 l 17.220137,-1.96887 c 0.0232,-0.003 0.0465,-0.004 0.0698,-0.004 z m -0.47594,0.30954 c -0.0328,0.001 -0.0662,0.003 -0.0997,0.007 L 22.99534,85.79389 c -0.536421,0.0615 -0.997355,0.46803 -0.997355,0.94051 v 8.449101 c 0,0.47248 0.460934,0.77361 0.997355,0.7121 l 16.132353,-1.85002 c 0.53642,-0.0615 0.9958,-0.46803 0.9958,-0.94051 V 84.65597 c 0,-0.44295 -0.40364,-0.73521 -0.89607,-0.71933 z m -0.0207,0.25322 c 0.38836,-0.0138 0.66638,0.21112 0.66611,0.49506 l -0.008,8.426361 c -2.2e-4,0.2353 -0.3831,0.61733 -0.74518,0.65939 l -16.124593,1.87275 c -0.429114,0.0498 -0.745421,-0.186 -0.745172,-0.48886 l 0.0072,-8.448581 c 2.27e-4,-0.27635 0.360569,-0.60732 0.738457,-0.65112 l 16.132138,-1.8588 c 0.0268,-0.003 0.0532,-0.005 0.0791,-0.006 z" />
    <path
       style="display:inline;fill:none;stroke:#000000;stroke-opacity:1;stroke-width:0.1;stroke-dasharray:none;fill-opacity:1"
       d="m 23.161331,95.064632 c -0.120771,-0.02418 -0.139707,-0.04935 -0.179314,-0.236953 -0.07562,-0.358235 -0.06161,-0.791145 0.04215,-1.302147 0.03309,-0.162922 0.07118,-0.228469 0.175234,-0.301408 0.107449,-0.07541 0.199303,-0.09889 0.3992,-0.10199 0.176103,-0.003 0.177993,-0.002 0.269511,0.0439 0.05386,0.02735 0.109546,0.06837 0.13397,0.09909 0.04816,0.06025 0.04798,0.05648 0.02853,0.560278 -0.01197,0.310159 -0.0041,0.369463 0.05278,0.39491 0.132158,0.05916 0.477615,0.04954 0.847085,-0.02418 0.327954,-0.065 0.594723,-0.114517 0.731805,-0.135821 0.06376,-0.01018 0.12336,-0.02269 0.132428,-0.02854 0.03731,-0.02408 0.175283,-0.686004 0.22404,-1.074897 0.0722,-0.575866 0.06026,-1.058886 -0.03341,-1.352724 -0.03353,-0.105163 -0.07037,-0.180927 -0.09986,-0.205341 -0.03157,-0.02626 -0.141686,-0.0088 -0.602856,0.09136 -0.571189,0.124911 -0.920686,0.190607 -1.076302,0.20228 -0.177863,0.01358 -0.659028,-0.003 -0.808142,-0.02715 -0.195395,-0.03191 -0.355675,-0.106073 -0.420264,-0.194771 -0.02482,-0.03399 -0.02597,-0.09542 -0.03381,-1.796978 -0.0044,-0.968971 -0.0085,-1.963884 -0.0092,-2.210953 l -9.73e-4,-0.44921 0.04528,-0.06798 c 0.117033,-0.175814 0.362561,-0.286744 0.643808,-0.290886 0.228318,-0.003 0.370258,0.05014 0.45512,0.171661 0.03301,0.04727 0.03341,0.05143 0.04396,0.474527 0.0058,0.234752 0.01197,0.795596 0.01356,1.246341 l 0.0031,0.819526 -0.03928,0.372534 c -0.04447,0.421694 -0.05563,0.876958 -0.02482,1.012799 0.03552,0.15664 0.05926,0.216747 0.08846,0.224051 0.03998,0.01018 0.270472,-0.01764 0.577955,-0.06936 0.291439,-0.04895 1.112606,-0.194244 1.160665,-0.205332 l 0.03045,-0.0059 v -1.998834 c 0,-1.524254 0.0039,-2.012368 0.0164,-2.055808 0.02574,-0.08948 0.148444,-0.207602 0.28439,-0.273902 0.154134,-0.07512 0.27465,-0.105229 0.436902,-0.108841 0.117307,-0.003 0.154653,0.003 0.280089,0.04093 l 0.144734,0.044 0.0057,2.349797 c 0.0049,1.994957 0.0092,2.400706 0.02808,2.686916 0.03081,0.464488 0.04304,1.297569 0.02319,1.576791 -0.04129,0.580553 -0.160282,1.106439 -0.292004,1.290615 -0.08002,0.111882 -0.19991,0.208701 -0.37509,0.302885 -0.175648,0.09442 -0.297308,0.135069 -0.606542,0.202537 -0.460936,0.100545 -0.902115,0.165579 -1.272334,0.187547 -0.107945,0.0059 -0.363765,0.03597 -0.568488,0.0658 -0.387483,0.05638 -0.764758,0.08205 -0.875793,0.05974 z m 5.337805,-0.690858 c -0.08597,-0.01457 -0.160793,-0.0651 -0.192842,-0.130283 -0.04127,-0.08393 -0.03569,-0.590203 0.0116,-1.0517 0.07065,-0.689441 0.09113,-1.159202 0.09106,-2.088241 -5.2e-5,-0.685487 -0.0059,-0.882743 -0.05414,-1.789794 -0.04482,-0.845209 -0.05348,-1.087382 -0.06252,-1.748336 -0.0089,-0.648329 1.02e-4,-0.873726 0.04324,-1.088849 0.04114,-0.205034 0.08644,-0.285376 0.198602,-0.352162 0.198745,-0.118351 0.488469,-0.175278 1.194626,-0.234712 0.171225,-0.01437 0.481862,-0.04736 0.690309,-0.07303 0.922468,-0.114091 1.321039,-0.150297 1.732539,-0.157661 l 0.338386,-0.0059 0.06426,0.03736 c 0.08812,0.05133 0.104976,0.09027 0.104976,0.242451 0,0.225784 -0.06319,0.956297 -0.08861,1.024005 -0.03924,0.104617 -0.467938,0.192529 -0.906285,0.185881 -0.145394,-0.002 -0.256787,-0.01062 -0.302571,-0.02329 -0.03982,-0.01095 -0.074,-0.02189 -0.07585,-0.02408 -0.002,-0.002 0.01675,-0.227707 0.04128,-0.500835 0.02464,-0.273129 0.03135,-0.204341 0.03475,-0.33612 0.002,-0.07025 -0.07079,-0.02765 -0.202707,-0.03488 -0.110562,0.003 -0.417384,0.0315 -0.603472,0.05708 -0.350032,0.04964 -0.931917,0.162854 -0.951654,0.200934 -0.04922,0.09493 -0.0124,1.01362 0.02695,1.757461 0.06272,1.185529 0.08406,2.259138 0.0639,3.210938 -0.01585,0.748825 -0.02228,0.870438 -0.08083,1.53457 -0.05409,0.613441 -0.0748,0.804097 -0.05644,0.838729 0.03025,0.05707 0.177262,0.01962 0.71381,-0.05539 0.182391,-0.02537 0.386989,-0.0545 0.468877,-0.06054 0.35945,-0.02646 0.560959,-0.05341 0.678358,-0.172355 0.124579,-0.126428 0.117411,-0.07908 0.178366,-1.070736 0.02376,-0.387101 0.05229,-1.712593 0.03963,-1.846394 -0.02054,-0.217599 -0.07556,-0.37744 -0.134995,-0.391659 -0.0185,-0.004 -0.09611,5.85e-4 -0.172416,0.01018 -0.286271,0.03874 -0.555815,0.02199 -0.683826,-0.04241 -0.142938,-0.07194 -0.174962,-0.211604 -0.09108,-0.397198 0.04133,-0.09136 0.140434,-0.222187 0.199233,-0.262843 0.06565,-0.04538 0.374807,-0.08978 1.122892,-0.161208 0.314293,-0.03012 0.389777,-0.01018 0.657703,0.167659 l 0.16119,0.107342 0.0087,0.472804 c 0.0048,0.260049 0.02084,0.661666 0.03593,0.892494 0.06349,0.972509 0.06339,1.433124 -1.46e-4,1.876953 -0.03116,0.217718 -0.102362,0.515857 -0.154596,0.647487 -0.08286,0.208889 -0.288355,0.330472 -0.712428,0.421534 -0.616672,0.132423 -1.633392,0.277073 -2.624604,0.373407 -0.424905,0.04132 -0.666603,0.0543 -0.749138,0.04023 z m 5.615141,-0.681178 c -0.119757,-0.01566 -0.10784,0.04241 -0.126204,-0.615471 -0.01869,-0.670893 -0.03554,-0.999134 -0.110515,-2.156929 -0.106773,-1.64886 -0.123984,-2.046921 -0.124364,-2.87683 -4.67e-4,-0.965275 0.04606,-1.630697 0.165707,-2.371813 0.04216,-0.260911 0.03389,-0.240411 0.112152,-0.277885 0.148617,-0.07124 0.578766,-0.139497 0.908883,-0.144452 0.134032,-0.002 0.214208,0.002 0.235912,0.01348 0.08812,0.04419 0.377275,0.604491 0.74973,1.615288 0.114878,0.311775 0.257702,0.646664 0.294987,0.740759 0.177477,0.447882 0.555776,1.402199 1.061551,2.509438 0.541112,1.18457 0.725776,1.503566 0.73488,1.47928 0.01607,-0.04301 -0.01178,-1.942262 -0.03126,-2.715365 -0.01568,-0.621009 -0.01724,-1.093307 -0.0078,-2.341501 0.0058,-0.859943 0.01588,-1.574335 0.02113,-1.587525 0.01236,-0.03101 0.07732,-0.07204 0.16188,-0.102087 0.110605,-0.03944 0.308482,-0.06639 0.692418,-0.09432 0.43264,-0.0314 0.415132,-0.03082 0.404568,-0.01268 -0.0112,0.01863 -0.04197,0.403373 -0.06232,0.779147 -0.02289,0.421861 -0.02006,1.68923 0.0058,2.727207 0.02677,1.064691 0.0295,1.137669 0.07041,1.865289 0.07732,1.376762 0.07565,2.012379 -0.0068,2.617207 -0.02756,0.201893 -0.04217,0.248118 -0.09036,0.286328 -0.11518,0.09126 -0.42859,0.155045 -0.792144,0.161266 -0.325766,0.005 -0.308258,0.01655 -0.38448,-0.239487 -0.155999,-0.523934 -0.476993,-0.968813 -0.982108,-1.938646 -0.420195,-0.806793 -0.321402,-0.669178 -1.216663,-2.714731 -0.37044,-0.846378 -0.631191,-1.564812 -0.637656,-1.571907 -0.01548,-0.01704 0.01236,0.871517 0.02872,2.018562 0.01227,0.855434 0.04693,3.393787 0.0592,4.334794 l 0.0058,0.416837 -0.03408,0.02784 c -0.01879,0.01526 -0.06524,0.03785 -0.103287,0.04994 -0.20552,0.0658 -0.838056,0.141171 -1.003148,0.119491 z"
       id="path3141-3"
       sodipodi:nodetypes="cssccccssccssscccccsccscssccssccccssccccccsssscccccssscsssccccssscccssccsssssccsssccscscccsssssscccsssscscssssccscccsssssccsssssccccc"
       inkscape:label="logo" />
    <path
       id="circle817-6"
       style="display:inline;fill:none;fill-opacity:1;stroke:#000000;stroke-width:0.1;stroke-linecap:butt;stroke-linejoin:miter;stroke-miterlimit:4;stroke-dasharray:none;stroke-dashoffset:0;stroke-opacity:1"
       d="M -26.716514 -11.088458 A 0.90072001 0.90072001 0 0 0 -27.617234 -10.187738 A 0.90072001 0.90072001 0 0 0 -26.716514 -9.2870176 A 0.90072001 0.90072001 0 0 0 -25.820961 -10.098854 L -23.705328 -10.098854 C -23.659638 -9.6380938 -23.271762 -9.2870339 -22.808742 -9.2870176 C -22.634802 -9.2873286 -22.464626 -9.3378532 -22.318849 -9.4327452 L -22.318849 -9.6585712 C -22.452059 -9.5349852 -22.627032 -9.4660576 -22.808742 -9.4658181 C -23.207285 -9.4658189 -23.530661 -9.7891942 -23.530662 -10.187738 C -23.530673 -10.586288 -23.207293 -10.90914 -22.808742 -10.909141 C -22.626986 -10.90883 -22.452006 -10.840102 -22.318849 -10.716388 L -22.318849 -10.943247 C -22.464708 -11.037877 -22.634878 -11.088386 -22.808742 -11.088458 C -23.271419 -11.087991 -23.658629 -10.737041 -23.704294 -10.276621 L -25.819927 -10.276621 A 0.90072001 0.90072001 0 0 0 -26.716514 -11.088458 z M -19.245135 -11.088458 A 0.90072001 0.90072001 0 0 0 -20.140171 -10.276621 L -22.327634 -10.276621 A 0.48986525 0.48986525 0 0 0 -22.808742 -10.67763 A 0.48986525 0.48986525 0 0 0 -23.298634 -10.187738 A 0.48986525 0.48986525 0 0 0 -22.808742 -9.6978453 A 0.48986525 0.48986525 0 0 0 -22.327634 -10.098854 L -20.141204 -10.098854 A 0.90072001 0.90072001 0 0 0 -19.245135 -9.2870176 A 0.90072001 0.90072001 0 0 0 -18.344415 -10.187738 A 0.90072001 0.90072001 0 0 0 -19.245135 -11.088458 z M -26.716514 -10.909141 A 0.72162944 0.72162944 0 0 1 -25.994594 -10.187738 A 0.72162944 0.72162944 0 0 1 -26.716514 -9.4658181 A 0.72162944 0.72162944 0 0 1 -27.437917 -10.187738 A 0.72162944 0.72162944 0 0 1 -26.716514 -10.909141 z M -19.245135 -10.909141 A 0.72162944 0.72162944 0 0 1 -18.523215 -10.187738 A 0.72162944 0.72162944 0 0 1 -19.245135 -9.4658181 A 0.72162944 0.72162944 0 0 1 -19.966538 -10.187738 A 0.72162944 0.72162944 0 0 1 -19.245135 -10.909141 z M -26.809531 -10.635773 L -26.809531 -10.285406 L -27.161448 -10.285406 L -27.161448 -10.09162 L -26.809531 -10.09162 L -26.809531 -9.7397032 L -26.616261 -9.7397032 L -26.616261 -10.09162 L -26.265895 -10.09162 L -26.265895 -10.285406 L -26.616261 -10.285406 L -26.616261 -10.635773 L -26.809531 -10.635773 z M -19.703505 -10.28799 L -19.703505 -10.087486 L -18.698915 -10.087486 L -18.698915 -10.28799 L -19.703505 -10.28799 z "
       inkscape:label="polarity"
       transform="translate(53.981517,11.906496)" />
    <path
       id="path2311"
       d="m 15.950964,1.1208618 c -0.08179,0.00179 -0.156958,0.017329 -0.225309,0.045992 -0.07291,0.030574 -0.135706,0.073406 -0.188619,0.1286744 -0.05174,0.055269 -0.09167,0.1184378 -0.119889,0.1901692 -0.02822,0.071731 -0.04237,0.1495701 -0.04237,0.2330607 0,0.082315 0.01416,0.1601534 0.04237,0.2330607 0.02822,0.071732 0.06815,0.1349008 0.119889,0.1901693 0.05292,0.055268 0.115712,0.0981 0.188619,0.1286743 0.07291,0.030574 0.153651,0.045992 0.241846,0.045992 0.08819,-2e-7 0.168421,-0.015418 0.241329,-0.045992 0.07291,-0.030574 0.135328,-0.073406 0.187068,-0.1286743 0.05292,-0.055268 0.09374,-0.1184378 0.121957,-0.1901693 0.02822,-0.072907 0.04237,-0.1507458 0.04237,-0.2330607 0,-0.083491 -0.01415,-0.1613292 -0.04237,-0.2330607 -0.02823,-0.071731 -0.06904,-0.1349006 -0.121957,-0.1901692 -0.05174,-0.055269 -0.114161,-0.0981 -0.187068,-0.1286744 -0.07291,-0.030574 -0.153135,-0.045992 -0.241329,-0.045992 -0.0055,0 -0.01108,-1.194e-4 -0.01654,0 z m 0.806669,0.013953 v 0.6650756 c 0,0.1034815 0.02123,0.1942069 0.06356,0.2718181 0.04233,0.077611 0.100583,0.137875 0.174667,0.1813842 0.07526,0.042333 0.160923,0.063562 0.257348,0.063562 0.0976,0 0.183783,-0.021603 0.257866,-0.065112 0.07526,-0.043509 0.133883,-0.10429 0.176216,-0.1819011 0.04233,-0.077611 0.06356,-0.1674455 0.06356,-0.269751 V 1.1348145 h -0.132291 v 0.668693 c 0,0.090546 -0.01795,0.1642137 -0.05323,0.2206584 -0.03528,0.056444 -0.08013,0.09801 -0.135392,0.1250569 -0.05527,0.025871 -0.114407,0.038757 -0.176734,0.038757 -0.06114,0 -0.11977,-0.012887 -0.176216,-0.038757 -0.05527,-0.027046 -0.100629,-0.068612 -0.135909,-0.1250569 -0.0341,-0.056444 -0.05116,-0.1301122 -0.05116,-0.2206584 v -0.668693 z m 1.1467,0 v 0.1255737 h 0.407211 v 1.0423136 h 0.132291 V 1.2603882 h 0.407727 V 1.1348145 Z m -1.936832,0.1147216 c 0.09525,0 0.176743,0.021229 0.244946,0.063562 0.06938,0.041157 0.12271,0.096876 0.159164,0.1674317 0.03763,0.070556 0.05633,0.150034 0.05633,0.2382283 0,0.087019 -0.0187,0.1664969 -0.05633,0.2382284 -0.03645,0.070556 -0.08978,0.1271654 -0.159164,0.1694987 -0.0682,0.041157 -0.149696,0.061495 -0.244946,0.061495 -0.09407,0 -0.176083,-0.020338 -0.245463,-0.061495 -0.06938,-0.042333 -0.122571,-0.098943 -0.160197,-0.1694987 -0.03645,-0.071732 -0.05478,-0.1512098 -0.05478,-0.2382284 0,-0.088194 0.01832,-0.1676728 0.05478,-0.2382283 0.03763,-0.070556 0.09082,-0.1262744 0.160197,-0.1674317 0.06938,-0.042333 0.151389,-0.063562 0.245463,-0.063562 z"
       style="font-size:1.76389px;line-height:1.25;font-family:Questrial;-inkscape-font-specification:'Questrial, Normal';letter-spacing:0px;word-spacing:0px;fill:none;stroke:#000000;stroke-width:0.1;stroke-opacity:1;stroke-dasharray:none" />
    <path
       id="path10508-91"
       style="display:inline;fill:none;stroke:#000000;stroke-width:0.0987655;stroke-dasharray:none;stroke-opacity:1"
       d="m 16.972063,106.50436 a 3.9506182,3.9506182 0 0 1 -3.95062,3.95062 3.9506182,3.9506182 0 0 1 -3.9505104,-3.95062 3.9506182,3.9506182 0 0 1 3.9505104,-3.95062 3.9506182,3.9506182 0 0 1 3.95062,3.95062 z" />
    <path
       id="path10508-7-7"
       style="display:inline;fill:none;fill-opacity:1;stroke:#000000;stroke-width:0.107438;stroke-dasharray:none;stroke-opacity:1"
       d="M 37.44628,106.50435 A 6.4462805,6.4462805 0 0 1 31,112.95064 6.4462805,6.4462805 0 0 1 24.55372,106.50435 6.4462805,6.4462805 0 0 1 31,100.05808 a 6.4462805,6.4462805 0 0 1 6.44628,6.44627 z"
       inkscape:label="FS RIGHT" />
  </g>
</svg>
