<?xml version="1.0" encoding="UTF-8" standalone="no"?>
<!-- Created with Inkscape (http://www.inkscape.org/) -->

<svg
   width="114mm"
   height="88.5mm"
   viewBox="0 0 114 88.5"
   version="1.1"
   id="svg4019"
   inkscape:version="1.2.2 (b0a8486541, 2022-12-01)"
   sodipodi:docname="template_me_freecad.svg"
   xmlns:inkscape="http://www.inkscape.org/namespaces/inkscape"
   xmlns:sodipodi="http://sodipodi.sourceforge.net/DTD/sodipodi-0.dtd"
   xmlns="http://www.w3.org/2000/svg"
   xmlns:svg="http://www.w3.org/2000/svg">
  <sodipodi:namedview
     id="namedview4021"
     pagecolor="#505050"
     bordercolor="#ffffff"
     borderopacity="1"
     inkscape:showpageshadow="0"
     inkscape:pageopacity="0"
     inkscape:pagecheckerboard="1"
     inkscape:deskcolor="#505050"
     inkscape:document-units="mm"
     showgrid="true"
     inkscape:zoom="11.313709"
     inkscape:cx="40.747028"
     inkscape:cy="131.78703"
     inkscape:current-layer="layer2">
    <inkscape:grid
       type="xygrid"
       id="grid4140"
       units="mm"
       spacingx="0.99999998"
       spacingy="0.99999998"
       dotted="false"
       originx="0"
       originy="0" />
  </sodipodi:namedview>
  <defs
     id="defs4016" />
  <g
     inkscape:groupmode="layer"
     id="layer2"
     inkscape:label="PLATE">
    <path
       id="path4910-2"
       style="font-style:normal;font-weight:400;font-size:35.2778px;font-family:'Source Code Pro';opacity:1;fill:none;stroke:#000000;stroke-width:0.1;stroke-linecap:round;stroke-linejoin:bevel;stroke-opacity:1;stroke-dasharray:none"
       d="M 110.74757,88.450529 H 3.252431 M 113.95053,85.256104 c 0,1.764251 -1.434,3.194425 -3.20296,3.194425 M 113.95053,3.243896 V 85.256104 M 110.74757,0.049471 c 1.76896,0 3.20296,1.430174 3.20296,3.194425 M 3.252431,0.049471 H 110.74757 M 0.049471,3.243896 c 0,-1.764251 1.434,-3.194425 3.20296,-3.194425 M 0.049471,85.256104 V 3.243896 m 3.20296,85.206633 c -1.76896,0 -3.20296,-1.430174 -3.20296,-3.194425" />
    <path
       id="path10508-91"
       style="display:inline;fill:none;stroke:#000000;stroke-width:0.1;stroke-dasharray:none;stroke-opacity:1;opacity:1"
       d="m 182.29248,11.878437 a 3.9506182,3.9506182 0 0 1 3.95062,-3.9506138 3.9506182,3.9506182 0 0 1 3.95051,3.9506138 3.9506182,3.9506182 0 0 1 -3.95051,3.950621 3.9506182,3.9506182 0 0 1 -3.95062,-3.950621 z"
       inkscape:label="LED LEFT"
       transform="rotate(180,98.871488,45.315036)" />
    <path
       id="path10508-91-3"
       style="display:inline;fill:none;stroke:#000000;stroke-width:0.1;stroke-dasharray:none;stroke-opacity:1;opacity:1"
       d="m 91.291642,11.878701 a 3.9506704,3.9506704 0 0 1 3.950671,-3.9506631 3.9506704,3.9506704 0 0 1 3.950563,3.9506631 3.9506704,3.9506704 0 0 1 -3.950563,3.950673 3.9506704,3.9506704 0 0 1 -3.950671,-3.950673 z"
       inkscape:label="LED RIGHT"
       transform="rotate(180,98.871488,45.315036)" />
    <path
       id="path10508-7"
       style="display:inline;fill:none;stroke:#000000;stroke-width:0.1;stroke-dasharray:none;stroke-opacity:1;opacity:1"
       d="m 162.79611,11.885203 a 6.4462795,6.4462795 0 0 1 6.44628,-6.4462801 6.4462795,6.4462795 0 0 1 6.44628,6.4462801 6.4462795,6.4462795 0 0 1 -6.44628,6.44628 6.4462795,6.4462795 0 0 1 -6.44628,-6.44628 z"
       inkscape:label="FS LEFT"
       transform="rotate(180,98.871488,45.315036)" />
    <path
       id="path10508-7-7"
       style="display:inline;fill:none;fill-opacity:1;stroke:#000000;stroke-width:0.1;stroke-dasharray:none;stroke-opacity:1;opacity:1"
       d="m 105.79482,11.879328 a 6.4462805,6.4462805 0 0 1 6.44628,-6.4462838 6.4462805,6.4462805 0 0 1 6.44628,6.4462838 6.4462805,6.4462805 0 0 1 -6.44628,6.446281 6.4462805,6.4462805 0 0 1 -6.44628,-6.446281 z"
       inkscape:label="FS RIGHT"
       transform="rotate(180,98.871488,45.315036)" />
    <path
       id="rect7321-12-0"
       style="display:inline;fill:none;stroke:#000000;stroke-width:0.1;stroke-dasharray:none;stroke-opacity:1;opacity:1"
       inkscape:label="LOGO CONTOUR"
       d="M 131.91857 18.688729 C 131.95717 18.687729 131.99598 18.684461 132.03536 18.680461 L 149.33094 16.701253 C 149.9609 16.629153 150.51278 16.123026 150.51278 15.525098 L 150.51278 14.688456 L 163.9378 14.688456 A 5.9999995 5.9999995 0 0 1 163.70268 14.188745 L 150.51278 14.188745 L 150.51278 13.868351 L 163.57969 13.868351 A 5.9999995 5.9999995 0 0 1 163.49287 13.5986 L 150.51278 13.5986 L 150.51278 13.100956 L 163.3673 13.100956 A 5.9999995 5.9999995 0 0 1 163.28565 12.601245 L 150.51278 12.601245 L 150.51278 12.280851 L 163.25619 12.280851 A 5.9999995 5.9999995 0 0 1 163.24379 12.0111 L 150.51278 12.0111 L 150.51278 11.513456 L 163.25464 11.513456 A 5.9999995 5.9999995 0 0 1 163.30632 11.013745 L 150.51278 11.013745 L 150.51278 10.693351 L 163.36213 10.693351 A 5.9999995 5.9999995 0 0 1 163.42362 10.4236 L 150.51278 10.4236 L 150.51278 9.9259562 L 163.57142 9.9259562 A 5.9999995 5.9999995 0 0 1 163.76986 9.4262451 L 150.51278 9.4262451 L 150.51278 9.1058512 L 163.9254 9.1058512 A 5.9999995 5.9999995 0 0 1 164.07526 8.8361002 L 150.51278 8.8361002 L 150.51278 5.9840779 C 150.51278 5.3861491 149.9609 5.0061002 149.33094 5.07819 L 132.03536 7.0573974 C 131.40541 7.1294972 130.85197 7.636131 130.85197 8.2340698 L 130.85197 8.8361002 L 117.39801 8.8361002 A 5.9999995 5.9999995 0 0 1 117.54529 9.1058512 L 130.85197 9.1058512 L 130.85197 9.4262451 L 117.71324 9.4262451 A 5.9999995 5.9999995 0 0 1 117.89979 9.9259562 L 130.85197 9.9259562 L 130.85197 10.4236 L 118.04913 10.4236 A 5.9999995 5.9999995 0 0 1 118.10753 10.693351 L 130.85197 10.693351 L 130.85197 11.013745 L 118.17729 11.013745 A 5.9999995 5.9999995 0 0 1 118.2145 11.513456 L 130.85197 11.513456 L 130.85197 12.0111 L 118.23155 12.0111 A 5.9999995 5.9999995 0 0 1 118.21191 12.280851 L 130.85197 12.280851 L 130.85197 12.601245 L 118.18918 12.601245 A 5.9999995 5.9999995 0 0 1 118.09978 13.100956 L 130.85197 13.100956 L 130.85197 13.5986 L 117.98712 13.5986 A 5.9999995 5.9999995 0 0 1 117.88635 13.868351 L 130.85197 13.868351 L 130.85197 14.188745 L 117.76698 14.188745 A 5.9999995 5.9999995 0 0 1 117.52565 14.688456 L 130.85197 14.688456 L 130.85197 17.775089 C 130.85197 18.335649 131.33866 18.704229 131.91857 18.688729 z M 132.04156 18.171448 L 132.04104 18.171448 C 131.69161 18.167448 131.34436 17.845543 131.34444 17.654683 L 131.34858 8.3152018 C 131.3487 8.0498522 131.72425 7.5930473 132.09117 7.5509073 L 149.18005 5.5882364 C 149.58629 5.5415366 150.01297 5.7881037 150.01307 6.1525431 L 150.01617 15.581942 C 150.00817 15.89777 149.64816 16.181298 149.33146 16.198958 L 132.11132 18.16783 C 132.08812 18.17083 132.06486 18.171448 132.04156 18.171448 z M 132.51698 17.861906 C 132.54978 17.860906 132.58322 17.858671 132.61672 17.854671 L 148.74907 16.004655 C 149.28549 15.943155 149.74642 15.536622 149.74642 15.064144 L 149.74642 6.6150471 C 149.74642 6.1425681 149.28549 5.8414361 148.74907 5.9029459 L 132.61672 7.7529622 C 132.0803 7.814462 131.62091 8.2209941 131.62091 8.6934733 L 131.62091 17.14257 C 131.62091 17.585518 132.02455 17.877786 132.51698 17.861906 z M 132.53765 17.608691 C 132.14929 17.622491 131.87127 17.397571 131.87154 17.113631 L 131.87981 8.6872721 C 131.88003 8.4519725 132.26291 8.0699408 132.62499 8.0278808 L 148.74958 6.1551269 C 149.1787 6.1053269 149.49501 6.3411265 149.49476 6.6439859 L 149.48752 15.092566 C 149.48729 15.368916 149.12696 15.699889 148.74907 15.743689 L 132.61724 17.60249 C 132.59044 17.60549 132.56407 17.607175 132.53817 17.608175 L 132.53765 17.608691 z "
       transform="rotate(180,98.871488,45.315036)" />
    <path
       style="display:inline;fill:none;fill-opacity:1;stroke:#000000;stroke-width:0.1;stroke-dasharray:none;stroke-opacity:1;opacity:1"
       d="m 148.71283,6.72249 c 0.12077,0.02418 0.13971,0.04935 0.17931,0.236953 0.0756,0.358235 0.0616,0.791145 -0.0422,1.302147 -0.0331,0.162922 -0.0712,0.228469 -0.17523,0.301408 -0.10745,0.07541 -0.1993,0.09889 -0.3992,0.10199 -0.1761,0.003 -0.17799,0.002 -0.26951,-0.0439 -0.0539,-0.02735 -0.10955,-0.06837 -0.13397,-0.09909 -0.0482,-0.06025 -0.048,-0.05648 -0.0285,-0.560278 0.012,-0.310159 0.004,-0.369463 -0.0528,-0.39491 -0.13216,-0.05916 -0.47761,-0.04954 -0.84708,0.02418 -0.32796,0.065 -0.59473,0.114517 -0.73181,0.135821 -0.0638,0.01018 -0.12336,0.02269 -0.13243,0.02854 -0.0373,0.02408 -0.17528,0.686004 -0.22404,1.074897 -0.0722,0.575866 -0.0603,1.058886 0.0334,1.352724 0.0335,0.105163 0.0704,0.180927 0.0999,0.205341 0.0316,0.02626 0.14169,0.0088 0.60286,-0.09136 0.57119,-0.124911 0.92068,-0.190607 1.0763,-0.20228 0.17786,-0.01358 0.65903,0.003 0.80814,0.02715 0.1954,0.03191 0.35568,0.106073 0.42027,0.194771 0.0248,0.03399 0.026,0.09542 0.0338,1.796978 0.004,0.968971 0.008,1.963884 0.009,2.210953 l 9.7e-4,0.44921 -0.0453,0.06798 c -0.11703,0.175814 -0.36256,0.286744 -0.64381,0.290886 -0.22832,0.003 -0.37026,-0.05014 -0.45512,-0.171661 -0.033,-0.04727 -0.0334,-0.05143 -0.044,-0.474527 -0.006,-0.234752 -0.012,-0.795596 -0.0136,-1.246341 l -0.003,-0.819526 0.0393,-0.372534 c 0.0445,-0.421694 0.0556,-0.876958 0.0248,-1.012799 -0.0355,-0.15664 -0.0593,-0.216747 -0.0885,-0.224051 -0.04,-0.01018 -0.27047,0.01764 -0.57795,0.06936 -0.29144,0.04895 -1.11261,0.194244 -1.16067,0.205332 l -0.0305,0.0059 v 1.998834 c 0,1.524254 -0.004,2.012368 -0.0164,2.055808 -0.0257,0.08948 -0.14844,0.207602 -0.28439,0.273902 -0.15413,0.07512 -0.27465,0.105229 -0.4369,0.108841 -0.11731,0.003 -0.15465,-0.003 -0.28009,-0.04093 l -0.14473,-0.044 -0.006,-2.349797 c -0.005,-1.994957 -0.009,-2.400706 -0.0281,-2.686916 -0.0308,-0.464488 -0.043,-1.297569 -0.0232,-1.576791 0.0413,-0.580553 0.16028,-1.106439 0.292,-1.290615 0.08,-0.111882 0.19991,-0.208701 0.37509,-0.302885 0.17565,-0.09442 0.29731,-0.135069 0.60654,-0.202537 0.46094,-0.100545 0.90212,-0.165579 1.27234,-0.187547 0.10794,-0.0059 0.36376,-0.03597 0.56848,-0.0658 0.38749,-0.05638 0.76476,-0.08205 0.8758,-0.05974 z m -5.3378,0.690858 c 0.086,0.01457 0.16079,0.0651 0.19284,0.130283 0.0413,0.08393 0.0357,0.590203 -0.0116,1.0517 -0.0707,0.689441 -0.0911,1.159202 -0.0911,2.088241 5e-5,0.685487 0.006,0.882743 0.0541,1.789794 0.0448,0.845209 0.0535,1.087382 0.0625,1.748336 0.009,0.648329 -1e-4,0.873726 -0.0432,1.088849 -0.0411,0.205034 -0.0864,0.285376 -0.1986,0.352162 -0.19875,0.118351 -0.48847,0.175278 -1.19463,0.234712 -0.17123,0.01437 -0.48186,0.04736 -0.69031,0.07303 -0.92247,0.114091 -1.32104,0.150297 -1.73254,0.157661 l -0.33838,0.0059 -0.0643,-0.03736 c -0.0881,-0.05133 -0.10498,-0.09027 -0.10498,-0.242451 0,-0.225784 0.0632,-0.956297 0.0886,-1.024005 0.0392,-0.104617 0.46794,-0.192529 0.90629,-0.185881 0.14539,0.002 0.25678,0.01062 0.30257,0.02329 0.0398,0.01095 0.074,0.02189 0.0759,0.02408 0.002,0.002 -0.0168,0.227707 -0.0413,0.500835 -0.0246,0.273129 -0.0314,0.204341 -0.0348,0.33612 -0.002,0.07025 0.0708,0.02765 0.2027,0.03488 0.11056,-0.003 0.41739,-0.0315 0.60347,-0.05708 0.35004,-0.04964 0.93192,-0.162854 0.95166,-0.200934 0.0492,-0.09493 0.0124,-1.01362 -0.0269,-1.757461 -0.0627,-1.185529 -0.0841,-2.259138 -0.0639,-3.210938 0.0159,-0.748825 0.0223,-0.870438 0.0808,-1.53457 0.0541,-0.613441 0.0748,-0.804097 0.0564,-0.838729 -0.0302,-0.05707 -0.17726,-0.01962 -0.71381,0.05539 -0.18239,0.02537 -0.38699,0.0545 -0.46888,0.06054 -0.35945,0.02646 -0.56096,0.05341 -0.67836,0.172355 -0.12458,0.126428 -0.11741,0.07908 -0.17836,1.070736 -0.0238,0.387101 -0.0523,1.712593 -0.0396,1.846394 0.0205,0.217599 0.0756,0.37744 0.13499,0.391659 0.0185,0.004 0.0961,-5.85e-4 0.17242,-0.01018 0.28627,-0.03874 0.55581,-0.02199 0.68382,0.04241 0.14294,0.07194 0.17497,0.211604 0.0911,0.397198 -0.0413,0.09136 -0.14043,0.222187 -0.19923,0.262843 -0.0657,0.04538 -0.37481,0.08978 -1.12289,0.161208 -0.31429,0.03012 -0.38978,0.01018 -0.6577,-0.167659 l -0.16119,-0.107342 -0.009,-0.472804 c -0.005,-0.260049 -0.0208,-0.661666 -0.0359,-0.892494 -0.0635,-0.972509 -0.0634,-1.433124 1.4e-4,-1.876953 0.0312,-0.217718 0.10237,-0.515857 0.1546,-0.647487 0.0829,-0.208889 0.28835,-0.330472 0.71243,-0.421534 0.61667,-0.132423 1.63339,-0.277073 2.6246,-0.373407 0.42491,-0.04132 0.6666,-0.0543 0.74914,-0.04023 z m -5.61514,0.681178 c 0.11975,0.01566 0.10783,-0.04241 0.1262,0.615471 0.0187,0.670893 0.0355,0.999134 0.11051,2.156929 0.10678,1.64886 0.12399,2.046921 0.12437,2.87683 4.7e-4,0.965275 -0.0461,1.630697 -0.16571,2.371813 -0.0422,0.260911 -0.0339,0.240411 -0.11215,0.277885 -0.14862,0.07124 -0.57877,0.139497 -0.90888,0.144452 -0.13404,0.002 -0.21421,-0.002 -0.23592,-0.01348 -0.0881,-0.04419 -0.37727,-0.604491 -0.74973,-1.615288 -0.11487,-0.311775 -0.2577,-0.646664 -0.29498,-0.740759 -0.17748,-0.447882 -0.55578,-1.402199 -1.06155,-2.509438 -0.54112,-1.18457 -0.72578,-1.503566 -0.73488,-1.47928 -0.0161,0.04301 0.0118,1.942262 0.0313,2.715365 0.0157,0.621009 0.0172,1.093307 0.008,2.341501 -0.006,0.859943 -0.0159,1.574335 -0.0211,1.587525 -0.0124,0.03101 -0.0773,0.07204 -0.16188,0.102087 -0.11061,0.03944 -0.30849,0.06639 -0.69242,0.09432 -0.43264,0.0314 -0.41513,0.03082 -0.40457,0.01268 0.0112,-0.01863 0.042,-0.403373 0.0623,-0.779147 0.0229,-0.421861 0.0201,-1.68923 -0.006,-2.727207 -0.0268,-1.064691 -0.0295,-1.137669 -0.0704,-1.865289 -0.0773,-1.376762 -0.0756,-2.012379 0.007,-2.617207 0.0276,-0.201893 0.0422,-0.248118 0.0904,-0.286328 0.11518,-0.09126 0.42859,-0.155045 0.79214,-0.161266 0.32577,-0.005 0.30826,-0.01655 0.38448,0.239487 0.156,0.523934 0.477,0.968813 0.98211,1.938646 0.4202,0.806793 0.3214,0.669178 1.21667,2.714731 0.37044,0.846378 0.63119,1.564812 0.63765,1.571907 0.0155,0.01704 -0.0124,-0.871517 -0.0287,-2.018562 -0.0123,-0.855434 -0.0469,-3.393787 -0.0592,-4.334794 l -0.006,-0.416837 0.0341,-0.02784 c 0.0188,-0.01526 0.0652,-0.03785 0.10329,-0.04994 0.20552,-0.0658 0.83805,-0.141171 1.00315,-0.119491 z"
       id="path3141-3"
       sodipodi:nodetypes="cssccccssccssscccccsccscssccssccccssccccccsssscccccssscsssccccssscccssccsssssccsssccscscccsssssscccsssscscssssccscccsssssccsssssccccc"
       inkscape:label="LOGO"
       transform="rotate(180,98.871488,45.315036)" />
    <path
       id="path10508-91-36"
       style="display:inline;opacity:1;fill:none;stroke:#000000;stroke-width:1.00000001;stroke-dasharray:none;stroke-opacity:1"
       d="m 835.26536,1269.1809 a 39.506119,39.506119 0 0 1 39.50612,-39.5061 39.506119,39.506119 0 0 1 39.50498,39.5061 39.506119,39.506119 0 0 1 -39.50498,39.5062 39.506119,39.506119 0 0 1 -39.50612,-39.5062 z"
       transform="matrix(-0.1,0,0,-0.1,136.1838,163.696)" />
    <path
       id="path10508-91-36-3"
       style="display:inline;opacity:1;fill:none;stroke:#000000;stroke-width:0.1;stroke-dasharray:none;stroke-opacity:1"
       d="m 52.650554,16.750004 a 3.9506119,3.9506119 0 0 1 -3.950612,3.95061 3.9506119,3.9506119 0 0 1 -3.950498,-3.95061 3.9506119,3.9506119 0 0 1 3.950498,-3.95062 3.9506119,3.9506119 0 0 1 3.950612,3.95062 z" />
    <path
       id="path10508-91-36-6"
       style="display:inline;opacity:1;fill:none;stroke:#000000;stroke-width:0.1;stroke-dasharray:none;stroke-opacity:1"
       d="m 75.950554,16.750004 a 3.9506119,3.9506119 0 0 1 -3.950612,3.95061 3.9506119,3.9506119 0 0 1 -3.950498,-3.95061 3.9506119,3.9506119 0 0 1 3.950498,-3.95062 3.9506119,3.9506119 0 0 1 3.950612,3.95062 z" />
    <path
       id="path10508-91-36-7"
       style="display:inline;opacity:1;fill:none;stroke:#000000;stroke-width:0.1;stroke-dasharray:none;stroke-opacity:1"
       d="m 75.950554,36.750004 a 3.9506119,3.9506119 0 0 1 -3.950612,3.95061 3.9506119,3.9506119 0 0 1 -3.950498,-3.95061 3.9506119,3.9506119 0 0 1 3.950498,-3.95062 3.9506119,3.9506119 0 0 1 3.950612,3.95062 z" />
    <path
       id="path10508-91-36-5"
       style="display:inline;opacity:1;fill:none;stroke:#000000;stroke-width:0.1;stroke-dasharray:none;stroke-opacity:1"
       d="m 99.250554,16.750004 a 3.9506119,3.9506119 0 0 1 -3.950612,3.95061 3.9506119,3.9506119 0 0 1 -3.950498,-3.95061 3.9506119,3.9506119 0 0 1 3.950498,-3.95062 3.9506119,3.9506119 0 0 1 3.950612,3.95062 z" />
    <path
       id="path10508-91-6"
       style="display:inline;fill:none;stroke:#000000;stroke-width:0.1;stroke-dasharray:none;stroke-opacity:1;opacity:1"
       d="m 22.450564,26.650002 a 3.9506182,3.9506182 0 0 1 -3.95062,3.950614 3.9506182,3.9506182 0 0 1 -3.95051,-3.950614 3.9506182,3.9506182 0 0 1 3.95051,-3.950621 3.9506182,3.9506182 0 0 1 3.95062,3.950621 z"
       inkscape:label="LED LEFT" />
    <path
       id="path10508-91-6-2"
       style="display:inline;fill:none;stroke:#000000;stroke-width:0.1;stroke-dasharray:none;stroke-opacity:1;opacity:1"
       d="M 7.4283938,19.15 A 1.728418,1.728418 0 0 1 5.6999749,20.878416 1.728418,1.728418 0 0 1 3.9716042,19.15 1.728418,1.728418 0 0 1 5.6999749,17.421581 1.728418,1.728418 0 0 1 7.4283938,19.15 Z"
       inkscape:label="LED LEFT" />
    <path
       id="path10508-91-6-2-0"
       style="display:inline;fill:none;stroke:#000000;stroke-width:0.1;stroke-dasharray:none;stroke-opacity:1;opacity:1"
       d="M 33.228394,19.15 A 1.728418,1.728418 0 0 1 31.499975,20.878416 1.728418,1.728418 0 0 1 29.771604,19.15 1.728418,1.728418 0 0 1 31.499975,17.421581 1.728418,1.728418 0 0 1 33.228394,19.15 Z"
       inkscape:label="LED LEFT" />
    <path
       id="path10508-91-6-2-93"
       style="display:inline;fill:none;stroke:#000000;stroke-width:0.1;stroke-dasharray:none;stroke-opacity:1;opacity:1"
       d="M 33.228394,24.15 A 1.728418,1.728418 0 0 1 31.499975,25.878416 1.728418,1.728418 0 0 1 29.771604,24.15 1.728418,1.728418 0 0 1 31.499975,22.421581 1.728418,1.728418 0 0 1 33.228394,24.15 Z"
       inkscape:label="LED LEFT" />
    <path
       id="path10508-91-6-2-6"
       style="display:inline;fill:none;stroke:#000000;stroke-width:0.1;stroke-dasharray:none;stroke-opacity:1;opacity:1"
       d="M 33.228394,29.15 A 1.728418,1.728418 0 0 1 31.499975,30.878416 1.728418,1.728418 0 0 1 29.771604,29.15 1.728418,1.728418 0 0 1 31.499975,27.421581 1.728418,1.728418 0 0 1 33.228394,29.15 Z"
       inkscape:label="LED LEFT" />
    <path
       id="path10508-91-6-2-06"
       style="display:inline;fill:none;stroke:#000000;stroke-width:0.1;stroke-dasharray:none;stroke-opacity:1;opacity:1"
       d="M 33.228394,34.15 A 1.728418,1.728418 0 0 1 31.499975,35.878416 1.728418,1.728418 0 0 1 29.771604,34.15 1.728418,1.728418 0 0 1 31.499975,32.421581 1.728418,1.728418 0 0 1 33.228394,34.15 Z"
       inkscape:label="LED LEFT" />
    <path
       id="path10508-91-6-2-9"
       style="display:inline;fill:none;stroke:#000000;stroke-width:0.1;stroke-dasharray:none;stroke-opacity:1;opacity:1"
       d="M 7.4283938,24.15 A 1.728418,1.728418 0 0 1 5.6999749,25.878416 1.728418,1.728418 0 0 1 3.9716042,24.15 1.728418,1.728418 0 0 1 5.6999749,22.421581 1.728418,1.728418 0 0 1 7.4283938,24.15 Z"
       inkscape:label="LED LEFT" />
    <path
       id="path10508-91-6-2-1"
       style="display:inline;fill:none;stroke:#000000;stroke-width:0.1;stroke-dasharray:none;stroke-opacity:1;opacity:1"
       d="M 7.4283938,29.15 A 1.728418,1.728418 0 0 1 5.6999749,30.878416 1.728418,1.728418 0 0 1 3.9716042,29.15 1.728418,1.728418 0 0 1 5.6999749,27.421581 1.728418,1.728418 0 0 1 7.4283938,29.15 Z"
       inkscape:label="LED LEFT" />
    <path
       id="path10508-91-6-2-1-2"
       style="display:inline;fill:none;stroke:#000000;stroke-width:0.1;stroke-dasharray:none;stroke-opacity:1"
       d="M 10.478394,67.4 A 1.728418,1.728418 0 0 1 8.7499748,69.128416 1.728418,1.728418 0 0 1 7.0216041,67.4 1.728418,1.728418 0 0 1 8.7499748,65.671581 1.728418,1.728418 0 0 1 10.478394,67.4 Z"
       inkscape:label="LED LEFT" />
    <path
       id="path10508-91-6-2-1-6"
       style="display:inline;fill:none;stroke:#000000;stroke-width:0.1;stroke-dasharray:none;stroke-opacity:1"
       d="M 15.478393,67.4 A 1.728418,1.728418 0 0 1 13.749974,69.128416 1.728418,1.728418 0 0 1 12.021604,67.4 1.728418,1.728418 0 0 1 13.749974,65.671581 1.728418,1.728418 0 0 1 15.478393,67.4 Z"
       inkscape:label="LED LEFT" />
    <path
       id="path10508-91-6-2-1-1"
       style="display:inline;fill:none;stroke:#000000;stroke-width:0.1;stroke-dasharray:none;stroke-opacity:1"
       d="M 20.478394,67.4 A 1.728418,1.728418 0 0 1 18.749975,69.128416 1.728418,1.728418 0 0 1 17.021604,67.4 1.728418,1.728418 0 0 1 18.749975,65.671581 1.728418,1.728418 0 0 1 20.478394,67.4 Z"
       inkscape:label="LED LEFT" />
    <path
       id="path10508-91-6-2-1-8"
       style="display:inline;fill:none;stroke:#000000;stroke-width:0.1;stroke-dasharray:none;stroke-opacity:1"
       d="M 25.478394,67.4 A 1.728418,1.728418 0 0 1 23.749975,69.128416 1.728418,1.728418 0 0 1 22.021604,67.4 1.728418,1.728418 0 0 1 23.749975,65.671581 1.728418,1.728418 0 0 1 25.478394,67.4 Z"
       inkscape:label="LED LEFT" />
    <path
       id="path10508-91-6-2-2"
       style="display:inline;fill:none;stroke:#000000;stroke-width:0.1;stroke-dasharray:none;stroke-opacity:1;opacity:1"
       d="M 7.4283938,34.15 A 1.728418,1.728418 0 0 1 5.6999749,35.878416 1.728418,1.728418 0 0 1 3.9716042,34.15 1.728418,1.728418 0 0 1 5.6999749,32.421581 1.728418,1.728418 0 0 1 7.4283938,34.15 Z"
       inkscape:label="LED LEFT" />
  </g>
</svg>
