<?xml version="1.0" encoding="UTF-8" standalone="no"?>
<!-- Created with Inkscape (http://www.inkscape.org/) -->

<svg
   width="68mm"
   height="119mm"
   viewBox="0 0 68 119"
   version="1.1"
   id="svg319"
   inkscape:version="1.3 (0e150ed6c4, 2023-07-21)"
   sodipodi:docname="template_freecad_v3.svg"
   xmlns:inkscape="http://www.inkscape.org/namespaces/inkscape"
   xmlns:sodipodi="http://sodipodi.sourceforge.net/DTD/sodipodi-0.dtd"
   xmlns="http://www.w3.org/2000/svg"
   xmlns:svg="http://www.w3.org/2000/svg">
  <sodipodi:namedview
     id="namedview321"
     pagecolor="#505050"
     bordercolor="#ffffff"
     borderopacity="1"
     inkscape:showpageshadow="0"
     inkscape:pageopacity="0"
     inkscape:pagecheckerboard="1"
     inkscape:deskcolor="#505050"
     inkscape:document-units="mm"
     showgrid="true"
     showborder="true"
     showguides="true"
     inkscape:zoom="90.509668"
     inkscape:cx="121.80467"
     inkscape:cy="184.32837"
     inkscape:current-layer="layer1"
     guidecolor="#ff031d"
     guideopacity="0.6"
     inkscape:lockguides="false">
    <sodipodi:guide
       position="33.999999,119"
       orientation="-1,0"
       id="guide444"
       inkscape:locked="false"
       inkscape:label=""
       inkscape:color="rgb(224,27,36)" />
    <sodipodi:guide
       position="0,59.499999"
       orientation="0,1"
       id="guide454"
       inkscape:locked="false"
       inkscape:label=""
       inkscape:color="rgb(224,27,36)" />
    <sodipodi:guide
       position="12,119"
       orientation="-1,0"
       id="guide2188"
       inkscape:locked="false"
       inkscape:label=""
       inkscape:color="rgb(224,27,36)" />
    <sodipodi:guide
       position="55.999999,119"
       orientation="-1,0"
       id="guide2190"
       inkscape:locked="false"
       inkscape:label=""
       inkscape:color="rgb(224,27,36)" />
    <sodipodi:guide
       position="0,108"
       orientation="0,1"
       id="guide2242"
       inkscape:locked="false"
       inkscape:label=""
       inkscape:color="rgb(224,27,36)" />
    <sodipodi:guide
       position="0,77.999999"
       orientation="0,1"
       id="guide2244"
       inkscape:locked="false"
       inkscape:label=""
       inkscape:color="rgb(224,27,36)" />
    <inkscape:grid
       type="xygrid"
       id="grid2270"
       units="mm"
       spacingx="0.99999998"
       spacingy="0.99999998"
       dotted="true"
       color="#2fb675"
       opacity="0.14901961"
       empcolor="#559253"
       empopacity="0.30196078"
       visible="true"
       originx="0"
       originy="0" />
    <sodipodi:guide
       position="0,9.9799998"
       orientation="0,1"
       id="guide2296"
       inkscape:locked="false"
       inkscape:label=""
       inkscape:color="rgb(224,27,36)" />
  </sodipodi:namedview>
  <defs
     id="defs316" />
  <g
     inkscape:label="Layer 1"
     inkscape:groupmode="layer"
     id="layer1"
     transform="translate(-101,84.997417)"
     style="fill:none;stroke:#000000;stroke-opacity:1;stroke-width:0.1;stroke-dasharray:none">
    <path
       id="path1410"
       style="font-size:4.40972px;font-family:Questrial;-inkscape-font-specification:'Questrial, Normal';letter-spacing:0.185208px;fill:none;stroke:#000000;stroke-width:0.1;stroke-opacity:1;stroke-dasharray:none"
       d="m 155.89325,-34.708991 v 3.086633 h 0.33073 v -3.086633 z m -4.30826,0.846459 c -0.22049,0 -0.41192,0.05162 -0.57361,0.154513 -0.16169,0.09995 -0.28766,0.236862 -0.37879,0.410311 -0.0882,0.170509 -0.13229,0.361426 -0.13229,0.573092 0,0.208727 0.0441,0.399643 0.13229,0.573091 0.0911,0.173449 0.2171,0.311552 0.37879,0.414445 0.16169,0.09995 0.35312,0.150379 0.57361,0.150379 0.26164,0 0.48332,-0.06786 0.66559,-0.203089 0.18522,-0.135231 0.3105,-0.309909 0.37517,-0.524516 h -0.3576 c -0.05,0.126412 -0.13065,0.229133 -0.24236,0.308509 -0.10878,0.07937 -0.24107,0.118855 -0.39688,0.118855 -0.16169,0 -0.3027,-0.03829 -0.42323,-0.114721 -0.12054,-0.07643 -0.21335,-0.177446 -0.27802,-0.303858 -0.0647,-0.129351 -0.0966,-0.269165 -0.0966,-0.419095 0,-0.15287 0.032,-0.292684 0.0966,-0.419096 0.0647,-0.126412 0.15749,-0.227423 0.27802,-0.303858 0.12053,-0.07643 0.26154,-0.114721 0.42323,-0.114721 0.15581,0 0.2881,0.03948 0.39688,0.118855 0.11168,0.07938 0.19236,0.182097 0.24236,0.308509 h 0.3576 c -0.0647,-0.214606 -0.18996,-0.389285 -0.37517,-0.524516 -0.18227,-0.135231 -0.40395,-0.203089 -0.66559,-0.203089 z m 2.5926,0 c -0.22342,0 -0.41725,0.05162 -0.58187,0.154513 -0.16463,0.09995 -0.29111,0.236862 -0.37931,0.410311 -0.0882,0.170509 -0.13229,0.361426 -0.13229,0.573092 0,0.208727 0.0441,0.399643 0.13229,0.573091 0.0882,0.173449 0.21468,0.311552 0.37931,0.414445 0.16462,0.09995 0.35845,0.150379 0.58187,0.150379 0.22637,0 0.4207,-0.05043 0.5824,-0.150379 0.16462,-0.102893 0.29111,-0.240996 0.3793,-0.414445 0.0882,-0.173448 0.13229,-0.364364 0.13229,-0.573091 0,-0.211666 -0.0441,-0.402583 -0.13229,-0.573092 -0.0882,-0.173449 -0.21468,-0.310358 -0.3793,-0.410311 -0.1617,-0.102893 -0.35603,-0.154513 -0.5824,-0.154513 z m 3.76153,0 c -0.22343,0 -0.41725,0.05162 -0.58188,0.154513 -0.16463,0.09995 -0.29111,0.236862 -0.3793,0.410311 -0.0882,0.170509 -0.13229,0.361426 -0.13229,0.573092 0,0.208727 0.0441,0.399643 0.13229,0.573091 0.0882,0.173449 0.21467,0.311552 0.3793,0.414445 0.16463,0.09995 0.35845,0.150379 0.58188,0.150379 0.22637,0 0.42071,-0.05043 0.58239,-0.150379 0.16464,-0.102893 0.29111,-0.240996 0.37931,-0.414445 0.0882,-0.173448 0.13229,-0.364364 0.13229,-0.573091 0,-0.211666 -0.0441,-0.402583 -0.13229,-0.573092 -0.0882,-0.173449 -0.21467,-0.310358 -0.37931,-0.410311 -0.16168,-0.102893 -0.35602,-0.154513 -0.58239,-0.154513 z m 5.53868,0 c -0.13523,0 -0.253,0.02376 -0.35295,0.0708 -0.097,0.0441 -0.1777,0.09862 -0.24236,0.163298 -0.0647,0.06468 -0.1146,0.129113 -0.14986,0.193786 -0.0323,0.06173 -0.0544,0.111642 -0.0661,0.149862 v -0.542086 h -0.33073 v 2.204517 h 0.33073 v -0.969967 c 0,-0.16169 0.0308,-0.313125 0.0925,-0.454236 0.0647,-0.14405 0.15578,-0.260104 0.27337,-0.348299 0.12053,-0.09113 0.26325,-0.136942 0.42788,-0.136942 h 0.0398 v -0.33073 z m -3.84524,0.03566 v 1.283126 c 0,0.208726 0.0412,0.385116 0.1235,0.529167 0.0853,0.141111 0.1955,0.248449 0.33073,0.321944 0.13524,0.07055 0.27796,0.105937 0.42788,0.105937 0.17934,0 0.32616,-0.03709 0.4408,-0.110588 0.11466,-0.07349 0.21156,-0.162884 0.29094,-0.268717 v 0.343648 h 0.33073 v -2.204517 h -0.33073 v 1.26969 c 0,0.132291 -0.0308,0.248345 -0.0925,0.348299 -0.0588,0.09995 -0.13827,0.179429 -0.23823,0.238229 -0.1,0.05585 -0.21139,0.08371 -0.33486,0.08371 -0.17933,0 -0.32786,-0.06033 -0.44545,-0.180867 -0.11466,-0.123473 -0.17208,-0.284818 -0.17208,-0.484725 v -1.274341 z m -5.45497,0.264584 c 0.16464,0 0.30325,0.03829 0.41496,0.114721 0.11465,0.07643 0.20114,0.177446 0.25994,0.303858 0.0588,0.126412 0.0884,0.266226 0.0884,0.419096 0,0.14993 -0.0296,0.289744 -0.0884,0.419095 -0.0588,0.126412 -0.14528,0.227423 -0.25994,0.303858 -0.11171,0.07643 -0.25032,0.114721 -0.41496,0.114721 -0.16168,0 -0.29979,-0.03829 -0.41444,-0.114721 -0.11465,-0.07643 -0.20114,-0.177446 -0.25994,-0.303858 -0.0588,-0.129351 -0.0884,-0.269165 -0.0884,-0.419095 0,-0.15287 0.0296,-0.292684 0.0884,-0.419096 0.0588,-0.126412 0.14528,-0.227423 0.25994,-0.303858 0.11465,-0.07643 0.25276,-0.114721 0.41444,-0.114721 z m 3.76153,0 c 0.16463,0 0.30273,0.03829 0.41444,0.114721 0.11466,0.07643 0.20165,0.177446 0.26045,0.303858 0.0588,0.126412 0.0884,0.266226 0.0884,0.419096 0,0.14993 -0.0296,0.289744 -0.0884,0.419095 -0.0588,0.126412 -0.14579,0.227423 -0.26045,0.303858 -0.11171,0.07643 -0.24981,0.114721 -0.41444,0.114721 -0.16169,0 -0.29979,-0.03829 -0.41445,-0.114721 -0.11465,-0.07643 -0.20113,-0.177446 -0.25993,-0.303858 -0.0588,-0.129351 -0.0884,-0.269165 -0.0884,-0.419095 0,-0.15287 0.0296,-0.292684 0.0884,-0.419096 0.0588,-0.126412 0.14528,-0.227423 0.25993,-0.303858 0.11466,-0.07643 0.25276,-0.114721 0.41445,-0.114721 z" />
    <path
       id="path1435"
       style="font-size:4.40972px;font-family:Questrial;-inkscape-font-specification:'Questrial, Normal';letter-spacing:0.185208px;fill:none;stroke:#000000;stroke-width:0.1;stroke-opacity:1;stroke-dasharray:none"
       d="m 108.83049,-34.616491 v 0.789616 h -0.44959 v 0.290939 h 0.44959 v 1.913578 h 0.33073 v -1.913578 h 0.50746 v -0.290939 h -0.50746 v -0.789616 z m 2.34146,0.753959 c -0.22343,0 -0.41725,0.05162 -0.58188,0.154513 -0.16462,0.09995 -0.29111,0.236862 -0.3793,0.410311 -0.0882,0.170509 -0.1323,0.361426 -0.1323,0.573092 0,0.208727 0.0441,0.399643 0.1323,0.573091 0.0882,0.173449 0.21468,0.311552 0.3793,0.414445 0.16463,0.09995 0.35845,0.150379 0.58188,0.150379 0.22636,0 0.4207,-0.05043 0.58239,-0.150379 0.16463,-0.102893 0.29111,-0.240996 0.37931,-0.414445 0.0882,-0.173448 0.13229,-0.364364 0.13229,-0.573091 0,-0.211666 -0.0441,-0.402583 -0.13229,-0.573092 -0.0882,-0.173449 -0.21468,-0.310358 -0.37931,-0.410311 -0.16169,-0.102893 -0.35603,-0.154513 -0.58239,-0.154513 z m 2.77812,0 c -0.17933,0 -0.32614,0.03709 -0.4408,0.110588 -0.11465,0.0735 -0.21156,0.162884 -0.29094,0.268718 v -0.343649 h -0.33072 v 2.204517 h 0.33072 v -1.26969 c 0,-0.132291 0.0296,-0.248345 0.0884,-0.348299 0.0617,-0.102897 0.14241,-0.182375 0.24236,-0.238229 0.1,-0.05585 0.21139,-0.08372 0.33487,-0.08372 0.18226,0 0.3308,0.06153 0.44545,0.185001 0.11465,0.120532 0.17208,0.280684 0.17208,0.480591 v 1.274341 h 0.33073 v -1.283126 c 0,-0.208726 -0.0424,-0.383405 -0.12764,-0.524516 -0.0823,-0.14405 -0.19136,-0.251389 -0.3266,-0.321944 -0.13229,-0.0735 -0.27501,-0.110588 -0.42788,-0.110588 z m 2.57556,0 c -0.22343,0 -0.41777,0.05162 -0.5824,0.154513 -0.16463,0.09995 -0.29059,0.236862 -0.37879,0.410311 -0.0882,0.170509 -0.13229,0.361426 -0.13229,0.573092 0,0.208727 0.0453,0.399643 0.13643,0.573091 0.0941,0.173449 0.22517,0.311552 0.39274,0.414445 0.16757,0.09995 0.3631,0.150379 0.58653,0.150379 0.26164,0 0.47461,-0.06205 0.63923,-0.185519 0.16757,-0.126412 0.28943,-0.287758 0.36587,-0.484725 h -0.36173 c -0.0588,0.108773 -0.14066,0.198162 -0.2465,0.268718 -0.10582,0.06761 -0.23693,0.101285 -0.39274,0.101285 -0.14699,0 -0.27638,-0.03077 -0.38809,-0.0925 -0.1117,-0.06468 -0.2011,-0.149965 -0.26872,-0.255799 -0.0646,-0.108772 -0.10584,-0.227732 -0.1235,-0.357084 h 1.84743 v -0.132291 c 0,-0.211666 -0.0441,-0.402583 -0.13229,-0.573092 -0.0882,-0.173449 -0.21467,-0.310358 -0.37931,-0.410311 -0.16168,-0.102893 -0.35551,-0.154513 -0.58187,-0.154513 z m -5.35368,0.300241 c 0.16462,0 0.30325,0.03829 0.41496,0.114721 0.11465,0.07643 0.20113,0.177446 0.25993,0.303858 0.0588,0.126412 0.0884,0.266226 0.0884,0.419096 0,0.14993 -0.0296,0.289744 -0.0884,0.419095 -0.0588,0.126412 -0.14528,0.227423 -0.25993,0.303858 -0.11171,0.07643 -0.25034,0.114721 -0.41496,0.114721 -0.16169,0 -0.29979,-0.03829 -0.41445,-0.114721 -0.11464,-0.07643 -0.20113,-0.177446 -0.25993,-0.303858 -0.0588,-0.129351 -0.0884,-0.269165 -0.0884,-0.419095 0,-0.15287 0.0296,-0.292684 0.0884,-0.419096 0.0588,-0.126412 0.14528,-0.227423 0.25993,-0.303858 0.11466,-0.07643 0.25276,-0.114721 0.41445,-0.114721 z m 5.35368,0 c 0.21166,0 0.38224,0.06324 0.51159,0.189652 0.12935,0.126412 0.20883,0.283658 0.23823,0.471806 h -1.49965 c 0.0323,-0.188148 0.11182,-0.345394 0.23823,-0.471806 0.12935,-0.126412 0.29993,-0.189652 0.5116,-0.189652 z" />
    <path
       id="path1452"
       style="font-size:4.40972px;font-family:Questrial;-inkscape-font-specification:'Questrial, Normal';letter-spacing:0.185208px;fill:none;stroke:#000000;stroke-width:0.1;stroke-opacity:1;stroke-dasharray:none"
       d="m 110.72236,-64.708711 v 3.08715 h 0.33073 v -3.08715 z m -1.71514,0.846977 c -0.22342,0 -0.41776,0.0511 -0.58239,0.153996 -0.16463,0.09995 -0.29111,0.236861 -0.37931,0.410311 -0.0882,0.170508 -0.13229,0.361425 -0.13229,0.573091 0,0.208727 0.0441,0.40016 0.13229,0.573609 0.0882,0.173448 0.21468,0.311551 0.37931,0.414445 0.16463,0.09995 0.35897,0.149861 0.58239,0.149861 0.22637,0 0.42019,-0.04991 0.58188,-0.149861 0.16463,-0.102894 0.29111,-0.240997 0.3793,-0.414445 0.0882,-0.173449 0.1323,-0.364882 0.1323,-0.573609 0,-0.211666 -0.0441,-0.402583 -0.1323,-0.573091 -0.0882,-0.17345 -0.21467,-0.310358 -0.3793,-0.410311 -0.16169,-0.102893 -0.35551,-0.153996 -0.58188,-0.153996 z m 6.48643,0 c -0.17933,0 -0.32324,0.03948 -0.43202,0.118856 -0.10874,0.07937 -0.18823,0.163469 -0.23823,0.251664 v -0.33538 h -0.33072 v 2.205033 h 0.33072 v -1.318782 c 0,-0.196967 0.0586,-0.349597 0.17622,-0.45837 0.11759,-0.108773 0.2574,-0.163298 0.4191,-0.163298 0.1558,0 0.28519,0.05743 0.38809,0.172083 0.10583,0.111712 0.15864,0.260243 0.15864,0.445451 v 1.322916 h 0.33073 v -1.318782 c 0,-0.196967 0.0586,-0.349597 0.17622,-0.45837 0.11759,-0.108773 0.2574,-0.163298 0.4191,-0.163298 0.1558,0 0.28519,0.05743 0.38809,0.172083 0.10583,0.111712 0.15864,0.260243 0.15864,0.445451 v 1.322916 h 0.33073 v -1.331701 c 0,-0.185209 -0.0395,-0.34536 -0.11885,-0.480591 -0.0764,-0.138171 -0.17625,-0.244315 -0.29973,-0.31781 -0.12347,-0.0735 -0.25576,-0.110071 -0.39687,-0.110071 -0.14405,0 -0.26763,0.02615 -0.37052,0.07906 -0.10291,0.05292 -0.187,0.114962 -0.25167,0.185518 -0.0617,0.07056 -0.10702,0.130895 -0.13642,0.180868 -0.0706,-0.141111 -0.16918,-0.25016 -0.29559,-0.326595 -0.12347,-0.07938 -0.25867,-0.118856 -0.40566,-0.118856 z m 3.96875,0 c -0.22343,0 -0.41725,0.0511 -0.58188,0.153996 -0.16462,0.09995 -0.2911,0.236861 -0.3793,0.410311 -0.0882,0.170508 -0.1323,0.361425 -0.1323,0.573091 0,0.208727 0.0453,0.40016 0.13643,0.573609 0.0941,0.173448 0.22517,0.311551 0.39274,0.414445 0.16757,0.09995 0.3631,0.149861 0.58653,0.149861 0.26165,0 0.47461,-0.06153 0.63924,-0.185001 0.16756,-0.126412 0.28943,-0.288275 0.36587,-0.485242 h -0.36122 c -0.0588,0.108773 -0.14118,0.198162 -0.24702,0.268717 -0.10583,0.06762 -0.23692,0.101803 -0.39274,0.101803 -0.14699,0 -0.27638,-0.03077 -0.38809,-0.0925 -0.11171,-0.06468 -0.20109,-0.149965 -0.26871,-0.255798 -0.0647,-0.108773 -0.10584,-0.228249 -0.12351,-0.357601 h 1.84743 v -0.132292 c 0,-0.211666 -0.0441,-0.402583 -0.13229,-0.573091 -0.0882,-0.17345 -0.21468,-0.310358 -0.37931,-0.410311 -0.16169,-0.102893 -0.35551,-0.153996 -0.58187,-0.153997 z m -14.01827,0.03514 0.86403,2.205033 h 0.38809 l 0.8599,-2.205033 h -0.36174 l -0.69194,1.852083 -0.69712,-1.852083 z m 6.34535,0 v 1.283126 c 0,0.208726 0.0412,0.385116 0.12351,0.529166 0.0853,0.141112 0.19549,0.248449 0.33073,0.321945 0.13523,0.07055 0.27795,0.105936 0.42788,0.105936 0.17933,0 0.32615,-0.03657 0.4408,-0.11007 0.11465,-0.0735 0.21156,-0.163401 0.29094,-0.269235 v 0.344165 h 0.33073 v -2.205033 h -0.33073 v 1.270207 c 0,0.132291 -0.0308,0.248345 -0.0925,0.348299 -0.0588,0.09996 -0.13828,0.179435 -0.23823,0.238228 -0.1,0.05586 -0.21139,0.08372 -0.33487,0.08372 -0.17932,0 -0.32785,-0.06034 -0.44545,-0.180867 -0.11465,-0.123473 -0.17208,-0.285335 -0.17208,-0.485242 v -1.274341 z m -2.78226,0.264583 c 0.16464,0 0.30273,0.03829 0.41445,0.114722 0.11464,0.07643 0.20113,0.177962 0.25993,0.304374 0.0588,0.126412 0.0884,0.265709 0.0884,0.418579 0,0.149931 -0.0296,0.289744 -0.0884,0.419096 -0.0588,0.126412 -0.14529,0.22794 -0.25993,0.304374 -0.11172,0.07644 -0.24981,0.114722 -0.41445,0.114722 -0.16168,0 -0.30031,-0.03829 -0.41496,-0.114722 -0.11465,-0.07643 -0.20113,-0.177962 -0.25993,-0.304374 -0.0588,-0.129352 -0.0884,-0.269165 -0.0884,-0.419096 0,-0.15287 0.0296,-0.292167 0.0884,-0.418579 0.0588,-0.126412 0.14528,-0.227939 0.25993,-0.304374 0.11465,-0.07644 0.25328,-0.114722 0.41496,-0.114722 z m 10.45518,0 c 0.21166,0 0.38224,0.06324 0.51159,0.189653 0.12936,0.126412 0.20883,0.283658 0.23823,0.471806 h -1.49965 c 0.0323,-0.188148 0.11182,-0.345394 0.23823,-0.471806 0.12935,-0.126412 0.29993,-0.189653 0.5116,-0.189653 z" />
    <path
       id="path1477"
       style="font-size:4.40972px;font-family:Questrial;-inkscape-font-specification:'Questrial, Normal';letter-spacing:0.185208px;fill:none;stroke:#000000;stroke-width:0.1;stroke-opacity:1;stroke-dasharray:none"
       d="m 134.17778,-34.710025 v 3.08715 h 0.33073 v -3.08715 z m 1.0759,0.07958 v 0.432015 h 0.35709 v -0.432015 z m -2.71198,0.767395 c -0.22048,0 -0.41191,0.05162 -0.57361,0.154512 -0.16168,0.09995 -0.28765,0.236346 -0.37878,0.409794 -0.0882,0.17051 -0.1323,0.361426 -0.1323,0.573092 0,0.208726 0.0441,0.400159 0.1323,0.573608 0.0911,0.173449 0.2171,0.311552 0.37878,0.414445 0.1617,0.09995 0.35313,0.149862 0.57361,0.149862 0.26164,0 0.48333,-0.06734 0.6656,-0.202572 0.18522,-0.135231 0.3105,-0.310426 0.37517,-0.525032 h -0.3576 c -0.05,0.126412 -0.13065,0.229134 -0.24237,0.308508 -0.10877,0.07937 -0.24106,0.119373 -0.39687,0.119373 -0.16169,0 -0.3027,-0.03829 -0.42323,-0.114722 -0.12054,-0.07643 -0.21335,-0.177962 -0.27802,-0.304374 -0.0647,-0.129351 -0.0966,-0.269165 -0.0966,-0.419096 0,-0.15287 0.032,-0.292167 0.0966,-0.418579 0.0647,-0.126412 0.15749,-0.227939 0.27802,-0.304374 0.12053,-0.07644 0.26154,-0.114722 0.42323,-0.114722 0.15581,0 0.2881,0.04 0.39687,0.119373 0.11169,0.07937 0.19237,0.182096 0.24237,0.308508 h 0.3576 c -0.0647,-0.214607 -0.18996,-0.389801 -0.37517,-0.525033 -0.18227,-0.135231 -0.40396,-0.202571 -0.6656,-0.202571 z m 4.93459,0 c -0.18227,0 -0.34003,0.03538 -0.47233,0.105936 -0.12934,0.06762 -0.23497,0.161621 -0.31729,0.282154 v -0.35295 h -0.33073 v 3.077848 h 0.33073 v -1.229899 c 0.0823,0.117592 0.18795,0.212792 0.31729,0.286287 0.1323,0.07056 0.29006,0.105937 0.47233,0.105937 0.2146,0 0.4009,-0.04991 0.55965,-0.149862 0.16169,-0.102893 0.28698,-0.240996 0.37517,-0.414445 0.0882,-0.173449 0.13229,-0.364882 0.13229,-0.573608 0,-0.211666 -0.0441,-0.402582 -0.13229,-0.573092 -0.0882,-0.173448 -0.21348,-0.30984 -0.37517,-0.409794 -0.15875,-0.102893 -0.34505,-0.154512 -0.55965,-0.154512 z m -2.20969,0.03514 v 2.205033 h 0.33073 v -2.205033 z m 2.16524,0.264583 c 0.16463,0 0.30445,0.03829 0.4191,0.114722 0.11759,0.07643 0.20698,0.177962 0.26872,0.304374 0.0617,0.126412 0.093,0.265709 0.093,0.418579 0,0.149931 -0.0313,0.289745 -0.093,0.419096 -0.0617,0.126412 -0.15113,0.227939 -0.26872,0.304374 -0.11465,0.07644 -0.25447,0.114722 -0.4191,0.114722 -0.16169,0 -0.29979,-0.03829 -0.41444,-0.114722 -0.11465,-0.07643 -0.20113,-0.177962 -0.25993,-0.304374 -0.0588,-0.129351 -0.0884,-0.269165 -0.0884,-0.419096 0,-0.15287 0.0296,-0.292167 0.0884,-0.418579 0.0588,-0.126412 0.14528,-0.227939 0.25993,-0.304374 0.11465,-0.07644 0.25275,-0.114722 0.41444,-0.114722 z" />
    <path
       id="path1494"
       style="font-size:4.40972px;font-family:Questrial;-inkscape-font-specification:'Questrial, Normal';letter-spacing:0.185208px;fill:none;stroke:#000000;stroke-width:0.1;stroke-opacity:1;stroke-dasharray:none"
       d="m 158.34788,-64.629129 v 0.432015 h 0.3576 v -0.432015 z m -4.67413,0.767395 c -0.21461,0 -0.40262,0.04991 -0.56431,0.149862 -0.15875,0.09701 -0.28233,0.2305 -0.37052,0.401009 -0.0882,0.167569 -0.13229,0.357292 -0.13229,0.568957 0,0.208727 0.0441,0.398449 0.13229,0.568958 0.0882,0.170509 0.21177,0.305706 0.37052,0.40566 0.16169,0.09701 0.3497,0.145727 0.56431,0.145727 0.18226,0 0.33832,-0.03538 0.46767,-0.105936 0.13229,-0.0735 0.23963,-0.169212 0.32194,-0.286805 v 0.304375 c 0,0.226365 -0.0591,0.398138 -0.17673,0.51573 -0.11465,0.120533 -0.29805,0.180868 -0.55087,0.180868 -0.16757,0 -0.30619,-0.03077 -0.41496,-0.0925 -0.1088,-0.0588 -0.18486,-0.142374 -0.22893,-0.251147 h -0.36639 c 0.0617,0.191087 0.1795,0.345428 0.35295,0.463021 0.17345,0.120532 0.39856,0.180867 0.6749,0.180867 0.3322,0 0.58806,-0.0841 0.76739,-0.251664 0.18227,-0.167569 0.27337,-0.408393 0.27337,-0.722953 v -2.138888 h -0.33073 v 0.35295 c -0.0823,-0.120533 -0.18965,-0.214538 -0.32194,-0.282153 -0.12935,-0.07056 -0.28541,-0.105937 -0.46767,-0.105938 z m 2.80913,0 c -0.21461,0 -0.40262,0.0511 -0.56431,0.153996 -0.15875,0.09995 -0.28233,0.236861 -0.37052,0.410311 -0.0882,0.170508 -0.13229,0.361425 -0.13229,0.573091 0,0.208727 0.0441,0.40016 0.13229,0.573609 0.0882,0.173448 0.21177,0.311551 0.37052,0.414445 0.16169,0.09995 0.3497,0.149861 0.56431,0.149861 0.18226,0 0.3378,-0.03538 0.46715,-0.105936 0.13229,-0.07056 0.23963,-0.164562 0.32195,-0.282154 v 0.35295 h 0.33073 v -2.205033 h -0.33073 v 0.357084 c -0.0823,-0.120532 -0.18966,-0.215732 -0.32195,-0.286287 -0.12935,-0.07056 -0.28489,-0.105937 -0.46715,-0.105937 z m 4.03024,0 c -0.17933,0 -0.32615,0.03658 -0.4408,0.110071 -0.11465,0.0735 -0.21156,0.163401 -0.29094,0.269234 v -0.344165 h -0.33072 v 2.205033 h 0.33072 v -1.270206 c 0,-0.132292 0.029,-0.248346 0.0878,-0.3483 0.0617,-0.102896 0.14293,-0.182375 0.24288,-0.238228 0.1,-0.05585 0.21139,-0.08372 0.33487,-0.08372 0.18226,0 0.33079,0.06153 0.44545,0.185002 0.11465,0.120532 0.17208,0.2812 0.17208,0.481108 v 1.27434 h 0.33073 v -1.283125 c 0,-0.208727 -0.0429,-0.383922 -0.12816,-0.525033 -0.0823,-0.144051 -0.19084,-0.251389 -0.32608,-0.321944 -0.13229,-0.0735 -0.27501,-0.110071 -0.42788,-0.110071 z m -2.1518,0.03514 v 2.205033 h 0.33073 v -2.205033 z m -4.64365,0.264583 c 0.16169,0 0.2986,0.03658 0.41031,0.110071 0.11465,0.0735 0.20114,0.172117 0.25994,0.295589 0.0617,0.123472 0.093,0.261575 0.093,0.414445 0,0.149931 -0.0313,0.288033 -0.093,0.414445 -0.0588,0.123472 -0.14528,0.222094 -0.25994,0.295589 -0.11171,0.0735 -0.24862,0.110071 -0.41031,0.110071 -0.16169,0 -0.30098,-0.03657 -0.41858,-0.110071 -0.11759,-0.0735 -0.2075,-0.172117 -0.26923,-0.295589 -0.0617,-0.126412 -0.0925,-0.264514 -0.0925,-0.414445 0,-0.15287 0.0308,-0.290973 0.0925,-0.414445 0.0617,-0.123472 0.15164,-0.222094 0.26923,-0.295589 0.1176,-0.0735 0.25689,-0.110071 0.41858,-0.110071 z m 2.80913,0 c 0.16464,0 0.30273,0.03829 0.41445,0.114722 0.11464,0.07643 0.20165,0.177962 0.26045,0.304374 0.0588,0.126412 0.0879,0.265709 0.0879,0.418579 0,0.149931 -0.029,0.289744 -0.0879,0.419096 -0.0588,0.126412 -0.1458,0.22794 -0.26045,0.304374 -0.11172,0.07644 -0.24981,0.114722 -0.41445,0.114722 -0.16168,0 -0.30098,-0.03829 -0.41858,-0.114722 -0.11759,-0.07643 -0.2075,-0.177962 -0.26923,-0.304374 -0.0617,-0.129352 -0.0925,-0.269165 -0.0925,-0.419096 0,-0.15287 0.0308,-0.292167 0.0925,-0.418579 0.0617,-0.126412 0.15164,-0.227939 0.26923,-0.304374 0.1176,-0.07644 0.2569,-0.114722 0.41858,-0.114722 z" />
    <path
       id="rect1050"
       style="fill:none;fill-opacity:1;stroke:#000000;stroke-width:0.1;stroke-dasharray:none;stroke-opacity:1"
       d="m 134.82377,-40.085241 v 3.408588 h -2.77657 v 1.117712 h 0.36173 v -0.765328 h 2.41484 v 0.765328 h 0.35192 v -0.765328 h 2.41226 v 0.765328 h 0.36173 v -1.117712 h -2.77399 v -3.408588 z"
       sodipodi:nodetypes="ccccccccccccccccc"
       inkscape:label="SELECTOR" />
    <path
       id="path5455"
       style="display:inline;fill:none;fill-opacity:1;stroke:#000000;stroke-width:0.1;stroke-dasharray:none;stroke-opacity:1"
       d="m 157.78715,-28.926799 c -0.15253,4.11e-4 -0.32449,0.0095 -0.47904,0.02697 -0.30911,0.03496 -0.64495,0.124172 -0.74619,0.198203 -0.12741,0.09317 -0.20228,0.310914 -0.24328,0.707479 l -0.0591,0.573033 -0.88757,0.792423 c -0.48817,0.435782 -1.06433,0.911555 -1.28032,1.057269 -0.216,0.14571 -0.50802,0.264848 -0.64893,0.264848 -0.14091,0 -0.66354,0.200892 -1.16147,0.446483 -0.49794,0.245593 -1.13645,0.490399 -1.41881,0.543948 -0.28236,0.05355 -1.0214,0.317786 -1.64224,0.587093 l -1.12874,0.489631 -0.87563,-0.293548 c -0.48163,-0.161361 -1.04929,-0.321063 -1.26144,-0.354991 -0.21216,-0.03392 -0.48814,-0.03602 -0.61329,-0.0046 -0.12515,0.03141 -0.30656,0.190908 -0.40315,0.354412 -0.0966,0.163506 -0.21833,0.664579 -0.27043,1.113516 -0.0642,0.553642 -0.0602,1.055383 0.0123,1.559419 0.0612,0.425238 0.18532,0.847091 0.29027,0.986194 0.14775,0.195826 0.26613,0.241351 0.60828,0.23403 0.23361,-0.005 0.5747,-0.08682 0.75814,-0.181831 l 0.33361,-0.172777 -0.0663,0.264077 c -0.0365,0.145309 -0.0391,0.35031 -0.006,0.455342 0.0334,0.105052 0.30627,0.315063 0.60655,0.466904 0.30029,0.151839 0.82108,0.51701 1.15724,0.811489 0.33616,0.294482 0.79849,0.763842 1.02741,1.043018 0.22893,0.279177 0.55041,0.776256 0.71442,1.104459 0.16401,0.328208 0.33314,0.817344 0.37579,1.087127 0.0427,0.269784 0.0569,0.630781 0.0318,0.802051 -0.0252,0.171274 -0.10842,0.335399 -0.1851,0.364818 -0.0767,0.02943 -0.36998,-0.06605 -0.65182,-0.212264 -0.28189,-0.146244 -0.83596,-0.513751 -1.23126,-0.816518 -0.39529,-0.302772 -0.97293,-0.771105 -1.28359,-1.040899 -0.31066,-0.269794 -0.91978,-0.823471 -1.3537,-1.230238 -0.43393,-0.406767 -1.68108,-1.621325 -2.77137,-2.69913 -1.6983,-1.678868 -2.02503,-1.959675 -2.28076,-1.959675 -0.16417,0 -0.34603,0.05732 -0.40411,0.12732 -0.0613,0.0739 -0.0973,0.497603 -0.0859,1.010849 0.0179,0.801174 0.0485,0.929522 0.32802,1.376627 0.16959,0.271203 0.66337,0.914696 1.09734,1.42998 0.43396,0.515287 1.29185,1.442329 1.90632,2.060029 0.61447,0.617701 1.60726,1.486889 2.20622,1.931555 0.59897,0.444666 1.31067,1.004315 1.58157,1.243723 0.27091,0.239409 0.75462,0.679397 1.07499,0.977718 0.32038,0.298326 0.83101,0.787505 1.13471,1.087124 0.30368,0.299621 0.76896,0.786761 1.03396,1.082503 0.26499,0.295747 0.58469,0.694137 0.71037,0.885264 0.12566,0.191127 0.45733,0.990971 0.73714,1.777462 0.27981,0.786493 0.50175,1.540928 0.49329,1.67653 -0.008,0.135601 -0.0189,0.645954 -0.0235,1.134123 -0.005,0.588518 0.0448,1.029727 0.14908,1.309594 l 0.15718,0.422218 -0.51448,-0.06626 c -0.3355,-0.0432 -0.86639,-0.25015 -1.52668,-0.594799 -0.66424,-0.346699 -1.13176,-0.528343 -1.35929,-0.528343 -0.19073,0 -0.50601,-0.06656 -0.70073,-0.147929 -0.19473,-0.08135 -0.49415,-0.147931 -0.6653,-0.147931 -0.17115,0 -0.42081,0.07553 -0.55493,0.167964 -0.13411,0.09243 -0.29948,0.236661 -0.36751,0.320511 -0.068,0.08385 -0.30101,0.412726 -0.51775,0.730789 -0.29924,0.439154 -0.39409,0.674322 -0.39409,0.976948 0,0.334653 0.0612,0.456749 0.38292,0.762756 0.21068,0.200416 0.59437,0.482494 0.85252,0.626773 0.25814,0.14428 0.72454,0.328482 1.03647,0.409312 0.37695,0.09768 1.05128,0.146964 2.01071,0.146964 1.1851,0 1.54891,0.03539 2.0321,0.198202 0.3237,0.109061 0.86579,0.36653 1.20482,0.572071 0.33903,0.205537 0.77189,0.443685 0.96173,0.529308 0.18984,0.08563 0.41174,0.179733 0.4931,0.209183 0.0814,0.02942 0.26304,0.05716 0.40372,0.06143 0.14067,0.0043 0.51298,-0.08083 0.82729,-0.188954 0.3143,-0.108129 0.95076,-0.267736 1.41437,-0.354611 0.46363,-0.08689 0.95661,-0.201014 1.09561,-0.253864 0.139,-0.05285 0.33402,-0.169524 0.43319,-0.259263 0.0992,-0.08975 0.34334,-0.171816 0.5426,-0.182216 0.19926,-0.01044 0.82809,-0.05039 1.39762,-0.08899 0.56953,-0.03858 1.15692,-0.131869 1.30517,-0.207255 0.14824,-0.07537 0.34112,-0.275651 0.42876,-0.445136 0.12753,-0.246782 0.15259,-0.546135 0.12501,-1.502403 -0.0338,-1.171021 -0.0417,-1.207169 -0.41104,-1.875507 -0.20716,-0.374836 -0.69456,-1.12927 -1.08308,-1.676531 -0.38853,-0.547251 -0.76276,-1.053775 -0.83153,-1.125452 -0.0688,-0.07168 -0.12501,-0.146679 -0.12501,-0.166807 0,-0.02016 0.0957,-0.19878 0.21265,-0.396982 0.12149,-0.205897 0.25068,-0.662878 0.30145,-1.065938 0.0489,-0.387985 0.0944,-0.838496 0.10112,-1.001218 0.007,-0.162724 -0.0689,-0.498267 -0.16796,-0.745615 l -0.17996,-0.449769 0.73753,-0.980225 c 0.4057,-0.539139 1.13689,-1.557144 1.62471,-2.262275 0.48783,-0.70513 1.1437,-1.659272 1.45753,-2.120318 0.31383,-0.461047 0.79852,-1.052828 1.07711,-1.314991 0.27858,-0.262166 0.76419,-0.703628 1.07922,-0.981187 0.49164,-0.433156 0.5641,-0.540398 0.51082,-0.756209 -0.0342,-0.138288 -0.181,-0.376965 -0.32629,-0.530466 -0.14529,-0.153502 -0.56252,-0.500849 -0.92725,-0.771815 -0.48272,-0.358613 -0.71747,-0.47544 -0.86273,-0.429339 -0.11141,0.03536 -0.22368,0.180299 -0.25406,0.328027 -0.0299,0.145547 -0.10622,0.442169 -0.1697,0.65913 -0.0661,0.225899 -0.31816,0.61053 -0.58979,0.900095 -0.29146,0.310719 -0.53982,0.698003 -0.6441,1.004492 -0.10143,0.298065 -0.84437,1.472254 -1.84623,2.91775 -0.92209,1.330401 -1.6987,2.418876 -1.72584,2.418873 -0.0271,-3e-6 -0.33012,-0.431057 -0.67338,-0.957878 l -0.62408,-0.95788 0.0591,-0.838267 c 0.0325,-0.461046 0.12071,-1.082349 0.19589,-1.380672 0.0752,-0.298325 0.19674,-0.708558 0.27024,-0.911652 0.0735,-0.203094 0.6928,-1.068479 1.37625,-1.923078 0.68345,-0.8546 1.43585,-1.839442 1.6719,-2.188505 0.37151,-0.549365 0.43458,-0.718689 0.46902,-1.259708 0.0292,-0.459131 -0.0172,-0.801084 -0.17509,-1.288409 -0.11817,-0.364872 -0.33617,-0.840886 -0.48423,-1.057849 -0.17534,-0.256916 -0.3566,-0.404837 -0.52006,-0.42414 -0.14326,-0.01694 -0.3087,0.03987 -0.38543,0.132329 -0.0902,0.108742 -0.15267,0.572423 -0.18973,1.410525 l -0.0551,1.248538 -0.76429,0.96019 c -0.42038,0.528034 -0.9778,1.171264 -1.23872,1.429598 -0.26093,0.258336 -0.62987,0.691684 -0.81977,0.962887 -0.18991,0.271204 -0.52565,0.80375 -0.7462,1.183435 -0.22055,0.379684 -0.51246,0.890038 -0.64873,1.134122 -0.13627,0.244082 -0.31115,0.456587 -0.38851,0.472295 -0.0773,0.0157 -0.34814,-0.06041 -0.60173,-0.169114 l -0.46112,-0.197626 0.004,-0.521216 c 0.002,-0.286693 0.0579,-0.750703 0.12347,-1.031077 0.11309,-0.483641 0.16968,-0.549656 1.10523,-1.290526 0.54234,-0.429492 1.03644,-0.843697 1.09791,-0.920319 0.0615,-0.07662 0.16132,-0.374397 0.22189,-0.66183 0.0606,-0.287434 0.10989,-0.664653 0.10961,-0.838264 -3e-4,-0.173614 -0.0474,-0.484274 -0.10459,-0.690337 -0.0659,-0.237468 -0.1906,-0.414081 -0.34035,-0.482311 l -0.23634,-0.107664 0.23981,-0.188574 c 0.23315,-0.183409 0.23927,-0.222211 0.21765,-1.396851 -0.0222,-1.203845 -0.0213,-1.20946 0.26408,-1.548056 0.15754,-0.186897 0.41272,-0.606048 0.56706,-0.931488 0.15435,-0.325448 0.30783,-0.73573 0.34093,-0.911655 0.0329,-0.175926 0.0335,-0.42545 0.001,-0.554543 -0.0338,-0.134532 -0.17532,-0.278759 -0.33149,-0.337847 -0.14985,-0.0567 -0.39812,-0.130596 -0.55184,-0.164301 -0.0769,-0.01685 -0.20999,-0.02508 -0.36251,-0.02466 z m -0.68475,1.895149 c 0.0816,0.0034 0.18367,0.02735 0.33418,0.06763 l 0.43705,0.116924 -0.27293,0.351141 c -0.15012,0.193111 -0.30552,0.439895 -0.34537,0.548375 -0.0398,0.108458 -0.0702,0.685406 -0.0672,1.282054 l 0.005,1.084812 -0.60192,0.345169 c -0.33109,0.189843 -0.67445,0.390365 -0.76295,0.445713 -0.0885,0.05533 -0.3449,0.219466 -0.56976,0.364623 -0.22485,0.145156 -0.66613,0.473486 -0.98061,0.729628 -0.31448,0.256146 -0.67354,0.580194 -0.79801,0.720192 -0.12447,0.14 -0.27778,0.419698 -0.34073,0.62138 -0.0898,0.287466 -0.0875,0.399331 0.0108,0.517752 0.0689,0.08309 0.20384,0.151011 0.29971,0.151011 0.0958,0 0.74198,-0.532009 1.43576,-1.182277 0.89036,-0.834528 1.35302,-1.199546 1.57309,-1.240832 0.17148,-0.03217 0.44092,-0.04381 0.59865,-0.0258 0.23481,0.02679 0.29272,0.08532 0.31974,0.322825 0.0182,0.159531 0.003,0.486794 -0.0325,0.727318 -0.0379,0.252412 -0.15692,0.525876 -0.2816,0.646803 -0.11881,0.11523 -0.39262,0.349421 -0.60847,0.520256 -0.21586,0.170835 -0.61636,0.486371 -0.89008,0.701317 -0.42795,0.336049 -0.51546,0.46537 -0.62466,0.922245 -0.0698,0.292225 -0.15175,0.898224 -0.18202,1.34677 l -0.0551,0.815537 0.38388,0.367898 c 0.32824,0.3146 0.41684,0.496466 0.61194,1.255471 0.12549,0.488167 0.31408,1.180901 0.41914,1.539388 0.15958,0.544537 0.31214,0.789969 0.92706,1.491427 l 0.73618,0.839612 -0.4827,0.300099 c -0.26548,0.165031 -0.54643,0.425841 -0.62427,0.579579 -0.0778,0.153744 -0.19672,0.514524 -0.26427,0.801861 -0.0941,0.400243 -0.23118,0.63373 -0.58613,0.998138 -0.28955,0.297266 -0.74675,0.611952 -1.21887,0.839035 -0.524,0.252032 -0.87387,0.50182 -1.14202,0.815536 -0.35114,0.41079 -0.39538,0.435199 -0.48327,0.265809 -0.0533,-0.102568 -0.21759,-0.563675 -0.36523,-1.024716 -0.14764,-0.461047 -0.37624,-1.066269 -0.50793,-1.345039 -0.13169,-0.27877 -0.58816,-0.900072 -1.01451,-1.380671 -0.42631,-0.480608 -1.28283,-1.339884 -1.9032,-1.909409 -0.62035,-0.56954 -1.25845,-1.146464 -1.41801,-1.282065 -0.15957,-0.135603 -0.51155,-0.426508 -0.78222,-0.64642 -0.27067,-0.219909 -0.78059,-0.60422 -1.13316,-0.854058 -0.35256,-0.249839 -1.18156,-1.001833 -1.84218,-1.671138 -0.66062,-0.669308 -1.49664,-1.567897 -1.85778,-1.996849 -0.36114,-0.428954 -0.77121,-0.961381 -0.91127,-1.183242 -0.16873,-0.267293 -0.26041,-0.560906 -0.27178,-0.870241 l -0.0171,-0.466899 2.47608,2.439095 c 1.36187,1.341495 2.87491,2.775758 3.36231,3.187221 0.48739,0.411462 1.17469,0.961209 1.52725,1.22157 0.35256,0.260357 0.86292,0.577853 1.13412,0.705553 0.27121,0.127698 0.65455,0.232692 0.85194,0.233065 0.20555,5.96e-4 0.45676,-0.07817 0.58787,-0.184334 0.19115,-0.154784 0.23531,-0.299568 0.26793,-0.876788 0.0215,-0.380209 -0.0114,-0.926181 -0.0728,-1.213288 -0.0616,-0.28711 -0.24691,-0.787456 -0.41182,-1.111973 -0.16491,-0.324518 -0.49912,-0.849131 -0.74272,-1.165713 -0.24361,-0.316585 -0.75033,-0.834243 -1.12604,-1.150496 -0.37571,-0.316252 -0.86082,-0.660113 -1.07788,-0.764107 -0.21705,-0.103996 -0.39488,-0.2122 -0.39563,-0.240384 -6e-4,-0.0282 0.19796,-0.316651 0.44148,-0.641029 0.24351,-0.324376 0.44304,-0.680843 0.44378,-0.792035 6e-4,-0.111196 -0.0522,-0.255426 -0.1173,-0.320513 -0.0651,-0.06508 -0.17707,-0.118267 -0.24905,-0.118267 -0.072,0 -0.53584,0.244083 -1.03069,0.542407 -0.49485,0.298324 -1.00139,0.542408 -1.12565,0.542408 -0.12424,0 -0.25482,-0.0469 -0.29027,-0.104201 -0.0355,-0.05733 -0.0381,-0.209056 -0.006,-0.337079 0.0321,-0.12802 0.20983,-0.375576 0.39487,-0.550113 0.18504,-0.174532 0.65644,-0.508829 1.04764,-0.742918 0.52097,-0.311749 0.78055,-0.411749 0.97039,-0.373868 0.18027,0.03595 0.60034,-0.102259 1.37971,-0.453996 0.61631,-0.278148 1.14057,-0.485875 1.16494,-0.461511 0.0244,0.02438 -0.0917,0.199179 -0.25772,0.388315 -0.16606,0.189141 -0.30182,0.432436 -0.30182,0.540673 0,0.108243 0.0609,0.247332 0.1354,0.309151 0.0745,0.06181 0.19653,0.08579 0.27121,0.05334 0.0747,-0.03242 0.39097,-0.36161 0.70285,-0.731555 0.31189,-0.369944 0.56887,-0.71037 0.57111,-0.756402 0.002,-0.04602 0.39833,-0.277345 0.88006,-0.514094 0.48173,-0.236751 1.0861,-0.469578 1.34292,-0.517559 0.29272,-0.05467 0.65428,-0.229216 0.96906,-0.46748 0.27617,-0.209047 0.79417,-0.641704 1.15107,-0.961539 0.3569,-0.319832 0.76746,-0.68122 0.91242,-0.803016 0.15129,-0.127117 0.23035,-0.178034 0.36636,-0.172199 z m 4.74008,3.253671 0.18627,0.443789 c 0.10456,0.249197 0.18867,0.689254 0.19165,1.003721 0.005,0.54483 -0.014,0.586313 -0.71596,1.528603 -0.39681,0.532718 -1.1461,1.49303 -1.66497,2.133994 -0.7807,0.96441 -0.97813,1.279054 -1.14549,1.824459 -0.11123,0.362488 -0.25692,0.925405 -0.32378,1.250848 -0.0669,0.325445 -0.12544,0.971498 -0.13002,1.43557 l -0.008,0.843657 0.5503,0.83287 c 0.30272,0.45802 0.63116,0.971947 0.72983,1.142216 0.17609,0.303866 0.17538,0.316143 -0.0406,0.665679 -0.12105,0.195861 -0.24977,0.356365 -0.28604,0.357111 -0.0362,5.96e-4 -0.48156,-0.432116 -0.98947,-0.961538 -0.5079,-0.529424 -1.02309,-1.095635 -1.14491,-1.258361 -0.12462,-0.166454 -0.33383,-0.75193 -0.47826,-1.33849 -0.1412,-0.57341 -0.28448,-1.114868 -0.3184,-1.203271 -0.0519,-0.135223 -0.007,-0.15193 0.27949,-0.105359 0.28146,0.04567 0.37017,0.01465 0.50735,-0.177401 0.0914,-0.127996 0.50762,-0.827369 0.92494,-1.554218 0.54903,-0.95624 0.97734,-1.55597 1.54921,-2.169627 0.43469,-0.466446 1.08743,-1.229387 1.45059,-1.695408 0.44175,-0.566861 0.69341,-0.991203 0.76045,-1.282052 0.0551,-0.239108 0.10389,-0.723197 0.10824,-1.07576 z m -16.10424,0.572458 c 0.0745,0.005 0.17454,0.02716 0.31936,0.0643 0.24118,0.06188 0.50334,0.134706 0.58247,0.161797 0.0924,0.03161 -0.0712,0.185146 -0.4565,0.428764 -0.33012,0.208731 -0.63044,0.428455 -0.66742,0.48828 -0.037,0.05983 -0.11456,0.108844 -0.17239,0.108844 -0.0652,0 -0.0815,-0.117195 -0.0433,-0.308183 0.0339,-0.169502 0.0616,-0.382889 0.0616,-0.474223 0,-0.09132 0.0578,-0.245202 0.12848,-0.341894 0.0708,-0.09677 0.12364,-0.136073 0.2477,-0.127705 z m 19.99933,4.205771 0.46324,0.36077 c 0.2547,0.198427 0.46305,0.388988 0.46305,0.423369 0,0.03437 -0.38978,0.421832 -0.8662,0.861186 -0.52632,0.485395 -1.09951,1.142539 -1.4606,1.674799 -0.32685,0.481779 -0.89836,1.319805 -1.27011,1.862211 -0.37176,0.542407 -1.10986,1.56312 -1.64032,2.268248 -0.53047,0.705129 -1.05187,1.381905 -1.15859,1.503946 -0.10672,0.122046 -0.24233,0.221894 -0.30144,0.221894 -0.0591,0 -0.10748,-0.04953 -0.10748,-0.110174 0,-0.06062 0.23588,-0.426752 0.5243,-0.813612 0.28841,-0.386867 0.8234,-1.147225 1.18882,-1.689629 0.36543,-0.542408 0.97644,-1.429982 1.35775,-1.972386 0.38131,-0.542409 0.86704,-1.248182 1.07943,-1.568476 0.21239,-0.320293 0.38619,-0.68817 0.38619,-0.817461 0,-0.148089 0.18297,-0.425324 0.49445,-0.749084 0.28028,-0.291342 0.57075,-0.717924 0.67088,-0.984848 z m -7.51684,9.047371 c 0.0809,7.09e-4 0.15775,0.02806 0.26292,0.08243 0.14061,0.07271 0.29947,0.215057 0.38349,0.286227 0.81106,0.438022 0.8357,0.348519 1.40071,0.843081 0.20879,0.03124 0.18298,0.511711 0.18298,0.606355 0,0.09465 -0.14185,0.54102 -0.31512,0.991974 -0.20754,0.540168 -0.45421,0.972245 -0.72308,1.26645 -0.22445,0.245611 -0.48991,0.660987 -0.58998,0.923016 -0.1591,0.416601 -0.1661,0.527766 -0.0553,0.884877 0.0697,0.22461 0.14891,0.626582 0.17605,0.893356 0.0271,0.266772 -6e-4,0.651772 -0.0616,0.855408 -0.0714,0.23812 -0.29504,0.536455 -0.62697,0.836146 -0.28384,0.256289 -0.69353,0.547133 -0.91049,0.646418 -0.21696,0.0993 -0.50543,0.176664 -0.64103,0.172006 -0.1356,-0.0046 -0.57174,-0.06785 -0.96905,-0.140416 -0.40289,-0.07357 -0.94542,-0.257871 -1.22677,-0.416821 -0.47738,-0.269706 -0.5117,-0.316397 -0.63872,-0.868314 -0.0738,-0.320788 -0.17269,-1.027027 -0.21977,-1.569437 -0.0471,-0.542408 -0.11211,-1.097141 -0.14446,-1.232742 -0.044,-0.184494 0.0269,-0.361962 0.2816,-0.704975 0.26005,-0.350215 0.5526,-0.570277 1.23987,-0.932646 0.55296,-0.291557 1.06196,-0.648033 1.32116,-0.925136 0.2319,-0.247928 0.49251,-0.649065 0.57919,-0.891619 0.0867,-0.242552 0.18343,-0.561938 0.21496,-0.709599 0.0316,-0.147662 0.15675,-0.363518 0.27814,-0.479807 0.12138,-0.116289 0.35301,-0.268825 0.51467,-0.338812 0.12089,-0.05234 0.20573,-0.07816 0.28661,-0.07742 z m -0.80051,4.607403 c -0.30973,-0.09381 -0.34168,-0.10487 -0.49503,-0.147187 -0.2034,-0.0472 -0.51323,-0.08711 -0.68841,-0.08822 -0.2817,-0.0022 -0.35281,0.05753 -0.61541,0.51544 -0.22475,0.391892 -0.29723,0.642114 -0.29798,1.029148 -4.8e-4,0.281233 0.0425,0.625001 0.0954,0.764109 0.0529,0.139109 0.2415,0.34418 0.41914,0.455534 0.23305,0.14609 0.42939,0.189406 0.70536,0.155636 0.27038,-0.03309 0.49777,-0.157435 0.77585,-0.424334 0.21634,-0.207629 0.45465,-0.520418 0.5297,-0.694959 0.0751,-0.174539 0.13656,-0.468123 0.13656,-0.65239 0,-0.18973 -0.0894,-0.447283 -0.20475,-0.59499 -0.15466,-0.198049 -0.0988,-0.148483 -0.36037,-0.317789 z m 2.77713,-0.235598 c 0.058,0.0011 0.25315,0.21202 0.43358,0.468442 0.18042,0.256428 0.58351,0.82722 0.89586,1.268381 0.31235,0.441157 0.66402,1.006614 0.78144,1.256432 0.1738,0.369738 0.21319,0.633108 0.21207,1.416691 -7.5e-4,0.529435 -0.0417,1.02621 -0.0909,1.103883 -0.0629,0.09937 -0.39127,0.161739 -1.10793,0.21053 -0.56022,0.03814 -1.08978,0.09908 -1.17688,0.135215 -0.13587,0.05637 -0.1658,-0.05155 -0.20995,-0.759294 -0.0287,-0.460716 -0.12029,-0.958242 -0.20745,-1.126803 -0.12271,-0.237286 -0.14356,-0.4809 -0.0971,-1.139513 0.047,-0.666473 0.0261,-0.903859 -0.10246,-1.161671 -0.0889,-0.178226 -0.16161,-0.385976 -0.16161,-0.461702 0,-0.07573 0.0688,-0.270999 0.15313,-0.433962 0.0843,-0.162963 0.24773,-0.404924 0.36309,-0.537591 0.11535,-0.132668 0.2571,-0.240156 0.31511,-0.239038 z m -3.75428,0.759872 c 0.0209,-4.87e-4 0.0432,7.82e-4 0.067,0.0032 0.13335,0.01405 0.36455,0.07488 0.51371,0.135219 0.18718,0.07572 0.2712,0.181119 0.2712,0.34016 0,0.13243 -0.16133,0.399796 -0.37926,0.628889 -0.20856,0.219248 -0.42365,0.398716 -0.47788,0.398716 -0.0542,0 -0.17385,-0.08326 -0.266,-0.185104 -0.0922,-0.101827 -0.18517,-0.290435 -0.20648,-0.419129 -0.0213,-0.128694 0.038,-0.389351 0.13174,-0.5792 0.1173,-0.237472 0.19951,-0.319495 0.34594,-0.322825 z m -2.08353,1.228889 c -0.10014,0.01897 -0.18353,0.13967 -0.20109,0.290658 -0.0255,0.219138 0.0861,0.348206 0.73965,0.855602 0.42332,0.32868 0.86678,0.600687 0.98561,0.604043 0.11885,0.0032 0.2452,-0.04052 0.28065,-0.09786 0.0354,-0.05733 0.0374,-0.201559 0.004,-0.320517 -0.0329,-0.11897 -0.41483,-0.4746 -0.84884,-0.790306 -0.434,-0.315711 -0.86625,-0.559494 -0.96038,-0.541641 z m -6.29527,0.789728 c 0.0946,-0.0023 0.22723,0.02629 0.3365,0.07646 0.14571,0.06694 0.52122,0.158281 0.83442,0.203017 0.37772,0.05396 0.8025,0.215676 1.26163,0.480384 0.38069,0.219483 0.92011,0.466952 1.19884,0.549729 0.27874,0.08279 0.71458,0.150432 0.96847,0.150432 0.36811,0 0.53931,0.062 0.84501,0.305876 0.21086,0.168194 0.5832,0.406714 0.82729,0.530078 0.24408,0.12337 0.76318,0.296338 1.15358,0.384461 0.39039,0.08813 0.9269,0.160258 1.19229,0.160258 0.34081,0 0.65372,-0.08696 1.06536,-0.295858 0.32054,-0.162668 0.75701,-0.453692 0.97001,-0.646808 0.34082,-0.308985 0.39838,-0.331195 0.47981,-0.185683 0.0509,0.09095 0.0926,0.389981 0.0926,0.664528 0,0.329704 -0.0501,0.535742 -0.14774,0.607127 -0.0813,0.05944 -0.16447,0.195856 -0.18471,0.302985 -0.0283,0.149553 -0.17412,0.224321 -0.62793,0.322054 -0.32508,0.07 -0.94598,0.221447 -1.3799,0.336694 -0.43393,0.115231 -0.98866,0.226917 -1.23274,0.24809 -0.39094,0.03391 -0.54951,-0.02275 -1.33137,-0.476341 -0.48816,-0.283224 -1.10946,-0.602973 -1.38067,-0.710567 -0.39914,-0.158346 -0.8501,-0.209493 -2.36686,-0.268313 -1.32344,-0.05133 -2.00001,-0.119199 -2.3035,-0.23114 -0.23633,-0.08717 -0.64683,-0.317925 -0.91223,-0.512743 -0.26856,-0.19714 -0.4825,-0.433138 -0.4825,-0.532198 0,-0.09791 0.201,-0.451184 0.44667,-0.784909 0.24568,-0.333728 0.51466,-0.632778 0.59789,-0.664722 0.0208,-0.0079 0.0482,-0.0121 0.0797,-0.01289 z"
       sodipodi:nodetypes="ssscccsssssccsssssssccccssssscsssssssscsssssssssssscccssssssssssssssscsssssssscsssssssscccssssssssssssssccsssssssssscccssssscccssssssscccsscsssssscccccccsssscsssssccsssscccsscccsssssssssssssssscccssscssssssscscsssssssssssssssscssssssscccsssscccsscsssssssssscccsssssssssccssssssssssssssccccccsssssscsscsssscssssssscccsscsssssssccssscsssssssssscccsscsssscsssccssssssssssssssssssscssssssssssssssssss"
       inkscape:label="graphic" />
    <path
       style="display:inline;fill:none;fill-opacity:1;stroke:#000000;stroke-width:0.1;stroke-dasharray:none;stroke-opacity:1"
       d="m 119.98088,-2.411345 c -0.17481,0.114472 -0.22067,0.112871 -0.32378,-0.01141 -0.0812,-0.09777 -0.0993,-0.29653 -0.0558,-0.612656 0.0601,-0.436961 0.0479,-0.475395 -0.18396,-0.581052 -0.18767,-0.08548 -0.24831,-0.185228 -0.24831,-0.408375 0,-0.174324 0.0599,-0.318229 0.1463,-0.351378 0.0805,-0.03088 0.21051,-0.0029 0.28899,0.06227 0.11364,0.09431 0.15065,0.0916 0.18179,-0.01334 0.0215,-0.07248 0.12719,-0.458181 0.23483,-0.85711 0.10765,-0.398933 0.19366,-0.790609 0.19114,-0.870395 -0.003,-0.0798 0.19696,-0.740141 0.44329,-1.467454 0.24633,-0.727315 0.44788,-1.385577 0.44788,-1.462804 0,-0.07721 0.11103,-0.391485 0.24675,-0.69836 0.13571,-0.306867 0.22649,-0.610731 0.20173,-0.675254 -0.0248,-0.06452 -0.18043,-0.144395 -0.34594,-0.177497 -0.1655,-0.03311 -0.40811,-0.167379 -0.53913,-0.298396 -0.18704,-0.187043 -0.22062,-0.286139 -0.15633,-0.461301 0.0536,-0.146094 0.17526,-0.234145 0.35249,-0.25514 0.14884,-0.01763 0.44878,0.04077 0.66654,0.1298 0.21776,0.08901 0.53473,0.228556 0.70437,0.310082 0.16964,0.08151 0.8536,0.502101 1.5199,0.934616 0.89374,0.580154 1.35115,0.951087 1.74413,1.414407 0.40966,0.482988 0.55438,0.739694 0.6266,1.111576 0.0517,0.26595 0.12082,0.788188 0.1537,1.160525 0.056,0.634022 0.0395,0.71686 -0.26064,1.305595 -0.31968,0.627145 -0.32281,0.629818 -1.33962,1.141092 -0.73918,0.371679 -1.1643,0.52524 -1.54737,0.558929 -0.2905,0.02555 -0.60032,0.06857 -0.6885,0.09563 -0.0882,0.02705 -0.57496,0.05173 -1.08174,0.05485 l -0.9214,0.0056 -0.12715,0.391753 c -0.0699,0.215463 -0.21879,0.451764 -0.3308,0.525117 z m 2.13336,-1.734958 c 0.47625,-0.04076 1.042,-0.121509 1.25724,-0.179447 0.21524,-0.05794 0.70357,-0.253495 1.08518,-0.434568 0.51815,-0.245853 0.7508,-0.420813 0.91875,-0.690946 0.18746,-0.301488 0.22175,-0.476923 0.20594,-1.053518 -0.0104,-0.380484 -0.0808,-0.837442 -0.15635,-1.015457 -0.0756,-0.17802 -0.28288,-0.47599 -0.46071,-0.662159 -0.17784,-0.186166 -0.462,-0.425524 -0.63148,-0.531909 -0.16949,-0.10638 -0.62623,-0.42337 -1.01499,-0.704423 -0.38875,-0.281052 -0.76729,-0.498649 -0.84119,-0.483554 -0.0739,0.01511 -0.2884,0.44089 -0.47665,0.946203 -0.18826,0.505311 -0.42069,1.092829 -0.51653,1.305591 -0.0958,0.212764 -0.2024,0.560919 -0.23681,0.773687 -0.0344,0.21276 -0.18652,0.778517 -0.33801,1.257234 -0.1515,0.478718 -0.30309,1.009039 -0.33685,1.17849 -0.0597,0.299728 -0.0514,0.308919 0.30759,0.338489 0.20293,0.01671 0.75863,-0.0029 1.23487,-0.04372 z m -18.92136,1.766539 c -0.1,0 -0.19512,-0.09698 -0.22948,-0.233863 -0.0323,-0.12863 -0.007,-0.487668 0.0553,-0.797865 0.0627,-0.310196 0.23767,-1.069966 0.38887,-1.688378 0.1512,-0.618406 0.4943,-1.673298 0.76244,-2.344199 0.26813,-0.670903 0.57205,-1.385509 0.67536,-1.588013 0.10331,-0.202505 0.21807,-0.529369 0.25503,-0.726359 0.0465,-0.248002 0.11829,-0.358166 0.23332,-0.358166 0.10457,0 0.24963,-0.178293 0.3915,-0.481183 0.12395,-0.264649 0.31988,-0.569964 0.43538,-0.678476 0.20817,-0.195565 0.21151,-0.195638 0.38092,-0.0083 0.14542,0.160684 0.15445,0.23876 0.0605,0.523339 -0.0607,0.183966 -0.28038,0.577163 -0.48816,0.873775 -0.20778,0.296614 -0.33567,0.56532 -0.28419,0.597132 0.0515,0.0318 0.23423,-0.02691 0.40613,-0.130475 0.1719,-0.103568 0.5484,-0.264901 0.83668,-0.358506 0.28827,-0.09361 0.79576,-0.172789 1.12774,-0.175958 0.36548,-0.0035 0.66423,0.04455 0.75727,0.121773 0.0857,0.07115 0.15368,0.274097 0.15368,0.458987 0,0.182295 -0.0631,0.453382 -0.14013,0.602421 -0.077,0.149034 -0.29306,0.397113 -0.47999,0.551282 -0.18693,0.154168 -0.46705,0.377411 -0.62248,0.496091 -0.15544,0.118681 -0.39923,0.26012 -0.54176,0.314312 -0.14253,0.05418 -0.38688,0.09853 -0.54299,0.09853 -0.15611,0 -0.28383,0.02375 -0.28383,0.05278 0,0.02902 0.15026,0.583894 0.33392,1.233059 0.18366,0.649167 0.36346,1.354379 0.39957,1.567142 0.0361,0.212761 0.10647,0.415229 0.15636,0.511729 0.0713,0.137906 0.15652,0.161472 0.39829,0.110131 0.16917,-0.03594 0.2629,-0.172452 0.33225,-0.263647 0.0719,-0.09454 0.25738,-0.363717 0.41006,-0.624572 0.15449,-0.263939 0.64522,-0.671703 0.97042,-0.990849 l 0.59128,-0.580262 -0.0663,0.386841 c -0.0364,0.212763 -0.22454,0.623425 -0.41795,0.91258 -0.19342,0.289151 -0.61279,0.807109 -0.93193,1.151017 -0.31915,0.343902 -0.7227,0.684955 -0.89679,0.757897 -0.23004,0.09638 -0.36815,0.104973 -0.50551,0.03147 -0.10395,-0.055742 -0.23627,-0.189578 -0.29404,-0.297524 -0.0578,-0.107945 -0.16294,-0.465983 -0.23371,-0.795643 -0.0708,-0.329662 -0.28422,-1.121624 -0.47431,-1.759912 -0.1901,-0.63829 -0.39224,-1.345487 -0.44921,-1.571547 -0.0606,-0.240345 -0.16021,-0.411022 -0.23998,-0.411022 -0.075,0 -0.24804,0.146341 -0.38446,0.325198 -0.13642,0.17886 -0.31953,0.537898 -0.40692,0.797866 -0.0874,0.259962 -0.23633,0.572936 -0.331,0.695492 -0.0947,0.122559 -0.26085,0.492476 -0.36929,0.822039 -0.10844,0.329565 -0.26844,0.88209 -0.35555,1.227831 -0.0871,0.345737 -0.20634,0.857092 -0.26497,1.136347 -0.0799,0.380579 -0.14936,0.50773 -0.27737,0.50773 z m 3.63828,-5.706282 c 0.1104,-2.02e-4 0.35306,-0.09277 0.53922,-0.205671 0.18617,-0.112919 0.50169,-0.334013 0.70115,-0.491317 0.19947,-0.157308 0.36267,-0.318622 0.36267,-0.358478 0,-0.03985 -0.0762,-0.07579 -0.16924,-0.07987 -0.0931,-0.0041 -0.49564,0.07825 -0.89458,0.182948 -0.39893,0.104696 -0.82736,0.256782 -0.95206,0.337982 l -0.22674,0.147639 0.21942,0.233561 c 0.12067,0.128456 0.30975,0.233395 0.42016,0.233199 z m 34.2912,5.70332 c -0.0798,0 -0.20026,-0.03506 -0.26772,-0.07785 -0.0675,-0.0428 -0.16196,-0.214891 -0.20999,-0.382393 -0.0573,-0.199754 -0.0424,-0.596734 0.0432,-1.153728 0.0718,-0.46705 0.18009,-1.066786 0.2407,-1.332737 0.0606,-0.265953 0.19256,-0.78819 0.29325,-1.160528 0.1007,-0.372336 0.2072,-1.098014 0.23669,-1.61262 l 0.0536,-0.935647 -0.55461,-0.161229 c -0.30504,-0.08869 -0.71912,-0.24516 -0.92019,-0.347735 -0.26151,-0.133413 -0.36557,-0.24926 -0.36557,-0.406972 0,-0.121257 0.0502,-0.270657 0.11153,-0.331994 0.0748,-0.07479 0.16826,-0.08117 0.28375,-0.01933 0.0947,0.0507 0.48258,0.157455 0.86191,0.237248 0.37932,0.07981 0.77035,0.14508 0.86895,0.14508 0.13931,0 0.22675,-0.159884 0.39217,-0.717093 0.15723,-0.529654 0.2631,-0.73023 0.40503,-0.767348 0.10569,-0.02763 0.2974,-0.01026 0.42603,0.03867 0.12864,0.04891 0.2573,0.149946 0.28592,0.224536 0.0286,0.07458 -0.0179,0.474166 -0.10336,0.887946 -0.0855,0.413784 -0.13549,0.804203 -0.11116,0.867603 0.0243,0.06339 0.43097,0.216172 0.90365,0.339494 0.8532,0.222599 0.85913,0.226258 0.81823,0.504926 -0.0226,0.154385 -0.0952,0.301433 -0.16123,0.326761 -0.066,0.02535 -0.38559,-0.0434 -0.71017,-0.152747 -0.32458,-0.109348 -0.73296,-0.197254 -0.90751,-0.195363 -0.29176,0.0032 -0.33882,0.0495 -0.58331,0.57443 -0.14628,0.314041 -0.26596,0.662051 -0.26596,0.773349 0,0.1113 -0.0689,0.364163 -0.15308,0.561921 -0.0842,0.197759 -0.19599,0.729477 -0.24845,1.181599 -0.0524,0.452119 -0.12501,1.291548 -0.16123,1.865396 -0.0485,0.76821 -0.10412,1.067487 -0.21092,1.134867 -0.0798,0.05034 -0.21035,0.09152 -0.29013,0.09152 z m -27.70757,-0.35514 c -0.39089,0.112191 -0.55768,0.116579 -0.8704,0.02291 -0.21275,-0.06373 -0.5175,-0.184001 -0.6772,-0.267282 -0.1597,-0.08329 -0.36156,-0.232037 -0.44857,-0.330566 -0.087,-0.09853 -0.27188,-0.497256 -0.4108,-0.886058 -0.16101,-0.450666 -0.25257,-0.90844 -0.25257,-1.262868 0,-0.454835 0.0674,-0.686848 0.37054,-1.275651 0.2038,-0.395832 0.49757,-0.939145 0.6528,-1.207356 0.15524,-0.268212 0.43153,-0.67146 0.61398,-0.896102 0.18245,-0.224642 0.55236,-0.572135 0.82204,-0.772202 0.26967,-0.200065 0.81671,-0.52175 1.21564,-0.714859 0.39893,-0.193108 0.95381,-0.418065 1.23306,-0.499897 0.45354,-0.132909 0.55996,-0.133283 0.99705,-0.0035 0.26912,0.07992 0.6554,0.295361 0.8584,0.478756 0.27982,0.252803 0.41735,0.491235 0.56865,0.985828 0.10976,0.358811 0.2216,0.913497 0.24855,1.232642 0.0442,0.52342 0.0166,0.641841 -0.282,1.208881 -0.18206,0.345741 -0.41854,0.80777 -0.52552,1.026731 -0.10697,0.218966 -0.40176,0.662746 -0.65507,0.986184 -0.2533,0.323438 -0.65639,0.734322 -0.89575,0.913073 -0.23936,0.178751 -0.80512,0.504444 -1.25724,0.723762 -0.45212,0.219321 -1.03964,0.461213 -1.30559,0.537546 z m 0.1333,-1.005841 c 0.12649,0.0054 0.46847,-0.126442 0.75992,-0.293198 0.29147,-0.166759 0.80778,-0.563102 1.14736,-0.880766 0.42922,-0.401515 0.69538,-0.751279 0.87318,-1.147465 0.14066,-0.313438 0.29333,-0.569891 0.33925,-0.569891 0.0459,0 0.0835,-0.07072 0.0835,-0.157151 0,-0.08644 0.11277,-0.408454 0.25062,-0.715609 0.24275,-0.540907 0.24641,-0.577405 0.11669,-1.161452 l -0.13393,-0.602993 -0.6548,-0.242042 -0.65479,-0.242036 -0.71552,0.363173 c -0.47549,0.241353 -0.88573,0.545883 -1.22297,0.907847 -0.2791,0.299569 -0.6649,0.830806 -0.85733,1.180528 -0.19244,0.349726 -0.42681,0.871962 -0.52084,1.160526 -0.094,0.288567 -0.21533,0.578675 -0.26956,0.644681 -0.0578,0.07029 -0.0716,0.300435 -0.0333,0.555622 0.0364,0.242991 0.16993,0.559933 0.30188,0.716752 0.13011,0.154627 0.39948,0.324414 0.59859,0.377307 0.19911,0.05289 0.46552,0.100656 0.59203,0.106167 z m 23.27971,1.07381 c -0.0717,0 -0.17543,-0.0544 -0.23042,-0.120888 -0.055,-0.0665 -0.14305,-0.338486 -0.19568,-0.604439 -0.0526,-0.265956 -0.14887,-0.635874 -0.21386,-0.822039 -0.065,-0.186168 -0.17636,-0.469048 -0.24748,-0.628618 -0.0711,-0.159576 -0.19584,-0.555569 -0.27713,-0.879992 -0.0813,-0.32442 -0.14395,-0.759616 -0.13922,-0.967103 0.005,-0.207489 -0.0653,-0.66013 -0.15571,-1.005867 -0.0904,-0.345743 -0.18387,-0.692004 -0.20777,-0.769472 -0.0319,-0.10335 -0.10614,-0.0647 -0.27874,0.145067 -0.1294,0.157255 -0.31227,0.447468 -0.40639,0.644917 -0.11902,0.249682 -0.21912,0.344531 -0.32874,0.311486 -0.11342,-0.03419 -0.20155,0.06228 -0.31431,0.344107 -0.0862,0.215393 -0.1567,0.454018 -0.1567,0.530279 0,0.07625 -0.12541,0.525589 -0.2787,0.998513 -0.15329,0.472923 -0.3289,0.953647 -0.39025,1.06827 -0.0614,0.114632 -0.19841,0.208413 -0.30459,0.208413 -0.10618,0 -0.21614,-0.06017 -0.24436,-0.133697 -0.0282,-0.07353 0.0135,-0.367294 0.0928,-0.652799 0.0793,-0.285504 0.36886,-1.169217 0.64359,-1.963805 0.27472,-0.794593 0.60425,-1.582054 0.73228,-1.749918 0.12804,-0.167867 0.2328,-0.341197 0.2328,-0.385179 0,-0.04397 0.061,-0.148671 0.13554,-0.232647 0.0745,-0.08398 0.15612,-0.404105 0.18129,-0.711396 0.0397,-0.48445 0.0917,-0.603362 0.39157,-0.894575 0.19021,-0.184719 0.41434,-0.335855 0.49808,-0.335855 0.0837,0 0.19108,0.102127 0.23854,0.226963 0.0475,0.124828 0.0897,0.614429 0.0938,1.087993 0.004,0.473568 0.0965,1.29623 0.20519,1.828135 0.1087,0.53191 0.23569,1.119427 0.28218,1.305593 0.0465,0.186167 0.18378,0.810378 0.30509,1.387137 0.18073,0.859184 0.23639,1.007706 0.3081,0.822038 0.0481,-0.124635 0.16583,-0.553008 0.26155,-0.951939 0.0957,-0.398929 0.20453,-0.964688 0.2418,-1.257236 0.0373,-0.292551 0.14604,-0.712328 0.24174,-0.932843 0.0957,-0.220514 0.20274,-0.54691 0.23787,-0.725327 0.0351,-0.178418 0.0988,-0.411433 0.14157,-0.517819 0.0427,-0.106381 0.12723,-0.348825 0.18779,-0.538772 0.0606,-0.189945 0.11011,-0.419015 0.11011,-0.509041 0,-0.09002 0.0544,-0.26102 0.12089,-0.379976 0.0665,-0.11896 0.12664,-0.229285 0.13365,-0.245175 0.007,-0.01591 0.1308,7.33e-4 0.27506,0.03694 0.21927,0.05504 0.25479,0.107352 0.21651,0.319019 -0.0252,0.139248 -0.13997,0.615424 -0.2551,1.05816 -0.11511,0.442734 -0.28917,1.008494 -0.38678,1.257238 -0.0976,0.248739 -0.25176,0.84394 -0.34256,1.322654 -0.0908,0.478716 -0.27423,1.283835 -0.40763,1.789148 -0.13339,0.505312 -0.32675,1.212507 -0.42969,1.571544 -0.11202,0.390754 -0.23951,0.652795 -0.31759,0.652795 z m -6.33733,-0.103992 c -0.0832,-0.0041 -0.50001,-0.128087 -0.92616,-0.275737 -0.42616,-0.147652 -0.9136,-0.340216 -1.0832,-0.427919 -0.1696,-0.08771 -0.35404,-0.159458 -0.40987,-0.159458 -0.0558,0 -0.1015,0.132731 -0.1015,0.294955 v 0.294959 l -0.55609,-0.02898 -0.55609,-0.02902 0.003,-0.725331 c 0.002,-0.398929 0.10126,-1.175655 0.22136,-1.726052 0.12011,-0.5504 0.2444,-1.355514 0.2762,-1.789148 0.0318,-0.433628 0.10033,-0.842338 0.15227,-0.908241 0.0519,-0.06589 0.13395,-0.09541 0.18223,-0.06558 0.0483,0.02984 0.14816,-0.09033 0.22195,-0.267015 0.0738,-0.176701 0.20695,-0.602177 0.29588,-0.945503 0.14718,-0.568138 0.14797,-0.634272 0.009,-0.73599 -0.0841,-0.06148 -0.15284,-0.174807 -0.15284,-0.251858 0,-0.07705 0.0579,-0.219207 0.12855,-0.315894 0.10689,-0.146173 0.16418,-0.156723 0.34005,-0.06258 0.19226,0.102904 0.21676,0.08698 0.26915,-0.174996 0.0317,-0.158505 0.12117,-0.312572 0.19882,-0.342365 0.0777,-0.0298 0.33439,-0.0054 0.57052,0.05393 0.31899,0.08032 0.4436,0.164912 0.48481,0.329114 0.0305,0.12156 0.008,0.309834 -0.0502,0.418393 -0.0889,0.166035 -0.0663,0.22507 0.142,0.371673 0.13621,0.09587 0.42352,0.315729 0.63847,0.488599 0.21496,0.172871 0.4691,0.314309 0.56476,0.314309 0.0957,0 0.20034,0.06884 0.23263,0.152975 0.0323,0.08414 0.0587,0.23403 0.0587,0.333094 0,0.09907 -0.0979,0.291804 -0.2176,0.428309 l -0.21758,0.248178 -0.75345,-0.432122 c -0.74269,-0.425959 -0.75458,-0.429083 -0.83221,-0.218633 -0.0433,0.117429 -0.15594,0.452863 -0.25028,0.745411 -0.0944,0.29255 -0.19075,0.582175 -0.21426,0.643613 -0.0244,0.06383 0.0949,0.141052 0.2784,0.180159 0.17662,0.03765 0.56258,0.231959 0.8577,0.431804 0.29511,0.19984 0.67461,0.43474 0.84335,0.521993 0.16873,0.08726 0.35596,0.250533 0.41607,0.362848 0.0902,0.168465 0.0741,0.239417 -0.0919,0.405437 l -0.20129,0.201233 -0.70305,-0.3302 c -0.38666,-0.181607 -0.81183,-0.424342 -0.94481,-0.539408 -0.13298,-0.115061 -0.35058,-0.232899 -0.48356,-0.261851 -0.13297,-0.02894 -0.334,-0.08149 -0.44673,-0.116784 -0.187,-0.05852 -0.21003,-0.01897 -0.26276,0.451568 -0.0318,0.283635 -0.0865,0.744184 -0.12165,1.023434 -0.0634,0.504099 -0.062,0.507729 0.20015,0.507729 0.1452,0 0.63117,0.172058 1.07992,0.38235 0.44875,0.210294 0.87654,0.359087 0.95064,0.33065 0.0828,-0.03177 0.19328,0.06152 0.28671,0.242195 0.13921,0.269195 0.13825,0.322691 -0.0114,0.636459 -0.0899,0.188408 -0.23146,0.33928 -0.31469,0.335279 z m -1.84111,-9.968401 c -0.0281,-0.0079 -0.17131,-0.03269 -0.31834,-0.0549 -0.19395,-0.02932 -0.32017,-0.143977 -0.45979,-0.417661 -0.10584,-0.207478 -0.2531,-0.637211 -0.32723,-0.954955 -0.0963,-0.41286 -0.11089,-0.737983 -0.0511,-1.139393 0.046,-0.308923 0.12694,-0.855388 0.17978,-1.214368 0.0528,-0.358979 0.14584,-0.837695 0.20668,-1.063817 0.0608,-0.226116 0.1677,-0.521646 0.23748,-0.656722 0.12437,-0.240724 0.1207,-0.244872 -0.18475,-0.209214 -0.19985,0.02333 -0.3562,-0.0173 -0.43585,-0.113284 -0.0683,-0.0823 -0.14778,-0.325443 -0.1766,-0.540293 -0.0288,-0.21485 -0.0853,-0.390635 -0.1254,-0.390635 -0.0402,0 -0.0955,-0.141439 -0.12296,-0.314308 -0.0398,-0.250319 0.0686,-0.550589 0.53243,-1.474837 0.3203,-0.638288 0.69689,-1.345407 0.83684,-1.571369 0.14498,-0.234082 0.32859,-0.410923 0.42674,-0.411022 0.0948,-9.5e-5 0.19566,0.06075 0.22423,0.135196 0.0286,0.07445 -0.0123,0.34645 -0.0909,0.604441 -0.0785,0.25799 -0.3209,0.850657 -0.53854,1.317043 -0.29422,0.630492 -0.3957,0.969718 -0.3957,1.322677 0,0.373682 0.036,0.482502 0.16924,0.511324 0.0931,0.02012 0.41966,-0.046 0.72571,-0.146982 0.39508,-0.13035 0.64103,-0.286174 0.84801,-0.537257 0.16034,-0.194509 0.46609,-0.689155 0.67942,-1.09921 0.21335,-0.410052 0.42664,-0.76949 0.47398,-0.79875 0.0474,-0.02924 0.1549,0.01565 0.23902,0.09976 0.0843,0.08425 0.1332,0.247521 0.10898,0.363552 -0.0242,0.115829 -0.11127,0.523831 -0.19351,0.906665 -0.0822,0.382838 -0.14953,0.741874 -0.14953,0.797865 0,0.06736 0.58049,0.102314 1.71661,0.10336 1.2257,0.001 2.00156,0.05196 2.713,0.177796 0.57673,0.102013 1.06138,0.241227 1.15071,0.33056 0.13162,0.131612 0.13626,0.197988 0.0315,0.450824 -0.0675,0.163072 -0.15848,0.29649 -0.20208,0.29649 -0.0436,0 -0.108,-0.04649 -0.14311,-0.103298 -0.0351,-0.05681 -0.12884,-0.07838 -0.20829,-0.04787 -0.0794,0.03048 -0.34169,-0.03182 -0.58277,-0.138474 -0.38934,-0.172226 -0.64703,-0.193898 -2.3056,-0.193898 -1.027,0 -1.97482,0.0409 -2.10626,0.09086 -0.19842,0.07544 -0.26574,0.208463 -0.39653,0.78351 -0.0866,0.380956 -0.20199,1.047262 -0.25632,1.48068 -0.0543,0.43342 -0.23113,1.211321 -0.3929,1.728666 -0.16178,0.517342 -0.42504,1.138254 -0.58504,1.379802 -0.15999,0.24155 -0.38302,0.503705 -0.49561,0.582566 -0.11259,0.07887 -0.22767,0.136869 -0.25573,0.128896 z m -0.18293,-0.759192 c 0.0475,0 0.17341,-0.141438 0.27976,-0.31431 0.10634,-0.172869 0.278,-0.597186 0.38147,-0.942926 0.10348,-0.345743 0.32008,-1.281415 0.48136,-2.07928 0.16128,-0.797861 0.29362,-1.570335 0.29408,-1.716611 3.7e-4,-0.146274 -0.028,-0.265953 -0.0632,-0.265953 -0.0352,0 -0.2531,0.110787 -0.48418,0.246214 -0.28917,0.169471 -0.4928,0.389626 -0.65327,0.706289 -0.15638,0.308607 -0.28598,0.840431 -0.39365,1.61546 -0.0883,0.635463 -0.16289,1.382821 -0.16579,1.660789 -0.003,0.277968 0.0492,0.637006 0.11588,0.797859 0.0666,0.160859 0.16002,0.292469 0.20754,0.292469 z m -5.76686,-0.38684 c -0.14617,0 -0.23931,-0.07287 -0.2781,-0.217604 -0.0321,-0.119676 -0.0589,-0.641915 -0.0596,-1.160524 -7.3e-4,-0.518609 -0.0292,-0.942927 -0.0633,-0.942927 -0.0341,0 -0.38307,0.326394 -0.77558,0.725329 -0.50756,0.515862 -0.78293,0.72533 -0.95353,0.72533 -0.13194,0 -0.32692,-0.08704 -0.4333,-0.193421 -0.10637,-0.106381 -0.19342,-0.234681 -0.19342,-0.28511 0,-0.05043 0.2108,-0.344191 0.46846,-0.652798 0.25765,-0.308608 0.77904,-0.8533 1.15865,-1.210428 l 0.69019,-0.649316 0.0964,-1.139828 c 0.053,-0.626904 0.10075,-1.183347 0.10606,-1.236536 0.005,-0.05318 0.005,-0.314308 -0.001,-0.580265 -0.006,-0.265951 0.008,-0.766429 0.0325,-1.112171 0.024,-0.345738 0.0719,-0.740552 0.10655,-0.877362 0.0346,-0.13681 0.19746,-0.328216 0.36189,-0.42535 0.283,-0.167168 0.30552,-0.167648 0.42156,-0.0089 0.0674,0.0922 0.15859,0.501216 0.2026,0.908904 0.044,0.407687 0.0728,1.187326 0.0641,1.732529 -0.009,0.545207 0.014,0.991284 0.0506,0.991284 0.0365,0 0.14927,-0.153856 0.25054,-0.341905 0.10128,-0.188046 0.38236,-0.524624 0.62464,-0.747949 0.24228,-0.223326 0.44557,-0.450267 0.45175,-0.504315 0.006,-0.05405 0.0179,-0.151663 0.026,-0.216922 0.008,-0.06528 0.12061,-0.188039 0.25002,-0.272828 0.17553,-0.115014 0.2827,-0.1288 0.42194,-0.0543 0.10264,0.05493 0.24189,0.233279 0.30942,0.396309 0.11342,0.273834 0.0978,0.336267 -0.20434,0.819437 -0.17991,0.28766 -0.71879,0.986772 -1.19751,1.553577 -0.47871,0.566806 -0.93416,1.146275 -1.01209,1.287711 -0.0986,0.178859 -0.16059,0.72608 -0.20375,1.797255 -0.0581,1.442999 -0.0758,1.551233 -0.28004,1.716615 -0.11989,0.09708 -0.31688,0.176514 -0.43776,0.176514 z m -4.58805,-0.587548 c -0.0832,-0.0041 -0.50001,-0.128087 -0.92616,-0.275741 -0.42616,-0.147651 -0.9136,-0.340215 -1.0832,-0.427913 -0.16959,-0.0877 -0.35404,-0.159458 -0.40987,-0.159458 -0.0559,0 -0.1015,0.13273 -0.1015,0.294955 v 0.294957 l -0.55609,-0.029 -0.55608,-0.02901 0.003,-0.725329 c 0.002,-0.398932 0.10126,-1.175656 0.22135,-1.726056 0.12011,-0.550397 0.2444,-1.355514 0.27621,-1.789146 0.0318,-0.433629 0.10032,-0.842342 0.15227,-0.908241 0.0519,-0.06589 0.13394,-0.09541 0.18222,-0.06558 0.0483,0.02982 0.14816,-0.09033 0.22196,-0.267022 0.0738,-0.176695 0.20694,-0.602172 0.29588,-0.945497 0.14717,-0.568142 0.14797,-0.634273 0.009,-0.73599 -0.0841,-0.06148 -0.15284,-0.174807 -0.15284,-0.251858 0,-0.07704 0.0579,-0.219207 0.12855,-0.315894 0.10689,-0.14618 0.16418,-0.156723 0.34005,-0.0626 0.19226,0.102905 0.21676,0.08697 0.26915,-0.174992 0.0317,-0.158506 0.12117,-0.312572 0.19882,-0.34237 0.0777,-0.02977 0.33439,-0.0054 0.57052,0.05393 0.31899,0.08033 0.4436,0.164912 0.48481,0.329119 0.0305,0.121554 0.008,0.309833 -0.0502,0.418391 -0.0889,0.166036 -0.0663,0.225069 0.142,0.371673 0.13621,0.09586 0.42352,0.31573 0.63848,0.488599 0.21495,0.172868 0.4691,0.314311 0.56475,0.314311 0.0956,0 0.20034,0.06885 0.23263,0.152973 0.0323,0.08414 0.0587,0.234027 0.0587,0.333095 0,0.09907 -0.0979,0.291806 -0.2176,0.428309 l -0.2176,0.248192 -0.75345,-0.432122 c -0.74268,-0.425947 -0.75457,-0.429072 -0.8322,-0.218621 -0.0433,0.117424 -0.15594,0.452859 -0.25028,0.745408 -0.0943,0.29255 -0.19075,0.582174 -0.21426,0.643612 -0.0244,0.06383 0.0949,0.141051 0.2784,0.180161 0.17662,0.03765 0.56258,0.231959 0.85769,0.431801 0.29511,0.199845 0.67462,0.434742 0.84335,0.521996 0.16874,0.08727 0.35597,0.250533 0.41608,0.362847 0.0902,0.168466 0.074,0.239419 -0.0919,0.40544 l -0.20125,0.201254 -0.70304,-0.330199 c -0.38668,-0.181617 -0.81185,-0.424352 -0.94483,-0.539416 -0.13298,-0.115058 -0.35057,-0.232898 -0.48355,-0.261854 -0.13298,-0.02894 -0.33401,-0.08149 -0.44674,-0.116784 -0.187,-0.05852 -0.21003,-0.01892 -0.26276,0.451569 -0.0318,0.283638 -0.0865,0.744184 -0.12165,1.023437 -0.0634,0.504102 -0.062,0.50773 0.20015,0.50773 0.14521,0 0.63117,0.172057 1.07992,0.382349 0.44875,0.21029 0.87654,0.359083 0.95065,0.330647 0.0828,-0.03179 0.19327,0.06153 0.2867,0.2422 0.13921,0.269194 0.13825,0.322688 -0.0114,0.636457 -0.0899,0.188406 -0.23146,0.339281 -0.31468,0.33528 z m -6.32756,-0.68107 c -0.16686,-0.0064 -0.49922,-0.04532 -0.73858,-0.0868 -0.23936,-0.0415 -0.66582,-0.167147 -0.9477,-0.279237 -0.28189,-0.11208 -0.69532,-0.295583 -0.91875,-0.407767 -0.22344,-0.112193 -0.63472,-0.378394 -0.91397,-0.591562 -0.35264,-0.269178 -0.50774,-0.45542 -0.50774,-0.609695 0,-0.146493 0.10704,-0.28794 0.31431,-0.415394 0.21067,-0.129532 0.40998,-0.176042 0.60445,-0.141039 0.15957,0.02873 0.42069,0.175067 0.58026,0.325206 0.15957,0.150138 0.54519,0.389535 0.85693,0.531989 0.33356,0.152428 0.81113,0.278477 1.16053,0.30631 0.51078,0.04069 0.61859,0.01975 0.77169,-0.150136 0.17487,-0.194008 0.17131,-0.202262 -0.20524,-0.475032 -0.21076,-0.152672 -0.64996,-0.383546 -0.976,-0.513046 -0.58685,-0.233099 -0.59515,-0.241773 -0.82842,-0.865685 -0.19973,-0.5342 -0.22292,-0.706165 -0.1522,-1.128636 0.0459,-0.274131 0.15044,-0.627987 0.23233,-0.786345 0.0819,-0.158361 0.27991,-0.398168 0.44004,-0.532915 0.16013,-0.13474 0.43369,-0.289721 0.60791,-0.344403 0.17422,-0.0547 0.70844,-0.169245 1.18716,-0.254587 0.47872,-0.08535 0.94004,-0.17577 1.02516,-0.200945 0.1,-0.02957 0.24545,0.08511 0.41102,0.32401 0.14094,0.203379 0.25626,0.486008 0.25626,0.628055 0,0.184183 -0.0763,0.297431 -0.26595,0.394785 -0.14628,0.07507 -0.50532,0.182175 -0.79787,0.23799 -0.29255,0.05582 -0.77417,0.128194 -1.07028,0.160847 -0.49955,0.05509 -0.54663,0.0822 -0.6528,0.375803 -0.0629,0.174033 -0.11442,0.409044 -0.11442,0.522239 0,0.119459 0.13187,0.304526 0.31431,0.441093 0.17287,0.129403 0.45434,0.306085 0.62547,0.392622 0.17115,0.08655 0.47578,0.190484 0.67698,0.230987 0.3066,0.06173 0.39835,0.141114 0.56689,0.490496 0.15658,0.32459 0.18652,0.512761 0.13531,0.850215 -0.0362,0.238351 -0.15155,0.550359 -0.2564,0.693349 -0.10484,0.142992 -0.39913,0.401421 -0.65397,0.574299 -0.30024,0.203663 -0.57014,0.310303 -0.76672,0.30293 z"
       id="path3213"
       inkscape:label="Sexyrodent"
       sodipodi:nodetypes="cssssscsscssssssssssssssssssscscccssssssssssssssscsssssssssssssssscsssssssssssssssccsssssssssssssssssssssssscssssssssscssssssssssssssssscsssssssscssssssssssscsssssssscccssssssscccssssssssccsssssssscsssssssssssssssssssssssssssssssssssssssscssssccccssssssssssssssssssssscssssssssscssssssssssscccssssssssssssssssssssssscsssscssssssssssssssccsssscsssscssscsssssssscssccsssssssssssssssssssscssssccccssssssssssssssssssssscssssssssscsssssssscssccssssssssssscssssssssssssssssssssssss" />
    <path
       id="rect7321-12-0-9-3"
       style="display:inline;fill:none;fill-opacity:1;stroke:#000000;stroke-width:0.1;stroke-dasharray:none;stroke-opacity:1"
       inkscape:label="contour"
       d="m 144.06342,0.728212 c -0.0396,0.001 -0.0795,0.0041 -0.11994,0.0082 l -17.76435,2.032852 c -0.64703,0.07405 -1.21387,0.593902 -1.21387,1.208038 v 0.859315 h -24.00934 v 0.513254 h 24.00934 v 0.329073 h -24.00934 v 0.277061 h 24.00934 v 0.511138 h -24.00934 v 0.513254 h 24.00934 V 7.30947 h -24.00934 v 0.277061 h 24.00934 V 8.09767 h -24.00934 v 0.513253 h 24.00934 v 0.329074 h -24.00934 v 0.277061 h 24.00934 v 0.511138 h -24.00934 v 0.51327 h 24.00934 v 0.329074 h -24.00934 v 0.277061 h 24.00934 v 2.929328 c 0,0.614136 0.56684,1.004486 1.21387,0.930443 l 17.76435,-2.032853 c 0.64702,-0.07405 1.21546,-0.594425 1.21546,-1.208571 v -0.618347 h 23.88514 V 10.57054 h -23.88514 v -0.329074 h 23.88514 V 9.728213 H 145.15894 V 9.217075 h 23.88514 V 8.940014 H 145.15894 V 8.61094 h 23.88514 V 8.097687 H 145.15894 V 7.586548 h 23.88514 V 7.309487 H 145.15894 V 6.980414 h 23.88514 V 6.46716 H 145.15894 V 5.956022 h 23.88514 V 5.678961 H 145.15894 V 5.349888 h 23.88514 V 4.836634 H 145.15894 V 1.666358 c 0,-0.575753 -0.49989,-0.954323 -1.09552,-0.938403 z m -0.12579,0.5313 c 0.3589,0.0041 0.71557,0.334743 0.71548,0.530776 l -0.004,9.592608 c -1.2e-4,0.272542 -0.38585,0.741723 -0.76271,0.785005 l -17.55204,2.015864 c -0.41725,0.04796 -0.8555,-0.205287 -0.8556,-0.579605 l -0.003,-9.684955 c 0.008,-0.32439 0.37799,-0.615604 0.70327,-0.633743 L 143.86609,1.26323 c 0.0238,-0.0031 0.0478,-0.0041 0.0717,-0.0041 z m -0.48883,0.317929 c -0.0337,10e-4 -0.068,0.0031 -0.10241,0.0072 L 126.7768,3.484802 c -0.55095,0.06317 -1.02438,0.480715 -1.02438,0.966 v 8.678097 c 0,0.485286 0.47343,0.794577 1.02438,0.7314 l 16.56959,-1.900171 c 0.55096,-0.06317 1.02279,-0.480715 1.02279,-0.966001 V 2.316031 c 0,-0.454955 -0.41458,-0.755136 -0.92036,-0.738826 z m -0.0213,0.260083 c 0.39889,-0.01417 0.68444,0.216842 0.68417,0.508478 l -0.008,8.65474 c -2.3e-4,0.241677 -0.39349,0.634061 -0.76538,0.677261 l -16.56161,1.923507 c -0.44075,0.05115 -0.76563,-0.191041 -0.76537,-0.502109 l 0.007,-8.677563 c 2.3e-4,-0.283839 0.37034,-0.62378 0.75847,-0.668767 l 16.56936,-1.909179 c 0.0275,-0.0031 0.0546,-0.0051 0.0812,-0.0062 z"
       sodipodi:nodetypes="cccsccccccccccccccccccccccccccccccccsscsccccccccccccccccccccccccccccccccsccccccccccccccccssccssccccccccccccc" />
    <path
       style="display:inline;fill:none;fill-opacity:1;stroke:#000000;stroke-width:0.1;stroke-dasharray:none;stroke-opacity:1"
       d="m 126.90775,13.006798 c -0.12405,-0.02483 -0.14349,-0.05069 -0.18418,-0.243375 -0.0777,-0.367944 -0.0633,-0.812587 0.0433,-1.337439 0.034,-0.167338 0.0731,-0.234661 0.17999,-0.309577 0.11036,-0.07745 0.2047,-0.10157 0.41002,-0.104754 0.18087,-0.0031 0.18281,-0.0021 0.27681,0.04509 0.0553,0.02809 0.11252,0.07022 0.1376,0.101775 0.0495,0.06188 0.0493,0.05801 0.0293,0.575464 -0.0123,0.318565 -0.004,0.379476 0.0542,0.405613 0.13574,0.06076 0.49056,0.05088 0.87005,-0.02484 0.33684,-0.06676 0.61084,-0.11762 0.75163,-0.139502 0.0655,-0.01046 0.12671,-0.0233 0.13602,-0.02931 0.0383,-0.02473 0.18004,-0.704597 0.23011,-1.10403 0.0742,-0.591474 0.0619,-1.087585 -0.0343,-1.389387 -0.0344,-0.108013 -0.0723,-0.185831 -0.10256,-0.210906 -0.0324,-0.02697 -0.14553,-0.009 -0.6192,0.09384 -0.58667,0.128296 -0.94564,0.195773 -1.10547,0.207762 -0.18268,0.01395 -0.67689,-0.0031 -0.83005,-0.02789 -0.20068,-0.03277 -0.36531,-0.108948 -0.43165,-0.20005 -0.0255,-0.03491 -0.0267,-0.09801 -0.0347,-1.845681 -0.004,-0.995233 -0.009,-2.017111 -0.009,-2.270876 l -10e-4,-0.461385 0.0465,-0.06982 c 0.12021,-0.180579 0.37239,-0.294515 0.66126,-0.298769 0.23451,-0.0031 0.38029,0.0515 0.46745,0.176313 0.0339,0.04855 0.0343,0.05282 0.0452,0.487388 0.006,0.241115 0.0123,0.817159 0.0139,1.280121 l 0.003,0.841737 -0.0403,0.382631 c -0.0457,0.433123 -0.0571,0.900726 -0.0255,1.040249 0.0365,0.160885 0.0609,0.222621 0.0909,0.230123 0.0411,0.01046 0.27781,-0.01812 0.59362,-0.07124 0.29934,-0.05028 1.14276,-0.199508 1.19212,-0.210897 l 0.0313,-0.0061 v -2.05297 c 0,-1.565566 0.004,-2.066909 0.0168,-2.111526 0.0264,-0.09191 0.15247,-0.213229 0.2921,-0.281326 0.15831,-0.07716 0.2821,-0.108081 0.44875,-0.111791 0.12048,-0.0031 0.15884,0.0031 0.28768,0.04204 l 0.14865,0.04519 0.006,2.413483 c 0.005,2.049027 0.009,2.465773 0.0288,2.75974 0.0316,0.477077 0.0442,1.332737 0.0238,1.619526 -0.0424,0.596288 -0.16462,1.136427 -0.29992,1.325595 -0.0822,0.114914 -0.20532,0.214357 -0.38525,0.311094 -0.18041,0.09698 -0.30537,0.13873 -0.62298,0.208026 -0.47343,0.10327 -0.92657,0.170067 -1.30682,0.19263 -0.11087,0.0061 -0.37362,0.03695 -0.5839,0.06758 -0.39798,0.05791 -0.78548,0.08427 -0.89953,0.06136 z m 5.48247,-0.709582 c -0.0883,-0.01497 -0.16515,-0.06686 -0.19806,-0.133814 -0.0424,-0.08621 -0.0367,-0.606199 0.0119,-1.080204 0.0726,-0.708127 0.0936,-1.19062 0.0935,-2.144839 -5e-5,-0.704065 -0.006,-0.906668 -0.0556,-1.838302 -0.046,-0.868117 -0.0549,-1.116854 -0.0642,-1.795721 -0.009,-0.665901 1.1e-4,-0.897407 0.0444,-1.11836 0.0423,-0.210591 0.0888,-0.293111 0.20399,-0.361707 0.20413,-0.121559 0.50171,-0.180029 1.227,-0.241073 0.17587,-0.01476 0.49493,-0.04864 0.70902,-0.07501 0.94747,-0.117183 1.35684,-0.15437 1.7795,-0.161934 l 0.34755,-0.0061 0.066,0.03837 c 0.0905,0.05272 0.10782,0.09272 0.10782,0.249022 0,0.231903 -0.0649,0.982215 -0.091,1.051758 -0.0403,0.107453 -0.48062,0.197748 -0.93085,0.190919 -0.14934,-0.0021 -0.26375,-0.01091 -0.31077,-0.02392 -0.0409,-0.01125 -0.076,-0.02248 -0.0779,-0.02473 -0.002,-0.0021 0.0172,-0.233879 0.0424,-0.51441 0.0253,-0.280531 0.0322,-0.209879 0.0357,-0.345229 0.002,-0.07215 -0.0727,-0.0284 -0.2082,-0.03583 -0.11356,0.0031 -0.4287,0.03235 -0.61983,0.05863 -0.35952,0.05099 -0.95718,0.167268 -0.97745,0.20638 -0.0505,0.0975 -0.0127,1.041092 0.0277,1.805094 0.0644,1.21766 0.0863,2.320367 0.0656,3.297963 -0.0163,0.769121 -0.0229,0.89403 -0.083,1.576162 -0.0556,0.630067 -0.0768,0.82589 -0.058,0.861461 0.0311,0.05862 0.18207,0.02015 0.73316,-0.05689 0.18733,-0.02606 0.39747,-0.05598 0.48158,-0.06218 0.36919,-0.02718 0.57616,-0.05486 0.69674,-0.177027 0.12796,-0.129854 0.1206,-0.08122 0.1832,-1.099756 0.0244,-0.397592 0.0537,-1.759009 0.0407,-1.896436 -0.0211,-0.223497 -0.0776,-0.38767 -0.13866,-0.402274 -0.019,-0.0041 -0.0987,6e-4 -0.17709,0.01046 -0.29403,0.03979 -0.57088,0.02259 -0.70236,-0.04356 -0.14681,-0.07389 -0.1797,-0.217339 -0.0935,-0.407963 0.0425,-0.09384 0.14424,-0.228209 0.20464,-0.269967 0.0674,-0.04661 0.38496,-0.09221 1.15332,-0.165577 0.32281,-0.03094 0.40034,-0.01046 0.67553,0.172203 l 0.16556,0.110251 0.009,0.485618 c 0.005,0.267098 0.0214,0.6796 0.0369,0.916684 0.0652,0.998867 0.0651,1.471966 -1.5e-4,1.927824 -0.032,0.223618 -0.10514,0.529838 -0.15879,0.665035 -0.0851,0.214551 -0.29617,0.339429 -0.73173,0.432959 -0.63339,0.136012 -1.67767,0.284583 -2.69574,0.383528 -0.43642,0.04244 -0.68467,0.05577 -0.76944,0.04132 z m 5.76733,-0.69964 c -0.123,-0.01608 -0.11076,0.04356 -0.12962,-0.632152 -0.0192,-0.689076 -0.0365,-1.026213 -0.11351,-2.215388 -0.10967,-1.693549 -0.12735,-2.102399 -0.12774,-2.954801 -4.8e-4,-0.991436 0.0473,-1.674893 0.1702,-2.436096 0.0433,-0.267982 0.0348,-0.246927 0.11519,-0.285416 0.15265,-0.07317 0.59445,-0.143278 0.93352,-0.148367 0.13766,-0.0021 0.22001,0.0021 0.2423,0.01384 0.0905,0.04539 0.3875,0.620874 0.77005,1.659067 0.118,0.320225 0.26469,0.664191 0.30299,0.760836 0.18228,0.460021 0.57083,1.440203 1.09032,2.577451 0.55578,1.216675 0.74545,1.544317 0.75479,1.519373 0.0165,-0.04418 -0.0121,-1.994903 -0.0321,-2.78896 -0.0161,-0.63784 -0.0177,-1.122938 -0.008,-2.404962 0.006,-0.88325 0.0163,-1.617004 0.0217,-1.630552 0.0127,-0.03185 0.0794,-0.07399 0.16627,-0.104854 0.1136,-0.04051 0.31685,-0.06819 0.71119,-0.09688 0.44436,-0.03225 0.42638,-0.03166 0.41553,-0.01302 -0.0115,0.01913 -0.0431,0.414306 -0.064,0.800265 -0.0235,0.433294 -0.0206,1.735013 0.006,2.801122 0.0275,1.093547 0.0303,1.168503 0.0723,1.915844 0.0794,1.414076 0.0777,2.06692 -0.007,2.688141 -0.0283,0.207365 -0.0433,0.254842 -0.0928,0.294088 -0.1183,0.09373 -0.44021,0.159247 -0.81361,0.165637 -0.3346,0.0051 -0.31662,0.017 -0.3949,-0.245978 -0.16023,-0.538134 -0.48992,-0.995071 -1.00873,-1.991189 -0.43158,-0.828659 -0.33011,-0.687315 -1.24964,-2.788308 -0.38048,-0.869318 -0.6483,-1.607223 -0.65494,-1.61451 -0.0159,-0.0175 0.0127,0.895137 0.0295,2.07327 0.0126,0.878619 0.0482,3.485769 0.0608,4.45228 l 0.006,0.428135 -0.035,0.02859 c -0.0193,0.01567 -0.067,0.03888 -0.10608,0.05129 -0.21109,0.06758 -0.86077,0.144997 -1.03034,0.122729 z"
       id="path3141-3-2-6"
       sodipodi:nodetypes="cssccccssccssscccccsccscssccssccccssccccccsssscccccssscsssccccssscccssccsssssccsssccscscccsssssscccsssscscssssccscccsssssccsssssccccc"
       inkscape:label="logo" />
    <path
       id="path10508-7-7"
       style="display:inline;fill:none;fill-opacity:1;stroke:#000000;stroke-width:0.1;stroke-dasharray:none;stroke-opacity:1"
       d="m 141.44744,24.021696 a 6.4462805,6.4462805 0 0 1 -6.44628,6.44629 6.4462805,6.4462805 0 0 1 -6.44628,-6.44629 6.4462805,6.4462805 0 0 1 6.44628,-6.44627 6.4462805,6.4462805 0 0 1 6.44628,6.44627 z"
       inkscape:label="FS RIGHT" />
    <path
       id="path3100"
       style="font-style:normal;font-weight:400;font-size:35.2778px;font-family:'Source Code Pro';fill:none;fill-opacity:1;stroke:#000000;stroke-width:0.1;stroke-linecap:round;stroke-linejoin:bevel;stroke-dasharray:none;stroke-dashoffset:0;stroke-opacity:1"
       d="m 117,24.022716 c 0,-2.2091 -1.7909,-4 -4,-4 m -4,4 c 0,2.2091 1.7909,4 4,4 2.2091,0 4,-1.7909 4,-4 m -4,-4 c -2.2091,0 -4,1.7909 -4,4" />
    <path
       id="path3124"
       style="font-style:normal;font-weight:400;font-size:35.2778px;font-family:'Source Code Pro';fill:none;fill-opacity:1;stroke:#000000;stroke-width:0.1;stroke-linecap:round;stroke-linejoin:bevel;stroke-dasharray:none;stroke-dashoffset:0;stroke-opacity:1"
       d="m 161,-43.998927 c 0,-2.2091 -1.7909,-4 -4,-4 m -4,4 c 0,2.2092 1.7909,4 4,4 2.2091,0 4,-1.7908 4,-4 m -4,-4 c -2.2091,0 -4,1.7909 -4,4" />
    <path
       id="path3124-7"
       style="font-style:normal;font-weight:400;font-size:35.2778px;font-family:'Source Code Pro';fill:none;fill-opacity:1;fill-rule:nonzero;stroke:#000000;stroke-width:0.1;stroke-linecap:round;stroke-linejoin:bevel;stroke-dasharray:none;stroke-dashoffset:0;stroke-opacity:1"
       d="m 161.00094,-73.998461 c 0,-2.2091 -1.7909,-3.999999 -4,-3.999999 m -4,3.999999 c 0,2.2092 1.7909,4 4,4 2.2091,0 4,-1.7908 4,-4 m -4,-3.999999 c -2.2091,0 -4,1.790899 -4,3.999999" />
    <path
       id="path3112"
       style="font-style:normal;font-weight:400;font-size:35.2778px;font-family:'Source Code Pro';fill:none;fill-opacity:1;stroke:#000000;stroke-width:0.1;stroke-linecap:round;stroke-linejoin:bevel;stroke-dasharray:none;stroke-dashoffset:0;stroke-opacity:1"
       d="m 139,-43.998927 c 0,-2.2091 -1.79086,-4 -4,-4 m -4,4 c 0,2.2092 1.79086,4 4,4 2.20914,0 4,-1.7908 4,-4 m -4,-4 c -2.20914,0 -4,1.7909 -4,4" />
    <path
       id="path3094"
       style="font-style:normal;font-weight:400;font-size:35.2778px;font-family:'Source Code Pro';fill:none;fill-opacity:1;stroke:#000000;stroke-width:0.1;stroke-linecap:round;stroke-linejoin:bevel;stroke-dasharray:none;stroke-dashoffset:0;stroke-opacity:1"
       d="m 117,-43.998927 c 0,-2.2091 -1.7909,-4 -4,-4 m -4,4 c 0,2.2092 1.7909,4 4,4 2.2091,0 4,-1.7908 4,-4 m -4,-4 c -2.2091,0 -4,1.7909 -4,4" />
    <path
       id="path3088"
       style="font-style:normal;font-weight:400;font-size:35.2778px;font-family:'Source Code Pro';display:inline;fill:none;fill-opacity:1;stroke:#000000;stroke-width:0.1;stroke-linecap:round;stroke-linejoin:bevel;stroke-dasharray:none;stroke-dashoffset:0;stroke-opacity:1"
       d="m 117,-73.998927 c 0,-2.209067 -1.7909,-3.999966 -4,-3.999966 m -4,3.999966 c 0,2.2092 1.7909,4 4,4 2.2091,0 4,-1.7908 4,-4 m -4,-3.999966 c -2.2091,0 -4,1.790899 -4,3.999966" />
  </g>
</svg>
