<?xml version="1.0" encoding="UTF-8" standalone="no"?>
<!-- Created with Inkscape (http://www.inkscape.org/) -->

<svg
   width="68mm"
   height="119mm"
   viewBox="0 0 68 119"
   version="1.1"
   id="svg319"
   inkscape:version="1.2.2 (b0a8486541, 2022-12-01)"
   sodipodi:docname="template_freecad_v3.svg"
   xmlns:inkscape="http://www.inkscape.org/namespaces/inkscape"
   xmlns:sodipodi="http://sodipodi.sourceforge.net/DTD/sodipodi-0.dtd"
   xmlns="http://www.w3.org/2000/svg"
   xmlns:svg="http://www.w3.org/2000/svg">
  <sodipodi:namedview
     id="namedview321"
     pagecolor="#505050"
     bordercolor="#ffffff"
     borderopacity="1"
     inkscape:showpageshadow="0"
     inkscape:pageopacity="0"
     inkscape:pagecheckerboard="1"
     inkscape:deskcolor="#505050"
     inkscape:document-units="mm"
     showgrid="true"
     showborder="true"
     showguides="true"
     inkscape:zoom="2.8284271"
     inkscape:cx="-69.296464"
     inkscape:cy="194.45436"
     inkscape:current-layer="layer1"
     guidecolor="#ff031d"
     guideopacity="0.6"
     inkscape:lockguides="false">
    <sodipodi:guide
       position="33.999999,119"
       orientation="-1,0"
       id="guide444"
       inkscape:locked="false"
       inkscape:label=""
       inkscape:color="rgb(224,27,36)" />
    <sodipodi:guide
       position="0,59.499999"
       orientation="0,1"
       id="guide454"
       inkscape:locked="false"
       inkscape:label=""
       inkscape:color="rgb(224,27,36)" />
    <sodipodi:guide
       position="14,119"
       orientation="-1,0"
       id="guide2188"
       inkscape:locked="false"
       inkscape:label=""
       inkscape:color="rgb(224,27,36)" />
    <sodipodi:guide
       position="53.999999,119"
       orientation="-1,0"
       id="guide2190"
       inkscape:locked="false"
       inkscape:label=""
       inkscape:color="rgb(224,27,36)" />
    <sodipodi:guide
       position="0,104.92"
       orientation="0,1"
       id="guide2242"
       inkscape:locked="false"
       inkscape:label=""
       inkscape:color="rgb(224,27,36)" />
    <sodipodi:guide
       position="0,74.919999"
       orientation="0,1"
       id="guide2244"
       inkscape:locked="false"
       inkscape:label=""
       inkscape:color="rgb(224,27,36)" />
    <inkscape:grid
       type="xygrid"
       id="grid2270"
       units="mm"
       spacingx="0.99999998"
       spacingy="0.99999998"
       dotted="true"
       color="#2fb675"
       opacity="0.14901961"
       empcolor="#559253"
       empopacity="0.30196078"
       visible="true" />
    <sodipodi:guide
       position="0,10.98"
       orientation="0,1"
       id="guide2296"
       inkscape:locked="false"
       inkscape:label=""
       inkscape:color="rgb(224,27,36)" />
  </sodipodi:namedview>
  <defs
     id="defs316" />
  <g
     inkscape:label="Layer 1"
     inkscape:groupmode="layer"
     id="layer1">
    <path
       id="path1847"
       style="font-style:normal;font-weight:400;font-size:35.2778px;font-family:'Source Code Pro';fill:none;stroke:#000000;stroke-width:0.1;stroke-linecap:round;stroke-linejoin:bevel;stroke-dasharray:0.4, 0.2;stroke-dashoffset:0;stroke-opacity:1"
       d="M 0.7500015,108.01804 H 48.500001 m -14.5,10.025 V 97.543034 M 6.0000015,44.077334 H 61.999998 m -55.9999965,-30 H 61.999998 m -8,42.00003 V 2.0773334 m -19.999997,0 V 56.077364 m -20,0 V 2.0773334 M -0.9999985,123.03014 H 68.999999 m -69.9999975,-2.9871 H 68.999999 M -0.9999985,-0.92266663 H 68.999999 M 4.0000015,125.04084 H 63.999998 m 5,-128.9650066 H -0.9999985 M 63.999998,125.02944 v 0.0114 m -59.9999965,-0.0114 v 0.0114 m 0,-0.0114 H 63.999998 m 5,-0.1308 v -1.8685 m -1.5,1.9993 c 0.8284,0 1.5,-0.0586 1.5,-0.1308 m -5,0.1308 h 3.5 m -66.9999965,0 c -0.8284,0 -1.5,-0.0586 -1.5,-0.1308 m 1.5,0.1308 h 3.5 m -5,-0.1308 v -1.8685 m 69.9999965,0 v -2.9871 m -69.9999965,2.9871 v -2.9871 M 18.000001,14.077334 c 0,-2.2091 -1.790899,-4.000001 -4,-4.000001 m -4,4.000001 c 0,2.2092 1.7909,4 4,4 2.209101,0 4,-1.7908 4,-4 m -4,-4.000001 c -2.2091,0 -4,1.790901 -4,4.000001 m 8,30 c 0,-2.2091 -1.790899,-4 -4,-4 m -4,4 c 0,2.2092 1.7909,4 4,4 2.209101,0 4,-1.7908 4,-4 m -4,-4 c -2.2091,0 -4,1.7909 -4,4 m 5,63.965706 c 0,-2.2091 -1.7909,-4 -4,-4 m -3.9999995,4 c 0,2.2091 1.7909,4 3.9999995,4 2.2091,0 4,-1.7909 4,-4 m -4,-4 c -2.2090995,0 -3.9999995,1.7909 -3.9999995,4 M 38.000001,14.077334 c 0,-2.2091 -1.79086,-4.000001 -4,-4.000001 m -4,4.000001 c 0,2.2092 1.79086,4 4,4 2.20914,0 4,-1.7908 4,-4 m -4,-4.000001 c -2.20914,0 -4,1.790901 -4,4.000001 m 8,30 c 0,-2.2091 -1.79086,-4 -4,-4 m -4,4 c 0,2.2092 1.79086,4 4,4 2.20914,0 4,-1.7908 4,-4 m -4,-4 c -2.20914,0 -4,1.7909 -4,4 m 27.999997,-30 c 0,-2.2091 -1.7909,-4.000001 -4,-4.000001 m -3.999997,4.000001 c 0,2.2092 1.790897,4 3.999997,4 2.2091,0 4,-1.7908 4,-4 m -4,-4.000001 c -2.2091,0 -3.999997,1.790901 -3.999997,4.000001 m 7.999997,30 c 0,-2.2091 -1.7909,-4 -4,-4 m -3.999997,4 c 0,2.2092 1.790897,4 3.999997,4 2.2091,0 4,-1.7908 4,-4 m -4,-4 c -2.2091,0 -3.999997,1.7909 -3.999997,4 m -9.5,63.965706 c 0,-3.5899 -2.91015,-6.5 -6.5,-6.5 m -6.5,6.5 c 0,3.5898 2.91015,6.5 6.5,6.5 3.58985,0 6.5,-2.9102 6.5,-6.5 m -6.5,-6.5 c -3.58985,0 -6.5,2.9101 -6.5,6.5 m 41.499997,12 V -0.92266663 M -0.9999985,120.04304 V -0.92266663 m 69.9999965,0 V -3.9241666 M 10.000001,14.077334 c 4e-4,2.2089 1.7912,3.9993 4,3.9993 2.2088,0 3.9996,-1.7904 4,-3.9993 m -8,30 c 4e-4,2.2089 1.7912,3.9993 4,3.9993 2.2088,0 3.9996,-1.7904 4,-3.9993 M 7.0000015,108.04304 c 4e-4,2.2088 1.7912,3.9992 3.9999995,3.9992 2.2088,0 3.9996,-1.7904 4,-3.9992 m 15,-93.965706 c 0,2.2089 1.79116,3.9993 4,3.9993 2.20884,0 3.99958,-1.7904 4,-3.9993 m -8,30 c 0,2.2089 1.79116,3.9993 4,3.9993 2.20884,0 3.99958,-1.7904 4,-3.9993 m 12,-30 c 0,2.2089 1.791197,3.9993 3.999997,3.9993 2.2088,0 3.9996,-1.7904 4,-3.9993 m -7.999997,30 c 0,2.2089 1.791197,3.9993 3.999997,3.9993 2.2088,0 3.9996,-1.7904 4,-3.9993 M 27.500001,108.04304 c 4e-4,3.5896 2.91045,6.4992 6.5,6.4992 3.58955,0 6.49958,-2.9096 6.5,-6.4992 M -0.9999985,-0.92266663 V -3.9241666 M 10.000001,44.077334 c 0,2.2092 1.7909,4 4,4 2.2091,0 4,-1.7908 4,-4 v 0 c -4e-4,2.2089 -1.7912,3.9993 -4,3.9993 -2.2088,0 -3.9996,-1.7904 -4,-3.9993 m 20,0 c 0,2.2092 1.79086,4 4,4 2.20914,0 4,-1.7908 4,-4 v 0 c 0,2.2089 -1.79116,3.9993 -4,3.9993 -2.20884,0 -3.99958,-1.7904 -4,-3.9993 m 0,-30 c 0,2.2092 1.79086,4 4,4 2.20914,0 4,-1.7908 4,-4 v 0 c 0,2.2089 -1.79116,3.9993 -4,3.9993 -2.20884,0 -3.99958,-1.7904 -4,-3.9993 m 20,30 c 0,2.2092 1.790897,4 3.999997,4 2.2091,0 4,-1.7908 4,-4 v 0 c 0,2.2089 -1.7912,3.9993 -4,3.9993 -2.2088,0 -3.999597,-1.7904 -3.999997,-3.9993 m -40,-30 c 0,2.2092 1.7909,4 4,4 2.2091,0 4,-1.7908 4,-4 v 0 c -4e-4,2.2089 -1.7912,3.9993 -4,3.9993 -2.2088,0 -3.9996,-1.7904 -4,-3.9993 m 40,0 c 0,2.2092 1.790897,4 3.999997,4 2.2091,0 4,-1.7908 4,-4 v 0 c 0,2.2089 -1.7912,3.9993 -4,3.9993 -2.2088,0 -3.999597,-1.7904 -3.999997,-3.9993 M 7.0000015,108.04304 c 0,2.2091 1.7909,4 3.9999995,4 2.2091,0 4,-1.7909 4,-4 v 0 c -4e-4,2.2088 -1.7912,3.9992 -4,3.9992 -2.2087995,0 -3.9995995,-1.7904 -3.9999995,-3.9992 m 20.4999995,0 c 0,3.5898 2.91015,6.5 6.5,6.5 3.58985,0 6.5,-2.9102 6.5,-6.5 v 0 c 0,3.5896 -2.91045,6.4992 -6.5,6.4992 -3.58955,0 -6.49958,-2.9096 -6.5,-6.4992 m 36.499997,16.9906 v 0.007 l -59.9999965,-0.006 59.9999965,-10e-4 m -48.999997,-16.9906 c 0,-2.2091 -1.7909,-4 -4,-4 -2.2090995,0 -3.9999995,1.7909 -3.9999995,4 v 0 c 4e-4,2.2088 1.7912,3.9992 3.9999995,3.9992 2.2088,0 3.9996,-1.7904 4,-3.9992 m 3,-93.965706 c 0,-2.2091 -1.790899,-4.000001 -4,-4.000001 -2.2091,0 -4,1.790901 -4,4.000001 v 0 c 4e-4,2.2089 1.791201,3.9993 4,3.9993 2.2088,0 3.9996,-1.7904 4,-3.9993 m 0,30 c 0,-2.2091 -1.790899,-4 -4,-4 -2.2091,0 -4,1.7909 -4,4 v 0 c 4e-4,2.2089 1.791201,3.9993 4,3.9993 2.2088,0 3.9996,-1.7904 4,-3.9993 m 39.999997,0 c 0,-2.2091 -1.7909,-4 -4,-4 -2.2091,0 -3.999997,1.7909 -3.999997,4 v 0 c 0,2.2089 1.791197,3.9993 3.999997,3.9993 2.2088,0 3.9996,-1.7904 4,-3.9993 m -19.999997,-30 c 0,-2.2091 -1.79086,-4.000001 -4,-4.000001 v 0 c -2.20914,0 -4,1.790901 -4,4.000001 v 0 c 0,2.2089 1.79116,3.9993 4,3.9993 2.20884,0 3.99958,-1.7904 4,-3.9993 m 0,30 c 0,-2.2091 -1.79086,-4 -4,-4 v 0 c -2.20914,0 -4,1.7909 -4,4 v 0 c 0,2.2089 1.79116,3.9993 4,3.9993 2.20884,0 3.99958,-1.7904 4,-3.9993 m 19.999997,-30 c 0,-2.2091 -1.7909,-4.000001 -4,-4.000001 -2.2091,0 -3.999997,1.790901 -3.999997,4.000001 v 0 c 0,2.2089 1.791197,3.9993 3.999997,3.9993 2.2088,0 3.9996,-1.7904 4,-3.9993 M 15.000001,108.04304 c 0,-2.2091 -1.7909,-4 -4,-4 -2.2090995,0 -3.9999995,1.7909 -3.9999995,4 0,2.2091 1.7909,4 3.9999995,4 2.2091,0 4,-1.7909 4,-4 m 3,-63.965706 c 0,-2.2091 -1.7909,-4 -4,-4 -2.2091,0 -4,1.7909 -4,4 0,2.2092 1.7909,4 4,4 2.2091,0 4,-1.7908 4,-4 m 0,-30 c 0,-2.2091 -1.7909,-4.000001 -4,-4.000001 -2.2091,0 -4,1.790901 -4,4.000001 0,2.2092 1.7909,4 4,4 2.2091,0 4,-1.7908 4,-4 m 20,0 c 0,-2.2091 -1.79086,-4.000001 -4,-4.000001 v 0 c -2.20914,0 -4,1.790901 -4,4.000001 0,2.2092 1.79086,4 4,4 2.20914,0 4,-1.7908 4,-4 m 19.999997,30 c 0,-2.2091 -1.7909,-4 -4,-4 -2.2091,0 -3.999997,1.7909 -3.999997,4 0,2.2092 1.790897,4 3.999997,4 2.2091,0 4,-1.7908 4,-4 m -19.999997,0 c 0,-2.2091 -1.79086,-4 -4,-4 v 0 c -2.20914,0 -4,1.7909 -4,4 0,2.2092 1.79086,4 4,4 2.20914,0 4,-1.7908 4,-4 m 19.999997,-30 c 0,-2.2091 -1.7909,-4.000001 -4,-4.000001 -2.2091,0 -3.999997,1.790901 -3.999997,4.000001 0,2.2092 1.790897,4 3.999997,4 2.2091,0 4,-1.7908 4,-4 M 40.500001,108.04304 c 0,-3.5899 -2.91015,-6.5 -6.5,-6.5 v 0 c -3.58985,0 -6.5,2.9101 -6.5,6.5 v 0 c 4e-4,3.5896 2.91045,6.4992 6.5,6.4992 3.58955,0 6.49958,-2.9096 6.5,-6.4992 m 0,0 c 0,-3.5899 -2.91015,-6.5 -6.5,-6.5 v 0 c -3.58985,0 -6.5,2.9101 -6.5,6.5 0,3.5898 2.91015,6.5 6.5,6.5 3.58985,0 6.5,-2.9102 6.5,-6.5 m -36.4999995,16.9892 59.9999965,-0.003 h 3.5 c 0.8284,0 1.5,-0.0586 1.5,-0.1308 v -1.8685 H -0.9999985 v 1.8685 c 0,0.0722 0.6716,0.1308 1.5,0.1308 l 3.5,0.003 m -5,-2.0021 H 68.999998 v -2.9871 H -0.9999985 v 2.9871 m 0,-123.95280663 H 68.999998 V -3.9241666 H -0.9999985 v 3.00149997 m 0,120.96570663 H 68.999999 V -0.92266663 H -0.9999985 V 120.04304 m 64.9999965,4.9906 3.5,-0.004 c 0.8284,0 1.5,-0.0586 1.5,-0.1308 v -1.8687 -2.9871 V -0.92266663 -3.9241666 H -0.9999985 v 3.00149997 120.96570663 2.9871 1.8685 c 0,0.0722 0.6716,0.1308 1.5,0.1308 l 3.5,0.006 59.9999965,-10e-4" />
    <path
       id="rect7321-12-0"
       style="display:inline;fill:none;stroke:#000000;stroke-width:0.104789;stroke-dasharray:none;stroke-opacity:1"
       inkscape:label="contour 2"
       d="m 43.246831,84.088043 c -0.04045,0.001 -0.08111,0.0042 -0.122372,0.0084 l -18.123838,2.07399 c -0.660127,0.07555 -1.238437,0.60592 -1.238437,1.232484 v 0.876705 H -0.05765574 v 0.52364 H 23.762184 v 0.335733 H -0.05765574 v 0.282668 H 23.762184 v 0.521481 H -0.05765574 v 0.52364 H 23.762184 v 0.335733 H -0.05765574 v 0.282668 H 23.762184 v 0.521482 H -0.05765574 v 0.52364 H 23.762184 V 92.46604 H -0.05765574 v 0.282668 H 23.762184 v 0.521481 H -0.05765574 V 93.79383 H 23.762184 v 0.335732 H -0.05765574 V 94.41223 H 23.762184 v 2.988608 c 0,0.626564 0.57831,1.024814 1.238437,0.949271 l 18.123838,-2.07399 c 0.660117,-0.07555 1.24006,-0.606455 1.24006,-1.233029 V 94.41223 H 68.058695 V 94.129562 H 44.364519 V 93.79383 H 68.058695 V 93.270189 H 44.364519 V 92.748708 H 68.058695 V 92.46604 H 44.364519 v -0.335733 h 23.694176 v -0.52364 H 44.364519 V 91.085185 H 68.058695 V 90.802517 H 44.364519 v -0.335733 h 23.694176 v -0.52364 H 44.364519 V 89.421663 H 68.058695 V 89.138995 H 44.364519 v -0.335733 h 23.694176 v -0.52364 H 44.364519 V 85.04519 c 0,-0.587404 -0.510007,-0.973635 -1.117688,-0.957393 z m -0.128335,0.542052 c 0.366164,0.0042 0.730043,0.341517 0.729959,0.541517 l -0.0042,9.78673 c -1.26e-4,0.278057 -0.39366,0.756732 -0.778152,0.80089 l -17.907228,2.056659 c -0.425697,0.04894 -0.872815,-0.209442 -0.872917,-0.591334 l -0.0027,-9.880946 c 0.0082,-0.330954 0.385638,-0.628062 0.717505,-0.646568 l 18.044774,-2.063155 c 0.02431,-0.0031 0.04873,-0.0042 0.07314,-0.0042 z m -0.498731,0.324363 c -0.03437,10e-4 -0.06937,0.0031 -0.104475,0.0073 l -16.904899,1.938614 c -0.562109,0.06444 -1.045116,0.490443 -1.045116,0.985549 v 8.853712 c 0,0.495106 0.483007,0.810656 1.045116,0.746201 L 42.51529,95.54722 c 0.562108,-0.06445 1.043487,-0.490443 1.043487,-0.985549 v -8.853712 c 0,-0.464162 -0.422969,-0.770417 -0.938981,-0.753777 z m -0.02169,0.265346 c 0.406958,-0.01446 0.698292,0.22123 0.698009,0.518768 l -0.0084,8.829882 c -2.31e-4,0.246568 -0.401446,0.646893 -0.780865,0.690967 l -16.896768,1.962432 c -0.449663,0.05219 -0.781117,-0.194907 -0.780856,-0.51227 l 0.0075,-8.853167 c 2.38e-4,-0.289584 0.377836,-0.636403 0.773821,-0.682301 l 16.904673,-1.947814 c 0.02808,-0.0031 0.05575,-0.0052 0.08289,-0.0063 z"
       sodipodi:nodetypes="cccsccccccccccccccccccccccccccccccccsccsccccccccccccccccccccccccccccccccsccccccccccccccccssccsscccsccccccccc" />
    <path
       style="display:inline;fill:none;fill-opacity:1;stroke:#000000;stroke-width:0.104645;stroke-dasharray:none;stroke-opacity:1"
       d="m 25.754008,96.619689 c -0.126381,-0.0253 -0.146197,-0.05164 -0.187644,-0.247961 -0.07913,-0.374877 -0.06447,-0.827897 0.04411,-1.362638 0.03463,-0.17049 0.07449,-0.239082 0.183374,-0.315409 0.112441,-0.07891 0.208562,-0.103484 0.417745,-0.106728 0.184284,-0.0031 0.186262,-0.0021 0.282031,0.04594 0.05636,0.02862 0.114635,0.07155 0.140194,0.103693 0.0504,0.06305 0.05021,0.0591 0.02985,0.586306 -0.01253,0.324567 -0.0043,0.386626 0.05523,0.413255 0.138297,0.06191 0.499802,0.05184 0.886436,-0.0253 0.343189,-0.06802 0.62235,-0.119837 0.765801,-0.142131 0.06672,-0.01065 0.129091,-0.02374 0.138579,-0.02987 0.03904,-0.0252 0.183427,-0.717872 0.234448,-1.12483 0.07555,-0.602618 0.06306,-1.108077 -0.03496,-1.415565 -0.03509,-0.110048 -0.07364,-0.189332 -0.104499,-0.21488 -0.03304,-0.02748 -0.148268,-0.0092 -0.630861,0.0956 -0.597724,0.130714 -0.963456,0.199462 -1.126302,0.211677 -0.186125,0.01421 -0.689642,-0.0031 -0.845683,-0.02841 -0.204472,-0.03339 -0.372198,-0.111001 -0.439788,-0.203819 -0.02597,-0.03557 -0.02718,-0.09985 -0.03538,-1.880456 -0.0046,-1.013984 -0.0089,-2.055115 -0.0096,-2.313662 l -10e-4,-0.470078 0.04738,-0.07114 c 0.122469,-0.183981 0.379403,-0.300064 0.673716,-0.304399 0.238924,-0.0031 0.387458,0.05247 0.476262,0.179636 0.03454,0.04947 0.03496,0.05382 0.046,0.496571 0.0061,0.245657 0.01253,0.832555 0.01419,1.304239 l 0.0032,0.857597 -0.0411,0.38984 c -0.04654,0.441283 -0.05821,0.917696 -0.02597,1.059848 0.03717,0.163916 0.06201,0.226816 0.09257,0.234459 0.04184,0.01065 0.283036,-0.01846 0.604803,-0.07258 0.304978,-0.05122 1.164292,-0.203268 1.214584,-0.214871 l 0.03186,-0.0062 v -2.09166 c 0,-1.595062 0.0041,-2.105851 0.01716,-2.151309 0.02694,-0.09364 0.15534,-0.217246 0.297601,-0.286626 0.161293,-0.07861 0.287409,-0.110118 0.457197,-0.113898 0.122758,-0.0031 0.161839,0.0031 0.293102,0.04283 l 0.151457,0.04604 0.006,2.458956 c 0.0051,2.087632 0.0096,2.512229 0.02938,2.811735 0.03224,0.486066 0.04504,1.357847 0.02427,1.65004 -0.04321,0.607523 -0.167728,1.157838 -0.305569,1.35057 -0.08374,0.11708 -0.209197,0.218396 -0.392515,0.316956 -0.183808,0.09881 -0.31112,0.141343 -0.63472,0.211945 -0.482348,0.105216 -0.944021,0.173271 -1.331439,0.19626 -0.11296,0.0062 -0.380664,0.03764 -0.594896,0.06886 -0.405483,0.059 -0.800285,0.08586 -0.916479,0.06251 z m 5.585771,-0.722952 c -0.08996,-0.01525 -0.168263,-0.06812 -0.2018,-0.136335 -0.04319,-0.08783 -0.03735,-0.617621 0.01214,-1.100556 0.07393,-0.721469 0.09536,-1.213053 0.09529,-2.18525 -5.5e-5,-0.717331 -0.0062,-0.92375 -0.05665,-1.872938 -0.0469,-0.884473 -0.05596,-1.137896 -0.06542,-1.829554 -0.0093,-0.678447 1.06e-4,-0.914315 0.04525,-1.139431 0.04305,-0.214559 0.09046,-0.298633 0.207828,-0.368522 0.207978,-0.123849 0.51116,-0.18342 1.250122,-0.245615 0.179179,-0.01504 0.504247,-0.04956 0.722377,-0.07642 0.96532,-0.119391 1.382407,-0.157279 1.813024,-0.164985 l 0.354105,-0.0062 0.06724,0.0391 c 0.09221,0.05371 0.109853,0.09446 0.109853,0.253714 0,0.236272 -0.06613,1.000721 -0.09273,1.071574 -0.04106,0.109477 -0.489676,0.201473 -0.948388,0.194516 -0.152147,-0.0021 -0.268714,-0.01111 -0.316626,-0.02437 -0.04167,-0.01146 -0.07744,-0.02291 -0.07937,-0.0252 -0.0021,-0.0021 0.01753,-0.238285 0.0432,-0.524101 0.02578,-0.285817 0.03281,-0.213834 0.03636,-0.351735 0.0021,-0.07351 -0.07408,-0.02893 -0.212123,-0.0365 -0.115699,0.0031 -0.436773,0.03296 -0.631507,0.05973 -0.366292,0.05195 -0.975209,0.170419 -0.995862,0.210268 -0.05151,0.09934 -0.01298,1.060707 0.0282,1.839103 0.06563,1.240602 0.08796,2.364085 0.06687,3.360101 -0.01659,0.783611 -0.02332,0.910874 -0.08459,1.605858 -0.0566,0.641938 -0.07827,0.841451 -0.05906,0.877691 0.03166,0.05972 0.185497,0.02053 0.746969,-0.05796 0.190864,-0.02655 0.404966,-0.05703 0.490658,-0.06335 0.376148,-0.02769 0.587018,-0.05589 0.709871,-0.180362 0.130366,-0.132301 0.122865,-0.08275 0.186652,-1.120476 0.02486,-0.405084 0.05472,-1.792151 0.04147,-1.932168 -0.02149,-0.227707 -0.07907,-0.394974 -0.141266,-0.409853 -0.01936,-0.0042 -0.100575,6.12e-4 -0.180426,0.01065 -0.299569,0.04054 -0.581634,0.02301 -0.715591,-0.04438 -0.14958,-0.07528 -0.183091,-0.221434 -0.09531,-0.41565 0.04325,-0.0956 0.146957,-0.232509 0.208488,-0.275053 0.0687,-0.04749 0.392218,-0.09395 1.175055,-0.168697 0.328895,-0.03152 0.407884,-0.01065 0.688257,0.175447 l 0.168678,0.112329 0.0091,0.494768 c 0.005,0.272129 0.02181,0.692403 0.0376,0.933954 0.06644,1.017687 0.06634,1.499699 -1.53e-4,1.964146 -0.03261,0.227832 -0.107117,0.539821 -0.161778,0.677566 -0.08671,0.218593 -0.30175,0.345824 -0.745523,0.441116 -0.645319,0.138575 -1.709271,0.289945 -2.746529,0.390754 -0.444644,0.04324 -0.69757,0.05682 -0.783939,0.0421 z m 5.87599,-0.712822 c -0.12532,-0.01639 -0.11285,0.04438 -0.132066,-0.644062 -0.01956,-0.702059 -0.03719,-1.045549 -0.115649,-2.257128 -0.111733,-1.725458 -0.129744,-2.14201 -0.130142,-3.010472 -4.88e-4,-1.010117 0.0482,-1.706451 0.173404,-2.481995 0.04412,-0.273031 0.03547,-0.251579 0.117363,-0.290794 0.155521,-0.07455 0.605653,-0.145977 0.951105,-0.151162 0.140258,-0.0021 0.224159,0.0021 0.246871,0.01411 0.09221,0.04624 0.394801,0.632572 0.784559,1.690325 0.120214,0.326259 0.269673,0.676705 0.30869,0.775171 0.185722,0.468688 0.581594,1.467338 1.110865,2.626013 0.566249,1.239599 0.759492,1.573413 0.769019,1.547999 0.01682,-0.04501 -0.01233,-2.032489 -0.03271,-2.841506 -0.01641,-0.649858 -0.01804,-1.144096 -0.0082,-2.450274 0.0061,-0.899892 0.01662,-1.64747 0.02211,-1.661273 0.01293,-0.03245 0.08091,-0.07539 0.1694,-0.10683 0.115743,-0.04127 0.322812,-0.06947 0.724584,-0.0987 0.452738,-0.03286 0.434416,-0.03225 0.423362,-0.01327 -0.01172,0.0195 -0.04392,0.422111 -0.06521,0.815342 -0.02395,0.441458 -0.02099,1.767702 0.0061,2.853898 0.02801,1.114151 0.03087,1.190519 0.07368,1.95194 0.08091,1.440719 0.07916,2.105863 -0.0071,2.738788 -0.02884,0.211272 -0.04413,0.259645 -0.09456,0.29963 -0.12053,0.0955 -0.4485,0.162247 -0.828942,0.168757 -0.3409,0.0052 -0.322578,0.01732 -0.402341,-0.250612 -0.163246,-0.548273 -0.499152,-1.013819 -1.027732,-2.028705 -0.439715,-0.844272 -0.336332,-0.700264 -1.273182,-2.840843 -0.387649,-0.885696 -0.660513,-1.637504 -0.667278,-1.644929 -0.0162,-0.01783 0.01293,0.912003 0.03005,2.112333 0.01284,0.895173 0.04911,3.551444 0.06195,4.536165 l 0.0061,0.436201 -0.03566,0.02913 c -0.01966,0.01597 -0.06827,0.03961 -0.108085,0.05226 -0.215067,0.06886 -0.876987,0.147729 -1.049749,0.125042 z"
       id="path3141-3"
       sodipodi:nodetypes="cssccccssccssscccccsccscssccssccccssccccccsssscccccssscsssccccssscccssccsssssccsssccscscccsssssscccsssscscssssccscccsssssccsssssccccc"
       inkscape:label="logo" />
  </g>
</svg>
