<?xml version="1.0" encoding="UTF-8" standalone="no"?>
<!-- Created with Inkscape (http://www.inkscape.org/) -->

<svg
   width="68mm"
   height="119mm"
   viewBox="0 0 68 119"
   version="1.1"
   id="svg319"
   inkscape:version="1.2.2 (b0a8486541, 2022-12-01)"
   sodipodi:docname="template_v3.svg"
   xml:space="preserve"
   xmlns:inkscape="http://www.inkscape.org/namespaces/inkscape"
   xmlns:sodipodi="http://sodipodi.sourceforge.net/DTD/sodipodi-0.dtd"
   xmlns="http://www.w3.org/2000/svg"
   xmlns:svg="http://www.w3.org/2000/svg"><sodipodi:namedview
     id="namedview321"
     pagecolor="#505050"
     bordercolor="#ffffff"
     borderopacity="1"
     inkscape:showpageshadow="0"
     inkscape:pageopacity="0"
     inkscape:pagecheckerboard="1"
     inkscape:deskcolor="#505050"
     inkscape:document-units="mm"
     showgrid="true"
     showborder="true"
     showguides="true"
     inkscape:zoom="4"
     inkscape:cx="53.375"
     inkscape:cy="129.25"
     inkscape:current-layer="layer1"
     guidecolor="#ff031d"
     guideopacity="0.6"
     inkscape:lockguides="false"><sodipodi:guide
       position="33.999999,119"
       orientation="-1,0"
       id="guide444"
       inkscape:locked="false"
       inkscape:label=""
       inkscape:color="rgb(224,27,36)" /><sodipodi:guide
       position="0,59.499999"
       orientation="0,1"
       id="guide454"
       inkscape:locked="false"
       inkscape:label=""
       inkscape:color="rgb(224,27,36)" /><sodipodi:guide
       position="12,119"
       orientation="-1,0"
       id="guide2188"
       inkscape:locked="false"
       inkscape:label=""
       inkscape:color="rgb(224,27,36)" /><sodipodi:guide
       position="55.999999,119"
       orientation="-1,0"
       id="guide2190"
       inkscape:locked="false"
       inkscape:label=""
       inkscape:color="rgb(224,27,36)" /><sodipodi:guide
       position="0,74.919999"
       orientation="0,1"
       id="guide2244"
       inkscape:locked="false"
       inkscape:label=""
       inkscape:color="rgb(224,27,36)" /><inkscape:grid
       type="xygrid"
       id="grid2270"
       units="mm"
       spacingx="0.99999998"
       spacingy="0.99999998"
       dotted="true"
       color="#2fb675"
       opacity="0.14901961"
       empcolor="#559253"
       empopacity="0.30196078"
       visible="true" /><sodipodi:guide
       position="0,9.9799998"
       orientation="0,1"
       id="guide2296"
       inkscape:locked="false"
       inkscape:label=""
       inkscape:color="rgb(224,27,36)" /></sodipodi:namedview><defs
     id="defs316" /><g
     inkscape:label="Layer 1"
     inkscape:groupmode="layer"
     id="layer1"><g
       stroke="#000000"
       fill="none"
       fill-rule="evenodd"
       stroke-linejoin="bevel"
       stroke-width="1"
       stroke-linecap="square"
       id="DrawingContent"
       transform="matrix(0.1,0,0,0.1,-71.000001,-87.923079)"
       style="display:none"><path
         style="font-style:normal;font-weight:400;font-size:35.2778px;font-family:'Source Code Pro';fill:none;stroke:#000000;stroke-width:1;stroke-linecap:round;stroke-linejoin:bevel;stroke-dasharray:4, 2;stroke-dashoffset:0;stroke-opacity:1"
         d="m 1350,2129.6173 35,-0.042 c 8.284,0 15,-0.586 15,-1.308 v -18.685 -29.871 -1209.65667 -30.015 H 700 v 30.015 1209.65667 29.871 18.685 c 0,0.722 6.716,1.308 15,1.308 l 35,0.057 600,-0.015"
         id="path3204" /><path
         style="font-style:normal;font-weight:400;font-size:35.2778px;font-family:'Source Code Pro';fill:none;stroke:#000000;stroke-width:1;stroke-linecap:round;stroke-linejoin:bevel;stroke-dasharray:4, 2;stroke-dashoffset:0;stroke-opacity:1"
         d="m 700,2079.7113 h 700 V 870.05463 H 700 V 2079.7113"
         id="path3202" /><path
         style="font-style:normal;font-weight:400;font-size:35.2778px;font-family:'Source Code Pro';fill:none;stroke:#000000;stroke-width:1;stroke-linecap:round;stroke-linejoin:bevel;stroke-dasharray:4, 2;stroke-dashoffset:0;stroke-opacity:1"
         d="m 700,870.05463 h 700 v -30.015 H 700 v 30.015"
         id="path3200" /><path
         style="font-style:normal;font-weight:400;font-size:35.2778px;font-family:'Source Code Pro';fill:none;stroke:#000000;stroke-width:1;stroke-linecap:round;stroke-linejoin:bevel;stroke-dasharray:4, 2;stroke-dashoffset:0;stroke-opacity:1"
         d="m 700,2109.5823 h 700 v -29.871 H 700 v 29.871"
         id="path3198" /><path
         style="font-style:normal;font-weight:400;font-size:35.2778px;font-family:'Source Code Pro';fill:none;stroke:#000000;stroke-width:1;stroke-linecap:round;stroke-linejoin:bevel;stroke-dasharray:4, 2;stroke-dashoffset:0;stroke-opacity:1"
         d="m 750,2129.6033 600,-0.028 h 35 c 8.284,0 15,-0.586 15,-1.308 v -18.685 H 700 v 18.685 c 0,0.722 6.716,1.308 15,1.308 l 35,0.028"
         id="path3196" /><path
         style="font-style:normal;font-weight:400;font-size:35.2778px;font-family:'Source Code Pro';fill:none;stroke:#000000;stroke-width:1;stroke-linecap:round;stroke-linejoin:bevel;stroke-dasharray:4, 2;stroke-dashoffset:0;stroke-opacity:1"
         d="m 1350,2129.6173 v 0.072 l -600,-0.057 600,-0.015"
         id="path3166" /><path
         style="font-style:normal;font-weight:400;font-size:35.2778px;font-family:'Source Code Pro';fill:none;stroke:#000000;stroke-width:1;stroke-linecap:round;stroke-linejoin:bevel;stroke-dasharray:4, 2;stroke-dashoffset:0;stroke-opacity:1"
         d="m 700,870.05463 v -30.015"
         id="path3150" /><path
         style="font-style:normal;font-weight:400;font-size:35.2778px;font-family:'Source Code Pro';fill:none;stroke:#000000;stroke-width:1;stroke-linecap:round;stroke-linejoin:bevel;stroke-dasharray:4, 2;stroke-dashoffset:0;stroke-opacity:1"
         d="m 1400,870.05463 v -30.015"
         id="path3134" /><path
         style="font-style:normal;font-weight:400;font-size:35.2778px;font-family:'Source Code Pro';fill:none;stroke:#000000;stroke-width:1;stroke-linecap:round;stroke-linejoin:bevel;stroke-dasharray:4, 2;stroke-dashoffset:0;stroke-opacity:1"
         d="M 700,2079.7113 V 870.05463"
         id="path3132" /><path
         style="font-style:normal;font-weight:400;font-size:35.2778px;font-family:'Source Code Pro';fill:none;stroke:#000000;stroke-width:1;stroke-linecap:round;stroke-linejoin:bevel;stroke-dasharray:4, 2;stroke-dashoffset:0;stroke-opacity:1"
         d="M 1400,2079.7113 V 870.05463"
         id="path3130" /><path
         style="font-style:normal;font-weight:400;font-size:35.2778px;font-family:'Source Code Pro';fill:none;stroke:#000000;stroke-width:1;stroke-linecap:round;stroke-linejoin:bevel;stroke-dasharray:4, 2;stroke-dashoffset:0;stroke-opacity:1"
         d="m 700,2109.5823 v -29.871"
         id="path3086" /><path
         style="font-style:normal;font-weight:400;font-size:35.2778px;font-family:'Source Code Pro';fill:none;stroke:#000000;stroke-width:1;stroke-linecap:round;stroke-linejoin:bevel;stroke-dasharray:4, 2;stroke-dashoffset:0;stroke-opacity:1"
         d="m 1400,2109.5823 v -29.871"
         id="path3084" /><path
         style="font-style:normal;font-weight:400;font-size:35.2778px;font-family:'Source Code Pro';fill:none;stroke:#000000;stroke-width:1;stroke-linecap:round;stroke-linejoin:bevel;stroke-dasharray:4, 2;stroke-dashoffset:0;stroke-opacity:1"
         d="m 700,2128.2673 v -18.685"
         id="path3082" /><path
         style="font-style:normal;font-weight:400;font-size:35.2778px;font-family:'Source Code Pro';fill:none;stroke:#000000;stroke-width:1;stroke-linecap:round;stroke-linejoin:bevel;stroke-dasharray:4, 2;stroke-dashoffset:0;stroke-opacity:1"
         d="m 715,2129.5753 h 35"
         id="path3080" /><path
         style="font-style:normal;font-weight:400;font-size:35.2778px;font-family:'Source Code Pro';fill:none;stroke:#000000;stroke-width:1;stroke-linecap:round;stroke-linejoin:bevel;stroke-dasharray:4, 2;stroke-dashoffset:0;stroke-opacity:1"
         d="m 715,2129.5753 c -8.284,0 -15,-0.586 -15,-1.308"
         id="path3078" /><path
         style="font-style:normal;font-weight:400;font-size:35.2778px;font-family:'Source Code Pro';fill:none;stroke:#000000;stroke-width:1;stroke-linecap:round;stroke-linejoin:bevel;stroke-dasharray:4, 2;stroke-dashoffset:0;stroke-opacity:1"
         d="m 1350,2129.5753 h 35"
         id="path3076" /><path
         style="font-style:normal;font-weight:400;font-size:35.2778px;font-family:'Source Code Pro';fill:none;stroke:#000000;stroke-width:1;stroke-linecap:round;stroke-linejoin:bevel;stroke-dasharray:4, 2;stroke-dashoffset:0;stroke-opacity:1"
         d="m 1385,2129.5753 c 8.284,0 15,-0.586 15,-1.308"
         id="path3074" /><path
         style="font-style:normal;font-weight:400;font-size:35.2778px;font-family:'Source Code Pro';fill:none;stroke:#000000;stroke-width:1;stroke-linecap:round;stroke-linejoin:bevel;stroke-dasharray:4, 2;stroke-dashoffset:0;stroke-opacity:1"
         d="m 1400,2128.2673 v -18.685"
         id="path3072" /><path
         style="font-style:normal;font-weight:400;font-size:35.2778px;font-family:'Source Code Pro';fill:none;stroke:#000000;stroke-width:1;stroke-linecap:round;stroke-linejoin:bevel;stroke-dasharray:4, 2;stroke-dashoffset:0;stroke-opacity:1"
         d="m 750,2129.5753 h 600"
         id="path3070" /><path
         style="font-style:normal;font-weight:400;font-size:35.2778px;font-family:'Source Code Pro';fill:none;stroke:#000000;stroke-width:1;stroke-linecap:round;stroke-linejoin:bevel;stroke-dasharray:4, 2;stroke-dashoffset:0;stroke-opacity:1"
         d="m 750,2129.5753 v 0.114"
         id="path3068" /><path
         style="font-style:normal;font-weight:400;font-size:35.2778px;font-family:'Source Code Pro';fill:none;stroke:#000000;stroke-width:1;stroke-linecap:round;stroke-linejoin:bevel;stroke-dasharray:4, 2;stroke-dashoffset:0;stroke-opacity:1"
         d="m 1350,2129.5753 v 0.114"
         id="path3066" /><path
         style="font-style:normal;font-weight:400;font-size:35.2778px;font-family:'Source Code Pro';fill:none;stroke:#000000;stroke-width:1;stroke-linecap:round;stroke-linejoin:bevel;stroke-dasharray:4, 2;stroke-dashoffset:0;stroke-opacity:1"
         d="M 1400,840.03963 H 700"
         id="path3064" /><path
         style="font-style:normal;font-weight:400;font-size:35.2778px;font-family:'Source Code Pro';fill:none;stroke:#000000;stroke-width:1;stroke-linecap:round;stroke-linejoin:bevel;stroke-dasharray:4, 2;stroke-dashoffset:0;stroke-opacity:1"
         d="m 750,2129.6893 h 600"
         id="path3062" /><path
         style="font-style:normal;font-weight:400;font-size:35.2778px;font-family:'Source Code Pro';fill:none;stroke:#000000;stroke-width:1;stroke-linecap:round;stroke-linejoin:bevel;stroke-dasharray:4, 2;stroke-dashoffset:0;stroke-opacity:1"
         d="m 700,870.05463 h 700"
         id="path3060" /><path
         style="font-style:normal;font-weight:400;font-size:35.2778px;font-family:'Source Code Pro';fill:none;stroke:#000000;stroke-width:1;stroke-linecap:round;stroke-linejoin:bevel;stroke-dasharray:4, 2;stroke-dashoffset:0;stroke-opacity:1"
         d="m 700,2079.7113 h 700"
         id="path3058" /><path
         style="font-style:normal;font-weight:400;font-size:35.2778px;font-family:'Source Code Pro';fill:none;stroke:#000000;stroke-width:1;stroke-linecap:round;stroke-linejoin:bevel;stroke-dasharray:4, 2;stroke-dashoffset:0;stroke-opacity:1"
         d="m 700,2109.5823 h 700"
         id="path3056" /></g><rect
       style="display:inline;fill:#000000;fill-opacity:1;stroke:none;stroke-width:0.821178;stroke-dasharray:none;stroke-opacity:1"
       id="rect5104"
       width="67.999992"
       height="119"
       x="-5.6843419e-14"
       y="0" /><text
       xml:space="preserve"
       style="font-style:normal;font-variant:normal;font-weight:normal;font-stretch:normal;font-size:4.40972px;line-height:1.25;font-family:Questrial;-inkscape-font-specification:'Questrial, Normal';font-variant-ligatures:normal;font-variant-caps:normal;font-variant-numeric:normal;font-variant-east-asian:normal;letter-spacing:0.185208px;fill:none;fill-opacity:1;stroke:#000000;stroke-width:0.1;stroke-dasharray:none;stroke-opacity:1"
       x="49.350143"
       y="56.459072"
       id="text2625"
       inkscape:label="COLOUR"><tspan
         sodipodi:role="line"
         id="tspan2623"
         style="font-style:normal;font-variant:normal;font-weight:normal;font-stretch:normal;font-size:4.40972px;font-family:Questrial;-inkscape-font-specification:'Questrial, Normal';font-variant-ligatures:normal;font-variant-caps:normal;font-variant-numeric:normal;font-variant-east-asian:normal;fill:none;stroke:#000000;stroke-width:0.1;stroke-dasharray:none;stroke-opacity:1"
         x="49.350143"
         y="56.459072"><tspan
           style="fill:#ff0a0a;fill-opacity:1;stroke:none"
           id="tspan10070">c</tspan><tspan
           style="fill:#ffffff;fill-opacity:1;stroke:none"
           id="tspan10068">olour</tspan></tspan></text><text
       xml:space="preserve"
       style="font-style:normal;font-variant:normal;font-weight:normal;font-stretch:normal;font-size:4.40972px;line-height:1.25;font-family:Questrial;-inkscape-font-specification:'Questrial, Normal';font-variant-ligatures:normal;font-variant-caps:normal;font-variant-numeric:normal;font-variant-east-asian:normal;letter-spacing:0.185208px;fill:none;fill-opacity:1;stroke:#000000;stroke-width:0.1;stroke-dasharray:none;stroke-opacity:1"
       x="7.3058534"
       y="56.459072"
       id="text2625-5"
       inkscape:label="TONE"><tspan
         sodipodi:role="line"
         id="tspan2623-3"
         style="font-style:normal;font-variant:normal;font-weight:normal;font-stretch:normal;font-size:4.40972px;font-family:Questrial;-inkscape-font-specification:'Questrial, Normal';font-variant-ligatures:normal;font-variant-caps:normal;font-variant-numeric:normal;font-variant-east-asian:normal;fill:none;stroke:#000000;stroke-width:0.1;stroke-dasharray:none;stroke-opacity:1"
         x="7.3058534"
         y="56.459072"><tspan
           style="fill:#ff0a0a;fill-opacity:1;stroke:none"
           id="tspan10942">t</tspan><tspan
           style="fill:#ffffff;fill-opacity:1;stroke:none;stroke-opacity:1"
           id="tspan10934">one</tspan></tspan></text><text
       xml:space="preserve"
       style="font-style:normal;font-variant:normal;font-weight:normal;font-stretch:normal;font-size:4.40972px;line-height:1.25;font-family:Questrial;-inkscape-font-specification:'Questrial, Normal';font-variant-ligatures:normal;font-variant-caps:normal;font-variant-numeric:normal;font-variant-east-asian:normal;letter-spacing:0.185208px;fill:none;fill-opacity:1;stroke:#000000;stroke-width:0.1;stroke-dasharray:none;stroke-opacity:1"
       x="4.4218965"
       y="26.459547"
       id="text2625-3-5"
       inkscape:label="VOLUME"><tspan
         sodipodi:role="line"
         id="tspan2623-6-6"
         style="font-style:normal;font-variant:normal;font-weight:normal;font-stretch:normal;font-size:4.40972px;font-family:Questrial;-inkscape-font-specification:'Questrial, Normal';font-variant-ligatures:normal;font-variant-caps:normal;font-variant-numeric:normal;font-variant-east-asian:normal;fill:none;stroke:#000000;stroke-width:0.1;stroke-dasharray:none;stroke-opacity:1"
         x="4.4218965"
         y="26.459547"><tspan
           style="fill:#ff0a0a;fill-opacity:1;stroke:none"
           id="tspan10946">v</tspan><tspan
           style="fill:#ffffff;fill-opacity:1;stroke:none"
           id="tspan10940">olume</tspan></tspan></text><text
       xml:space="preserve"
       style="font-style:normal;font-variant:normal;font-weight:normal;font-stretch:normal;font-size:4.40972px;line-height:1.25;font-family:Questrial;-inkscape-font-specification:'Questrial, Normal';font-variant-ligatures:normal;font-variant-caps:normal;font-variant-numeric:normal;font-variant-east-asian:normal;letter-spacing:0.185208px;fill:none;fill-opacity:1;stroke:#000000;stroke-width:0.1;stroke-dasharray:none;stroke-opacity:1"
       x="30.306858"
       y="56.458279"
       id="text2625-1"
       inkscape:label="CLIP"><tspan
         sodipodi:role="line"
         id="tspan2623-4"
         style="font-style:normal;font-variant:normal;font-weight:normal;font-stretch:normal;font-size:4.40972px;font-family:Questrial;-inkscape-font-specification:'Questrial, Normal';font-variant-ligatures:normal;font-variant-caps:normal;font-variant-numeric:normal;font-variant-east-asian:normal;fill:none;stroke:#000000;stroke-width:0.1;stroke-dasharray:none;stroke-opacity:1"
         x="30.306858"
         y="56.458279"><tspan
           style="fill:#ff0a0a;fill-opacity:1;stroke:none"
           id="tspan10139">c</tspan><tspan
           style="fill:#ffffff;fill-opacity:1;stroke:none;stroke-opacity:1"
           id="tspan10137">lip</tspan></tspan></text><text
       xml:space="preserve"
       style="font-style:normal;font-variant:normal;font-weight:normal;font-stretch:normal;font-size:4.40972px;line-height:1.25;font-family:Questrial;-inkscape-font-specification:'Questrial, Normal';font-variant-ligatures:normal;font-variant-caps:normal;font-variant-numeric:normal;font-variant-east-asian:normal;letter-spacing:0.185208px;fill:none;fill-opacity:1;stroke:#000000;stroke-width:0.1;stroke-dasharray:none;stroke-opacity:1"
       x="51.45673"
       y="26.459547"
       id="text2625-3"
       inkscape:label="GAIN"><tspan
         sodipodi:role="line"
         id="tspan2623-6"
         style="font-style:normal;font-variant:normal;font-weight:normal;font-stretch:normal;font-size:4.40972px;font-family:Questrial;-inkscape-font-specification:'Questrial, Normal';font-variant-ligatures:normal;font-variant-caps:normal;font-variant-numeric:normal;font-variant-east-asian:normal;fill:none;stroke:#000000;stroke-width:0.1;stroke-dasharray:none;stroke-opacity:1"
         x="51.45673"
         y="26.459547"><tspan
           style="fill:#ff0a0a;fill-opacity:1;stroke:none"
           id="tspan10944">g</tspan><tspan
           style="fill:#ffffff;fill-opacity:1;stroke:none"
           id="tspan10938">ain</tspan></tspan></text><path
       id="rect1050"
       style="fill:#2e2e2e;fill-opacity:1;stroke:none;stroke-width:0.1;stroke-dasharray:none"
       d="m 33.823775,47.996037 v 3.408588 h -2.41484 v -0.0047 H 31.0472 v 1.122412 h 0.361735 v -0.765328 h 2.41484 v 0.765328 h 0.351917 v -0.765328 h 2.412256 v 0.765328 h 0.361735 v -1.122412 h -0.361735 v 0.0047 h -2.412256 v -3.408588 z"
       sodipodi:nodetypes="ccccccccccccccccccccc"
       inkscape:label="SELECTOR" /><path
       id="path5455"
       style="display:inline;fill:#ffffff;fill-opacity:1;stroke:none;stroke-width:0.106049;stroke-dasharray:none;stroke-opacity:1"
       d="m 56.824625,58.356532 c -0.148246,3.99e-4 -0.315383,0.0092 -0.465597,0.02621 -0.300435,0.03398 -0.626855,0.120688 -0.72526,0.192642 -0.12383,0.09056 -0.196602,0.302191 -0.236449,0.68763 l -0.05747,0.556956 -0.862673,0.770191 c -0.474469,0.423556 -1.034467,0.885981 -1.244398,1.027607 -0.209937,0.141622 -0.493763,0.257417 -0.630718,0.257417 -0.136959,0 -0.644923,0.195256 -1.12889,0.433957 -0.483966,0.238702 -1.104563,0.47664 -1.379004,0.528687 -0.274436,0.05205 -0.992744,0.30887 -1.596168,0.570621 l -1.097063,0.475894 -0.851066,-0.285312 c -0.46812,-0.156834 -1.01985,-0.312055 -1.226054,-0.345031 -0.206203,-0.03297 -0.474443,-0.03501 -0.596081,-0.0045 -0.121639,0.03053 -0.297963,0.185551 -0.391837,0.344468 -0.09386,0.158919 -0.212202,0.645934 -0.262845,1.082276 -0.06244,0.538109 -0.05855,1.025773 0.01197,1.515668 0.0595,0.413307 0.180122,0.823325 0.282128,0.958525 0.143602,0.190332 0.258664,0.23458 0.591215,0.227464 0.22705,-0.0049 0.558572,-0.08438 0.736868,-0.176729 l 0.324253,-0.16793 -0.0644,0.256668 c -0.03547,0.141232 -0.038,0.340482 -0.0054,0.442567 0.03242,0.102105 0.297676,0.306224 0.589532,0.453805 0.291858,0.147579 0.798042,0.502505 1.124769,0.788722 0.326727,0.28622 0.776086,0.742412 0.99859,1.013755 0.222499,0.271345 0.534963,0.754478 0.694369,1.073473 0.159407,0.318999 0.323799,0.794412 0.36525,1.056626 0.04146,0.262215 0.05531,0.613084 0.0309,0.779549 -0.02445,0.166469 -0.105382,0.325989 -0.179912,0.354583 -0.07453,0.0286 -0.359594,-0.0642 -0.633525,-0.206309 -0.273986,-0.142141 -0.812511,-0.499337 -1.196715,-0.79361 -0.384201,-0.294277 -0.94564,-0.749471 -1.247582,-1.011696 -0.301942,-0.262224 -0.893975,-0.800367 -1.315725,-1.195722 -0.421752,-0.395355 -1.633916,-1.575838 -2.693608,-2.623404 -1.650656,-1.631766 -1.968222,-1.904694 -2.216778,-1.904694 -0.159566,0 -0.336317,0.05571 -0.392772,0.123747 -0.05962,0.07183 -0.0946,0.483643 -0.08351,0.982489 0.01738,0.778697 0.04709,0.903444 0.318823,1.338005 0.164828,0.263594 0.644755,0.889033 1.066547,1.38986 0.421791,0.500831 1.255609,1.401864 1.852836,2.002234 0.59723,0.60037 1.56217,1.445173 2.144328,1.877363 0.582159,0.432191 1.273891,0.976138 1.5372,1.208829 0.263309,0.232693 0.733446,0.660336 1.044828,0.950288 0.311385,0.289956 0.807698,0.765411 1.102868,1.056624 0.295166,0.291214 0.747389,0.764687 1.004953,1.052132 0.257561,0.28745 0.568292,0.674662 0.69044,0.860427 0.122141,0.185765 0.444501,0.963169 0.716459,1.727594 0.271959,0.764427 0.487673,1.497696 0.479451,1.629493 -0.0082,0.131797 -0.01842,0.627832 -0.02284,1.102305 -0.0052,0.572006 0.04352,1.000837 0.144904,1.272852 l 0.152765,0.410372 -0.500044,-0.0644 c -0.32609,-0.04199 -0.842083,-0.243132 -1.483844,-0.578111 -0.645604,-0.336972 -1.100013,-0.51352 -1.321155,-0.51352 -0.18538,0 -0.491816,-0.06469 -0.681078,-0.143779 -0.189261,-0.07907 -0.48028,-0.143781 -0.64663,-0.143781 -0.166347,0 -0.409008,0.07341 -0.539359,0.163252 -0.130347,0.08984 -0.291077,0.230021 -0.3572,0.311519 -0.06612,0.0815 -0.292571,0.401147 -0.503226,0.710286 -0.290847,0.426833 -0.383036,0.655403 -0.383036,0.949539 0,0.325264 0.05951,0.443934 0.372179,0.741356 0.204773,0.194793 0.577693,0.468957 0.8286,0.609188 0.250905,0.140233 0.704211,0.319267 1.00739,0.397829 0.366378,0.09494 1.021792,0.142841 1.954306,0.142841 1.151849,0 1.505453,0.0344 1.975087,0.192641 0.314619,0.106001 0.841491,0.356247 1.171011,0.556021 0.329522,0.19977 0.750237,0.431237 0.93475,0.514458 0.184513,0.08323 0.400185,0.17469 0.479262,0.203314 0.07907,0.02859 0.255669,0.05556 0.392396,0.05971 0.136724,0.0042 0.498594,-0.07856 0.804077,-0.183652 0.305483,-0.105096 0.924086,-0.260225 1.374697,-0.344662 0.450616,-0.08445 0.929764,-0.195375 1.064864,-0.246742 0.135104,-0.05137 0.324655,-0.164768 0.421039,-0.251989 0.09638,-0.08723 0.333712,-0.166996 0.527376,-0.177104 0.193669,-0.01015 0.804861,-0.04898 1.358413,-0.08649 0.553551,-0.0375 1.124461,-0.12817 1.268549,-0.201441 0.144084,-0.07326 0.331548,-0.267917 0.416734,-0.432647 0.123954,-0.239858 0.148309,-0.530813 0.1215,-1.460252 -0.03282,-1.138167 -0.04053,-1.173301 -0.399512,-1.822888 -0.201343,-0.364319 -0.67507,-1.097587 -1.052693,-1.629494 -0.377621,-0.531898 -0.741358,-1.024211 -0.808195,-1.093877 -0.06683,-0.06967 -0.1215,-0.142564 -0.1215,-0.162127 0,-0.01959 0.09302,-0.193203 0.206682,-0.385844 0.118075,-0.200121 0.243648,-0.644281 0.292987,-1.036032 0.04749,-0.3771 0.09177,-0.814972 0.09829,-0.973128 0.0067,-0.158159 -0.06698,-0.484288 -0.163251,-0.724697 l -0.174914,-0.43715 0.716838,-0.952724 c 0.394322,-0.524013 1.104992,-1.513457 1.579131,-2.198805 0.474138,-0.685347 1.111611,-1.612719 1.416637,-2.06083 0.305026,-0.448112 0.77612,-1.02329 1.046886,-1.278098 0.270769,-0.254811 0.742752,-0.683887 1.048949,-0.953659 0.47784,-0.421004 0.548272,-0.525237 0.496487,-0.734993 -0.0332,-0.134408 -0.175921,-0.366389 -0.317138,-0.515583 -0.141217,-0.149196 -0.546742,-0.486798 -0.901236,-0.750161 -0.469173,-0.348552 -0.697342,-0.462102 -0.838525,-0.417294 -0.108285,0.03437 -0.217406,0.175241 -0.246933,0.318824 -0.02908,0.141463 -0.103241,0.429763 -0.164934,0.640637 -0.06423,0.219562 -0.309236,0.593402 -0.573241,0.874843 -0.283288,0.302001 -0.524675,0.678419 -0.626038,0.97631 -0.09858,0.289702 -0.820674,1.430948 -1.794425,2.83589 -0.896226,1.293075 -1.651048,2.351012 -1.677423,2.351009 -0.02634,-3e-6 -0.320857,-0.418963 -0.654493,-0.931004 l -0.606566,-0.931006 0.05747,-0.814748 c 0.03161,-0.448111 0.117326,-1.051983 0.190395,-1.341936 0.07306,-0.289956 0.191217,-0.688679 0.262658,-0.886075 0.07144,-0.197396 0.673356,-1.038502 1.337631,-1.869125 0.66428,-0.830623 1.395572,-1.787835 1.625,-2.127104 0.361083,-0.533952 0.422388,-0.698526 0.45586,-1.224366 0.0284,-0.44625 -0.01676,-0.778609 -0.170173,-1.252262 -0.114865,-0.354635 -0.32674,-0.817294 -0.47065,-1.02817 -0.170416,-0.249708 -0.346595,-0.393479 -0.505471,-0.41224 -0.139238,-0.01646 -0.300039,0.03875 -0.374616,0.128616 -0.0877,0.105691 -0.14839,0.556363 -0.184402,1.370952 l -0.05355,1.213509 -0.742855,0.933251 c -0.40858,0.51322 -0.950357,1.138403 -1.203962,1.389489 -0.253606,0.251089 -0.612202,0.672279 -0.796775,0.935873 -0.184574,0.263595 -0.510896,0.7812 -0.725258,1.150232 -0.214369,0.369032 -0.498083,0.865068 -0.630532,1.102304 -0.132445,0.237234 -0.302421,0.443777 -0.377606,0.459044 -0.07518,0.01526 -0.338375,-0.05872 -0.584851,-0.164369 l -0.448185,-0.192082 0.0042,-0.506593 c 0.0023,-0.278649 0.05629,-0.729641 0.120004,-1.002149 0.109919,-0.470072 0.164921,-0.534235 1.074223,-1.254319 0.527131,-0.417442 1.007367,-0.820026 1.067107,-0.894499 0.05973,-0.07447 0.156793,-0.363893 0.215671,-0.643261 0.05887,-0.27937 0.106807,-0.646006 0.106531,-0.814746 -2.88e-4,-0.168743 -0.04604,-0.470688 -0.101652,-0.670969 -0.0641,-0.230806 -0.18526,-0.402464 -0.330803,-0.46878 l -0.229711,-0.104643 0.233081,-0.183283 c 0.226612,-0.178264 0.232562,-0.215977 0.211548,-1.357662 -0.02157,-1.17007 -0.02074,-1.175527 0.256667,-1.504624 0.153122,-0.181653 0.401137,-0.589044 0.551153,-0.905354 0.150015,-0.316317 0.299196,-0.715088 0.331367,-0.886078 0.03203,-0.17099 0.0326,-0.413513 0.0011,-0.538984 -0.03282,-0.130758 -0.170408,-0.270939 -0.322193,-0.328369 -0.145652,-0.05511 -0.386953,-0.126932 -0.536363,-0.159691 -0.07471,-0.01638 -0.20409,-0.02438 -0.35233,-0.02397 z m -0.665539,1.841979 c 0.07931,0.0033 0.178522,0.02658 0.324812,0.06573 l 0.424784,0.113644 -0.265278,0.341289 c -0.145909,0.187693 -0.296948,0.427554 -0.335671,0.53299 -0.03874,0.105415 -0.06823,0.666176 -0.06535,1.246085 l 0.0051,1.054377 -0.585038,0.335485 c -0.321803,0.184516 -0.655529,0.379413 -0.741546,0.433208 -0.08602,0.05378 -0.335226,0.213308 -0.553772,0.354393 -0.218544,0.141083 -0.647445,0.460202 -0.953099,0.709158 -0.305653,0.248959 -0.654645,0.563916 -0.775618,0.699986 -0.12098,0.136072 -0.269986,0.407923 -0.331177,0.603947 -0.08724,0.279401 -0.08504,0.388127 0.01048,0.503226 0.06701,0.08076 0.198125,0.146774 0.291302,0.146774 0.09316,0 0.721168,-0.517083 1.395479,-1.149107 0.865387,-0.811115 1.315065,-1.165892 1.528961,-1.20602 0.166669,-0.03127 0.428549,-0.04258 0.581855,-0.02508 0.22822,0.02604 0.284507,0.08293 0.310771,0.313768 0.01767,0.155055 0.0033,0.473137 -0.03164,0.706913 -0.03679,0.24533 -0.15252,0.511122 -0.273704,0.628656 -0.115474,0.111997 -0.381604,0.339618 -0.591403,0.50566 -0.209797,0.166042 -0.599061,0.472725 -0.865105,0.681641 -0.415942,0.326621 -0.500995,0.452313 -0.607129,0.89637 -0.06788,0.284027 -0.147499,0.873024 -0.176917,1.308986 l -0.05355,0.792656 0.373113,0.357576 c 0.319031,0.305774 0.405145,0.482538 0.594772,1.220248 0.121962,0.474471 0.30526,1.14777 0.407375,1.496199 0.155107,0.52926 0.303388,0.767806 0.901051,1.449584 l 0.715524,0.816056 -0.469153,0.291679 c -0.258036,0.160401 -0.531096,0.413894 -0.606756,0.563319 -0.07564,0.14943 -0.1912,0.500088 -0.256853,0.779364 -0.09144,0.389014 -0.224702,0.61595 -0.569685,0.970134 -0.281427,0.288926 -0.725804,0.594783 -1.184681,0.815495 -0.509296,0.244961 -0.849347,0.487741 -1.109979,0.792656 -0.341282,0.399265 -0.384286,0.422989 -0.469714,0.258351 -0.05177,-0.09969 -0.211481,-0.54786 -0.354981,-0.995966 -0.143498,-0.448112 -0.365686,-1.036354 -0.493677,-1.307303 -0.127991,-0.270949 -0.57166,-0.87482 -0.986044,-1.341935 C 49.902593,76.491579 49.070103,75.65641 48.467141,75.102864 47.864195,74.549303 47.243998,73.988565 47.088908,73.856768 46.933818,73.72497 46.591716,73.442226 46.328641,73.228484 46.065566,73.014745 45.569947,72.641216 45.227272,72.398387 44.884601,72.155558 44.078858,71.424662 43.436777,70.774135 42.79469,70.123605 41.982119,69.250226 41.631115,68.833309 41.280111,68.41639 40.881541,67.8989 40.745414,67.683264 40.581416,67.42347 40.492308,67.138095 40.481258,66.837438 l -0.01667,-0.4538 2.406611,2.370665 c 1.323657,1.303858 2.794253,2.697881 3.267975,3.0978 0.473719,0.399918 1.141732,0.934242 1.484403,1.187298 0.342673,0.253053 0.838713,0.561641 1.102306,0.685758 0.263595,0.124116 0.636181,0.226164 0.828038,0.226526 0.199779,5.8e-4 0.443941,-0.07598 0.571371,-0.179162 0.185787,-0.150441 0.228712,-0.291163 0.260412,-0.852189 0.02088,-0.369542 -0.01104,-0.900196 -0.07076,-1.179248 -0.05983,-0.279055 -0.239981,-0.765363 -0.400259,-1.080776 -0.160286,-0.315413 -0.48512,-0.825308 -0.721889,-1.133008 -0.236772,-0.307703 -0.729274,-0.810837 -1.094443,-1.118217 -0.365173,-0.30738 -0.83667,-0.641593 -1.04764,-0.74267 -0.210964,-0.101078 -0.383808,-0.206246 -0.384534,-0.23364 -5.78e-4,-0.02741 0.19241,-0.307767 0.429092,-0.623044 0.236683,-0.315275 0.430611,-0.661741 0.431336,-0.769814 5.8e-4,-0.108076 -0.05075,-0.24826 -0.114009,-0.311521 -0.06324,-0.06325 -0.172104,-0.114948 -0.242064,-0.114948 -0.06995,0 -0.520804,0.237235 -1.001773,0.527189 -0.48097,0.289954 -0.973302,0.52719 -1.094067,0.52719 -0.120761,0 -0.247675,-0.04558 -0.282128,-0.101277 -0.03445,-0.05572 -0.03704,-0.203191 -0.006,-0.327622 0.03124,-0.124429 0.203937,-0.365039 0.383786,-0.534679 0.17985,-0.169636 0.638024,-0.494554 1.018247,-0.722075 0.506355,-0.303003 0.758654,-0.400197 0.943173,-0.363379 0.175213,0.03494 0.583492,-0.09939 1.341,-0.441259 0.599015,-0.270344 1.108566,-0.472243 1.132258,-0.448563 0.02369,0.0237 -0.08909,0.193591 -0.25049,0.377421 -0.161406,0.183834 -0.293359,0.420303 -0.293359,0.525504 0,0.105206 0.05922,0.240393 0.131607,0.300477 0.07241,0.06008 0.191014,0.08338 0.263596,0.05184 0.07259,-0.03151 0.380004,-0.351465 0.683137,-0.711031 0.303133,-0.359565 0.55291,-0.69044 0.555085,-0.73518 0.0023,-0.04473 0.387157,-0.269564 0.855372,-0.499671 0.46821,-0.230109 1.055625,-0.456404 1.305242,-0.503038 0.284503,-0.05314 0.635921,-0.222786 0.941864,-0.454365 0.268427,-0.203182 0.771892,-0.6237 1.118778,-0.934562 0.346885,-0.310859 0.74593,-0.662108 0.886824,-0.780487 0.147045,-0.12355 0.223886,-0.173039 0.356079,-0.167368 z m 4.607099,3.162386 0.181036,0.431338 c 0.10163,0.242206 0.183377,0.669917 0.186275,0.975561 0.0051,0.529544 -0.01365,0.569863 -0.695867,1.485717 -0.385683,0.517772 -1.113947,1.451141 -1.618259,2.074123 -0.758799,0.937352 -0.950686,1.243169 -1.113352,1.773272 -0.108109,0.352318 -0.249719,0.899442 -0.314703,1.215754 -0.06499,0.316315 -0.121913,0.944242 -0.126368,1.395294 l -0.0081,0.819988 0.534863,0.809503 c 0.294221,0.44517 0.613445,0.944678 0.709347,1.11017 0.171153,0.295341 0.170461,0.307273 -0.0395,0.647003 -0.117647,0.190366 -0.24276,0.346367 -0.278009,0.347092 -0.03523,5.79e-4 -0.468054,-0.419993 -0.961709,-0.934562 -0.49365,-0.51457 -0.994384,-1.064896 -1.112786,-1.223056 -0.121123,-0.161784 -0.324465,-0.730834 -0.46485,-1.300938 -0.137234,-0.557322 -0.276492,-1.083589 -0.309462,-1.169512 -0.05041,-0.131429 -0.0073,-0.147667 0.271647,-0.102403 0.273568,0.04439 0.35979,0.01424 0.493117,-0.172424 0.08886,-0.124405 0.493378,-0.804156 0.898991,-1.510613 0.533621,-0.929412 0.949918,-1.512316 1.505746,-2.108756 0.422491,-0.45336 1.05692,-1.194896 1.409894,-1.647842 0.429354,-0.550957 0.67395,-0.963394 0.739113,-1.246083 0.05357,-0.2324 0.100979,-0.702907 0.105206,-1.045579 z M 45.11376,63.917294 c 0.07236,0.0049 0.169644,0.0264 0.310397,0.0625 0.23442,0.06014 0.489219,0.130927 0.56613,0.157258 0.08979,0.03072 -0.06921,0.179951 -0.443692,0.416734 -0.320861,0.202875 -0.612755,0.416435 -0.648691,0.474581 -0.03592,0.05815 -0.111347,0.105791 -0.167554,0.105791 -0.06333,0 -0.07925,-0.113907 -0.04211,-0.299537 0.03295,-0.164747 0.05992,-0.372147 0.05992,-0.460918 0,-0.08876 0.05616,-0.238323 0.12487,-0.332302 0.06878,-0.09406 0.120176,-0.132256 0.240757,-0.124122 z m 19.43823,4.087775 0.450247,0.350648 c 0.247547,0.19286 0.450056,0.378075 0.450056,0.411491 0,0.03341 -0.378848,0.409997 -0.841893,0.837025 -0.511561,0.471777 -1.068664,1.110484 -1.419627,1.627811 -0.317679,0.468262 -0.873157,1.282777 -1.234479,1.809965 -0.361321,0.527189 -1.078715,1.519265 -1.594298,2.20461 -0.515588,0.685346 -1.022356,1.343135 -1.126081,1.461752 -0.103727,0.118622 -0.235535,0.215668 -0.292986,0.215668 -0.05745,0 -0.104466,-0.04814 -0.104466,-0.107083 0,-0.05892 0.229266,-0.414779 0.50959,-0.790785 0.28032,-0.376013 0.8003,-1.115039 1.155474,-1.642225 0.355176,-0.52719 0.949046,-1.389863 1.319657,-1.917049 0.37061,-0.527191 0.842707,-1.213163 1.049137,-1.524471 0.206432,-0.311307 0.37536,-0.668863 0.37536,-0.794527 0,-0.143934 0.177835,-0.413391 0.480574,-0.728067 0.272422,-0.283169 0.554745,-0.697782 0.65206,-0.957218 z m -7.305951,8.793539 c 0.07861,6.89e-4 0.153332,0.02727 0.255543,0.08012 0.13667,0.07067 0.291076,0.209024 0.37274,0.278197 0.788301,0.425733 0.812253,0.338741 1.361407,0.819428 0.202936,0.03036 0.177851,0.497354 0.177851,0.589343 0,0.09199 -0.137874,0.525841 -0.306279,0.964143 -0.201724,0.525013 -0.441472,0.944968 -0.702795,1.230919 -0.218159,0.23872 -0.476165,0.642442 -0.57343,0.89712 -0.15464,0.404913 -0.161443,0.512959 -0.05374,0.860051 0.06773,0.218308 0.144736,0.609002 0.17111,0.868292 0.02637,0.259287 -5.79e-4,0.633486 -0.05992,0.831409 -0.06935,0.231439 -0.286767,0.521404 -0.609377,0.812687 -0.275883,0.249098 -0.674076,0.531783 -0.88495,0.628282 -0.210876,0.09651 -0.491246,0.171708 -0.623043,0.16718 -0.131799,-0.0045 -0.555699,-0.06595 -0.941865,-0.136476 -0.391582,-0.07151 -0.918895,-0.250636 -1.192353,-0.405127 -0.463987,-0.262139 -0.497344,-0.30752 -0.620794,-0.843953 -0.07175,-0.311788 -0.167851,-0.998213 -0.21361,-1.525405 -0.04575,-0.52719 -0.108958,-1.06636 -0.140409,-1.198156 -0.04276,-0.179318 0.02615,-0.351807 0.273704,-0.685196 0.252754,-0.34039 0.537092,-0.554278 1.205083,-0.90648 0.537451,-0.283377 1.032165,-0.629852 1.28409,-0.899181 0.2254,-0.240972 0.478693,-0.630855 0.562945,-0.866604 0.08425,-0.235747 0.178281,-0.546172 0.208929,-0.68969 0.03066,-0.143519 0.152355,-0.353319 0.270332,-0.466346 0.117982,-0.113026 0.34311,-0.261283 0.500233,-0.329306 0.117504,-0.05087 0.199957,-0.07597 0.27857,-0.07525 z m -0.778043,4.478138 c -0.301046,-0.09118 -0.332096,-0.101927 -0.481145,-0.143057 -0.197695,-0.04588 -0.498827,-0.08467 -0.669097,-0.08574 -0.273795,-0.0021 -0.342908,0.05592 -0.598143,0.500979 -0.218444,0.380897 -0.288891,0.624099 -0.289617,1.000274 -4.72e-4,0.273343 0.04128,0.607466 0.09267,0.742671 0.0514,0.135206 0.234723,0.334524 0.407373,0.442754 0.226518,0.141991 0.417344,0.184092 0.685572,0.151269 0.262793,-0.03216 0.483811,-0.153018 0.754089,-0.412429 0.210265,-0.201803 0.441889,-0.505817 0.514835,-0.675461 0.07294,-0.169642 0.132732,-0.454989 0.132732,-0.634087 0,-0.184406 -0.08689,-0.434734 -0.199006,-0.578297 -0.150319,-0.192492 -0.09606,-0.144317 -0.350263,-0.308873 z m 2.699212,-0.228988 c 0.0564,0.0011 0.246051,0.206072 0.421417,0.4553 0.175361,0.249233 0.567133,0.804011 0.87072,1.232795 0.303589,0.42878 0.645391,0.978373 0.759521,1.221182 0.168923,0.359365 0.207205,0.615346 0.206118,1.376944 -7.23e-4,0.514582 -0.04058,0.997419 -0.08837,1.072913 -0.06111,0.09658 -0.380295,0.157201 -1.076842,0.204623 -0.544506,0.03707 -1.059207,0.0963 -1.143866,0.131422 -0.13206,0.05479 -0.161145,-0.0501 -0.204059,-0.737991 -0.02793,-0.447791 -0.116913,-0.931358 -0.201627,-1.09519 -0.11927,-0.230629 -0.139533,-0.467408 -0.09437,-1.107543 0.04571,-0.647775 0.0254,-0.8785 -0.09959,-1.129079 -0.08642,-0.173226 -0.157069,-0.375147 -0.157069,-0.448749 0,-0.0736 0.06692,-0.263396 0.148831,-0.421787 0.08192,-0.158391 0.240776,-0.393563 0.352897,-0.522508 0.112114,-0.128946 0.249887,-0.233418 0.306277,-0.232332 z m -3.648949,0.738553 c 0.02034,-4.73e-4 0.042,7.6e-4 0.06515,0.0031 0.129605,0.01366 0.354316,0.07278 0.499293,0.131425 0.18193,0.0736 0.263596,0.176038 0.263596,0.330617 0,0.128714 -0.156802,0.388579 -0.368623,0.611245 -0.202711,0.213097 -0.41176,0.387529 -0.464471,0.387529 -0.05271,0 -0.168974,-0.08092 -0.25854,-0.17991 -0.08957,-0.09897 -0.179969,-0.282287 -0.20069,-0.40737 -0.02072,-0.125084 0.03692,-0.378428 0.12805,-0.56295 0.114008,-0.23081 0.193909,-0.310532 0.336236,-0.313768 z m -2.025076,1.194412 c -0.09733,0.01844 -0.178385,0.135751 -0.195447,0.282503 -0.02478,0.21299 0.08372,0.338437 0.718892,0.831598 0.411444,0.319458 0.842462,0.583834 0.957967,0.587096 0.115507,0.0031 0.238313,-0.03938 0.272767,-0.09512 0.0344,-0.05572 0.0363,-0.195904 0.0043,-0.311524 -0.03201,-0.115628 -0.40321,-0.46128 -0.825042,-0.768129 -0.421829,-0.306853 -0.841945,-0.543797 -0.93344,-0.526445 z m -6.118649,0.767571 c 0.09196,-0.0022 0.220849,0.02555 0.327059,0.07432 0.141616,0.06506 0.506595,0.15384 0.811004,0.197321 0.367127,0.05245 0.779987,0.209625 1.226236,0.466907 0.370009,0.213325 0.894293,0.453851 1.165208,0.534306 0.270923,0.08047 0.694529,0.146211 0.941302,0.146211 0.357776,0 0.524176,0.06026 0.821302,0.297294 0.204943,0.163476 0.566836,0.395304 0.804075,0.515207 0.237233,0.119908 0.74177,0.288024 1.121214,0.373674 0.379438,0.08566 0.900896,0.155762 1.158841,0.155762 0.331249,0 0.635382,-0.08452 1.035469,-0.287557 0.311553,-0.158105 0.735771,-0.440964 0.942801,-0.628662 0.331252,-0.300316 0.387197,-0.321903 0.466346,-0.180473 0.04946,0.0884 0.09005,0.37904 0.09005,0.645884 0,0.320454 -0.04871,0.520711 -0.143592,0.590094 -0.07901,0.05777 -0.159864,0.190361 -0.179537,0.294484 -0.02749,0.145357 -0.169233,0.218028 -0.610311,0.313019 -0.315953,0.06804 -0.919436,0.215234 -1.341185,0.327247 -0.421754,0.111998 -0.96092,0.220551 -1.198156,0.24113 -0.379967,0.03296 -0.534085,-0.02211 -1.294011,-0.462977 -0.47447,-0.275278 -1.078337,-0.586056 -1.341933,-0.690631 -0.38795,-0.153904 -0.826257,-0.203616 -2.300463,-0.260786 -1.286304,-0.04989 -1.943897,-0.115854 -2.238868,-0.224655 -0.229699,-0.08472 -0.628683,-0.309005 -0.88664,-0.498357 -0.261022,-0.191609 -0.468963,-0.420986 -0.468963,-0.517267 0,-0.09516 0.195364,-0.438526 0.434144,-0.762888 0.238781,-0.324365 0.500213,-0.615025 0.581107,-0.646072 0.02023,-0.0077 0.04685,-0.01176 0.07751,-0.01253 z"
       sodipodi:nodetypes="ssscccsssssccsssssssccccssssscsssssssscsssssssssssscccssssssssssssssscsssssssscsssssssscccssssssssssssssccsssssssssscccssssscccssssssscccsscsssssscccccccsssscsssssccsssscccsscccsssssssssssssssscccssscssssssscscsssssssssssssssscssssssscccsssscccsscsssssssssscccsssssssssccssssssssssssssccccccsssssscsscsssscssssssscccsscsssssssccssscsssssssssscccsscsssscsssccssssssssssssssssssscssssssssssssssssss"
       inkscape:label="graphic" /><path
       style="display:inline;fill:#ffffff;fill-opacity:1;stroke:none;stroke-width:0.107178;stroke-dasharray:none;stroke-opacity:1"
       d="m 19.510045,83.027845 c -0.174813,0.114472 -0.220664,0.112871 -0.323782,-0.01141 -0.08116,-0.09777 -0.09926,-0.29653 -0.05577,-0.612656 0.06009,-0.436961 0.04793,-0.475395 -0.183956,-0.581052 -0.187669,-0.08548 -0.248306,-0.185228 -0.248306,-0.408375 0,-0.174324 0.05991,-0.318229 0.146296,-0.351378 0.08047,-0.03088 0.210508,-0.0029 0.288989,0.06227 0.11364,0.09431 0.150652,0.0916 0.181794,-0.01334 0.02149,-0.07248 0.127183,-0.458181 0.234828,-0.85711 0.107653,-0.398933 0.193661,-0.790609 0.191134,-0.870395 -0.0026,-0.0798 0.196962,-0.740141 0.443292,-1.467454 0.246332,-0.727315 0.447879,-1.385577 0.447879,-1.462804 0,-0.07721 0.111033,-0.391485 0.246749,-0.69836 0.135713,-0.306867 0.226496,-0.610731 0.201734,-0.675254 -0.02476,-0.06452 -0.180431,-0.144395 -0.345938,-0.177497 -0.165497,-0.03311 -0.408107,-0.167379 -0.539129,-0.298396 -0.18704,-0.187043 -0.220624,-0.286139 -0.156337,-0.461301 0.05362,-0.146094 0.175268,-0.234145 0.352494,-0.25514 0.14884,-0.01763 0.448785,0.04077 0.666542,0.1298 0.217757,0.08901 0.534725,0.228556 0.704366,0.310082 0.169646,0.08151 0.853601,0.502101 1.519899,0.934616 0.89374,0.580154 1.351149,0.951087 1.744133,1.414407 0.409664,0.482988 0.554376,0.739694 0.626598,1.111576 0.05166,0.26595 0.12082,0.788188 0.153702,1.160525 0.05599,0.634022 0.03946,0.71686 -0.260639,1.305595 -0.319676,0.627145 -0.32281,0.629818 -1.33962,1.141092 -0.739184,0.371679 -1.164305,0.52524 -1.547366,0.558929 -0.2905,0.02555 -0.600326,0.06857 -0.688506,0.09563 -0.08818,0.02705 -0.574963,0.05173 -1.081735,0.05485 l -0.921407,0.0056 -0.127147,0.391753 c -0.06993,0.215463 -0.218788,0.451764 -0.330794,0.525117 z m 2.133363,-1.734958 c 0.476244,-0.04076 1.041998,-0.121509 1.257237,-0.179447 0.215238,-0.05794 0.703572,-0.253495 1.085184,-0.434568 0.51815,-0.245853 0.750793,-0.420813 0.918748,-0.690946 0.187459,-0.301488 0.221753,-0.476923 0.20594,-1.053518 -0.01036,-0.380484 -0.08079,-0.837442 -0.156352,-1.015457 -0.07556,-0.17802 -0.28288,-0.47599 -0.460713,-0.662159 -0.177832,-0.186166 -0.461999,-0.425524 -0.631479,-0.531909 -0.169485,-0.10638 -0.626226,-0.42337 -1.014984,-0.704423 -0.388756,-0.281052 -0.767294,-0.498649 -0.841197,-0.483554 -0.07391,0.01511 -0.288395,0.44089 -0.476647,0.946203 -0.188255,0.505311 -0.420689,1.092829 -0.516528,1.305591 -0.09583,0.212764 -0.202397,0.560919 -0.236808,0.773687 -0.0344,0.21276 -0.186519,0.778517 -0.338016,1.257234 -0.151497,0.478718 -0.303082,1.009039 -0.336848,1.17849 -0.05973,0.299728 -0.05137,0.308919 0.307587,0.338489 0.202938,0.01671 0.758633,-0.0029 1.234876,-0.04372 z M 2.7220427,83.059426 c -0.099965,0 -0.195118,-0.09698 -0.229477,-0.233863 -0.032276,-0.12863 -0.00739,-0.487668 0.055269,-0.797865 0.062685,-0.310196 0.2376757,-1.069966 0.3888767,-1.688378 0.1511972,-0.618406 0.4942928,-1.673298 0.7624312,-2.344199 0.2681383,-0.670903 0.5720539,-1.385509 0.6753645,-1.588013 0.1033082,-0.202505 0.2180736,-0.529369 0.2550308,-0.726359 0.046524,-0.248002 0.1182901,-0.358166 0.2333182,-0.358166 0.104575,0 0.2496354,-0.178293 0.3915004,-0.481183 0.1239551,-0.264649 0.3198759,-0.569964 0.4353825,-0.678476 0.2081672,-0.195565 0.2115038,-0.195638 0.3809194,-0.0083 0.1454178,0.160684 0.1544472,0.23876 0.06053,0.523339 -0.060706,0.183966 -0.2803865,0.577163 -0.4881625,0.873775 -0.2077758,0.296614 -0.3356646,0.56532 -0.2841915,0.597132 0.051473,0.0318 0.2342279,-0.02691 0.4061288,-0.130475 0.171901,-0.103568 0.5484072,-0.264901 0.8366841,-0.358506 0.2882741,-0.09361 0.7957583,-0.172789 1.1277383,-0.175958 0.3654789,-0.0035 0.6642262,0.04455 0.757276,0.121773 0.08572,0.07115 0.1536756,0.274097 0.1536756,0.458987 0,0.182295 -0.063054,0.453382 -0.1401262,0.602421 -0.077059,0.149034 -0.2930665,0.397113 -0.479997,0.551282 -0.186926,0.154168 -0.4670469,0.377411 -0.6224801,0.496091 -0.155438,0.118681 -0.3992285,0.26012 -0.5417591,0.314312 -0.1425307,0.05418 -0.3868735,0.09853 -0.5429834,0.09853 -0.156111,0 -0.2838367,0.02375 -0.2838367,0.05278 0,0.02902 0.1502639,0.583894 0.3339204,1.233059 0.1836586,0.649167 0.3634646,1.354379 0.3995711,1.567142 0.036111,0.212761 0.1064706,0.415229 0.1563557,0.511729 0.071296,0.137906 0.1565221,0.161472 0.3982919,0.110131 0.1691701,-0.03594 0.2628999,-0.172452 0.3322577,-0.263647 0.071901,-0.09454 0.2573733,-0.363717 0.4100518,-0.624572 C 8.2141007,80.45001 8.7048217,80.042246 9.0300246,79.7231 l 0.5912827,-0.580262 -0.06627,0.386841 c -0.03644,0.212763 -0.2245367,0.623425 -0.4179537,0.91258 -0.193421,0.289151 -0.6127895,0.807109 -0.9319315,1.151017 -0.3191468,0.343902 -0.7226981,0.684955 -0.896781,0.757897 -0.2300404,0.09638 -0.3681556,0.104973 -0.5055137,0.03147 C 6.6989055,82.326901 6.5665904,82.193065 6.5088206,82.085119 6.4510452,81.977174 6.3458786,81.619136 6.2751037,81.289476 6.2043365,80.959814 5.9908889,80.167852 5.8007938,79.529564 5.6106942,78.891274 5.408554,78.184077 5.3515874,77.958017 5.2910243,77.717672 5.1913728,77.546995 5.1116047,77.546995 c -0.075031,0 -0.2480343,0.146341 -0.3844568,0.325198 -0.1364235,0.17886 -0.3195335,0.537898 -0.4069193,0.797866 -0.087384,0.259962 -0.2363305,0.572936 -0.3309997,0.695492 -0.094659,0.122559 -0.2608504,0.492476 -0.3692928,0.822039 -0.1084404,0.329565 -0.2684381,0.88209 -0.3555485,1.227831 -0.087109,0.345737 -0.2063439,0.857092 -0.2649695,1.136347 -0.079901,0.380579 -0.1493626,0.50773 -0.2773715,0.50773 z m 3.6382812,-5.706282 c 0.1104014,-2.02e-4 0.3530592,-0.09277 0.5392259,-0.205671 0.1861678,-0.112919 0.5016878,-0.334013 0.7011517,-0.491317 0.1994648,-0.157308 0.3626658,-0.318622 0.3626658,-0.358478 0,-0.03985 -0.076166,-0.07579 -0.1692442,-0.07987 -0.093083,-0.0041 -0.4956402,0.07825 -0.8945733,0.182948 -0.398932,0.104696 -0.8273626,0.256782 -0.9520655,0.337982 l -0.2267362,0.147639 0.2194182,0.233561 c 0.1206753,0.128456 0.3097489,0.233395 0.4201576,0.233199 z m 34.2912081,5.70332 c -0.07979,0 -0.200261,-0.03506 -0.267722,-0.07785 -0.06746,-0.0428 -0.161958,-0.214891 -0.209994,-0.382393 -0.0573,-0.199754 -0.04244,-0.596734 0.04317,-1.153728 0.07178,-0.46705 0.180096,-1.066786 0.240698,-1.332737 0.06061,-0.265953 0.192567,-0.78819 0.293252,-1.160528 0.100697,-0.372336 0.2072,-1.098014 0.236695,-1.61262 l 0.05362,-0.935647 -0.554614,-0.161229 c -0.305036,-0.08869 -0.719124,-0.24516 -0.920188,-0.347735 -0.261512,-0.133413 -0.365575,-0.24926 -0.365575,-0.406972 0,-0.121257 0.05018,-0.270657 0.111534,-0.331994 0.07479,-0.07479 0.168259,-0.08117 0.283751,-0.01933 0.09473,0.0507 0.482577,0.157455 0.861904,0.237248 0.379319,0.07981 0.770352,0.14508 0.868959,0.14508 0.139306,0 0.226742,-0.159884 0.392162,-0.717093 0.157236,-0.529654 0.263108,-0.73023 0.405038,-0.767348 0.105687,-0.02763 0.297399,-0.01026 0.42603,0.03867 0.128632,0.04891 0.257294,0.149946 0.285918,0.224536 0.02861,0.07458 -0.01787,0.474166 -0.10336,0.887946 -0.08545,0.413784 -0.135491,0.804203 -0.111167,0.867603 0.02434,0.06339 0.430975,0.216172 0.903658,0.339494 0.853198,0.222599 0.859128,0.226258 0.818225,0.504926 -0.02265,0.154385 -0.09521,0.301433 -0.161228,0.326761 -0.06602,0.02535 -0.385593,-0.0434 -0.710172,-0.152747 -0.324583,-0.109348 -0.732959,-0.197254 -0.907506,-0.195363 -0.291759,0.0032 -0.33882,0.0495 -0.583316,0.57443 -0.146274,0.314041 -0.265954,0.662051 -0.265954,0.773349 0,0.1113 -0.06889,0.364163 -0.153079,0.561921 -0.08419,0.197759 -0.195998,0.729477 -0.248454,1.181599 -0.05245,0.452119 -0.125009,1.291548 -0.161227,1.865396 -0.04849,0.76821 -0.10412,1.067487 -0.210925,1.134867 -0.0798,0.05034 -0.210345,0.09152 -0.290131,0.09152 z m -27.707574,-0.35514 c -0.390893,0.112191 -0.557681,0.116579 -0.870397,0.02291 -0.212759,-0.06373 -0.517504,-0.184001 -0.677202,-0.267282 -0.159698,-0.08329 -0.361557,-0.232037 -0.448577,-0.330566 -0.08703,-0.09853 -0.271879,-0.497256 -0.410793,-0.886058 -0.161017,-0.450666 -0.252572,-0.90844 -0.252572,-1.262868 0,-0.454835 0.06738,-0.686848 0.370543,-1.275651 0.203802,-0.395832 0.497562,-0.939145 0.652798,-1.207356 0.155239,-0.268212 0.431526,-0.67146 0.613975,-0.896102 0.18245,-0.224642 0.552368,-0.572135 0.82204,-0.772202 0.269674,-0.200065 0.816715,-0.52175 1.215647,-0.714859 0.398928,-0.193108 0.953807,-0.418065 1.233058,-0.499897 0.453535,-0.132909 0.559957,-0.133283 0.997046,-0.0035 0.269124,0.07992 0.655405,0.295361 0.858402,0.478756 0.279822,0.252803 0.417352,0.491235 0.568646,0.985828 0.109761,0.358811 0.221606,0.913497 0.248555,1.232642 0.04419,0.52342 0.01657,0.641841 -0.282005,1.208881 -0.182054,0.345741 -0.418535,0.80777 -0.525517,1.026731 -0.106972,0.218966 -0.401755,0.662746 -0.655063,0.986184 -0.253306,0.323438 -0.656397,0.734322 -0.895753,0.913073 -0.239364,0.178751 -0.805118,0.504444 -1.257239,0.723762 -0.452122,0.219321 -1.039641,0.461213 -1.305592,0.537546 z m 0.133294,-1.005841 c 0.126499,0.0054 0.468473,-0.126442 0.75993,-0.293198 0.291463,-0.166759 0.807772,-0.563102 1.147354,-0.880766 0.429223,-0.401515 0.695376,-0.751279 0.873179,-1.147465 0.140661,-0.313438 0.293329,-0.569891 0.339253,-0.569891 0.04593,0 0.0835,-0.07072 0.0835,-0.157151 0,-0.08644 0.112771,-0.408454 0.25062,-0.715609 0.242745,-0.540907 0.246411,-0.577405 0.116684,-1.161452 l -0.133928,-0.602993 -0.654797,-0.242042 -0.654793,-0.242036 -0.715513,0.363173 c -0.475499,0.241353 -0.885732,0.545883 -1.222969,0.907847 -0.2791,0.299569 -0.664902,0.830806 -0.857333,1.180528 -0.192442,0.349726 -0.426816,0.871962 -0.520842,1.160526 -0.09402,0.288567 -0.215327,0.578675 -0.26956,0.644681 -0.05777,0.07029 -0.07155,0.300435 -0.03327,0.555622 0.03644,0.242991 0.169929,0.559933 0.301881,0.716752 0.130112,0.154627 0.399474,0.324414 0.598585,0.377307 0.199111,0.05289 0.465525,0.100656 0.59203,0.106167 z m 23.279718,1.07381 c -0.07173,0 -0.175432,-0.0544 -0.230425,-0.120888 -0.05501,-0.0665 -0.14305,-0.338486 -0.195677,-0.604439 -0.05262,-0.265956 -0.148866,-0.635874 -0.213859,-0.822039 -0.06501,-0.186168 -0.176359,-0.469048 -0.247482,-0.628618 -0.07113,-0.159576 -0.195836,-0.555569 -0.277131,-0.879992 -0.08131,-0.32442 -0.143945,-0.759616 -0.139219,-0.967103 0.0048,-0.207489 -0.06535,-0.66013 -0.155714,-1.005867 -0.09037,-0.345743 -0.18387,-0.692004 -0.20777,-0.769472 -0.03191,-0.10335 -0.106134,-0.0647 -0.278735,0.145067 -0.129399,0.157255 -0.312274,0.447468 -0.406391,0.644917 -0.119019,0.249682 -0.219123,0.344531 -0.328739,0.311486 -0.113423,-0.03419 -0.201547,0.06228 -0.31431,0.344107 -0.08619,0.215393 -0.1567,0.454018 -0.1567,0.530279 0,0.07625 -0.125415,0.525589 -0.278706,0.998513 -0.153288,0.472923 -0.328898,0.953647 -0.390241,1.06827 -0.06135,0.114632 -0.198414,0.208413 -0.304594,0.208413 -0.106177,0 -0.216144,-0.06017 -0.244357,-0.133697 -0.02821,-0.07353 0.01351,-0.367294 0.09279,-0.652799 0.07925,-0.285504 0.36886,-1.169217 0.643582,-1.963805 0.274722,-0.794593 0.60425,-1.582054 0.732288,-1.749918 0.128035,-0.167867 0.232794,-0.341197 0.232794,-0.385179 0,-0.04397 0.061,-0.148671 0.13554,-0.232647 0.07453,-0.08398 0.156128,-0.404105 0.181292,-0.711396 0.03967,-0.48445 0.09172,-0.603362 0.391575,-0.894575 0.190203,-0.184719 0.414337,-0.335855 0.498076,-0.335855 0.08373,0 0.191084,0.102127 0.238544,0.226963 0.04746,0.124828 0.08967,0.614429 0.09384,1.087993 0.0042,0.473568 0.09649,1.29623 0.205188,1.828135 0.108701,0.53191 0.235688,1.119427 0.282174,1.305593 0.04649,0.186167 0.183781,0.810378 0.305097,1.387137 0.180728,0.859184 0.23639,1.007706 0.308094,0.822038 0.04814,-0.124635 0.165832,-0.553008 0.261555,-0.951939 0.09573,-0.398929 0.204531,-0.964688 0.241795,-1.257236 0.03726,-0.292551 0.146048,-0.712328 0.241744,-0.932843 0.09569,-0.220514 0.202735,-0.54691 0.237873,-0.725327 0.03513,-0.178418 0.09885,-0.411433 0.141564,-0.517819 0.04273,-0.106381 0.127228,-0.348825 0.187788,-0.538772 0.06057,-0.189945 0.110118,-0.419015 0.110118,-0.509041 0,-0.09002 0.05441,-0.26102 0.120889,-0.379976 0.0665,-0.11896 0.126635,-0.229285 0.133652,-0.245175 0.007,-0.01591 0.130799,7.33e-4 0.275059,0.03694 0.21927,0.05504 0.254782,0.107352 0.216507,0.319019 -0.02517,0.139248 -0.139971,0.615424 -0.255096,1.05816 -0.115118,0.442734 -0.289174,1.008494 -0.386783,1.257238 -0.09762,0.248739 -0.251762,0.84394 -0.342566,1.322654 -0.0908,0.478716 -0.27423,1.283835 -0.407625,1.789148 -0.133393,0.505312 -0.326755,1.212507 -0.42969,1.571544 -0.112022,0.390754 -0.23951,0.652795 -0.317592,0.652795 z m -6.337335,-0.103992 c -0.08322,-0.0041 -0.500006,-0.128087 -0.926162,-0.275737 -0.426158,-0.147652 -0.913596,-0.340216 -1.083193,-0.427919 -0.169599,-0.08771 -0.354039,-0.159458 -0.409873,-0.159458 -0.05584,0 -0.101505,0.132731 -0.101505,0.294955 v 0.294959 l -0.556084,-0.02898 -0.556088,-0.02902 0.0029,-0.725331 c 0.0018,-0.398929 0.101256,-1.175655 0.221355,-1.726052 0.12011,-0.5504 0.244402,-1.355514 0.276203,-1.789148 0.03179,-0.433628 0.100324,-0.842338 0.152271,-0.908241 0.05194,-0.06589 0.133945,-0.09541 0.182224,-0.06558 0.04827,0.02984 0.148159,-0.09033 0.221958,-0.267015 0.07381,-0.176701 0.206943,-0.602177 0.29588,-0.945503 0.147172,-0.568138 0.14797,-0.634272 0.0089,-0.73599 -0.08407,-0.06148 -0.152841,-0.174807 -0.152841,-0.251858 0,-0.07705 0.05785,-0.219207 0.128545,-0.315894 0.106894,-0.146173 0.164178,-0.156723 0.340054,-0.06258 0.192262,0.102904 0.216762,0.08698 0.269152,-0.174996 0.03169,-0.158505 0.121168,-0.312572 0.198816,-0.342365 0.07765,-0.0298 0.334387,-0.0054 0.570523,0.05393 0.31899,0.08032 0.443595,0.164912 0.484807,0.329114 0.03053,0.12156 0.0079,0.309834 -0.05016,0.418393 -0.08886,0.166035 -0.06629,0.22507 0.142001,0.371673 0.136205,0.09587 0.423517,0.315729 0.638473,0.488599 0.214959,0.172871 0.469097,0.314309 0.564755,0.314309 0.09565,0 0.200342,0.06884 0.232629,0.152975 0.03227,0.08414 0.05871,0.23403 0.05871,0.333094 0,0.09907 -0.09793,0.291804 -0.217597,0.428309 L 30.738703,77.162122 29.985259,76.73 c -0.742689,-0.425959 -0.754582,-0.429083 -0.832214,-0.218633 -0.04334,0.117429 -0.155941,0.452863 -0.250273,0.745411 -0.09435,0.29255 -0.190754,0.582175 -0.214261,0.643613 -0.0244,0.06383 0.09492,0.141052 0.278395,0.180159 0.176623,0.03765 0.562585,0.231959 0.857697,0.431804 0.29511,0.19984 0.674617,0.43474 0.84335,0.521993 0.168734,0.08726 0.355965,0.250533 0.41607,0.362848 0.09017,0.168465 0.07406,0.239417 -0.09194,0.405437 l -0.201289,0.201233 -0.703044,-0.3302 c -0.386668,-0.181607 -0.811837,-0.424342 -0.944815,-0.539408 -0.132977,-0.115061 -0.350574,-0.232899 -0.483554,-0.261851 -0.132977,-0.02894 -0.334008,-0.08149 -0.446735,-0.116784 -0.187003,-0.05852 -0.210028,-0.01897 -0.262761,0.451568 -0.0318,0.283635 -0.08654,0.744184 -0.121652,1.023434 -0.06339,0.504099 -0.06196,0.507729 0.200153,0.507729 0.145205,0 0.631168,0.172058 1.079922,0.38235 0.448749,0.210294 0.876537,0.359087 0.950638,0.33065 0.08283,-0.03177 0.193285,0.06152 0.286711,0.242195 0.13921,0.269195 0.138251,0.322691 -0.01142,0.636459 -0.08985,0.188408 -0.231455,0.33928 -0.314686,0.335279 z M 28.178527,72.6969 c -0.02806,-0.0079 -0.171313,-0.03269 -0.318344,-0.0549 -0.19395,-0.02932 -0.320169,-0.143977 -0.45979,-0.417661 -0.105836,-0.207478 -0.253099,-0.637211 -0.327226,-0.954955 -0.0963,-0.41286 -0.110888,-0.737983 -0.05106,-1.139393 0.04605,-0.308923 0.12694,-0.855388 0.179781,-1.214368 0.05284,-0.358979 0.145842,-0.837695 0.206674,-1.063817 0.06082,-0.226116 0.167702,-0.521646 0.23749,-0.656722 0.124365,-0.240724 0.1207,-0.244872 -0.184758,-0.209214 -0.199851,0.02333 -0.356196,-0.0173 -0.435846,-0.113284 -0.06831,-0.0823 -0.147785,-0.325443 -0.176602,-0.540293 -0.0288,-0.21485 -0.08526,-0.390635 -0.125397,-0.390635 -0.04018,0 -0.09548,-0.141439 -0.122959,-0.314308 -0.03977,-0.250319 0.0686,-0.550589 0.532423,-1.474837 0.320307,-0.638288 0.696891,-1.345407 0.836846,-1.571369 0.144977,-0.234082 0.328587,-0.410923 0.42674,-0.411022 0.09476,-9.5e-5 0.195654,0.06075 0.224224,0.135196 0.02859,0.07445 -0.01232,0.34645 -0.09088,0.604441 -0.07855,0.25799 -0.320897,0.850657 -0.538536,1.317043 -0.294218,0.630492 -0.395702,0.969718 -0.395702,1.322677 0,0.373682 0.03599,0.482502 0.169244,0.511324 0.09308,0.02012 0.419654,-0.046 0.725713,-0.146982 0.39507,-0.13035 0.641025,-0.286174 0.848005,-0.537257 0.160343,-0.194509 0.466087,-0.689155 0.679424,-1.09921 0.213345,-0.410052 0.426632,-0.76949 0.473972,-0.79875 0.04735,-0.02924 0.154903,0.01565 0.239024,0.09976 0.08426,0.08425 0.133201,0.247521 0.10898,0.363552 -0.02419,0.115829 -0.111267,0.523831 -0.193509,0.906665 -0.08223,0.382838 -0.149527,0.741874 -0.149527,0.797865 0,0.06736 0.580489,0.102314 1.716609,0.10336 1.225701,10e-4 2.00156,0.05196 2.712999,0.177796 0.576731,0.102013 1.061379,0.241227 1.150711,0.33056 0.131613,0.131612 0.136255,0.197988 0.03151,0.450824 -0.06754,0.163072 -0.158483,0.29649 -0.202082,0.29649 -0.0436,0 -0.107999,-0.04649 -0.143113,-0.103298 -0.03513,-0.05681 -0.128842,-0.07838 -0.208283,-0.04787 -0.07943,0.03048 -0.34169,-0.03182 -0.582775,-0.138474 -0.389345,-0.172226 -0.647034,-0.193898 -2.305603,-0.193898 -1.026998,0 -1.974814,0.0409 -2.106258,0.09086 -0.198416,0.07544 -0.265737,0.208463 -0.396532,0.78351 -0.08663,0.380956 -0.201986,1.047262 -0.256314,1.48068 -0.05432,0.43342 -0.231134,1.211321 -0.392904,1.728666 -0.161775,0.517342 -0.425042,1.138254 -0.585038,1.379802 -0.159989,0.24155 -0.383018,0.503705 -0.495612,0.582566 -0.112589,0.07887 -0.227669,0.136869 -0.255729,0.128896 z m -0.182925,-0.759192 c 0.04751,0 0.173409,-0.141438 0.279753,-0.31431 0.106337,-0.172869 0.278003,-0.597186 0.381474,-0.942926 0.103474,-0.345743 0.320082,-1.281415 0.481362,-2.07928 0.161278,-0.797861 0.293615,-1.570335 0.294075,-1.716611 3.67e-4,-0.146274 -0.02797,-0.265953 -0.06319,-0.265953 -0.03523,0 -0.2531,0.110787 -0.484174,0.246214 -0.289173,0.169471 -0.49281,0.389626 -0.653273,0.706289 -0.156383,0.308607 -0.285979,0.840431 -0.393651,1.61546 -0.08829,0.635463 -0.162889,1.382821 -0.16579,1.660789 -0.0029,0.277968 0.04924,0.637006 0.115878,0.797859 0.06662,0.160859 0.160021,0.292469 0.207542,0.292469 z m -5.766866,-0.38684 c -0.14617,0 -0.23931,-0.07287 -0.278097,-0.217604 -0.03206,-0.119676 -0.05889,-0.641915 -0.05963,-1.160524 -7.32e-4,-0.518609 -0.02918,-0.942927 -0.06326,-0.942927 -0.03405,0 -0.383073,0.326394 -0.775584,0.725329 -0.507559,0.515862 -0.782933,0.72533 -0.953532,0.72533 -0.131935,0 -0.326919,-0.08704 -0.433298,-0.193421 -0.106369,-0.106381 -0.193422,-0.234681 -0.193422,-0.28511 0,-0.05043 0.210805,-0.344191 0.468461,-0.652798 0.257652,-0.308608 0.779044,-0.8533 1.158652,-1.210428 l 0.690193,-0.649316 0.0964,-1.139828 c 0.05303,-0.626904 0.100748,-1.183347 0.10606,-1.236536 0.0052,-0.05318 0.0047,-0.314308 -0.0015,-0.580265 -0.0062,-0.265951 0.0085,-0.766429 0.0325,-1.112171 0.02397,-0.345738 0.07193,-0.740552 0.106551,-0.877362 0.03459,-0.13681 0.197456,-0.328216 0.361888,-0.42535 0.283001,-0.167168 0.305514,-0.167648 0.421555,-0.0089 0.06743,0.0922 0.158597,0.501216 0.202602,0.908904 0.04399,0.407687 0.07285,1.187326 0.06413,1.732529 -0.0088,0.545207 0.014,0.991284 0.05055,0.991284 0.03652,0 0.149274,-0.153856 0.250541,-0.341905 0.101277,-0.188046 0.382361,-0.524624 0.624637,-0.747949 0.242281,-0.223326 0.445571,-0.450267 0.451754,-0.504315 0.0064,-0.05405 0.01787,-0.151663 0.026,-0.216922 0.008,-0.06528 0.120611,-0.188039 0.250023,-0.272828 0.175531,-0.115014 0.282693,-0.1288 0.421935,-0.0543 0.102645,0.05493 0.241895,0.233279 0.309421,0.396309 0.113422,0.273834 0.09785,0.336267 -0.204336,0.819437 -0.179911,0.28766 -0.718794,0.986772 -1.197509,1.553577 -0.478718,0.566806 -0.93416,1.146275 -1.012097,1.287711 -0.09855,0.178859 -0.160589,0.72608 -0.203748,1.797255 -0.05814,1.442999 -0.07579,1.551233 -0.280034,1.716615 -0.119893,0.09708 -0.316885,0.176514 -0.437767,0.176514 z M 17.640684,70.96332 c -0.08322,-0.0041 -0.500005,-0.128087 -0.926162,-0.275741 -0.426155,-0.147651 -0.913597,-0.340215 -1.083192,-0.427913 -0.169597,-0.0877 -0.35404,-0.159458 -0.409869,-0.159458 -0.05585,0 -0.101505,0.13273 -0.101505,0.294955 v 0.294957 l -0.556085,-0.029 -0.556083,-0.02901 0.0029,-0.725329 c 0.0018,-0.398932 0.101256,-1.175656 0.221353,-1.726056 0.120108,-0.550397 0.2444,-1.355514 0.276204,-1.789146 0.03179,-0.433629 0.100324,-0.842342 0.152268,-0.908241 0.05194,-0.06589 0.133949,-0.09541 0.182227,-0.06558 0.04828,0.02982 0.148161,-0.09033 0.221955,-0.267022 0.07381,-0.176695 0.206946,-0.602172 0.295882,-0.945497 0.147174,-0.568142 0.147971,-0.634273 0.0089,-0.73599 -0.08405,-0.06148 -0.152839,-0.174807 -0.152839,-0.251858 0,-0.07704 0.05785,-0.219207 0.128547,-0.315894 0.106895,-0.14618 0.164178,-0.156723 0.340054,-0.0626 0.192261,0.102905 0.216758,0.08697 0.26915,-0.174992 0.03169,-0.158506 0.121171,-0.312572 0.198816,-0.34237 0.07766,-0.02977 0.334389,-0.0054 0.570522,0.05393 0.318993,0.08033 0.443596,0.164912 0.484809,0.329119 0.03054,0.121554 0.0079,0.309833 -0.05015,0.418391 -0.08885,0.166036 -0.06629,0.225069 0.142004,0.371673 0.136205,0.09586 0.423515,0.31573 0.638472,0.488599 0.214957,0.172868 0.469101,0.314311 0.564756,0.314311 0.09564,0 0.200342,0.06885 0.232625,0.152973 0.03227,0.08414 0.0587,0.234027 0.0587,0.333095 0,0.09907 -0.09793,0.291806 -0.2176,0.428309 l -0.2176,0.248192 -0.753445,-0.432122 c -0.742679,-0.425947 -0.754573,-0.429072 -0.832203,-0.218621 -0.04333,0.117424 -0.15594,0.452859 -0.250278,0.745408 -0.09435,0.29255 -0.190751,0.582174 -0.214259,0.643612 -0.02439,0.06383 0.09492,0.141051 0.278397,0.180161 0.176623,0.03765 0.562586,0.231959 0.857697,0.431801 0.295109,0.199845 0.674617,0.434742 0.843349,0.521996 0.168732,0.08727 0.355965,0.250533 0.416071,0.362847 0.09017,0.168466 0.07405,0.239419 -0.09194,0.40544 l -0.201243,0.201254 -0.703041,-0.330199 c -0.386686,-0.181617 -0.811851,-0.424352 -0.944831,-0.539416 -0.132977,-0.115058 -0.350574,-0.232898 -0.48355,-0.261854 -0.132978,-0.02894 -0.334011,-0.08149 -0.446739,-0.116784 -0.187004,-0.05852 -0.210029,-0.01892 -0.262762,0.451569 -0.03179,0.283638 -0.08654,0.744184 -0.121651,1.023437 -0.06339,0.504102 -0.06197,0.50773 0.200154,0.50773 0.145205,0 0.631169,0.172057 1.079919,0.382349 0.448752,0.21029 0.876542,0.359083 0.950645,0.330647 0.08282,-0.03179 0.193278,0.06153 0.286703,0.2422 0.139212,0.269194 0.138253,0.322688 -0.01141,0.636457 -0.08986,0.188406 -0.231455,0.339281 -0.314684,0.33528 z m -6.327557,-0.68107 c -0.16686,-0.0064 -0.499222,-0.04532 -0.738578,-0.0868 C 10.33519,70.15395 9.9087223,70.028303 9.6268443,69.916213 9.3449616,69.804133 8.9315267,69.62063 8.7080922,69.508446 8.4846608,69.396253 8.0733725,69.130052 7.7941231,68.916884 c -0.3526347,-0.269178 -0.507732,-0.45542 -0.507732,-0.609695 0,-0.146493 0.1070327,-0.28794 0.3143104,-0.415394 0.210667,-0.129532 0.409978,-0.176042 0.6044423,-0.141039 0.1595709,0.02873 0.4206881,0.175067 0.5802627,0.325206 0.1595711,0.150138 0.5451921,0.389535 0.8569328,0.531989 0.333558,0.152428 0.8111287,0.278477 1.1605287,0.30631 0.510774,0.04069 0.618585,0.01975 0.771685,-0.150136 0.174873,-0.194008 0.17131,-0.202262 -0.205238,-0.475032 -0.210763,-0.152672 -0.649962,-0.383546 -0.975997,-0.513046 -0.5868527,-0.233099 -0.5951557,-0.241773 -0.8284227,-0.865685 -0.1997287,-0.5342 -0.2229157,-0.706165 -0.1521957,-1.128636 0.04589,-0.274131 0.1504337,-0.627987 0.2323257,-0.786345 0.0819,-0.158361 0.279908,-0.398168 0.4400427,-0.532915 0.16013,-0.13474 0.433693,-0.289721 0.60791,-0.344403 0.174221,-0.0547 0.708443,-0.169245 1.187163,-0.254587 0.478717,-0.08535 0.940037,-0.17577 1.025155,-0.200945 0.09998,-0.02957 0.245449,0.08511 0.411021,0.32401 0.140941,0.203379 0.256258,0.486008 0.256258,0.628055 0,0.184183 -0.07628,0.297431 -0.265952,0.394785 -0.146276,0.07507 -0.505315,0.182175 -0.797866,0.23799 -0.292547,0.05582 -0.774173,0.128194 -1.070277,0.160847 -0.49955,0.05509 -0.546631,0.0822 -0.6528,0.375803 -0.06292,0.174033 -0.114426,0.409044 -0.114426,0.522239 0,0.119459 0.131874,0.304526 0.314312,0.441093 0.17287,0.129403 0.454336,0.306085 0.625475,0.392622 0.171141,0.08655 0.47578,0.190484 0.676972,0.230987 0.306606,0.06173 0.398351,0.141114 0.566893,0.490496 0.15658,0.32459 0.186525,0.512761 0.135312,0.850215 -0.03619,0.238351 -0.151551,0.550359 -0.256399,0.693349 -0.104845,0.142992 -0.399132,0.401421 -0.653972,0.574299 -0.300236,0.203663 -0.570144,0.310303 -0.766723,0.30293 z"
       id="path3213"
       inkscape:label="Sexyrodent"
       sodipodi:nodetypes="cssssscsscssssssssssssssssssscscccssssssssssssssscsssssssssssssssscsssssssssssssssccsssssssssssssssssssssssscssssssssscssssssssssssssssscsssssssscssssssssssscsssssssscccssssssscccssssssssccsssssssscsssssssssssssssssssssssssssssssssssssssscssssccccssssssssssssssssssssscssssssssscssssssssssscccssssssssssssssssssssssscsssscssssssssssssssccsssscsssscssscsssssssscssccsssssssssssssssssssscssssccccssssssssssssssssssssscssssssssscsssssssscssccssssssssssscssssssssssssssssssssssss" /><path
       id="rect7321-12-0-9"
       style="display:inline;fill:#ff0c0c;stroke:none;stroke-width:0.10271;stroke-dasharray:none;stroke-opacity:1;fill-opacity:1"
       inkscape:label="contour"
       d="m 43.063423,85.725736 c -0.03965,0.001 -0.0795,0.0041 -0.119945,0.0082 L 25.17913,87.766788 c -0.647034,0.07405 -1.213872,0.593902 -1.213872,1.208038 v 0.859315 H -0.04407967 v 0.513254 H 23.965258 v 0.329073 H -0.04407967 v 0.277061 H 23.965258 v 0.511138 H -0.04407967 v 0.513254 H 23.965258 v 0.329073 H -0.04407967 v 0.277061 H 23.965258 v 0.511139 H -0.04407967 v 0.513253 H 23.965258 v 0.329074 H -0.04407967 v 0.277061 H 23.965258 V 94.72572 H -0.04407967 v 0.51327 H 23.965258 v 0.329074 H -0.04407967 v 0.277061 H 23.965258 v 2.929328 c 0,0.614136 0.566838,1.004486 1.213872,0.930443 l 17.764348,-2.032853 c 0.647024,-0.07405 1.215464,-0.594425 1.215464,-1.208571 V 95.845125 H 68.04408 V 95.568064 H 44.158942 V 95.23899 H 68.04408 V 94.725737 H 44.158942 V 94.214599 H 68.04408 V 93.937538 H 44.158942 V 93.608464 H 68.04408 V 93.095211 H 44.158942 V 92.584072 H 68.04408 V 92.307011 H 44.158942 V 91.977938 H 68.04408 V 91.464684 H 44.158942 V 90.953546 H 68.04408 V 90.676485 H 44.158942 V 90.347412 H 68.04408 V 89.834158 H 44.158942 v -3.170276 c 0,-0.575753 -0.499891,-0.954323 -1.095519,-0.938403 z m -0.125789,0.5313 c 0.358901,0.0041 0.715562,0.334743 0.71548,0.530776 l -0.0041,9.592608 c -1.23e-4,0.272542 -0.385851,0.741723 -0.762716,0.785005 l -17.552036,2.015864 c -0.417252,0.04796 -0.855501,-0.205287 -0.855602,-0.579605 l -0.0027,-9.684955 c 0.008,-0.32439 0.377989,-0.615604 0.703273,-0.633743 l 17.686854,-2.022232 c 0.02383,-0.0031 0.04776,-0.0041 0.07169,-0.0041 z m -0.488839,0.317929 c -0.03369,10e-4 -0.06799,0.0031 -0.102403,0.0072 l -16.569587,1.900161 c -0.550959,0.06317 -1.024386,0.480715 -1.024386,0.966 v 8.678097 c 0,0.485286 0.473427,0.794577 1.024386,0.7314 l 16.569587,-1.900171 c 0.550959,-0.06317 1.02279,-0.480715 1.02279,-0.966001 v -8.678096 c 0,-0.454955 -0.41458,-0.755136 -0.920357,-0.738826 z m -0.02126,0.260083 c 0.398885,-0.01417 0.68444,0.216842 0.684163,0.508478 l -0.0082,8.65474 c -2.26e-4,0.241677 -0.393483,0.634061 -0.765376,0.677261 l -16.561617,1.923507 c -0.440744,0.05115 -0.765624,-0.191041 -0.765369,-0.502109 l 0.0074,-8.677563 c 2.33e-4,-0.283839 0.370341,-0.62378 0.758471,-0.668767 l 16.569366,-1.909179 c 0.02753,-0.0031 0.05464,-0.0051 0.08124,-0.0062 z"
       sodipodi:nodetypes="cccsccccccccccccccccccccccccccccccccsscsccccccccccccccccccccccccccccccccsccccccccccccccccssccssccccccccccccc" /><path
       style="display:inline;fill:#ffffff;fill-opacity:1;stroke:none;stroke-width:0.10271;stroke-dasharray:none;stroke-opacity:1"
       d="m 25.907748,98.004322 c -0.124044,-0.02483 -0.143493,-0.05069 -0.184174,-0.243375 -0.07767,-0.367944 -0.06328,-0.812587 0.04329,-1.337439 0.03399,-0.167338 0.07311,-0.234661 0.179983,-0.309577 0.110361,-0.07745 0.204705,-0.10157 0.410019,-0.104754 0.180876,-0.0031 0.182818,-0.0021 0.276816,0.04509 0.05532,0.02809 0.112515,0.07022 0.137601,0.101775 0.04947,0.06188 0.04928,0.05801 0.0293,0.575464 -0.01229,0.318565 -0.0042,0.379476 0.05421,0.405613 0.13574,0.06076 0.490559,0.05088 0.870043,-0.02484 0.336843,-0.06676 0.610842,-0.11762 0.751639,-0.139502 0.06549,-0.01046 0.126704,-0.0233 0.136017,-0.02931 0.03832,-0.02473 0.180034,-0.704597 0.230113,-1.10403 0.07416,-0.591474 0.06189,-1.087585 -0.03432,-1.389387 -0.03444,-0.108013 -0.07228,-0.185831 -0.102566,-0.210906 -0.03243,-0.02697 -0.145527,-0.009 -0.619196,0.09384 -0.58667,0.128296 -0.945639,0.195773 -1.105473,0.207762 -0.182683,0.01395 -0.676889,-0.0031 -0.830045,-0.02789 -0.20069,-0.03277 -0.365314,-0.108948 -0.431654,-0.20005 -0.02549,-0.03491 -0.02667,-0.09801 -0.03473,-1.845681 -0.0045,-0.995233 -0.0087,-2.017111 -0.0095,-2.270876 l -9.99e-4,-0.461385 0.04651,-0.06982 c 0.120205,-0.180579 0.372388,-0.294515 0.661257,-0.298769 0.234506,-0.0031 0.380293,0.0515 0.467455,0.176313 0.03391,0.04855 0.03432,0.05282 0.04515,0.487388 0.006,0.241115 0.01229,0.817159 0.01393,1.280121 l 0.0032,0.841737 -0.04034,0.382631 c -0.04568,0.433123 -0.05714,0.900726 -0.02549,1.040249 0.03648,0.160885 0.06087,0.222621 0.09086,0.230123 0.04106,0.01046 0.277802,-0.01812 0.593619,-0.07124 0.299338,-0.05028 1.142761,-0.199508 1.192122,-0.210897 l 0.03128,-0.0061 v -2.05297 c 0,-1.565566 0.004,-2.066909 0.01684,-2.111526 0.02644,-0.09191 0.152467,-0.213229 0.292098,-0.281326 0.158311,-0.07716 0.282094,-0.108081 0.448743,-0.111791 0.120487,-0.0031 0.158845,0.0031 0.28768,0.04204 l 0.148657,0.04519 0.0059,2.413483 c 0.005,2.049027 0.0094,2.465773 0.02884,2.75974 0.03164,0.477077 0.04421,1.332737 0.02382,1.619526 -0.04241,0.596288 -0.164626,1.136427 -0.299918,1.325595 -0.08219,0.114914 -0.205328,0.214357 -0.385256,0.311094 -0.180409,0.09698 -0.305366,0.13873 -0.622981,0.208026 -0.473429,0.10327 -0.926565,0.170067 -1.306818,0.19263 -0.110871,0.0061 -0.373624,0.03695 -0.583896,0.06758 -0.397985,0.05791 -0.785485,0.08427 -0.899529,0.06136 z m 5.482475,-0.709582 c -0.0883,-0.01497 -0.165151,-0.06686 -0.198068,-0.133814 -0.04239,-0.08621 -0.03666,-0.606199 0.01191,-1.080204 0.07256,-0.708127 0.0936,-1.19062 0.09353,-2.144839 -5.3e-5,-0.704065 -0.0061,-0.906668 -0.05561,-1.838302 -0.04604,-0.868117 -0.05493,-1.116854 -0.06421,-1.795721 -0.0091,-0.665901 1.05e-4,-0.897407 0.04441,-1.11836 0.04226,-0.210591 0.08878,-0.293111 0.203985,-0.361707 0.204131,-0.121559 0.501708,-0.180029 1.227004,-0.241073 0.175865,-0.01476 0.494922,-0.04864 0.709018,-0.07501 0.94747,-0.117183 1.356843,-0.15437 1.779496,-0.161934 l 0.347557,-0.0061 0.066,0.03837 c 0.09051,0.05272 0.107821,0.09272 0.107821,0.249022 0,0.231903 -0.0649,0.982215 -0.09101,1.051758 -0.0403,0.107453 -0.480621,0.197748 -0.930848,0.190919 -0.149335,-0.0021 -0.263747,-0.01091 -0.310772,-0.02392 -0.0409,-0.01125 -0.07601,-0.02248 -0.07791,-0.02473 -0.0021,-0.0021 0.0172,-0.233879 0.0424,-0.51441 0.02531,-0.280531 0.0322,-0.209879 0.03569,-0.345229 0.0021,-0.07215 -0.07271,-0.0284 -0.208201,-0.03583 -0.113559,0.0031 -0.428696,0.03235 -0.619828,0.05863 -0.359519,0.05099 -0.957175,0.167268 -0.977447,0.20638 -0.05055,0.0975 -0.01274,1.041092 0.02768,1.805094 0.06442,1.21766 0.08634,2.320367 0.06563,3.297963 -0.01628,0.769121 -0.02288,0.89403 -0.08302,1.576162 -0.05556,0.630067 -0.07683,0.82589 -0.05797,0.861461 0.03107,0.05862 0.182067,0.02015 0.733157,-0.05689 0.187334,-0.02606 0.397477,-0.05598 0.481585,-0.06218 0.369192,-0.02718 0.576162,-0.05486 0.696743,-0.177027 0.127956,-0.129854 0.120593,-0.08122 0.1832,-1.099756 0.0244,-0.397592 0.05371,-1.759009 0.0407,-1.896436 -0.0211,-0.223497 -0.07761,-0.38767 -0.138653,-0.402274 -0.019,-0.0041 -0.09871,6e-4 -0.177089,0.01046 -0.29403,0.03979 -0.57088,0.02259 -0.70236,-0.04356 -0.146812,-0.07389 -0.179704,-0.217339 -0.09355,-0.407963 0.04245,-0.09384 0.144241,-0.228209 0.204633,-0.269967 0.06743,-0.04661 0.384966,-0.09221 1.153326,-0.165577 0.322811,-0.03094 0.400341,-0.01046 0.675529,0.172203 l 0.165558,0.110251 0.0089,0.485618 c 0.0049,0.267098 0.02141,0.6796 0.0369,0.916684 0.06521,0.998867 0.06511,1.471966 -1.5e-4,1.927824 -0.032,0.223618 -0.105136,0.529838 -0.158786,0.665035 -0.08511,0.214551 -0.29617,0.339429 -0.731737,0.432959 -0.633386,0.136012 -1.677662,0.284583 -2.695738,0.383528 -0.436422,0.04244 -0.68467,0.05577 -0.769442,0.04132 z m 5.767328,-0.69964 c -0.123003,-0.01608 -0.110763,0.04356 -0.129624,-0.632152 -0.0192,-0.689076 -0.0365,-1.026213 -0.113511,-2.215388 -0.109667,-1.693549 -0.127344,-2.102399 -0.127734,-2.954801 -4.8e-4,-0.991436 0.04731,-1.674893 0.170198,-2.436096 0.0433,-0.267982 0.03481,-0.246927 0.115192,-0.285416 0.152644,-0.07317 0.594452,-0.143278 0.933516,-0.148367 0.137665,-0.0021 0.220014,0.0021 0.242306,0.01384 0.09051,0.04539 0.3875,0.620874 0.77005,1.659067 0.117991,0.320225 0.264686,0.664191 0.302982,0.760836 0.182287,0.460021 0.570839,1.440203 1.090322,2.577451 0.555778,1.216675 0.745447,1.544317 0.754797,1.519373 0.01651,-0.04418 -0.0121,-1.994903 -0.03211,-2.78896 -0.0161,-0.63784 -0.01771,-1.122938 -0.008,-2.404962 0.006,-0.88325 0.01631,-1.617004 0.0217,-1.630552 0.0127,-0.03185 0.07942,-0.07399 0.166268,-0.104854 0.113602,-0.04051 0.316843,-0.06819 0.711184,-0.09688 0.444366,-0.03225 0.426384,-0.03166 0.415533,-0.01302 -0.0115,0.01913 -0.04311,0.414306 -0.06401,0.800265 -0.02351,0.433294 -0.0206,1.735013 0.006,2.801122 0.0275,1.093547 0.0303,1.168503 0.07232,1.915844 0.07941,1.414076 0.0777,2.06692 -0.007,2.688141 -0.02831,0.207365 -0.04331,0.254842 -0.09281,0.294088 -0.118301,0.09373 -0.440206,0.159247 -0.813613,0.165637 -0.334595,0.0051 -0.316613,0.017 -0.394901,-0.245978 -0.160227,-0.538134 -0.48992,-0.995071 -1.008726,-1.991189 -0.431583,-0.828659 -0.330112,-0.687315 -1.249638,-2.788308 -0.38048,-0.869318 -0.648298,-1.607223 -0.654938,-1.61451 -0.0159,-0.0175 0.0127,0.895137 0.0295,2.07327 0.0126,0.878619 0.0482,3.485769 0.06081,4.45228 l 0.006,0.428135 -0.035,0.02859 c -0.0193,0.01567 -0.06701,0.03888 -0.106086,0.05129 -0.21109,0.06758 -0.86077,0.144997 -1.030336,0.122729 z"
       id="path3141-3-2"
       sodipodi:nodetypes="cssccccssccssscccccsccscssccssccccssccccccsssscccccssscsssccccssscccssccsssssccsssccscscccsssssscccsssscscssssccscccsssssccsssssccccc"
       inkscape:label="logo" /><g
       id="g9340"
       inkscape:label="CONTROLS"
       style="stroke:none;fill:#ffffff;fill-opacity:1"><path
         id="path10508-7-7"
         style="display:inline;fill:#ffffff;fill-opacity:1;stroke:none;stroke-width:0.107438;stroke-dasharray:none;stroke-opacity:1"
         d="m 40.447443,109.01922 a 6.4462805,6.4462805 0 0 1 -6.44628,6.44629 6.4462805,6.4462805 0 0 1 -6.44628,-6.44629 6.4462805,6.4462805 0 0 1 6.44628,-6.44627 6.4462805,6.4462805 0 0 1 6.44628,6.44627 z"
         inkscape:label="FS RIGHT" /><path
         id="path3100"
         style="font-style:normal;font-weight:400;font-size:35.2778px;font-family:'Source Code Pro';fill:#ffffff;fill-opacity:1;stroke:none;stroke-width:0.1;stroke-linecap:round;stroke-linejoin:bevel;stroke-dasharray:none;stroke-dashoffset:0;stroke-opacity:1"
         d="m 15.999999,109.04805 c 0,-2.2091 -1.7909,-4 -4,-4 m -4,4 c 0,2.2091 1.7909,4 4,4 2.2091,0 4,-1.7909 4,-4 m -4,-4 c -2.2091,0 -4,1.7909 -4,4" /><path
         id="path3124"
         style="font-style:normal;font-weight:400;font-size:35.2778px;font-family:'Source Code Pro';fill:#ffffff;fill-opacity:1;stroke:none;stroke-width:0.1;stroke-linecap:round;stroke-linejoin:bevel;stroke-dasharray:none;stroke-dashoffset:0;stroke-opacity:1"
         d="m 59.999999,44.082351 c 0,-2.2091 -1.7909,-4 -4,-4 m -4,4 c 0,2.2092 1.7909,4 4,4 2.2091,0 4,-1.7908 4,-4 m -4,-4 c -2.2091,0 -4,1.7909 -4,4" /><path
         id="path3124-7"
         style="font-style:normal;font-weight:400;font-size:35.2778px;font-family:'Source Code Pro';fill:#ffffff;fill-opacity:1;fill-rule:nonzero;stroke:none;stroke-width:0.1;stroke-linecap:round;stroke-linejoin:bevel;stroke-dasharray:none;stroke-dashoffset:0;stroke-opacity:1"
         d="m 60.000945,14.082817 c 0,-2.2091 -1.7909,-4 -4,-4 m -4,4 c 0,2.2092 1.7909,4 4,4 2.2091,0 4,-1.7908 4,-4 m -4,-4 c -2.2091,0 -4,1.7909 -4,4" /><path
         id="path3112"
         style="font-style:normal;font-weight:400;font-size:35.2778px;font-family:'Source Code Pro';fill:#ffffff;stroke:none;stroke-width:1;stroke-linecap:round;stroke-linejoin:bevel;stroke-dasharray:none;stroke-dashoffset:0;stroke-opacity:1;fill-opacity:1"
         d="m 1090,1320.0543 c 0,-22.091 -17.9086,-40 -40,-40 m -40,40 c 0,22.092 17.9086,40 40,40 22.0914,0 40,-17.908 40,-40 m -40,-40 c -22.0914,0 -40,17.909 -40,40"
         transform="matrix(0.1,0,0,0.1,-71.000001,-87.923079)" /><path
         id="path3094"
         style="font-style:normal;font-weight:400;font-size:35.2778px;font-family:'Source Code Pro';fill:#ffffff;fill-opacity:1;stroke:none;stroke-width:0.1;stroke-linecap:round;stroke-linejoin:bevel;stroke-dasharray:none;stroke-dashoffset:0;stroke-opacity:1"
         d="m 15.999999,44.082351 c 0,-2.2091 -1.7909,-4 -4,-4 m -4,4 c 0,2.2092 1.7909,4 4,4 2.2091,0 4,-1.7908 4,-4 m -4,-4 c -2.2091,0 -4,1.7909 -4,4" /><path
         id="path3088"
         style="font-style:normal;font-weight:400;font-size:35.2778px;font-family:'Source Code Pro';display:inline;fill:#ffffff;fill-opacity:1;stroke:none;stroke-width:0.1;stroke-linecap:round;stroke-linejoin:bevel;stroke-dasharray:none;stroke-dashoffset:0;stroke-opacity:1"
         d="m 15.999999,14.082351 c 0,-2.209067 -1.7909,-3.999967 -4,-3.999967 m -4,3.999967 c 0,2.2092 1.7909,4 4,4 2.2091,0 4,-1.7908 4,-4 m -4,-3.999967 c -2.2091,0 -4,1.7909 -4,3.999967" /></g></g></svg>
