<?xml version="1.0" encoding="UTF-8" standalone="no"?>
<!-- Created with Inkscape (http://www.inkscape.org/) -->

<svg
   width="68mm"
   height="119mm"
   viewBox="0 0 68 119"
   version="1.1"
   id="svg319"
   inkscape:version="1.2.2 (b0a8486541, 2022-12-01)"
   sodipodi:docname="template_freecad_v3.svg"
   xmlns:inkscape="http://www.inkscape.org/namespaces/inkscape"
   xmlns:sodipodi="http://sodipodi.sourceforge.net/DTD/sodipodi-0.dtd"
   xmlns="http://www.w3.org/2000/svg"
   xmlns:svg="http://www.w3.org/2000/svg">
  <sodipodi:namedview
     id="namedview321"
     pagecolor="#505050"
     bordercolor="#ffffff"
     borderopacity="1"
     inkscape:showpageshadow="0"
     inkscape:pageopacity="0"
     inkscape:pagecheckerboard="1"
     inkscape:deskcolor="#505050"
     inkscape:document-units="mm"
     showgrid="true"
     showborder="true"
     showguides="true"
     inkscape:zoom="2.8284271"
     inkscape:cx="25.809397"
     inkscape:cy="255.97265"
     inkscape:current-layer="layer1-3"
     guidecolor="#ff031d"
     guideopacity="0.6"
     inkscape:lockguides="false">
    <sodipodi:guide
       position="33.999999,119"
       orientation="-1,0"
       id="guide444"
       inkscape:locked="false"
       inkscape:label=""
       inkscape:color="rgb(224,27,36)" />
    <sodipodi:guide
       position="0,59.499999"
       orientation="0,1"
       id="guide454"
       inkscape:locked="false"
       inkscape:label=""
       inkscape:color="rgb(224,27,36)" />
    <sodipodi:guide
       position="14,119"
       orientation="-1,0"
       id="guide2188"
       inkscape:locked="false"
       inkscape:label=""
       inkscape:color="rgb(224,27,36)" />
    <sodipodi:guide
       position="53.999999,119"
       orientation="-1,0"
       id="guide2190"
       inkscape:locked="false"
       inkscape:label=""
       inkscape:color="rgb(224,27,36)" />
    <sodipodi:guide
       position="0,104.92"
       orientation="0,1"
       id="guide2242"
       inkscape:locked="false"
       inkscape:label=""
       inkscape:color="rgb(224,27,36)" />
    <sodipodi:guide
       position="0,74.919999"
       orientation="0,1"
       id="guide2244"
       inkscape:locked="false"
       inkscape:label=""
       inkscape:color="rgb(224,27,36)" />
    <inkscape:grid
       type="xygrid"
       id="grid2270"
       units="mm"
       spacingx="0.99999998"
       spacingy="0.99999998"
       dotted="true"
       color="#2fb675"
       opacity="0.14901961"
       empcolor="#559253"
       empopacity="0.30196078"
       visible="true" />
    <sodipodi:guide
       position="0,10.98"
       orientation="0,1"
       id="guide2296"
       inkscape:locked="false"
       inkscape:label=""
       inkscape:color="rgb(224,27,36)" />
  </sodipodi:namedview>
  <defs
     id="defs316" />
  <g
     inkscape:label="Layer 1"
     inkscape:groupmode="layer"
     id="layer1">
    <g
       inkscape:label="Layer 1"
       inkscape:groupmode="layer"
       id="layer1-3"
       transform="translate(-1.65e-7,0.01620728)">
      <path
         id="path868"
         d="m 60.000105,56.495336 q -0.335139,0 -0.586493,-0.14993 -0.251354,-0.154341 -0.392465,-0.414514 -0.136701,-0.260173 -0.136701,-0.573264 0,-0.317499 0.132291,-0.573263 0.132292,-0.260174 0.379236,-0.410104 0.246944,-0.15434 0.582083,-0.15434 0.339549,0 0.582083,0.15434 0.246945,0.14993 0.379236,0.410104 0.132292,0.255764 0.132292,0.573263 v 0.132292 h -1.847673 q 0.02646,0.194028 0.123472,0.357187 0.101424,0.15875 0.268993,0.255764 0.16757,0.0926 0.388056,0.0926 0.233715,0 0.392465,-0.101423 0.15875,-0.105834 0.246944,-0.268993 h 0.361597 q -0.114653,0.295451 -0.366007,0.485069 -0.246944,0.185208 -0.639409,0.185208 z M 59.228404,55.18124 h 1.499305 q -0.0441,-0.282222 -0.238125,-0.47184 -0.194028,-0.189618 -0.511528,-0.189618 -0.3175,0 -0.511527,0.189618 -0.189618,0.189618 -0.238125,0.47184 z m -4.034894,1.278818 v -2.20486 h 0.330729 v 0.335139 q 0.07497,-0.132291 0.238125,-0.251354 0.16316,-0.119062 0.432153,-0.119062 0.220486,0 0.405694,0.119062 0.189618,0.114653 0.295451,0.326319 0.0441,-0.07496 0.136701,-0.180798 0.09701,-0.105833 0.251355,-0.185208 0.15434,-0.07938 0.370416,-0.07938 0.211667,0 0.396875,0.110243 0.185208,0.110243 0.299861,0.3175 0.119062,0.202847 0.119062,0.480659 v 1.331735 h -0.330729 v -1.322916 q 0,-0.277812 -0.15875,-0.445381 -0.15434,-0.171979 -0.388055,-0.171979 -0.242535,0 -0.418923,0.163159 -0.176389,0.16316 -0.176389,0.458611 v 1.318506 h -0.330729 v -1.322916 q 0,-0.277812 -0.15875,-0.445381 -0.15434,-0.171979 -0.388056,-0.171979 -0.242534,0 -0.418923,0.163159 -0.176389,0.16316 -0.176389,0.458611 v 1.318506 z m -1.636006,0.03528 q -0.224896,0 -0.427743,-0.105833 -0.202847,-0.110243 -0.330729,-0.32191 Q 52.67556,55.851519 52.67556,55.538429 V 54.2552 h 0.330729 v 1.274409 q 0,0.299861 0.171979,0.48507 0.176389,0.180798 0.445382,0.180798 0.185208,0 0.335139,-0.08378 0.14993,-0.08819 0.238124,-0.238125 0.0926,-0.149931 0.0926,-0.348368 v -1.27 h 0.330729 v 2.20486 h -0.330729 v -0.343958 q -0.119063,0.15875 -0.291042,0.268993 -0.171979,0.110243 -0.440972,0.110243 z m -1.763887,-0.03528 v -3.086804 h 0.330729 v 3.086804 z m -1.53017,0.03528 q -0.335138,0 -0.582083,-0.14993 -0.246944,-0.154341 -0.379236,-0.414514 -0.132291,-0.260173 -0.132291,-0.573264 0,-0.317499 0.132291,-0.573263 0.132292,-0.260174 0.379236,-0.410104 0.246945,-0.15434 0.582083,-0.15434 0.339549,0 0.582083,0.15434 0.246945,0.14993 0.379236,0.410104 0.132292,0.255764 0.132292,0.573263 0,0.313091 -0.132292,0.573264 -0.132291,0.260173 -0.379236,0.414514 -0.242534,0.14993 -0.582083,0.14993 z m 0,-0.299861 q 0.246945,0 0.414514,-0.114653 0.171979,-0.114652 0.260173,-0.30427 0.08819,-0.194028 0.08819,-0.418924 0,-0.229305 -0.08819,-0.418923 -0.08819,-0.189618 -0.260173,-0.304271 -0.167569,-0.114652 -0.414514,-0.114652 -0.242534,0 -0.414513,0.114652 -0.171979,0.114653 -0.260174,0.304271 -0.08819,0.189618 -0.08819,0.418923 0,0.224896 0.08819,0.418924 0.08819,0.189618 0.260174,0.30427 0.171979,0.114653 0.414513,0.114653 z M 47.794004,56.46006 46.929699,54.2552 h 0.361597 l 0.696735,1.852083 0.692326,-1.852083 h 0.361597 l -0.859895,2.20486 z"
         style="font-size:4.40972px;line-height:1.25;font-family:Questrial;-inkscape-font-specification:'Questrial, Normal';fill:none;stroke:#000000;stroke-width:0.1" />
      <path
         id="path881"
         d="m 39.997972,56.495336 q -0.335138,0 -0.586492,-0.14993 -0.251354,-0.154341 -0.392465,-0.414514 -0.136702,-0.260173 -0.136702,-0.573264 0,-0.317499 0.132292,-0.573263 0.132291,-0.260174 0.379236,-0.410104 0.246944,-0.15434 0.582083,-0.15434 0.339548,0 0.582083,0.15434 0.246944,0.14993 0.379236,0.410104 0.132291,0.255764 0.132291,0.573263 v 0.132292 h -1.847672 q 0.02646,0.194028 0.123472,0.357187 0.101423,0.15875 0.268993,0.255764 0.167569,0.0926 0.388055,0.0926 0.233715,0 0.392465,-0.101423 0.15875,-0.105834 0.246945,-0.268993 h 0.361597 q -0.114653,0.295451 -0.366007,0.485069 -0.246945,0.185208 -0.63941,0.185208 z M 39.226271,55.18124 h 1.499305 q -0.0441,-0.282222 -0.238125,-0.47184 -0.194027,-0.189618 -0.511527,-0.189618 -0.3175,0 -0.511528,0.189618 -0.189618,0.189618 -0.238125,0.47184 z m -4.034893,1.278818 v -2.20486 h 0.330729 v 0.335139 q 0.07496,-0.132291 0.238125,-0.251354 0.163159,-0.119062 0.432152,-0.119062 0.220486,0 0.405695,0.119062 0.189617,0.114653 0.295451,0.326319 0.0441,-0.07496 0.136701,-0.180798 0.09701,-0.105833 0.251354,-0.185208 0.15434,-0.07938 0.370417,-0.07938 0.211666,0 0.396874,0.110243 0.185209,0.110243 0.299861,0.3175 0.119063,0.202847 0.119063,0.480659 v 1.331735 h -0.330729 v -1.322916 q 0,-0.277812 -0.15875,-0.445381 -0.15434,-0.171979 -0.388055,-0.171979 -0.242535,0 -0.418924,0.163159 -0.176389,0.16316 -0.176389,0.458611 v 1.318506 h -0.330729 v -1.322916 q 0,-0.277812 -0.15875,-0.445381 -0.15434,-0.171979 -0.388055,-0.171979 -0.242535,0 -0.418923,0.163159 -0.176389,0.16316 -0.176389,0.458611 v 1.318506 z m -1.636006,0.03528 q -0.224896,0 -0.427743,-0.105833 -0.202847,-0.110243 -0.330729,-0.32191 -0.123472,-0.216076 -0.123472,-0.529166 V 54.2552 h 0.330729 v 1.274409 q 0,0.299861 0.171979,0.48507 0.176389,0.180798 0.445381,0.180798 0.185209,0 0.335139,-0.08378 0.149931,-0.08819 0.238125,-0.238125 0.0926,-0.149931 0.0926,-0.348368 v -1.27 h 0.330729 v 2.20486 h -0.330729 v -0.343958 q -0.119062,0.15875 -0.291041,0.268993 -0.171979,0.110243 -0.440972,0.110243 z m -1.763888,-0.03528 v -3.086804 h 0.330729 v 3.086804 z m -1.530169,0.03528 q -0.335139,0 -0.582083,-0.14993 -0.246944,-0.154341 -0.379236,-0.414514 -0.132292,-0.260173 -0.132292,-0.573264 0,-0.317499 0.132292,-0.573263 0.132292,-0.260174 0.379236,-0.410104 0.246944,-0.15434 0.582083,-0.15434 0.339548,0 0.582083,0.15434 0.246944,0.14993 0.379236,0.410104 0.132291,0.255764 0.132291,0.573263 0,0.313091 -0.132291,0.573264 -0.132292,0.260173 -0.379236,0.414514 -0.242535,0.14993 -0.582083,0.14993 z m 0,-0.299861 q 0.246944,0 0.414514,-0.114653 0.171979,-0.114652 0.260173,-0.30427 0.08819,-0.194028 0.08819,-0.418924 0,-0.229305 -0.08819,-0.418923 -0.08819,-0.189618 -0.260173,-0.304271 -0.16757,-0.114652 -0.414514,-0.114652 -0.242535,0 -0.414514,0.114652 -0.171979,0.114653 -0.260173,0.304271 -0.0882,0.189618 -0.0882,0.418923 0,0.224896 0.0882,0.418924 0.08819,0.189618 0.260173,0.30427 0.171979,0.114653 0.414514,0.114653 z M 27.791871,56.46006 26.927566,54.2552 h 0.361597 l 0.696736,1.852083 0.692326,-1.852083 h 0.361597 l -0.859895,2.20486 z"
         style="font-size:4.40972px;line-height:1.25;font-family:Questrial;-inkscape-font-specification:'Questrial, Normal';fill:none;stroke:#000000;stroke-width:0.1" />
      <path
         id="path5455"
         style="display:inline;fill:none;fill-opacity:1;stroke:#000000;stroke-width:0.0960836;stroke-dasharray:none;stroke-opacity:1"
         d="m 56.277363,58.889314 c -0.134315,3.62e-4 -0.285747,0.0083 -0.421846,0.02375 -0.272204,0.03079 -0.567951,0.109347 -0.657109,0.17454 -0.112194,0.08205 -0.178128,0.273795 -0.21423,0.623015 l -0.05207,0.50462 -0.78161,0.697818 c -0.429884,0.383756 -0.937261,0.802728 -1.127465,0.931046 -0.19021,0.128314 -0.447365,0.233228 -0.571451,0.233228 -0.124089,0 -0.584321,0.176908 -1.022811,0.393179 -0.438489,0.216272 -1.00077,0.431852 -1.249423,0.479008 -0.248648,0.04716 -0.899458,0.279846 -1.44618,0.517001 L 47.739193,63.897695 46.9681,63.639193 c -0.424132,-0.142097 -0.924018,-0.282732 -1.110845,-0.31261 -0.186827,-0.02987 -0.429861,-0.03172 -0.540069,-0.0041 -0.110209,0.02766 -0.269964,0.168115 -0.355017,0.312099 -0.08504,0.143986 -0.192262,0.585237 -0.238146,0.980577 -0.05657,0.487544 -0.05305,0.929384 0.01085,1.373245 0.05391,0.374469 0.163196,0.745959 0.255617,0.868455 0.130108,0.172447 0.234358,0.212537 0.53566,0.206089 0.205714,-0.0044 0.506084,-0.07645 0.667626,-0.160122 l 0.293784,-0.15215 -0.05835,0.23255 c -0.03214,0.12796 -0.03443,0.308487 -0.0049,0.40098 0.02937,0.09251 0.269704,0.277449 0.534135,0.411162 0.264433,0.133711 0.723052,0.455286 1.019077,0.714608 0.296026,0.259324 0.70316,0.672649 0.904755,0.918495 0.201592,0.245847 0.484694,0.683581 0.629121,0.972601 0.144428,0.289024 0.293373,0.719763 0.330929,0.957338 0.03756,0.237575 0.05011,0.555474 0.028,0.706297 -0.02215,0.150826 -0.09548,0.295356 -0.163006,0.321263 -0.06753,0.02591 -0.325804,-0.05817 -0.573995,-0.186922 -0.24824,-0.128785 -0.736161,-0.452416 -1.084262,-0.719037 -0.348099,-0.266624 -0.856781,-0.679045 -1.13035,-0.916629 -0.27357,-0.237584 -0.809971,-0.725159 -1.19209,-1.083363 -0.382121,-0.358205 -1.480381,-1.427761 -2.440497,-2.37689 -1.495548,-1.478433 -1.783273,-1.725715 -2.008473,-1.725715 -0.144572,0 -0.304714,0.05048 -0.355864,0.112119 -0.05402,0.06508 -0.08571,0.438196 -0.07566,0.890167 0.01575,0.705525 0.04267,0.81855 0.288864,1.212276 0.14934,0.238825 0.584169,0.805493 0.966326,1.259259 0.382157,0.453769 1.137623,1.270134 1.67873,1.814089 0.54111,0.543955 1.415377,1.309374 1.942831,1.700952 0.527455,0.391579 1.154187,0.884413 1.392753,1.095238 0.238567,0.210828 0.664526,0.598286 0.946649,0.860992 0.282125,0.26271 0.7318,0.693488 0.999234,0.957336 0.26743,0.263849 0.677159,0.692831 0.91052,0.953266 0.233359,0.260439 0.514891,0.611266 0.625561,0.779575 0.110664,0.168309 0.402733,0.872662 0.649135,1.565256 0.246404,0.692596 0.441848,1.356962 0.434399,1.476374 -0.0074,0.119412 -0.01669,0.568836 -0.02069,0.998724 -0.0047,0.518256 0.03943,0.906791 0.131288,1.153246 l 0.13841,0.37181 -0.453056,-0.05835 c -0.295448,-0.03804 -0.762955,-0.220286 -1.344411,-0.523788 -0.584938,-0.305307 -0.996648,-0.465266 -1.197009,-0.465266 -0.167961,0 -0.445602,-0.05861 -0.617079,-0.130268 -0.171477,-0.07164 -0.43515,-0.13027 -0.585868,-0.13027 -0.150716,0 -0.370575,0.06651 -0.488677,0.147911 -0.118099,0.0814 -0.263725,0.208407 -0.323635,0.282247 -0.05991,0.07384 -0.265079,0.363452 -0.455939,0.643542 -0.263517,0.386725 -0.347043,0.593816 -0.347043,0.860313 0,0.2947 0.05392,0.402219 0.337206,0.671693 0.185531,0.176489 0.523409,0.42489 0.750739,0.551944 0.227328,0.127056 0.638038,0.289266 0.912728,0.360446 0.33195,0.08602 0.925777,0.129419 1.770665,0.129419 1.043613,0 1.363989,0.03117 1.789493,0.174539 0.285055,0.09604 0.762418,0.322771 1.060974,0.503773 0.298558,0.180998 0.679739,0.390715 0.846914,0.466116 0.167175,0.07541 0.362581,0.158274 0.434227,0.184209 0.07164,0.0259 0.231645,0.05034 0.355524,0.0541 0.123876,0.0038 0.451742,-0.07118 0.72852,-0.166395 0.276777,-0.09522 0.837252,-0.235772 1.24552,-0.312275 0.408273,-0.07651 0.842396,-0.177016 0.964801,-0.223556 0.122409,-0.04654 0.294148,-0.149285 0.381475,-0.22831 0.08732,-0.07903 0.302354,-0.151304 0.47782,-0.160462 0.175471,-0.0092 0.729231,-0.04438 1.230767,-0.07836 0.501535,-0.03398 1.018798,-0.116126 1.149346,-0.182512 0.130545,-0.06638 0.300394,-0.242741 0.377575,-0.391992 0.112306,-0.217319 0.134373,-0.480934 0.110083,-1.323036 -0.02974,-1.031216 -0.03672,-1.063049 -0.361971,-1.651596 -0.182423,-0.330085 -0.611635,-0.994449 -0.953774,-1.476374 -0.342137,-0.481917 -0.671695,-0.927969 -0.732251,-0.991089 -0.06055,-0.06312 -0.110083,-0.129167 -0.110083,-0.146892 0,-0.01775 0.08428,-0.175048 0.187261,-0.349587 0.106979,-0.181316 0.220753,-0.58374 0.265455,-0.938679 0.04303,-0.341665 0.08315,-0.738391 0.08905,-0.881686 0.0061,-0.143297 -0.06069,-0.43878 -0.147911,-0.656599 l -0.158478,-0.396072 0.649479,-0.863199 c 0.357268,-0.474773 1.001159,-1.371241 1.430744,-1.992189 0.429584,-0.620946 1.007156,-1.461176 1.283519,-1.867179 0.276364,-0.406004 0.70319,-0.927134 0.948513,-1.157998 0.245326,-0.230867 0.672958,-0.619624 0.950382,-0.864046 0.432939,-0.381444 0.496752,-0.475882 0.449833,-0.665928 -0.03008,-0.121778 -0.15939,-0.33196 -0.287337,-0.467135 -0.127947,-0.135176 -0.495366,-0.441055 -0.816549,-0.67967 -0.425086,-0.3158 -0.631815,-0.41868 -0.759731,-0.378082 -0.09811,0.03114 -0.196977,0.158774 -0.223729,0.288865 -0.02635,0.12817 -0.09354,0.389379 -0.149436,0.580438 -0.05819,0.19893 -0.280178,0.537641 -0.519375,0.792636 -0.256668,0.273623 -0.475373,0.61467 -0.567211,0.884569 -0.08932,0.262479 -0.743557,1.296485 -1.625807,2.569408 -0.81201,1.171568 -1.495904,2.130094 -1.5198,2.130091 -0.02387,-3e-6 -0.290707,-0.379594 -0.592992,-0.84352 l -0.549569,-0.843522 0.05207,-0.738188 c 0.02864,-0.406003 0.106301,-0.953131 0.172504,-1.215838 0.06619,-0.262709 0.173249,-0.623965 0.237977,-0.802812 0.06473,-0.178848 0.610082,-0.940917 1.211937,-1.693489 0.601859,-0.752571 1.264434,-1.619836 1.472303,-1.927225 0.327153,-0.483778 0.382697,-0.632887 0.413024,-1.109316 0.02573,-0.404317 -0.01519,-0.705445 -0.154182,-1.13459 -0.104072,-0.321311 -0.296037,-0.740495 -0.426425,-0.931555 -0.154402,-0.226244 -0.314026,-0.356505 -0.457973,-0.373503 -0.126154,-0.01491 -0.271845,0.03511 -0.339414,0.11653 -0.07946,0.09576 -0.134446,0.504083 -0.167074,1.242127 l -0.04852,1.099479 -0.673051,0.845556 c -0.370187,0.464994 -0.861054,1.03143 -1.090829,1.258922 -0.229775,0.227495 -0.554675,0.609107 -0.721904,0.847932 -0.16723,0.238825 -0.462888,0.707792 -0.657107,1.042147 -0.194226,0.334355 -0.45128,0.78378 -0.571283,0.998724 -0.119999,0.214941 -0.274003,0.402076 -0.342123,0.415908 -0.06812,0.01383 -0.306579,-0.0532 -0.529894,-0.148923 l -0.40607,-0.174033 0.0038,-0.45899 c 0.0021,-0.252465 0.051,-0.661078 0.108728,-0.907979 0.09959,-0.425901 0.149424,-0.484035 0.973281,-1.136454 0.477598,-0.378216 0.912707,-0.74297 0.966834,-0.810445 0.05412,-0.06747 0.142059,-0.329699 0.195405,-0.582816 0.05334,-0.253118 0.09677,-0.585302 0.09652,-0.738186 -2.61e-4,-0.152887 -0.04171,-0.426459 -0.0921,-0.60792 -0.05808,-0.209118 -0.167851,-0.364645 -0.299718,-0.42473 l -0.208126,-0.09481 0.211179,-0.16606 c 0.205318,-0.161513 0.210709,-0.195682 0.19167,-1.230086 -0.01954,-1.060122 -0.01879,-1.065066 0.232548,-1.363239 0.138734,-0.164583 0.363443,-0.533693 0.499363,-0.82028 0.135918,-0.286593 0.271081,-0.647893 0.300229,-0.802815 0.02902,-0.154923 0.02954,-0.374657 9.6e-4,-0.488337 -0.02974,-0.118471 -0.154396,-0.24548 -0.291918,-0.297513 -0.131965,-0.04993 -0.350592,-0.115005 -0.485962,-0.144686 -0.06769,-0.01484 -0.184912,-0.02209 -0.319223,-0.02172 z m -0.603,1.668893 c 0.07186,0.003 0.161747,0.02408 0.294291,0.05955 l 0.384868,0.102965 -0.240351,0.309219 c -0.132198,0.170056 -0.269044,0.387378 -0.304129,0.482906 -0.0351,0.09551 -0.06182,0.603578 -0.05921,1.128994 l 0.0046,0.9553 -0.530063,0.30396 c -0.291564,0.167178 -0.593931,0.343761 -0.671865,0.392501 -0.07794,0.04873 -0.303726,0.193264 -0.501736,0.321091 -0.198008,0.127826 -0.586606,0.416958 -0.863538,0.642521 -0.276932,0.225565 -0.59313,0.510926 -0.702736,0.63421 -0.109611,0.123285 -0.244616,0.369591 -0.300057,0.547195 -0.07904,0.253147 -0.07705,0.351656 0.0095,0.45594 0.06071,0.07317 0.179508,0.132982 0.263929,0.132982 0.08441,0 0.653402,-0.468494 1.26435,-1.041129 0.784068,-0.734896 1.191491,-1.056336 1.385288,-1.092693 0.151008,-0.02833 0.388279,-0.03858 0.52718,-0.02272 0.206774,0.02359 0.257772,0.07514 0.281568,0.284284 0.01601,0.140485 0.003,0.428678 -0.02867,0.640486 -0.03333,0.222277 -0.138188,0.463094 -0.247985,0.569583 -0.104623,0.101473 -0.345746,0.307705 -0.53583,0.458145 -0.190083,0.150439 -0.542769,0.428304 -0.783814,0.617589 -0.376857,0.295929 -0.453917,0.40981 -0.550078,0.81214 -0.0615,0.257338 -0.133639,0.790988 -0.160293,1.185984 l -0.04852,0.718172 0.338053,0.323976 c 0.289052,0.277041 0.367074,0.437195 0.538883,1.105584 0.110501,0.429886 0.276575,1.039917 0.369095,1.355605 0.140532,0.479527 0.274879,0.695657 0.816381,1.31337 l 0.648288,0.739374 -0.425068,0.26427 c -0.233789,0.145329 -0.48119,0.375002 -0.54974,0.510386 -0.06853,0.135388 -0.173234,0.453096 -0.232718,0.706129 -0.08285,0.352459 -0.203587,0.558071 -0.516153,0.878973 -0.254982,0.261776 -0.657602,0.538893 -1.073359,0.738865 -0.461439,0.221943 -0.769536,0.441909 -1.005677,0.718172 -0.309213,0.361747 -0.348176,0.383242 -0.425577,0.234075 -0.04688,-0.09032 -0.191586,-0.496379 -0.321601,-0.902378 -0.130014,-0.406004 -0.331324,-0.938971 -0.447288,-1.184459 -0.115964,-0.245489 -0.517942,-0.792616 -0.893388,-1.215837 -0.375416,-0.42323 -1.129679,-1.17992 -1.675982,-1.681451 C 48.158922,73.560492 47.597003,73.052445 47.456487,72.933033 47.31597,72.81362 47.006014,72.557444 46.76766,72.363787 46.529305,72.170133 46.080258,71.831703 45.769784,71.611692 45.459313,71.391681 44.729283,70.729466 44.147537,70.140067 43.565785,69.550666 42.829569,68.759356 42.511548,68.381615 42.193527,68.003873 41.83241,67.53501 41.709074,67.339637 41.560487,67.104255 41.479752,66.845696 41.46974,66.573291 l -0.0151,-0.411157 2.180468,2.147899 c 1.199276,1.181338 2.531684,2.444368 2.960891,2.806708 0.429205,0.362339 1.034447,0.846454 1.344918,1.075731 0.310473,0.229274 0.759901,0.508865 0.998725,0.621319 0.238826,0.112453 0.576401,0.204912 0.750229,0.20524 0.181007,5.25e-4 0.402225,-0.06884 0.517681,-0.162327 0.168329,-0.136304 0.207221,-0.263803 0.235942,-0.772111 0.01892,-0.334817 -0.01,-0.815607 -0.06411,-1.068437 -0.05421,-0.252833 -0.217431,-0.693444 -0.362648,-0.979218 -0.145224,-0.285775 -0.439534,-0.747756 -0.654055,-1.026542 -0.214523,-0.278789 -0.660746,-0.734645 -0.991601,-1.013141 -0.330858,-0.278497 -0.75805,-0.581305 -0.949196,-0.672884 -0.19114,-0.09158 -0.347742,-0.186865 -0.3484,-0.211685 -5.24e-4,-0.02483 0.17433,-0.278847 0.388771,-0.564498 0.214443,-0.28565 0.390148,-0.599559 0.390805,-0.697477 5.25e-4,-0.09792 -0.04598,-0.224931 -0.103296,-0.282248 -0.0573,-0.05731 -0.155932,-0.104147 -0.219318,-0.104147 -0.06338,0 -0.471865,0.214943 -0.907639,0.477651 -0.435774,0.262708 -0.881843,0.477651 -0.99126,0.477651 -0.109414,0 -0.224402,-0.0413 -0.255617,-0.09176 -0.03121,-0.05048 -0.03356,-0.184098 -0.0054,-0.296836 0.0283,-0.112737 0.184773,-0.330738 0.347722,-0.484437 0.16295,-0.153696 0.578071,-0.448082 0.922565,-0.654223 0.458774,-0.274531 0.687365,-0.362592 0.854546,-0.329234 0.158748,0.03166 0.528662,-0.09005 1.214989,-0.399795 0.542727,-0.24494 1.004397,-0.427867 1.025863,-0.406412 0.02146,0.02147 -0.08072,0.175399 -0.226952,0.341955 -0.146239,0.16656 -0.265793,0.380809 -0.265793,0.476124 0,0.09532 0.05366,0.217804 0.11924,0.272242 0.06561,0.05443 0.173065,0.07555 0.238827,0.04697 0.06577,-0.02855 0.344296,-0.318439 0.618944,-0.644218 0.274649,-0.325777 0.500955,-0.625561 0.502925,-0.666097 0.0021,-0.04053 0.350777,-0.244233 0.774995,-0.452718 0.424214,-0.208486 0.956431,-0.413517 1.182592,-0.455769 0.257769,-0.04815 0.576165,-0.201851 0.853359,-0.411669 0.243204,-0.18409 0.69936,-0.565093 1.01365,-0.846744 0.314289,-0.281648 0.675837,-0.599891 0.803491,-0.707146 0.133228,-0.111941 0.202848,-0.156779 0.322619,-0.151641 z m 4.174182,2.865225 0.164025,0.390806 c 0.09208,0.219447 0.166145,0.606967 0.168771,0.88389 0.0046,0.479784 -0.01237,0.516315 -0.630478,1.346108 -0.349442,0.469118 -1.009273,1.314781 -1.466196,1.879223 -0.687496,0.849272 -0.861352,1.126352 -1.008733,1.606642 -0.09795,0.319212 -0.226253,0.814924 -0.285131,1.101513 -0.05888,0.286592 -0.110457,0.855514 -0.114494,1.264182 l -0.0073,0.742936 0.484603,0.733436 c 0.266574,0.403338 0.555801,0.855909 0.642691,1.00585 0.155071,0.267589 0.154444,0.278399 -0.03579,0.586206 -0.106592,0.172478 -0.219948,0.31382 -0.251885,0.314476 -0.03192,5.25e-4 -0.424072,-0.380527 -0.87134,-0.846743 -0.447263,-0.466217 -0.900944,-0.964831 -1.00822,-1.108129 -0.109741,-0.146581 -0.293976,-0.662159 -0.421169,-1.178692 -0.124339,-0.504952 -0.250511,-0.981767 -0.280383,-1.059616 -0.04567,-0.119079 -0.0066,-0.133791 0.246121,-0.09278 0.247862,0.04022 0.325982,0.0129 0.44678,-0.156222 0.08051,-0.112715 0.447017,-0.728592 0.814515,-1.368665 0.483478,-0.842077 0.860657,-1.370207 1.364255,-1.910601 0.382791,-0.410759 0.957604,-1.082615 1.27741,-1.492999 0.389009,-0.499185 0.610621,-0.872866 0.669661,-1.128992 0.04854,-0.210562 0.09149,-0.636856 0.09532,-0.947328 z m -14.181607,0.504114 c 0.06556,0.0044 0.153703,0.02392 0.28123,0.05663 0.212392,0.05449 0.443248,0.118624 0.512932,0.142481 0.08135,0.02783 -0.06271,0.163042 -0.401999,0.377575 -0.290711,0.183811 -0.555176,0.377303 -0.587735,0.429986 -0.03255,0.05269 -0.100884,0.09585 -0.15181,0.09585 -0.05738,0 -0.0718,-0.103204 -0.03815,-0.271391 0.02985,-0.149266 0.05429,-0.337177 0.05429,-0.417606 0,-0.08042 0.05088,-0.215929 0.113137,-0.301077 0.06232,-0.08522 0.108883,-0.119828 0.218133,-0.112458 z m 17.61167,3.703657 0.407938,0.317698 c 0.224286,0.174738 0.407766,0.342549 0.407766,0.372825 0,0.03027 -0.343249,0.37147 -0.762783,0.758372 -0.463491,0.427445 -0.968244,1.006134 -1.286228,1.474849 -0.287828,0.424261 -0.791109,1.162238 -1.118478,1.639888 -0.327369,0.47765 -0.977351,1.376503 -1.444486,1.997448 -0.46714,0.620946 -0.926288,1.216924 -1.020266,1.324395 -0.09398,0.107475 -0.213403,0.195402 -0.265455,0.195402 -0.05205,0 -0.09465,-0.04362 -0.09465,-0.09702 0,-0.05338 0.207723,-0.375804 0.461705,-0.716477 0.253979,-0.34068 0.725098,-1.010262 1.046897,-1.48791 0.321801,-0.477651 0.859867,-1.259261 1.195653,-1.736909 0.335784,-0.477652 0.76352,-1.099165 0.950552,-1.38122 0.187034,-0.282054 0.340088,-0.606012 0.340088,-0.719867 0,-0.130409 0.161125,-0.374546 0.435416,-0.659653 0.246823,-0.25656 0.502617,-0.632213 0.590788,-0.86727 z m -6.61943,7.967233 c 0.07122,6.24e-4 0.138924,0.02471 0.23153,0.07259 0.123828,0.06403 0.263725,0.189383 0.337715,0.252056 0.714226,0.385728 0.735928,0.30691 1.233479,0.742428 0.183867,0.02751 0.161139,0.450619 0.161139,0.533964 0,0.08335 -0.124918,0.476429 -0.277499,0.873545 -0.182768,0.475679 -0.399988,0.856172 -0.636755,1.115253 -0.197659,0.216288 -0.431421,0.582073 -0.519546,0.81282 -0.140109,0.366864 -0.146273,0.464757 -0.04869,0.779234 0.06137,0.197794 0.131136,0.551776 0.155032,0.786701 0.02389,0.234922 -5.25e-4,0.573959 -0.05429,0.753283 -0.06283,0.209692 -0.25982,0.472409 -0.552115,0.736321 -0.249959,0.225691 -0.610735,0.481813 -0.801794,0.569244 -0.19106,0.08744 -0.445085,0.155573 -0.564497,0.151471 -0.119414,-0.0041 -0.503481,-0.05975 -0.85336,-0.123652 -0.354786,-0.06479 -0.832549,-0.227084 -1.080311,-0.367058 -0.420387,-0.237507 -0.45061,-0.278623 -0.56246,-0.764649 -0.06501,-0.28249 -0.152078,-0.904414 -0.193537,-1.382067 -0.04145,-0.477651 -0.09872,-0.966157 -0.127215,-1.085568 -0.03874,-0.162468 0.02369,-0.318749 0.247984,-0.62081 0.229004,-0.308404 0.486623,-0.502194 1.091845,-0.8213 0.486948,-0.256749 0.935175,-0.570667 1.163427,-0.814688 0.20422,-0.218328 0.433712,-0.571575 0.510047,-0.785171 0.07633,-0.213595 0.161528,-0.49485 0.189296,-0.624882 0.02778,-0.130033 0.138039,-0.320118 0.24493,-0.422524 0.106895,-0.102406 0.310869,-0.236731 0.453227,-0.298362 0.106463,-0.04609 0.181168,-0.06883 0.252394,-0.06818 z m -0.704932,4.057339 c -0.272758,-0.08261 -0.30089,-0.09235 -0.435933,-0.129615 -0.179118,-0.04157 -0.451954,-0.07671 -0.606224,-0.07768 -0.248067,-0.0019 -0.310686,0.05067 -0.541937,0.453903 -0.197917,0.345105 -0.261745,0.565454 -0.262402,0.906281 -4.28e-4,0.247658 0.0374,0.550384 0.08396,0.672884 0.04657,0.122501 0.212667,0.30309 0.369093,0.40115 0.205233,0.128648 0.378127,0.166793 0.621151,0.137054 0.238099,-0.02914 0.438348,-0.138639 0.683229,-0.373674 0.190507,-0.18284 0.400366,-0.458287 0.466457,-0.61199 0.06609,-0.153701 0.12026,-0.412234 0.12026,-0.574503 0,-0.167078 -0.07873,-0.393883 -0.180306,-0.523956 -0.136194,-0.174404 -0.08703,-0.130756 -0.31735,-0.279849 z m 2.445574,-0.207471 c 0.0511,9.61e-4 0.22293,0.186708 0.381817,0.412517 0.158883,0.225813 0.513841,0.72846 0.788901,1.116952 0.275062,0.388489 0.584745,0.886438 0.688151,1.106431 0.15305,0.325596 0.187734,0.557523 0.186749,1.247556 -6.55e-4,0.466228 -0.03677,0.903694 -0.08007,0.972094 -0.05537,0.0875 -0.34456,0.142429 -0.975654,0.185395 -0.49334,0.03359 -0.959676,0.08725 -1.03638,0.119073 -0.119651,0.04964 -0.146003,-0.04539 -0.184884,-0.668644 -0.02531,-0.405713 -0.105927,-0.843841 -0.182681,-0.992278 -0.108062,-0.208957 -0.126421,-0.423487 -0.0855,-1.00347 0.04141,-0.586905 0.02301,-0.79595 -0.09023,-1.022982 -0.0783,-0.156949 -0.14231,-0.339896 -0.14231,-0.406582 0,-0.06668 0.06063,-0.238645 0.134846,-0.382152 0.07422,-0.143508 0.218151,-0.356581 0.319736,-0.47341 0.101579,-0.116829 0.226406,-0.211484 0.277497,-0.2105 z m -3.306067,0.669153 c 0.01843,-4.28e-4 0.03805,6.89e-4 0.05903,0.0028 0.117426,0.01238 0.321022,0.06594 0.452376,0.119075 0.164834,0.06668 0.238826,0.159496 0.238826,0.29955 0,0.116619 -0.142067,0.352065 -0.333984,0.553808 -0.183663,0.193073 -0.373068,0.351114 -0.420826,0.351114 -0.04776,0 -0.153096,-0.07332 -0.234246,-0.163005 -0.08115,-0.08967 -0.163057,-0.255761 -0.181831,-0.36909 -0.01877,-0.11333 0.03345,-0.342868 0.116017,-0.510051 0.103295,-0.209122 0.175688,-0.281352 0.304641,-0.284284 z m -1.834785,1.082176 c -0.08818,0.01671 -0.161622,0.122995 -0.177081,0.255957 -0.02245,0.192976 0.07585,0.306635 0.65134,0.753455 0.372781,0.289439 0.763298,0.528973 0.867949,0.531928 0.104653,0.0028 0.215919,-0.03568 0.247136,-0.08618 0.03117,-0.05048 0.03289,-0.177495 0.0039,-0.282251 -0.029,-0.104762 -0.365321,-0.417934 -0.747515,-0.69595 -0.382191,-0.278018 -0.762829,-0.492697 -0.845727,-0.476976 z m -5.543695,0.695445 c 0.08332,-0.002 0.200096,0.02315 0.296326,0.06734 0.128309,0.05895 0.458992,0.139384 0.734796,0.178779 0.332629,0.04752 0.706694,0.189927 1.11101,0.423033 0.33524,0.193279 0.810259,0.411204 1.055716,0.484098 0.245465,0.07291 0.629266,0.132472 0.852851,0.132472 0.324156,0 0.47492,0.0546 0.744126,0.269358 0.185685,0.148115 0.513572,0.358159 0.728518,0.466795 0.214941,0.10864 0.672068,0.260959 1.015857,0.338561 0.343783,0.07761 0.816241,0.141125 1.049947,0.141125 0.300123,0 0.575677,-0.07658 0.938169,-0.260536 0.282277,-0.143248 0.666632,-0.399528 0.854208,-0.569588 0.300125,-0.272096 0.350813,-0.291655 0.422525,-0.163515 0.04481,0.08009 0.08159,0.343423 0.08159,0.585192 0,0.290342 -0.04413,0.471781 -0.130099,0.534645 -0.07159,0.05234 -0.144842,0.172473 -0.162666,0.266812 -0.02491,0.131698 -0.153331,0.19754 -0.552962,0.283605 -0.286264,0.06165 -0.833039,0.195009 -1.215157,0.296497 -0.382123,0.101473 -0.870625,0.199826 -1.085569,0.218471 -0.344262,0.02986 -0.483898,-0.02003 -1.172416,-0.419472 -0.429885,-0.249411 -0.977008,-0.530986 -1.215835,-0.625734 -0.351495,-0.139442 -0.748616,-0.184483 -2.084294,-0.236281 -1.165434,-0.0452 -1.761234,-0.104967 -2.028488,-0.203545 -0.208114,-0.07676 -0.569607,-0.279968 -0.803324,-0.451527 -0.236495,-0.173604 -0.424896,-0.381427 -0.424896,-0.468661 0,-0.08622 0.177006,-0.397319 0.393349,-0.691201 0.216343,-0.293886 0.453209,-0.557233 0.526501,-0.585363 0.01833,-0.007 0.04245,-0.01065 0.07023,-0.01135 z"
         sodipodi:nodetypes="ssscccsssssccsssssssccccssssscsssssssscsssssssssssscccssssssssssssssscsssssssscsssssssscccssssssssssssssccsssssssssscccssssscccssssssscccsscsssssscccccccsssscsssssccsssscccsscccsssssssssssssssscccssscssssssscscsssssssssssssssscssssssscccsssscccsscsssssssssscccsssssssssccssssssssssssssccccccsssssscsscsssscssssssscccsscsssssssccssscsssssssssscccsscsssscsssccssssssssssssssssssscssssssssssssssssss" />
      <path
         style="display:inline;fill:none;fill-opacity:1;stroke:#000000;stroke-width:0.0960836;stroke-dasharray:none;stroke-opacity:1"
         d="m 18.339114,81.73565 c -0.156719,0.102624 -0.197824,0.101189 -0.290268,-0.01023 -0.07276,-0.08766 -0.08898,-0.265837 -0.05,-0.549242 0.05388,-0.391732 0.04297,-0.426188 -0.164915,-0.520908 -0.168244,-0.07664 -0.222604,-0.166057 -0.222604,-0.366106 0,-0.15628 0.05371,-0.28529 0.131153,-0.315008 0.07214,-0.02769 0.188718,-0.0026 0.259076,0.05583 0.101878,0.08455 0.135059,0.08212 0.162977,-0.01196 0.01927,-0.06497 0.114019,-0.410755 0.210522,-0.768392 0.09651,-0.357641 0.173616,-0.708776 0.17135,-0.780303 -0.0023,-0.07153 0.176575,-0.663531 0.397408,-1.315562 0.220835,-0.652033 0.40152,-1.242159 0.40152,-1.311393 0,-0.06922 0.09954,-0.350964 0.221209,-0.626075 0.121666,-0.275104 0.203051,-0.547516 0.180853,-0.60536 -0.02219,-0.05784 -0.161755,-0.129449 -0.31013,-0.159124 -0.148368,-0.02969 -0.365866,-0.150055 -0.483326,-0.26751 -0.16768,-0.167683 -0.197788,-0.256522 -0.140154,-0.413554 0.04807,-0.130972 0.157125,-0.209909 0.316007,-0.22873 0.133435,-0.0158 0.402333,0.03655 0.597551,0.116364 0.195216,0.0798 0.479376,0.204899 0.631459,0.277987 0.152086,0.07308 0.765246,0.450129 1.362578,0.837876 0.801231,0.520104 1.211295,0.852642 1.563602,1.268005 0.367261,0.432995 0.496994,0.663131 0.561741,0.99652 0.04631,0.238423 0.108313,0.706605 0.137792,1.040402 0.0502,0.568396 0.03537,0.642659 -0.233661,1.170457 -0.286587,0.562231 -0.289396,0.564626 -1.200959,1.02298 -0.662673,0.333208 -1.043791,0.470873 -1.387203,0.501075 -0.26043,0.02291 -0.538187,0.06148 -0.61724,0.08574 -0.07905,0.02425 -0.51545,0.04637 -0.969768,0.04917 l -0.826034,0.005 -0.113987,0.351204 c -0.06269,0.193161 -0.196141,0.405003 -0.296554,0.470763 z m 1.912543,-1.555376 c 0.42695,-0.03654 0.934145,-0.108932 1.127104,-0.160873 0.19296,-0.05194 0.630747,-0.227257 0.97286,-0.389588 0.464518,-0.220404 0.67308,-0.377255 0.823651,-0.619427 0.168055,-0.270282 0.198799,-0.427558 0.184623,-0.944471 -0.0093,-0.341101 -0.07243,-0.750761 -0.140168,-0.91035 -0.06774,-0.159594 -0.2536,-0.426721 -0.413026,-0.593621 -0.159425,-0.166897 -0.414179,-0.381479 -0.566116,-0.476852 -0.151942,-0.09537 -0.561406,-0.379548 -0.909926,-0.63151 -0.348517,-0.251961 -0.687873,-0.447035 -0.754127,-0.433503 -0.06626,0.01354 -0.258544,0.395255 -0.427311,0.848265 -0.168768,0.453007 -0.377144,0.979713 -0.463062,1.170452 -0.08591,0.190741 -0.181448,0.50286 -0.212297,0.693604 -0.03084,0.190739 -0.167213,0.697935 -0.303029,1.127101 -0.135816,0.429168 -0.27171,0.904596 -0.301982,1.056508 -0.05355,0.268703 -0.04605,0.276943 0.275749,0.303453 0.181933,0.01498 0.680109,-0.0026 1.107057,-0.0392 z M 3.2887931,81.763963 c -0.089618,0 -0.1749218,-0.08694 -0.2057244,-0.209657 -0.028936,-0.115315 -0.00662,-0.43719 0.049548,-0.71528 0.056197,-0.278088 0.2130745,-0.959217 0.348625,-1.513619 0.1355472,-0.554396 0.4431299,-1.500098 0.683514,-2.101556 0.240384,-0.601459 0.5128421,-1.242099 0.6054593,-1.423643 0.092615,-0.181544 0.1955014,-0.474574 0.2286332,-0.651175 0.041709,-0.222332 0.1060461,-0.321092 0.209168,-0.321092 0.093751,0 0.2237963,-0.159839 0.3509773,-0.431379 0.1111248,-0.237255 0.2867664,-0.510968 0.3903171,-0.608248 0.1866204,-0.175322 0.1896116,-0.175388 0.3414915,-0.0075 0.1303659,0.144052 0.1384607,0.214046 0.054265,0.469168 -0.054423,0.164925 -0.2513645,0.517424 -0.4376341,0.783334 -0.1862694,0.265912 -0.3009209,0.506805 -0.2547756,0.535325 0.046145,0.02851 0.2099836,-0.02412 0.3640915,-0.116971 0.1541079,-0.09285 0.491643,-0.237481 0.750081,-0.321397 0.2584357,-0.08392 0.7133914,-0.154905 1.0110091,-0.157746 0.3276492,-0.0032 0.5954739,0.03994 0.6788923,0.109169 0.076848,0.06379 0.1377691,0.245725 0.1377691,0.411479 0,0.163426 -0.056527,0.406454 -0.1256221,0.540066 -0.069083,0.133607 -0.262732,0.356008 -0.4303138,0.494219 -0.1675777,0.138211 -0.418704,0.338347 -0.5580488,0.444743 -0.1393489,0.106396 -0.3579054,0.233195 -0.485683,0.281777 -0.1277777,0.04857 -0.3468292,0.08833 -0.4867806,0.08833 -0.1399524,0 -0.2544575,0.0213 -0.2544575,0.04731 0,0.02602 0.1347105,0.523457 0.2993571,1.105429 0.1646487,0.581972 0.3258434,1.21419 0.3582126,1.40493 0.032373,0.190739 0.09545,0.37225 0.1401717,0.458762 0.063917,0.123632 0.1403209,0.144758 0.3570657,0.09873 0.1516599,-0.03222 0.2356879,-0.154601 0.2978666,-0.236356 0.064459,-0.08476 0.2307333,-0.32607 0.3676084,-0.559925 0.1385061,-0.236626 0.5784339,-0.602184 0.8699759,-0.888295 l 0.5300807,-0.520201 -0.05941,0.3468 c -0.03267,0.19074 -0.201296,0.558895 -0.374693,0.818121 -0.1734002,0.259222 -0.5493612,0.723568 -0.8354697,1.031878 -0.2861127,0.308305 -0.6478935,0.614057 -0.8039575,0.67945 -0.2062295,0.0864 -0.3300488,0.09411 -0.4531893,0.02821 C 6.8540212,81.10726 6.7354017,80.987276 6.6836115,80.890504 6.6318164,80.793731 6.5375352,80.472753 6.474086,80.177215 6.4106437,79.881676 6.2192896,79.171688 6.0488707,78.599467 5.8784478,78.027244 5.6972306,77.393248 5.6461606,77.190588 5.5918661,76.97512 5.5025293,76.822109 5.4310178,76.822109 c -0.067265,0 -0.2223609,0.131194 -0.3446627,0.291538 -0.1223027,0.160346 -0.2864594,0.482221 -0.3648001,0.71528 -0.078339,0.233055 -0.2118685,0.513634 -0.2967388,0.623503 -0.084862,0.109874 -0.2338505,0.441502 -0.3310683,0.736954 -0.097216,0.295452 -0.2406527,0.790786 -0.3187466,1.10074 -0.078092,0.309951 -0.1849857,0.768378 -0.2375432,1.018727 -0.071631,0.341186 -0.1339025,0.455176 -0.2486615,0.455176 z m 3.2616923,-5.11564 c 0.098974,-1.81e-4 0.3165149,-0.08316 0.4834119,-0.184383 0.1668981,-0.10123 0.4497594,-0.29944 0.6285773,-0.440462 0.1788188,-0.141025 0.3251273,-0.285642 0.3251273,-0.321372 0,-0.03572 -0.068282,-0.06795 -0.1517261,-0.0716 -0.083448,-0.0037 -0.4443379,0.07015 -0.8019785,0.164011 -0.3576396,0.09386 -0.7417244,0.230203 -0.8535196,0.302998 l -0.2032674,0.132357 0.1967068,0.209386 c 0.1081845,0.11516 0.2776877,0.209237 0.3766683,0.209061 z m 30.7418156,5.112985 c -0.07153,0 -0.179533,-0.03143 -0.240011,-0.06979 -0.06048,-0.03837 -0.145194,-0.192649 -0.188259,-0.342812 -0.05136,-0.179078 -0.03804,-0.534968 0.0387,-1.034309 0.06435,-0.418706 0.161455,-0.956366 0.215785,-1.194789 0.05434,-0.238425 0.172634,-0.706606 0.262898,-1.040404 0.09027,-0.333798 0.185753,-0.984362 0.212195,-1.445702 l 0.04807,-0.838801 -0.497207,-0.144542 c -0.273463,-0.0795 -0.64469,-0.219783 -0.824943,-0.311741 -0.234443,-0.119603 -0.327735,-0.22346 -0.327735,-0.364847 0,-0.108706 0.04498,-0.242642 0.09999,-0.29763 0.06705,-0.06705 0.150843,-0.07277 0.254381,-0.01733 0.08492,0.04545 0.432626,0.141157 0.77269,0.21269 0.340056,0.07155 0.690616,0.130063 0.779015,0.130063 0.124888,0 0.203273,-0.143334 0.351571,-0.642868 0.140961,-0.47483 0.235874,-0.654645 0.363113,-0.687921 0.09475,-0.02477 0.266617,-0.0092 0.381933,0.03468 0.115318,0.04385 0.230663,0.134425 0.256324,0.201294 0.02565,0.06687 -0.01602,0.425087 -0.09266,0.796038 -0.07661,0.370954 -0.121466,0.720962 -0.09966,0.777799 0.02182,0.05683 0.386366,0.193796 0.810123,0.304355 0.764885,0.199557 0.770201,0.202838 0.733532,0.452662 -0.02031,0.138404 -0.08536,0.270231 -0.144539,0.292938 -0.05919,0.02272 -0.345682,-0.03891 -0.636665,-0.136936 -0.290985,-0.09803 -0.657093,-0.176838 -0.813572,-0.175142 -0.26156,0.0029 -0.30375,0.04438 -0.522938,0.514972 -0.131134,0.281537 -0.238426,0.593524 -0.238426,0.693302 0,0.09978 -0.06176,0.326469 -0.137234,0.503758 -0.07548,0.177289 -0.175712,0.65397 -0.222738,1.059295 -0.04702,0.405321 -0.112069,1.157863 -0.144539,1.672314 -0.04347,0.688694 -0.09334,0.956994 -0.189092,1.017399 -0.07153,0.04513 -0.188573,0.08205 -0.260101,0.08205 z M 12.452665,81.442927 c -0.350432,0.100579 -0.499957,0.104512 -0.780304,0.02054 -0.190738,-0.05714 -0.463938,-0.164956 -0.607107,-0.239617 -0.143168,-0.07467 -0.324133,-0.208019 -0.402146,-0.29635 -0.07802,-0.08833 -0.243737,-0.445787 -0.368273,-0.794344 -0.14435,-0.404019 -0.226429,-0.81441 -0.226429,-1.132152 0,-0.407756 0.06041,-0.615754 0.332189,-1.143612 0.182708,-0.35486 0.446061,-0.841936 0.585229,-1.082386 0.139171,-0.24045 0.386859,-0.601959 0.550424,-0.803349 0.163565,-0.201389 0.495193,-0.512914 0.736952,-0.692273 0.241761,-0.179356 0.73218,-0.467745 1.08982,-0.640866 0.357636,-0.173119 0.85508,-0.374791 1.105426,-0.448153 0.406592,-0.119153 0.501999,-0.119488 0.893845,-0.0032 0.241267,0.07165 0.587566,0.264788 0.769551,0.429201 0.250858,0.226635 0.374153,0.440388 0.509787,0.883787 0.0984,0.32167 0.198668,0.818943 0.222828,1.105053 0.03962,0.469243 0.01485,0.575407 -0.252816,1.083754 -0.16321,0.309955 -0.375213,0.72416 -0.471121,0.920457 -0.0959,0.196301 -0.360171,0.594147 -0.58726,0.884106 -0.227087,0.289961 -0.588454,0.658315 -0.803036,0.818564 -0.214587,0.160249 -0.721782,0.45223 -1.127106,0.648848 -0.405323,0.196618 -0.932029,0.413473 -1.170453,0.481905 z m 0.119497,-0.901729 c 0.113406,0.0049 0.419983,-0.113354 0.681272,-0.26285 0.261295,-0.149498 0.724161,-0.504817 1.028594,-0.7896 0.384795,-0.359955 0.6234,-0.673516 0.782798,-1.028693 0.126103,-0.280996 0.262968,-0.510904 0.304138,-0.510904 0.04118,0 0.07486,-0.0634 0.07486,-0.140885 0,-0.07749 0.101097,-0.366176 0.224678,-0.641538 0.21762,-0.48492 0.220907,-0.517639 0.104607,-1.041233 l -0.120066,-0.540579 -0.58702,-0.216988 -0.587017,-0.216984 -0.641452,0.325582 c -0.426281,0.216371 -0.794053,0.48938 -1.096383,0.813878 -0.250211,0.268561 -0.59608,0.744811 -0.768593,1.058335 -0.172522,0.313526 -0.382637,0.781707 -0.466931,1.040403 -0.08429,0.258697 -0.193039,0.518777 -0.241658,0.577951 -0.05179,0.06302 -0.06414,0.269338 -0.02982,0.498111 0.03267,0.217839 0.15234,0.501976 0.270634,0.642562 0.116644,0.138623 0.358126,0.290835 0.536626,0.338254 0.178503,0.04742 0.417341,0.09024 0.530751,0.09518 z m 20.870095,0.962663 c -0.06431,0 -0.157273,-0.04877 -0.206574,-0.108376 -0.04931,-0.05961 -0.128243,-0.30345 -0.175423,-0.541875 -0.04718,-0.238427 -0.133457,-0.570056 -0.191723,-0.736952 -0.05827,-0.166898 -0.158104,-0.420497 -0.221866,-0.563551 -0.06377,-0.143059 -0.175565,-0.498064 -0.248445,-0.788906 -0.07289,-0.29084 -0.129046,-0.68099 -0.12481,-0.867001 0.0043,-0.186012 -0.05858,-0.591802 -0.139596,-0.901753 -0.08102,-0.309955 -0.164837,-0.620376 -0.186263,-0.689826 -0.02861,-0.09265 -0.09515,-0.058 -0.249885,0.130052 -0.116005,0.140978 -0.279952,0.401151 -0.364327,0.578164 -0.106699,0.223838 -0.196441,0.308869 -0.294712,0.279244 -0.101682,-0.03065 -0.180685,0.05584 -0.281777,0.30849 -0.07727,0.193099 -0.140479,0.407023 -0.140479,0.475391 0,0.06836 -0.112435,0.471187 -0.249858,0.895159 -0.137422,0.423973 -0.294855,0.854938 -0.349849,0.957697 -0.055,0.102767 -0.177876,0.18684 -0.273065,0.18684 -0.09519,0 -0.193772,-0.05393 -0.219065,-0.119858 -0.02529,-0.06592 0.01212,-0.329276 0.08318,-0.585229 0.07104,-0.255953 0.33068,-1.048195 0.576967,-1.760538 0.246286,-0.712345 0.541704,-1.418299 0.65649,-1.568788 0.114783,-0.150491 0.208698,-0.30588 0.208698,-0.34531 0,-0.03942 0.05468,-0.133282 0.121511,-0.208565 0.06682,-0.07529 0.139967,-0.362278 0.162527,-0.637763 0.03556,-0.434305 0.08223,-0.540909 0.351045,-0.801979 0.170515,-0.1656 0.371449,-0.301091 0.446521,-0.301091 0.07507,0 0.171305,0.09156 0.213852,0.203471 0.04255,0.111907 0.08039,0.55083 0.08412,0.975376 0.0038,0.424551 0.0865,1.162061 0.183949,1.63891 0.09745,0.476853 0.211293,1.003558 0.252968,1.170455 0.04167,0.166897 0.164758,0.726497 0.273516,1.243557 0.162021,0.770253 0.211922,0.903401 0.276204,0.736952 0.04315,-0.111735 0.148668,-0.495767 0.234483,-0.853406 0.08582,-0.357637 0.18336,-0.864836 0.216767,-1.127103 0.03341,-0.26227 0.130931,-0.638598 0.216721,-0.836287 0.08579,-0.197689 0.181752,-0.490301 0.213252,-0.650251 0.03149,-0.159951 0.08862,-0.368846 0.126912,-0.464221 0.0383,-0.09537 0.114058,-0.312719 0.16835,-0.483004 0.0543,-0.170284 0.09872,-0.375644 0.09872,-0.456352 0,-0.08071 0.04877,-0.234002 0.108376,-0.340646 0.05961,-0.106647 0.113527,-0.205552 0.119818,-0.219797 0.0063,-0.01426 0.11726,6.56e-4 0.246588,0.03312 0.196574,0.04934 0.228411,0.09624 0.194098,0.285998 -0.02257,0.124835 -0.125484,0.551723 -0.228692,0.948633 -0.103203,0.396908 -0.259243,0.904107 -0.346748,1.127105 -0.08751,0.222992 -0.225704,0.756585 -0.307108,1.185749 -0.0814,0.429166 -0.245846,1.150948 -0.365434,1.603958 -0.119586,0.453007 -0.292933,1.087003 -0.385213,1.408877 -0.100427,0.350308 -0.214719,0.585227 -0.284719,0.585227 z m -5.681373,-0.09323 c -0.07461,-0.0037 -0.448252,-0.114829 -0.830298,-0.247197 -0.382048,-0.132369 -0.819032,-0.305 -0.971075,-0.383626 -0.152044,-0.07863 -0.317393,-0.142953 -0.367447,-0.142953 -0.05006,0 -0.091,0.118993 -0.091,0.264426 v 0.264428 l -0.498525,-0.02598 -0.498529,-0.02602 0.0026,-0.650254 c 0.0016,-0.357636 0.09077,-1.053966 0.198444,-1.547392 0.107677,-0.493431 0.219104,-1.215209 0.247613,-1.603958 0.0285,-0.388745 0.08994,-0.75515 0.13651,-0.814232 0.04657,-0.05907 0.120081,-0.08553 0.163363,-0.05879 0.04328,0.02674 0.132824,-0.08098 0.198983,-0.239378 0.06617,-0.158411 0.185523,-0.539846 0.265255,-0.847635 0.131939,-0.509332 0.132654,-0.568621 0.008,-0.65981 -0.07537,-0.05512 -0.137022,-0.156713 -0.137022,-0.225789 0,-0.06907 0.05186,-0.196517 0.11524,-0.283196 0.09583,-0.131044 0.147185,-0.140502 0.304856,-0.05611 0.172361,0.09225 0.194325,0.07797 0.241293,-0.156883 0.02841,-0.142098 0.108626,-0.280218 0.178237,-0.306927 0.06961,-0.02671 0.299775,-0.0049 0.51147,0.04834 0.285972,0.07201 0.39768,0.147842 0.434626,0.295048 0.02737,0.108977 0.0071,0.277763 -0.04496,0.375086 -0.07966,0.148849 -0.05943,0.201773 0.127303,0.333202 0.122106,0.08594 0.37968,0.283049 0.572386,0.438025 0.192709,0.154978 0.420542,0.281776 0.506298,0.281776 0.08575,0 0.179606,0.06172 0.20855,0.137141 0.02893,0.07543 0.05263,0.209806 0.05263,0.298617 0,0.08881 -0.08779,0.2616 -0.195074,0.383976 l -0.19508,0.222501 -0.675458,-0.387394 c -0.665811,-0.381854 -0.676473,-0.384656 -0.746069,-0.195988 -0.03885,0.105273 -0.139801,0.405988 -0.224369,0.668255 -0.08458,0.262269 -0.171009,0.521915 -0.192083,0.576995 -0.02188,0.05721 0.0851,0.126451 0.24958,0.16151 0.158341,0.03375 0.504353,0.20795 0.768919,0.387109 0.264563,0.179156 0.604789,0.389741 0.756056,0.467963 0.151269,0.07822 0.319121,0.224602 0.373005,0.325291 0.08083,0.151028 0.0664,0.214636 -0.08243,0.363471 l -0.180452,0.180404 -0.630274,-0.296021 c -0.346645,-0.162811 -0.727806,-0.380421 -0.847019,-0.483576 -0.119213,-0.103151 -0.314288,-0.208792 -0.433503,-0.234748 -0.119213,-0.02595 -0.299436,-0.07306 -0.400495,-0.104696 -0.167646,-0.05246 -0.188288,-0.01701 -0.235563,0.404828 -0.02851,0.254277 -0.07758,0.667155 -0.10906,0.917501 -0.05683,0.451921 -0.05555,0.455175 0.179436,0.455175 0.130174,0 0.565837,0.154248 0.968141,0.342774 0.402301,0.188527 0.785809,0.321918 0.852241,0.296425 0.07425,-0.02848 0.173278,0.05516 0.257034,0.217127 0.1248,0.241331 0.123941,0.289289 -0.01024,0.57058 -0.08054,0.168907 -0.207497,0.304162 -0.282113,0.300575 z m -1.65054,-8.936596 c -0.02516,-0.0071 -0.153581,-0.02931 -0.285394,-0.04922 -0.173874,-0.02628 -0.287028,-0.129075 -0.412197,-0.37443 -0.09488,-0.186003 -0.226902,-0.571255 -0.293357,-0.85611 -0.08634,-0.370127 -0.09941,-0.661597 -0.04577,-1.021457 0.04129,-0.276948 0.113802,-0.76685 0.161173,-1.088673 0.04737,-0.321821 0.130746,-0.750987 0.185282,-0.953704 0.05453,-0.202712 0.150343,-0.467651 0.212908,-0.588746 0.111492,-0.215808 0.108206,-0.219527 -0.165635,-0.187559 -0.179165,0.02091 -0.319327,-0.0155 -0.390732,-0.101558 -0.06124,-0.07379 -0.132488,-0.291758 -0.158323,-0.484369 -0.02582,-0.192611 -0.07643,-0.350202 -0.112417,-0.350202 -0.03601,0 -0.0856,-0.126798 -0.110233,-0.281774 -0.03566,-0.224409 0.06151,-0.4936 0.477315,-1.322181 0.287153,-0.572221 0.624757,-1.206148 0.750225,-1.408721 0.129972,-0.209852 0.294576,-0.368389 0.382569,-0.368478 0.08495,-8.5e-5 0.175403,0.05446 0.201016,0.121202 0.02563,0.06674 -0.01105,0.310591 -0.08147,0.541878 -0.07042,0.231285 -0.287682,0.762608 -0.482792,1.180719 -0.263765,0.565232 -0.354744,0.869345 -0.354744,1.18577 0,0.335003 0.03227,0.43256 0.151725,0.458398 0.08345,0.01805 0.376217,-0.04124 0.650597,-0.131769 0.354177,-0.116857 0.574674,-0.256552 0.76023,-0.481646 0.143746,-0.174376 0.417843,-0.617823 0.609099,-0.985434 0.191261,-0.367608 0.382471,-0.689842 0.424911,-0.716073 0.04245,-0.02622 0.13887,0.01403 0.214284,0.08943 0.07554,0.07553 0.119414,0.221901 0.0977,0.325922 -0.02169,0.10384 -0.09975,0.46961 -0.17348,0.812818 -0.07372,0.343212 -0.13405,0.665085 -0.13405,0.71528 0,0.06039 0.520404,0.09173 1.538928,0.09266 1.098831,9.61e-4 1.794384,0.04659 2.432183,0.159393 0.517035,0.09145 0.951518,0.216258 1.031604,0.296344 0.117991,0.11799 0.122151,0.177495 0.02825,0.404161 -0.06055,0.146192 -0.142079,0.2658 -0.181165,0.2658 -0.03908,0 -0.09682,-0.04167 -0.128299,-0.09261 -0.03149,-0.05093 -0.115506,-0.07026 -0.186725,-0.04292 -0.07121,0.02733 -0.306322,-0.02853 -0.522454,-0.12414 -0.349044,-0.1544 -0.58006,-0.173829 -2.066955,-0.173829 -0.920696,0 -1.770406,0.03667 -1.888245,0.08146 -0.177878,0.06763 -0.238231,0.186886 -0.355487,0.702412 -0.07767,0.341524 -0.18108,0.938863 -0.229784,1.327419 -0.0487,0.388558 -0.20721,1.08594 -0.352236,1.549735 -0.14503,0.463794 -0.381047,1.020437 -0.524482,1.236983 -0.14343,0.216548 -0.343373,0.451568 -0.444313,0.522266 -0.100935,0.07071 -0.204104,0.122702 -0.229259,0.115555 z m -0.163991,-0.68061 c 0.0426,0 0.155459,-0.126798 0.250796,-0.281777 0.09533,-0.154976 0.249228,-0.535373 0.34199,-0.845326 0.09276,-0.309956 0.28695,-1.148779 0.431536,-1.86406 0.144585,-0.715276 0.263224,-1.407794 0.263637,-1.538928 3.28e-4,-0.131134 -0.02507,-0.238425 -0.05665,-0.238425 -0.03159,0 -0.226902,0.09932 -0.434058,0.220729 -0.259242,0.151929 -0.441801,0.349297 -0.585654,0.633182 -0.140197,0.276664 -0.256379,0.753441 -0.352906,1.448248 -0.07915,0.569688 -0.146029,1.23969 -0.148628,1.488885 -0.0026,0.249197 0.04415,0.571072 0.103883,0.715276 0.05973,0.144208 0.143457,0.262196 0.186059,0.262196 z m -5.169953,-0.3468 c -0.131041,0 -0.21454,-0.06533 -0.249312,-0.195079 -0.02874,-0.10729 -0.0528,-0.575473 -0.05346,-1.040402 -6.57e-4,-0.46493 -0.02616,-0.845327 -0.05671,-0.845327 -0.03053,0 -0.343424,0.29261 -0.695306,0.650252 -0.455024,0.462466 -0.701894,0.650253 -0.854834,0.650253 -0.11828,0 -0.293081,-0.07803 -0.388449,-0.173401 -0.09536,-0.09537 -0.173402,-0.210389 -0.173402,-0.255599 0,-0.04521 0.188986,-0.308564 0.419972,-0.585228 0.230983,-0.276665 0.698407,-0.764978 1.038723,-1.08514 l 0.618753,-0.582107 0.08642,-1.021847 c 0.04754,-0.562016 0.09032,-1.060862 0.09508,-1.108546 0.0047,-0.04768 0.0042,-0.281775 -0.0013,-0.520203 -0.0055,-0.238423 0.0076,-0.687098 0.02913,-0.997053 0.02149,-0.309952 0.06449,-0.663899 0.09552,-0.786548 0.03102,-0.122649 0.177018,-0.294244 0.324431,-0.381323 0.253708,-0.149866 0.27389,-0.150296 0.37792,-0.008 0.06045,0.08266 0.142181,0.449336 0.181631,0.814825 0.03944,0.365489 0.06531,1.064429 0.05749,1.5532 -0.0079,0.488773 0.01255,0.888678 0.04531,0.888678 0.03274,0 0.133823,-0.13793 0.224608,-0.306515 0.09079,-0.168581 0.342783,-0.470322 0.559983,-0.670531 0.217203,-0.200209 0.39945,-0.403661 0.404994,-0.452115 0.0057,-0.04846 0.01602,-0.135964 0.02331,-0.194469 0.0072,-0.05852 0.108126,-0.168575 0.224143,-0.244588 0.157362,-0.103109 0.253432,-0.115468 0.378261,-0.04868 0.09202,0.04925 0.216857,0.209133 0.277394,0.355288 0.101682,0.245491 0.08772,0.301461 -0.183185,0.73462 -0.16129,0.257885 -0.644394,0.884633 -1.073558,1.39277 -0.429167,0.508137 -0.837468,1.027627 -0.907338,1.154423 -0.08835,0.160346 -0.143967,0.650925 -0.182658,1.611225 -0.05212,1.293638 -0.06795,1.390669 -0.251049,1.538934 -0.107483,0.08703 -0.284085,0.158243 -0.392454,0.158243 z m -4.113155,-0.526731 c -0.07461,-0.0037 -0.448251,-0.11483 -0.830297,-0.2472 -0.382045,-0.132369 -0.819033,-0.305001 -0.971073,-0.383622 -0.152043,-0.07862 -0.317395,-0.142953 -0.367446,-0.142953 -0.05006,0 -0.091,0.118992 -0.091,0.264426 v 0.264426 l -0.498525,-0.026 -0.498525,-0.02601 0.0026,-0.650253 c 0.0016,-0.35764 0.09077,-1.053966 0.198441,-1.547397 0.107676,-0.493426 0.219103,-1.215207 0.247615,-1.603955 0.0285,-0.388746 0.08994,-0.755153 0.136507,-0.814231 0.04657,-0.05907 0.120084,-0.08553 0.163365,-0.05879 0.04329,0.02673 0.132825,-0.08098 0.198982,-0.239384 0.06617,-0.158405 0.185524,-0.539842 0.265255,-0.847631 0.13194,-0.509336 0.132655,-0.568621 0.008,-0.65981 -0.07536,-0.05512 -0.13702,-0.156712 -0.13702,-0.225788 0,-0.06907 0.05186,-0.196518 0.115242,-0.283197 0.09583,-0.131049 0.147183,-0.140501 0.304855,-0.05612 0.172361,0.09225 0.194322,0.07796 0.241291,-0.15688 0.02841,-0.142098 0.108629,-0.280218 0.178238,-0.306931 0.06962,-0.0267 0.299776,-0.0049 0.511469,0.04834 0.285973,0.07202 0.39768,0.147843 0.434627,0.295053 0.02737,0.108972 0.0071,0.277762 -0.04496,0.375084 -0.07966,0.14885 -0.05943,0.201772 0.127306,0.333202 0.122106,0.08594 0.379679,0.28305 0.572385,0.438025 0.192708,0.154976 0.420546,0.281778 0.5063,0.281778 0.08574,0 0.179605,0.06172 0.208547,0.137139 0.02893,0.07543 0.05262,0.209804 0.05262,0.298618 0,0.08881 -0.08779,0.261602 -0.195077,0.383976 L 17.30789,65.98631 16.632433,65.598917 c -0.665807,-0.381859 -0.676469,-0.384661 -0.746064,-0.195992 -0.03884,0.105269 -0.139799,0.405985 -0.224373,0.668253 -0.08458,0.262268 -0.171006,0.521915 -0.19208,0.576993 -0.02187,0.05721 0.0851,0.126451 0.24958,0.161513 0.158341,0.03375 0.504354,0.207949 0.768919,0.387107 0.264563,0.179158 0.604789,0.389742 0.756057,0.467965 0.151266,0.07823 0.319119,0.224601 0.373004,0.325289 0.08083,0.151029 0.06639,0.214638 -0.08243,0.363474 l -0.180414,0.180423 -0.630271,-0.296021 c -0.346654,-0.162813 -0.727811,-0.380423 -0.847027,-0.483577 -0.119213,-0.10315 -0.314287,-0.208792 -0.433499,-0.234751 -0.119213,-0.02595 -0.299438,-0.07306 -0.400498,-0.104696 -0.167647,-0.05246 -0.18829,-0.01697 -0.235564,0.404828 -0.0285,0.25428 -0.07758,0.667156 -0.109059,0.917504 -0.05683,0.451923 -0.05556,0.455176 0.179436,0.455176 0.130176,0 0.565838,0.154248 0.96814,0.342773 0.402303,0.188524 0.785814,0.321916 0.852246,0.296423 0.07425,-0.0285 0.173273,0.05516 0.257028,0.21713 0.124801,0.241331 0.123942,0.289288 -0.01023,0.570579 -0.08055,0.168904 -0.207498,0.304163 -0.282112,0.300576 z m -5.672608,-0.610575 c -0.149589,-0.0057 -0.447548,-0.04063 -0.662129,-0.07782 -0.214584,-0.0372 -0.5969097,-0.149842 -0.8496107,-0.25033 C 9.2261916,69.88069 8.8555496,69.716181 8.6552423,69.615609 8.4549377,69.515028 8.0862208,69.276383 7.8358758,69.085279 7.5197413,68.843962 7.3806977,68.676997 7.3806977,68.538691 c 0,-0.131329 0.095954,-0.258136 0.2817769,-0.372397 0.1888616,-0.116125 0.3675423,-0.15782 0.5418781,-0.126441 0.1430542,0.02575 0.3771437,0.156946 0.5202013,0.291545 0.1430541,0.134597 0.4887606,0.349215 0.7682333,0.476925 0.299033,0.136649 0.7271717,0.249652 1.0404057,0.274604 0.457906,0.03648 0.554557,0.01771 0.691811,-0.134596 0.156772,-0.173926 0.153578,-0.181326 -0.183995,-0.425862 -0.188947,-0.136871 -0.582686,-0.343847 -0.874974,-0.459943 -0.5261087,-0.208971 -0.5335527,-0.216747 -0.7426744,-0.776079 -0.179056,-0.478907 -0.199843,-0.633073 -0.136443,-1.011815 0.04114,-0.245756 0.134863,-0.562986 0.2082787,-0.704951 0.07342,-0.141971 0.250935,-0.356956 0.394495,-0.477755 0.1435557,-0.120794 0.3888027,-0.259734 0.5449867,-0.308755 0.156188,-0.04903 0.635115,-0.151728 1.064283,-0.228236 0.429167,-0.07651 0.842736,-0.157576 0.919044,-0.180146 0.08963,-0.0265 0.220044,0.0763 0.368477,0.290473 0.126352,0.182328 0.229734,0.435702 0.229734,0.563047 0,0.165118 -0.06839,0.266645 -0.238425,0.353921 -0.131135,0.0673 -0.45301,0.163319 -0.71528,0.213357 -0.262266,0.05004 -0.694041,0.114925 -0.959496,0.144198 -0.447843,0.04939 -0.49005,0.07369 -0.58523,0.336904 -0.05641,0.15602 -0.102582,0.366706 -0.102582,0.468184 0,0.107095 0.118224,0.273006 0.281779,0.395437 0.154976,0.116009 0.407308,0.274403 0.560733,0.351983 0.153426,0.07759 0.426533,0.170767 0.606901,0.207078 0.274869,0.05534 0.357118,0.126507 0.508215,0.439726 0.140372,0.290992 0.167218,0.459687 0.121306,0.762211 -0.03244,0.213681 -0.135865,0.493393 -0.22986,0.621583 -0.09399,0.128191 -0.357819,0.359871 -0.586281,0.514854 -0.269159,0.182583 -0.51113,0.278184 -0.687362,0.271575 z"
         id="path3213"
         inkscape:label="Sexyrodent"
         sodipodi:nodetypes="cssssscsscssssssssssssssssssscscccssssssssssssssscsssssssssssssssscsssssssssssssssccsssssssssssssssssssssssscssssssssscssssssssssssssssscsssssssscssssssssssscsssssssscccssssssscccssssssssccsssssssscsssssssssssssssssssssssssssssssssssssssscssssccccssssssssssssssssssssscssssssssscssssssssssscccssssssssssssssssssssssscsssscssssssssssssssccsssscsssscssscsssssssscssccsssssssssssssssssssscssssccccssssssssssssssssssssscssssssssscsssssssscssccssssssssssscssssssssssssssssssssssss" />
      <path
         id="rect7321-12-0-9"
         style="display:inline;fill:none;stroke:#000000;stroke-width:0.10271;stroke-dasharray:none;stroke-opacity:1"
         inkscape:label="contour 2"
         d="m 43.063423,84.225736 c -0.03965,0.001 -0.0795,0.0041 -0.119945,0.0082 L 25.17913,86.266788 c -0.647034,0.07405 -1.213872,0.593902 -1.213872,1.208038 v 0.859315 H -0.04407967 v 0.513254 H 23.965258 v 0.329073 H -0.04407967 v 0.277061 H 23.965258 v 0.511138 H -0.04407967 v 0.513254 H 23.965258 v 0.329073 H -0.04407967 v 0.277061 H 23.965258 v 0.511139 H -0.04407967 v 0.513253 H 23.965258 v 0.329074 H -0.04407967 v 0.277061 H 23.965258 V 93.22572 H -0.04407967 v 0.51327 H 23.965258 v 0.329074 H -0.04407967 v 0.277061 H 23.965258 v 2.929328 c 0,0.614136 0.566838,1.004486 1.213872,0.930443 l 17.764348,-2.032853 c 0.647024,-0.07405 1.215464,-0.594425 1.215464,-1.208571 V 94.345125 H 68.04408 V 94.068064 H 44.158942 V 93.73899 H 68.04408 V 93.225737 H 44.158942 V 92.714599 H 68.04408 V 92.437538 H 44.158942 V 92.108464 H 68.04408 V 91.595211 H 44.158942 V 91.084072 H 68.04408 V 90.807011 H 44.158942 V 90.477938 H 68.04408 V 89.964684 H 44.158942 V 89.453546 H 68.04408 V 89.176485 H 44.158942 V 88.847412 H 68.04408 V 88.334158 H 44.158942 v -3.170276 c 0,-0.575753 -0.499891,-0.954323 -1.095519,-0.938403 z m -0.125789,0.5313 c 0.358901,0.0041 0.715562,0.334743 0.71548,0.530776 l -0.0041,9.592608 c -1.23e-4,0.272542 -0.385851,0.741723 -0.762716,0.785005 l -17.552036,2.015864 c -0.417252,0.04796 -0.855501,-0.205287 -0.855602,-0.579605 l -0.0027,-9.684955 c 0.008,-0.32439 0.377989,-0.615604 0.703273,-0.633743 l 17.686854,-2.022232 c 0.02383,-0.0031 0.04776,-0.0041 0.07169,-0.0041 z m -0.488839,0.317929 c -0.03369,10e-4 -0.06799,0.0031 -0.102403,0.0072 l -16.569587,1.900161 c -0.550959,0.06317 -1.024386,0.480715 -1.024386,0.966 v 8.678097 c 0,0.485286 0.473427,0.794577 1.024386,0.7314 l 16.569587,-1.900171 c 0.550959,-0.06317 1.02279,-0.480715 1.02279,-0.966001 v -8.678096 c 0,-0.454955 -0.41458,-0.755136 -0.920357,-0.738826 z m -0.02126,0.260083 c 0.398885,-0.01417 0.68444,0.216842 0.684163,0.508478 l -0.0082,8.65474 c -2.26e-4,0.241677 -0.393483,0.634061 -0.765376,0.677261 l -16.561617,1.923507 c -0.440744,0.05115 -0.765624,-0.191041 -0.765369,-0.502109 l 0.0074,-8.677563 c 2.33e-4,-0.283839 0.370341,-0.62378 0.758471,-0.668767 l 16.569366,-1.909179 c 0.02753,-0.0031 0.05464,-0.0051 0.08124,-0.0062 z"
         sodipodi:nodetypes="cccsccccccccccccccccccccccccccccccccsscsccccccccccccccccccccccccccccccccsccccccccccccccccssccssccccccccccccc" />
      <path
         style="display:inline;fill:none;fill-opacity:1;stroke:#000000;stroke-width:0.10271;stroke-dasharray:none;stroke-opacity:1"
         d="m 25.907748,96.504322 c -0.124044,-0.02483 -0.143493,-0.05069 -0.184174,-0.243375 -0.07767,-0.367944 -0.06328,-0.812587 0.04329,-1.337439 0.03399,-0.167338 0.07311,-0.234661 0.179983,-0.309577 0.110361,-0.07745 0.204705,-0.10157 0.410019,-0.104754 0.180876,-0.0031 0.182818,-0.0021 0.276816,0.04509 0.05532,0.02809 0.112515,0.07022 0.137601,0.101775 0.04947,0.06188 0.04928,0.05801 0.0293,0.575464 -0.01229,0.318565 -0.0042,0.379476 0.05421,0.405613 0.13574,0.06076 0.490559,0.05088 0.870043,-0.02484 0.336843,-0.06676 0.610842,-0.11762 0.751639,-0.139502 0.06549,-0.01046 0.126704,-0.0233 0.136017,-0.02931 0.03832,-0.02473 0.180034,-0.704597 0.230113,-1.10403 0.07416,-0.591474 0.06189,-1.087585 -0.03432,-1.389387 -0.03444,-0.108013 -0.07228,-0.185831 -0.102566,-0.210906 -0.03243,-0.02697 -0.145527,-0.009 -0.619196,0.09384 -0.58667,0.128296 -0.945639,0.195773 -1.105473,0.207762 -0.182683,0.01395 -0.676889,-0.0031 -0.830045,-0.02789 -0.20069,-0.03277 -0.365314,-0.108948 -0.431654,-0.20005 -0.02549,-0.03491 -0.02667,-0.09801 -0.03473,-1.845681 -0.0045,-0.995233 -0.0087,-2.017111 -0.0095,-2.270876 l -9.99e-4,-0.461385 0.04651,-0.06982 c 0.120205,-0.180579 0.372388,-0.294515 0.661257,-0.298769 0.234506,-0.0031 0.380293,0.0515 0.467455,0.176313 0.03391,0.04855 0.03432,0.05282 0.04515,0.487388 0.006,0.241115 0.01229,0.817159 0.01393,1.280121 l 0.0032,0.841737 -0.04034,0.382631 c -0.04568,0.433123 -0.05714,0.900726 -0.02549,1.040249 0.03648,0.160885 0.06087,0.222621 0.09086,0.230123 0.04106,0.01046 0.277802,-0.01812 0.593619,-0.07124 0.299338,-0.05028 1.142761,-0.199508 1.192122,-0.210897 l 0.03128,-0.0061 v -2.05297 c 0,-1.565566 0.004,-2.066909 0.01684,-2.111526 0.02644,-0.09191 0.152467,-0.213229 0.292098,-0.281326 0.158311,-0.07716 0.282094,-0.108081 0.448743,-0.111791 0.120487,-0.0031 0.158845,0.0031 0.28768,0.04204 l 0.148657,0.04519 0.0059,2.413483 c 0.005,2.049027 0.0094,2.465773 0.02884,2.75974 0.03164,0.477077 0.04421,1.332737 0.02382,1.619526 -0.04241,0.596288 -0.164626,1.136427 -0.299918,1.325595 -0.08219,0.114914 -0.205328,0.214357 -0.385256,0.311094 -0.180409,0.09698 -0.305366,0.13873 -0.622981,0.208026 -0.473429,0.10327 -0.926565,0.170067 -1.306818,0.19263 -0.110871,0.0061 -0.373624,0.03695 -0.583896,0.06758 -0.397985,0.05791 -0.785485,0.08427 -0.899529,0.06136 z m 5.482475,-0.709582 c -0.0883,-0.01497 -0.165151,-0.06686 -0.198068,-0.133814 -0.04239,-0.08621 -0.03666,-0.606199 0.01191,-1.080204 0.07256,-0.708127 0.0936,-1.19062 0.09353,-2.144839 -5.3e-5,-0.704065 -0.0061,-0.906668 -0.05561,-1.838302 -0.04604,-0.868117 -0.05493,-1.116854 -0.06421,-1.795721 -0.0091,-0.665901 1.05e-4,-0.897407 0.04441,-1.11836 0.04226,-0.210591 0.08878,-0.293111 0.203985,-0.361707 0.204131,-0.121559 0.501708,-0.180029 1.227004,-0.241073 0.175865,-0.01476 0.494922,-0.04864 0.709018,-0.07501 0.94747,-0.117183 1.356843,-0.15437 1.779496,-0.161934 l 0.347557,-0.0061 0.066,0.03837 c 0.09051,0.05272 0.107821,0.09272 0.107821,0.249022 0,0.231903 -0.0649,0.982215 -0.09101,1.051758 -0.0403,0.107453 -0.480621,0.197748 -0.930848,0.190919 -0.149335,-0.0021 -0.263747,-0.01091 -0.310772,-0.02392 -0.0409,-0.01125 -0.07601,-0.02248 -0.07791,-0.02473 -0.0021,-0.0021 0.0172,-0.233879 0.0424,-0.51441 0.02531,-0.280531 0.0322,-0.209879 0.03569,-0.345229 0.0021,-0.07215 -0.07271,-0.0284 -0.208201,-0.03583 -0.113559,0.0031 -0.428696,0.03235 -0.619828,0.05863 -0.359519,0.05099 -0.957175,0.167268 -0.977447,0.20638 -0.05055,0.0975 -0.01274,1.041092 0.02768,1.805094 0.06442,1.21766 0.08634,2.320367 0.06563,3.297963 -0.01628,0.769121 -0.02288,0.89403 -0.08302,1.576162 -0.05556,0.630067 -0.07683,0.82589 -0.05797,0.861461 0.03107,0.05862 0.182067,0.02015 0.733157,-0.05689 0.187334,-0.02606 0.397477,-0.05598 0.481585,-0.06218 0.369192,-0.02718 0.576162,-0.05486 0.696743,-0.177027 0.127956,-0.129854 0.120593,-0.08122 0.1832,-1.099756 0.0244,-0.397592 0.05371,-1.759009 0.0407,-1.896436 -0.0211,-0.223497 -0.07761,-0.38767 -0.138653,-0.402274 -0.019,-0.0041 -0.09871,6e-4 -0.177089,0.01046 -0.29403,0.03979 -0.57088,0.02259 -0.70236,-0.04356 -0.146812,-0.07389 -0.179704,-0.217339 -0.09355,-0.407963 0.04245,-0.09384 0.144241,-0.228209 0.204633,-0.269967 0.06743,-0.04661 0.384966,-0.09221 1.153326,-0.165577 0.322811,-0.03094 0.400341,-0.01046 0.675529,0.172203 l 0.165558,0.110251 0.0089,0.485618 c 0.0049,0.267098 0.02141,0.6796 0.0369,0.916684 0.06521,0.998867 0.06511,1.471966 -1.5e-4,1.927824 -0.032,0.223618 -0.105136,0.529838 -0.158786,0.665035 -0.08511,0.214551 -0.29617,0.339429 -0.731737,0.432959 -0.633386,0.136012 -1.677662,0.284583 -2.695738,0.383528 -0.436422,0.04244 -0.68467,0.05577 -0.769442,0.04132 z m 5.767328,-0.69964 c -0.123003,-0.01608 -0.110763,0.04356 -0.129624,-0.632152 -0.0192,-0.689076 -0.0365,-1.026213 -0.113511,-2.215388 -0.109667,-1.693549 -0.127344,-2.102399 -0.127734,-2.954801 -4.8e-4,-0.991436 0.04731,-1.674893 0.170198,-2.436096 0.0433,-0.267982 0.03481,-0.246927 0.115192,-0.285416 0.152644,-0.07317 0.594452,-0.143278 0.933516,-0.148367 0.137665,-0.0021 0.220014,0.0021 0.242306,0.01384 0.09051,0.04539 0.3875,0.620874 0.77005,1.659067 0.117991,0.320225 0.264686,0.664191 0.302982,0.760836 0.182287,0.460021 0.570839,1.440203 1.090322,2.577451 0.555778,1.216675 0.745447,1.544317 0.754797,1.519373 0.01651,-0.04418 -0.0121,-1.994903 -0.03211,-2.78896 -0.0161,-0.63784 -0.01771,-1.122938 -0.008,-2.404962 0.006,-0.88325 0.01631,-1.617004 0.0217,-1.630552 0.0127,-0.03185 0.07942,-0.07399 0.166268,-0.104854 0.113602,-0.04051 0.316843,-0.06819 0.711184,-0.09688 0.444366,-0.03225 0.426384,-0.03166 0.415533,-0.01302 -0.0115,0.01913 -0.04311,0.414306 -0.06401,0.800265 -0.02351,0.433294 -0.0206,1.735013 0.006,2.801122 0.0275,1.093547 0.0303,1.168503 0.07232,1.915844 0.07941,1.414076 0.0777,2.06692 -0.007,2.688141 -0.02831,0.207365 -0.04331,0.254842 -0.09281,0.294088 -0.118301,0.09373 -0.440206,0.159247 -0.813613,0.165637 -0.334595,0.0051 -0.316613,0.017 -0.394901,-0.245978 -0.160227,-0.538134 -0.48992,-0.995071 -1.008726,-1.991189 -0.431583,-0.828659 -0.330112,-0.687315 -1.249638,-2.788308 -0.38048,-0.869318 -0.648298,-1.607223 -0.654938,-1.61451 -0.0159,-0.0175 0.0127,0.895137 0.0295,2.07327 0.0126,0.878619 0.0482,3.485769 0.06081,4.45228 l 0.006,0.428135 -0.035,0.02859 c -0.0193,0.01567 -0.06701,0.03888 -0.106086,0.05129 -0.21109,0.06758 -0.86077,0.144997 -1.030336,0.122729 z"
         id="path3141-3-2"
         sodipodi:nodetypes="cssccccssccssscccccsccscssccssccccssccccccsssscccccssscsssccccssscccssccsssssccsssccscscccsssssscccsssscscssssccscccsssssccsssssccccc"
         inkscape:label="logo" />
      <path
         id="path10508-7-7-3"
         style="display:inline;fill:none;fill-opacity:1;stroke:#000000;stroke-width:0.107438;stroke-dasharray:none;stroke-opacity:1"
         d="m 40.44792,108.00476 a 6.4462805,6.4462805 0 0 1 -6.44628,6.44629 6.4462805,6.4462805 0 0 1 -6.44628,-6.44629 6.4462805,6.4462805 0 0 1 6.44628,-6.44632 6.4462805,6.4462805 0 0 1 6.44628,6.44632 z"
         inkscape:label="FS RIGHT" />
      <path
         id="path3100"
         style="font-style:normal;font-weight:400;font-size:35.2778px;font-family:'Source Code Pro';fill:none;stroke:#000000;stroke-width:0.1;stroke-linecap:round;stroke-linejoin:bevel;stroke-dasharray:none;stroke-dashoffset:0;stroke-opacity:1"
         d="m 15.000476,108.00372 c 0,-2.20927 -1.7909,-4.00017 -4,-4.00017 m -4,4.00017 c 0,2.2091 1.7909,4 4,4 2.2091,0 4,-1.7909 4,-4 m -4,-4.00017 c -2.2091,0 -4,1.7909 -4,4.00017" />
      <path
         id="path3124"
         style="font-style:normal;font-weight:400;font-size:35.2778px;font-family:'Source Code Pro';fill:none;stroke:#000000;stroke-width:0.1;stroke-linecap:round;stroke-linejoin:bevel;stroke-dasharray:none;stroke-dashoffset:0;stroke-opacity:1"
         d="m 58.000476,44.064735 c 0,-2.2091 -1.7909,-4 -4,-4 m -4,4 c 0,2.2092 1.7909,4 4,4 2.2091,0 4,-1.7908 4,-4 m -4,-4 c -2.2091,0 -4,1.7909 -4,4" />
      <path
         id="path3118"
         style="font-style:normal;font-weight:400;font-size:35.2778px;font-family:'Source Code Pro';fill:none;stroke:#000000;stroke-width:0.1;stroke-linecap:round;stroke-linejoin:bevel;stroke-dasharray:none;stroke-dashoffset:0;stroke-opacity:1"
         d="m 58.000476,14.063709 c 0,-2.209067 -1.7909,-3.999967 -4,-3.999967 m -4,3.999967 c 0,2.209192 1.7909,3.999992 4,3.999992 2.2091,0 4,-1.7908 4,-3.999992 m -4,-3.999967 c -2.2091,0 -4,1.7909 -4,3.999967" />
      <path
         id="path3112"
         style="font-style:normal;font-weight:400;font-size:35.2778px;font-family:'Source Code Pro';fill:none;stroke:#000000;stroke-width:0.1;stroke-linecap:round;stroke-linejoin:bevel;stroke-dasharray:none;stroke-dashoffset:0;stroke-opacity:1"
         d="m 38.000476,44.064735 c 0,-2.2091 -1.79086,-4 -4,-4 m -4,4 c 0,2.2092 1.79086,4 4,4 2.20914,0 4,-1.7908 4,-4 m -4,-4 c -2.20914,0 -4,1.7909 -4,4" />
      <path
         id="path3106"
         style="font-style:normal;font-weight:400;font-size:35.2778px;font-family:'Source Code Pro';fill:none;stroke:#000000;stroke-width:0.1;stroke-linecap:round;stroke-linejoin:bevel;stroke-dasharray:none;stroke-dashoffset:0;stroke-opacity:1"
         d="m 38.000476,14.063709 c 0,-2.209067 -1.79086,-3.999967 -4,-3.999967 m -4,3.999967 c 0,2.209192 1.79086,3.999992 4,3.999992 2.20914,0 4,-1.7908 4,-3.999992 m -4,-3.999967 c -2.20914,0 -4,1.7909 -4,3.999967" />
      <path
         id="path3094"
         style="font-style:normal;font-weight:400;font-size:35.2778px;font-family:'Source Code Pro';fill:none;stroke:#000000;stroke-width:0.1;stroke-linecap:round;stroke-linejoin:bevel;stroke-dasharray:none;stroke-dashoffset:0;stroke-opacity:1"
         d="m 18.000476,44.064735 c 0,-2.2091 -1.7909,-4 -4,-4 m -4,4 c 0,2.2092 1.7909,4 4,4 2.2091,0 4,-1.7908 4,-4 m -4,-4 c -2.2091,0 -4,1.7909 -4,4" />
      <path
         id="path3088"
         style="font-style:normal;font-weight:400;font-size:35.2778px;font-family:'Source Code Pro';fill:none;stroke:#000000;stroke-width:0.1;stroke-linecap:round;stroke-linejoin:bevel;stroke-dasharray:none;stroke-dashoffset:0;stroke-opacity:1"
         d="m 18.000476,14.063709 c 0,-2.209067 -1.7909,-3.999967 -4,-3.999967 m -4,3.999967 c 0,2.209192 1.7909,3.999992 4,3.999992 2.2091,0 4,-1.7908 4,-3.999992 m -4,-3.999967 c -2.2091,0 -4,1.7909 -4,3.999967" />
    </g>
  </g>
</svg>
