<?xml version="1.0" encoding="UTF-8" standalone="no"?>
<!-- Created with Inkscape (http://www.inkscape.org/) -->

<svg
   width="68mm"
   height="31.5mm"
   viewBox="0 0 68 31.5"
   version="1.1"
   id="svg319"
   inkscape:version="1.2.2 (b0a8486541, 2022-12-01)"
   sodipodi:docname="template_side_freecad_v3.svg"
   xml:space="preserve"
   xmlns:inkscape="http://www.inkscape.org/namespaces/inkscape"
   xmlns:sodipodi="http://sodipodi.sourceforge.net/DTD/sodipodi-0.dtd"
   xmlns="http://www.w3.org/2000/svg"
   xmlns:svg="http://www.w3.org/2000/svg"><sodipodi:namedview
     id="namedview321"
     pagecolor="#505050"
     bordercolor="#ffffff"
     borderopacity="1"
     inkscape:showpageshadow="0"
     inkscape:pageopacity="0"
     inkscape:pagecheckerboard="1"
     inkscape:deskcolor="#505050"
     inkscape:document-units="mm"
     showgrid="true"
     showborder="true"
     showguides="true"
     inkscape:zoom="8"
     inkscape:cx="102.4375"
     inkscape:cy="20.25"
     inkscape:current-layer="layer1"
     guidecolor="#ff031d"
     guideopacity="0.6"
     inkscape:lockguides="false"><sodipodi:guide
       position="34.000001,31.5"
       orientation="-1,0"
       id="guide444"
       inkscape:locked="false"
       inkscape:label=""
       inkscape:color="rgb(224,27,36)" /><sodipodi:guide
       position="14,31.500002"
       orientation="-1,0"
       id="guide2188"
       inkscape:locked="false"
       inkscape:label=""
       inkscape:color="rgb(224,27,36)" /><sodipodi:guide
       position="54.000001,31.500002"
       orientation="-1,0"
       id="guide2190"
       inkscape:locked="false"
       inkscape:label=""
       inkscape:color="rgb(224,27,36)" /><inkscape:grid
       type="xygrid"
       id="grid2270"
       units="mm"
       spacingx="0.99999998"
       spacingy="0.99999998"
       dotted="true"
       color="#2fb675"
       opacity="0.14901961"
       empcolor="#559253"
       empopacity="0.30196078"
       visible="true"
       originx="0"
       originy="0" /><sodipodi:guide
       position="0,12.5"
       orientation="0,1"
       id="guide189"
       inkscape:locked="false"
       inkscape:label=""
       inkscape:color="rgb(255,3,29)" /><sodipodi:guide
       position="0,17"
       orientation="0,1"
       id="guide191"
       inkscape:locked="false"
       inkscape:label=""
       inkscape:color="rgb(255,3,29)" /></sodipodi:namedview><defs
     id="defs316" /><g
     inkscape:groupmode="layer"
     id="layer1"
     inkscape:label="Layer 1"><path
       id="path13405"
       style="font-size:4.40972px;line-height:1.25;font-family:Questrial;-inkscape-font-specification:'Questrial, Normal';letter-spacing:0.185208px;fill:none;stroke-width:0.1;stroke:#000000;stroke-opacity:1;stroke-dasharray:none"
       d="M 7.5075521,4.9872925 V 7.9064941 H 7.8382812 V 4.9872925 Z m 1.2304158,0 V 7.9064941 H 9.0686971 V 5.4415283 l 1.8035079,2.4649658 h 0.383439 V 4.9872925 H 10.924915 V 7.4434733 L 9.1214071,4.9872925 Z m 3.4173621,0 v 2.9192016 h 0.33073 V 6.8657308 h 0.983402 c 0.31162,0 0.557061,-0.083578 0.736389,-0.2511475 0.179329,-0.1705089 0.269234,-0.4002286 0.269234,-0.68833 0,-0.2881014 -0.0899,-0.5155932 -0.269234,-0.6831625 C 14.026523,5.0725819 13.781082,4.9872925 13.469462,4.9872925 Z m 2.919202,0 v 1.6624308 c 0,0.2587033 0.05333,0.4850009 0.159163,0.6790283 0.105834,0.1940276 0.250942,0.3454629 0.43615,0.4542359 0.188147,0.1058331 0.402823,0.1586466 0.643888,0.1586466 0.244004,0 0.45868,-0.054525 0.643888,-0.1632975 0.188148,-0.108773 0.334967,-0.2602084 0.4408,-0.4542359 0.105833,-0.1940274 0.159164,-0.4186139 0.159164,-0.6743774 V 4.9872925 h -0.33073 v 1.6712158 c 0,0.2263654 -0.0441,0.4102767 -0.132291,0.5513875 -0.08819,0.141111 -0.201343,0.2450268 -0.339514,0.3126424 -0.138172,0.064676 -0.285507,0.097152 -0.441317,0.097152 -0.15287,0 -0.299689,-0.032476 -0.4408,-0.097152 C 15.734762,7.4549226 15.621613,7.3510068 15.533419,7.2098958 15.448164,7.068785 15.405261,6.8848737 15.405261,6.6585083 V 4.9872925 Z m 3.051493,0 v 0.3131592 h 1.01906 v 2.6060424 h 0.330729 V 5.3004517 h 1.018542 V 4.9872925 Z M 12.48606,5.3004517 h 0.961698 c 0.229306,0 0.402273,0.055719 0.519865,0.1674316 0.117592,0.1117128 0.176733,0.2643425 0.176733,0.45837 0,0.1969672 -0.05914,0.351308 -0.176733,0.4630208 -0.117592,0.1117128 -0.290559,0.1679484 -0.519865,0.1679484 H 12.48606 Z" /><path
       id="path13392"
       style="font-size:4.40972px;line-height:1.25;font-family:Questrial;-inkscape-font-specification:'Questrial, Normal';letter-spacing:0.185208px;fill:none;stroke-width:0.1;stroke:#000000;stroke-opacity:1;stroke-dasharray:none"
       d="m 46.480367,4.9516357 c -0.220486,0 -0.421829,0.038287 -0.604097,0.1147217 -0.182268,0.076435 -0.340031,0.1837731 -0.472323,0.3219442 -0.129352,0.1381711 -0.229168,0.2971283 -0.299723,0.4764567 -0.07056,0.1793284 -0.105937,0.37315 -0.105937,0.5818766 0,0.2057868 0.03538,0.4001252 0.105937,0.5823934 0.07055,0.1793284 0.170371,0.3377689 0.299723,0.47594 0.132292,0.1381711 0.290055,0.2455091 0.472323,0.3219441 0.182268,0.076435 0.383611,0.1147217 0.604097,0.1147217 0.220486,0 0.42183,-0.038287 0.604098,-0.1147217 0.182268,-0.076435 0.337803,-0.183773 0.467154,-0.3219441 0.132292,-0.1381711 0.233819,-0.2966116 0.304375,-0.47594 0.07056,-0.1822682 0.105936,-0.3766066 0.105936,-0.5823934 0,-0.2087266 -0.03538,-0.4025482 -0.105936,-0.5818766 C 47.785438,5.6854299 47.683911,5.5264727 47.551619,5.3883016 47.422268,5.2501305 47.266733,5.1427925 47.084465,5.0663574 46.902197,4.9899224 46.700853,4.9516357 46.480367,4.9516357 Z m 2.160592,0.035657 v 1.6624308 c 0,0.2587033 0.05281,0.4850009 0.158646,0.6790283 0.105834,0.1940276 0.251458,0.3454629 0.436666,0.4542359 0.188148,0.1058331 0.402824,0.1586466 0.643889,0.1586466 0.244004,0 0.45868,-0.054525 0.643888,-0.1632975 0.188148,-0.108773 0.334967,-0.2602084 0.4408,-0.4542359 0.105833,-0.1940274 0.158646,-0.4186139 0.158646,-0.6743774 v -1.662431 h -0.330729 v 1.6712158 c 0,0.2263654 -0.0441,0.4102767 -0.132291,0.5513875 -0.08819,0.141111 -0.201343,0.2450268 -0.339515,0.3126424 -0.138171,0.064676 -0.28499,0.097152 -0.440799,0.097152 -0.152871,0 -0.300207,-0.032476 -0.441317,-0.097152 C 49.300672,7.4549226 49.187523,7.3510068 49.099329,7.2098958 49.014075,7.068785 48.971688,6.8848737 48.971688,6.6585083 V 4.9872925 Z m 3.051493,0 v 0.3131592 h 1.018542 v 2.6060424 h 0.33073 V 5.3004517 h 1.018542 V 4.9872925 Z m 2.971912,0 v 2.9192016 h 0.330729 V 6.8657308 h 0.983402 c 0.31162,0 0.557061,-0.083578 0.736389,-0.2511475 0.179329,-0.1705089 0.269235,-0.4002286 0.269235,-0.68833 0,-0.2881014 -0.08991,-0.5155932 -0.269235,-0.6831625 C 56.535556,5.0725819 56.290115,4.9872925 55.978495,4.9872925 Z m 2.919718,0 v 1.6624308 c 0,0.2587033 0.05281,0.4850009 0.158647,0.6790283 0.105833,0.1940276 0.251458,0.3454629 0.436666,0.4542359 0.188147,0.1058331 0.402307,0.1586466 0.643371,0.1586466 0.244005,0 0.458681,-0.054525 0.643888,-0.1632975 0.188148,-0.108773 0.335484,-0.2602084 0.441317,-0.4542359 0.105833,-0.1940274 0.158647,-0.4186139 0.158647,-0.6743774 v -1.662431 h -0.330729 v 1.6712158 c 0,0.2263654 -0.0441,0.4102767 -0.132292,0.5513875 -0.08819,0.141111 -0.201343,0.2450268 -0.339514,0.3126424 -0.138171,0.064676 -0.285507,0.097152 -0.441317,0.097152 -0.15287,0 -0.299689,-0.032476 -0.4408,-0.097152 C 58.243795,7.4549226 58.130646,7.3510068 58.042452,7.2098958 57.957197,7.068785 57.914811,6.8848737 57.914811,6.6585083 V 4.9872925 Z m 3.051493,0 v 0.3131592 h 1.018543 v 2.6060424 h 0.330729 V 5.3004517 h 1.018542 V 4.9872925 Z M 46.480367,5.2735799 c 0.238124,0 0.442373,0.05333 0.612883,0.1591634 0.173448,0.1028934 0.30574,0.2421905 0.396875,0.4185791 0.09407,0.1763887 0.141076,0.3748267 0.141076,0.5953125 0,0.2175459 -0.047,0.415984 -0.141076,0.5953125 -0.09114,0.1763886 -0.223427,0.3173968 -0.396875,0.42323 -0.17051,0.1028934 -0.374759,0.1545125 -0.612883,0.1545125 -0.235185,0 -0.439951,-0.051619 -0.613399,-0.1545125 -0.173449,-0.1058332 -0.306935,-0.2468414 -0.401009,-0.42323 -0.09113,-0.1793285 -0.136943,-0.3777666 -0.136943,-0.5953125 0,-0.2204858 0.04581,-0.4189238 0.136943,-0.5953125 0.09407,-0.1763886 0.22756,-0.3156857 0.401009,-0.4185791 0.173448,-0.1058331 0.378214,-0.1591634 0.613399,-0.1591634 z m 8.514726,0.026872 h 0.961698 c 0.229305,0 0.402789,0.055719 0.520382,0.1674316 0.117592,0.1117128 0.176216,0.2643425 0.176216,0.45837 0,0.1969672 -0.05862,0.351308 -0.176216,0.4630208 -0.117593,0.1117128 -0.291077,0.1679484 -0.520382,0.1679484 h -0.961698 z" /><path
       id="path6643-3"
       style="fill:none;stroke-width:0.09282024;stroke:#000000;stroke-opacity:1;stroke-dasharray:none"
       inkscape:transform-center-y="0.53867608"
       transform="matrix(-0.5386756,0.93301351,-0.93301351,-0.5386756,49.620523,-44.740975)"
       d="m 53.999996,8.9999994 -1.732051,-2.9999998 3.464102,-10e-8 z" /><path
       id="path4681"
       style="fill:none;stroke-width:0.1;stroke:#000000;stroke-opacity:1;stroke-dasharray:none"
       d="m 18.999999,18.999998 a 5,5 0 0 1 -5,5 5,5 0 0 1 -5,-5 5,5 0 0 1 5,-5 5,5 0 0 1 5,5 z" /><path
       id="path4891"
       style="fill:none;stroke-width:0.1;stroke:#000000;stroke-opacity:1;stroke-dasharray:none"
       d="m 58.999996,18.999998 a 5,5 0 0 1 -5,5 5,5 0 0 1 -5,-5 5,5 0 0 1 5,-5 5,5 0 0 1 5,5 z" /><path
       id="path4893"
       style="fill:none;stroke:#000000;stroke-width:0.1;stroke-dasharray:none;stroke-opacity:1"
       d="m 38,14.5 a 4,4 0 0 1 -4,4 4,4 0 0 1 -4,-4 4,4 0 0 1 4,-4 4,4 0 0 1 4,4 z" /><path
       id="circle817-6"
       style="display:inline;fill:none;fill-opacity:1;stroke:#000000;stroke-width:0.1;stroke-linecap:butt;stroke-linejoin:miter;stroke-miterlimit:4;stroke-dasharray:none;stroke-dashoffset:0;stroke-opacity:1"
       d="m 28.071511,0.71802962 c -0.934283,-1.2e-7 -1.691667,0.75738558 -1.691667,1.69166758 0,0.9342824 0.757384,1.6916682 1.691667,1.6916679 0.869077,-7.446e-4 1.5962,-0.6598967 1.68196,-1.5247324 h 2.885817 c 0.08581,0.8653668 0.813321,1.5247018 1.682933,1.5247324 0.326681,-5.84e-4 0.646294,-0.095477 0.92008,-0.273695 v -0.42413 c -0.250184,0.2321101 -0.578806,0.361565 -0.92008,0.3620148 -0.748515,-1.4e-6 -1.354885,-0.6073413 -1.354887,-1.3558577 -2e-5,-0.7485277 0.606356,-1.3548854 1.354887,-1.3548873 0.341361,5.84e-4 0.669996,0.1296643 0.92008,0.3620152 V 0.99075429 C 34.968361,0.81302719 34.64876,0.71816486 34.322221,0.71802962 33.453254,0.71890672 32.726995,1.3780362 32.64123,2.2427636 H 29.754443 C 29.668647,1.3775578 28.940962,0.71827546 28.071511,0.71802962 Z m 11.856974,0 c -0.869078,7.4467e-4 -1.596201,0.65989788 -1.68196,1.52473398 h -3.019751 c -0.08048,-0.4363133 -0.460879,-0.7530421 -0.904552,-0.753146 -0.508158,-2.84e-5 -0.920109,0.4119216 -0.920081,0.9200796 -2.9e-5,0.5081585 0.411923,0.9201096 0.920081,0.9200811 0.443673,-1.039e-4 0.824075,-0.3168325 0.904552,-0.7531456 h 3.01878 c 0.08579,0.8652051 0.813483,1.5244861 1.682931,1.5247324 0.934284,1.3e-6 1.691671,-0.7573848 1.691671,-1.6916679 0,-0.9342828 -0.757388,-1.69166884 -1.691671,-1.69166758 z M 28.071511,1.0548099 c 0.748186,2.35e-4 1.354652,0.6067014 1.354887,1.3548873 3.01e-4,0.748565 -0.606321,1.3556227 -1.354887,1.3558577 -0.748944,3.015e-4 -1.356158,-0.6069132 -1.355858,-1.3558577 2.35e-4,-0.7485652 0.607293,-1.3551887 1.355858,-1.3548873 z m 11.856974,0 c 0.748565,-3.014e-4 1.355623,0.6063221 1.355857,1.3548873 3.02e-4,0.7489445 -0.606912,1.3561592 -1.355857,1.3558577 -0.748565,-2.35e-4 -1.355187,-0.6072927 -1.354886,-1.3558577 2.35e-4,-0.7481859 0.606699,-1.3546523 1.354886,-1.3548873 z M 27.896812,1.5682323 v 0.658032 h -0.660943 v 0.3639548 h 0.660943 v 0.6609448 h 0.362015 V 2.5902191 H 28.91686 V 2.2262643 h -0.658033 v -0.658032 z m 11.067862,0.6531788 v 0.376574 h 1.88675 v -0.376574 z"
       sodipodi:nodetypes="csccccccccccccccccccccccccsccccccccccccccccccccccccccccc" /><path
       id="path13386"
       style="font-size:4.40972px;line-height:1.25;font-family:Questrial;-inkscape-font-specification:'Questrial, Normal';letter-spacing:0.185208px;fill:none;stroke:#000000;stroke-width:0.1;stroke-dasharray:none;stroke-opacity:1"
       d="m 32.385163,4.9516357 c -0.182268,0 -0.349942,0.041192 -0.502811,0.1235067 -0.152871,0.082315 -0.274736,0.1954635 -0.36587,0.3395142 -0.09113,0.1411108 -0.136942,0.3029734 -0.136942,0.4852417 0,0.185208 0.0441,0.3499759 0.132292,0.4940267 0.08819,0.1411109 0.20767,0.2525486 0.3576,0.3348632 0.15287,0.079375 0.320027,0.1193726 0.502295,0.1193726 0.16463,0 0.314871,-0.038287 0.450102,-0.1147217 0.138171,-0.079375 0.242604,-0.1791911 0.313159,-0.2997233 0,0.2204858 -0.02786,0.4201182 -0.08372,0.5994466 -0.05292,0.1793285 -0.137012,0.3220477 -0.251665,0.4278809 -0.111713,0.1058332 -0.258532,0.1586466 -0.4408,0.1586466 -0.108773,0 -0.198679,-0.019144 -0.269234,-0.057361 -0.07055,-0.041158 -0.126272,-0.091066 -0.167432,-0.1498617 -0.03821,-0.061736 -0.06779,-0.1232656 -0.08837,-0.1850016 h -0.370003 c 0.02646,0.1146526 0.07346,0.2278014 0.141076,0.3395142 0.07056,0.108773 0.167467,0.198162 0.290938,0.2687174 0.123472,0.070556 0.277813,0.1059367 0.463021,0.1059367 0.367477,0 0.643682,-0.1334864 0.82889,-0.4010091 0.185208,-0.2675227 0.278019,-0.6324399 0.278019,-1.0939901 0,-0.4791891 -0.0911,-0.8482059 -0.273368,-1.1069092 -0.182268,-0.2587033 -0.451469,-0.38809 -0.807186,-0.38809 z m 1.468644,0.035657 1.181841,2.9192016 h 0.378788 l 1.18184,-2.9192016 H 36.235057 L 35.2253,7.5313232 34.215026,4.9872925 Z m -1.468644,0.2862874 c 0.126412,0 0.239561,0.028376 0.339514,0.084233 0.102897,0.052917 0.18357,0.1277788 0.242363,0.2247925 0.06173,0.097014 0.09302,0.2101625 0.09302,0.3395141 0,0.1205323 -0.03128,0.2278703 -0.09302,0.3219442 -0.0588,0.091134 -0.139469,0.1630909 -0.242363,0.2160075 -0.102893,0.049977 -0.216042,0.074931 -0.339514,0.074931 -0.123472,2e-7 -0.23662,-0.027859 -0.339514,-0.083716 -0.09996,-0.055856 -0.180629,-0.1307186 -0.242362,-0.2247925 -0.06173,-0.097014 -0.09302,-0.2060628 -0.09302,-0.326595 0,-0.1234721 0.03128,-0.2320044 0.09302,-0.3260783 0.06174,-0.094074 0.142409,-0.1677418 0.242362,-0.2206584 0.102894,-0.052917 0.216042,-0.079582 0.339514,-0.079582 z" /><path
       id="path6643"
       style="fill:none;stroke-width:0.09282024;stroke:#000000;stroke-opacity:1;stroke-dasharray:none"
       inkscape:transform-center-y="-0.53867652"
       transform="matrix(0.5386756,-0.93301351,0.93301351,0.5386756,18.381372,49.56037)"
       d="m 53.999996,8.9999994 -1.732051,-2.9999998 3.464102,-10e-8 z" /></g></svg>
