<?xml version="1.0" encoding="UTF-8" standalone="no"?>
<svg
   width="62mm"
   height="117mm"
   viewBox="0 0 62 117"
   version="1.1"
   id="svg8"
   inkscape:version="1.1.2 (0a00cf5339, 2022-02-04, custom)"
   sodipodi:docname="sexy_rodent_front_freecad.svg"
   inkscape:export-filename="/home/yann/_dev/98 - Graphics/graphics-pedals/Shining Pig/shining_pig_front_9V.png"
   inkscape:export-xdpi="96"
   inkscape:export-ydpi="96"
   xmlns:inkscape="http://www.inkscape.org/namespaces/inkscape"
   xmlns:sodipodi="http://sodipodi.sourceforge.net/DTD/sodipodi-0.dtd"
   xmlns="http://www.w3.org/2000/svg"
   xmlns:svg="http://www.w3.org/2000/svg"
   xmlns:rdf="http://www.w3.org/1999/02/22-rdf-syntax-ns#"
   xmlns:cc="http://creativecommons.org/ns#"
   xmlns:dc="http://purl.org/dc/elements/1.1/">
  <defs
     id="defs2" />
  <sodipodi:namedview
     id="base"
     pagecolor="#000000"
     bordercolor="#666666"
     borderopacity="1.0"
     inkscape:pageopacity="0"
     inkscape:pageshadow="2"
     inkscape:zoom="4"
     inkscape:cx="86.25"
     inkscape:cy="206.375"
     inkscape:document-units="mm"
     inkscape:current-layer="layer1"
     inkscape:document-rotation="0"
     showgrid="true"
     inkscape:window-width="3836"
     inkscape:window-height="2113"
     inkscape:window-x="0"
     inkscape:window-y="881"
     inkscape:window-maximized="1"
     showborder="true"
     inkscape:showpageshadow="false"
     inkscape:pagecheckerboard="true">
    <sodipodi:guide
       position="-2.0168617,58.500093"
       orientation="0,117.16536"
       id="guide1967" />
    <sodipodi:guide
       position="31.001653,138.8865"
       orientation="-221.10236,0"
       id="guide1969" />
    <inkscape:grid
       type="xygrid"
       id="grid1973"
       visible="true"
       enabled="true"
       originx="31.000001"
       originy="58.500002"
       dotted="true"
       snapvisiblegridlinesonly="true"
       spacingx="0.13229167"
       spacingy="0.13229167" />
  </sodipodi:namedview>
  <metadata
     id="metadata5">
    <rdf:RDF>
      <cc:Work
         rdf:about="">
        <dc:format>image/svg+xml</dc:format>
        <dc:type
           rdf:resource="http://purl.org/dc/dcmitype/StillImage" />
      </cc:Work>
    </rdf:RDF>
  </metadata>
  <g
     inkscape:groupmode="layer"
     id="layer1"
     inkscape:label="Layer 1">
    <path
       id="path3384"
       style="color:#000000;fill:#505050;stroke:none;stroke-width:0.755906;stroke-miterlimit:4;stroke-dasharray:none;stroke-opacity:1;-inkscape-stroke:none"
       d="m 116.79688,130.39453 v 3.40235 h -10.59376 v -3.39454 h -0.75195 v 4.1543 h 0.75195 10.58594 v 22.66992 h 0.75977 l -0.008,-22.66992 h 10.9375 0.004 0.75586 v -4.1543 h -0.75976 v 3.39454 h -10.92969 v -3.40235 z"
       transform="scale(0.26458333)" />
    <path
       d="m 29.304957,32.97226 q 0,0.315031 -0.137407,0.512763 -0.134056,0.197732 -0.351896,0.268111 v -0.278165 q 0.124001,-0.05027 0.191029,-0.174272 0.07038,-0.124002 0.07038,-0.315031 0,-0.288219 -0.137407,-0.418924 -0.134055,-0.134055 -0.392112,-0.134055 h -0.231246 q 0.134056,0.09384 0.21784,0.244651 0.08043,0.147461 0.08043,0.355248 0,0.244651 -0.110596,0.428977 -0.113948,0.180975 -0.308328,0.281517 -0.194381,0.100542 -0.432329,0.100542 -0.2413,0 -0.43233,-0.100542 -0.19438,-0.100542 -0.304976,-0.281517 -0.113947,-0.184326 -0.113947,-0.428977 0,-0.207787 0.08043,-0.355248 0.07708,-0.150812 0.214489,-0.244651 H 26.93887 v -0.251355 h 1.62543 q 0.358598,0 0.549628,0.207787 0.191029,0.204434 0.191029,0.583141 z m -0.918281,0.02681 q 0,-0.184327 -0.08379,-0.31168 -0.08378,-0.130704 -0.224543,-0.197732 -0.14411,-0.07038 -0.31503,-0.07038 -0.174273,0 -0.315031,0.07038 -0.140758,0.06703 -0.224543,0.197732 -0.08378,0.127353 -0.08378,0.31168 0,0.184326 0.08378,0.318382 0.08378,0.134055 0.224543,0.204434 0.140758,0.07038 0.315031,0.07038 0.17092,0 0.31503,-0.07038 0.140759,-0.07038 0.224543,-0.204434 0.08379,-0.134056 0.08379,-0.318382 z"
       id="path24139"
       style="font-size:3.35139px;font-family:Questrial;-inkscape-font-specification:'Questrial, Normal';letter-spacing:0px;word-spacing:0px;fill:#e74a4a;stroke-width:0.0959997" />
    <path
       d="m 28.641382,31.001646 q 0,0.254705 -0.113948,0.445734 -0.117298,0.19103 -0.31503,0.298274 -0.197732,0.103893 -0.435681,0.103893 -0.2413,0 -0.435681,-0.100542 -0.197732,-0.100541 -0.311679,-0.288219 -0.117298,-0.187678 -0.117298,-0.442384 0,-0.258057 0.117298,-0.442383 0.113947,-0.187678 0.311679,-0.28822 0.194381,-0.100541 0.435681,-0.100541 h 0.100542 v 1.404232 q 0.147461,-0.02011 0.271462,-0.09384 0.12065,-0.07708 0.194381,-0.204435 0.07038,-0.127352 0.07038,-0.294922 0,-0.177624 -0.07708,-0.298274 -0.08043,-0.12065 -0.204435,-0.187677 v -0.274814 q 0.224544,0.08714 0.368653,0.278165 0.140759,0.187678 0.140759,0.485952 z m -0.998714,0.586493 v -1.139473 q -0.214489,0.03351 -0.358599,0.180975 -0.14411,0.147461 -0.14411,0.388761 0,0.241301 0.14411,0.388762 0.14411,0.144109 0.358599,0.180975 z"
       style="font-size:3.35139px;font-family:Questrial;-inkscape-font-specification:'Questrial, Normal';letter-spacing:0px;word-spacing:0px;fill:#ffffff;stroke-width:0.0959997"
       id="path24141" />
    <path
       d="m 32.036629,33.758901 h -2.345973 v -0.251354 h 2.345973 z"
       id="path24126"
       style="font-size:3.35139px;font-family:Questrial;-inkscape-font-specification:'Questrial, Normal';letter-spacing:0px;word-spacing:0px;fill:#e74a4a;stroke-width:0.0959997" />
    <path
       d="m 32.06344,32.327858 q 0,0.254706 -0.113947,0.445735 -0.117299,0.191029 -0.315031,0.298274 -0.197732,0.103893 -0.435681,0.103893 -0.2413,0 -0.43568,-0.100542 -0.197732,-0.100542 -0.31168,-0.288219 -0.117298,-0.187678 -0.117298,-0.442384 0,-0.258057 0.117298,-0.442383 0.113948,-0.187678 0.31168,-0.28822 0.19438,-0.100542 0.43568,-0.100542 h 0.100542 v 1.404233 q 0.147461,-0.02011 0.271463,-0.09384 0.12065,-0.07708 0.19438,-0.204435 0.07038,-0.127353 0.07038,-0.294922 0,-0.177624 -0.07708,-0.298274 -0.08043,-0.12065 -0.204434,-0.187678 V 31.56374 q 0.224543,0.08714 0.368652,0.278166 0.140759,0.187678 0.140759,0.485951 z m -0.998714,0.586493 v -1.139472 q -0.214489,0.03351 -0.358599,0.180975 -0.14411,0.147461 -0.14411,0.388761 0,0.2413 0.14411,0.388761 0.14411,0.14411 0.358599,0.180975 z"
       style="font-size:3.35139px;font-family:Questrial;-inkscape-font-specification:'Questrial, Normal';letter-spacing:0px;word-spacing:0px;fill:#ffffff;stroke-width:0.0959997"
       id="path24128" />
    <path
       d="m 32.06344,30.498002 q 0,0.244651 -0.113947,0.428978 -0.117299,0.180975 -0.315031,0.281517 -0.197732,0.100541 -0.435681,0.100541 -0.2413,0 -0.43568,-0.100541 -0.197732,-0.100542 -0.31168,-0.281517 -0.117298,-0.184327 -0.117298,-0.428978 0,-0.207786 0.08043,-0.355247 0.08043,-0.150813 0.21784,-0.244652 h -0.94174 v -0.251354 h 2.345973 v 0.251354 h -0.268111 q 0.134055,0.09384 0.214488,0.244652 0.08043,0.147461 0.08043,0.355247 z m -0.227895,-0.03351 q 0,-0.187678 -0.08714,-0.315031 -0.08714,-0.130704 -0.231246,-0.197732 -0.147461,-0.06703 -0.318382,-0.06703 -0.174272,0 -0.318382,0.06703 -0.14411,0.06703 -0.231246,0.197732 -0.08714,0.127353 -0.08714,0.315031 0,0.184326 0.08714,0.318382 0.08714,0.134056 0.231246,0.204435 0.14411,0.07038 0.318382,0.07038 0.170921,0 0.318382,-0.07038 0.14411,-0.07038 0.231246,-0.204435 0.08714,-0.134056 0.08714,-0.318382 z"
       style="font-size:3.35139px;font-family:Questrial;-inkscape-font-specification:'Questrial, Normal';letter-spacing:0px;word-spacing:0px;fill:#ffffff;stroke-width:0.0959997"
       id="path24130" />
    <path
       d="m 34.868803,33.059177 q 0,0.231246 -0.07708,0.392113 -0.07708,0.157515 -0.201084,0.2413 -0.127353,0.08378 -0.274814,0.09384 v -0.261409 q 0.08378,-0.01005 0.164218,-0.05697 0.07708,-0.05027 0.127353,-0.150813 0.04692,-0.100541 0.04692,-0.261408 0,-0.05027 -0.01006,-0.124002 -0.01005,-0.07373 -0.03686,-0.140758 -0.02681,-0.07038 -0.08043,-0.117299 -0.05362,-0.04692 -0.137407,-0.04692 -0.103893,0 -0.160867,0.08043 -0.05697,0.08043 -0.08714,0.207786 -0.03351,0.127353 -0.06368,0.271463 -0.03016,0.140758 -0.07708,0.268111 -0.05027,0.127353 -0.137407,0.207786 -0.09049,0.08043 -0.244652,0.08043 -0.227894,0 -0.351896,-0.164218 -0.127353,-0.16757 -0.127353,-0.492655 0,-0.221191 0.07038,-0.358598 0.06703,-0.140759 0.174272,-0.211138 0.107244,-0.07373 0.231246,-0.08714 v 0.254706 q -0.107245,0.0134 -0.184327,0.107244 -0.07708,0.09049 -0.07708,0.301625 0,0.398816 0.2413,0.398816 0.100542,0 0.154164,-0.08043 0.05362,-0.08043 0.08714,-0.207786 0.03016,-0.127353 0.06032,-0.268111 0.02681,-0.14411 0.07708,-0.271463 0.05027,-0.127353 0.14411,-0.207786 0.09049,-0.08043 0.248003,-0.08043 0.244652,0 0.375356,0.187678 0.127353,0.184326 0.127353,0.496005 z"
       id="path24117"
       style="font-size:3.35139px;font-family:Questrial;-inkscape-font-specification:'Questrial, Normal';letter-spacing:0px;word-spacing:0px;fill:#e74a4a;stroke-width:0.0959997" />
    <path
       d="m 32.88478,32.063813 h -0.328436 v -0.271462 h 0.328436 z m 1.957211,-0.01005 h -1.675695 v -0.251354 h 1.675695 z"
       style="font-size:3.35139px;font-family:Questrial;-inkscape-font-specification:'Questrial, Normal';letter-spacing:0px;word-spacing:0px;fill:#ffffff;stroke-width:0.0959997"
       id="path24119" />
    <path
       d="m 44.823377,57.044674 q -0.312208,0 -0.541161,-0.141535 -0.228953,-0.145697 -0.357999,-0.391301 -0.124884,-0.245604 -0.124884,-0.541161 0,-0.29972 0.124884,-0.541162 0.129046,-0.245604 0.357999,-0.387138 0.228953,-0.145698 0.541161,-0.145698 0.370488,0 0.62858,0.191488 0.262255,0.191488 0.353836,0.495371 h -0.337185 q -0.07077,-0.178999 -0.228953,-0.291394 -0.154023,-0.112396 -0.37465,-0.112396 -0.228953,0 -0.399627,0.108233 -0.170674,0.108232 -0.262255,0.287232 -0.09158,0.178999 -0.09158,0.395464 0,0.212301 0.09158,0.395464 0.09158,0.178999 0.262255,0.287232 0.170674,0.108232 0.399627,0.108232 0.220627,0 0.37465,-0.112395 0.158186,-0.112395 0.228953,-0.291395 h 0.337185 q -0.09158,0.303883 -0.353836,0.495371 -0.258092,0.191488 -0.62858,0.191488 z"
       id="path24092"
       style="font-size:4.16278px;font-family:Questrial;-inkscape-font-specification:'Questrial, Normal';letter-spacing:0px;word-spacing:0px;fill:#e74a4a;stroke-width:0.0959977" />
    <path
       d="m 47.096257,57.044674 q -0.316371,0 -0.549487,-0.141535 -0.233115,-0.145697 -0.357999,-0.391301 -0.124883,-0.245604 -0.124883,-0.541161 0,-0.29972 0.124883,-0.541162 0.124884,-0.245604 0.357999,-0.387138 0.233116,-0.145698 0.549487,-0.145698 0.320534,0 0.549487,0.145698 0.233116,0.141534 0.357999,0.387138 0.124884,0.241442 0.124884,0.541162 0,0.295557 -0.124884,0.541161 -0.124883,0.245604 -0.357999,0.391301 -0.228953,0.141535 -0.549487,0.141535 z m 0,-0.283069 q 0.233116,0 0.391302,-0.108232 0.162348,-0.108233 0.245604,-0.287232 0.08326,-0.183163 0.08326,-0.395464 0,-0.216465 -0.08326,-0.395464 -0.08326,-0.179 -0.245604,-0.287232 -0.158186,-0.108233 -0.391302,-0.108233 -0.228952,0 -0.391301,0.108233 -0.162348,0.108232 -0.245604,0.287232 -0.08326,0.178999 -0.08326,0.395464 0,0.212301 0.08326,0.395464 0.08326,0.178999 0.245604,0.287232 0.162349,0.108232 0.391301,0.108232 z"
       style="font-size:4.16278px;font-family:Questrial;-inkscape-font-specification:'Questrial, Normal';letter-spacing:0px;word-spacing:0px;fill:#ffffff;stroke-width:0.0959977"
       id="path24094" />
    <path
       d="m 48.540739,57.011372 v -2.913946 h 0.312208 v 2.913946 z"
       style="font-size:4.16278px;font-family:Questrial;-inkscape-font-specification:'Questrial, Normal';letter-spacing:0px;word-spacing:0px;fill:#ffffff;stroke-width:0.0959977"
       id="path24096" />
    <path
       d="m 50.297431,57.044674 q -0.316371,0 -0.549487,-0.141535 -0.233115,-0.145697 -0.357999,-0.391301 -0.124883,-0.245604 -0.124883,-0.541161 0,-0.29972 0.124883,-0.541162 0.124884,-0.245604 0.357999,-0.387138 0.233116,-0.145698 0.549487,-0.145698 0.320534,0 0.549487,0.145698 0.233116,0.141534 0.357999,0.387138 0.124884,0.241442 0.124884,0.541162 0,0.295557 -0.124884,0.541161 -0.124883,0.245604 -0.357999,0.391301 -0.228953,0.141535 -0.549487,0.141535 z m 0,-0.283069 q 0.233116,0 0.391302,-0.108232 0.162348,-0.108233 0.245604,-0.287232 0.08326,-0.183163 0.08326,-0.395464 0,-0.216465 -0.08326,-0.395464 -0.08326,-0.179 -0.245604,-0.287232 -0.158186,-0.108233 -0.391302,-0.108233 -0.228952,0 -0.391301,0.108233 -0.162348,0.108232 -0.245604,0.287232 -0.08325,0.178999 -0.08325,0.395464 0,0.212301 0.08325,0.395464 0.08326,0.178999 0.245604,0.287232 0.162349,0.108232 0.391301,0.108232 z"
       style="font-size:4.16278px;font-family:Questrial;-inkscape-font-specification:'Questrial, Normal';letter-spacing:0px;word-spacing:0px;fill:#ffffff;stroke-width:0.0959977"
       id="path24098" />
    <path
       d="m 52.553654,57.044674 q -0.212301,0 -0.403789,-0.09991 -0.191488,-0.104069 -0.312209,-0.303883 -0.116558,-0.203976 -0.116558,-0.499533 v -1.211369 h 0.312209 v 1.203043 q 0,0.283069 0.162348,0.457906 0.166511,0.170674 0.420441,0.170674 0.174837,0 0.316371,-0.07909 0.141535,-0.08326 0.22479,-0.22479 0.08742,-0.141535 0.08742,-0.32886 v -1.19888 h 0.312208 v 2.08139 h -0.312208 v -0.324697 q -0.112395,0.14986 -0.274744,0.253929 -0.162348,0.10407 -0.416279,0.10407 z"
       style="font-size:4.16278px;font-family:Questrial;-inkscape-font-specification:'Questrial, Normal';letter-spacing:0px;word-spacing:0px;fill:#ffffff;stroke-width:0.0959977"
       id="path24100" />
    <path
       d="m 54.098046,57.011372 v -2.08139 h 0.312208 v 0.512022 q 0.01665,-0.05412 0.06244,-0.141535 0.04995,-0.09158 0.141534,-0.183162 0.09158,-0.09158 0.228953,-0.154023 0.141535,-0.06661 0.333023,-0.06661 h 0.02081 v 0.312209 h -0.03747 q -0.233116,0 -0.40379,0.129046 -0.166511,0.124884 -0.258092,0.32886 -0.08742,0.199813 -0.08742,0.428766 v 0.915812 z"
       style="font-size:4.16278px;font-family:Questrial;-inkscape-font-specification:'Questrial, Normal';letter-spacing:0px;word-spacing:0px;fill:#ffffff;stroke-width:0.0959977"
       id="path24102" />
    <path
       d="m 6.6093785,26.972893 -0.8159048,-2.08139 h 0.3413479 l 0.6577192,1.748367 0.6535565,-1.748367 h 0.3413479 l -0.8117421,2.08139 z"
       id="path24067"
       style="font-size:4.16278px;font-family:Questrial;-inkscape-font-specification:'Questrial, Normal';letter-spacing:0px;word-spacing:0px;fill:#e74a4a;stroke-width:0.0959977" />
    <path
       d="m 8.9821643,27.006195 q -0.3163712,0 -0.5494869,-0.141535 Q 8.1995617,26.718963 8.0746783,26.473359 7.949795,26.227755 7.949795,25.932198 q 0,-0.29972 0.1248833,-0.541162 0.1248834,-0.245604 0.3579991,-0.387138 0.2331157,-0.145697 0.5494869,-0.145697 0.3205341,0 0.549487,0.145697 0.2331157,0.141534 0.357999,0.387138 0.1248837,0.241442 0.1248837,0.541162 0,0.295557 -0.1248837,0.541161 -0.1248833,0.245604 -0.357999,0.391301 -0.2289529,0.141535 -0.549487,0.141535 z m 0,-0.283069 q 0.2331157,0 0.3913013,-0.108232 0.1623485,-0.108233 0.2456041,-0.287232 0.083256,-0.183162 0.083256,-0.395464 0,-0.216465 -0.083256,-0.395464 -0.083256,-0.179 -0.2456041,-0.287232 Q 9.21528,25.14127 8.9821643,25.14127 q -0.2289528,0 -0.3913013,0.108232 -0.1623484,0.108232 -0.245604,0.287232 -0.083256,0.178999 -0.083256,0.395464 0,0.212302 0.083256,0.395464 0.083256,0.178999 0.245604,0.287232 0.1623485,0.108232 0.3913013,0.108232 z"
       style="font-size:4.16278px;font-family:Questrial;-inkscape-font-specification:'Questrial, Normal';letter-spacing:0px;word-spacing:0px;fill:#ffffff;stroke-width:0.0959977"
       id="path24069" />
    <path
       d="m 10.426645,26.972893 v -2.913946 h 0.312209 v 2.913946 z"
       style="font-size:4.16278px;font-family:Questrial;-inkscape-font-specification:'Questrial, Normal';letter-spacing:0px;word-spacing:0px;fill:#ffffff;stroke-width:0.0959977"
       id="path24071" />
    <path
       d="m 12.091757,27.006195 q -0.212302,0 -0.40379,-0.09991 -0.191488,-0.104069 -0.312208,-0.303883 -0.116558,-0.203976 -0.116558,-0.499533 V 24.8915 h 0.312208 v 1.203043 q 0,0.283069 0.162349,0.457906 0.166511,0.170674 0.420441,0.170674 0.174836,0 0.316371,-0.07909 0.141534,-0.08326 0.22479,-0.22479 0.08742,-0.141534 0.08742,-0.32886 v -1.19888 h 0.312209 v 2.08139 H 12.78278 v -0.324697 q -0.112395,0.14986 -0.274743,0.25393 -0.162348,0.104069 -0.416278,0.104069 z"
       style="font-size:4.16278px;font-family:Questrial;-inkscape-font-specification:'Questrial, Normal';letter-spacing:0px;word-spacing:0px;fill:#ffffff;stroke-width:0.0959977"
       id="path24073" />
    <path
       d="m 13.636148,26.972893 v -2.08139 h 0.312209 v 0.316371 q 0.07077,-0.124883 0.22479,-0.237278 0.154023,-0.112395 0.407952,-0.112395 0.208139,0 0.382976,0.112395 0.179,0.108232 0.278906,0.308045 0.04163,-0.07077 0.129047,-0.170674 0.09158,-0.09991 0.237278,-0.174836 0.145697,-0.07493 0.349674,-0.07493 0.199813,0 0.37465,0.104069 0.174836,0.10407 0.283069,0.29972 0.112395,0.191488 0.112395,0.453743 v 1.25716 h -0.312209 v -1.248834 q 0,-0.262255 -0.14986,-0.420441 -0.145697,-0.162348 -0.366324,-0.162348 -0.228953,0 -0.395464,0.154022 -0.166512,0.154023 -0.166512,0.43293 v 1.244671 h -0.312208 v -1.248834 q 0,-0.262255 -0.14986,-0.420441 -0.145698,-0.162348 -0.366325,-0.162348 -0.228953,0 -0.395464,0.154022 -0.166511,0.154023 -0.166511,0.43293 v 1.244671 z"
       style="font-size:4.16278px;font-family:Questrial;-inkscape-font-specification:'Questrial, Normal';letter-spacing:0px;word-spacing:0px;fill:#ffffff;stroke-width:0.0959977"
       id="path24075" />
    <path
       d="m 18.173578,27.006195 q -0.316371,0 -0.55365,-0.141535 -0.237278,-0.145697 -0.370487,-0.391301 -0.129046,-0.245604 -0.129046,-0.541161 0,-0.29972 0.124883,-0.541162 0.124884,-0.245604 0.357999,-0.387138 0.233116,-0.145697 0.549487,-0.145697 0.320534,0 0.549487,0.145697 0.233116,0.141534 0.357999,0.387138 0.124884,0.241442 0.124884,0.541162 v 0.124883 h -1.744205 q 0.02498,0.183163 0.116558,0.337185 0.09574,0.14986 0.253929,0.241442 0.158186,0.08742 0.366325,0.08742 0.220627,0 0.370487,-0.09574 0.14986,-0.09991 0.233116,-0.25393 h 0.341348 q -0.108232,0.278907 -0.345511,0.457906 -0.233115,0.174837 -0.603603,0.174837 z m -0.728486,-1.240508 h 1.415345 q -0.04163,-0.266418 -0.22479,-0.445418 -0.183163,-0.178999 -0.482883,-0.178999 -0.29972,0 -0.482882,0.178999 -0.179,0.179 -0.22479,0.445418 z"
       style="font-size:4.16278px;font-family:Questrial;-inkscape-font-specification:'Questrial, Normal';letter-spacing:0px;word-spacing:0px;fill:#ffffff;stroke-width:0.0959977"
       id="path24077" />
    <path
       d="m 46.700504,27.830425 q -0.391302,0 -0.636906,-0.170674 -0.245604,-0.166511 -0.333022,-0.437091 h 0.345511 q 0.06244,0.154022 0.216464,0.237278 0.154023,0.08742 0.391302,0.08742 0.357999,0 0.520347,-0.170674 0.166511,-0.166511 0.166511,-0.487045 v -0.287232 q -0.116558,0.166512 -0.303883,0.270581 -0.183162,0.09991 -0.441254,0.09991 -0.303883,0 -0.532836,-0.137372 -0.22479,-0.141534 -0.349674,-0.382976 -0.124883,-0.241441 -0.124883,-0.536998 0,-0.29972 0.124883,-0.536999 0.124884,-0.241441 0.349674,-0.378813 0.228953,-0.141534 0.532836,-0.141534 0.258092,0 0.441254,0.09991 0.187325,0.09574 0.303883,0.266418 v -0.333022 h 0.312209 v 2.018948 q 0,0.445418 -0.258093,0.682696 -0.253929,0.237278 -0.724323,0.237278 z m -0.0333,-1.140601 q 0.228953,0 0.387139,-0.10407 0.162348,-0.104069 0.245604,-0.278906 0.08742,-0.179 0.08742,-0.391301 0,-0.216465 -0.08742,-0.391302 -0.08326,-0.174836 -0.245604,-0.278906 -0.158186,-0.104069 -0.387139,-0.104069 -0.228952,0 -0.395464,0.104069 -0.166511,0.10407 -0.253929,0.278906 -0.08742,0.174837 -0.08742,0.391302 0,0.212301 0.08742,0.391301 0.08742,0.174837 0.253929,0.278906 0.166512,0.10407 0.395464,0.10407 z"
       id="path24050"
       style="font-size:4.16278px;font-family:Questrial;-inkscape-font-specification:'Questrial, Normal';letter-spacing:0px;word-spacing:0px;fill:#e74a4a;stroke-width:0.0959977" />
    <path
       d="m 49.102425,27.006195 q -0.303883,0 -0.532836,-0.141535 -0.22479,-0.145697 -0.349673,-0.391301 -0.124884,-0.245604 -0.124884,-0.541161 0,-0.29972 0.124884,-0.541162 0.124883,-0.245604 0.349673,-0.387138 0.228953,-0.145697 0.532836,-0.145697 0.258092,0 0.441255,0.09991 0.187325,0.09991 0.303882,0.270581 v -0.337185 h 0.312209 v 2.08139 H 49.847562 V 26.63987 q -0.116557,0.166512 -0.303882,0.266418 -0.183163,0.09991 -0.441255,0.09991 z m 0.04163,-0.283069 q 0.233115,0 0.391301,-0.108232 0.162348,-0.108233 0.245604,-0.287232 0.08326,-0.183162 0.08326,-0.395464 0,-0.216465 -0.08326,-0.395464 -0.08326,-0.179 -0.245604,-0.287232 -0.158186,-0.108232 -0.391301,-0.108232 -0.228953,0 -0.395464,0.108232 -0.166512,0.108232 -0.25393,0.287232 -0.08742,0.178999 -0.08742,0.395464 0,0.212302 0.08742,0.395464 0.08742,0.178999 0.25393,0.287232 0.166511,0.108232 0.395464,0.108232 z"
       style="font-size:4.16278px;font-family:Questrial;-inkscape-font-specification:'Questrial, Normal';letter-spacing:0px;word-spacing:0px;fill:#ffffff;stroke-width:0.0959977"
       id="path24052" />
    <path
       d="m 50.688441,24.541829 v -0.407952 h 0.337185 v 0.407952 z m 0.01249,2.431064 v -2.08139 h 0.312208 v 2.08139 z"
       style="font-size:4.16278px;font-family:Questrial;-inkscape-font-specification:'Questrial, Normal';letter-spacing:0px;word-spacing:0px;fill:#ffffff;stroke-width:0.0959977"
       id="path24054" />
    <path
       d="m 51.554299,26.972893 v -2.08139 h 0.312209 V 25.2162 q 0.112395,-0.14986 0.274743,-0.25393 0.162349,-0.104069 0.416278,-0.104069 0.216465,0 0.40379,0.104069 0.191488,0.09991 0.308046,0.303883 0.12072,0.199813 0.12072,0.495371 v 1.211369 h -0.312208 v -1.203044 q 0,-0.283069 -0.162349,-0.453743 -0.162348,-0.174836 -0.42044,-0.174836 -0.174837,0 -0.316372,0.07909 -0.141534,0.07909 -0.228953,0.224791 -0.08325,0.141534 -0.08325,0.328859 v 1.198881 z"
       style="font-size:4.16278px;font-family:Questrial;-inkscape-font-specification:'Questrial, Normal';letter-spacing:0px;word-spacing:0px;fill:#ffffff;stroke-width:0.0959977"
       id="path24056" />
    <path
       d="M 8.8415689,57.011372 V 55.204725 H 8.4169653 v -0.274743 h 0.4246036 v -0.745138 h 0.3122085 v 0.745138 H 9.632497 v 0.274743 H 9.1537774 v 1.806647 z"
       id="path24033"
       style="font-size:4.16278px;font-family:Questrial;-inkscape-font-specification:'Questrial, Normal';letter-spacing:0px;word-spacing:0px;fill:#e74a4a;stroke-width:0.0959977" />
    <path
       d="m 10.877169,57.044674 q -0.316371,0 -0.549487,-0.141535 -0.233116,-0.145697 -0.3579989,-0.391301 -0.1248834,-0.245604 -0.1248834,-0.541161 0,-0.29972 0.1248834,-0.541162 0.1248829,-0.245604 0.3579989,-0.387138 0.233116,-0.145698 0.549487,-0.145698 0.320534,0 0.549487,0.145698 0.233116,0.141534 0.357999,0.387138 0.124883,0.241442 0.124883,0.541162 0,0.295557 -0.124883,0.541161 -0.124883,0.245604 -0.357999,0.391301 -0.228953,0.141535 -0.549487,0.141535 z m 0,-0.283069 q 0.233116,0 0.391301,-0.108232 0.162349,-0.108233 0.245604,-0.287232 0.08326,-0.183163 0.08326,-0.395464 0,-0.216465 -0.08326,-0.395464 -0.08326,-0.179 -0.245604,-0.287232 -0.158185,-0.108233 -0.391301,-0.108233 -0.228953,0 -0.391301,0.108233 -0.162349,0.108232 -0.245604,0.287232 -0.08326,0.178999 -0.08326,0.395464 0,0.212301 0.08326,0.395464 0.08325,0.178999 0.245604,0.287232 0.162348,0.108232 0.391301,0.108232 z"
       style="font-size:4.16278px;font-family:Questrial;-inkscape-font-specification:'Questrial, Normal';letter-spacing:0px;word-spacing:0px;fill:#ffffff;stroke-width:0.0959977"
       id="path24035" />
    <path
       d="m 12.32165,57.011372 v -2.08139 h 0.312209 v 0.324697 q 0.112395,-0.149861 0.274743,-0.25393 0.162349,-0.10407 0.416278,-0.10407 0.216465,0 0.40379,0.10407 0.191488,0.09991 0.308045,0.303883 0.120721,0.199813 0.120721,0.495371 v 1.211369 h -0.312208 v -1.203044 q 0,-0.283069 -0.162349,-0.453743 -0.162348,-0.174837 -0.420441,-0.174837 -0.174836,0 -0.316371,0.07909 -0.141534,0.07909 -0.228953,0.22479 -0.08326,0.141535 -0.08326,0.32886 v 1.198881 z"
       style="font-size:4.16278px;font-family:Questrial;-inkscape-font-specification:'Questrial, Normal';letter-spacing:0px;word-spacing:0px;fill:#ffffff;stroke-width:0.0959977"
       id="path24037" />
    <path
       d="m 15.601921,57.044674 q -0.316372,0 -0.55365,-0.141535 -0.237279,-0.145697 -0.370488,-0.391301 -0.129046,-0.245604 -0.129046,-0.541161 0,-0.29972 0.124884,-0.541162 0.124883,-0.245604 0.357999,-0.387138 0.233115,-0.145698 0.549487,-0.145698 0.320534,0 0.549487,0.145698 0.233115,0.141534 0.357999,0.387138 0.124883,0.241442 0.124883,0.541162 v 0.124883 h -1.744205 q 0.02498,0.183162 0.116558,0.337185 0.09574,0.14986 0.25393,0.241441 0.158185,0.08742 0.366324,0.08742 0.220628,0 0.370488,-0.09574 0.14986,-0.09991 0.233115,-0.25393 h 0.341348 q -0.108232,0.278907 -0.34551,0.457906 -0.233116,0.174837 -0.603603,0.174837 z m -0.728487,-1.240509 h 1.415345 q -0.04163,-0.266417 -0.22479,-0.445417 -0.183162,-0.179 -0.482882,-0.179 -0.299721,0 -0.482883,0.179 -0.178999,0.179 -0.22479,0.445417 z"
       style="font-size:4.16278px;font-family:Questrial;-inkscape-font-specification:'Questrial, Normal';letter-spacing:0px;word-spacing:0px;fill:#ffffff;stroke-width:0.0959977"
       id="path24039" />
    <path
       d="m 30.386645,4.480897 q -0.111125,0 -0.185208,-0.042333 Q 30.127357,4.396231 30.08502,4.3309667 30.04445,4.2639387 30.02857,4.1951471 h 0.148167 q 0.01235,0.037042 0.03528,0.074083 0.02469,0.035278 0.06703,0.059972 0.04233,0.022931 0.107597,0.022931 0.109361,0 0.176389,-0.0635 0.06879,-0.0635 0.100542,-0.1710973 0.03351,-0.1075973 0.03351,-0.2398891 -0.04233,0.07232 -0.125237,0.1199446 -0.08114,0.045861 -0.179916,0.045861 -0.109362,0 -0.201084,-0.047625 -0.08996,-0.049389 -0.142875,-0.1340557 -0.05292,-0.086431 -0.05292,-0.1975557 0,-0.1093611 0.05468,-0.1940279 0.05468,-0.086431 0.146403,-0.1358195 0.09172,-0.049389 0.201083,-0.049389 0.213431,0 0.322792,0.1552223 0.109361,0.1552223 0.109361,0.4427364 0,0.2769307 -0.111125,0.4374447 -0.111125,0.160514 -0.331611,0.160514 z m 0.01058,-0.5626809 q 0.07408,0 0.13582,-0.029986 0.06174,-0.03175 0.09701,-0.086431 0.03704,-0.056445 0.03704,-0.128764 0,-0.077611 -0.03704,-0.1358195 -0.03528,-0.058208 -0.09701,-0.089958 -0.05997,-0.033514 -0.13582,-0.033514 -0.07408,0 -0.135819,0.03175 -0.05997,0.03175 -0.09701,0.088195 -0.03704,0.056445 -0.03704,0.1305278 0,0.07232 0.03704,0.1305279 0.03704,0.056445 0.09701,0.089958 0.06174,0.033514 0.135819,0.033514 z"
       id="path24024"
       style="font-size:1.76389px;font-family:Questrial;-inkscape-font-specification:'Questrial, Normal';letter-spacing:0px;word-spacing:0px;fill:#505050;stroke-width:0.0410394" />
    <path
       d="M 31.383242,4.4667859 30.910519,3.2990907 h 0.144639 l 0.403931,1.0177646 0.403931,-1.0177646 h 0.144639 l -0.472723,1.1676952 z"
       id="path24026"
       style="font-size:1.76389px;font-family:Questrial;-inkscape-font-specification:'Questrial, Normal';letter-spacing:0px;word-spacing:0px;fill:#505050;stroke-width:0.0410394" />
    <circle
       style="fill:#ffffff;fill-opacity:1;stroke:#ff0000;stroke-width:0"
       id="path10508"
       cx="49.5"
       cy="44.799999"
       r="3.9999995" />
    <circle
       style="display:inline;fill:#ffffff;fill-opacity:1;stroke:#ff0000;stroke-width:0"
       id="path10508-90"
       cx="49.5"
       cy="14.5"
       r="3.9999995" />
    <circle
       style="display:inline;fill:#ffffff;fill-opacity:1;stroke:#ff0000;stroke-width:0"
       id="path10508-9"
       cx="31"
       cy="44.799999"
       r="3.4999995" />
    <circle
       style="display:inline;fill:#ffffff;fill-opacity:1;stroke:#ff0000;stroke-width:0"
       id="path10508-9-4"
       cx="12.5"
       cy="44.799999"
       r="3.9999995" />
    <circle
       style="display:inline;fill:#ffffff;fill-opacity:1;stroke:#ff0000;stroke-width:0"
       id="path10508-91"
       cx="12.5"
       cy="14.5"
       r="3.9999995" />
    <path
       style="fill:#ffffff;fill-opacity:1;stroke-width:0.0838671"
       d="m 18.690584,80.48947 c -0.151599,0.09927 -0.19136,0.09788 -0.280783,-0.0099 -0.07038,-0.0848 -0.08607,-0.257149 -0.04836,-0.531294 0.05211,-0.378932 0.04156,-0.412262 -0.159526,-0.503885 -0.162746,-0.07415 -0.21533,-0.160632 -0.21533,-0.354144 0,-0.151173 0.05196,-0.275968 0.126867,-0.304714 0.06978,-0.02678 0.182551,-0.0025 0.25061,0.05401 0.09855,0.08179 0.130646,0.07943 0.157652,-0.01157 0.01864,-0.06285 0.110293,-0.397333 0.203643,-0.743283 0.09335,-0.345953 0.167942,-0.685615 0.165751,-0.754805 -0.0022,-0.06919 0.170804,-0.641849 0.384422,-1.272573 0.213618,-0.630727 0.3884,-1.20157 0.3884,-1.268541 0,-0.06697 0.09629,-0.339497 0.21398,-0.605616 0.11769,-0.266116 0.196415,-0.529626 0.174943,-0.585579 -0.02146,-0.05595 -0.15647,-0.12522 -0.299995,-0.153925 -0.143521,-0.02872 -0.353912,-0.145151 -0.467533,-0.258769 -0.162201,-0.162204 -0.191325,-0.24814 -0.135575,-0.400039 0.0465,-0.126693 0.151991,-0.20305 0.305681,-0.221257 0.129074,-0.01528 0.389186,0.03536 0.578026,0.112562 0.188837,0.0772 0.463711,0.198203 0.610824,0.268902 0.147116,0.0707 0.74024,0.435421 1.318053,0.810498 0.77505,0.503108 1.171714,0.824781 1.51251,1.22657 0.35526,0.418846 0.480752,0.641463 0.543384,0.963957 0.0448,0.230633 0.104774,0.683516 0.133289,1.006406 0.04856,0.549822 0.03421,0.621658 -0.226025,1.132209 -0.277223,0.543859 -0.279939,0.546176 -1.161716,0.989553 -0.641019,0.322319 -1.009684,0.455485 -1.341874,0.484701 -0.251919,0.02216 -0.520599,0.05948 -0.59707,0.08295 -0.07647,0.02346 -0.498607,0.04487 -0.938079,0.04756 l -0.799042,0.0049 -0.110261,0.339728 c -0.06064,0.186849 -0.189734,0.391769 -0.286865,0.45538 z m 1.850047,-1.504551 c 0.412998,-0.03535 0.90362,-0.105373 1.090273,-0.155617 0.186656,-0.05025 0.610136,-0.219831 0.941071,-0.376856 0.449339,-0.213203 0.651086,-0.364928 0.796737,-0.599187 0.162563,-0.26145 0.192302,-0.413587 0.178589,-0.913608 -0.009,-0.329956 -0.07006,-0.726229 -0.135587,-0.880604 -0.06553,-0.154378 -0.245313,-0.412776 -0.399529,-0.574222 -0.154217,-0.161444 -0.400645,-0.369014 -0.547619,-0.461271 -0.146976,-0.09225 -0.54306,-0.367146 -0.880192,-0.610874 -0.337128,-0.243728 -0.665394,-0.432428 -0.729484,-0.419337 -0.06409,0.01309 -0.250096,0.382339 -0.413349,0.820546 -0.163251,0.438204 -0.36482,0.947699 -0.447929,1.132206 -0.0831,0.184507 -0.17552,0.486428 -0.205361,0.670938 -0.02983,0.184507 -0.161748,0.67513 -0.293126,1.090273 -0.131378,0.415143 -0.262832,0.875035 -0.292114,1.021983 -0.0518,0.259922 -0.04455,0.267894 0.266737,0.293538 0.17599,0.01448 0.657886,-0.0025 1.070883,-0.03791 z M 4.1320572,80.516857 c -0.086693,0 -0.1692062,-0.08409 -0.1990022,-0.202806 -0.027989,-0.111545 -0.00643,-0.422903 0.047934,-0.691907 0.054359,-0.269001 0.206112,-0.927872 0.3372333,-1.464158 0.1311181,-0.53628 0.4286499,-1.45108 0.6611789,-2.032884 0.2325291,-0.581804 0.4960839,-1.20151 0.5856747,-1.377122 0.089591,-0.175613 0.1891125,-0.459067 0.2211622,-0.629897 0.040345,-0.215066 0.1025805,-0.3106 0.2023336,-0.3106 0.090684,0 0.2164836,-0.154616 0.3395092,-0.417283 0.1074937,-0.229502 0.2773942,-0.494271 0.3775625,-0.588372 0.1805224,-0.169593 0.1834164,-0.169657 0.3303327,-0.0073 0.1261067,0.139344 0.1339361,0.207051 0.052488,0.453837 -0.05265,0.159536 -0.243151,0.500516 -0.4233342,0.757737 -0.1801832,0.257222 -0.2910876,0.490245 -0.2464507,0.517832 0.044637,0.02758 0.2031229,-0.02333 0.3521947,-0.113149 0.1490718,-0.08982 0.4755785,-0.22972 0.7255699,-0.310895 0.2499914,-0.08118 0.690081,-0.149842 0.9779735,-0.15259 0.3169435,-0.0032 0.5760163,0.03863 0.6567095,0.105601 0.074341,0.0617 0.1332672,0.237696 0.1332672,0.398033 0,0.158086 -0.054682,0.393173 -0.1215168,0.522418 -0.066835,0.129242 -0.254147,0.344375 -0.4162529,0.47807 -0.1621028,0.133695 -0.4050223,0.32729 -0.5398142,0.43021 -0.1347951,0.102919 -0.3462102,0.225574 -0.4698127,0.272569 -0.1236026,0.04699 -0.3354963,0.08544 -0.4708746,0.08544 -0.1353783,0 -0.2461433,0.0206 -0.2461433,0.04576 0,0.02517 0.1760158,0.492987 0.3352816,1.055943 0.1592689,0.562954 0.2718522,0.88129 0.3031634,1.065797 0.031317,0.184507 0.1024295,0.414656 0.1456912,0.498341 0.06183,0.119593 0.3069044,0.228402 0.4512715,0.06997 0.1645033,-0.180524 0.1941783,-0.219591 0.271464,-0.287687 0.077286,-0.06809 0.1573567,-0.16348 0.2887551,-0.326202 0.166633,-0.206357 0.4485436,-0.571432 0.7617475,-0.812333 0.27598,-0.131519 0.4082717,-0.131519 0.4082717,0.133064 -0.0316,0.184507 -0.1027311,0.314054 -0.2704634,0.564809 C 9.527433,78.497855 9.1637574,78.947026 8.8869972,79.245262 8.6102338,79.543494 8.2602738,79.839254 8.1093097,79.90251 7.9098193,79.9861 7.7900459,79.99355 7.6709286,79.9298 7.5807822,79.881537 7.4660392,79.765478 7.4159408,79.671868 7.3658424,79.578258 7.2746382,79.267768 7.2132616,78.981886 7.1518883,78.696006 6.9667919,78.009218 6.801941,77.455695 6.6370868,76.902171 6.4617914,76.288891 6.4123903,76.092853 6.3598734,75.884427 6.2734524,75.736417 6.2042782,75.736417 c -0.065066,0 -0.2150952,0.126905 -0.3334011,0.282009 -0.1183058,0.155107 -0.2770993,0.466465 -0.3528793,0.691907 -0.075777,0.225441 -0.1166299,0.526015 -0.1750121,0.670788 -0.050227,0.12455 -0.09601,0.49062 -0.1900508,0.776417 -0.094041,0.285797 -0.1684962,0.716853 -0.2440385,1.01668 -0.075539,0.299823 -0.18376,0.750873 -0.2346002,0.993041 -0.069288,0.330038 -0.4312299,0.349588 -0.542239,0.349588 z M 7.2871683,75.56838 c 0.095743,-1.74e-4 0.3061726,-0.08043 0.4676161,-0.178357 0.1614434,-0.09792 0.4350623,-0.289655 0.6080374,-0.42607 0.1729752,-0.136415 0.3145028,-0.276307 0.3145028,-0.31087 0,-0.03456 -0.066046,-0.06573 -0.1467673,-0.06926 -0.080725,-0.0035 -0.4298195,0.06786 -0.7757729,0.158651 -0.3459534,0.09079 -0.717487,0.222681 -0.8256305,0.293097 l -0.1966249,0.128034 0.190279,0.202543 c 0.1046504,0.111396 0.2686138,0.2024 0.3643603,0.202229 z M 37.02444,80.514289 c -0.06919,0 -0.173666,-0.0304 -0.232168,-0.06751 -0.0585,-0.03713 -0.14045,-0.186355 -0.182107,-0.33161 -0.04968,-0.173226 -0.0368,-0.517486 0.03744,-1.000511 0.06225,-0.405025 0.156179,-0.925114 0.208734,-1.155747 0.05255,-0.230634 0.166993,-0.683517 0.254308,-1.006407 0.08732,-0.32289 0.179683,-0.952197 0.20526,-1.398461 l 0.0465,-0.811392 -0.48096,-0.139819 c -0.264528,-0.0769 -0.623624,-0.212601 -0.797987,-0.301554 -0.226782,-0.115694 -0.317026,-0.216157 -0.317026,-0.352924 0,-0.105154 0.04352,-0.234713 0.09672,-0.287905 0.06486,-0.06486 0.145912,-0.07038 0.246067,-0.01677 0.08215,0.04396 0.418491,0.136545 0.747442,0.205741 0.328944,0.0692 0.668048,0.125812 0.753559,0.125812 0.120807,0 0.196631,-0.13865 0.340083,-0.621861 0.136354,-0.459314 0.228167,-0.633253 0.351247,-0.665442 0.09165,-0.02396 0.257906,-0.0089 0.369454,0.03354 0.111548,0.04241 0.223124,0.130034 0.247947,0.194717 0.02482,0.06468 -0.0155,0.411197 -0.08963,0.770026 -0.07412,0.358832 -0.117498,0.697403 -0.0964,0.752383 0.02111,0.05498 0.37374,0.187464 0.78365,0.294409 0.739891,0.193037 0.745033,0.19621 0.709563,0.437871 -0.01965,0.133882 -0.08257,0.2614 -0.139816,0.283366 -0.05725,0.02197 -0.334387,-0.03764 -0.615861,-0.132462 -0.281477,-0.09482 -0.635621,-0.17106 -0.786987,-0.169419 -0.253013,0.0029 -0.293824,0.04293 -0.50585,0.498145 -0.126849,0.272338 -0.230634,0.57413 -0.230634,0.670647 0,0.09652 -0.05974,0.315802 -0.13275,0.487297 -0.07301,0.171495 -0.169971,0.6326 -0.21546,1.02468 -0.04549,0.392077 -0.108407,1.120028 -0.139816,1.617668 -0.04205,0.66619 -0.09029,0.925723 -0.182913,0.984154 -0.06919,0.04365 -0.182411,0.07936 -0.251601,0.07936 z M 12.996485,80.206313 c -0.33898,0.09729 -0.48362,0.101097 -0.754805,0.01987 -0.184507,-0.05527 -0.448778,-0.159567 -0.587269,-0.231788 -0.138491,-0.07222 -0.313542,-0.201221 -0.389005,-0.286666 -0.07547,-0.08544 -0.235772,-0.43122 -0.35624,-0.768387 -0.139632,-0.390818 -0.219029,-0.787799 -0.219029,-1.095157 0,-0.394432 0.05845,-0.595634 0.321334,-1.106242 0.176738,-0.343265 0.431484,-0.814425 0.566105,-1.047018 0.134623,-0.232592 0.374218,-0.582289 0.532438,-0.777098 0.158219,-0.194808 0.479011,-0.496153 0.712871,-0.669651 0.233861,-0.173495 0.708254,-0.452462 1.054207,-0.619925 0.34595,-0.167462 0.827139,-0.362544 1.069305,-0.433509 0.393306,-0.115259 0.485595,-0.115583 0.864637,-0.0032 0.233382,0.06931 0.568365,0.256137 0.744405,0.415178 0.24266,0.219228 0.361926,0.425997 0.493127,0.854906 0.09518,0.311159 0.192177,0.792183 0.215548,1.068944 0.03833,0.453909 0.01436,0.556604 -0.244555,1.048339 -0.157877,0.299827 -0.362953,0.700497 -0.455726,0.89038 -0.09277,0.189886 -0.348401,0.574732 -0.56807,0.855217 -0.219666,0.280485 -0.569226,0.636803 -0.776797,0.791815 -0.207573,0.155012 -0.698195,0.437452 -1.090275,0.627646 -0.392077,0.190193 -0.901573,0.399963 -1.132206,0.466158 z m 0.115593,-0.872264 c 0.109699,0.0048 0.406258,-0.10965 0.65901,-0.254261 0.252756,-0.144612 0.700497,-0.488321 0.994983,-0.763798 0.372221,-0.348194 0.603029,-0.651508 0.757217,-0.995078 0.121983,-0.271815 0.254375,-0.49421 0.2942,-0.49421 0.03983,0 0.07242,-0.06133 0.07242,-0.136282 0,-0.07496 0.0978,-0.35421 0.217336,-0.620574 0.210509,-0.469074 0.213688,-0.500724 0.101189,-1.007208 l -0.11615,-0.522916 -0.567838,-0.209897 -0.567835,-0.209894 -0.620492,0.314944 c -0.412351,0.209301 -0.768105,0.473388 -1.060556,0.787282 -0.242035,0.259786 -0.576603,0.720473 -0.743479,1.023752 -0.166883,0.303282 -0.370133,0.756164 -0.451672,1.006406 -0.08154,0.250245 -0.186732,0.501825 -0.233762,0.559065 -0.05009,0.06096 -0.06205,0.260537 -0.02885,0.481835 0.0316,0.210721 0.147363,0.485573 0.261792,0.621566 0.112832,0.134092 0.346423,0.281331 0.51909,0.327201 0.172671,0.04587 0.403704,0.0873 0.513407,0.09207 z m 20.188126,0.931206 c -0.06221,0 -0.152134,-0.04718 -0.199824,-0.104834 -0.04769,-0.05766 -0.124052,-0.293535 -0.169691,-0.524168 -0.04564,-0.230637 -0.129096,-0.551429 -0.185458,-0.712872 -0.05636,-0.161444 -0.152938,-0.406756 -0.214616,-0.545136 -0.06168,-0.138384 -0.169828,-0.481788 -0.240327,-0.763126 -0.0705,-0.281337 -0.124829,-0.658738 -0.120731,-0.838671 0.0041,-0.179933 -0.05667,-0.572463 -0.135035,-0.872286 -0.07837,-0.299827 -0.15945,-0.600104 -0.180177,-0.667284 -0.02767,-0.08962 -0.09203,-0.05611 -0.241719,0.125802 -0.112213,0.136371 -0.270804,0.388042 -0.352422,0.559271 -0.103212,0.216524 -0.190023,0.298777 -0.285081,0.270119 -0.09836,-0.02964 -0.174782,0.05401 -0.27257,0.29841 -0.07474,0.186789 -0.135889,0.393722 -0.135889,0.459856 0,0.06613 -0.108761,0.45579 -0.241693,0.865909 -0.132931,0.410119 -0.28522,0.827 -0.338418,0.926401 -0.0532,0.09941 -0.172063,0.180735 -0.264142,0.180735 -0.09208,0 -0.187439,-0.05218 -0.211906,-0.115941 -0.02447,-0.06377 0.01173,-0.318516 0.08047,-0.566105 0.06872,-0.247588 0.319875,-1.013944 0.558113,-1.70301 0.238238,-0.689067 0.524004,-1.371953 0.635038,-1.517525 0.111034,-0.145572 0.20188,-0.295884 0.20188,-0.334026 0,-0.03814 0.05289,-0.128927 0.117539,-0.20175 0.06465,-0.07282 0.135394,-0.350439 0.157218,-0.616922 0.0344,-0.420114 0.07954,-0.523233 0.339573,-0.775773 0.164943,-0.160189 0.359311,-0.291253 0.43193,-0.291253 0.07262,0 0.165707,0.08857 0.206864,0.196822 0.04116,0.108251 0.07777,0.532831 0.08137,0.943505 0.0036,0.410677 0.08367,1.124088 0.177939,1.585355 0.09427,0.46127 0.204388,0.970765 0.244701,1.132208 0.04031,0.161444 0.159374,0.702757 0.264579,1.202921 0.156727,0.745083 0.204996,0.873881 0.267178,0.712872 0.04174,-0.108084 0.14381,-0.479567 0.22682,-0.82552 0.08301,-0.34595 0.177369,-0.836576 0.209684,-1.090273 0.03232,-0.2537 0.126652,-0.61773 0.20964,-0.80896 0.08299,-0.19123 0.175813,-0.474279 0.206284,-0.629003 0.03046,-0.154723 0.08572,-0.356794 0.122765,-0.44905 0.03705,-0.09225 0.110331,-0.302502 0.162848,-0.467223 0.05252,-0.164718 0.09549,-0.363368 0.09549,-0.44144 0,-0.07808 0.04718,-0.226354 0.104834,-0.329515 0.05766,-0.103161 0.109817,-0.198834 0.115903,-0.212613 0.0061,-0.01379 0.113428,6.34e-4 0.23853,0.03204 0.190152,0.04772 0.220946,0.0931 0.187755,0.276652 -0.02184,0.120756 -0.121383,0.533694 -0.221219,0.917634 -0.09983,0.38394 -0.250771,0.874565 -0.335417,1.090276 -0.08465,0.215706 -0.218328,0.731861 -0.297072,1.147002 -0.07874,0.415143 -0.237813,1.113339 -0.353494,1.551546 -0.115678,0.438203 -0.28336,1.051483 -0.372624,1.362839 -0.09715,0.338862 -0.207703,0.566104 -0.275416,0.566104 z m -5.495724,-0.09018 c -0.07218,-0.0035 -0.433605,-0.111076 -0.803167,-0.239119 -0.369565,-0.128044 -0.792268,-0.295034 -0.939343,-0.37109 -0.147075,-0.07606 -0.307022,-0.138282 -0.35544,-0.138282 -0.04842,0 -0.08803,0.115105 -0.08803,0.255786 v 0.255789 l -0.482235,-0.02514 -0.482238,-0.02517 0.0025,-0.629005 c 0.0016,-0.345951 0.0878,-1.019526 0.191959,-1.496829 0.104159,-0.477306 0.211944,-1.175499 0.239521,-1.551546 0.02758,-0.376041 0.087,-0.730474 0.13205,-0.787625 0.04505,-0.05715 0.116157,-0.08274 0.158024,-0.05687 0.04187,0.02587 0.128484,-0.07833 0.192482,-0.231556 0.064,-0.153234 0.17946,-0.522206 0.256587,-0.819937 0.127628,-0.492689 0.128319,-0.55004 0.0077,-0.638249 -0.0729,-0.05331 -0.132544,-0.151592 -0.132544,-0.218411 0,-0.06682 0.05016,-0.190095 0.111475,-0.273942 0.09269,-0.126763 0.142374,-0.135911 0.294894,-0.05428 0.166728,0.08923 0.187975,0.07542 0.233407,-0.151756 0.02748,-0.137455 0.105078,-0.271061 0.172414,-0.296898 0.06734,-0.02583 0.289978,-0.0048 0.494756,0.04677 0.276627,0.06966 0.384685,0.143011 0.420424,0.285407 0.02647,0.105415 0.0069,0.268687 -0.0435,0.36283 -0.07706,0.143984 -0.0575,0.195179 0.123143,0.322313 0.118116,0.08313 0.367273,0.2738 0.553682,0.423711 0.186412,0.149915 0.406801,0.27257 0.489754,0.27257 0.08296,0 0.173736,0.0597 0.201734,0.132659 0.02799,0.07297 0.05091,0.202951 0.05091,0.288859 0,0.08591 -0.08492,0.253053 -0.1887,0.371429 l -0.188704,0.215231 -0.653387,-0.374735 c -0.64405,-0.369381 -0.654364,-0.372091 -0.721684,-0.189588 -0.03757,0.101833 -0.135233,0.392721 -0.217038,0.646418 -0.08181,0.2537 -0.165422,0.504861 -0.185807,0.558142 -0.02117,0.05534 0.08232,0.122318 0.241424,0.156232 0.153167,0.03265 0.487874,0.201154 0.743793,0.374459 0.255918,0.173302 0.585028,0.377005 0.731351,0.452671 0.146327,0.07567 0.308693,0.217263 0.360817,0.314661 0.07819,0.146095 0.06424,0.207624 -0.07974,0.351596 l -0.174513,0.174512 -0.609679,-0.286349 c -0.335319,-0.157491 -0.704025,-0.36799 -0.819342,-0.467774 -0.115317,-0.09979 -0.304017,-0.201969 -0.419337,-0.227077 -0.115317,-0.0251 -0.289652,-0.07068 -0.387408,-0.101275 -0.162169,-0.05075 -0.182136,-0.01645 -0.227866,0.391598 -0.02758,0.245969 -0.07504,0.645356 -0.105497,0.887521 -0.05498,0.437154 -0.05374,0.440302 0.173574,0.440302 0.12592,0 0.547346,0.149208 0.936504,0.331572 0.389157,0.182367 0.760133,0.3114 0.824394,0.286739 0.07182,-0.02755 0.167615,0.05336 0.248634,0.210033 0.120722,0.233445 0.119891,0.279835 -0.0099,0.551935 -0.07791,0.163387 -0.200717,0.294223 -0.272896,0.290752 z M 26.207875,71.5305 c -0.02434,-0.0069 -0.148564,-0.02834 -0.276069,-0.04762 -0.168192,-0.02542 -0.277648,-0.124857 -0.398727,-0.362195 -0.09179,-0.179926 -0.219489,-0.552588 -0.283772,-0.828135 -0.08352,-0.358033 -0.09616,-0.639979 -0.04428,-0.988078 0.03993,-0.267899 0.110083,-0.741794 0.155906,-1.053099 0.04582,-0.311304 0.126474,-0.726448 0.179229,-0.92254 0.05275,-0.196089 0.145429,-0.45237 0.20595,-0.569509 0.107849,-0.208756 0.104669,-0.212353 -0.160223,-0.181429 -0.173311,0.02022 -0.308892,-0.01499 -0.377965,-0.09824 -0.05924,-0.07138 -0.128158,-0.282224 -0.153148,-0.468541 -0.02498,-0.186317 -0.07393,-0.338758 -0.108743,-0.338758 -0.03482,0 -0.0828,-0.122655 -0.106631,-0.272567 -0.0345,-0.217076 0.0595,-0.477471 0.461717,-1.278976 0.277771,-0.553523 0.604341,-1.166734 0.725709,-1.36269 0.125726,-0.202993 0.284951,-0.35635 0.370069,-0.356436 0.08217,-8.2e-5 0.169672,0.05268 0.194447,0.117241 0.02479,0.06457 -0.01068,0.300442 -0.07881,0.524171 -0.06813,0.223727 -0.278282,0.737688 -0.467017,1.142137 -0.255145,0.546762 -0.343151,0.840937 -0.343151,1.147024 0,0.324054 0.03122,0.418424 0.146767,0.443418 0.08072,0.01747 0.363923,-0.03989 0.629338,-0.127463 0.342603,-0.113038 0.555895,-0.248169 0.735387,-0.465908 0.139049,-0.168677 0.404189,-0.597634 0.589196,-0.953233 0.185011,-0.355596 0.369974,-0.6673 0.411026,-0.692674 0.04106,-0.02536 0.134333,0.01357 0.207282,0.08651 0.07308,0.07307 0.115513,0.214651 0.0945,0.315273 -0.02098,0.100447 -0.09649,0.454265 -0.167812,0.786258 -0.07132,0.331997 -0.129669,0.643352 -0.129669,0.691907 0,0.05842 0.503399,0.08874 1.488641,0.08964 1.062924,9.51e-4 1.735749,0.04507 2.352706,0.154185 0.500141,0.08846 0.920426,0.20919 0.997895,0.286659 0.114135,0.114135 0.11816,0.171695 0.02732,0.390955 -0.05857,0.141414 -0.137436,0.257114 -0.175245,0.257114 -0.03781,0 -0.09366,-0.04031 -0.124106,-0.08958 -0.03046,-0.04927 -0.111732,-0.06796 -0.180624,-0.04152 -0.06889,0.02644 -0.296312,-0.02761 -0.505381,-0.120084 -0.337639,-0.149354 -0.561106,-0.168148 -1.999414,-0.168148 -0.890611,0 -1.712555,0.03546 -1.826544,0.0788 -0.172065,0.06542 -0.230446,0.180779 -0.343871,0.679459 -0.07514,0.330364 -0.175162,0.908184 -0.222274,1.284044 -0.04711,0.375861 -0.200439,1.050455 -0.340727,1.499094 -0.140291,0.448638 -0.368595,0.987093 -0.507343,1.196562 -0.138744,0.209472 -0.332152,0.436812 -0.429794,0.5052 -0.09764,0.06839 -0.197436,0.118692 -0.221768,0.111779 z m -0.158632,-0.65837 c 0.04121,0 0.150378,-0.122655 0.2426,-0.27257 0.09222,-0.149912 0.241084,-0.517879 0.330814,-0.817703 0.08973,-0.299827 0.277575,-1.111242 0.417436,-1.803149 0.13986,-0.691903 0.254622,-1.361793 0.255021,-1.488641 3.17e-4,-0.126849 -0.02425,-0.230634 -0.0548,-0.230634 -0.03056,0 -0.219489,0.09608 -0.419876,0.213517 -0.250771,0.146964 -0.427363,0.337883 -0.566516,0.612491 -0.135616,0.267625 -0.248001,0.728822 -0.341373,1.400924 -0.07656,0.551073 -0.141259,1.199181 -0.143772,1.440234 -0.0025,0.241052 0.04271,0.552411 0.100488,0.691903 0.05778,0.139496 0.13877,0.253628 0.17998,0.253628 z m -5.001015,-0.335468 c -0.12676,0 -0.207532,-0.0632 -0.241167,-0.188704 -0.0278,-0.103785 -0.05108,-0.556668 -0.05172,-1.006406 -6.34e-4,-0.449737 -0.02529,-0.817704 -0.05485,-0.817704 -0.02954,0 -0.332203,0.283049 -0.672587,0.629003 -0.440156,0.447355 -0.678958,0.629006 -0.826901,0.629006 -0.114414,0 -0.283503,-0.07548 -0.375756,-0.167735 -0.09225,-0.09225 -0.167735,-0.203516 -0.167735,-0.247247 0,-0.04373 0.18281,-0.298481 0.406249,-0.566105 0.223434,-0.267625 0.675585,-0.73998 1.00478,-1.049681 l 0.598534,-0.563086 0.08361,-0.988456 c 0.04598,-0.54365 0.08737,-1.026196 0.09197,-1.072322 0.0046,-0.04613 0.004,-0.272567 -0.0013,-0.503204 -0.0053,-0.230633 0.0074,-0.664646 0.02818,-0.964473 0.02079,-0.299824 0.06238,-0.642205 0.0924,-0.760846 0.03002,-0.118642 0.171235,-0.284628 0.313831,-0.368862 0.245417,-0.14497 0.26494,-0.145385 0.365571,-0.0078 0.05847,0.07996 0.137534,0.434654 0.175695,0.788199 0.03816,0.353545 0.06319,1.029647 0.05562,1.502446 -0.0076,0.472801 0.01214,0.859639 0.04383,0.859639 0.03167,0 0.129451,-0.133423 0.21727,-0.296499 0.08782,-0.163072 0.331582,-0.454953 0.541684,-0.64862 0.210106,-0.193667 0.386397,-0.39047 0.39176,-0.437341 0.0054,-0.04687 0.0155,-0.131521 0.02254,-0.188114 0.007,-0.0566 0.104593,-0.163067 0.216819,-0.236596 0.15222,-0.09974 0.245151,-0.111694 0.365901,-0.04708 0.08902,0.04765 0.20977,0.202299 0.268329,0.343678 0.09836,0.23747 0.08486,0.29161 -0.177198,0.710615 -0.15602,0.249458 -0.623338,0.855727 -1.038478,1.347259 -0.415143,0.491532 -0.810102,0.994048 -0.877688,1.116699 -0.08547,0.155107 -0.139264,0.629656 -0.17669,1.558577 -0.05042,1.251365 -0.06573,1.345226 -0.242847,1.488646 -0.103969,0.08419 -0.274801,0.153072 -0.379629,0.153072 z m -3.978751,-0.509518 c -0.07218,-0.0035 -0.433605,-0.111078 -0.803166,-0.239122 -0.369562,-0.128043 -0.792269,-0.295034 -0.939341,-0.371086 -0.147074,-0.07606 -0.307025,-0.138282 -0.35544,-0.138282 -0.04842,0 -0.08803,0.115104 -0.08803,0.255786 v 0.255785 l -0.482235,-0.02514 -0.482235,-0.02517 0.0025,-0.629003 c 0.0016,-0.345954 0.0878,-1.019527 0.191956,-1.496833 0.104159,-0.477303 0.211944,-1.175499 0.239525,-1.551543 0.02758,-0.376044 0.087,-0.730477 0.132046,-0.787625 0.04505,-0.05715 0.11616,-0.08274 0.158027,-0.05687 0.04187,0.02586 0.128484,-0.07833 0.192479,-0.23156 0.064,-0.15323 0.179463,-0.522202 0.256587,-0.819934 0.127629,-0.492692 0.12832,-0.55004 0.0077,-0.638249 -0.0729,-0.05331 -0.132541,-0.151591 -0.132541,-0.21841 0,-0.06682 0.05016,-0.190096 0.111475,-0.273943 0.09269,-0.126766 0.142374,-0.13591 0.294894,-0.05429 0.166728,0.08923 0.187972,0.07542 0.233407,-0.151754 0.02748,-0.137454 0.105079,-0.271061 0.172414,-0.296901 0.06734,-0.02583 0.289979,-0.0048 0.494756,0.04677 0.276627,0.06966 0.384685,0.143012 0.420424,0.285411 0.02647,0.105411 0.0069,0.268687 -0.0435,0.362829 -0.07706,0.143985 -0.0575,0.195177 0.123146,0.322313 0.118116,0.08313 0.367271,0.2738 0.553682,0.423712 0.186409,0.149912 0.406801,0.27257 0.489754,0.27257 0.08295,0 0.173736,0.0597 0.201732,0.132658 0.02799,0.07296 0.05091,0.202949 0.05091,0.288859 0,0.08591 -0.08492,0.253054 -0.188703,0.371429 l -0.188701,0.215232 -0.653387,-0.374735 c -0.64405,-0.369381 -0.654364,-0.372092 -0.721684,-0.189588 -0.03757,0.101829 -0.135232,0.39272 -0.217041,0.646417 -0.08181,0.253697 -0.165419,0.504861 -0.185804,0.558139 -0.02117,0.05534 0.08232,0.122319 0.241424,0.156235 0.153167,0.03265 0.487874,0.201155 0.743793,0.374456 0.255919,0.173305 0.585028,0.377008 0.731351,0.452674 0.146324,0.07567 0.308693,0.217263 0.360817,0.314661 0.07819,0.146093 0.06423,0.207624 -0.07974,0.351596 l -0.174513,0.174512 -0.609676,-0.286348 c -0.335325,-0.157494 -0.704028,-0.367993 -0.819348,-0.467775 -0.115317,-0.09978 -0.304017,-0.201969 -0.419334,-0.22708 -0.115317,-0.0251 -0.289652,-0.07068 -0.387411,-0.101275 -0.162169,-0.05075 -0.182136,-0.01642 -0.227866,0.391599 -0.02758,0.245972 -0.07504,0.645355 -0.105494,0.887523 -0.05498,0.437155 -0.05374,0.440302 0.173571,0.440302 0.125923,0 0.547349,0.149208 0.936504,0.331572 0.389157,0.182364 0.760136,0.311397 0.824397,0.286739 0.07182,-0.02758 0.167612,0.05336 0.248631,0.210034 0.120722,0.233445 0.119891,0.279835 -0.0099,0.551933 -0.07791,0.163386 -0.200717,0.294225 -0.272893,0.290754 z m -5.487245,-0.590622 c -0.144701,-0.0054 -0.432923,-0.0393 -0.640493,-0.07528 -0.207573,-0.03598 -0.577405,-0.144945 -0.821849,-0.24215 C 9.8754428,69.021891 9.5169117,68.862761 9.3231491,68.765474 9.1293897,68.668184 8.7727225,68.437338 8.5305573,68.252479 8.2247524,68.019047 8.0902521,67.857537 8.0902521,67.72375 c 0,-0.127036 0.092818,-0.2497 0.2725697,-0.360227 0.1826905,-0.112331 0.3555325,-0.152663 0.5241714,-0.122309 0.1383801,0.02491 0.3648199,0.151817 0.5032032,0.282018 0.1383801,0.130199 0.4727891,0.337804 0.7431306,0.46134 0.289262,0.132184 0.70341,0.241494 1.006409,0.265631 0.442943,0.03529 0.536436,0.01712 0.669205,-0.130198 0.151649,-0.168243 0.148559,-0.1754 -0.177983,-0.411946 C 11.448185,67.575661 11.067313,67.375448 10.784575,67.263145 10.275657,67.061002 10.268458,67.05348 10.066169,66.512426 9.8929653,66.049169 9.8728562,65.90004 9.9341852,65.533673 c 0.039794,-0.237724 0.1304558,-0.544588 0.2014718,-0.681915 0.07102,-0.137331 0.242735,-0.345291 0.381604,-0.462142 0.138865,-0.116848 0.376098,-0.251247 0.527179,-0.298667 0.151085,-0.04742 0.614361,-0.14677 1.029505,-0.220778 0.415143,-0.07401 0.815198,-0.152426 0.889013,-0.174259 0.08671,-0.02564 0.212854,0.07379 0.356436,0.280982 0.122224,0.17637 0.222227,0.421464 0.222227,0.544648 0,0.159722 -0.06616,0.257932 -0.230633,0.342356 -0.126852,0.06511 -0.438207,0.157982 -0.691907,0.206385 -0.253697,0.0484 -0.671363,0.11117 -0.928144,0.139486 -0.433208,0.04778 -0.474035,0.07128 -0.566105,0.325895 -0.05457,0.150923 -0.09923,0.354724 -0.09923,0.452886 0,0.103595 0.11436,0.264084 0.27257,0.382514 0.149912,0.112219 0.393998,0.265437 0.54241,0.340482 0.148413,0.07505 0.412595,0.165187 0.58707,0.200311 0.265887,0.05353 0.345449,0.122373 0.491608,0.425357 0.135784,0.281483 0.161754,0.444667 0.117342,0.737304 -0.03138,0.206699 -0.131426,0.477271 -0.222348,0.601273 -0.09092,0.124002 -0.346127,0.348112 -0.567125,0.498029 -0.260363,0.176617 -0.494426,0.269095 -0.6649,0.262702 z"
       id="path3213"
       inkscape:label="Sexyrodent"
       sodipodi:insensitive="true"
       sodipodi:nodetypes="scsssscssssssscsssssssssssssscssssssscsssssssssscsssssssssssssssssscssssssssssssssccssscssssssssssssssssscsscsssccssssscssssssssscssssssscsssssscccssssssssssscssssssssccsssssssscccsssssssssssssssssscssssssssscssssssssssssssssssssssssssssssscssssccccsssssssssssssscsssssscssssssssscssssssssssccccssssssssssssssssssssssscsssscsscsssssssssssccsssscsssssssscssssssssscsssssssscsssccsssssssscccssssccccsssssssssssssccsssssscssssssssscsssssssscscccssssssssssscsssssssssssssssssssssssss" />
    <path
       id="path5455"
       style="fill:#ffffff;fill-opacity:1;stroke-width:0.0840076"
       d="m 51.337263,58.881508 c -0.129925,3.5e-4 -0.276409,0.0081 -0.408061,0.02297 -0.263309,0.02978 -0.549392,0.105774 -0.635637,0.168837 -0.108527,0.07936 -0.172306,0.264847 -0.207229,0.602657 l -0.05037,0.48813 -0.75607,0.675016 c -0.415837,0.371216 -0.906634,0.776497 -1.090624,0.900621 -0.183993,0.124123 -0.432746,0.225607 -0.552777,0.225607 -0.120034,0 -0.565227,0.171128 -0.989388,0.380332 -0.424161,0.209204 -0.968069,0.41774 -1.208596,0.463355 -0.240523,0.04562 -0.870068,0.270701 -1.398925,0.500108 l -0.961495,0.417086 -0.745896,-0.250055 c -0.410271,-0.137453 -0.893822,-0.273494 -1.074544,-0.302395 -0.180723,-0.0289 -0.415816,-0.03069 -0.522423,-0.0039 -0.106607,0.02676 -0.261142,0.162623 -0.343416,0.301901 -0.08227,0.139281 -0.185979,0.566113 -0.230364,0.948534 -0.05473,0.471612 -0.05132,0.899015 0.0105,1.328372 0.05215,0.362233 0.157864,0.721584 0.247264,0.840077 0.125858,0.166812 0.2267,0.205593 0.518158,0.199354 0.19899,-0.0042 0.489546,-0.07395 0.645809,-0.154889 l 0.284184,-0.147178 -0.05644,0.224951 c -0.03109,0.123779 -0.03331,0.298406 -0.0048,0.387878 0.0284,0.08948 0.260891,0.268382 0.516681,0.397726 0.255791,0.129342 0.699425,0.440409 0.985777,0.691257 0.286353,0.25085 0.680183,0.650668 0.87519,0.888481 0.195005,0.237814 0.468856,0.661243 0.608564,0.94082 0.139708,0.279579 0.283786,0.696243 0.320115,0.926055 0.03633,0.229811 0.04847,0.537322 0.02708,0.683218 -0.02142,0.145897 -0.09236,0.285703 -0.15768,0.310764 -0.06532,0.02507 -0.315157,-0.05626 -0.555238,-0.180813 -0.240081,-0.12456 -0.712059,-0.437616 -1.048784,-0.695525 -0.336725,-0.257911 -0.828784,-0.656856 -1.093414,-0.886676 -0.26463,-0.22982 -0.783504,-0.701464 -1.153136,-1.047963 -0.369635,-0.3465 -1.432008,-1.381106 -2.360749,-2.29922 -1.446678,-1.430123 -1.725001,-1.669325 -1.942843,-1.669325 -0.139849,0 -0.294757,0.04883 -0.344235,0.108455 -0.05225,0.06296 -0.08292,0.423878 -0.07318,0.86108 0.01523,0.682471 0.04127,0.791803 0.279425,1.172662 0.14446,0.231022 0.56508,0.779172 0.93475,1.218112 0.369669,0.43894 1.100449,1.228628 1.623875,1.754809 0.523428,0.526181 1.369126,1.266588 1.879345,1.645371 0.510219,0.378783 1.116472,0.855513 1.347241,1.059449 0.230772,0.203939 0.642812,0.578736 0.915717,0.832857 0.272906,0.254126 0.707887,0.670827 0.966582,0.926054 0.25869,0.255228 0.655031,0.670191 0.880767,0.922116 0.225734,0.251929 0.498066,0.591291 0.605119,0.7541 0.107048,0.16281 0.389573,0.844148 0.627924,1.514109 0.238352,0.669964 0.42741,1.312622 0.420204,1.428131 -0.0072,0.11551 -0.01614,0.550248 -0.02002,0.966088 -0.0046,0.501321 0.03815,0.87716 0.126997,1.115562 l 0.133887,0.35966 -0.438252,-0.05645 c -0.285793,-0.0368 -0.738023,-0.213089 -1.300479,-0.506672 -0.565824,-0.295331 -0.964081,-0.450063 -1.157894,-0.450063 -0.162473,0 -0.431042,-0.0567 -0.596916,-0.12601 -0.165873,-0.0693 -0.420929,-0.126014 -0.566723,-0.126014 -0.145792,0 -0.358466,0.06433 -0.472708,0.143077 -0.11424,0.07874 -0.255108,0.201597 -0.31306,0.273023 -0.05795,0.07143 -0.256418,0.351576 -0.441041,0.622514 -0.254905,0.374088 -0.335702,0.574412 -0.335702,0.832201 0,0.285071 0.05216,0.389075 0.326186,0.649744 0.17947,0.170723 0.506306,0.411006 0.726208,0.533909 0.2199,0.122904 0.617188,0.279812 0.882902,0.348667 0.321103,0.08321 0.895526,0.12519 1.712806,0.12519 1.00951,0 1.319418,0.03016 1.731018,0.168836 0.275741,0.09289 0.737505,0.312223 1.026305,0.48731 0.288803,0.175085 0.657526,0.377948 0.819239,0.450886 0.161713,0.07294 0.350733,0.153102 0.420038,0.17819 0.0693,0.02506 0.224076,0.04869 0.343907,0.05234 0.119828,0.0036 0.43698,-0.06885 0.704714,-0.160958 0.267733,-0.09211 0.809893,-0.228067 1.204821,-0.302069 0.394931,-0.07401 0.814869,-0.171233 0.933274,-0.216252 0.118409,-0.04502 0.284536,-0.144407 0.36901,-0.22085 0.08447,-0.07645 0.292473,-0.14636 0.462206,-0.155219 0.169738,-0.0089 0.705402,-0.04293 1.190548,-0.07581 0.485147,-0.03286 0.985509,-0.112331 1.11179,-0.176548 0.126279,-0.06421 0.290578,-0.234808 0.365237,-0.379182 0.108636,-0.210218 0.129982,-0.465219 0.106486,-1.279804 -0.02876,-0.997518 -0.03551,-1.028312 -0.350143,-1.597627 -0.176462,-0.319299 -0.591649,-0.961954 -0.922607,-1.42813 -0.330957,-0.46617 -0.649746,-0.897647 -0.708324,-0.958704 -0.05857,-0.06105 -0.106486,-0.124946 -0.106486,-0.142091 0,-0.01716 0.08153,-0.169328 0.181142,-0.338164 0.103484,-0.175392 0.213539,-0.564666 0.256782,-0.908006 0.04163,-0.330501 0.08043,-0.714263 0.08614,-0.852875 0.0058,-0.138615 -0.05871,-0.424443 -0.143077,-0.635145 l -0.1533,-0.38313 0.628255,-0.834991 c 0.345594,-0.459259 0.968446,-1.326434 1.383993,-1.927091 0.415547,-0.600655 0.974246,-1.41343 1.241577,-1.806166 0.267333,-0.392737 0.680212,-0.896837 0.917519,-1.120157 0.23731,-0.223323 0.650967,-0.599377 0.919326,-0.835812 0.418792,-0.36898 0.48052,-0.460332 0.435135,-0.644168 -0.02909,-0.117798 -0.154183,-0.321112 -0.277949,-0.45187 -0.123765,-0.13076 -0.479178,-0.426643 -0.789867,-0.65746 -0.411195,-0.305481 -0.611168,-0.405 -0.734905,-0.365728 -0.0949,0.03012 -0.190541,0.153586 -0.216418,0.279424 -0.02549,0.123983 -0.09049,0.376657 -0.144552,0.561473 -0.05629,0.192429 -0.271023,0.520072 -0.502405,0.766735 -0.248279,0.264681 -0.459839,0.594585 -0.548676,0.855664 -0.0864,0.253903 -0.71926,1.25412 -1.572681,2.485448 -0.785476,1.133284 -1.447022,2.060489 -1.470137,2.060486 -0.0231,-3e-6 -0.281208,-0.367191 -0.573615,-0.815957 l -0.531611,-0.815959 0.05037,-0.714065 c 0.0277,-0.392736 0.102828,-0.921985 0.166867,-1.176108 0.06403,-0.254124 0.167588,-0.603576 0.230201,-0.776579 0.06261,-0.173003 0.590148,-0.910171 1.172335,-1.638151 0.582192,-0.72798 1.223117,-1.566905 1.424193,-1.86425 0.316462,-0.467968 0.370191,-0.612206 0.399528,-1.073067 0.02489,-0.391104 -0.0147,-0.682392 -0.149144,-1.097515 -0.100673,-0.310811 -0.286364,-0.716297 -0.412492,-0.901114 -0.149356,-0.218852 -0.303764,-0.344855 -0.443008,-0.361299 -0.122031,-0.01441 -0.262962,0.03397 -0.328322,0.112722 -0.07686,0.09263 -0.130054,0.487612 -0.161615,1.20154 l -0.04693,1.063551 -0.651059,0.817925 c -0.358088,0.449801 -0.832917,0.997726 -1.055184,1.217785 -0.222266,0.220061 -0.536549,0.589203 -0.698314,0.820224 -0.161765,0.231021 -0.447762,0.684664 -0.635635,1.008093 -0.187878,0.323429 -0.436533,0.758168 -0.552614,0.966089 -0.116078,0.207918 -0.26505,0.388937 -0.330945,0.402317 -0.06589,0.01338 -0.296561,-0.05146 -0.512579,-0.144057 l -0.3928,-0.168345 0.0036,-0.443992 c 0.002,-0.244215 0.04933,-0.639476 0.105175,-0.878309 0.09633,-0.411984 0.144542,-0.468218 0.941477,-1.099319 0.461992,-0.365857 0.882882,-0.718692 0.935242,-0.783962 0.05236,-0.06527 0.137416,-0.318925 0.189018,-0.563771 0.0516,-0.244847 0.09361,-0.566176 0.09336,-0.714066 -2.52e-4,-0.14789 -0.04036,-0.412523 -0.08909,-0.588054 -0.05618,-0.202284 -0.162365,-0.35273 -0.289924,-0.41085 l -0.201325,-0.09172 0.204278,-0.160633 c 0.198608,-0.156234 0.203823,-0.189287 0.185408,-1.18989 -0.01889,-1.025481 -0.01817,-1.030264 0.224949,-1.318692 0.1342,-0.159206 0.351567,-0.516254 0.483045,-0.793478 0.131477,-0.277226 0.262223,-0.62672 0.290417,-0.77658 0.02807,-0.149861 0.02857,-0.362415 9.85e-4,-0.472379 -0.02877,-0.1146 -0.149351,-0.237459 -0.282379,-0.287792 -0.127652,-0.0483 -0.339135,-0.111246 -0.470081,-0.139958 -0.06548,-0.01435 -0.17887,-0.02136 -0.308794,-0.02101 z m -0.583296,1.614359 c 0.06951,0.003 0.156462,0.02329 0.284674,0.05759 l 0.372292,0.0996 -0.232497,0.299114 c -0.127877,0.1645 -0.260251,0.37472 -0.294191,0.467128 -0.03395,0.0924 -0.0598,0.583854 -0.05727,1.092101 l 0.0045,0.924084 -0.512742,0.294027 c -0.282037,0.161716 -0.574524,0.332528 -0.649911,0.379676 -0.07539,0.04714 -0.293801,0.18695 -0.485342,0.310599 -0.191538,0.123649 -0.567436,0.403333 -0.835319,0.621525 -0.267883,0.218194 -0.573748,0.494231 -0.679774,0.613487 -0.106028,0.119256 -0.236622,0.357514 -0.290252,0.529314 -0.07646,0.244874 -0.07453,0.340165 0.0092,0.441041 0.05873,0.07078 0.173642,0.128636 0.255305,0.128636 0.08166,0 0.632051,-0.453185 1.223035,-1.007108 0.758447,-0.710881 1.152557,-1.021818 1.340021,-1.056986 0.146074,-0.02741 0.375592,-0.03732 0.509953,-0.02198 0.200018,0.02282 0.249349,0.07269 0.272368,0.274994 0.01549,0.135896 0.003,0.414671 -0.02772,0.619558 -0.03224,0.215013 -0.133674,0.447961 -0.239882,0.550971 -0.101204,0.09816 -0.33445,0.297651 -0.518321,0.443174 -0.183872,0.145523 -0.525033,0.414308 -0.758202,0.597408 -0.364542,0.286259 -0.439084,0.396419 -0.532103,0.785603 -0.0595,0.248928 -0.129273,0.76514 -0.155054,1.147229 l -0.04693,0.694705 0.327007,0.313389 c 0.279607,0.267988 0.35508,0.422909 0.521274,1.069457 0.10689,0.415838 0.267537,1.005936 0.357033,1.311308 0.135941,0.463856 0.265898,0.672925 0.789705,1.270452 l 0.627104,0.715214 -0.411178,0.255634 c -0.226149,0.140581 -0.465466,0.362749 -0.531776,0.493709 -0.0663,0.130964 -0.167574,0.438291 -0.225113,0.683055 -0.08015,0.340942 -0.196935,0.539835 -0.499288,0.85025 -0.246649,0.253223 -0.636113,0.521286 -1.038285,0.714722 -0.44636,0.214691 -0.744389,0.42747 -0.972815,0.694705 -0.299107,0.349927 -0.336798,0.370719 -0.41167,0.226426 -0.04534,-0.08738 -0.185325,-0.480159 -0.311091,-0.872892 -0.125766,-0.392737 -0.320497,-0.908288 -0.432673,-1.145754 -0.112175,-0.237468 -0.501017,-0.766715 -0.864195,-1.176107 -0.363184,-0.409395 -1.092799,-1.141358 -1.621252,-1.626502 -0.528457,-0.485145 -1.072014,-0.976591 -1.20794,-1.0921 C 42.668727,72.350812 42.3689,72.103006 42.138334,71.915678 41.907768,71.728351 41.473394,71.400979 41.173066,71.188159 40.87274,70.975337 40.166565,70.334761 39.603828,69.764621 39.041086,69.19448 38.328928,68.429028 38.021299,68.06363 37.71367,67.698231 37.364352,67.244689 37.245047,67.0557 37.101315,66.82801 37.023219,66.5779 37.013534,66.314397 l -0.0146,-0.397722 2.109217,2.077712 c 1.160088,1.142736 2.448957,2.364494 2.864139,2.714994 0.41518,0.350499 1.000645,0.818795 1.300971,1.040579 0.300328,0.221783 0.735068,0.492237 0.966089,0.601017 0.231022,0.108778 0.557565,0.198215 0.725714,0.198533 0.175092,5.08e-4 0.389081,-0.06659 0.500765,-0.157022 0.162828,-0.131851 0.20045,-0.255184 0.228232,-0.746881 0.0183,-0.323877 -0.0096,-0.788955 -0.06201,-1.033525 -0.05244,-0.244571 -0.210326,-0.670784 -0.350798,-0.94722 -0.140477,-0.276436 -0.425171,-0.723322 -0.632683,-0.992998 -0.207511,-0.269678 -0.639154,-0.710638 -0.959198,-0.980034 -0.320046,-0.269397 -0.733279,-0.56231 -0.918179,-0.650897 -0.184895,-0.08859 -0.336378,-0.180758 -0.337015,-0.204768 -5.07e-4,-0.02401 0.168634,-0.269734 0.376067,-0.546051 0.207435,-0.276316 0.377399,-0.579968 0.378035,-0.674686 5.08e-4,-0.09472 -0.04447,-0.217581 -0.09992,-0.273025 -0.05544,-0.05544 -0.150838,-0.100744 -0.212152,-0.100744 -0.06131,0 -0.456447,0.20792 -0.87798,0.462043 -0.421534,0.254123 -0.853027,0.462043 -0.958869,0.462043 -0.105839,0 -0.21707,-0.03994 -0.247264,-0.08877 -0.0302,-0.04883 -0.03246,-0.178081 -0.0052,-0.287136 0.02737,-0.109054 0.178735,-0.319931 0.336359,-0.468607 0.157625,-0.148674 0.559182,-0.43344 0.892419,-0.632846 0.443782,-0.265559 0.664904,-0.350742 0.826622,-0.318474 0.15356,0.03063 0.511387,-0.0871 1.175287,-0.386732 0.524992,-0.236936 0.971576,-0.413885 0.992341,-0.39313 0.02076,0.02076 -0.07808,0.169665 -0.219536,0.33078 -0.14146,0.161117 -0.257108,0.368365 -0.257108,0.460565 0,0.0922 0.0519,0.210687 0.115345,0.263346 0.06346,0.05265 0.167409,0.07309 0.231022,0.04544 0.06361,-0.02763 0.333044,-0.308033 0.598719,-0.623166 0.265673,-0.315132 0.484585,-0.60512 0.486491,-0.644332 0.002,-0.03921 0.339314,-0.236252 0.74967,-0.437925 0.410353,-0.201671 0.925179,-0.400004 1.143949,-0.440875 0.249347,-0.04659 0.557338,-0.195255 0.825474,-0.398217 0.235256,-0.178075 0.676507,-0.546628 0.980527,-0.819076 0.304019,-0.272444 0.653753,-0.580287 0.777236,-0.684038 0.128874,-0.108283 0.196219,-0.151656 0.312076,-0.146686 z m 4.037784,2.771599 0.158664,0.378035 c 0.08907,0.212276 0.160717,0.587133 0.163257,0.855007 0.0045,0.464106 -0.01196,0.499443 -0.609876,1.302121 -0.338024,0.453788 -0.976294,1.271817 -1.418286,1.817816 -0.66503,0.82152 -0.833205,1.089546 -0.975771,1.554142 -0.09475,0.30878 -0.218859,0.788295 -0.275813,1.06552 -0.05696,0.277226 -0.106847,0.827557 -0.110752,1.222871 l -0.0071,0.718659 0.468769,0.709471 c 0.257863,0.390159 0.537639,0.82794 0.62169,0.972981 0.150004,0.258846 0.149396,0.269303 -0.03462,0.567052 -0.103109,0.166841 -0.21276,0.303565 -0.243655,0.304199 -0.03088,5.08e-4 -0.410214,-0.368093 -0.842866,-0.819075 -0.432648,-0.450981 -0.871505,-0.933303 -0.975276,-1.071919 -0.106154,-0.14179 -0.28437,-0.640521 -0.407405,-1.140175 -0.120276,-0.488451 -0.242327,-0.949685 -0.271221,-1.024992 -0.04419,-0.115187 -0.0064,-0.129418 0.238077,-0.08975 0.239764,0.0389 0.315331,0.01247 0.432181,-0.151116 0.07788,-0.109032 0.43241,-0.704784 0.7879,-1.323942 0.467679,-0.81456 0.832533,-1.325433 1.319676,-1.848168 0.370282,-0.397337 0.926312,-1.047239 1.235668,-1.444212 0.376297,-0.482873 0.590667,-0.844345 0.647778,-1.092101 0.04696,-0.203681 0.0885,-0.616045 0.09221,-0.916372 z m -13.718197,0.487639 c 0.06341,0.0042 0.148679,0.02315 0.27204,0.05479 0.205452,0.05271 0.428764,0.114748 0.496171,0.137825 0.07868,0.02693 -0.06066,0.157714 -0.388864,0.365236 -0.281211,0.177806 -0.537033,0.364975 -0.568529,0.415937 -0.03149,0.05097 -0.09759,0.09271 -0.146849,0.09271 -0.0555,0 -0.06945,-0.09983 -0.03691,-0.262523 0.02888,-0.144388 0.05251,-0.326158 0.05251,-0.403959 0,-0.0778 0.04922,-0.208874 0.10944,-0.291239 0.06028,-0.08243 0.105326,-0.115912 0.211004,-0.108782 z m 17.036175,3.582634 0.394608,0.307317 c 0.216957,0.169028 0.394442,0.331355 0.394442,0.360643 0,0.02928 -0.332033,0.359331 -0.737857,0.73359 -0.448346,0.413477 -0.936605,0.973256 -1.244199,1.426656 -0.278422,0.410396 -0.765258,1.124259 -1.08193,1.586301 -0.316671,0.462043 -0.945413,1.331523 -1.397285,1.932178 -0.451875,0.600655 -0.896019,1.177158 -0.986926,1.281118 -0.09091,0.103963 -0.206431,0.189017 -0.256781,0.189017 -0.05035,0 -0.09156,-0.0422 -0.09156,-0.09385 0,-0.05164 0.200936,-0.363522 0.446618,-0.693064 0.24568,-0.329547 0.701404,-0.977249 1.012687,-1.439289 0.311286,-0.462044 0.83177,-1.218112 1.156582,-1.680153 0.324813,-0.462043 0.738572,-1.063248 0.919493,-1.336086 0.180922,-0.272837 0.328974,-0.586209 0.328974,-0.696344 0,-0.126148 0.155861,-0.362307 0.421189,-0.638097 0.238757,-0.248177 0.486192,-0.611555 0.571482,-0.83893 z m -6.403128,7.706889 c 0.0689,6.03e-4 0.134385,0.0239 0.223966,0.07022 0.119781,0.06194 0.255106,0.183194 0.326678,0.243819 0.690887,0.373124 0.711881,0.296882 1.193174,0.718168 0.177859,0.02661 0.155873,0.435894 0.155873,0.516516 0,0.08062 -0.120836,0.460861 -0.268432,0.845 -0.176795,0.460137 -0.386917,0.828196 -0.615947,1.07881 -0.1912,0.209221 -0.417324,0.563053 -0.502569,0.78626 -0.13553,0.354877 -0.141493,0.449571 -0.04709,0.753771 0.05937,0.191331 0.126852,0.533746 0.149967,0.760994 0.02312,0.227245 -5.07e-4,0.555204 -0.05251,0.728669 -0.06078,0.20284 -0.25133,0.456972 -0.534073,0.71226 -0.241791,0.218316 -0.590779,0.466068 -0.775595,0.550643 -0.184816,0.08458 -0.430541,0.15049 -0.54605,0.146521 -0.115512,-0.0039 -0.487029,-0.0578 -0.825475,-0.119612 -0.343193,-0.06267 -0.805344,-0.219662 -1.04501,-0.355064 -0.40665,-0.229744 -0.435886,-0.269518 -0.544081,-0.739662 -0.06289,-0.273258 -0.147108,-0.874861 -0.187212,-1.336905 -0.0401,-0.462043 -0.09549,-0.934586 -0.123058,-1.050095 -0.03748,-0.15716 0.02292,-0.308333 0.239881,-0.600524 0.221521,-0.298326 0.470722,-0.485784 1.056166,-0.794464 0.471036,-0.248358 0.904617,-0.552018 1.12541,-0.788065 0.197547,-0.211194 0.41954,-0.552898 0.49338,-0.759514 0.07384,-0.206616 0.15625,-0.478681 0.183112,-0.604463 0.02687,-0.125784 0.133527,-0.309658 0.236926,-0.408717 0.103401,-0.09906 0.30071,-0.228996 0.438416,-0.288612 0.102985,-0.04459 0.175248,-0.06658 0.244147,-0.06596 z m -0.449408,3.401983 c -33.217178,-25.104636 -16.60859,-12.552317 0,0 z m -0.232488,0.522776 c -0.263845,-0.07991 -0.291058,-0.08934 -0.421689,-0.12538 -0.173265,-0.04022 -0.437185,-0.07419 -0.586414,-0.07515 -0.239961,-0.0018 -0.300533,0.04902 -0.524228,0.439072 -0.191449,0.333828 -0.253193,0.546976 -0.253828,0.876666 -4.13e-4,0.239564 0.03617,0.532399 0.08122,0.650896 0.04505,0.118498 0.205717,0.293186 0.357032,0.388042 0.198526,0.124444 0.365771,0.161342 0.600854,0.132575 0.23032,-0.02819 0.424023,-0.134108 0.660903,-0.361462 0.184282,-0.176867 0.387283,-0.443312 0.451213,-0.591993 0.06393,-0.148679 0.116332,-0.398764 0.116332,-0.555731 0,-0.161617 -0.07616,-0.381012 -0.174415,-0.506835 -0.131744,-0.168704 -0.08419,-0.126483 -0.306979,-0.270703 z m 2.36566,-0.200692 c 0.04942,0.001 0.215646,0.180607 0.36934,0.399037 0.153693,0.218434 0.497051,0.704657 0.763123,1.080453 0.266073,0.375795 0.565637,0.857472 0.665665,1.070276 0.148048,0.314957 0.181599,0.539306 0.180646,1.206791 -6.34e-4,0.450993 -0.03557,0.874164 -0.07745,0.940329 -0.05356,0.08465 -0.333302,0.137774 -0.943773,0.179336 -0.47722,0.03249 -0.928318,0.08439 -1.002514,0.115182 -0.115742,0.04803 -0.141233,-0.04391 -0.178844,-0.646794 -0.02448,-0.392455 -0.102464,-0.816267 -0.176711,-0.959854 -0.104531,-0.202129 -0.12229,-0.409647 -0.0827,-0.97068 0.04006,-0.567727 0.02226,-0.769941 -0.08729,-0.989554 -0.07574,-0.15182 -0.13766,-0.32879 -0.13766,-0.393296 0,-0.0645 0.05865,-0.230846 0.13044,-0.369664 0.07179,-0.138819 0.211023,-0.34493 0.309287,-0.457941 0.09826,-0.113011 0.219008,-0.204573 0.26843,-0.203621 z m -3.198035,0.647287 c 0.01782,-4.14e-4 0.0368,6.67e-4 0.0571,0.0028 0.113589,0.01197 0.310532,0.06379 0.437594,0.115184 0.159447,0.0645 0.231022,0.154284 0.231022,0.289762 0,0.112809 -0.137425,0.340561 -0.32307,0.535712 -0.177662,0.186763 -0.360878,0.33964 -0.407076,0.33964 -0.04619,0 -0.148093,-0.07093 -0.226591,-0.157678 -0.0785,-0.08674 -0.157729,-0.247404 -0.175891,-0.35703 -0.01816,-0.109626 0.03236,-0.331665 0.112228,-0.493384 0.09992,-0.202288 0.169946,-0.272158 0.294685,-0.274994 z m -1.774829,1.046813 c -0.0853,0.01617 -0.156342,0.118977 -0.171296,0.247594 -0.02172,0.18667 0.07338,0.296615 0.630058,0.728834 0.360599,0.27998 0.738354,0.511689 0.839585,0.514547 0.101235,0.0028 0.208865,-0.03452 0.239061,-0.08336 0.03016,-0.04883 0.03181,-0.171694 0.0037,-0.273027 -0.02805,-0.101338 -0.353384,-0.404278 -0.723089,-0.673208 -0.369702,-0.268934 -0.737901,-0.476598 -0.818091,-0.46139 z m -5.362546,0.672721 c 0.0806,-0.0019 0.193557,0.02239 0.286643,0.06514 0.124117,0.05702 0.443994,0.13483 0.710785,0.172938 0.32176,0.04597 0.683603,0.18372 1.074707,0.409209 0.324284,0.186963 0.783782,0.397766 1.021218,0.468279 0.237444,0.07052 0.608703,0.128144 0.824983,0.128144 0.313563,0 0.4594,0.05282 0.719809,0.260555 0.179618,0.143276 0.496792,0.346456 0.704713,0.451543 0.207918,0.105089 0.650107,0.252432 0.982661,0.327498 0.33255,0.07507 0.789569,0.136513 1.015639,0.136513 0.290316,0 0.556866,-0.07409 0.907513,-0.252023 0.273053,-0.138567 0.644848,-0.386473 0.826295,-0.550975 0.290319,-0.263205 0.339349,-0.282125 0.408718,-0.158171 0.04335,0.07747 0.07892,0.332199 0.07892,0.566069 0,0.280854 -0.04269,0.456364 -0.125848,0.517174 -0.06925,0.05063 -0.140109,0.166837 -0.157351,0.258093 -0.02409,0.127394 -0.148321,0.191086 -0.534893,0.274337 -0.276909,0.05963 -0.805818,0.188639 -1.17545,0.28681 -0.369636,0.09816 -0.842175,0.193296 -1.050096,0.211331 -0.333012,0.02889 -0.468085,-0.01937 -1.134105,-0.405765 -0.415837,-0.24126 -0.945082,-0.513635 -1.176105,-0.605285 -0.340009,-0.134887 -0.724154,-0.178456 -2.016186,-0.228561 -1.127352,-0.04372 -1.703682,-0.101537 -1.962204,-0.196894 -0.201313,-0.07425 -0.550994,-0.27082 -0.777072,-0.436773 -0.228768,-0.167931 -0.411013,-0.368962 -0.411013,-0.453347 0,-0.0834 0.171222,-0.384335 0.380496,-0.668614 0.209273,-0.284283 0.438399,-0.539024 0.509296,-0.566235 0.01773,-0.0068 0.04106,-0.01031 0.06793,-0.01099 z"
       sodipodi:nodetypes="ssscccsssssccsssssssccccssssscsssssssscsssssssssssscccssssssssssssssscsssssssscsssssssscccssssssssssssssccsssssssssscccssssscccssssssscccsscsssssscccccccsssscsssssccsssscccsscccsssssssssssssssscccssscssssssscscsssssssssssssssscssssssscccsssscccsscssssssssssccssssssssssccsssssssssssssscccsccsssssscsscsssscsssssssccccccscsssssssccssscsssssssssscccssssssscsssccssssssssssssssssssscssssssssssss" />
  </g>
</svg>
