<?xml version="1.0" encoding="UTF-8" standalone="no"?>
<svg
   width="62mm"
   height="117mm"
   viewBox="0 0 62 117"
   version="1.1"
   id="svg8"
   inkscape:version="1.2.1 (9c6d41e410, 2022-07-14)"
   sodipodi:docname="sexy_rodent_front_freecad.svg"
   inkscape:export-filename="/home/yann/_dev/98 - Graphics/graphics-pedals/Shining Pig/shining_pig_front_9V.png"
   inkscape:export-xdpi="96"
   inkscape:export-ydpi="96"
   xmlns:inkscape="http://www.inkscape.org/namespaces/inkscape"
   xmlns:sodipodi="http://sodipodi.sourceforge.net/DTD/sodipodi-0.dtd"
   xmlns="http://www.w3.org/2000/svg"
   xmlns:svg="http://www.w3.org/2000/svg"
   xmlns:rdf="http://www.w3.org/1999/02/22-rdf-syntax-ns#"
   xmlns:cc="http://creativecommons.org/ns#"
   xmlns:dc="http://purl.org/dc/elements/1.1/">
  <defs
     id="defs2" />
  <sodipodi:namedview
     id="base"
     pagecolor="#ffffff"
     bordercolor="#666666"
     borderopacity="1.0"
     inkscape:pageopacity="1"
     inkscape:pageshadow="2"
     inkscape:zoom="1.4142136"
     inkscape:cx="-79.195959"
     inkscape:cy="271.17545"
     inkscape:document-units="mm"
     inkscape:current-layer="layer6"
     inkscape:document-rotation="0"
     showgrid="true"
     inkscape:window-width="3836"
     inkscape:window-height="2113"
     inkscape:window-x="0"
     inkscape:window-y="881"
     inkscape:window-maximized="1"
     showborder="true"
     inkscape:showpageshadow="false"
     inkscape:pagecheckerboard="true"
     inkscape:deskcolor="#666666">
    <sodipodi:guide
       position="-2.0168617,58.500093"
       orientation="0,117.16536"
       id="guide1967"
       inkscape:locked="false" />
    <sodipodi:guide
       position="31.001653,138.8865"
       orientation="-221.10236,0"
       id="guide1969"
       inkscape:locked="false" />
    <inkscape:grid
       type="xygrid"
       id="grid1973"
       visible="true"
       enabled="true"
       originx="31.000001"
       originy="58.500002"
       dotted="true"
       snapvisiblegridlinesonly="true"
       spacingx="0.13229167"
       spacingy="0.13229167" />
  </sodipodi:namedview>
  <metadata
     id="metadata5">
    <rdf:RDF>
      <cc:Work
         rdf:about="">
        <dc:format>image/svg+xml</dc:format>
        <dc:type
           rdf:resource="http://purl.org/dc/dcmitype/StillImage" />
      </cc:Work>
    </rdf:RDF>
  </metadata>
  <g
     inkscape:groupmode="layer"
     id="layer6"
     inkscape:label="Base"
     style="display:inline">
    <path
       id="path3384"
       style="display:inline;stroke:#000000;stroke-width:0.02645833;stroke-miterlimit:4;stroke-dasharray:none;stroke-opacity:1;color:#000000;fill:none"
       d="m 33.994141,34.5 v 1.099609 h 0.201171 V 34.5 Z m -3.091797,0 v 0.900391 h 0.199218 V 34.5 Z m -3.001953,0 v 1.099609 h 0.199218 V 34.5 Z m 0.199218,0.900391 v 0.201171 h 5.894532 v -0.201171 z m 2.800782,0.199218 v 6 h 0.201171 l -0.002,-6 z"
       inkscape:label="selector" />
    <path
       id="path3343"
       style="display:inline;font-size:3.35139px;line-height:1.25;font-family:Questrial;-inkscape-font-specification:'Questrial, Normal';letter-spacing:0px;word-spacing:0px;fill:none;stroke-width:0.02645833;stroke:#000000;stroke-opacity:1;stroke-dasharray:none"
       d="m -29.946702,27.6229 v 0.147277 h -1.384412 q 0.01964,0.31092 0.186552,0.474563 0.168552,0.162005 0.468017,0.162005 0.17346,0 0.335466,-0.04255 0.163642,-0.04255 0.324011,-0.127641 v 0.284738 q -0.162005,0.06873 -0.332193,0.104731 -0.170188,0.036 -0.345285,0.036 -0.438561,0 -0.695479,-0.255282 -0.255282,-0.255281 -0.255282,-0.690569 0,-0.450016 0.242191,-0.71348 0.243826,-0.2651 0.656204,-0.2651 0.369832,0 0.584203,0.238917 0.216007,0.237281 0.216007,0.646387 z m -0.301101,-0.08837 q -0.0033,-0.2471 -0.139096,-0.394378 -0.134186,-0.147277 -0.35674,-0.147277 -0.252009,0 -0.404196,0.142368 -0.15055,0.142369 -0.17346,0.400923 z m -2.187895,0.142371 q 0,-0.327284 -0.135823,-0.50729 -0.134186,-0.180006 -0.378013,-0.180006 -0.24219,0 -0.378013,0.180006 -0.134187,0.180006 -0.134187,0.50729 0,0.325648 0.134187,0.505655 0.135823,0.180006 0.378013,0.180006 0.243827,0 0.378013,-0.180006 0.135823,-0.180007 0.135823,-0.505655 z m 0.301102,0.710207 q 0,0.468016 -0.207826,0.695479 -0.207825,0.229099 -0.636567,0.229099 -0.158733,0 -0.299465,-0.02455 -0.140733,-0.02291 -0.273283,-0.072 v -0.292919 q 0.13255,0.072 0.261828,0.106367 0.129277,0.03437 0.263463,0.03437 0.296193,0 0.44347,-0.15546 0.147278,-0.153824 0.147278,-0.46638 V 28.2922 q -0.09328,0.162005 -0.238917,0.24219 -0.145642,0.08019 -0.348558,0.08019 -0.337103,0 -0.543292,-0.256918 -0.206189,-0.256919 -0.206189,-0.680752 0,-0.425469 0.206189,-0.682387 0.206189,-0.256918 0.543292,-0.256918 0.202916,0 0.348558,0.08019 0.145641,0.08018 0.238917,0.24219 v -0.278192 h 0.301102 z"
       inkscape:label="ge"
       transform="rotate(-90)" />
    <path
       id="path3350"
       style="display:inline;font-size:3.35139px;line-height:1.25;font-family:Questrial;-inkscape-font-specification:'Questrial, Normal';letter-spacing:0px;word-spacing:0px;fill:none;stroke-width:0.02645833;stroke:#000000;stroke-opacity:1;stroke-dasharray:none"
       d="m -29.461857,30.482029 v -0.991671 h 0.301102 v 2.546271 h -0.301102 V 31.76171 q -0.09491,0.163642 -0.240553,0.243827 -0.144005,0.07855 -0.346922,0.07855 -0.332193,0 -0.541655,-0.2651 -0.207825,-0.2651 -0.207825,-0.697116 0,-0.432015 0.207825,-0.697115 0.209462,-0.2651 0.541655,-0.2651 0.202917,0 0.346922,0.08019 0.145641,0.07855 0.240553,0.24219 z m -1.026035,0.63984 q 0,0.332194 0.135823,0.522019 0.137459,0.188188 0.376376,0.188188 0.238918,0 0.376377,-0.188188 0.137459,-0.189825 0.137459,-0.522019 0,-0.332193 -0.137459,-0.520381 -0.137459,-0.189825 -0.376377,-0.189825 -0.238917,0 -0.376376,0.189825 -0.135823,0.188188 -0.135823,0.520381 z m -0.674206,-0.07691 v 0.147278 h -1.384412 q 0.01964,0.31092 0.186552,0.474562 0.168551,0.162005 0.468016,0.162005 0.173461,0 0.335467,-0.04255 0.163642,-0.04255 0.324011,-0.12764 v 0.284737 q -0.162006,0.06873 -0.332193,0.104731 -0.170188,0.036 -0.345285,0.036 -0.438561,0 -0.695479,-0.255282 -0.255282,-0.255281 -0.255282,-0.690569 0,-0.450016 0.24219,-0.71348 0.243827,-0.2651 0.656205,-0.2651 0.369831,0 0.584202,0.238917 0.216008,0.237281 0.216008,0.646387 z m -0.301101,-0.08837 q -0.0033,-0.2471 -0.139096,-0.394377 -0.134187,-0.147278 -0.35674,-0.147278 -0.252009,0 -0.404196,0.142368 -0.150551,0.142369 -0.17346,0.400923 z m -2.197714,-1.46623 h 0.301102 v 2.546271 h -0.301102 z"
       inkscape:label="led"
       transform="rotate(-90)" />
    <path
       id="path3355"
       style="display:inline;font-size:3.35139px;line-height:1.25;font-family:Questrial;-inkscape-font-specification:'Questrial, Normal';letter-spacing:0px;word-spacing:0px;fill:none;stroke-width:0.02645833;stroke:#000000;stroke-opacity:1;stroke-dasharray:none"
       d="m -31.82508,33.0092 h 0.301101 v 1.832791 h -0.301101 z m 0,-0.713479 h 0.301101 v 0.381286 h -0.301101 z m -0.577657,0.767481 v 0.284737 q -0.127641,-0.06546 -0.2651,-0.09818 -0.137459,-0.03273 -0.284737,-0.03273 -0.22419,0 -0.337103,0.06873 -0.111277,0.06873 -0.111277,0.206189 0,0.104731 0.08019,0.165279 0.08019,0.05891 0.322375,0.112913 l 0.103095,0.02291 q 0.320738,0.06873 0.454925,0.194734 0.135822,0.124368 0.135822,0.348557 0,0.255282 -0.202916,0.404196 -0.20128,0.148915 -0.554746,0.148915 -0.147278,0 -0.307648,-0.02946 -0.158732,-0.02782 -0.335466,-0.08509 v -0.31092 q 0.166915,0.08673 0.328921,0.130914 0.162005,0.04255 0.320738,0.04255 0.212735,0 0.327284,-0.072 0.11455,-0.07364 0.11455,-0.206189 0,-0.122731 -0.08346,-0.188188 -0.08182,-0.06546 -0.361649,-0.126005 l -0.104731,-0.02455 q -0.279827,-0.05891 -0.404195,-0.180006 -0.124368,-0.122732 -0.124368,-0.335466 0,-0.258555 0.183279,-0.399287 0.183279,-0.140732 0.520382,-0.140732 0.166914,0 0.314192,0.02455 0.147278,0.02455 0.271646,0.07364 z"
       inkscape:label="si"
       transform="rotate(-90)" />
    <path
       id="path3368"
       style="display:inline;font-size:4.16278px;line-height:1.25;font-family:Questrial;-inkscape-font-specification:'Questrial, Normal';letter-spacing:0px;word-spacing:0px;fill:none;stroke-width:0.02645833;stroke:#000000;stroke-opacity:1;stroke-dasharray:none"
       d="m 56.546561,55.08446 q -0.06301,-0.03659 -0.138217,-0.05285 -0.07317,-0.01829 -0.162609,-0.01829 -0.317086,0 -0.487825,0.207326 -0.168707,0.205293 -0.168707,0.591488 v 1.199239 h -0.376032 v -2.276521 h 0.376032 v 0.353674 q 0.117891,-0.207326 0.306924,-0.306924 0.189032,-0.10163 0.459369,-0.10163 0.03862,0 0.08537,0.0061 0.04675,0.0041 0.103663,0.01423 z m -3.996105,1.028499 v -1.378108 h 0.374 v 1.36388 q 0,0.323184 0.126021,0.485793 0.126022,0.160576 0.378065,0.160576 0.302859,0 0.477663,-0.193098 0.176837,-0.193097 0.176837,-0.526445 v -1.290706 h 0.373999 v 2.276521 h -0.373999 v -0.349609 q -0.136185,0.207326 -0.317087,0.308956 -0.178869,0.0996 -0.416685,0.0996 -0.392293,0 -0.595553,-0.243913 -0.203261,-0.243913 -0.203261,-0.713445 z m 0.941097,-1.432988 z m -2.567183,0.317087 q -0.300826,0 -0.47563,0.235782 -0.174804,0.23375 -0.174804,0.642304 0,0.408554 0.172771,0.644337 0.174805,0.233749 0.477663,0.233749 0.298793,0 0.473598,-0.235782 0.174804,-0.235782 0.174804,-0.642304 0,-0.404489 -0.174804,-0.640271 -0.174805,-0.237815 -0.473598,-0.237815 z m 0,-0.317087 q 0.487826,0 0.766293,0.317087 0.278467,0.317086 0.278467,0.878086 0,0.558967 -0.278467,0.878086 -0.278467,0.317087 -0.766293,0.317087 -0.489858,0 -0.768326,-0.317087 -0.276434,-0.319119 -0.276434,-0.878086 0,-0.561 0.276434,-0.878086 0.278468,-0.317087 0.768326,-0.317087 z m -2.038705,-0.831336 h 0.373999 v 3.162737 h -0.373999 z m -1.664706,1.148423 q -0.300825,0 -0.47563,0.235782 -0.174804,0.23375 -0.174804,0.642304 0,0.408554 0.172772,0.644337 0.174804,0.233749 0.477662,0.233749 0.298794,0 0.473598,-0.235782 0.174804,-0.235782 0.174804,-0.642304 0,-0.404489 -0.174804,-0.640271 -0.174804,-0.237815 -0.473598,-0.237815 z m 0,-0.317087 q 0.487826,0 0.766293,0.317087 0.278468,0.317086 0.278468,0.878086 0,0.558967 -0.278468,0.878086 -0.278467,0.317087 -0.766293,0.317087 -0.489858,0 -0.768325,-0.317087 -0.276435,-0.319119 -0.276435,-0.878086 0,-0.561 0.276435,-0.878086 0.278467,-0.317087 0.768325,-0.317087 z m -1.532586,0.142283 v 0.349608 q -0.158543,-0.0874 -0.319119,-0.130087 -0.158543,-0.04472 -0.321152,-0.04472 -0.363837,0 -0.565065,0.231717 -0.201228,0.229685 -0.201228,0.646369 0,0.416685 0.201228,0.648402 0.201228,0.229684 0.565065,0.229684 0.162609,0 0.321152,-0.04268 0.160576,-0.04472 0.319119,-0.13212 v 0.345543 q -0.15651,0.07317 -0.325217,0.109761 -0.166673,0.03659 -0.355706,0.03659 -0.51425,0 -0.817108,-0.323184 -0.302859,-0.323185 -0.302859,-0.871989 0,-0.556934 0.304891,-0.876054 0.306924,-0.319119 0.839467,-0.319119 0.172772,0 0.337413,0.03659 0.164641,0.03455 0.319119,0.105696 z"
       inkscape:label="colour" />
    <path
       id="path3381"
       style="display:inline;font-size:4.16278px;line-height:1.25;font-family:Questrial;-inkscape-font-specification:'Questrial, Normal';letter-spacing:0px;word-spacing:0px;fill:none;stroke-width:0.02645833;stroke:#000000;stroke-opacity:1;stroke-dasharray:none"
       d="m 20.972498,25.741133 v 0.182934 h -1.719586 q 0.02439,0.386196 0.231717,0.589457 0.209359,0.201228 0.581326,0.201228 0.215456,0 0.416684,-0.05285 0.203261,-0.05285 0.402456,-0.158544 v 0.353674 q -0.201228,0.08537 -0.412619,0.130087 -0.211391,0.04472 -0.42888,0.04472 -0.544739,0 -0.863858,-0.317086 -0.317087,-0.317087 -0.317087,-0.857761 0,-0.558967 0.300826,-0.886216 0.302859,-0.329283 0.815076,-0.329283 0.459369,0 0.72564,0.296761 0.268305,0.294728 0.268305,0.80288 z m -0.374,-0.109761 q -0.0041,-0.306924 -0.172772,-0.489858 -0.166674,-0.182935 -0.443108,-0.182935 -0.313022,0 -0.502054,0.176837 -0.187,0.176837 -0.215457,0.497989 z m -3.855856,-0.497989 q 0.140249,-0.252043 0.33538,-0.371967 0.19513,-0.119924 0.459369,-0.119924 0.355706,0 0.548804,0.250011 0.193098,0.247978 0.193098,0.707347 v 1.374043 H 17.90326 v -1.361847 q 0,-0.32725 -0.115858,-0.485793 -0.115859,-0.158544 -0.353674,-0.158544 -0.290663,0 -0.459369,0.193098 -0.168707,0.193098 -0.168707,0.526445 v 1.286641 H 16.42962 v -1.361847 q 0,-0.329283 -0.115859,-0.485793 -0.115858,-0.158544 -0.357739,-0.158544 -0.286597,0 -0.455304,0.195131 -0.168706,0.193097 -0.168706,0.524412 v 1.286641 H 14.95598 v -2.27652 h 0.376032 v 0.353673 q 0.128054,-0.209358 0.306924,-0.308956 0.178869,-0.0996 0.424815,-0.0996 0.247978,0 0.420749,0.126022 0.174805,0.126021 0.258142,0.365869 z m -4.449378,0.941097 v -1.378107 h 0.374 v 1.363879 q 0,0.323185 0.126022,0.485793 0.126021,0.160576 0.378064,0.160576 0.302859,0 0.477663,-0.193097 0.176837,-0.193098 0.176837,-0.526446 v -1.290705 h 0.374 v 2.27652 h -0.374 v -0.349609 q -0.136185,0.207326 -0.317087,0.308957 -0.178869,0.0996 -0.416684,0.0996 -0.392293,0 -0.595554,-0.243913 -0.203261,-0.243912 -0.203261,-0.713445 z m 0.941097,-1.432988 z M 11.17533,23.810156 h 0.374 v 3.162737 h -0.374 z m -1.6647054,1.148423 q -0.3008259,0 -0.4756301,0.235782 -0.1748042,0.23375 -0.1748042,0.642304 0,0.408554 0.1727716,0.644337 0.1748042,0.23375 0.4776627,0.23375 0.2987933,0 0.4735975,-0.235783 0.1748039,-0.235782 0.1748039,-0.642304 0,-0.404489 -0.1748039,-0.640271 -0.1748042,-0.237815 -0.4735975,-0.237815 z m 0,-0.317087 q 0.4878258,0 0.7662934,0.317087 0.278467,0.317087 0.278467,0.878086 0,0.558967 -0.278467,0.878087 -0.2784676,0.317086 -0.7662934,0.317086 -0.4898583,0 -0.7683255,-0.317086 -0.2764346,-0.31912 -0.2764346,-0.878087 0,-0.560999 0.2764346,-0.878086 0.2784672,-0.317087 0.7683255,-0.317087 z m -3.6139758,0.05488 h 0.3963585 l 0.7114125,1.91065 0.7114126,-1.91065 h 0.3963584 l -0.8536951,2.27652 H 6.7503439 Z"
       inkscape:label="volume" />
    <path
       id="path3391"
       style="display:inline;font-size:4.16278px;line-height:1.25;font-family:Questrial;-inkscape-font-specification:'Questrial, Normal';letter-spacing:0px;word-spacing:0px;fill:none;stroke-width:0.02645833;stroke:#000000;stroke-opacity:1;stroke-dasharray:none"
       d="m 54.111162,25.59885 v 1.374043 h -0.373999 v -1.361847 q 0,-0.323185 -0.126022,-0.483761 -0.126022,-0.160576 -0.378065,-0.160576 -0.302858,0 -0.477663,0.193098 -0.174804,0.193098 -0.174804,0.526445 v 1.286641 h -0.376032 v -2.27652 h 0.376032 v 0.353673 q 0.134152,-0.205293 0.315054,-0.306923 0.182935,-0.101631 0.42075,-0.101631 0.392293,0 0.593521,0.243913 0.201228,0.24188 0.201228,0.713445 z m -3.048911,-0.902477 h 0.374 v 2.27652 h -0.374 z m 0,-0.886217 h 0.374 v 0.473597 h -0.374 z m -1.516325,2.018379 q -0.453271,0 -0.628075,0.103663 -0.174805,0.103663 -0.174805,0.353673 0,0.199196 0.130087,0.317087 0.13212,0.115859 0.357739,0.115859 0.310989,0 0.497989,-0.219522 0.189032,-0.221554 0.189032,-0.587423 v -0.08334 z m 0.745967,-0.154478 v 1.298836 h -0.374 V 26.62735 q -0.128054,0.207325 -0.319119,0.306923 -0.191065,0.09756 -0.4675,0.09756 -0.349608,0 -0.556934,-0.19513 -0.205293,-0.197163 -0.205293,-0.526445 0,-0.384163 0.256108,-0.579293 0.258141,-0.195131 0.768326,-0.195131 h 0.524412 v -0.03659 q 0,-0.258141 -0.170739,-0.398391 -0.168706,-0.142282 -0.47563,-0.142282 -0.19513,0 -0.380097,0.04675 -0.184968,0.04675 -0.355707,0.14025 v -0.345543 q 0.205294,-0.07927 0.398391,-0.117892 0.193098,-0.04065 0.376033,-0.04065 0.493923,0 0.737836,0.256109 0.243913,0.256108 0.243913,0.776456 z m -2.924922,0.134152 q 0,-0.406522 -0.168706,-0.630109 -0.166674,-0.223586 -0.469532,-0.223586 -0.300826,0 -0.469533,0.223586 -0.166674,0.223587 -0.166674,0.630109 0,0.404489 0.166674,0.628075 0.168707,0.223587 0.469533,0.223587 0.302858,0 0.469532,-0.223587 0.168706,-0.223586 0.168706,-0.628075 z m 0.374,0.882151 q 0,0.581326 -0.258141,0.863858 -0.258141,0.284565 -0.790684,0.284565 -0.197163,0 -0.371968,-0.03049 -0.174804,-0.02846 -0.339445,-0.08943 v -0.363837 q 0.164641,0.08944 0.325217,0.132119 0.160576,0.04269 0.32725,0.04269 0.367902,0 0.550837,-0.193098 0.182934,-0.191065 0.182934,-0.579293 v -0.184967 q -0.115858,0.201228 -0.29676,0.300826 -0.180902,0.0996 -0.432946,0.0996 -0.418717,0 -0.674825,-0.31912 -0.256109,-0.319119 -0.256109,-0.845564 0,-0.528478 0.256109,-0.847597 0.256108,-0.31912 0.674825,-0.31912 0.252044,0 0.432946,0.0996 0.180902,0.0996 0.29676,0.300826 v -0.345543 h 0.374 z"
       inkscape:label="gain" />
    <path
       id="path3412"
       d="m 17.981912,1.0218639 h 1.08779 v 0.1464167 h -0.456475 v 1.139466 h -0.174839 v -1.139466 h -0.456476 z m -1.132575,0 h 0.174838 v 0.7811759 q 0,0.2067059 0.07493,0.298001 0.07493,0.090434 0.242879,0.090434 0.167088,0 0.242019,-0.090434 0.07493,-0.091295 0.07493,-0.298001 V 1.0218639 h 0.174839 v 0.8027078 q 0,0.2514921 -0.124885,0.379822 -0.124023,0.1283299 -0.366903,0.1283299 -0.24374,0 -0.368625,-0.1283299 -0.124023,-0.1283299 -0.124023,-0.379822 z m -0.846633,0.1179946 q -0.189481,0 -0.301446,0.141249 -0.111105,0.141249 -0.111105,0.3849897 0,0.2428794 0.111105,0.3841284 0.111965,0.141249 0.301446,0.141249 0.18948,0 0.299723,-0.141249 0.111105,-0.141249 0.111105,-0.3841284 0,-0.2437407 -0.111105,-0.3849897 -0.110243,-0.141249 -0.299723,-0.141249 z m 0,-0.14124898 q 0.27044,0 0.43236,0.18172888 0.161919,0.1808677 0.161919,0.4857588 0,0.3040299 -0.161919,0.4857588 -0.16192,0.1808676 -0.43236,0.1808676 -0.271302,0 -0.434083,-0.1808676 -0.161919,-0.1808677 -0.161919,-0.4857588 0,-0.3048911 0.161919,-0.4857588 0.162781,-0.18172888 0.434083,-0.18172888 z"
       inkscape:label="out"
       style="display:inline;font-size:1.76389px;line-height:1.25;font-family:Questrial;-inkscape-font-specification:'Questrial, Normal';letter-spacing:0px;word-spacing:0px;fill:none;stroke-width:0.02645833;stroke:#000000;stroke-opacity:1;stroke-dasharray:none" />
    <path
       id="path3417"
       d="m 44.730573,1.0218644 h 0.234266 l 0.570164,1.0757318 V 1.0218644 h 0.16881 V 2.3077471 H 45.469546 L 44.899382,1.2320154 v 1.0757317 h -0.168809 z m -0.52021,0 h 0.173977 v 1.2858827 h -0.173977 z"
       style="display:inline;font-size:1.76389px;line-height:1.25;font-family:Questrial;-inkscape-font-specification:'Questrial, Normal';letter-spacing:0px;word-spacing:0px;fill:none;stroke-width:0.02645833;stroke:#000000;stroke-opacity:1;stroke-dasharray:none"
       inkscape:label="in" />
    <path
       id="path3400"
       style="display:inline;font-size:4.16278px;line-height:1.25;font-family:Questrial;-inkscape-font-specification:'Questrial, Normal';letter-spacing:0px;word-spacing:0px;fill:none;stroke-width:0.02645833;stroke:#000000;stroke-opacity:1;stroke-dasharray:none"
       d="m 17.503094,55.779612 v 0.182934 h -1.719586 q 0.02439,0.386196 0.231717,0.589456 0.209359,0.201228 0.581326,0.201228 0.215456,0 0.416684,-0.05285 0.203261,-0.05285 0.402457,-0.158544 v 0.353674 q -0.201228,0.08537 -0.41262,0.130087 -0.211391,0.04472 -0.42888,0.04472 -0.544739,0 -0.863858,-0.317087 -0.317087,-0.317086 -0.317087,-0.85776 0,-0.558967 0.300826,-0.886217 0.302859,-0.329282 0.815076,-0.329282 0.459369,0 0.725641,0.296761 0.268304,0.294728 0.268304,0.80288 z m -0.374,-0.109761 q -0.0041,-0.306924 -0.172772,-0.489859 -0.166673,-0.182934 -0.443108,-0.182934 -0.313021,0 -0.502054,0.176837 -0.187,0.176836 -0.215456,0.497988 z m -2.319205,-0.03252 v 1.374043 h -0.374 v -1.361847 q 0,-0.323185 -0.126021,-0.483761 -0.126022,-0.160576 -0.378065,-0.160576 -0.302859,0 -0.477663,0.193098 -0.174804,0.193098 -0.174804,0.526445 v 1.286641 h -0.376033 v -2.276521 h 0.376033 v 0.353674 q 0.134152,-0.205293 0.315054,-0.306924 0.182935,-0.10163 0.42075,-0.10163 0.392293,0 0.593521,0.243913 0.201228,0.24188 0.201228,0.713445 z m -3.557062,-0.640271 q -0.300826,0 -0.475631,0.235782 -0.174804,0.23375 -0.174804,0.642304 0,0.408554 0.172772,0.644337 0.174804,0.233749 0.477663,0.233749 0.298793,0 0.473597,-0.235782 0.174804,-0.235782 0.174804,-0.642304 0,-0.404489 -0.174804,-0.640271 -0.174804,-0.237815 -0.473597,-0.237815 z m 0,-0.317087 q 0.487825,0 0.766293,0.317087 0.278467,0.317086 0.278467,0.878086 0,0.558967 -0.278467,0.878086 -0.278468,0.317087 -0.766293,0.317087 -0.489859,0 -0.768326,-0.317087 -0.276435,-0.319119 -0.276435,-0.878086 0,-0.561 0.276435,-0.878086 0.278467,-0.317087 0.768326,-0.317087 z M 9.1084258,54.088482 v 0.646369 H 9.878784 v 0.290663 H 9.1084258 v 1.235826 q 0,0.278467 0.075207,0.357738 0.077239,0.07927 0.3109889,0.07927 H 9.878784 V 57.01137 H 9.4946212 q -0.4329453,0 -0.5975865,-0.160576 Q 8.7323935,56.688187 8.7323935,56.26134 v -1.235826 h -0.274402 v -0.290663 h 0.274402 v -0.646369 z"
       inkscape:label="tone" />
    <path
       id="path3405"
       d="M 31.562036,4.4667859 31.07111,3.1809032 h 0.181729 l 0.407383,1.0826219 0.408244,-1.0826219 h 0.180867 l -0.490065,1.2858827 z m -1.43316,-0.026699 V 4.2816119 q 0.06546,0.031006 0.132636,0.04737 0.06718,0.016364 0.131775,0.016364 0.172255,0 0.262689,-0.1154108 0.0913,-0.116272 0.104214,-0.3522612 -0.04995,0.07407 -0.126607,0.1136882 -0.07665,0.039619 -0.169671,0.039619 -0.192926,0 -0.305753,-0.116272 -0.111965,-0.1171333 -0.111965,-0.3195328 0,-0.1980931 0.117133,-0.3178103 0.117133,-0.1197171 0.311781,-0.1197171 0.22307,0 0.340204,0.1713936 0.117994,0.1705323 0.117994,0.4960941 0,0.3040298 -0.144694,0.4857587 -0.143833,0.1808677 -0.387573,0.1808677 -0.06546,0 -0.132637,-0.012919 -0.06718,-0.012919 -0.139526,-0.038758 z m 0.346232,-0.5451867 q 0.117133,0 0.185174,-0.080099 0.0689,-0.080099 0.0689,-0.219625 0,-0.1386652 -0.0689,-0.2187637 -0.06804,-0.08096 -0.185174,-0.08096 -0.117133,0 -0.186035,0.08096 -0.06804,0.080099 -0.06804,0.2187637 0,0.1395264 0.06804,0.219625 0.0689,0.080099 0.186035,0.080099 z"
       style="display:inline;font-size:1.76389px;line-height:1.25;font-family:Questrial;-inkscape-font-specification:'Questrial, Normal';letter-spacing:0px;word-spacing:0px;fill:none;stroke-width:0.02645833;stroke:#000000;stroke-opacity:1;stroke-dasharray:none"
       inkscape:label="9V" />
    <path
       id="circle817-9-9"
       style="display:inline;fill:none;fill-opacity:1;stroke:#000000;stroke-width:0.02645833;stroke-linecap:butt;stroke-linejoin:miter;stroke-miterlimit:4;stroke-dasharray:none;stroke-dashoffset:0;stroke-opacity:1"
       d="m -26.716449,-11.088436 a 0.90072001,0.90072001 0 0 0 -0.900731,0.900731 0.90072001,0.90072001 0 0 0 0.900731,0.9007112 0.90072001,0.90072001 0 0 0 0.895416,-0.8118412 h 2.115856 c 0.04569,0.4607611 0.43327,0.8118249 0.896291,0.8118412 0.17394,-3.11e-4 0.344074,-0.050949 0.489851,-0.1458411 v -0.2258495 c -0.13321,0.1235861 -0.308141,0.1923687 -0.489851,0.1926082 -0.398544,-8e-7 -0.721627,-0.3230847 -0.721628,-0.7216288 -1.1e-5,-0.398551 0.323076,-0.721647 0.721628,-0.721648 0.181756,3.11e-4 0.356694,0.06924 0.489851,0.192954 v -0.226949 c -0.145859,-0.09463 -0.315987,-0.145016 -0.489851,-0.145088 -0.462678,4.67e-4 -0.84975,0.351402 -0.895415,0.811822 h -2.115877 a 0.90072001,0.90072001 0 0 0 -0.896271,-0.811822 z m 0,0.179083 a 0.72162944,0.72162944 0 0 1 0.721628,0.721648 0.72162944,0.72162944 0 0 1 -0.721628,0.7216288 0.72162944,0.72162944 0 0 1 -0.721628,-0.7216288 0.72162944,0.72162944 0 0 1 0.721628,-0.721648 z m 0.100077,0.273514 v 0.350344 h 0.350344 v 0.193911 h -0.350344 v 0.3519744 h -0.193097 v -0.3519744 h -0.351974 v -0.193911 h 0.351974 v -0.350344 z m 6.912712,0.3479 h 1.004592 v 0.200429 h -1.004592 z m 0.458754,-0.800497 a 0.90072001,0.90072001 0 0 0 -0.895415,0.811822 h -2.187086 a 0.48986525,0.48986525 0 0 0 -0.481479,-0.400982 0.48986525,0.48986525 0 0 0 -0.489871,0.489871 0.48986525,0.48986525 0 0 0 0.489871,0.4898714 0.48986525,0.48986525 0 0 0 0.481378,-0.4009814 h 2.186311 a 0.90072001,0.90072001 0 0 0 0.896291,0.8118412 0.90072001,0.90072001 0 0 0 0.900711,-0.9007112 0.90072001,0.90072001 0 0 0 -0.900711,-0.900731 z m 0,0.179083 a 0.72162944,0.72162944 0 0 1 0.721628,0.721648 0.72162944,0.72162944 0 0 1 -0.721628,0.7216288 0.72162944,0.72162944 0 0 1 -0.721628,-0.7216288 0.72162944,0.72162944 0 0 1 0.721628,-0.721648 z"
       transform="translate(53.983194,11.911616)"
       inkscape:label="polarity" />
    <path
       id="path10508"
       style="fill:none;stroke:#000000;stroke-width:0.02645833;stroke-opacity:1;stroke-dasharray:none"
       inkscape:label="hole_colour"
       d="m 53.5,44.799999 a 3.9999995,3.9999995 0 0 1 -4,4 3.9999995,3.9999995 0 0 1 -4,-4 3.9999995,3.9999995 0 0 1 4,-3.999999 3.9999995,3.9999995 0 0 1 4,3.999999 z" />
    <path
       id="path10508-90"
       style="display:inline;fill:none;stroke:#000000;stroke-width:0.02645833;stroke-opacity:1;stroke-dasharray:none"
       inkscape:label="hole_gain"
       d="m 53.5,14.5 a 3.9999995,3.9999995 0 0 1 -4,4 3.9999995,3.9999995 0 0 1 -4,-4 3.9999995,3.9999995 0 0 1 4,-4 3.9999995,3.9999995 0 0 1 4,4 z" />
    <path
       id="path10508-9"
       style="display:inline;fill:none;stroke:#000000;stroke-width:0.02645833;stroke-opacity:1;stroke-dasharray:none"
       inkscape:label="hole_selector"
       d="m 34.5,44.799999 a 3.4999995,3.4999995 0 0 1 -3.5,3.5 3.4999995,3.4999995 0 0 1 -3.5,-3.5 A 3.4999995,3.4999995 0 0 1 31,41.3 a 3.4999995,3.4999995 0 0 1 3.5,3.499999 z" />
    <path
       id="path10508-9-4"
       style="display:inline;fill:none;stroke:#000000;stroke-width:0.02645833;stroke-opacity:1;stroke-dasharray:none"
       inkscape:label="hole_tone"
       d="m 16.5,44.799999 a 3.9999995,3.9999995 0 0 1 -4,4 3.9999995,3.9999995 0 0 1 -3.9999995,-4 A 3.9999995,3.9999995 0 0 1 12.5,40.8 a 3.9999995,3.9999995 0 0 1 4,3.999999 z" />
    <path
       id="path10508-91"
       style="display:inline;fill:none;stroke:#000000;stroke-width:0.02645833;stroke-opacity:1;stroke-dasharray:none"
       inkscape:label="hole_volume"
       d="m 16.5,14.5 a 3.9999995,3.9999995 0 0 1 -4,4 3.9999995,3.9999995 0 0 1 -3.9999995,-4 3.9999995,3.9999995 0 0 1 3.9999995,-4 3.9999995,3.9999995 0 0 1 4,4 z" />
    <path
       id="path10508-7"
       style="display:inline;fill:none;stroke:#000000;stroke-width:0.02645833;stroke-opacity:1;stroke-dasharray:none"
       inkscape:label="hole_fsw"
       d="m 37,106.5 a 5.9999995,5.9999995 0 0 1 -6,6 5.9999995,5.9999995 0 0 1 -6,-6 5.9999995,5.9999995 0 0 1 6,-6 5.9999995,5.9999995 0 0 1 6,6 z" />
    <path
       id="path10508-9-7"
       style="display:inline;fill:none;stroke:#000000;stroke-width:0.02645833;stroke-opacity:1;stroke-dasharray:none"
       inkscape:label="hole_led"
       d="M 16.75,106.5 A 3.7499995,3.7499995 0 0 1 13,110.25 3.7499995,3.7499995 0 0 1 9.2500005,106.5 3.7499995,3.7499995 0 0 1 13,102.75 a 3.7499995,3.7499995 0 0 1 3.75,3.75 z" />
    <path
       style="display:inline;fill:none;fill-opacity:1;stroke-width:0.08347046;stroke:#000000;stroke-opacity:1;stroke-dasharray:none"
       d="m 210.03702,50.915986 c -0.47826,0.31319 -0.6037,0.30879 -0.88581,-0.0311 -0.22203,-0.26753 -0.27152,-0.81125 -0.15257,-1.67612 0.16441,-1.19545 0.13112,-1.3006 -0.50327,-1.58965 -0.51343,-0.23394 -0.67932,-0.50676 -0.67932,-1.11725 0,-0.47692 0.16392,-0.87062 0.40024,-0.96131 0.22014,-0.0845 0.57591,-0.008 0.79062,0.17039 0.3109,0.25803 0.41216,0.25059 0.49736,-0.0365 0.0588,-0.19829 0.34795,-1.2535 0.64245,-2.3449 0.29451,-1.09141 0.52982,-2.16297 0.52291,-2.38125 -0.007,-0.21829 0.53885,-2.0249 1.21277,-4.0147 0.67392,-1.98981 1.22532,-3.7907 1.22532,-4.00198 0,-0.21128 0.30377,-1.07104 0.67506,-1.91059 0.37129,-0.83954 0.61965,-1.67086 0.55191,-1.84738 -0.0677,-0.17652 -0.49363,-0.39504 -0.94642,-0.4856 -0.45278,-0.0906 -1.11652,-0.45792 -1.47497,-0.81636 -0.51171,-0.51172 -0.60359,-0.78283 -0.42771,-1.26204 0.14669,-0.39969 0.4795,-0.64058 0.96436,-0.69802 0.4072,-0.0482 1.2278,0.11156 1.82355,0.35511 0.59574,0.24354 1.46291,0.62529 1.92702,0.84833 0.46412,0.22304 2.3353,1.37366 4.15818,2.55695 2.44512,1.5872 3.69651,2.60201 4.77165,3.86957 1.12077,1.32137 1.51667,2.02368 1.71426,3.04108 0.14132,0.7276 0.33054,2.15635 0.4205,3.175 0.15318,1.73457 0.10794,1.9612 -0.71306,3.57188 -0.87458,1.71576 -0.88315,1.72307 -3.66497,3.12183 -2.02228,1.01685 -3.18534,1.43696 -4.23333,1.52913 -0.79475,0.0699 -1.64238,0.18766 -1.88363,0.26169 -0.24125,0.074 -1.573,0.14155 -2.95944,0.15003 l -2.52081,0.0154 -0.34785,1.07177 c -0.19131,0.58947 -0.59857,1.23595 -0.905,1.43663 z m 5.83651,-4.74654 c 1.30292,-0.11151 2.85073,-0.33243 3.43958,-0.49094 0.58886,-0.15852 1.92485,-0.69352 2.96888,-1.1889 1.41757,-0.67261 2.05404,-1.15127 2.51354,-1.89031 0.51285,-0.82482 0.60667,-1.30478 0.56341,-2.88224 -0.0285,-1.04094 -0.22103,-2.2911 -0.42775,-2.77812 -0.20672,-0.48703 -0.77391,-1.30222 -1.26043,-1.81155 -0.48652,-0.50932 -1.26395,-1.16416 -1.72762,-1.45521 -0.46368,-0.29104 -1.71324,-1.15827 -2.77682,-1.92718 -1.06357,-0.76891 -2.09918,-1.36422 -2.30137,-1.32292 -0.20219,0.0413 -0.789,1.2062 -1.30403,2.58865 -0.51502,1.38244 -1.15093,2.98979 -1.41312,3.57187 -0.26218,0.58208 -0.55373,1.53458 -0.64787,2.11667 -0.0941,0.58208 -0.51028,2.12989 -0.92475,3.43958 -0.41447,1.30969 -0.82918,2.76055 -0.92156,3.22414 -0.16342,0.82 -0.14056,0.84515 0.8415,0.92605 0.55521,0.0457 2.07549,-0.008 3.37841,-0.11959 z m -51.76559,4.83294 c -0.2735,0 -0.53381,-0.26529 -0.62781,-0.63981 -0.0883,-0.3519 -0.0203,-1.33417 0.15122,-2.18282 0.17149,-0.84864 0.65024,-2.92724 1.0639,-4.61911 0.41365,-1.69185 1.3523,-4.57785 2.08588,-6.41332 0.73358,-1.83547 1.56504,-3.79051 1.84768,-4.34453 0.28264,-0.55402 0.59661,-1.44826 0.69772,-1.98719 0.12728,-0.67849 0.32362,-0.97988 0.63832,-0.97988 0.28609,0 0.68296,-0.48778 1.07108,-1.31644 0.33912,-0.72403 0.87512,-1.55932 1.19113,-1.85619 0.56951,-0.53503 0.57864,-0.53523 1.04213,-0.0231 0.39784,0.4396 0.42254,0.6532 0.16559,1.43176 -0.1661,0.5033 -0.76709,1.57902 -1.33553,2.3905 -0.56844,0.81148 -0.91832,1.54662 -0.7775,1.63365 0.14082,0.087 0.64081,-0.0736 1.1111,-0.35696 0.47029,-0.28336 1.50035,-0.72472 2.28902,-0.98081 0.78867,-0.25609 2.17706,-0.47272 3.0853,-0.48139 0.99989,-0.01 1.81721,0.12188 2.07178,0.33315 0.23453,0.19464 0.42043,0.74988 0.42043,1.25571 0,0.49873 -0.17251,1.24038 -0.38336,1.64812 -0.21085,0.40773 -0.80178,1.08643 -1.31319,1.50821 -0.5114,0.42178 -1.27776,1.03253 -1.703,1.35722 -0.42525,0.32469 -1.09222,0.71164 -1.48216,0.8599 -0.38994,0.14825 -1.05842,0.26955 -1.48551,0.26955 -0.42709,0 -0.77653,0.065 -0.77653,0.14435 0,0.0794 0.4111,1.59743 0.91355,3.37344 0.50246,1.776 0.99438,3.70534 1.09316,4.28742 0.0988,0.58208 0.29128,1.27433 0.42776,1.53834 0.19506,0.37729 0.42822,0.44176 1.08966,0.30128 0.46282,-0.0983 1.04098,-0.35449 1.2848,-0.56932 0.24382,-0.21482 0.7448,-1.00524 1.1133,-1.75648 0.3685,-0.75125 1.39794,-2.08028 2.28764,-2.9534 l 1.61765,-1.5875 -0.18135,1.05833 c -0.0997,0.58208 -0.61429,1.70558 -1.14345,2.49666 -0.52915,0.79107 -1.67647,2.20811 -2.54959,3.14898 -0.87313,0.94086 -1.97718,1.87392 -2.45344,2.07348 -0.62935,0.2637 -1.00721,0.28722 -1.383,0.0861 -0.28438,-0.1522 -0.64637,-0.51834 -0.80442,-0.81366 -0.15805,-0.29532 -0.44578,-1.27485 -0.63941,-2.17675 -0.19362,-0.90189 -0.77756,-3.06856 -1.29763,-4.81481 -0.52008,-1.74625 -1.0731,-3.68102 -1.22895,-4.29948 -0.16568,-0.65754 -0.43832,-1.12448 -0.65655,-1.12448 -0.20527,0 -0.67858,0.40036 -1.05181,0.88968 -0.37323,0.48933 -0.87419,1.4716 -1.11326,2.18282 -0.23906,0.71122 -0.64656,1.56746 -0.90556,1.90275 -0.25899,0.3353 -0.71364,1.34733 -1.01032,2.24896 -0.29668,0.90163 -0.7344,2.41324 -0.97272,3.35913 -0.23831,0.94588 -0.56452,2.34486 -0.72491,3.10885 -0.21859,1.0412 -0.40863,1.38906 -0.75884,1.38906 z m 9.95371,-15.6114 c 0.30205,-5.5e-4 0.96591,-0.25375 1.47523,-0.56268 0.50932,-0.30893 1.37253,-0.9138 1.91823,-1.34416 0.5457,-0.43036 0.99219,-0.87169 0.99219,-0.98073 0,-0.10904 -0.20836,-0.20736 -0.46302,-0.21849 -0.25467,-0.0111 -1.35599,0.2141 -2.4474,0.50051 -1.09141,0.28641 -2.26352,0.70251 -2.60469,0.92466 l -0.62031,0.40392 0.60029,0.63898 c 0.33015,0.35143 0.84742,0.63853 1.14948,0.63799 z m 93.81482,15.6033 c -0.21828,0 -0.54788,-0.0959 -0.73244,-0.21299 -0.18456,-0.11714 -0.44309,-0.58791 -0.57451,-1.04616 -0.15673,-0.54649 -0.11609,-1.63256 0.11811,-3.1564 0.19638,-1.27777 0.49271,-2.91854 0.65851,-3.64614 0.1658,-0.7276 0.52683,-2.15635 0.80229,-3.175 0.27546,-1.01865 0.56686,-3.00398 0.64755,-4.41185 l 0.1467,-2.55977 -1.51733,-0.4411 c -0.83453,-0.2426 -1.9674,-0.67071 -2.51748,-0.95134 -0.71545,-0.36499 -1.00015,-0.68193 -1.00015,-1.1134 0,-0.33174 0.1373,-0.74047 0.30512,-0.90828 0.20461,-0.20461 0.46032,-0.22205 0.77629,-0.0529 0.25915,0.13869 1.32025,0.43077 2.35802,0.64907 1.03775,0.2183 2.10755,0.39691 2.37732,0.39691 0.38112,0 0.62033,-0.43741 1.07289,-1.96184 0.43017,-1.44904 0.71982,-1.99778 1.10811,-2.09933 0.28914,-0.0756 0.81364,-0.028 1.16555,0.1058 0.35191,0.13379 0.70391,0.41023 0.78222,0.61429 0.0783,0.20406 -0.0489,1.29724 -0.28277,2.42927 -0.23382,1.13204 -0.37068,2.20016 -0.30412,2.37361 0.0666,0.17345 1.17907,0.59141 2.47225,0.9288 2.3342,0.60899 2.35042,0.619 2.23852,1.38139 -0.062,0.42237 -0.26048,0.82466 -0.44109,0.89396 -0.18061,0.0693 -1.05492,-0.11874 -1.94291,-0.41789 -0.888,-0.29914 -2.00525,-0.53966 -2.48278,-0.53448 -0.7982,0.009 -0.92695,0.13545 -1.59585,1.57154 -0.40018,0.85917 -0.7276,1.81126 -0.7276,2.11575 0,0.3045 -0.18846,0.99629 -0.4188,1.53732 -0.23034,0.54103 -0.53622,1.99572 -0.67973,3.23265 -0.14351,1.23692 -0.342,3.53345 -0.44109,5.1034 -0.13266,2.10169 -0.28484,2.92046 -0.57705,3.1048 -0.21828,0.1377 -0.57547,0.25036 -0.79375,0.25036 z m -75.80313,-0.9716 c -1.06941,0.30693 -1.52572,0.31894 -2.38125,0.0627 -0.58208,-0.17435 -1.4158,-0.5034 -1.85271,-0.73124 -0.43691,-0.22784 -0.98916,-0.63481 -1.22723,-0.90437 -0.23808,-0.26956 -0.74381,-1.36041 -1.12386,-2.4241 -0.44051,-1.23295 -0.69099,-2.48534 -0.69099,-3.45499 0,-1.24435 0.18438,-1.8791 1.01374,-3.48996 0.55757,-1.08293 1.36124,-2.56934 1.78594,-3.30312 0.42471,-0.73378 1.18058,-1.837 1.67973,-2.45158 0.49915,-0.61458 1.51118,-1.56526 2.24896,-2.11261 0.73778,-0.54734 2.23439,-1.42742 3.3258,-1.95573 1.0914,-0.52831 2.60945,-1.14375 3.37343,-1.36763 1.2408,-0.36362 1.53195,-0.36464 2.72775,-0.01 0.73627,0.21865 1.79307,0.80806 2.34844,1.3098 0.76554,0.69162 1.1418,1.34393 1.55571,2.69705 0.30028,0.98164 0.60628,2.49917 0.68001,3.37229 0.12092,1.43199 0.0453,1.75597 -0.77152,3.30729 -0.49807,0.94589 -1.14504,2.20992 -1.43772,2.80896 -0.29267,0.59905 -1.09913,1.81316 -1.79214,2.69803 -0.693,0.88487 -1.79579,2.00898 -2.45063,2.49801 -0.65485,0.48903 -2.20266,1.38007 -3.43959,1.98009 -1.23692,0.60002 -2.84427,1.2618 -3.57187,1.47063 z m 0.36467,-2.75181 c 0.34608,0.015 1.28166,-0.34592 2.07904,-0.80214 0.79739,-0.45622 2.20992,-1.54055 3.13896,-2.40962 1.17428,-1.09848 1.90243,-2.05537 2.38886,-3.13926 0.38483,-0.85752 0.8025,-1.55913 0.92814,-1.55913 0.12565,0 0.22846,-0.19348 0.22846,-0.42994 0,-0.23647 0.30854,-1.11746 0.68565,-1.95778 0.66411,-1.47983 0.67414,-1.57968 0.31923,-3.17753 l -0.36643,-1.64969 -1.79141,-0.66218 -1.7914,-0.66217 -1.95752,0.99358 c -1.30088,0.6603 -2.42321,1.49344 -3.34583,2.48371 -0.76357,0.81957 -1.81906,2.27294 -2.34552,3.22972 -0.52648,0.95679 -1.16769,2.38554 -1.42493,3.175 -0.25724,0.78947 -0.5891,1.58315 -0.73747,1.76373 -0.15803,0.19233 -0.19574,0.82194 -0.091,1.52009 0.0997,0.66478 0.4649,1.53188 0.8259,1.96091 0.35596,0.42303 1.09289,0.88754 1.63762,1.03225 0.54474,0.14471 1.2736,0.27541 1.61969,0.29045 z m 63.68928,2.93776 c -0.19627,0 -0.47995,-0.14883 -0.6304,-0.33073 -0.15045,-0.1819 -0.39136,-0.92604 -0.53534,-1.65364 -0.14399,-0.72761 -0.40727,-1.73964 -0.58508,-2.24896 -0.17781,-0.50932 -0.48249,-1.28323 -0.67707,-1.71979 -0.19459,-0.43657 -0.53577,-1.51994 -0.75818,-2.4075 -0.22242,-0.88756 -0.39381,-2.07818 -0.38088,-2.64583 0.0129,-0.56765 -0.17877,-1.806 -0.42601,-2.75188 -0.24723,-0.94589 -0.50303,-1.8932 -0.56842,-2.10514 -0.0873,-0.28272 -0.29034,-0.17702 -0.76257,0.39688 -0.35401,0.43022 -0.85433,1.22419 -1.11182,1.76438 -0.32561,0.68309 -0.59948,0.94258 -0.89937,0.85217 -0.3103,-0.0935 -0.5514,0.1704 -0.8599,0.94142 -0.23578,0.58928 -0.4287,1.24211 -0.4287,1.45075 0,0.20863 -0.34312,1.43792 -0.76249,2.73176 -0.41937,1.29384 -0.89981,2.60901 -1.06764,2.9226 -0.16784,0.3136 -0.54282,0.57018 -0.83331,0.57018 -0.29049,0 -0.59133,-0.1646 -0.66852,-0.36577 -0.0772,-0.20118 0.037,-1.00485 0.25385,-1.78594 0.21681,-0.78109 1.00914,-3.19878 1.76073,-5.37264 0.75159,-2.17386 1.65312,-4.32822 2.00341,-4.78747 0.35029,-0.45925 0.63689,-0.93345 0.63689,-1.05378 0,-0.12033 0.16686,-0.40674 0.37081,-0.63648 0.20394,-0.22974 0.42714,-1.10556 0.49599,-1.94626 0.10854,-1.32537 0.25094,-1.65069 1.07128,-2.4474 0.52036,-0.50536 1.13355,-0.91884 1.36265,-0.91884 0.22909,0 0.52277,0.27942 0.65261,0.62093 0.12985,0.34151 0.24536,1.68097 0.25671,2.97656 0.0113,1.2956 0.26396,3.54626 0.56136,5.00146 0.29741,1.45521 0.6448,3.06256 0.77198,3.57188 0.12718,0.50932 0.50279,2.21705 0.83469,3.79496 0.49444,2.35058 0.64672,2.75691 0.84289,2.24896 0.13168,-0.34098 0.45369,-1.51293 0.71557,-2.60434 0.26188,-1.0914 0.55956,-2.63922 0.66151,-3.43958 0.10195,-0.80037 0.39956,-1.94881 0.66137,-2.5521 0.2618,-0.60329 0.55465,-1.49625 0.65078,-1.98437 0.0961,-0.48812 0.27042,-1.12561 0.3873,-1.41666 0.11688,-0.29104 0.34807,-0.95433 0.51375,-1.47399 0.16569,-0.51965 0.30125,-1.14635 0.30125,-1.39265 0,-0.24631 0.14883,-0.7141 0.33073,-1.03955 0.1819,-0.32545 0.34645,-0.62728 0.36565,-0.67075 0.0192,-0.0435 0.35784,0.002 0.75251,0.10108 0.59989,0.15056 0.69704,0.29372 0.59233,0.87278 -0.0689,0.38096 -0.38294,1.68369 -0.6979,2.89494 -0.31495,1.21125 -0.79113,2.75907 -1.05817,3.43959 -0.26704,0.68051 -0.68878,2.30887 -0.9372,3.61855 -0.24841,1.30969 -0.75025,3.51235 -1.1152,4.8948 -0.36494,1.38244 -0.89394,3.31721 -1.17555,4.29947 -0.30648,1.06904 -0.65526,1.78594 -0.86888,1.78594 z m -17.33785,-0.2845 c -0.22771,-0.0109 -1.36793,-0.35042 -2.53382,-0.75437 -1.1659,-0.40395 -2.49944,-0.93077 -2.96343,-1.17071 -0.46399,-0.23994 -0.96859,-0.43625 -1.12134,-0.43625 -0.15274,0 -0.27772,0.36313 -0.27772,0.80695 v 0.80696 l -1.52135,-0.0793 -1.52136,-0.0794 0.008,-1.98438 c 0.005,-1.0914 0.27699,-3.21639 0.60559,-4.72218 0.3286,-1.5058 0.66864,-3.70845 0.75564,-4.8948 0.087,-1.18633 0.27447,-2.30449 0.41659,-2.48479 0.14211,-0.1803 0.36645,-0.26103 0.49853,-0.1794 0.13209,0.0816 0.40534,-0.2471 0.60724,-0.73051 0.2019,-0.48342 0.56616,-1.64745 0.80948,-2.58673 0.40264,-1.55433 0.40482,-1.73526 0.0242,-2.01354 -0.22998,-0.16817 -0.41815,-0.47824 -0.41815,-0.68904 0,-0.21081 0.15826,-0.59971 0.35168,-0.86423 0.29242,-0.39991 0.44916,-0.42877 0.93033,-0.17125 0.52599,0.2815 0.59302,0.23792 0.73635,-0.47876 0.0867,-0.43364 0.3315,-0.85514 0.54393,-0.93665 0.21244,-0.0815 0.91482,-0.0151 1.56085,0.14755 0.8727,0.21975 1.2136,0.45117 1.32635,0.9004 0.0835,0.33256 0.0217,0.84765 -0.13724,1.14465 -0.24311,0.45424 -0.1814,0.61575 0.38849,1.01683 0.37263,0.26226 1.15867,0.86378 1.74675,1.33672 0.58809,0.47295 1.28337,0.8599 1.54507,0.8599 0.26171,0 0.5481,0.18833 0.63643,0.41851 0.0883,0.23019 0.1606,0.64027 0.1606,0.91129 0,0.27103 -0.26789,0.79833 -0.59531,1.17178 l -0.59532,0.67901 -2.0613,-1.18221 c -2.03184,-1.16532 -2.06438,-1.17387 -2.27676,-0.59811 -0.11851,0.32126 -0.42663,1.23895 -0.68471,2.03931 -0.25809,0.80037 -0.52187,1.59273 -0.58618,1.76082 -0.0668,0.1746 0.2597,0.38589 0.76164,0.49288 0.48321,0.103 1.53914,0.6346 2.34651,1.18134 0.80737,0.54673 1.84564,1.18937 2.30726,1.42808 0.46163,0.23872 0.97386,0.68542 1.1383,0.99269 0.24667,0.4609 0.20265,0.65501 -0.25156,1.10921 l -0.55055,0.55055 -1.92341,-0.90337 c -1.05786,-0.49685 -2.22105,-1.16093 -2.58485,-1.47573 -0.3638,-0.3148 -0.95911,-0.63717 -1.32292,-0.71638 -0.3638,-0.0792 -0.91379,-0.22299 -1.22219,-0.3195 -0.51161,-0.1601 -0.5746,-0.0519 -0.71887,1.23541 -0.087,0.77598 -0.23674,2.03596 -0.33282,2.79994 -0.17344,1.37913 -0.16953,1.38906 0.54759,1.38906 0.39725,0 1.72676,0.47072 2.95447,1.04604 1.22771,0.57533 2.39806,0.9824 2.60079,0.9046 0.22659,-0.0869 0.52879,0.16833 0.78439,0.66261 0.38085,0.73647 0.37823,0.88282 -0.0311,1.74124 -0.2458,0.51545 -0.63322,0.92821 -0.86093,0.91726 z m -5.03695,-27.27181 c -0.0768,-0.0218 -0.46869,-0.0894 -0.87094,-0.15023 -0.53061,-0.0802 -0.87592,-0.3939 -1.2579,-1.14265 -0.28959,-0.56763 -0.69244,-1.7433 -0.89524,-2.61259 -0.2635,-1.12952 -0.30335,-2.019 -0.13968,-3.11718 0.12596,-0.845164 0.34729,-2.340204 0.49185,-3.322304 0.14455,-0.9821 0.399,-2.29179 0.56543,-2.9104198 0.16642,-0.61862 0.4588,-1.42713 0.64973,-1.79668 0.34024,-0.65858 0.33021,-0.66993 -0.50547,-0.57237 -0.54676,0.0638 -0.97449,-0.0473 -1.1924,-0.30991 -0.1869,-0.22519 -0.40431,-0.89036 -0.48315,-1.47815 -0.0788,-0.58779 -0.23322,-1.06871 -0.34306,-1.06871 -0.10985,0 -0.26122,-0.38695 -0.3364,-0.85989 -0.10885,-0.68483 0.18771,-1.50632 1.45662,-4.03489998 0.87631,-1.74625002 1.90657,-3.68080002 2.28946,-4.29900002 0.39664,-0.6404 0.89896,-1.12421 1.16749,-1.12448 0.25923,-2.6e-4 0.53528,0.16618 0.61344,0.36987 0.0782,0.20369 -0.0337,0.94783 -0.24864,1.65365 -0.21492,0.70581 -0.87792,2.32725 -1.47334,3.60320002 -0.80493,1.72491998 -1.08257,2.65297998 -1.08257,3.61861998 0,1.02232 0.0985,1.32004 0.46302,1.39889 0.25466,0.0551 1.1481,-0.12585 1.98543,-0.40212 1.08084,-0.35661 1.75373,-0.78292 2.31999,-1.46984 0.43867,-0.53214 1.27513,-1.88540998 1.85879,-3.00724998 0.58367,-1.12183002 1.16719,-2.10519002 1.2967,-2.18524002 0.12952,-0.08 0.42379,0.0428 0.65393,0.27291 0.23054,0.23053 0.36442,0.67718 0.29813,0.99462 -0.0662,0.31689002 -0.30441,1.43311002 -0.52941,2.48048 -0.22499,1.04738 -0.40908,2.02964 -0.40908,2.18282 0,0.18432 1.58812,0.27995 4.69635,0.28279 3.3533,0.003 5.47592,0.14218 7.42229,0.48642 1.57784,0.27907 2.90375,0.65995 3.14815,0.90435 0.36007,0.36007 0.37277,0.54166 0.0862,1.23338 -0.18479,0.44613 -0.43358,0.81114 -0.55286,0.81114 -0.11928,0 -0.29547,-0.12718 -0.39153,-0.28262 -0.0961,-0.15544 -0.35249,-0.21439 -0.56983,-0.13099 -0.21733,0.0834 -0.9348,-0.0871 -1.59437,-0.37884 -1.06518,-0.47118 -1.77017,-0.53047 -6.30773,-0.53047 -2.80969,0 -5.40275,0.11187 -5.76236,0.24859 -0.54283,0.20638 -0.72701,0.57032 -1.08484,2.14355 -0.23705,1.04223 -0.5526,2.8651298 -0.70123,4.0508898 -0.14862,1.18576 -0.63234,3.313964 -1.07492,4.729324 -0.44259,1.41536 -1.16284,3.11407 -1.60056,3.7749 -0.43771,0.66084 -1.04787,1.37805 -1.35591,1.5938 -0.30803,0.21576 -0.62287,0.37445 -0.69963,0.35264 z m -0.50045,-2.07702 c 0.13,0 0.47441,-0.38695 0.76535,-0.8599 0.29093,-0.47294 0.76057,-1.6338 1.04365,-2.57968 0.28308,-0.94589 0.87569,-3.505734 1.31692,-5.688554 0.44123,-2.1828098 0.80328,-4.2961698 0.80454,-4.6963498 0.001,-0.40018 -0.0765,-0.7276 -0.17289,-0.7276 -0.0964,0 -0.69244,0.30312 -1.32462,0.6736 -0.79113,0.46364 -1.34824,1.06595 -1.78724,1.93228 -0.42784,0.8443 -0.78239,2.2992798 -1.07696,4.4196198 -0.24154,1.73852 -0.44564,3.783164 -0.45357,4.543634 -0.008,0.76047 0.13473,1.74274 0.31702,2.18281 0.18228,0.44008 0.43779,0.80014 0.5678,0.80014 z m -15.77715,-1.05833 c -0.3999,0 -0.65472,-0.19939 -0.76083,-0.59532 -0.0877,-0.32742 -0.16116,-1.75617 -0.16315,-3.175 -0.002,-1.418824 -0.0798,-2.579684 -0.17303,-2.579684 -0.0932,0 -1.04803,0.89296 -2.12187,1.984374 -1.3886,1.41131 -2.14197,1.98438 -2.6087,1.98438 -0.36095,0 -0.89439,-0.23813 -1.18543,-0.52917 -0.29104,-0.29104 -0.52917,-0.64205 -0.52917,-0.78001 0,-0.13797 0.57673,-0.941644 1.28163,-1.785944 0.70489,-0.8443 2.13133,-2.33448 3.16987,-3.31152 l 1.88825,-1.7764198 0.26376,-3.11837 c 0.14507,-1.7151 0.27563,-3.23743 0.29013,-3.38295 0.0145,-0.14552 0.0127,-0.85989 -0.004,-1.58749998 -0.0168,-0.7276 0.0232,-2.09682002 0.0889,-3.04271002 0.0656,-0.94588 0.19681,-2.02602 0.29149,-2.40031 0.0947,-0.37429 0.54021,-0.89794 0.99007,-1.16368 0.77424,-0.45735 0.83583,-0.45866 1.1533,-0.0245 0.18446,0.25227 0.43389,1.37124 0.55428,2.4866 0.12039,1.11536 0.19935,3.24832002 0.17546,4.7399 -0.0239,1.49159 0.0383,2.71198 0.13827,2.71198 0.0999,0 0.40839,-0.42092 0.68544,-0.93539 0.27706,-0.51446 1.04607,-1.43528 1.7089,-2.04626 0.66284,-0.61097998 1.219,-1.23184998 1.23592,-1.37971998 0.0169,-0.14786 0.0489,-0.41492 0.0711,-0.59346 0.0222,-0.17855 0.32997,-0.51444002 0.68402,-0.74641002 0.48022,-0.31466 0.7734,-0.35237 1.15434,-0.14851 0.28084,0.15031 0.66178,0.63821 0.84652,1.08423002 0.31032,0.74917 0.26773,0.91997 -0.55902,2.24183998 -0.49221,0.78699 -1.9665,2.69964 -3.27618,4.25032 -1.30969,1.55068 -2.5557,3.13601 -2.76892,3.52295 -0.26963,0.48933 -0.43935,1.9864298 -0.55742,4.9169798 -0.15906,3.947794 -0.20737,4.243904 -0.76613,4.696364 -0.328,0.2656 -0.86694,0.48291 -1.19765,0.48291 z m -12.55212,-1.60742 c -0.22771,-0.011 -1.36793,-0.35043 -2.53382,-0.75438 -1.16589,-0.40395 -2.49944,-0.93077 -2.96342,-1.1707 -0.46399,-0.23994 -0.9686,-0.43625 -1.12134,-0.43625 -0.15275,0 -0.27773,0.36313 -0.27773,0.80695 v 0.80695 l -1.52135,-0.0793 -1.52135,-0.0794 0.008,-1.98437 c 0.005,-1.091414 0.27698,-3.216394 0.60558,-4.722194 0.3286,-1.5057898 0.66864,-3.7084498 0.75565,-4.8947898 0.087,-1.18634 0.27446,-2.3045 0.41658,-2.48479 0.14211,-0.1803 0.36646,-0.26103 0.49854,-0.1794 0.13208,0.0816 0.40534,-0.2471 0.60723,-0.73052 0.2019,-0.48341 0.56617,-1.64743998 0.80948,-2.58671998 0.40264,-1.55434002 0.40482,-1.73526002 0.0242,-2.01354002 -0.22997,-0.16817 -0.41814,-0.47824 -0.41814,-0.68904 0,-0.21081 0.15825,-0.59971 0.35168,-0.86423 0.29242,-0.39992 0.44916,-0.42877 0.93033,-0.17126 0.52599,0.28151 0.59301,0.23793 0.73635,-0.47875 0.0867,-0.43364 0.3315,-0.85514 0.54393,-0.93666 0.21244,-0.0815 0.91482,-0.0151 1.56085,0.14755 0.8727,0.21975 1.2136,0.45117 1.32635,0.90041 0.0835,0.33255 0.0217,0.84765 -0.13725,1.14465 -0.2431,0.45424 -0.18139,0.61574 0.3885,1.01683 0.37263,0.26225 1.15866,0.86378 1.74675,1.33672 0.58808,0.47294002 1.28337,0.85990002 1.54507,0.85990002 0.2617,0 0.5481,0.18833 0.63642,0.41851 0.0883,0.23018 0.16061,0.64026 0.16061,0.91128998 0,0.27102 -0.2679,0.79833 -0.59532,1.17178 l -0.59531,0.67901 -2.0613,-1.18221 c -2.03184,-1.16531998 -2.06438,-1.17386998 -2.27676,-0.59811 -0.11851,0.32125 -0.42663,1.23895 -0.68472,2.03931 -0.25808,0.80036 -0.52186,1.59273 -0.58617,1.76081 -0.0668,0.1746 0.2597,0.38589 0.76164,0.49289 0.48321,0.103 1.53914,0.6346 2.34651,1.18133 0.80737,0.54674 1.84564,1.18938 2.30726,1.42809 0.46162,0.23871 0.97386,0.68542 1.1383,0.99269 0.24666,0.46089 0.20264,0.65501 -0.25157,1.1092098 l -0.55055,0.55055 -1.9234,-0.9033698 c -1.05788,-0.49686 -2.22106,-1.16094 -2.58487,-1.47573 -0.3638,-0.3148 -0.95911,-0.63717 -1.32291,-0.71639 -0.3638,-0.0792 -0.91379,-0.22299 -1.2222,-0.3195 -0.51161,-0.16009 -0.5746,-0.0518 -0.71887,1.23541 -0.087,0.77599 -0.23673,2.0359598 -0.33281,2.7999498 -0.17345,1.37913 -0.16953,1.38906 0.54758,1.38906 0.39726,0 1.72677,0.47072 2.95447,1.04604 1.22771,0.57532 2.39807,0.98239 2.6008,0.9046 0.22658,-0.087 0.52878,0.16833 0.78438,0.662614 0.38085,0.73647 0.37823,0.88282 -0.0311,1.74123 -0.2458,0.51545 -0.63322,0.92822 -0.86092,0.91727 z m -17.3111,-1.86329 c -0.4565,-0.0171 -1.36578,-0.12399 -2.02062,-0.23749 -0.65485,-0.11351 -1.82159,-0.45727 -2.59276,-0.76393 -0.77118,-0.306654 -1.90227,-0.808674 -2.51355,-1.115594 -0.61127,-0.30693 -1.73648,-1.0352 -2.50046,-1.61839 -0.96475,-0.73643 -1.38907,-1.24596 -1.38907,-1.66803 0,-0.40077 0.29282,-0.7877498 0.8599,-1.1364398 0.57635,-0.35438 1.12163,-0.48162 1.65365,-0.38586 0.43656,0.0786 1.15093,0.47895 1.5875,0.8897098 0.43656,0.41075 1.49155,1.0657 2.34442,1.45543 0.91256,0.41701 2.21911,0.76186 3.17501,0.83801 1.39739,0.11133 1.69234,0.054 2.1112,-0.41075 0.47842,-0.53077 0.46867,-0.55335 -0.5615,-1.2996 -0.57661,-0.41769 -1.77818,-1.0493198 -2.67016,-1.4036098 -1.60553,-0.63772 -1.62824,-0.66145 -2.26642,-2.36836 -0.54642,-1.46148 -0.60986,-1.93195 -0.41638,-3.08776 0.12554,-0.74997 0.41156,-1.71806 0.6356,-2.1513 0.22404,-0.43325 0.76578,-1.08931998 1.20388,-1.45795998 0.43809,-0.36863 1.18651,-0.79263 1.66314,-0.94223 0.47664,-0.1496 1.93818,-0.46303002 3.24787,-0.69651002 1.30969,-0.23349 2.57178,-0.48087 2.80465,-0.54975 0.27355,-0.0809 0.67151,0.23281 1.12448,0.88644 0.38559,0.55641002 0.70108,1.32963002 0.70108,1.71825002 0,0.50388998 -0.20872,0.81371998 -0.7276,1.08005998 -0.40019,0.20541 -1.38245,0.4984 -2.18282,0.6511 -0.80036,0.15269 -2.11801,0.35072 -2.9281,0.44005 -1.36668,0.15072 -1.49548,0.22487 -1.78594,1.02813 -0.17217,0.47613 -0.31304,1.11908 -0.31304,1.42876 0,0.32682 0.36078,0.83313 0.8599,1.20675 0.47294,0.35403 1.24298,0.8374 1.71119,1.07415 0.46821,0.23675 1.30165,0.52113 1.85208,0.63194 0.83882,0.16888 1.08982,0.38606 1.55092,1.34191 0.42837,0.8880198 0.5103,1.4028298 0.37019,2.3260398 -0.099,0.65209 -0.41462,1.50569 -0.70146,1.89689 -0.28684,0.3912 -1.09196,1.09822 -1.78916,1.571174 -0.82139,0.55719 -1.55981,0.84894 -2.09762,0.82877 z"
       id="path3213"
       inkscape:label="Sexyrodent"
       transform="matrix(0.3169784,0,0,0.3169784,-47.886615,64.350201)" />
    <path
       id="path5455"
       style="display:inline;fill:none;fill-opacity:1;stroke:#000000;stroke-width:0.02645833;stroke-dasharray:none;stroke-opacity:1"
       d="m 51.337263,58.881508 c -0.129925,3.5e-4 -0.276409,0.0081 -0.408061,0.02297 -0.263309,0.02978 -0.549392,0.105774 -0.635637,0.168837 -0.108527,0.07936 -0.172306,0.264847 -0.207229,0.602657 l -0.05037,0.48813 -0.75607,0.675016 c -0.415837,0.371216 -0.906634,0.776497 -1.090624,0.900621 -0.183993,0.124123 -0.432746,0.225607 -0.552777,0.225607 -0.120034,0 -0.565227,0.171128 -0.989388,0.380332 -0.424161,0.209204 -0.968069,0.41774 -1.208596,0.463355 -0.240523,0.04562 -0.870068,0.270701 -1.398925,0.500108 l -0.961495,0.417086 -0.745896,-0.250055 c -0.410271,-0.137453 -0.893822,-0.273494 -1.074544,-0.302395 -0.180723,-0.0289 -0.415816,-0.03069 -0.522423,-0.0039 -0.106607,0.02676 -0.261142,0.162623 -0.343416,0.301901 -0.08227,0.139281 -0.185979,0.566113 -0.230364,0.948534 -0.05473,0.471612 -0.05132,0.899015 0.0105,1.328372 0.05215,0.362233 0.157864,0.721584 0.247264,0.840077 0.125858,0.166812 0.2267,0.205593 0.518158,0.199354 0.19899,-0.0042 0.489546,-0.07395 0.645809,-0.154889 l 0.284184,-0.147178 -0.05644,0.224951 c -0.03109,0.123779 -0.03331,0.298406 -0.0048,0.387878 0.0284,0.08948 0.260891,0.268382 0.516681,0.397726 0.255791,0.129342 0.699425,0.440409 0.985777,0.691257 0.286353,0.25085 0.680183,0.650668 0.87519,0.888481 0.195005,0.237814 0.468856,0.661243 0.608564,0.94082 0.139708,0.279579 0.283786,0.696243 0.320115,0.926055 0.03633,0.229811 0.04847,0.537322 0.02708,0.683218 -0.02142,0.145897 -0.09236,0.285703 -0.15768,0.310764 -0.06532,0.02507 -0.315157,-0.05626 -0.555238,-0.180813 -0.240081,-0.12456 -0.712059,-0.437616 -1.048784,-0.695525 -0.336725,-0.257911 -0.828784,-0.656856 -1.093414,-0.886676 -0.26463,-0.22982 -0.783504,-0.701464 -1.153136,-1.047963 -0.369635,-0.3465 -1.432008,-1.381106 -2.360749,-2.29922 -1.446678,-1.430123 -1.725001,-1.669325 -1.942843,-1.669325 -0.139849,0 -0.294757,0.04883 -0.344235,0.108455 -0.05225,0.06296 -0.08292,0.423878 -0.07318,0.86108 0.01523,0.682471 0.04127,0.791803 0.279425,1.172662 0.14446,0.231022 0.56508,0.779172 0.93475,1.218112 0.369669,0.43894 1.100449,1.228628 1.623875,1.754809 0.523428,0.526181 1.369126,1.266588 1.879345,1.645371 0.510219,0.378783 1.116472,0.855513 1.347241,1.059449 0.230772,0.203939 0.642812,0.578736 0.915717,0.832857 0.272906,0.254126 0.707887,0.670827 0.966582,0.926054 0.25869,0.255228 0.655031,0.670191 0.880767,0.922116 0.225734,0.251929 0.498066,0.591291 0.605119,0.7541 0.107048,0.16281 0.389573,0.844148 0.627924,1.514109 0.238352,0.669964 0.42741,1.312622 0.420204,1.428131 -0.0072,0.11551 -0.01614,0.550248 -0.02002,0.966088 -0.0046,0.501321 0.03815,0.87716 0.126997,1.115562 l 0.133887,0.35966 -0.438252,-0.05645 c -0.285793,-0.0368 -0.738023,-0.213089 -1.300479,-0.506672 -0.565824,-0.295331 -0.964081,-0.450063 -1.157894,-0.450063 -0.162473,0 -0.431042,-0.0567 -0.596916,-0.12601 -0.165873,-0.0693 -0.420929,-0.126014 -0.566723,-0.126014 -0.145792,0 -0.358466,0.06433 -0.472708,0.143077 -0.11424,0.07874 -0.255108,0.201597 -0.31306,0.273023 -0.05795,0.07143 -0.256418,0.351576 -0.441041,0.622514 -0.254905,0.374088 -0.335702,0.574412 -0.335702,0.832201 0,0.285071 0.05216,0.389075 0.326186,0.649744 0.17947,0.170723 0.506306,0.411006 0.726208,0.533909 0.2199,0.122904 0.617188,0.279812 0.882902,0.348667 0.321103,0.08321 0.895526,0.12519 1.712806,0.12519 1.00951,0 1.319418,0.03016 1.731018,0.168836 0.275741,0.09289 0.737505,0.312223 1.026305,0.48731 0.288803,0.175085 0.657526,0.377948 0.819239,0.450886 0.161713,0.07294 0.350733,0.153102 0.420038,0.17819 0.0693,0.02506 0.224076,0.04869 0.343907,0.05234 0.119828,0.0036 0.43698,-0.06885 0.704714,-0.160958 0.267733,-0.09211 0.809893,-0.228067 1.204821,-0.302069 0.394931,-0.07401 0.814869,-0.171233 0.933274,-0.216252 0.118409,-0.04502 0.284536,-0.144407 0.36901,-0.22085 0.08447,-0.07645 0.292473,-0.14636 0.462206,-0.155219 0.169738,-0.0089 0.705402,-0.04293 1.190548,-0.07581 0.485147,-0.03286 0.985509,-0.112331 1.11179,-0.176548 0.126279,-0.06421 0.290578,-0.234808 0.365237,-0.379182 0.108636,-0.210218 0.129982,-0.465219 0.106486,-1.279804 -0.02876,-0.997518 -0.03551,-1.028312 -0.350143,-1.597627 -0.176462,-0.319299 -0.591649,-0.961954 -0.922607,-1.42813 -0.330957,-0.46617 -0.649746,-0.897647 -0.708324,-0.958704 -0.05857,-0.06105 -0.106486,-0.124946 -0.106486,-0.142091 0,-0.01716 0.08153,-0.169328 0.181142,-0.338164 0.103484,-0.175392 0.213539,-0.564666 0.256782,-0.908006 0.04163,-0.330501 0.08043,-0.714263 0.08614,-0.852875 0.0058,-0.138615 -0.05871,-0.424443 -0.143077,-0.635145 l -0.1533,-0.38313 0.628255,-0.834991 c 0.345594,-0.459259 0.968446,-1.326434 1.383993,-1.927091 0.415547,-0.600655 0.974246,-1.41343 1.241577,-1.806166 0.267333,-0.392737 0.680212,-0.896837 0.917519,-1.120157 0.23731,-0.223323 0.650967,-0.599377 0.919326,-0.835812 0.418792,-0.36898 0.48052,-0.460332 0.435135,-0.644168 -0.02909,-0.117798 -0.154183,-0.321112 -0.277949,-0.45187 -0.123765,-0.13076 -0.479178,-0.426643 -0.789867,-0.65746 -0.411195,-0.305481 -0.611168,-0.405 -0.734905,-0.365728 -0.0949,0.03012 -0.190541,0.153586 -0.216418,0.279424 -0.02549,0.123983 -0.09049,0.376657 -0.144552,0.561473 -0.05629,0.192429 -0.271023,0.520072 -0.502405,0.766735 -0.248279,0.264681 -0.459839,0.594585 -0.548676,0.855664 -0.0864,0.253903 -0.71926,1.25412 -1.572681,2.485448 -0.785476,1.133284 -1.447022,2.060489 -1.470137,2.060486 -0.0231,-3e-6 -0.281208,-0.367191 -0.573615,-0.815957 l -0.531611,-0.815959 0.05037,-0.714065 c 0.0277,-0.392736 0.102828,-0.921985 0.166867,-1.176108 0.06403,-0.254124 0.167588,-0.603576 0.230201,-0.776579 0.06261,-0.173003 0.590148,-0.910171 1.172335,-1.638151 0.582192,-0.72798 1.223117,-1.566905 1.424193,-1.86425 0.316462,-0.467968 0.370191,-0.612206 0.399528,-1.073067 0.02489,-0.391104 -0.0147,-0.682392 -0.149144,-1.097515 -0.100673,-0.310811 -0.286364,-0.716297 -0.412492,-0.901114 -0.149356,-0.218852 -0.303764,-0.344855 -0.443008,-0.361299 -0.122031,-0.01441 -0.262962,0.03397 -0.328322,0.112722 -0.07686,0.09263 -0.130054,0.487612 -0.161615,1.20154 l -0.04693,1.063551 -0.651059,0.817925 c -0.358088,0.449801 -0.832917,0.997726 -1.055184,1.217785 -0.222266,0.220061 -0.536549,0.589203 -0.698314,0.820224 -0.161765,0.231021 -0.447762,0.684664 -0.635635,1.008093 -0.187878,0.323429 -0.436533,0.758168 -0.552614,0.966089 -0.116078,0.207918 -0.26505,0.388937 -0.330945,0.402317 -0.06589,0.01338 -0.296561,-0.05146 -0.512579,-0.144057 l -0.3928,-0.168345 0.0036,-0.443992 c 0.002,-0.244215 0.04933,-0.639476 0.105175,-0.878309 0.09633,-0.411984 0.144542,-0.468218 0.941477,-1.099319 0.461992,-0.365857 0.882882,-0.718692 0.935242,-0.783962 0.05236,-0.06527 0.137416,-0.318925 0.189018,-0.563771 0.0516,-0.244847 0.09361,-0.566176 0.09336,-0.714066 -2.52e-4,-0.14789 -0.04036,-0.412523 -0.08909,-0.588054 -0.05618,-0.202284 -0.162365,-0.35273 -0.289924,-0.41085 l -0.201325,-0.09172 0.204278,-0.160633 c 0.198608,-0.156234 0.203823,-0.189287 0.185408,-1.18989 -0.01889,-1.025481 -0.01817,-1.030264 0.224949,-1.318692 0.1342,-0.159206 0.351567,-0.516254 0.483045,-0.793478 0.131477,-0.277226 0.262223,-0.62672 0.290417,-0.77658 0.02807,-0.149861 0.02857,-0.362415 9.85e-4,-0.472379 -0.02877,-0.1146 -0.149351,-0.237459 -0.282379,-0.287792 -0.127652,-0.0483 -0.339135,-0.111246 -0.470081,-0.139958 -0.06548,-0.01435 -0.17887,-0.02136 -0.308794,-0.02101 z m -0.583296,1.614359 c 0.06951,0.003 0.156462,0.02329 0.284674,0.05759 l 0.372292,0.0996 -0.232497,0.299114 c -0.127877,0.1645 -0.260251,0.37472 -0.294191,0.467128 -0.03395,0.0924 -0.0598,0.583854 -0.05727,1.092101 l 0.0045,0.924084 -0.512742,0.294027 c -0.282037,0.161716 -0.574524,0.332528 -0.649911,0.379676 -0.07539,0.04714 -0.293801,0.18695 -0.485342,0.310599 -0.191538,0.123649 -0.567436,0.403333 -0.835319,0.621525 -0.267883,0.218194 -0.573748,0.494231 -0.679774,0.613487 -0.106028,0.119256 -0.236622,0.357514 -0.290252,0.529314 -0.07646,0.244874 -0.07453,0.340165 0.0092,0.441041 0.05873,0.07078 0.173642,0.128636 0.255305,0.128636 0.08166,0 0.632051,-0.453185 1.223035,-1.007108 0.758447,-0.710881 1.152557,-1.021818 1.340021,-1.056986 0.146074,-0.02741 0.375592,-0.03732 0.509953,-0.02198 0.200018,0.02282 0.249349,0.07269 0.272368,0.274994 0.01549,0.135896 0.003,0.414671 -0.02772,0.619558 -0.03224,0.215013 -0.133674,0.447961 -0.239882,0.550971 -0.101204,0.09816 -0.33445,0.297651 -0.518321,0.443174 -0.183872,0.145523 -0.525033,0.414308 -0.758202,0.597408 -0.364542,0.286259 -0.439084,0.396419 -0.532103,0.785603 -0.0595,0.248928 -0.129273,0.76514 -0.155054,1.147229 l -0.04693,0.694705 0.327007,0.313389 c 0.279607,0.267988 0.35508,0.422909 0.521274,1.069457 0.10689,0.415838 0.267537,1.005936 0.357033,1.311308 0.135941,0.463856 0.265898,0.672925 0.789705,1.270452 l 0.627104,0.715214 -0.411178,0.255634 c -0.226149,0.140581 -0.465466,0.362749 -0.531776,0.493709 -0.0663,0.130964 -0.167574,0.438291 -0.225113,0.683055 -0.08015,0.340942 -0.196935,0.539835 -0.499288,0.85025 -0.246649,0.253223 -0.636113,0.521286 -1.038285,0.714722 -0.44636,0.214691 -0.744389,0.42747 -0.972815,0.694705 -0.299107,0.349927 -0.336798,0.370719 -0.41167,0.226426 -0.04534,-0.08738 -0.185325,-0.480159 -0.311091,-0.872892 -0.125766,-0.392737 -0.320497,-0.908288 -0.432673,-1.145754 -0.112175,-0.237468 -0.501017,-0.766715 -0.864195,-1.176107 -0.363184,-0.409395 -1.092799,-1.141358 -1.621252,-1.626502 -0.528457,-0.485145 -1.072014,-0.976591 -1.20794,-1.0921 C 42.668727,72.350812 42.3689,72.103006 42.138334,71.915678 41.907768,71.728351 41.473394,71.400979 41.173066,71.188159 40.87274,70.975337 40.166565,70.334761 39.603828,69.764621 39.041086,69.19448 38.328928,68.429028 38.021299,68.06363 37.71367,67.698231 37.364352,67.244689 37.245047,67.0557 37.101315,66.82801 37.023219,66.5779 37.013534,66.314397 l -0.0146,-0.397722 2.109217,2.077712 c 1.160088,1.142736 2.448957,2.364494 2.864139,2.714994 0.41518,0.350499 1.000645,0.818795 1.300971,1.040579 0.300328,0.221783 0.735068,0.492237 0.966089,0.601017 0.231022,0.108778 0.557565,0.198215 0.725714,0.198533 0.175092,5.08e-4 0.389081,-0.06659 0.500765,-0.157022 0.162828,-0.131851 0.20045,-0.255184 0.228232,-0.746881 0.0183,-0.323877 -0.0096,-0.788955 -0.06201,-1.033525 -0.05244,-0.244571 -0.210326,-0.670784 -0.350798,-0.94722 -0.140477,-0.276436 -0.425171,-0.723322 -0.632683,-0.992998 -0.207511,-0.269678 -0.639154,-0.710638 -0.959198,-0.980034 -0.320046,-0.269397 -0.733279,-0.56231 -0.918179,-0.650897 -0.184895,-0.08859 -0.336378,-0.180758 -0.337015,-0.204768 -5.07e-4,-0.02401 0.168634,-0.269734 0.376067,-0.546051 0.207435,-0.276316 0.377399,-0.579968 0.378035,-0.674686 5.08e-4,-0.09472 -0.04447,-0.217581 -0.09992,-0.273025 -0.05544,-0.05544 -0.150838,-0.100744 -0.212152,-0.100744 -0.06131,0 -0.456447,0.20792 -0.87798,0.462043 -0.421534,0.254123 -0.853027,0.462043 -0.958869,0.462043 -0.105839,0 -0.21707,-0.03994 -0.247264,-0.08877 -0.0302,-0.04883 -0.03246,-0.178081 -0.0052,-0.287136 0.02737,-0.109054 0.178735,-0.319931 0.336359,-0.468607 0.157625,-0.148674 0.559182,-0.43344 0.892419,-0.632846 0.443782,-0.265559 0.664904,-0.350742 0.826622,-0.318474 0.15356,0.03063 0.511387,-0.0871 1.175287,-0.386732 0.524992,-0.236936 0.971576,-0.413885 0.992341,-0.39313 0.02076,0.02076 -0.07808,0.169665 -0.219536,0.33078 -0.14146,0.161117 -0.257108,0.368365 -0.257108,0.460565 0,0.0922 0.0519,0.210687 0.115345,0.263346 0.06346,0.05265 0.167409,0.07309 0.231022,0.04544 0.06361,-0.02763 0.333044,-0.308033 0.598719,-0.623166 0.265673,-0.315132 0.484585,-0.60512 0.486491,-0.644332 0.002,-0.03921 0.339314,-0.236252 0.74967,-0.437925 0.410353,-0.201671 0.925179,-0.400004 1.143949,-0.440875 0.249347,-0.04659 0.557338,-0.195255 0.825474,-0.398217 0.235256,-0.178075 0.676507,-0.546628 0.980527,-0.819076 0.304019,-0.272444 0.653753,-0.580287 0.777236,-0.684038 0.128874,-0.108283 0.196219,-0.151656 0.312076,-0.146686 z m 4.037784,2.771599 0.158664,0.378035 c 0.08907,0.212276 0.160717,0.587133 0.163257,0.855007 0.0045,0.464106 -0.01196,0.499443 -0.609876,1.302121 -0.338024,0.453788 -0.976294,1.271817 -1.418286,1.817816 -0.66503,0.82152 -0.833205,1.089546 -0.975771,1.554142 -0.09475,0.30878 -0.218859,0.788295 -0.275813,1.06552 -0.05696,0.277226 -0.106847,0.827557 -0.110752,1.222871 l -0.0071,0.718659 0.468769,0.709471 c 0.257863,0.390159 0.537639,0.82794 0.62169,0.972981 0.150004,0.258846 0.149396,0.269303 -0.03462,0.567052 -0.103109,0.166841 -0.21276,0.303565 -0.243655,0.304199 -0.03088,5.08e-4 -0.410214,-0.368093 -0.842866,-0.819075 -0.432648,-0.450981 -0.871505,-0.933303 -0.975276,-1.071919 -0.106154,-0.14179 -0.28437,-0.640521 -0.407405,-1.140175 -0.120276,-0.488451 -0.242327,-0.949685 -0.271221,-1.024992 -0.04419,-0.115187 -0.0064,-0.129418 0.238077,-0.08975 0.239764,0.0389 0.315331,0.01247 0.432181,-0.151116 0.07788,-0.109032 0.43241,-0.704784 0.7879,-1.323942 0.467679,-0.81456 0.832533,-1.325433 1.319676,-1.848168 0.370282,-0.397337 0.926312,-1.047239 1.235668,-1.444212 0.376297,-0.482873 0.590667,-0.844345 0.647778,-1.092101 0.04696,-0.203681 0.0885,-0.616045 0.09221,-0.916372 z m -13.718197,0.487639 c 0.06341,0.0042 0.148679,0.02315 0.27204,0.05479 0.205452,0.05271 0.428764,0.114748 0.496171,0.137825 0.07868,0.02693 -0.06066,0.157714 -0.388864,0.365236 -0.281211,0.177806 -0.537033,0.364975 -0.568529,0.415937 -0.03149,0.05097 -0.09759,0.09271 -0.146849,0.09271 -0.0555,0 -0.06945,-0.09983 -0.03691,-0.262523 0.02888,-0.144388 0.05251,-0.326158 0.05251,-0.403959 0,-0.0778 0.04922,-0.208874 0.10944,-0.291239 0.06028,-0.08243 0.105326,-0.115912 0.211004,-0.108782 z m 17.036175,3.582634 0.394608,0.307317 c 0.216957,0.169028 0.394442,0.331355 0.394442,0.360643 0,0.02928 -0.332033,0.359331 -0.737857,0.73359 -0.448346,0.413477 -0.936605,0.973256 -1.244199,1.426656 -0.278422,0.410396 -0.765258,1.124259 -1.08193,1.586301 -0.316671,0.462043 -0.945413,1.331523 -1.397285,1.932178 -0.451875,0.600655 -0.896019,1.177158 -0.986926,1.281118 -0.09091,0.103963 -0.206431,0.189017 -0.256781,0.189017 -0.05035,0 -0.09156,-0.0422 -0.09156,-0.09385 0,-0.05164 0.200936,-0.363522 0.446618,-0.693064 0.24568,-0.329547 0.701404,-0.977249 1.012687,-1.439289 0.311286,-0.462044 0.83177,-1.218112 1.156582,-1.680153 0.324813,-0.462043 0.738572,-1.063248 0.919493,-1.336086 0.180922,-0.272837 0.328974,-0.586209 0.328974,-0.696344 0,-0.126148 0.155861,-0.362307 0.421189,-0.638097 0.238757,-0.248177 0.486192,-0.611555 0.571482,-0.83893 z m -6.403128,7.706889 c 0.0689,6.03e-4 0.134385,0.0239 0.223966,0.07022 0.119781,0.06194 0.255106,0.183194 0.326678,0.243819 0.690887,0.373124 0.711881,0.296882 1.193174,0.718168 0.177859,0.02661 0.155873,0.435894 0.155873,0.516516 0,0.08062 -0.120836,0.460861 -0.268432,0.845 -0.176795,0.460137 -0.386917,0.828196 -0.615947,1.07881 -0.1912,0.209221 -0.417324,0.563053 -0.502569,0.78626 -0.13553,0.354877 -0.141493,0.449571 -0.04709,0.753771 0.05937,0.191331 0.126852,0.533746 0.149967,0.760994 0.02312,0.227245 -5.07e-4,0.555204 -0.05251,0.728669 -0.06078,0.20284 -0.25133,0.456972 -0.534073,0.71226 -0.241791,0.218316 -0.590779,0.466068 -0.775595,0.550643 -0.184816,0.08458 -0.430541,0.15049 -0.54605,0.146521 -0.115512,-0.0039 -0.487029,-0.0578 -0.825475,-0.119612 -0.343193,-0.06267 -0.805344,-0.219662 -1.04501,-0.355064 -0.40665,-0.229744 -0.435886,-0.269518 -0.544081,-0.739662 -0.06289,-0.273258 -0.147108,-0.874861 -0.187212,-1.336905 -0.0401,-0.462043 -0.09549,-0.934586 -0.123058,-1.050095 -0.03748,-0.15716 0.02292,-0.308333 0.239881,-0.600524 0.221521,-0.298326 0.470722,-0.485784 1.056166,-0.794464 0.471036,-0.248358 0.904617,-0.552018 1.12541,-0.788065 0.197547,-0.211194 0.41954,-0.552898 0.49338,-0.759514 0.07384,-0.206616 0.15625,-0.478681 0.183112,-0.604463 0.02687,-0.125784 0.133527,-0.309658 0.236926,-0.408717 0.103401,-0.09906 0.30071,-0.228996 0.438416,-0.288612 0.102985,-0.04459 0.175248,-0.06658 0.244147,-0.06596 z m -0.681896,3.924759 c -0.263845,-0.07991 -0.291058,-0.08934 -0.421689,-0.12538 -0.173265,-0.04022 -0.437185,-0.07419 -0.586414,-0.07515 -0.239961,-0.0018 -0.300533,0.04902 -0.524228,0.439072 -0.191449,0.333828 -0.253193,0.546976 -0.253828,0.876666 -4.13e-4,0.239564 0.03617,0.532399 0.08122,0.650896 0.04505,0.118498 0.205717,0.293186 0.357032,0.388042 0.198526,0.124444 0.365771,0.161342 0.600854,0.132575 0.23032,-0.02819 0.424023,-0.134108 0.660903,-0.361462 0.184282,-0.176867 0.387283,-0.443312 0.451213,-0.591993 0.06393,-0.148679 0.116332,-0.398764 0.116332,-0.555731 0,-0.161617 -0.07616,-0.381012 -0.174415,-0.506835 -0.131744,-0.168704 -0.08419,-0.126483 -0.306979,-0.270703 z m 2.36566,-0.200692 c 0.04942,0.001 0.215646,0.180607 0.36934,0.399037 0.153693,0.218434 0.497051,0.704657 0.763123,1.080453 0.266073,0.375795 0.565637,0.857472 0.665665,1.070276 0.148048,0.314957 0.181599,0.539306 0.180646,1.206791 -6.34e-4,0.450993 -0.03557,0.874164 -0.07745,0.940329 -0.05356,0.08465 -0.333302,0.137774 -0.943773,0.179336 -0.47722,0.03249 -0.928318,0.08439 -1.002514,0.115182 -0.115742,0.04803 -0.141233,-0.04391 -0.178844,-0.646794 -0.02448,-0.392455 -0.102464,-0.816267 -0.176711,-0.959854 -0.104531,-0.202129 -0.12229,-0.409647 -0.0827,-0.97068 0.04006,-0.567727 0.02226,-0.769941 -0.08729,-0.989554 -0.07574,-0.15182 -0.13766,-0.32879 -0.13766,-0.393296 0,-0.0645 0.05865,-0.230846 0.13044,-0.369664 0.07179,-0.138819 0.211023,-0.34493 0.309287,-0.457941 0.09826,-0.113011 0.219008,-0.204573 0.26843,-0.203621 z m -3.198035,0.647287 c 0.01782,-4.14e-4 0.0368,6.67e-4 0.0571,0.0028 0.113589,0.01197 0.310532,0.06379 0.437594,0.115184 0.159447,0.0645 0.231022,0.154284 0.231022,0.289762 0,0.112809 -0.137425,0.340561 -0.32307,0.535712 -0.177662,0.186763 -0.360878,0.33964 -0.407076,0.33964 -0.04619,0 -0.148093,-0.07093 -0.226591,-0.157678 -0.0785,-0.08674 -0.157729,-0.247404 -0.175891,-0.35703 -0.01816,-0.109626 0.03236,-0.331665 0.112228,-0.493384 0.09992,-0.202288 0.169946,-0.272158 0.294685,-0.274994 z m -1.774829,1.046813 c -0.0853,0.01617 -0.156342,0.118977 -0.171296,0.247594 -0.02172,0.18667 0.07338,0.296615 0.630058,0.728834 0.360599,0.27998 0.738354,0.511689 0.839585,0.514547 0.101235,0.0028 0.208865,-0.03452 0.239061,-0.08336 0.03016,-0.04883 0.03181,-0.171694 0.0037,-0.273027 -0.02805,-0.101338 -0.353384,-0.404278 -0.723089,-0.673208 -0.369702,-0.268934 -0.737901,-0.476598 -0.818091,-0.46139 z m -5.362546,0.672721 c 0.0806,-0.0019 0.193557,0.02239 0.286643,0.06514 0.124117,0.05702 0.443994,0.13483 0.710785,0.172938 0.32176,0.04597 0.683603,0.18372 1.074707,0.409209 0.324284,0.186963 0.783782,0.397766 1.021218,0.468279 0.237444,0.07052 0.608703,0.128144 0.824983,0.128144 0.313563,0 0.4594,0.05282 0.719809,0.260555 0.179618,0.143276 0.496792,0.346456 0.704713,0.451543 0.207918,0.105089 0.650107,0.252432 0.982661,0.327498 0.33255,0.07507 0.789569,0.136513 1.015639,0.136513 0.290316,0 0.556866,-0.07409 0.907513,-0.252023 0.273053,-0.138567 0.644848,-0.386473 0.826295,-0.550975 0.290319,-0.263205 0.339349,-0.282125 0.408718,-0.158171 0.04335,0.07747 0.07892,0.332199 0.07892,0.566069 0,0.280854 -0.04269,0.456364 -0.125848,0.517174 -0.06925,0.05063 -0.140109,0.166837 -0.157351,0.258093 -0.02409,0.127394 -0.148321,0.191086 -0.534893,0.274337 -0.276909,0.05963 -0.805818,0.188639 -1.17545,0.28681 -0.369636,0.09816 -0.842175,0.193296 -1.050096,0.211331 -0.333012,0.02889 -0.468085,-0.01937 -1.134105,-0.405765 -0.415837,-0.24126 -0.945082,-0.513635 -1.176105,-0.605285 -0.340009,-0.134887 -0.724154,-0.178456 -2.016186,-0.228561 -1.127352,-0.04372 -1.703682,-0.101537 -1.962204,-0.196894 -0.201313,-0.07425 -0.550994,-0.27082 -0.777072,-0.436773 -0.228768,-0.167931 -0.411013,-0.368962 -0.411013,-0.453347 0,-0.0834 0.171222,-0.384335 0.380496,-0.668614 0.209273,-0.284283 0.438399,-0.539024 0.509296,-0.566235 0.01773,-0.0068 0.04106,-0.01031 0.06793,-0.01099 z"
       sodipodi:nodetypes="ssscccsssssccsssssssccccssssscsssssssscsssssssssssscccssssssssssssssscsssssssscsssssssscccssssssssssssssccsssssssssscccssssscccssssssscccsscsssssscccccccsssscsssssccsssscccsscccsssssssssssssssscccssscssssssscscsssssssssssssssscssssssscccsssscccsscsssssssssscccsssssssssccssssssssssssssccccccsssssscsscsssscssssssscccsscsssssssccssscsssssssssscccsscsssscsssccssssssssssssssssssscssssssssssssssssss"
       inkscape:label="graphic" />
  </g>
</svg>
