999
"DXF R12 Output" (www.mydxf.blogspot.com)
 0 
SECTION
 2 
HEADER
 9 
$ACADVER
 1 
AC1009
 9 
$EXTMIN
 10 
 0 
 20 
 0 
 9 
$EXTMAX
 10 
 8.5 
 20 
 11 
 0 
ENDSEC
 0 
SECTION
 2 
ENTITIES
0
LINE
8
Logo
10
6.439080
20
6.174190
11
6.387107
21
6.241678
0
LINE
8
Logo
10
6.387107
20
6.241678
11
6.399324
21
6.612551
0
LINE
8
Logo
10
6.399324
20
6.612551
11
6.450114
21
6.698397
0
LINE
8
Logo
10
6.450114
20
6.698397
11
6.565819
21
6.727446
0
LINE
8
Logo
10
6.565819
20
6.727446
11
6.643935
21
6.714943
0
LINE
8
Logo
10
6.643935
20
6.714943
11
6.682765
21
6.686721
0
LINE
8
Logo
10
6.682765
20
6.686721
11
6.691037
21
6.527144
0
LINE
8
Logo
10
6.691037
20
6.527144
11
6.706333
21
6.414667
0
LINE
8
Logo
10
6.706333
20
6.414667
11
6.951853
21
6.421553
0
LINE
8
Logo
10
6.951853
20
6.421553
11
7.163960
21
6.460237
0
LINE
8
Logo
10
7.163960
20
6.460237
11
7.202343
21
6.468365
0
LINE
8
Logo
10
7.202343
20
6.468365
11
7.267279
21
6.774514
0
LINE
8
Logo
10
7.267279
20
6.774514
11
7.257596
21
7.159792
0
LINE
8
Logo
10
7.257596
20
7.159792
11
7.228654
21
7.218277
0
LINE
8
Logo
10
7.228654
20
7.218277
11
7.053922
21
7.192256
0
LINE
8
Logo
10
7.053922
20
7.192256
11
6.741966
21
7.134643
0
LINE
8
Logo
10
6.741966
20
7.134643
11
6.507733
21
7.142376
0
LINE
8
Logo
10
6.507733
20
7.142376
11
6.385923
21
7.197850
0
LINE
8
Logo
10
6.385923
20
7.197850
11
6.376124
21
7.709660
0
LINE
8
Logo
10
6.376124
20
7.709660
11
6.373471
21
8.339377
0
LINE
8
Logo
10
6.373471
20
8.339377
11
6.373189
21
8.467320
0
LINE
8
Logo
10
6.373189
20
8.467320
11
6.386312
21
8.486680
0
LINE
8
Logo
10
6.386312
20
8.486680
11
6.572914
21
8.569529
0
LINE
8
Logo
10
6.572914
20
8.569529
11
6.704827
21
8.520638
0
LINE
8
Logo
10
6.704827
20
8.520638
11
6.717567
21
8.385485
0
LINE
8
Logo
10
6.717567
20
8.385485
11
6.721498
21
8.030506
0
LINE
8
Logo
10
6.721498
20
8.030506
11
6.722373
21
7.797091
0
LINE
8
Logo
10
6.722373
20
7.797091
11
6.710988
21
7.690987
0
LINE
8
Logo
10
6.710988
20
7.690987
11
6.703794
21
7.402525
0
LINE
8
Logo
10
6.703794
20
7.402525
11
6.729434
21
7.338711
0
LINE
8
Logo
10
6.729434
20
7.338711
11
6.896949
21
7.358467
0
LINE
8
Logo
10
6.896949
20
7.358467
11
7.233357
21
7.416949
0
LINE
8
Logo
10
7.233357
20
7.416949
11
7.242185
21
7.418642
0
LINE
8
Logo
10
7.242185
20
7.418642
11
7.242180
21
7.987950
0
LINE
8
Logo
10
7.242180
20
7.987950
11
7.246933
21
8.573479
0
LINE
8
Logo
10
7.246933
20
8.573479
11
7.329361
21
8.651491
0
LINE
8
Logo
10
7.329361
20
8.651491
11
7.455993
21
8.682491
0
LINE
8
Logo
10
7.455993
20
8.682491
11
7.537174
21
8.670832
0
LINE
8
Logo
10
7.537174
20
8.670832
11
7.579124
21
8.658301
0
LINE
8
Logo
10
7.579124
20
8.658301
11
7.580789
21
7.989039
0
LINE
8
Logo
10
7.580789
20
7.989039
11
7.588928
21
7.223760
0
LINE
8
Logo
10
7.588928
20
7.223760
11
7.595651
21
6.774663
0
LINE
8
Logo
10
7.595651
20
6.774663
11
7.511016
21
6.407074
0
LINE
8
Logo
10
7.511016
20
6.407074
11
7.402300
21
6.320808
0
LINE
8
Logo
10
7.402300
20
6.320808
11
7.226499
21
6.263122
0
LINE
8
Logo
10
7.226499
20
6.263122
11
6.857725
21
6.209705
0
LINE
8
Logo
10
6.857725
20
6.209705
11
6.692954
21
6.190963
0
LINE
8
Logo
10
6.692954
20
6.190963
11
6.439113
21
6.173948
0
LINE
8
Logo
10
6.439113
20
6.173948
11
6.439080
21
6.174190
0
LINE
8
Logo
10
7.986190
20
6.370958
11
7.930296
21
6.408065
0
LINE
8
Logo
10
7.930296
20
6.408065
11
7.933661
21
6.707606
0
LINE
8
Logo
10
7.933661
20
6.707606
11
7.960054
21
7.302372
0
LINE
8
Logo
10
7.960054
20
7.302372
11
7.944362
21
7.812136
0
LINE
8
Logo
10
7.944362
20
7.812136
11
7.926241
21
8.310092
0
LINE
8
Logo
10
7.926241
20
8.310092
11
7.938774
21
8.620214
0
LINE
8
Logo
10
7.938774
20
8.620214
11
7.996338
21
8.720515
0
LINE
8
Logo
10
7.996338
20
8.720515
11
8.342590
21
8.787364
0
LINE
8
Logo
10
8.342590
20
8.787364
11
8.542670
21
8.808164
0
LINE
8
Logo
10
8.542670
20
8.808164
11
9.044831
21
8.853069
0
LINE
8
Logo
10
9.044831
20
8.853069
11
9.142909
21
8.854762
0
LINE
8
Logo
10
9.142909
20
8.854762
11
9.161535
21
8.844122
0
LINE
8
Logo
10
9.161535
20
8.844122
11
9.191962
21
8.775068
0
LINE
8
Logo
10
9.191962
20
8.775068
11
9.166280
21
8.483414
0
LINE
8
Logo
10
9.166280
20
8.483414
11
8.903602
21
8.430472
0
LINE
8
Logo
10
8.903602
20
8.430472
11
8.815904
21
8.437104
0
LINE
8
Logo
10
8.815904
20
8.437104
11
8.793919
21
8.443962
0
LINE
8
Logo
10
8.793919
20
8.443962
11
8.805885
21
8.586608
0
LINE
8
Logo
10
8.805885
20
8.586608
11
8.815957
21
8.682341
0
LINE
8
Logo
10
8.815957
20
8.682341
11
8.757204
21
8.692275
0
LINE
8
Logo
10
8.757204
20
8.692275
11
8.582293
21
8.676019
0
LINE
8
Logo
10
8.582293
20
8.676019
11
8.306465
21
8.618790
0
LINE
8
Logo
10
8.306465
20
8.618790
11
8.314277
21
8.118235
0
LINE
8
Logo
10
8.314277
20
8.118235
11
8.332800
21
7.203706
0
LINE
8
Logo
10
8.332800
20
7.203706
11
8.309372
21
6.766635
0
LINE
8
Logo
10
8.309372
20
6.766635
11
8.293015
21
6.527751
0
LINE
8
Logo
10
8.293015
20
6.527751
11
8.499907
21
6.543527
0
LINE
8
Logo
10
8.499907
20
6.543527
11
8.635807
21
6.560771
0
LINE
8
Logo
10
8.635807
20
6.560771
11
8.832423
21
6.609860
0
LINE
8
Logo
10
8.832423
20
6.609860
11
8.884120
21
6.914823
0
LINE
8
Logo
10
8.884120
20
6.914823
11
8.895607
21
7.440707
0
LINE
8
Logo
10
8.895607
20
7.440707
11
8.856480
21
7.552258
0
LINE
8
Logo
10
8.856480
20
7.552258
11
8.806506
21
7.549360
0
LINE
8
Logo
10
8.806506
20
7.549360
11
8.608305
21
7.561439
0
LINE
8
Logo
10
8.608305
20
7.561439
11
8.581906
21
7.674568
0
LINE
8
Logo
10
8.581906
20
7.674568
11
8.639652
21
7.749430
0
LINE
8
Logo
10
8.639652
20
7.749430
11
8.965112
21
7.795345
0
LINE
8
Logo
10
8.965112
20
7.795345
11
9.155741
21
7.747593
0
LINE
8
Logo
10
9.155741
20
7.747593
11
9.202460
21
7.717020
0
LINE
8
Logo
10
9.202460
20
7.717020
11
9.204972
21
7.582357
0
LINE
8
Logo
10
9.204972
20
7.582357
11
9.215386
21
7.328160
0
LINE
8
Logo
10
9.215386
20
7.328160
11
9.215343
21
6.793572
0
LINE
8
Logo
10
9.215343
20
6.793572
11
9.170535
21
6.609157
0
LINE
8
Logo
10
9.170535
20
6.609157
11
8.964044
21
6.489097
0
LINE
8
Logo
10
8.964044
20
6.489097
11
8.203326
21
6.382744
0
LINE
8
Logo
10
8.203326
20
6.382744
11
7.986195
21
6.371286
0
LINE
8
Logo
10
7.986195
20
6.371286
11
7.986190
21
6.370958
0
LINE
8
Logo
10
9.613690
20
6.564969
11
9.577111
21
6.740266
0
LINE
8
Logo
10
9.577111
20
6.740266
11
9.545079
21
7.354596
0
LINE
8
Logo
10
9.545079
20
7.354596
11
9.509033
21
8.173965
0
LINE
8
Logo
10
9.509033
20
8.173965
11
9.557062
21
8.849497
0
LINE
8
Logo
10
9.557062
20
8.849497
11
9.589568
21
8.928643
0
LINE
8
Logo
10
9.589568
20
8.928643
11
9.853000
21
8.969786
0
LINE
8
Logo
10
9.853000
20
8.969786
11
9.921377
21
8.965947
0
LINE
8
Logo
10
9.921377
20
8.965947
11
10.138679
21
8.505886
0
LINE
8
Logo
10
10.138679
20
8.505886
11
10.224178
21
8.294905
0
LINE
8
Logo
10
10.224178
20
8.294905
11
10.531859
21
7.580175
0
LINE
8
Logo
10
10.531859
20
7.580175
11
10.744858
21
7.158851
0
LINE
8
Logo
10
10.744858
20
7.158851
11
10.735798
21
7.932233
0
LINE
8
Logo
10
10.735798
20
7.932233
11
10.733540
21
8.599132
0
LINE
8
Logo
10
10.733540
20
8.599132
11
10.739665
21
9.051286
0
LINE
8
Logo
10
10.739665
20
9.051286
11
10.786584
21
9.080363
0
LINE
8
Logo
10
10.786584
20
9.080363
11
10.987275
21
9.107227
0
LINE
8
Logo
10
10.987275
20
9.107227
11
11.104535
21
9.110840
0
LINE
8
Logo
10
11.104535
20
9.110840
11
11.086473
21
8.888926
0
LINE
8
Logo
10
11.086473
20
8.888926
11
11.088166
21
8.112172
0
LINE
8
Logo
10
11.088166
20
8.112172
11
11.108574
21
7.580906
0
LINE
8
Logo
10
11.108574
20
7.580906
11
11.106598
21
6.835481
0
LINE
8
Logo
10
11.106598
20
6.835481
11
11.080408
21
6.753930
0
LINE
8
Logo
10
11.080408
20
6.753930
11
10.850812
21
6.707998
0
LINE
8
Logo
10
10.850812
20
6.707998
11
10.739374
21
6.776208
0
LINE
8
Logo
10
10.739374
20
6.776208
11
10.454719
21
7.328367
0
LINE
8
Logo
10
10.454719
20
7.328367
11
10.102080
21
8.101568
0
LINE
8
Logo
10
10.102080
20
8.101568
11
9.917261
21
8.549274
0
LINE
8
Logo
10
9.917261
20
8.549274
11
9.925586
21
7.974354
0
LINE
8
Logo
10
9.925586
20
7.974354
11
9.942746
21
6.739734
0
LINE
8
Logo
10
9.942746
20
6.739734
11
9.944439
21
6.621012
0
LINE
8
Logo
10
9.944439
20
6.621012
11
9.934561
21
6.613082
0
LINE
8
Logo
10
9.934561
20
6.613082
11
9.904624
21
6.598858
0
LINE
8
Logo
10
9.904624
20
6.598858
11
9.613870
21
6.564825
0
LINE
8
Logo
10
9.613870
20
6.564825
11
9.613690
21
6.564969
0
LINE
8
Logo
10
11.239500
20
9.564720
11
11.206539
21
9.562462
0
LINE
8
Logo
10
11.206539
20
9.562462
11
6.325349
21
9.003885
0
LINE
8
Logo
10
6.325349
20
9.003885
11
6.091907
21
8.893567
0
LINE
8
Logo
10
6.091907
20
8.893567
11
5.991807
21
8.671950
0
LINE
8
Logo
10
5.991807
20
8.671950
11
5.991780
21
8.435830
0
LINE
8
Logo
10
5.991780
20
8.435830
11
-0.023772
21
8.435830
0
LINE
8
Logo
10
-0.023772
20
8.435830
11
-0.023772
21
8.294800
0
LINE
8
Logo
10
-0.023772
20
8.294800
11
5.991780
21
8.294800
0
LINE
8
Logo
10
5.991780
20
8.294800
11
5.991780
21
8.204380
0
LINE
8
Logo
10
5.991780
20
8.204380
11
-0.023772
21
8.204380
0
LINE
8
Logo
10
-0.023772
20
8.204380
11
-0.023772
21
8.128250
0
LINE
8
Logo
10
-0.023772
20
8.128250
11
5.991780
21
8.128250
0
LINE
8
Logo
10
5.991780
20
8.128250
11
5.991780
21
7.987800
0
LINE
8
Logo
10
5.991780
20
7.987800
11
-0.023772
21
7.987800
0
LINE
8
Logo
10
-0.023772
20
7.987800
11
-0.023772
21
7.846780
0
LINE
8
Logo
10
-0.023772
20
7.846780
11
5.991780
21
7.846780
0
LINE
8
Logo
10
5.991780
20
7.846780
11
5.991780
21
7.756350
0
LINE
8
Logo
10
5.991780
20
7.756350
11
-0.023772
21
7.756350
0
LINE
8
Logo
10
-0.023772
20
7.756350
11
-0.023772
21
7.680220
0
LINE
8
Logo
10
-0.023772
20
7.680220
11
5.991780
21
7.680220
0
LINE
8
Logo
10
5.991780
20
7.680220
11
5.991780
21
7.539780
0
LINE
8
Logo
10
5.991780
20
7.539780
11
-0.023772
21
7.539780
0
LINE
8
Logo
10
-0.023772
20
7.539780
11
-0.023772
21
7.398750
0
LINE
8
Logo
10
-0.023772
20
7.398750
11
5.991780
21
7.398750
0
LINE
8
Logo
10
5.991780
20
7.398750
11
5.991780
21
7.308330
0
LINE
8
Logo
10
5.991780
20
7.308330
11
-0.023772
21
7.308330
0
LINE
8
Logo
10
-0.023772
20
7.308330
11
-0.023772
21
7.232200
0
LINE
8
Logo
10
-0.023772
20
7.232200
11
5.991780
21
7.232200
0
LINE
8
Logo
10
5.991780
20
7.232200
11
5.991780
21
7.091750
0
LINE
8
Logo
10
5.991780
20
7.091750
11
-0.023772
21
7.091750
0
LINE
8
Logo
10
-0.023772
20
7.091750
11
-0.023772
21
6.950720
0
LINE
8
Logo
10
-0.023772
20
6.950720
11
5.991780
21
6.950720
0
LINE
8
Logo
10
5.991780
20
6.950720
11
5.991780
21
6.860300
0
LINE
8
Logo
10
5.991780
20
6.860300
11
-0.023772
21
6.860300
0
LINE
8
Logo
10
-0.023772
20
6.860300
11
-0.023772
21
6.784170
0
LINE
8
Logo
10
-0.023772
20
6.784170
11
5.991780
21
6.784170
0
LINE
8
Logo
10
5.991780
20
6.784170
11
5.991780
21
5.979260
0
LINE
8
Logo
10
5.991780
20
5.979260
11
6.091880
21
5.780520
0
LINE
8
Logo
10
6.091880
20
5.780520
11
6.325322
21
5.723601
0
LINE
8
Logo
10
6.325322
20
5.723601
11
11.206512
21
6.282175
0
LINE
8
Logo
10
11.206512
20
6.282175
11
11.440172
21
6.392567
0
LINE
8
Logo
10
11.440172
20
6.392567
11
11.540491
21
6.614260
0
LINE
8
Logo
10
11.540491
20
6.614260
11
11.540500
21
6.784170
0
LINE
8
Logo
10
11.540500
20
6.784170
11
17.521900
21
6.784170
0
LINE
8
Logo
10
17.521900
20
6.784170
11
17.521900
21
6.860300
0
LINE
8
Logo
10
17.521900
20
6.860300
11
11.540500
21
6.860300
0
LINE
8
Logo
10
11.540500
20
6.860300
11
11.540500
21
6.950720
0
LINE
8
Logo
10
11.540500
20
6.950720
11
17.521900
21
6.950720
0
LINE
8
Logo
10
17.521900
20
6.950720
11
17.521900
21
7.091750
0
LINE
8
Logo
10
17.521900
20
7.091750
11
11.540500
21
7.091750
0
LINE
8
Logo
10
11.540500
20
7.091750
11
11.540500
21
7.232200
0
LINE
8
Logo
10
11.540500
20
7.232200
11
17.521900
21
7.232200
0
LINE
8
Logo
10
17.521900
20
7.232200
11
17.521900
21
7.308330
0
LINE
8
Logo
10
17.521900
20
7.308330
11
11.540500
21
7.308330
0
LINE
8
Logo
10
11.540500
20
7.308330
11
11.540500
21
7.398750
0
LINE
8
Logo
10
11.540500
20
7.398750
11
17.521900
21
7.398750
0
LINE
8
Logo
10
17.521900
20
7.398750
11
17.521900
21
7.539780
0
LINE
8
Logo
10
17.521900
20
7.539780
11
11.540500
21
7.539780
0
LINE
8
Logo
10
11.540500
20
7.539780
11
11.540500
21
7.680220
0
LINE
8
Logo
10
11.540500
20
7.680220
11
17.521900
21
7.680220
0
LINE
8
Logo
10
17.521900
20
7.680220
11
17.521900
21
7.756350
0
LINE
8
Logo
10
17.521900
20
7.756350
11
11.540500
21
7.756350
0
LINE
8
Logo
10
11.540500
20
7.756350
11
11.540500
21
7.846780
0
LINE
8
Logo
10
11.540500
20
7.846780
11
17.521900
21
7.846780
0
LINE
8
Logo
10
17.521900
20
7.846780
11
17.521900
21
7.987800
0
LINE
8
Logo
10
17.521900
20
7.987800
11
11.540500
21
7.987800
0
LINE
8
Logo
10
11.540500
20
7.987800
11
11.540500
21
8.128250
0
LINE
8
Logo
10
11.540500
20
8.128250
11
17.521900
21
8.128250
0
LINE
8
Logo
10
17.521900
20
8.128250
11
17.521900
21
8.204380
0
LINE
8
Logo
10
17.521900
20
8.204380
11
11.540500
21
8.204380
0
LINE
8
Logo
10
11.540500
20
8.204380
11
11.540500
21
8.294800
0
LINE
8
Logo
10
11.540500
20
8.294800
11
17.521900
21
8.294800
0
LINE
8
Logo
10
17.521900
20
8.294800
11
17.521900
21
8.435830
0
LINE
8
Logo
10
17.521900
20
8.435830
11
11.540500
21
8.435830
0
LINE
8
Logo
10
11.540500
20
8.435830
11
11.540500
21
9.306940
0
LINE
8
Logo
10
11.540500
20
9.306940
11
11.451365
21
9.496831
0
LINE
8
Logo
10
11.451365
20
9.496831
11
11.239482
21
9.564789
0
LINE
8
Logo
10
11.239482
20
9.564789
11
11.239500
21
9.564720
0
LINE
8
Logo
10
11.227534
20
9.422379
11
11.399774
21
9.290683
0
LINE
8
Logo
10
11.399774
20
9.290683
11
11.399800
21
6.598000
0
LINE
8
Logo
10
11.399800
20
6.598000
11
11.206557
21
6.423866
0
LINE
8
Logo
10
11.206557
20
6.423866
11
6.325367
21
5.865143
0
LINE
8
Logo
10
6.325367
20
5.865143
11
6.132125
21
5.995233
0
LINE
8
Logo
10
6.132125
20
5.995233
11
6.132070
21
8.687920
0
LINE
8
Logo
10
6.132070
20
8.687920
11
6.325312
21
8.862054
0
LINE
8
Logo
10
6.325312
20
8.862054
11
11.206502
21
9.420777
0
LINE
8
Logo
10
11.206502
20
9.420777
11
11.227499
21
9.422470
0
LINE
8
Logo
10
11.227499
20
9.422470
11
11.227534
21
9.422379
0
LINE
8
Logo
10
11.070607
20
9.331374
11
11.042469
21
9.329398
0
LINE
8
Logo
10
11.042469
20
9.329398
11
6.489569
21
8.807282
0
LINE
8
Logo
10
6.489569
20
8.807282
11
6.208093
21
8.541849
0
LINE
8
Logo
10
6.208093
20
8.541849
11
6.208070
21
6.157330
0
LINE
8
Logo
10
6.208070
20
6.157330
11
6.292037
21
6.000328
0
LINE
8
Logo
10
6.292037
20
6.000328
11
6.489546
21
5.956357
0
LINE
8
Logo
10
6.489546
20
5.956357
11
11.042446
21
6.478473
0
LINE
8
Logo
10
11.042446
20
6.478473
11
11.323485
21
6.743906
0
LINE
8
Logo
10
11.323485
20
6.743906
11
11.323500
21
9.128430
0
LINE
8
Logo
10
11.323500
20
9.128430
11
11.070609
21
9.331441
0
LINE
8
Logo
10
11.070609
20
9.331441
11
11.070607
21
9.331374
0
LINE
8
Logo
10
11.064765
20
9.259912
11
11.252756
21
9.120192
0
LINE
8
Logo
10
11.252756
20
9.120192
11
11.252700
21
6.735680
0
LINE
8
Logo
10
11.252700
20
6.735680
11
11.042397
21
6.549439
0
LINE
8
Logo
10
11.042397
20
6.549439
11
6.489497
21
6.027469
0
LINE
8
Logo
10
6.489497
20
6.027469
11
6.279193
21
6.165436
0
LINE
8
Logo
10
6.279193
20
6.165436
11
6.279220
21
8.549950
0
LINE
8
Logo
10
6.279220
20
8.549950
11
6.489524
21
8.736044
0
LINE
8
Logo
10
6.489524
20
8.736044
11
11.042424
21
9.258158
0
LINE
8
Logo
10
11.042424
20
9.258158
11
11.064748
21
9.259851
0
LINE
8
Logo
10
11.064748
20
9.259851
11
11.064765
21
9.259912
0
LINE
8
Layer 1
10
-5.644440
20
38.664400
11
107.244000
21
38.664400
0
LINE
8
Layer 1
10
107.244000
20
38.664400
11
107.244000
21
-10.724400
0
LINE
8
Layer 1
10
107.244000
20
-10.724400
11
-5.644440
21
-10.724400
0
LINE
8
Layer 1
10
-5.644440
20
-10.724400
11
-5.644440
21
38.664400
0
LINE
8
Layer 1
10
59.277100
20
18.650400
11
59.027105
21
18.659177
0
LINE
8
Layer 1
10
59.027105
20
18.659177
11
58.984046
21
19.132215
0
LINE
8
Layer 1
10
58.984046
20
19.132215
11
58.997569
21
19.452459
0
LINE
8
Layer 1
10
58.997569
20
19.452459
11
58.842012
21
19.580849
0
LINE
8
Layer 1
10
58.842012
20
19.580849
11
58.650293
21
19.896162
0
LINE
8
Layer 1
10
58.650293
20
19.896162
11
58.763250
21
20.167465
0
LINE
8
Layer 1
10
58.763250
20
20.167465
11
58.986380
21
20.119377
0
LINE
8
Layer 1
10
58.986380
20
20.119377
11
59.126746
21
20.129678
0
LINE
8
Layer 1
10
59.126746
20
20.129678
11
59.308060
21
20.791460
0
LINE
8
Layer 1
10
59.308060
20
20.791460
11
59.455637
21
21.463501
0
LINE
8
Layer 1
10
59.455637
20
21.463501
11
59.797907
21
22.596541
0
LINE
8
Layer 1
10
59.797907
20
22.596541
11
60.143719
21
23.725991
0
LINE
8
Layer 1
10
60.143719
20
23.725991
11
60.334236
21
24.265202
0
LINE
8
Layer 1
10
60.334236
20
24.265202
11
60.489997
21
24.786573
0
LINE
8
Layer 1
10
60.489997
20
24.786573
11
60.222896
21
24.923620
0
LINE
8
Layer 1
10
60.222896
20
24.923620
11
59.806627
21
25.154015
0
LINE
8
Layer 1
10
59.806627
20
25.154015
11
59.685918
21
25.510190
0
LINE
8
Layer 1
10
59.685918
20
25.510190
11
59.958082
21
25.707187
0
LINE
8
Layer 1
10
59.958082
20
25.707187
11
60.472728
21
25.606967
0
LINE
8
Layer 1
10
60.472728
20
25.606967
11
61.016575
21
25.367550
0
LINE
8
Layer 1
10
61.016575
20
25.367550
11
62.190105
21
24.645922
0
LINE
8
Layer 1
10
62.190105
20
24.645922
11
63.536765
21
23.553842
0
LINE
8
Layer 1
10
63.536765
20
23.553842
11
64.020567
21
22.695582
0
LINE
8
Layer 1
10
64.020567
20
22.695582
11
64.139241
21
21.799527
0
LINE
8
Layer 1
10
64.139241
20
21.799527
11
64.141721
21
21.282384
0
LINE
8
Layer 1
10
64.141721
20
21.282384
11
63.938000
21
20.791467
0
LINE
8
Layer 1
10
63.938000
20
20.791467
11
63.622682
21
20.317394
0
LINE
8
Layer 1
10
63.622682
20
20.317394
11
62.903660
21
19.910418
0
LINE
8
Layer 1
10
62.903660
20
19.910418
11
61.708920
21
19.478864
0
LINE
8
Layer 1
10
61.708920
20
19.478864
11
61.177318
21
19.405010
0
LINE
8
Layer 1
10
61.177318
20
19.405010
11
60.342099
21
19.362668
0
LINE
8
Layer 1
10
60.342099
20
19.362668
11
59.630671
21
19.358322
0
LINE
8
Layer 1
10
59.630671
20
19.358322
11
59.532500
21
19.055845
0
LINE
8
Layer 1
10
59.532500
20
19.055845
11
59.277089
21
18.650396
0
LINE
8
Layer 1
10
59.277089
20
18.650396
11
59.277100
21
18.650400
0
LINE
8
Layer 1
10
60.924290
20
19.989980
11
61.895015
21
20.128534
0
LINE
8
Layer 1
10
61.895015
20
20.128534
11
62.732898
21
20.464068
0
LINE
8
Layer 1
10
62.732898
20
20.464068
11
63.442274
21
20.997555
0
LINE
8
Layer 1
10
63.442274
20
20.997555
11
63.601281
21
21.810987
0
LINE
8
Layer 1
10
63.601281
20
21.810987
11
63.480561
21
22.595034
0
LINE
8
Layer 1
10
63.480561
20
22.595034
11
63.124840
21
23.106293
0
LINE
8
Layer 1
10
63.124840
20
23.106293
11
62.637268
21
23.516985
0
LINE
8
Layer 1
10
62.637268
20
23.516985
11
61.853588
21
24.060878
0
LINE
8
Layer 1
10
61.853588
20
24.060878
11
61.204091
21
24.434235
0
LINE
8
Layer 1
10
61.204091
20
24.434235
11
60.836065
21
23.703661
0
LINE
8
Layer 1
10
60.836065
20
23.703661
11
60.437251
21
22.695601
0
LINE
8
Layer 1
10
60.437251
20
22.695601
11
60.254408
21
22.098230
0
LINE
8
Layer 1
10
60.254408
20
22.098230
11
59.993423
21
21.127505
0
LINE
8
Layer 1
10
59.993423
20
21.127505
11
59.733338
21
20.217582
0
LINE
8
Layer 1
10
59.733338
20
20.217582
11
59.730853
21
20.008685
0
LINE
8
Layer 1
10
59.730853
20
20.008685
11
59.970828
21
19.956230
0
LINE
8
Layer 1
10
59.970828
20
19.956230
11
60.924290
21
19.989981
0
LINE
8
Layer 1
10
60.924290
20
19.989981
11
60.924290
21
19.989980
0
LINE
8
Layer 1
10
46.314890
20
18.626020
11
46.137708
21
18.806588
0
LINE
8
Layer 1
10
46.137708
20
18.806588
11
46.180386
21
19.422628
0
LINE
8
Layer 1
10
46.180386
20
19.422628
11
46.480642
21
20.726238
0
LINE
8
Layer 1
10
46.480642
20
20.726238
11
47.069323
21
22.536218
0
LINE
8
Layer 1
10
47.069323
20
22.536218
11
47.590779
21
23.762338
0
LINE
8
Layer 1
10
47.590779
20
23.762338
11
47.787691
21
24.323167
0
LINE
8
Layer 1
10
47.787691
20
24.323167
11
47.967839
21
24.599711
0
LINE
8
Layer 1
10
47.967839
20
24.599711
11
48.270121
21
24.971239
0
LINE
8
Layer 1
10
48.270121
20
24.971239
11
48.606284
21
25.495097
0
LINE
8
Layer 1
10
48.606284
20
25.495097
11
48.764560
21
25.609181
0
LINE
8
Layer 1
10
48.764560
20
25.609181
11
48.900396
21
25.501616
0
LINE
8
Layer 1
10
48.900396
20
25.501616
11
48.947129
21
25.097542
0
LINE
8
Layer 1
10
48.947129
20
25.097542
11
48.570213
21
24.422890
0
LINE
8
Layer 1
10
48.570213
20
24.422890
11
48.350785
21
23.961838
0
LINE
8
Layer 1
10
48.350785
20
23.961838
11
48.664362
21
24.062580
0
LINE
8
Layer 1
10
48.664362
20
24.062580
11
49.310374
21
24.339386
0
LINE
8
Layer 1
10
49.310374
20
24.339386
11
50.181114
21
24.475245
0
LINE
8
Layer 1
10
50.181114
20
24.475245
11
50.765816
21
24.381223
0
LINE
8
Layer 1
10
50.765816
20
24.381223
11
50.884471
21
24.026834
0
LINE
8
Layer 1
10
50.884471
20
24.026834
11
50.776278
21
23.561698
0
LINE
8
Layer 1
10
50.776278
20
23.561698
11
50.405667
21
23.136048
0
LINE
8
Layer 1
10
50.405667
20
23.136048
11
49.925043
21
22.753011
0
LINE
8
Layer 1
10
49.925043
20
22.753011
11
49.506745
21
22.510328
0
LINE
8
Layer 1
10
49.506745
20
22.510328
11
49.087501
21
22.434255
0
LINE
8
Layer 1
10
49.087501
20
22.434255
11
48.868347
21
22.393516
0
LINE
8
Layer 1
10
48.868347
20
22.393516
11
49.126171
21
21.441457
0
LINE
8
Layer 1
10
49.126171
20
21.441457
11
49.434685
21
20.231457
0
LINE
8
Layer 1
10
49.434685
20
20.231457
11
49.555408
21
19.797304
0
LINE
8
Layer 1
10
49.555408
20
19.797304
11
49.862934
21
19.712277
0
LINE
8
Layer 1
10
49.862934
20
19.712277
11
50.225533
21
19.872952
0
LINE
8
Layer 1
10
50.225533
20
19.872952
11
50.539731
21
20.368669
0
LINE
8
Layer 1
10
50.539731
20
20.368669
11
51.185353
21
21.202183
0
LINE
8
Layer 1
10
51.185353
20
21.202183
11
51.641889
21
21.650210
0
LINE
8
Layer 1
10
51.641889
20
21.650210
11
51.590708
21
21.351526
0
LINE
8
Layer 1
10
51.590708
20
21.351526
11
51.268001
21
20.646914
0
LINE
8
Layer 1
10
51.268001
20
20.646914
11
50.548451
21
19.758203
0
LINE
8
Layer 1
10
50.548451
20
19.758203
11
49.856036
21
19.173021
0
LINE
8
Layer 1
10
49.856036
20
19.173021
11
49.465723
21
19.148721
0
LINE
8
Layer 1
10
49.465723
20
19.148721
11
49.238698
21
19.378354
0
LINE
8
Layer 1
10
49.238698
20
19.378354
11
49.058242
21
19.992681
0
LINE
8
Layer 1
10
49.058242
20
19.992681
11
48.692022
21
21.351531
0
LINE
8
Layer 1
10
48.692022
20
21.351531
11
48.345185
21
22.564941
0
LINE
8
Layer 1
10
48.345185
20
22.564941
11
48.159892
21
22.882294
0
LINE
8
Layer 1
10
48.159892
20
22.882294
11
47.863048
21
22.631207
0
LINE
8
Layer 1
10
47.863048
20
22.631207
11
47.548862
21
22.015167
0
LINE
8
Layer 1
10
47.548862
20
22.015167
11
47.293293
21
21.478169
0
LINE
8
Layer 1
10
47.293293
20
21.478169
11
47.008158
21
20.843463
0
LINE
8
Layer 1
10
47.008158
20
20.843463
11
46.733635
21
19.895443
0
LINE
8
Layer 1
10
46.733635
20
19.895443
11
46.529049
21
19.018057
0
LINE
8
Layer 1
10
46.529049
20
19.018057
11
46.314888
21
18.626034
0
LINE
8
Layer 1
10
46.314888
20
18.626034
11
46.314890
21
18.626020
0
LINE
8
Layer 1
10
49.124050
20
23.031900
11
49.540392
21
23.190701
0
LINE
8
Layer 1
10
49.540392
20
23.190701
11
50.081759
21
23.570053
0
LINE
8
Layer 1
10
50.081759
20
23.570053
11
50.361777
21
23.846837
0
LINE
8
Layer 1
10
50.361777
20
23.846837
11
50.231103
21
23.908500
0
LINE
8
Layer 1
10
50.231103
20
23.908500
11
49.540393
21
23.767245
0
LINE
8
Layer 1
10
49.540393
20
23.767245
11
48.805292
21
23.506286
0
LINE
8
Layer 1
10
48.805292
20
23.506286
11
48.630227
21
23.392291
0
LINE
8
Layer 1
10
48.630227
20
23.392291
11
48.799642
21
23.211957
0
LINE
8
Layer 1
10
48.799642
20
23.211957
11
49.124051
21
23.031902
0
LINE
8
Layer 1
10
49.124051
20
23.031902
11
49.124050
21
23.031900
0
LINE
8
Layer 1
10
75.600650
20
18.628310
11
75.393939
21
18.688421
0
LINE
8
Layer 1
10
75.393939
20
18.688421
11
75.231800
21
18.983670
0
LINE
8
Layer 1
10
75.231800
20
18.983670
11
75.265133
21
19.874476
0
LINE
8
Layer 1
10
75.265133
20
19.874476
11
75.450979
21
20.903496
0
LINE
8
Layer 1
10
75.450979
20
20.903496
11
75.677403
21
21.799551
0
LINE
8
Layer 1
10
75.677403
20
21.799551
11
75.860156
21
23.044671
0
LINE
8
Layer 1
10
75.860156
20
23.044671
11
75.901558
21
23.767094
0
LINE
8
Layer 1
10
75.901558
20
23.767094
11
75.473334
21
23.891582
0
LINE
8
Layer 1
10
75.473334
20
23.891582
11
74.762846
21
24.160070
0
LINE
8
Layer 1
10
74.762846
20
24.160070
11
74.480582
21
24.474297
0
LINE
8
Layer 1
10
74.480582
20
24.474297
11
74.566694
21
24.730633
0
LINE
8
Layer 1
10
74.566694
20
24.730633
11
74.785780
21
24.745563
0
LINE
8
Layer 1
10
74.785780
20
24.745563
11
75.451265
21
24.562381
0
LINE
8
Layer 1
10
75.451265
20
24.562381
11
76.122197
21
24.450364
0
LINE
8
Layer 1
10
76.122197
20
24.450364
11
76.424990
21
25.004038
0
LINE
8
Layer 1
10
76.424990
20
25.004038
11
76.737723
21
25.596515
0
LINE
8
Layer 1
10
76.737723
20
25.596515
11
77.066667
21
25.566656
0
LINE
8
Layer 1
10
77.066667
20
25.566656
11
77.287427
21
25.393290
0
LINE
8
Layer 1
10
77.287427
20
25.393290
11
77.207623
21
24.707697
0
LINE
8
Layer 1
10
77.207623
20
24.707697
11
77.121794
21
24.037812
0
LINE
8
Layer 1
10
77.121794
20
24.037812
11
77.819517
21
23.775684
0
LINE
8
Layer 1
10
77.819517
20
23.775684
11
78.394275
21
23.596990
0
LINE
8
Layer 1
10
78.394275
20
23.596990
11
78.451277
21
23.385825
0
LINE
8
Layer 1
10
78.451277
20
23.385825
11
78.326791
21
23.133530
0
LINE
8
Layer 1
10
78.326791
20
23.133530
11
77.778459
21
23.251468
0
LINE
8
Layer 1
10
77.778459
20
23.251468
11
77.077765
21
23.402310
0
LINE
8
Layer 1
10
77.077765
20
23.402310
11
76.838888
21
23.331582
0
LINE
8
Layer 1
10
76.838888
20
23.331582
11
76.627381
21
22.958787
0
LINE
8
Layer 1
10
76.627381
20
22.958787
11
76.422036
21
22.361676
0
LINE
8
Layer 1
10
76.422036
20
22.361676
11
76.303841
21
21.927810
0
LINE
8
Layer 1
10
76.303841
20
21.927810
11
76.112006
21
21.015485
0
LINE
8
Layer 1
10
76.112006
20
21.015485
11
75.987521
21
19.575195
0
LINE
8
Layer 1
10
75.987521
20
19.575195
11
75.824664
21
18.698952
0
LINE
8
Layer 1
10
75.824664
20
18.698952
11
75.600651
21
18.628295
0
LINE
8
Layer 1
10
75.600651
20
18.628295
11
75.600650
21
18.628310
0
LINE
8
Layer 1
10
54.207350
20
18.902517
11
53.535309
21
18.884822
0
LINE
8
Layer 1
10
53.535309
20
18.884822
11
53.012433
21
19.091194
0
LINE
8
Layer 1
10
53.012433
20
19.091194
11
52.666082
21
19.346427
0
LINE
8
Layer 1
10
52.666082
20
19.346427
11
52.348904
21
20.030561
0
LINE
8
Layer 1
10
52.348904
20
20.030561
11
52.153891
21
21.005635
0
LINE
8
Layer 1
10
52.153891
20
21.005635
11
52.439991
21
21.990578
0
LINE
8
Layer 1
10
52.439991
20
21.990578
11
52.944023
21
22.922791
0
LINE
8
Layer 1
10
52.944023
20
22.922791
11
53.418080
21
23.614681
0
LINE
8
Layer 1
10
53.418080
20
23.614681
11
54.052786
21
24.210906
0
LINE
8
Layer 1
10
54.052786
20
24.210906
11
54.991400
21
24.762856
0
LINE
8
Layer 1
10
54.991400
20
24.762856
11
55.943456
21
25.148831
0
LINE
8
Layer 1
10
55.943456
20
25.148831
11
56.333134
21
25.226258
0
LINE
8
Layer 1
10
56.333134
20
25.226258
11
56.713287
21
25.151653
0
LINE
8
Layer 1
10
56.713287
20
25.151653
11
57.376068
21
24.781999
0
LINE
8
Layer 1
10
57.376068
20
24.781999
11
57.815124
21
24.020832
0
LINE
8
Layer 1
10
57.815124
20
24.020832
11
58.007038
21
23.069098
0
LINE
8
Layer 1
10
58.007038
20
23.069098
11
57.997412
21
22.615032
0
LINE
8
Layer 1
10
57.997412
20
22.615032
11
57.789298
21
22.135708
0
LINE
8
Layer 1
10
57.789298
20
22.135708
11
57.383542
21
21.342958
0
LINE
8
Layer 1
10
57.383542
20
21.342958
11
56.877761
21
20.581515
0
LINE
8
Layer 1
10
56.877761
20
20.581515
11
56.186139
21
19.876522
0
LINE
8
Layer 1
10
56.186139
20
19.876522
11
55.215411
21
19.317697
0
LINE
8
Layer 1
10
55.215411
20
19.317697
11
54.207351
21
18.902653
0
LINE
8
Layer 1
10
54.207351
20
18.902653
11
54.207350
21
18.902517
0
LINE
8
Layer 1
10
54.310268
20
19.679138
11
54.897019
21
19.905520
0
LINE
8
Layer 1
10
54.897019
20
19.905520
11
55.782903
21
20.585568
0
LINE
8
Layer 1
10
55.782903
20
20.585568
11
56.457092
21
21.471536
0
LINE
8
Layer 1
10
56.457092
20
21.471536
11
56.719034
21
21.911557
0
LINE
8
Layer 1
10
56.719034
20
21.911557
11
56.783510
21
22.032896
0
LINE
8
Layer 1
10
56.783510
20
22.032896
11
56.977016
21
22.585425
0
LINE
8
Layer 1
10
56.977016
20
22.585425
11
57.129909
21
23.021319
0
LINE
8
Layer 1
10
57.129909
20
23.021319
11
57.067110
21
23.482194
0
LINE
8
Layer 1
10
57.067110
20
23.482194
11
56.963695
21
23.947773
0
LINE
8
Layer 1
10
56.963695
20
23.947773
11
56.458120
21
24.134655
0
LINE
8
Layer 1
10
56.458120
20
24.134655
11
55.952548
21
24.321534
0
LINE
8
Layer 1
10
55.952548
20
24.321534
11
55.400093
21
24.041124
0
LINE
8
Layer 1
10
55.400093
20
24.041124
11
54.455826
21
23.340166
0
LINE
8
Layer 1
10
54.455826
20
23.340166
11
53.793869
21
22.428668
0
LINE
8
Layer 1
10
53.793869
20
22.428668
11
53.391722
21
21.532613
0
LINE
8
Layer 1
10
53.391722
20
21.532613
11
53.183592
21
21.034850
0
LINE
8
Layer 1
10
53.183592
20
21.034850
11
53.157910
21
20.605847
0
LINE
8
Layer 1
10
53.157910
20
20.605847
11
53.390997
21
20.052435
0
LINE
8
Layer 1
10
53.390997
20
20.052435
11
53.853169
21
19.761111
0
LINE
8
Layer 1
10
53.853169
20
19.761111
11
54.310281
21
19.679140
0
LINE
8
Layer 1
10
54.310281
20
19.679140
11
54.310268
21
19.679138
0
LINE
8
Layer 1
10
72.284768
20
18.850037
11
72.106855
21
18.943376
0
LINE
8
Layer 1
10
72.106855
20
18.943376
11
71.955770
21
19.410070
0
LINE
8
Layer 1
10
71.955770
20
19.410070
11
71.790648
21
20.044776
0
LINE
8
Layer 1
10
71.790648
20
20.044776
11
71.599564
21
20.530139
0
LINE
8
Layer 1
10
71.599564
20
20.530139
11
71.385589
21
21.209588
0
LINE
8
Layer 1
10
71.385589
20
21.209588
11
71.278096
21
21.956299
0
LINE
8
Layer 1
10
71.278096
20
21.956299
11
71.157867
21
22.732940
0
LINE
8
Layer 1
10
71.157867
20
22.732940
11
70.997446
21
23.327057
0
LINE
8
Layer 1
10
70.997446
20
23.327057
11
70.782232
21
23.215049
0
LINE
8
Layer 1
10
70.782232
20
23.215049
11
70.468452
21
22.717102
0
LINE
8
Layer 1
10
70.468452
20
22.717102
11
70.214630
21
22.476601
0
LINE
8
Layer 1
10
70.214630
20
22.476601
11
69.971947
21
22.210912
0
LINE
8
Layer 1
10
69.971947
20
22.210912
11
69.850958
21
21.801478
0
LINE
8
Layer 1
10
69.850958
20
21.801478
11
69.635767
21
21.030515
0
LINE
8
Layer 1
10
69.635767
20
21.030515
11
69.334456
21
20.205693
0
LINE
8
Layer 1
10
69.334456
20
20.205693
11
69.099278
21
20.044776
0
LINE
8
Layer 1
10
69.099278
20
20.044776
11
68.910607
21
20.148004
0
LINE
8
Layer 1
10
68.910607
20
20.148004
11
68.982249
21
20.652036
0
LINE
8
Layer 1
10
68.982249
20
20.652036
11
69.479166
21
22.168316
0
LINE
8
Layer 1
10
69.479166
20
22.168316
11
70.044572
21
23.519446
0
LINE
8
Layer 1
10
70.044572
20
23.519446
11
70.224316
21
23.816846
0
LINE
8
Layer 1
10
70.224316
20
23.816846
11
70.328967
21
23.996475
0
LINE
8
Layer 1
10
70.328967
20
23.996475
11
70.468946
21
24.545752
0
LINE
8
Layer 1
10
70.468946
20
24.545752
11
70.544783
21
24.947057
0
LINE
8
Layer 1
10
70.544783
20
24.947057
11
70.771285
21
25.236462
0
LINE
8
Layer 1
10
70.771285
20
25.236462
11
71.155855
21
25.495779
0
LINE
8
Layer 1
10
71.155855
20
25.495779
11
71.340036
21
25.320539
0
LINE
8
Layer 1
10
71.340036
20
25.320539
11
71.412485
21
24.480488
0
LINE
8
Layer 1
10
71.412485
20
24.480488
11
71.570913
21
23.068968
0
LINE
8
Layer 1
10
71.570913
20
23.068968
11
71.788783
21
22.060908
0
LINE
8
Layer 1
10
71.788783
20
22.060908
11
72.024351
21
20.989888
0
LINE
8
Layer 1
10
72.024351
20
20.989888
11
72.174859
21
20.370008
0
LINE
8
Layer 1
10
72.174859
20
20.370008
11
72.262233
21
20.355182
0
LINE
8
Layer 1
10
72.262233
20
20.355182
11
72.464183
21
21.090184
0
LINE
8
Layer 1
10
72.464183
20
21.090184
11
72.650876
21
22.060909
0
LINE
8
Layer 1
10
72.650876
20
22.060909
11
72.837529
21
22.781168
0
LINE
8
Layer 1
10
72.837529
20
22.781168
11
73.021193
21
23.341201
0
LINE
8
Layer 1
10
73.021193
20
23.341201
11
73.130498
21
23.741014
0
LINE
8
Layer 1
10
73.130498
20
23.741014
11
73.275490
21
24.157006
0
LINE
8
Layer 1
10
73.275490
20
24.157006
11
73.360510
21
24.550042
0
LINE
8
Layer 1
10
73.360510
20
24.550042
11
73.453849
21
24.843426
0
LINE
8
Layer 1
10
73.453849
20
24.843426
11
73.557043
21
25.032726
0
LINE
8
Layer 1
10
73.557043
20
25.032726
11
73.769418
21
25.004199
0
LINE
8
Layer 1
10
73.769418
20
25.004199
11
73.927572
21
24.926390
0
LINE
8
Layer 1
10
73.927572
20
24.926390
11
73.936587
21
24.757881
0
LINE
8
Layer 1
10
73.936587
20
24.757881
11
73.739624
21
23.940865
0
LINE
8
Layer 1
10
73.739624
20
23.940865
11
73.440985
21
22.970137
0
LINE
8
Layer 1
10
73.440985
20
22.970137
11
73.176487
21
21.948907
0
LINE
8
Layer 1
10
73.176487
20
21.948907
11
72.861753
21
20.567487
0
LINE
8
Layer 1
10
72.861753
20
20.567487
11
72.529987
21
19.354077
0
LINE
8
Layer 1
10
72.529987
20
19.354077
11
72.284770
21
18.850045
0
LINE
8
Layer 1
10
72.284770
20
18.850045
11
72.284768
21
18.850037
0
LINE
8
Layer 1
10
67.391648
20
18.930329
11
66.676548
21
19.143229
0
LINE
8
Layer 1
10
66.676548
20
19.143229
11
65.840203
21
19.473629
0
LINE
8
Layer 1
10
65.840203
20
19.473629
11
65.523736
21
19.596748
0
LINE
8
Layer 1
10
65.523736
20
19.596748
11
65.445357
21
19.369009
0
LINE
8
Layer 1
10
65.445357
20
19.369009
11
65.445300
21
19.141200
0
LINE
8
Layer 1
10
65.445300
20
19.141200
11
65.015942
21
19.163580
0
LINE
8
Layer 1
10
65.015942
20
19.163580
11
64.586581
21
19.185989
0
LINE
8
Layer 1
10
64.586581
20
19.185989
11
64.588839
21
19.746025
0
LINE
8
Layer 1
10
64.588839
20
19.746025
11
64.759750
21
21.078725
0
LINE
8
Layer 1
10
64.759750
20
21.078725
11
64.973008
21
22.460145
0
LINE
8
Layer 1
10
64.973008
20
22.460145
11
65.090579
21
23.161407
0
LINE
8
Layer 1
10
65.090579
20
23.161407
11
65.231275
21
23.212037
0
LINE
8
Layer 1
10
65.231275
20
23.212037
11
65.402651
21
23.418203
0
LINE
8
Layer 1
10
65.402651
20
23.418203
11
65.631104
21
24.148235
0
LINE
8
Layer 1
10
65.631104
20
24.148235
11
65.717414
21
24.567416
0
LINE
8
Layer 1
10
65.717414
20
24.567416
11
65.637934
21
24.716500
0
LINE
8
Layer 1
10
65.637934
20
24.716500
11
65.519923
21
24.910962
0
LINE
8
Layer 1
10
65.519923
20
24.910962
11
65.619174
21
25.154867
0
LINE
8
Layer 1
10
65.619174
20
25.154867
11
65.881734
21
25.203198
0
LINE
8
Layer 1
10
65.881734
20
25.203198
11
66.026139
21
25.165115
0
LINE
8
Layer 1
10
66.026139
20
25.165115
11
66.089548
21
25.338315
0
LINE
8
Layer 1
10
66.089548
20
25.338315
11
66.243057
21
25.602658
0
LINE
8
Layer 1
10
66.243057
20
25.602658
11
66.683563
21
25.561016
0
LINE
8
Layer 1
10
66.683563
20
25.561016
11
67.057888
21
25.306903
0
LINE
8
Layer 1
10
67.057888
20
25.306903
11
67.019156
21
24.983858
0
LINE
8
Layer 1
10
67.019156
20
24.983858
11
66.987934
21
24.834746
0
LINE
8
Layer 1
10
66.987934
20
24.834746
11
67.128796
21
24.696886
0
LINE
8
Layer 1
10
67.128796
20
24.696886
11
67.621767
21
24.319634
0
LINE
8
Layer 1
10
67.621767
20
24.319634
11
68.057820
21
24.076951
0
LINE
8
Layer 1
10
68.057820
20
24.076951
11
68.237435
21
23.958838
0
LINE
8
Layer 1
10
68.237435
20
23.958838
11
68.282760
21
23.701652
0
LINE
8
Layer 1
10
68.282760
20
23.701652
11
68.114750
21
23.370950
0
LINE
8
Layer 1
10
68.114750
20
23.370950
11
67.946738
21
23.179318
0
LINE
8
Layer 1
10
67.946738
20
23.179318
11
67.364994
21
23.512964
0
LINE
8
Layer 1
10
67.364994
20
23.512964
11
66.851159
21
23.781628
0
LINE
8
Layer 1
10
66.851159
20
23.781628
11
66.722442
21
23.681764
0
LINE
8
Layer 1
10
66.722442
20
23.681764
11
66.529202
21
23.106226
0
LINE
8
Layer 1
10
66.529202
20
23.106226
11
66.363769
21
22.609284
0
LINE
8
Layer 1
10
66.363769
20
22.609284
11
66.578721
21
22.470182
0
LINE
8
Layer 1
10
66.578721
20
22.470182
11
67.240958
21
22.136782
0
LINE
8
Layer 1
10
67.240958
20
22.136782
11
67.892118
21
21.733746
0
LINE
8
Layer 1
10
67.892118
20
21.733746
11
68.213371
21
21.453587
0
LINE
8
Layer 1
10
68.213371
20
21.453587
11
68.142375
21
21.140544
0
LINE
8
Layer 1
10
68.142375
20
21.140544
11
67.986998
21
20.985167
0
LINE
8
Layer 1
10
67.986998
20
20.985167
11
67.444169
21
21.240118
0
LINE
8
Layer 1
10
67.444169
20
21.240118
11
66.714667
21
21.656601
0
LINE
8
Layer 1
10
66.714667
20
21.656601
11
66.341310
21
21.858779
0
LINE
8
Layer 1
10
66.341310
20
21.858779
11
65.996381
21
21.948949
0
LINE
8
Layer 1
10
65.996381
20
21.948949
11
65.856064
21
21.927803
0
LINE
8
Layer 1
10
65.856064
20
21.927803
11
65.793500
21
21.600289
0
LINE
8
Layer 1
10
65.793500
20
21.600289
11
65.699571
21
20.810084
0
LINE
8
Layer 1
10
65.699571
20
20.810084
11
65.682591
21
20.468114
0
LINE
8
Layer 1
10
65.682591
20
20.468114
11
65.854113
21
20.418061
0
LINE
8
Layer 1
10
65.854113
20
20.418061
11
66.687929
21
20.122845
0
LINE
8
Layer 1
10
66.687929
20
20.122845
11
67.421929
21
19.867547
0
LINE
8
Layer 1
10
67.421929
20
19.867547
11
67.643301
21
19.680544
0
LINE
8
Layer 1
10
67.643301
20
19.680544
11
67.722540
21
19.447742
0
LINE
8
Layer 1
10
67.722540
20
19.447742
11
67.634524
21
19.189128
0
LINE
8
Layer 1
10
67.634524
20
19.189128
11
67.391551
21
18.930257
0
LINE
8
Layer 1
10
67.391551
20
18.930257
11
67.391648
21
18.930329
0
LINE
8
Layer 1
10
65.970108
20
26.627029
11
65.724310
21
26.669427
0
LINE
8
Layer 1
10
65.724310
20
26.669427
11
65.369303
21
26.991908
0
LINE
8
Layer 1
10
65.369303
20
26.991908
11
65.116647
21
27.729238
0
LINE
8
Layer 1
10
65.116647
20
27.729238
11
65.077226
21
28.608975
0
LINE
8
Layer 1
10
65.077226
20
28.608975
11
65.216037
21
29.546602
0
LINE
8
Layer 1
10
65.216037
20
29.546602
11
65.375614
21
30.367986
0
LINE
8
Layer 1
10
65.375614
20
30.367986
11
65.558982
21
30.875049
0
LINE
8
Layer 1
10
65.558982
20
30.875049
11
65.612106
21
31.035842
0
LINE
8
Layer 1
10
65.612106
20
31.035842
11
65.416327
21
31.036584
0
LINE
8
Layer 1
10
65.416327
20
31.036584
11
65.079805
21
31.124048
0
LINE
8
Layer 1
10
65.079805
20
31.124048
11
64.943449
21
31.541214
0
LINE
8
Layer 1
10
64.943449
20
31.541214
11
64.846630
21
31.842827
0
LINE
8
Layer 1
10
64.846630
20
31.842827
11
64.751691
21
32.085507
0
LINE
8
Layer 1
10
64.751691
20
32.085507
11
65.162781
21
33.224247
0
LINE
8
Layer 1
10
65.162781
20
33.224247
11
65.808917
21
34.437517
0
LINE
8
Layer 1
10
65.808917
20
34.437517
11
66.138408
21
34.754870
0
LINE
8
Layer 1
10
66.138408
20
34.754870
11
66.311534
21
34.650485
0
LINE
8
Layer 1
10
66.311534
20
34.650485
11
66.241362
21
34.183789
0
LINE
8
Layer 1
10
66.241362
20
34.183789
11
65.825553
21
33.166889
0
LINE
8
Layer 1
10
65.825553
20
33.166889
11
65.520028
21
32.145639
0
LINE
8
Layer 1
10
65.520028
20
32.145639
11
65.650702
21
31.750841
0
LINE
8
Layer 1
10
65.650702
20
31.750841
11
66.211034
21
31.864328
0
LINE
8
Layer 1
10
66.211034
20
31.864328
11
66.865786
21
32.279149
0
LINE
8
Layer 1
10
66.865786
20
32.279149
11
67.390377
21
33.127861
0
LINE
8
Layer 1
10
67.390377
20
33.127861
11
67.756334
21
33.744584
0
LINE
8
Layer 1
10
67.756334
20
33.744584
11
67.940887
21
33.667563
0
LINE
8
Layer 1
10
67.940887
20
33.667563
11
68.025026
21
33.386859
0
LINE
8
Layer 1
10
68.025026
20
33.386859
11
67.875615
21
32.686813
0
LINE
8
Layer 1
10
67.875615
20
32.686813
11
67.760164
21
32.070773
0
LINE
8
Layer 1
10
67.760164
20
32.070773
11
69.085574
21
31.990963
0
LINE
8
Layer 1
10
69.085574
20
31.990963
11
71.180304
21
31.853685
0
LINE
8
Layer 1
10
71.180304
20
31.853685
11
72.068781
21
31.598458
0
LINE
8
Layer 1
10
72.068781
20
31.598458
11
72.093108
21
31.250371
0
LINE
8
Layer 1
10
72.093108
20
31.250371
11
71.937079
21
31.021449
0
LINE
8
Layer 1
10
71.937079
20
31.021449
11
71.826581
21
31.101211
0
LINE
8
Layer 1
10
71.826581
20
31.101211
11
71.665762
21
31.138179
0
LINE
8
Layer 1
10
71.665762
20
31.138179
11
71.215796
21
31.245096
0
LINE
8
Layer 1
10
71.215796
20
31.245096
11
70.693199
21
31.369817
0
LINE
8
Layer 1
10
70.693199
20
31.369817
11
69.435616
21
31.394806
0
LINE
8
Layer 1
10
69.435616
20
31.394806
11
67.809356
21
31.324648
0
LINE
8
Layer 1
10
67.809356
20
31.324648
11
67.636694
21
31.166828
0
LINE
8
Layer 1
10
67.636694
20
31.166828
11
67.503190
21
30.719691
0
LINE
8
Layer 1
10
67.503190
20
30.719691
11
67.305287
21
29.576441
0
LINE
8
Layer 1
10
67.305287
20
29.576441
11
67.001921
21
28.241721
0
LINE
8
Layer 1
10
67.001921
20
28.241721
11
66.550208
21
27.176361
0
LINE
8
Layer 1
10
66.550208
20
27.176361
11
66.167540
21
26.726556
0
LINE
8
Layer 1
10
66.167540
20
26.726556
11
65.970089
21
26.627033
0
LINE
8
Layer 1
10
65.970089
20
26.627033
11
65.970108
21
26.627029
0
LINE
8
Layer 1
10
65.828870
20
27.213210
11
66.044869
21
27.455893
0
LINE
8
Layer 1
10
66.044869
20
27.455893
11
66.339410
21
28.183935
0
LINE
8
Layer 1
10
66.339410
20
28.183935
11
66.711074
21
29.789375
0
LINE
8
Layer 1
10
66.711074
20
29.789375
11
66.938133
21
31.114785
0
LINE
8
Layer 1
10
66.938133
20
31.114785
11
66.889340
21
31.320130
0
LINE
8
Layer 1
10
66.889340
20
31.320130
11
66.515503
21
31.130025
0
LINE
8
Layer 1
10
66.515503
20
31.130025
11
66.011105
21
30.584693
0
LINE
8
Layer 1
10
66.011105
20
30.584693
11
65.707163
21
29.337383
0
LINE
8
Layer 1
10
65.707163
20
29.337383
11
65.579156
21
28.055073
0
LINE
8
Layer 1
10
65.579156
20
28.055073
11
65.668626
21
27.439036
0
LINE
8
Layer 1
10
65.668626
20
27.439036
11
65.828872
21
27.213219
0
LINE
8
Layer 1
10
65.828872
20
27.213219
11
65.828870
21
27.213210
0
LINE
8
Layer 1
10
61.376210
20
27.511894
11
61.161487
21
27.679906
0
LINE
8
Layer 1
10
61.161487
20
27.679906
11
61.115443
21
28.575961
0
LINE
8
Layer 1
10
61.115443
20
28.575961
11
61.066610
21
29.304005
0
LINE
8
Layer 1
10
61.066610
20
29.304005
11
60.467772
21
28.743971
0
LINE
8
Layer 1
10
60.467772
20
28.743971
11
59.731539
21
28.183935
0
LINE
8
Layer 1
10
59.731539
20
28.183935
11
59.396985
21
28.333278
0
LINE
8
Layer 1
10
59.396985
20
28.333278
11
59.247642
21
28.553414
0
LINE
8
Layer 1
10
59.247642
20
28.553414
11
59.609346
21
29.057447
0
LINE
8
Layer 1
10
59.609346
20
29.057447
11
60.503953
21
29.992031
0
LINE
8
Layer 1
10
60.503953
20
29.992031
11
61.036859
21
30.493376
0
LINE
8
Layer 1
10
61.036859
20
30.493376
11
61.111298
21
31.373449
0
LINE
8
Layer 1
10
61.111298
20
31.373449
11
61.193179
21
32.328192
0
LINE
8
Layer 1
10
61.193179
20
32.328192
11
61.192050
21
32.776219
0
LINE
8
Layer 1
10
61.192050
20
32.776219
11
61.217139
21
33.634939
0
LINE
8
Layer 1
10
61.217139
20
33.634939
11
61.299404
21
34.312359
0
LINE
8
Layer 1
10
61.299404
20
34.312359
11
61.578824
21
34.640775
0
LINE
8
Layer 1
10
61.578824
20
34.640775
11
61.789909
21
34.738584
0
LINE
8
Layer 1
10
61.789909
20
34.738584
11
61.904311
21
34.647690
0
LINE
8
Layer 1
10
61.904311
20
34.647690
11
62.060741
21
33.945917
0
LINE
8
Layer 1
10
62.060741
20
33.945917
11
62.110260
21
32.608217
0
LINE
8
Layer 1
10
62.110260
20
32.608217
11
62.149283
21
31.842837
0
LINE
8
Layer 1
10
62.149283
20
31.842837
11
62.342729
21
32.106825
0
LINE
8
Layer 1
10
62.342729
20
32.106825
11
62.825018
21
32.684325
0
LINE
8
Layer 1
10
62.825018
20
32.684325
11
63.173822
21
33.073712
0
LINE
8
Layer 1
10
63.173822
20
33.073712
11
63.193888
21
33.241199
0
LINE
8
Layer 1
10
63.193888
20
33.241199
11
63.386933
21
33.451852
0
LINE
8
Layer 1
10
63.386933
20
33.451852
11
63.712713
21
33.493764
0
LINE
8
Layer 1
10
63.712713
20
33.493764
11
63.951620
21
33.187770
0
LINE
8
Layer 1
10
63.951620
20
33.187770
11
63.993076
21
32.932033
0
LINE
8
Layer 1
10
63.993076
20
32.932033
11
63.793852
21
32.555073
0
LINE
8
Layer 1
10
63.793852
20
32.555073
11
62.869242
21
31.355543
0
LINE
8
Layer 1
10
62.869242
20
31.355543
11
62.087792
21
30.361289
0
LINE
8
Layer 1
10
62.087792
20
30.361289
11
61.930476
21
28.973609
0
LINE
8
Layer 1
10
61.930476
20
28.973609
11
61.864668
21
27.940981
0
LINE
8
Layer 1
10
61.864668
20
27.940981
11
61.714257
21
27.648189
0
LINE
8
Layer 1
10
61.714257
20
27.648189
11
61.376254
21
27.511901
0
LINE
8
Layer 1
10
61.376254
20
27.511901
11
61.376210
21
27.511894
0
LINE
8
Layer 1
10
57.833730
20
27.965543
11
57.118630
21
28.178446
0
LINE
8
Layer 1
10
57.118630
20
28.178446
11
56.282288
21
28.508843
0
LINE
8
Layer 1
10
56.282288
20
28.508843
11
55.965821
21
28.631962
0
LINE
8
Layer 1
10
55.965821
20
28.631962
11
55.887440
21
28.404223
0
LINE
8
Layer 1
10
55.887440
20
28.404223
11
55.887400
21
28.176500
0
LINE
8
Layer 1
10
55.887400
20
28.176500
11
55.458042
21
28.198880
0
LINE
8
Layer 1
10
55.458042
20
28.198880
11
55.028684
21
28.221289
0
LINE
8
Layer 1
10
55.028684
20
28.221289
11
55.030942
21
28.781322
0
LINE
8
Layer 1
10
55.030942
20
28.781322
11
55.201850
21
30.114032
0
LINE
8
Layer 1
10
55.201850
20
30.114032
11
55.415111
21
31.495452
0
LINE
8
Layer 1
10
55.415111
20
31.495452
11
55.532679
21
32.196714
0
LINE
8
Layer 1
10
55.532679
20
32.196714
11
55.673378
21
32.247344
0
LINE
8
Layer 1
10
55.673378
20
32.247344
11
55.844752
21
32.453513
0
LINE
8
Layer 1
10
55.844752
20
32.453513
11
56.073205
21
33.183542
0
LINE
8
Layer 1
10
56.073205
20
33.183542
11
56.159515
21
33.602725
0
LINE
8
Layer 1
10
56.159515
20
33.602725
11
56.080035
21
33.751807
0
LINE
8
Layer 1
10
56.080035
20
33.751807
11
55.962027
21
33.946269
0
LINE
8
Layer 1
10
55.962027
20
33.946269
11
56.061278
21
34.190174
0
LINE
8
Layer 1
10
56.061278
20
34.190174
11
56.323838
21
34.238508
0
LINE
8
Layer 1
10
56.323838
20
34.238508
11
56.468242
21
34.200423
0
LINE
8
Layer 1
10
56.468242
20
34.200423
11
56.531652
21
34.373622
0
LINE
8
Layer 1
10
56.531652
20
34.373622
11
56.685161
21
34.637968
0
LINE
8
Layer 1
10
56.685161
20
34.637968
11
57.125667
21
34.596326
0
LINE
8
Layer 1
10
57.125667
20
34.596326
11
57.499992
21
34.342210
0
LINE
8
Layer 1
10
57.499992
20
34.342210
11
57.461257
21
34.019165
0
LINE
8
Layer 1
10
57.461257
20
34.019165
11
57.430038
21
33.870054
0
LINE
8
Layer 1
10
57.430038
20
33.870054
11
57.570900
21
33.732193
0
LINE
8
Layer 1
10
57.570900
20
33.732193
11
58.063871
21
33.354941
0
LINE
8
Layer 1
10
58.063871
20
33.354941
11
58.499924
21
33.112258
0
LINE
8
Layer 1
10
58.499924
20
33.112258
11
58.679536
21
32.994145
0
LINE
8
Layer 1
10
58.679536
20
32.994145
11
58.724864
21
32.736959
0
LINE
8
Layer 1
10
58.724864
20
32.736959
11
58.556852
21
32.406257
0
LINE
8
Layer 1
10
58.556852
20
32.406257
11
58.388842
21
32.214625
0
LINE
8
Layer 1
10
58.388842
20
32.214625
11
57.807098
21
32.548271
0
LINE
8
Layer 1
10
57.807098
20
32.548271
11
57.293263
21
32.816935
0
LINE
8
Layer 1
10
57.293263
20
32.816935
11
57.164546
21
32.717071
0
LINE
8
Layer 1
10
57.164546
20
32.717071
11
56.971303
21
32.141533
0
LINE
8
Layer 1
10
56.971303
20
32.141533
11
56.805873
21
31.644594
0
LINE
8
Layer 1
10
56.805873
20
31.644594
11
57.020825
21
31.505490
0
LINE
8
Layer 1
10
57.020825
20
31.505490
11
57.683062
21
31.172093
0
LINE
8
Layer 1
10
57.683062
20
31.172093
11
58.334222
21
30.769055
0
LINE
8
Layer 1
10
58.334222
20
30.769055
11
58.655475
21
30.488896
0
LINE
8
Layer 1
10
58.655475
20
30.488896
11
58.584476
21
30.175853
0
LINE
8
Layer 1
10
58.584476
20
30.175853
11
58.429099
21
30.020476
0
LINE
8
Layer 1
10
58.429099
20
30.020476
11
57.886273
21
30.275427
0
LINE
8
Layer 1
10
57.886273
20
30.275427
11
57.156766
21
30.691910
0
LINE
8
Layer 1
10
57.156766
20
30.691910
11
56.783412
21
30.894091
0
LINE
8
Layer 1
10
56.783412
20
30.894091
11
56.438480
21
30.984260
0
LINE
8
Layer 1
10
56.438480
20
30.984260
11
56.298163
21
30.963103
0
LINE
8
Layer 1
10
56.298163
20
30.963103
11
56.235599
21
30.635600
0
LINE
8
Layer 1
10
56.235599
20
30.635600
11
56.141673
21
29.845394
0
LINE
8
Layer 1
10
56.141673
20
29.845394
11
56.124692
21
29.503424
0
LINE
8
Layer 1
10
56.124692
20
29.503424
11
56.296212
21
29.453370
0
LINE
8
Layer 1
10
56.296212
20
29.453370
11
57.130028
21
29.158154
0
LINE
8
Layer 1
10
57.130028
20
29.158154
11
57.864031
21
28.902856
0
LINE
8
Layer 1
10
57.864031
20
28.902856
11
58.085400
21
28.715852
0
LINE
8
Layer 1
10
58.085400
20
28.715852
11
58.164639
21
28.483051
0
LINE
8
Layer 1
10
58.164639
20
28.483051
11
58.076623
21
28.224439
0
LINE
8
Layer 1
10
58.076623
20
28.224439
11
57.833652
21
27.965565
0
LINE
8
Layer 1
10
57.833652
20
27.965565
11
57.833730
21
27.965543
0
LINE
8
Layer 1
10
52.948160
20
28.491404
11
52.377897
21
28.558429
0
LINE
8
Layer 1
10
52.377897
20
28.558429
11
51.646163
21
28.774027
0
LINE
8
Layer 1
10
51.646163
20
28.774027
11
50.936784
21
29.088872
0
LINE
8
Layer 1
10
50.936784
20
29.088872
11
50.231099
21
29.545617
0
LINE
8
Layer 1
10
50.231099
20
29.545617
11
49.839073
21
30.016372
0
LINE
8
Layer 1
10
49.839073
20
30.016372
11
50.081756
21
30.337100
0
LINE
8
Layer 1
10
50.081756
20
30.337100
11
50.548452
21
30.445998
0
LINE
8
Layer 1
10
50.548452
20
30.445998
11
50.996479
21
30.194902
0
LINE
8
Layer 1
10
50.996479
20
30.194902
11
51.658126
21
29.784148
0
LINE
8
Layer 1
10
51.658126
20
29.784148
11
52.554184
21
29.547643
0
LINE
8
Layer 1
10
52.554184
20
29.547643
11
52.955659
21
29.544636
0
LINE
8
Layer 1
10
52.955659
20
29.544636
11
53.150011
21
29.663566
0
LINE
8
Layer 1
10
53.150011
20
29.663566
11
53.230436
21
29.824149
0
LINE
8
Layer 1
10
53.230436
20
29.824149
11
52.991543
21
30.030342
0
LINE
8
Layer 1
10
52.991543
20
30.030342
11
52.237965
21
30.426472
0
LINE
8
Layer 1
10
52.237965
20
30.426472
11
51.815770
21
30.647518
0
LINE
8
Layer 1
10
51.815770
20
30.647518
11
51.598331
21
31.094875
0
LINE
8
Layer 1
10
51.598331
20
31.094875
11
51.480819
21
31.966309
0
LINE
8
Layer 1
10
51.480819
20
31.966309
11
51.660199
21
32.573453
0
LINE
8
Layer 1
10
51.660199
20
32.573453
11
51.999960
21
32.984921
0
LINE
8
Layer 1
10
51.999960
20
32.984921
11
52.469335
21
33.250839
0
LINE
8
Layer 1
10
52.469335
20
33.250839
11
53.385955
21
33.447409
0
LINE
8
Layer 1
10
53.385955
20
33.447409
11
54.177489
21
33.602561
0
LINE
8
Layer 1
10
54.177489
20
33.602561
11
54.494842
21
33.352388
0
LINE
8
Layer 1
10
54.494842
20
33.352388
11
54.692702
21
32.867460
0
LINE
8
Layer 1
10
54.692702
20
32.867460
11
54.487357
21
32.562643
0
LINE
8
Layer 1
10
54.487357
20
32.562643
11
53.871317
21
32.378888
0
LINE
8
Layer 1
10
53.871317
20
32.378888
11
53.044943
21
32.254696
0
LINE
8
Layer 1
10
53.044943
20
32.254696
11
52.679028
21
32.178676
0
LINE
8
Layer 1
10
52.679028
20
32.178676
11
52.540911
21
31.964535
0
LINE
8
Layer 1
10
52.540911
20
31.964535
11
52.452564
21
31.561307
0
LINE
8
Layer 1
10
52.452564
20
31.561307
11
52.695247
21
31.220736
0
LINE
8
Layer 1
10
52.695247
20
31.220736
11
53.178182
21
30.917587
0
LINE
8
Layer 1
10
53.178182
20
30.917587
11
53.700880
21
30.739240
0
LINE
8
Layer 1
10
53.700880
20
30.739240
11
53.959707
21
30.633169
0
LINE
8
Layer 1
10
53.959707
20
30.633169
11
54.138584
21
30.360523
0
LINE
8
Layer 1
10
54.138584
20
30.360523
11
54.243060
21
29.704063
0
LINE
8
Layer 1
10
54.243060
20
29.704063
11
54.045093
21
29.168719
0
LINE
8
Layer 1
10
54.045093
20
29.168719
11
53.540153
21
28.725299
0
LINE
8
Layer 1
10
53.540153
20
28.725299
11
52.948158
21
28.491402
0
LINE
8
Layer 1
10
52.948158
20
28.491402
11
52.948160
21
28.491404
0
LINE
8
Graphic
10
14.488500
20
16.402300
11
14.373336
21
16.395817
0
LINE
8
Graphic
10
14.373336
20
16.395817
11
14.193945
21
16.348168
0
LINE
8
Graphic
10
14.193945
20
16.348168
11
14.135460
21
16.178085
0
LINE
8
Graphic
10
14.135460
20
16.178085
11
14.121245
21
16.040324
0
LINE
8
Graphic
10
14.121245
20
16.040324
11
13.907865
21
15.849820
0
LINE
8
Graphic
10
13.907865
20
15.849820
11
13.600067
21
15.595645
0
LINE
8
Graphic
10
13.600067
20
15.595645
11
13.444061
21
15.531974
0
LINE
8
Graphic
10
13.444061
20
15.531974
11
13.164834
21
15.424636
0
LINE
8
Graphic
10
13.164834
20
15.424636
11
12.823742
21
15.293867
0
LINE
8
Graphic
10
12.823742
20
15.293867
11
12.428935
21
15.152726
0
LINE
8
Graphic
10
12.428935
20
15.152726
11
12.157580
21
15.035015
0
LINE
8
Graphic
10
12.157580
20
15.035015
11
11.947072
21
15.105586
0
LINE
8
Graphic
10
11.947072
20
15.105586
11
11.643812
21
15.190928
0
LINE
8
Graphic
10
11.643812
20
15.190928
11
11.496373
21
15.192029
0
LINE
8
Graphic
10
11.496373
20
15.192029
11
11.399453
21
15.106826
0
LINE
8
Graphic
10
11.399453
20
15.106826
11
11.334439
21
14.839129
0
LINE
8
Graphic
10
11.334439
20
14.839129
11
11.337403
21
14.464233
0
LINE
8
Graphic
10
11.337403
20
14.464233
11
11.407186
21
14.227145
0
LINE
8
Graphic
10
11.407186
20
14.227145
11
11.553422
21
14.170883
0
LINE
8
Graphic
10
11.553422
20
14.170883
11
11.735684
21
14.214596
0
LINE
8
Graphic
10
11.735684
20
14.214596
11
11.815887
21
14.256133
0
LINE
8
Graphic
10
11.815887
20
14.256133
11
11.799959
21
14.192646
0
LINE
8
Graphic
10
11.799959
20
14.192646
11
11.798604
21
14.083178
0
LINE
8
Graphic
10
11.798604
20
14.083178
11
11.944423
21
13.970931
0
LINE
8
Graphic
10
11.944423
20
13.970931
11
12.222631
21
13.775843
0
LINE
8
Graphic
10
12.222631
20
13.775843
11
12.469629
21
13.525094
0
LINE
8
Graphic
10
12.469629
20
13.525094
11
12.641379
21
13.259574
0
LINE
8
Graphic
10
12.641379
20
13.259574
11
12.731722
21
12.998221
0
LINE
8
Graphic
10
12.731722
20
12.998221
11
12.739365
21
12.805402
0
LINE
8
Graphic
10
12.739365
20
12.805402
11
12.694864
21
12.717698
0
LINE
8
Graphic
10
12.694864
20
12.717698
11
12.538164
21
12.768727
0
LINE
8
Graphic
10
12.538164
20
12.768727
11
12.242174
21
12.965019
0
LINE
8
Graphic
10
12.242174
20
12.965019
11
11.933589
21
13.215258
0
LINE
8
Graphic
10
11.933589
20
13.215258
11
11.608149
21
13.511016
0
LINE
8
Graphic
10
11.608149
20
13.511016
11
10.941894
21
14.159906
0
LINE
8
Graphic
10
10.941894
20
14.159906
11
10.393581
21
14.631026
0
LINE
8
Graphic
10
10.393581
20
14.631026
11
10.296430
21
14.600418
0
LINE
8
Graphic
10
10.296430
20
14.600418
11
10.275777
21
14.357402
0
LINE
8
Graphic
10
10.275777
20
14.357402
11
10.354637
21
14.026451
0
LINE
8
Graphic
10
10.354637
20
14.026451
11
10.618444
21
13.682673
0
LINE
8
Graphic
10
10.618444
20
13.682673
11
11.076737
21
13.187427
0
LINE
8
Graphic
10
11.076737
20
13.187427
11
11.607130
21
12.723067
0
LINE
8
Graphic
10
11.607130
20
12.723067
11
11.987351
21
12.424067
0
LINE
8
Graphic
10
11.987351
20
12.424067
11
12.245786
21
12.189016
0
LINE
8
Graphic
10
12.245786
20
12.189016
11
12.518577
21
11.927663
0
LINE
8
Graphic
10
12.518577
20
11.927663
11
12.767149
21
11.667422
0
LINE
8
Graphic
10
12.767149
20
11.667422
11
12.937927
21
11.454598
0
LINE
8
Graphic
10
12.937927
20
11.454598
11
13.115141
21
11.027283
0
LINE
8
Graphic
10
13.115141
20
11.027283
11
13.233732
21
10.624233
0
LINE
8
Graphic
10
13.233732
20
10.624233
11
13.228082
21
10.351582
0
LINE
8
Graphic
10
13.228082
20
10.351582
11
13.263924
21
10.036746
0
LINE
8
Graphic
10
13.263924
20
10.036746
11
13.301709
21
9.935242
0
LINE
8
Graphic
10
13.301709
20
9.935242
11
13.178025
21
9.951173
0
LINE
8
Graphic
10
13.178025
20
9.951173
11
12.811001
21
10.094167
0
LINE
8
Graphic
10
12.811001
20
10.094167
11
12.484218
21
10.221185
0
LINE
8
Graphic
10
12.484218
20
10.221185
11
12.315755
21
10.256748
0
LINE
8
Graphic
10
12.315755
20
10.256748
11
12.155813
21
10.292312
0
LINE
8
Graphic
10
12.155813
20
10.292312
11
12.022404
21
10.251933
0
LINE
8
Graphic
10
12.022404
20
10.251933
11
11.934052
21
10.174880
0
LINE
8
Graphic
10
11.934052
20
10.174880
11
11.809581
21
9.999193
0
LINE
8
Graphic
10
11.809581
20
9.999193
11
11.714839
21
9.764328
0
LINE
8
Graphic
10
11.714839
20
9.764328
11
11.806895
21
9.580956
0
LINE
8
Graphic
10
11.806895
20
9.580956
11
12.011847
21
9.430275
0
LINE
8
Graphic
10
12.011847
20
9.430275
11
12.261021
21
9.331873
0
LINE
8
Graphic
10
12.261021
20
9.331873
11
12.744413
21
9.296542
0
LINE
8
Graphic
10
12.744413
20
9.296542
11
13.232944
21
9.248892
0
LINE
8
Graphic
10
13.232944
20
9.248892
11
13.522590
21
9.111362
0
LINE
8
Graphic
10
13.522590
20
9.111362
11
13.753797
21
8.984112
0
LINE
8
Graphic
10
13.753797
20
8.984112
11
13.872341
21
8.933823
0
LINE
8
Graphic
10
13.872341
20
8.933823
11
13.969400
21
8.919052
0
LINE
8
Graphic
10
13.969400
20
8.919052
11
14.168286
21
8.964478
0
LINE
8
Graphic
10
14.168286
20
8.964478
11
14.508313
21
9.049728
0
LINE
8
Graphic
10
14.508313
20
9.049728
11
14.771703
21
9.110759
0
LINE
8
Graphic
10
14.771703
20
9.110759
11
14.875846
21
9.173088
0
LINE
8
Graphic
10
14.875846
20
9.173088
11
15.006291
21
9.216894
0
LINE
8
Graphic
10
15.006291
20
9.216894
11
15.342290
21
9.238289
0
LINE
8
Graphic
10
15.342290
20
9.238289
11
15.656062
21
9.288115
0
LINE
8
Graphic
10
15.656062
20
9.288115
11
15.759140
21
9.395129
0
LINE
8
Graphic
10
15.759140
20
9.395129
11
15.789192
21
9.756318
0
LINE
8
Graphic
10
15.789192
20
9.756318
11
15.690374
21
10.207203
0
LINE
8
Graphic
10
15.690374
20
10.207203
11
15.429994
21
10.610253
0
LINE
8
Graphic
10
15.429994
20
10.610253
11
15.230089
21
10.880820
0
LINE
8
Graphic
10
15.230089
20
10.880820
11
15.200036
21
10.920921
0
LINE
8
Graphic
10
15.200036
20
10.920921
11
15.251159
21
11.016359
0
LINE
8
Graphic
10
15.251159
20
11.016359
11
15.323628
21
11.272618
0
LINE
8
Graphic
10
15.323628
20
11.272618
11
15.347939
21
11.513318
0
LINE
8
Graphic
10
15.347939
20
11.513318
11
15.307559
21
11.692570
0
LINE
8
Graphic
10
15.307559
20
11.692570
11
15.264295
21
11.800698
0
LINE
8
Graphic
10
15.264295
20
11.800698
11
15.441602
21
12.036351
0
LINE
8
Graphic
10
15.441602
20
12.036351
11
15.832195
21
12.580218
0
LINE
8
Graphic
10
15.832195
20
12.580218
11
16.182595
21
13.089958
0
LINE
8
Graphic
10
16.182595
20
13.089958
11
16.441539
21
13.406091
0
LINE
8
Graphic
10
16.441539
20
13.406091
11
16.700993
21
13.641976
0
LINE
8
Graphic
10
16.700993
20
13.641976
11
16.823798
21
13.823774
0
LINE
8
Graphic
10
16.823798
20
13.823774
11
16.745354
21
13.951302
0
LINE
8
Graphic
10
16.745354
20
13.951302
11
16.522436
21
14.136852
0
LINE
8
Graphic
10
16.522436
20
14.136852
11
16.315030
21
14.240068
0
LINE
8
Graphic
10
16.315030
20
14.240068
11
16.253953
21
14.161208
0
LINE
8
Graphic
10
16.253953
20
14.161208
11
16.213157
21
14.002748
0
LINE
8
Graphic
10
16.213157
20
14.002748
11
16.071367
21
13.786359
0
LINE
8
Graphic
10
16.071367
20
13.786359
11
15.916519
21
13.544872
0
LINE
8
Graphic
10
15.916519
20
13.544872
11
15.472674
21
12.843424
0
LINE
8
Graphic
10
15.472674
20
12.843424
11
15.057769
21
12.261910
0
LINE
8
Graphic
10
15.057769
20
12.261910
11
14.895882
21
12.492191
0
LINE
8
Graphic
10
14.895882
20
12.492191
11
14.745850
21
12.722473
0
LINE
8
Graphic
10
14.745850
20
12.722473
11
14.760065
21
12.923998
0
LINE
8
Graphic
10
14.760065
20
12.923998
11
14.807159
21
13.255922
0
LINE
8
Graphic
10
14.807159
20
13.255922
11
14.872127
21
13.475090
0
LINE
8
Graphic
10
14.872127
20
13.475090
11
15.202986
21
13.937412
0
LINE
8
Graphic
10
15.202986
20
13.937412
11
15.604925
21
14.463544
0
LINE
8
Graphic
10
15.604925
20
14.463544
11
15.717681
21
14.766387
0
LINE
8
Graphic
10
15.717681
20
14.766387
11
15.675589
21
15.076130
0
LINE
8
Graphic
10
15.675589
20
15.076130
11
15.559175
21
15.330444
0
LINE
8
Graphic
10
15.559175
20
15.330444
11
15.434148
21
15.432411
0
LINE
8
Graphic
10
15.434148
20
15.432411
11
15.341488
21
15.400598
0
LINE
8
Graphic
10
15.341488
20
15.400598
11
15.295877
21
15.061497
0
LINE
8
Graphic
10
15.295877
20
15.061497
11
15.282632
21
14.761340
0
LINE
8
Graphic
10
15.282632
20
14.761340
11
15.098889
21
14.530504
0
LINE
8
Graphic
10
15.098889
20
14.530504
11
14.801093
21
14.186818
0
LINE
8
Graphic
10
14.801093
20
14.186818
11
14.604013
21
13.955333
0
LINE
8
Graphic
10
14.604013
20
13.955333
11
14.424623
21
13.670827
0
LINE
8
Graphic
10
14.424623
20
13.670827
11
14.268663
21
13.398175
0
LINE
8
Graphic
10
14.268663
20
13.398175
11
14.175263
21
13.284632
0
LINE
8
Graphic
10
14.175263
20
13.284632
11
14.030602
21
13.325289
0
LINE
8
Graphic
10
14.030602
20
13.325289
11
13.919745
21
13.372799
0
LINE
8
Graphic
10
13.919745
20
13.372799
11
13.920761
21
13.498103
0
LINE
8
Graphic
10
13.920761
20
13.498103
11
13.950444
21
13.745981
0
LINE
8
Graphic
10
13.950444
20
13.745981
11
14.216150
21
14.056233
0
LINE
8
Graphic
10
14.216150
20
14.056233
11
14.480096
21
14.277484
0
LINE
8
Graphic
10
14.480096
20
14.277484
11
14.533441
21
14.436593
0
LINE
8
Graphic
10
14.533441
20
14.436593
11
14.559789
21
14.638118
0
LINE
8
Graphic
10
14.559789
20
14.638118
11
14.534646
21
14.804080
0
LINE
8
Graphic
10
14.534646
20
14.804080
11
14.452823
21
14.920031
0
LINE
8
Graphic
10
14.452823
20
14.920031
11
14.396005
21
14.945917
0
LINE
8
Graphic
10
14.396005
20
14.945917
11
14.453656
21
14.991251
0
LINE
8
Graphic
10
14.453656
20
14.991251
11
14.505983
21
15.327064
0
LINE
8
Graphic
10
14.505983
20
15.327064
11
14.569468
21
15.699228
0
LINE
8
Graphic
10
14.569468
20
15.699228
11
14.705794
21
15.923165
0
LINE
8
Graphic
10
14.705794
20
15.923165
11
14.787756
21
16.142333
0
LINE
8
Graphic
10
14.787756
20
16.142333
11
14.788034
21
16.275649
0
LINE
8
Graphic
10
14.788034
20
16.275649
11
14.708341
21
16.356870
0
LINE
8
Graphic
10
14.708341
20
16.356870
11
14.575674
21
16.396369
0
LINE
8
Graphic
10
14.575674
20
16.396369
11
14.488525
21
16.402299
0
LINE
8
Graphic
10
14.488525
20
16.402299
11
14.488500
21
16.402300
0
LINE
8
Graphic
10
14.323881
20
15.946692
11
14.404222
21
15.930439
0
LINE
8
Graphic
10
14.404222
20
15.930439
11
14.509291
21
15.902330
0
LINE
8
Graphic
10
14.509291
20
15.902330
11
14.443676
21
15.817913
0
LINE
8
Graphic
10
14.443676
20
15.817913
11
14.360648
21
15.686079
0
LINE
8
Graphic
10
14.360648
20
15.686079
11
14.344485
21
15.377864
0
LINE
8
Graphic
10
14.344485
20
15.377864
11
14.345755
21
15.117067
0
LINE
8
Graphic
10
14.345755
20
15.117067
11
14.201048
21
15.034086
0
LINE
8
Graphic
10
14.201048
20
15.034086
11
14.017629
21
14.926933
0
LINE
8
Graphic
10
14.017629
20
14.926933
11
13.880655
21
14.839275
0
LINE
8
Graphic
10
13.880655
20
14.839275
11
13.644910
21
14.663867
0
LINE
8
Graphic
10
13.644910
20
14.663867
11
13.453063
21
14.490727
0
LINE
8
Graphic
10
13.453063
20
14.490727
11
13.371148
21
14.341343
0
LINE
8
Graphic
10
13.371148
20
14.341343
11
13.373744
21
14.216872
0
LINE
8
Graphic
10
13.373744
20
14.216872
11
13.445797
21
14.180568
0
LINE
8
Graphic
10
13.445797
20
14.180568
11
13.790964
21
14.464796
0
LINE
8
Graphic
10
13.790964
20
14.464796
11
14.169147
21
14.763101
0
LINE
8
Graphic
10
14.169147
20
14.763101
11
14.313067
21
14.769304
0
LINE
8
Graphic
10
14.313067
20
14.769304
11
14.389935
21
14.691695
0
LINE
8
Graphic
10
14.389935
20
14.691695
11
14.382112
21
14.516842
0
LINE
8
Graphic
10
14.382112
20
14.516842
11
14.314412
21
14.361346
0
LINE
8
Graphic
10
14.314412
20
14.361346
11
14.168130
21
14.236273
0
LINE
8
Graphic
10
14.168130
20
14.236273
11
13.954149
21
14.067671
0
LINE
8
Graphic
10
13.954149
20
14.067671
11
13.803978
21
13.845957
0
LINE
8
Graphic
10
13.803978
20
13.845957
11
13.760218
21
13.522184
0
LINE
8
Graphic
10
13.760218
20
13.522184
11
13.746974
21
13.326123
0
LINE
8
Graphic
10
13.746974
20
13.326123
11
13.839262
21
13.237678
0
LINE
8
Graphic
10
13.839262
20
13.237678
11
13.986377
21
12.935854
0
LINE
8
Graphic
10
13.986377
20
12.935854
11
14.087140
21
12.565774
0
LINE
8
Graphic
10
14.087140
20
12.565774
11
14.310012
21
12.207224
0
LINE
8
Graphic
10
14.310012
20
12.207224
11
14.486995
21
12.005375
0
LINE
8
Graphic
10
14.486995
20
12.005375
11
14.370952
21
11.933229
0
LINE
8
Graphic
10
14.370952
20
11.933229
11
14.220873
21
11.793893
0
LINE
8
Graphic
10
14.220873
20
11.793893
11
14.157342
21
11.601120
0
LINE
8
Graphic
10
14.157342
20
11.601120
11
14.016432
21
11.361161
0
LINE
8
Graphic
10
14.016432
20
11.361161
11
13.723405
21
11.159451
0
LINE
8
Graphic
10
13.723405
20
11.159451
11
13.448855
21
10.963390
0
LINE
8
Graphic
10
13.448855
20
10.963390
11
13.332673
21
10.899488
0
LINE
8
Graphic
10
13.332673
20
10.899488
11
13.244876
21
11.145837
0
LINE
8
Graphic
10
13.244876
20
11.145837
11
13.122766
21
11.469194
0
LINE
8
Graphic
10
13.122766
20
11.469194
11
12.878871
21
11.801117
0
LINE
8
Graphic
10
12.878871
20
11.801117
11
12.421318
21
12.260152
0
LINE
8
Graphic
10
12.421318
20
12.260152
11
12.080411
21
12.568367
0
LINE
8
Graphic
10
12.080411
20
12.568367
11
11.892400
21
12.723800
0
LINE
8
Graphic
10
11.892400
20
12.723800
11
11.619900
21
12.929100
0
LINE
8
Graphic
10
11.619900
20
12.929100
11
11.177100
21
13.330900
0
LINE
8
Graphic
10
11.177100
20
13.330900
11
10.730400
21
13.810900
0
LINE
8
Graphic
10
10.730400
20
13.810900
11
10.511400
21
14.095400
0
LINE
8
Graphic
10
10.511400
20
14.095400
11
10.446000
21
14.304600
0
LINE
8
Graphic
10
10.446000
20
14.304600
11
10.441880
21
14.416846
0
LINE
8
Graphic
10
10.441880
20
14.416846
11
11.037147
21
13.830470
0
LINE
8
Graphic
10
11.037147
20
13.830470
11
11.845470
21
13.064239
0
LINE
8
Graphic
10
11.845470
20
13.064239
11
12.212633
21
12.770565
0
LINE
8
Graphic
10
12.212633
20
12.770565
11
12.485285
21
12.600945
0
LINE
8
Graphic
10
12.485285
20
12.600945
11
12.690097
21
12.544915
0
LINE
8
Graphic
10
12.690097
20
12.544915
11
12.831424
21
12.589230
0
LINE
8
Graphic
10
12.831424
20
12.589230
11
12.895836
21
12.800016
0
LINE
8
Graphic
10
12.895836
20
12.800016
11
12.878335
21
13.091699
0
LINE
8
Graphic
10
12.878335
20
13.091699
11
12.779332
21
13.359025
0
LINE
8
Graphic
10
12.779332
20
13.359025
11
12.600775
21
13.639271
0
LINE
8
Graphic
10
12.600775
20
13.639271
11
12.330068
21
13.915858
0
LINE
8
Graphic
10
12.330068
20
13.915858
11
12.070938
21
14.099555
0
LINE
8
Graphic
10
12.070938
20
14.099555
11
11.975825
21
14.157345
0
LINE
8
Graphic
10
11.975825
20
14.157345
11
12.081959
21
14.311453
0
LINE
8
Graphic
10
12.081959
20
14.311453
11
12.188649
21
14.501864
0
LINE
8
Graphic
10
12.188649
20
14.501864
11
12.160450
21
14.578917
0
LINE
8
Graphic
10
12.160450
20
14.578917
11
12.100576
21
14.607350
0
LINE
8
Graphic
10
12.100576
20
14.607350
11
11.852791
21
14.476951
0
LINE
8
Graphic
10
11.852791
20
14.476951
11
11.582177
21
14.346552
0
LINE
8
Graphic
10
11.582177
20
14.346552
11
11.512393
21
14.371604
0
LINE
8
Graphic
10
11.512393
20
14.371604
11
11.510926
21
14.452641
0
LINE
8
Graphic
10
11.510926
20
14.452641
11
11.605854
21
14.584892
0
LINE
8
Graphic
10
11.605854
20
14.584892
11
11.857714
21
14.763495
0
LINE
8
Graphic
10
11.857714
20
14.763495
11
12.091005
21
14.853375
0
LINE
8
Graphic
10
12.091005
20
14.853375
11
12.422697
21
14.962519
0
LINE
8
Graphic
10
12.422697
20
14.962519
11
12.702757
21
15.073469
0
LINE
8
Graphic
10
12.702757
20
15.073469
11
12.640799
21
14.980116
0
LINE
8
Graphic
10
12.640799
20
14.980116
11
12.568237
21
14.850134
0
LINE
8
Graphic
10
12.568237
20
14.850134
11
12.600790
21
14.775812
0
LINE
8
Graphic
10
12.600790
20
14.775812
11
12.665990
21
14.762987
0
LINE
8
Graphic
10
12.665990
20
14.762987
11
12.834962
21
14.938858
0
LINE
8
Graphic
10
12.834962
20
14.938858
11
12.972260
21
15.120703
0
LINE
8
Graphic
10
12.972260
20
15.120703
11
13.183833
21
15.244295
0
LINE
8
Graphic
10
13.183833
20
15.244295
11
13.506681
21
15.368720
0
LINE
8
Graphic
10
13.506681
20
15.368720
11
13.739648
21
15.481106
0
LINE
8
Graphic
10
13.739648
20
15.481106
11
14.016374
21
15.712267
0
LINE
8
Graphic
10
14.016374
20
15.712267
11
14.235727
21
15.905318
0
LINE
8
Graphic
10
14.235727
20
15.905318
11
14.323801
21
15.946716
0
LINE
8
Graphic
10
14.323801
20
15.946716
11
14.323881
21
15.946692
0
LINE
8
Graphic
10
15.463431
20
15.164486
11
15.508209
21
15.057796
0
LINE
8
Graphic
10
15.508209
20
15.057796
11
15.554284
21
14.816494
0
LINE
8
Graphic
10
15.554284
20
14.816494
11
15.382164
21
14.449007
0
LINE
8
Graphic
10
15.382164
20
14.449007
11
14.981892
21
13.935979
0
LINE
8
Graphic
10
14.981892
20
13.935979
11
14.706508
21
13.497366
0
LINE
8
Graphic
10
14.706508
20
13.497366
11
14.628668
21
13.196653
0
LINE
8
Graphic
10
14.628668
20
13.196653
11
14.597411
21
12.851532
0
LINE
8
Graphic
10
14.597411
20
12.851532
11
14.595407
21
12.648711
0
LINE
8
Graphic
10
14.595407
20
12.648711
11
14.727704
21
12.448483
0
LINE
8
Graphic
10
14.727704
20
12.448483
11
14.903159
21
12.173886
0
LINE
8
Graphic
10
14.903159
20
12.173886
11
14.893389
21
12.013851
0
LINE
8
Graphic
10
14.893389
20
12.013851
11
14.824624
21
11.927999
0
LINE
8
Graphic
10
14.824624
20
11.927999
11
14.586749
21
12.159160
0
LINE
8
Graphic
10
14.586749
20
12.159160
11
14.311505
21
12.461679
0
LINE
8
Graphic
10
14.311505
20
12.461679
11
14.196526
21
12.783461
0
LINE
8
Graphic
10
14.196526
20
12.783461
11
14.119981
21
13.072736
0
LINE
8
Graphic
10
14.119981
20
13.072736
11
14.187172
21
13.098066
0
LINE
8
Graphic
10
14.187172
20
13.098066
11
14.309143
21
13.140714
0
LINE
8
Graphic
10
14.309143
20
13.140714
11
14.531506
21
13.514360
0
LINE
8
Graphic
10
14.531506
20
13.514360
11
14.903948
21
14.035954
0
LINE
8
Graphic
10
14.903948
20
14.035954
11
15.252681
21
14.443542
0
LINE
8
Graphic
10
15.252681
20
14.443542
11
15.435498
21
14.751757
0
LINE
8
Graphic
10
15.435498
20
14.751757
11
15.461522
21
15.010377
0
LINE
8
Graphic
10
15.461522
20
15.010377
11
15.463431
21
15.164486
0
LINE
8
Graphic
10
11.591851
20
15.026864
11
11.668627
21
15.011401
0
LINE
8
Graphic
10
11.668627
20
15.011401
11
11.808657
21
14.972504
0
LINE
8
Graphic
10
11.808657
20
14.972504
11
11.698911
21
14.869426
0
LINE
8
Graphic
10
11.698911
20
14.869426
11
11.538460
21
14.752039
0
LINE
8
Graphic
10
11.538460
20
14.752039
11
11.497016
21
14.725874
0
LINE
8
Graphic
10
11.497016
20
14.725874
11
11.486599
21
14.799964
0
LINE
8
Graphic
10
11.486599
20
14.799964
11
11.501418
21
14.913970
0
LINE
8
Graphic
10
11.501418
20
14.913970
11
11.532305
21
14.996164
0
LINE
8
Graphic
10
11.532305
20
14.996164
11
11.591855
21
15.026865
0
LINE
8
Graphic
10
11.591855
20
15.026865
11
11.591851
21
15.026864
0
LINE
8
Graphic
10
16.399831
20
14.015764
11
16.511198
21
13.929032
0
LINE
8
Graphic
10
16.511198
20
13.929032
11
16.622518
21
13.827251
0
LINE
8
Graphic
10
16.622518
20
13.827251
11
16.414279
21
13.620216
0
LINE
8
Graphic
10
16.414279
20
13.620216
11
16.063139
21
13.217582
0
LINE
8
Graphic
10
16.063139
20
13.217582
11
15.757795
21
12.769893
0
LINE
8
Graphic
10
15.757795
20
12.769893
11
15.363450
21
12.224590
0
LINE
8
Graphic
10
15.363450
20
12.224590
11
15.084918
21
11.863030
0
LINE
8
Graphic
10
15.084918
20
11.863030
11
15.012449
21
11.809686
0
LINE
8
Graphic
10
15.012449
20
11.809686
11
14.986609
21
11.836172
0
LINE
8
Graphic
10
14.986609
20
11.836172
11
15.112654
21
12.031770
0
LINE
8
Graphic
10
15.112654
20
12.031770
11
15.398457
21
12.437969
0
LINE
8
Graphic
10
15.398457
20
12.437969
11
15.724870
21
12.912145
0
LINE
8
Graphic
10
15.724870
20
12.912145
11
15.984371
21
13.289218
0
LINE
8
Graphic
10
15.984371
20
13.289218
11
16.077214
21
13.485742
0
LINE
8
Graphic
10
16.077214
20
13.485742
11
16.196083
21
13.665827
0
LINE
8
Graphic
10
16.196083
20
13.665827
11
16.357368
21
13.902592
0
LINE
8
Graphic
10
16.357368
20
13.902592
11
16.399831
21
14.015764
0
LINE
8
Graphic
10
14.592731
20
11.840714
11
14.655939
21
11.820896
0
LINE
8
Graphic
10
14.655939
20
11.820896
11
14.748135
21
11.752085
0
LINE
8
Graphic
10
14.748135
20
11.752085
11
15.084875
21
11.549402
0
LINE
8
Graphic
10
15.084875
20
11.549402
11
15.128866
21
11.403630
0
LINE
8
Graphic
10
15.128866
20
11.403630
11
15.053108
21
11.165152
0
LINE
8
Graphic
10
15.053108
20
11.165152
11
14.879274
21
10.860688
0
LINE
8
Graphic
10
14.879274
20
10.860688
11
14.737438
21
10.638788
0
LINE
8
Graphic
10
14.737438
20
10.638788
11
14.724148
21
10.426057
0
LINE
8
Graphic
10
14.724148
20
10.426057
11
14.766472
21
10.211288
0
LINE
8
Graphic
10
14.766472
20
10.211288
11
14.751653
21
10.005642
0
LINE
8
Graphic
10
14.751653
20
10.005642
11
14.600926
21
9.804627
0
LINE
8
Graphic
10
14.600926
20
9.804627
11
14.382036
21
9.649223
0
LINE
8
Graphic
10
14.382036
20
9.649223
11
14.227929
21
9.607872
0
LINE
8
Graphic
10
14.227929
20
9.607872
11
13.994962
21
9.641629
0
LINE
8
Graphic
10
13.994962
20
9.641629
11
13.700037
21
9.741836
0
LINE
8
Graphic
10
13.700037
20
9.741836
11
13.546485
21
9.950585
0
LINE
8
Graphic
10
13.546485
20
9.950585
11
13.493650
21
10.327889
0
LINE
8
Graphic
10
13.493650
20
10.327889
11
13.458920
21
10.624249
0
LINE
8
Graphic
10
13.458920
20
10.624249
11
13.526620
21
10.793730
0
LINE
8
Graphic
10
13.526620
20
10.793730
11
13.824693
21
11.017945
0
LINE
8
Graphic
10
13.824693
20
11.017945
11
14.142308
21
11.240354
0
LINE
8
Graphic
10
14.142308
20
11.240354
11
14.281551
21
11.454706
0
LINE
8
Graphic
10
14.281551
20
11.454706
11
14.333229
21
11.625299
0
LINE
8
Graphic
10
14.333229
20
11.625299
11
14.400095
21
11.740648
0
LINE
8
Graphic
10
14.400095
20
11.740648
11
14.523826
21
11.822101
0
LINE
8
Graphic
10
14.523826
20
11.822101
11
14.592729
21
11.840716
0
LINE
8
Graphic
10
14.592729
20
11.840716
11
14.592731
21
11.840714
0
LINE
8
Graphic
10
14.465898
20
10.880600
11
9.851827
21
14.367788
0
LINE
8
Graphic
10
9.851827
20
14.367788
11
9.110280
21
14.928229
0
LINE
8
Graphic
10
9.110280
20
14.928229
11
9.058784
21
14.967148
0
LINE
8
Graphic
10
9.058784
20
14.967148
11
9.192674
21
14.865957
0
LINE
8
Graphic
10
9.192674
20
14.865957
11
14.465898
21
10.880600
0
LINE
8
Graphic
10
14.465898
20
10.880600
11
14.465898
21
10.880600
0
LINE
8
Graphic
10
14.400285
20
10.733061
11
14.281275
21
10.768446
0
LINE
8
Graphic
10
14.281275
20
10.768446
11
14.115776
21
10.789655
0
LINE
8
Graphic
10
14.115776
20
10.789655
11
13.967827
21
10.665739
0
LINE
8
Graphic
10
13.967827
20
10.665739
11
13.896191
21
10.418325
0
LINE
8
Graphic
10
13.896191
20
10.418325
11
13.919113
21
10.234628
0
LINE
8
Graphic
10
13.919113
20
10.234628
11
14.019875
21
10.125114
0
LINE
8
Graphic
10
14.019875
20
10.125114
11
14.189449
21
10.087698
0
LINE
8
Graphic
10
14.189449
20
10.087698
11
14.375970
21
10.189711
0
LINE
8
Graphic
10
14.375970
20
10.189711
11
14.503312
21
10.356784
0
LINE
8
Graphic
10
14.503312
20
10.356784
11
14.536144
21
10.513624
0
LINE
8
Graphic
10
14.536144
20
10.513624
11
14.486920
21
10.656664
0
LINE
8
Graphic
10
14.486920
20
10.656664
11
14.400284
21
10.733063
0
LINE
8
Graphic
10
14.400284
20
10.733063
11
14.400285
21
10.733061
0
LINE
8
Graphic
10
15.067926
20
10.789701
11
15.172162
21
10.677084
0
LINE
8
Graphic
10
15.172162
20
10.677084
11
15.387532
21
10.372156
0
LINE
8
Graphic
10
15.387532
20
10.372156
11
15.575397
21
10.070101
0
LINE
8
Graphic
10
15.575397
20
10.070101
11
15.626379
21
9.729518
0
LINE
8
Graphic
10
15.626379
20
9.729518
11
15.604521
21
9.464136
0
LINE
8
Graphic
10
15.604521
20
9.464136
11
15.338167
21
9.413523
0
LINE
8
Graphic
10
15.338167
20
9.413523
11
15.055235
21
9.381016
0
LINE
8
Graphic
10
15.055235
20
9.381016
11
15.004761
21
9.563555
0
LINE
8
Graphic
10
15.004761
20
9.563555
11
14.954890
21
9.834447
0
LINE
8
Graphic
10
14.954890
20
9.834447
11
14.931550
21
10.108394
0
LINE
8
Graphic
10
14.931550
20
10.108394
11
14.906915
21
10.387668
0
LINE
8
Graphic
10
14.906915
20
10.387668
11
14.868064
21
10.498665
0
LINE
8
Graphic
10
14.868064
20
10.498665
11
14.904877
21
10.602992
0
LINE
8
Graphic
10
14.904877
20
10.602992
11
14.992164
21
10.732233
0
LINE
8
Graphic
10
14.992164
20
10.732233
11
15.067921
21
10.789699
0
LINE
8
Graphic
10
15.067921
20
10.789699
11
15.067926
21
10.789701
0
LINE
8
Graphic
10
14.165370
20
10.607022
11
14.181485
21
10.606231
0
LINE
8
Graphic
10
14.181485
20
10.606231
11
14.304984
21
10.573724
0
LINE
8
Graphic
10
14.304984
20
10.573724
11
14.370183
21
10.491947
0
LINE
8
Graphic
10
14.370183
20
10.491947
11
14.279006
21
10.340757
0
LINE
8
Graphic
10
14.279006
20
10.340757
11
14.164120
21
10.244903
0
LINE
8
Graphic
10
14.164120
20
10.244903
11
14.100171
21
10.289403
0
LINE
8
Graphic
10
14.100171
20
10.289403
11
14.050530
21
10.390165
0
LINE
8
Graphic
10
14.050530
20
10.390165
11
14.082204
21
10.529409
0
LINE
8
Graphic
10
14.082204
20
10.529409
11
14.165370
21
10.607018
0
LINE
8
Graphic
10
14.165370
20
10.607018
11
14.165370
21
10.607022
0
LINE
8
Graphic
10
13.664474
20
10.311588
11
13.616130
21
10.241711
0
LINE
8
Graphic
10
13.616130
20
10.241711
11
13.793946
21
10.036018
0
LINE
8
Graphic
10
13.793946
20
10.036018
11
14.030895
21
9.890802
0
LINE
8
Graphic
10
14.030895
20
9.890802
11
14.098364
21
9.914328
0
LINE
8
Graphic
10
14.098364
20
9.914328
11
14.099408
21
9.991382
0
LINE
8
Graphic
10
14.099408
20
9.991382
11
13.895336
21
10.181376
0
LINE
8
Graphic
10
13.895336
20
10.181376
11
13.664453
21
10.311590
0
LINE
8
Graphic
10
13.664453
20
10.311590
11
13.664474
21
10.311588
0
LINE
8
Graphic
10
12.151044
20
10.121731
11
12.231941
21
10.103347
0
LINE
8
Graphic
10
12.231941
20
10.103347
11
12.432540
21
10.054540
0
LINE
8
Graphic
10
12.432540
20
10.054540
11
12.735846
21
9.939052
0
LINE
8
Graphic
10
12.735846
20
9.939052
11
13.024056
21
9.806893
0
LINE
8
Graphic
10
13.024056
20
9.806893
11
13.256884
21
9.770728
0
LINE
8
Graphic
10
13.256884
20
9.770728
11
13.460030
21
9.697193
0
LINE
8
Graphic
10
13.460030
20
9.697193
11
13.658916
21
9.569758
0
LINE
8
Graphic
10
13.658916
20
9.569758
11
13.936245
21
9.477331
0
LINE
8
Graphic
10
13.936245
20
9.477331
11
14.222881
21
9.438804
0
LINE
8
Graphic
10
14.222881
20
9.438804
11
14.479001
21
9.509931
0
LINE
8
Graphic
10
14.479001
20
9.509931
11
14.712200
21
9.665428
0
LINE
8
Graphic
10
14.712200
20
9.665428
11
14.827549
21
9.710067
0
LINE
8
Graphic
10
14.827549
20
9.710067
11
14.849822
21
9.550310
0
LINE
8
Graphic
10
14.849822
20
9.550310
11
14.814305
21
9.404352
0
LINE
8
Graphic
10
14.814305
20
9.404352
11
14.769897
21
9.331512
0
LINE
8
Graphic
10
14.769897
20
9.331512
11
14.618938
21
9.254089
0
LINE
8
Graphic
10
14.618938
20
9.254089
11
14.287200
21
9.173144
0
LINE
8
Graphic
10
14.287200
20
9.173144
11
13.990840
21
9.113502
0
LINE
8
Graphic
10
13.990840
20
9.113502
11
13.670771
21
9.228018
0
LINE
8
Graphic
10
13.670771
20
9.228018
11
13.338848
21
9.398843
0
LINE
8
Graphic
10
13.338848
20
9.398843
11
12.769836
21
9.463348
0
LINE
8
Graphic
10
12.769836
20
9.463348
11
12.216059
21
9.518916
0
LINE
8
Graphic
10
12.216059
20
9.518916
11
11.996752
21
9.642183
0
LINE
8
Graphic
10
11.996752
20
9.642183
11
11.880755
21
9.770127
0
LINE
8
Graphic
10
11.880755
20
9.770127
11
11.988139
21
9.958825
0
LINE
8
Graphic
10
11.988139
20
9.958825
11
12.131874
21
10.118629
0
LINE
8
Graphic
10
12.131874
20
10.118629
11
12.151045
21
10.121731
0
LINE
8
Graphic
10
12.151045
20
10.121731
11
12.151044
21
10.121731
 0 
ENDSEC
 0 
EOF