<?xml version="1.0" encoding="UTF-8" standalone="no"?>
<svg
   width="62mm"
   height="117mm"
   viewBox="0 0 62 117"
   version="1.1"
   id="svg8"
   inkscape:version="1.2.1 (9c6d41e410, 2022-07-14, custom)"
   sodipodi:docname="sexy_rodent_front_freecad.svg"
   inkscape:export-filename="/home/yann/_dev/98 - Graphics/graphics-pedals/Shining Pig/shining_pig_front_9V.png"
   inkscape:export-xdpi="96"
   inkscape:export-ydpi="96"
   xmlns:inkscape="http://www.inkscape.org/namespaces/inkscape"
   xmlns:sodipodi="http://sodipodi.sourceforge.net/DTD/sodipodi-0.dtd"
   xmlns="http://www.w3.org/2000/svg"
   xmlns:svg="http://www.w3.org/2000/svg"
   xmlns:rdf="http://www.w3.org/1999/02/22-rdf-syntax-ns#"
   xmlns:cc="http://creativecommons.org/ns#"
   xmlns:dc="http://purl.org/dc/elements/1.1/">
  <defs
     id="defs2" />
  <sodipodi:namedview
     id="base"
     pagecolor="#ffffff"
     bordercolor="#666666"
     borderopacity="1.0"
     inkscape:pageopacity="0"
     inkscape:pageshadow="2"
     inkscape:zoom="2.8284271"
     inkscape:cx="-9.899495"
     inkscape:cy="358.50314"
     inkscape:document-units="mm"
     inkscape:current-layer="svg8"
     inkscape:document-rotation="0"
     showgrid="true"
     inkscape:window-width="3836"
     inkscape:window-height="2113"
     inkscape:window-x="0"
     inkscape:window-y="881"
     inkscape:window-maximized="1"
     showborder="true"
     inkscape:showpageshadow="false"
     inkscape:pagecheckerboard="true"
     inkscape:deskcolor="#d1d1d1">
    <sodipodi:guide
       position="-2.0168617,58.500093"
       orientation="0,117.16536"
       id="guide1967"
       inkscape:locked="false" />
    <sodipodi:guide
       position="31.001653,138.8865"
       orientation="-221.10236,0"
       id="guide1969"
       inkscape:locked="false" />
    <inkscape:grid
       type="xygrid"
       id="grid1973"
       visible="true"
       enabled="true"
       originx="31.000001"
       originy="58.500002"
       dotted="false" />
  </sodipodi:namedview>
  <metadata
     id="metadata5">
    <rdf:RDF>
      <cc:Work
         rdf:about="">
        <dc:format>image/svg+xml</dc:format>
        <dc:type
           rdf:resource="http://purl.org/dc/dcmitype/StillImage" />
      </cc:Work>
    </rdf:RDF>
  </metadata>
  <g
     inkscape:groupmode="layer"
     id="layer6"
     inkscape:label="Controls"
     style="display:inline;fill:none;stroke:#000000;stroke-opacity:1;stroke-width:0.1;stroke-dasharray:none">
    <path
       id="path2306"
       d="M 44.178699,1.1348145 V 2.3027018 H 44.31099 V 1.1348145 Z m 0.418062,0 v 1.1678873 h 0.132292 V 1.3167155 l 0.721403,0.9859863 h 0.153479 V 1.1348145 h -0.132292 v 0.9823689 l -0.72192,-0.9823689 z"
       style="font-size:1.76389px;line-height:1.25;font-family:Questrial;-inkscape-font-specification:'Questrial, Normal';letter-spacing:0px;word-spacing:0px;fill:none;stroke:#000000;stroke-width:0.1;stroke-opacity:1;stroke-dasharray:none" />
    <path
       id="path3367"
       style="color:#000000;fill:none;stroke:#000000;stroke-width:0.1;stroke-miterlimit:4;stroke-dasharray:none;stroke-opacity:1"
       d="m 30.902507,34.50022 v 0.900203 H 28.10061 v -0.898136 h -0.198954 v 1.099157 h 0.198954 2.799829 v 5.998084 h 0.201022 l -0.0021,-5.998084 h 2.89388 0.001 0.199988 v -1.099157 h -0.201021 v 0.898136 H 31.101461 V 34.50022 Z" />
    <path
       id="path10508"
       d="m 53.5,44.799999 a 3.9999995,3.9999995 0 0 1 -4,4 3.9999995,3.9999995 0 0 1 -4,-4 3.9999995,3.9999995 0 0 1 4,-3.999999 3.9999995,3.9999995 0 0 1 4,3.999999 z" />
    <path
       id="path10508-90"
       style="display:inline"
       d="m 53.5,14.5 a 3.9999995,3.9999995 0 0 1 -4,4 3.9999995,3.9999995 0 0 1 -4,-4 3.9999995,3.9999995 0 0 1 4,-4 3.9999995,3.9999995 0 0 1 4,4 z" />
    <path
       id="path10508-9"
       style="display:inline"
       d="m 34.5,44.799999 a 3.4999995,3.4999995 0 0 1 -3.5,3.5 3.4999995,3.4999995 0 0 1 -3.5,-3.5 A 3.4999995,3.4999995 0 0 1 31,41.3 a 3.4999995,3.4999995 0 0 1 3.5,3.499999 z" />
    <path
       id="path10508-9-4"
       style="display:inline"
       d="m 16.5,44.799999 a 3.9999995,3.9999995 0 0 1 -4,4 3.9999995,3.9999995 0 0 1 -3.9999995,-4 A 3.9999995,3.9999995 0 0 1 12.5,40.8 a 3.9999995,3.9999995 0 0 1 4,3.999999 z" />
    <path
       id="path10508-91"
       style="display:inline"
       d="m 16.5,14.5 a 3.9999995,3.9999995 0 0 1 -4,4 3.9999995,3.9999995 0 0 1 -3.9999995,-4 3.9999995,3.9999995 0 0 1 3.9999995,-4 3.9999995,3.9999995 0 0 1 4,4 z" />
    <path
       id="path5455"
       style="display:inline;fill:none;stroke:#000000;stroke-opacity:1;stroke-width:0.1;stroke-dasharray:none;fill-opacity:1"
       d="m 51.337263,58.881508 c -0.129925,3.5e-4 -0.276409,0.0081 -0.408061,0.02297 -0.263309,0.02978 -0.549392,0.105774 -0.635637,0.168837 -0.108527,0.07936 -0.172306,0.264847 -0.207229,0.602657 l -0.05037,0.48813 -0.75607,0.675016 c -0.415837,0.371216 -0.906634,0.776497 -1.090624,0.900621 -0.183993,0.124123 -0.432746,0.225607 -0.552777,0.225607 -0.120034,0 -0.565227,0.171128 -0.989388,0.380332 -0.424161,0.209204 -0.968069,0.41774 -1.208596,0.463355 -0.240523,0.04562 -0.870068,0.270701 -1.398925,0.500108 l -0.961495,0.417086 -0.745896,-0.250055 c -0.410271,-0.137453 -0.893822,-0.273494 -1.074544,-0.302395 -0.180723,-0.0289 -0.415816,-0.03069 -0.522423,-0.0039 -0.106607,0.02676 -0.261142,0.162623 -0.343416,0.301901 -0.08227,0.139281 -0.185979,0.566113 -0.230364,0.948534 -0.05473,0.471612 -0.05132,0.899015 0.0105,1.328372 0.05215,0.362233 0.157864,0.721584 0.247264,0.840077 0.125858,0.166812 0.2267,0.205593 0.518158,0.199354 0.19899,-0.0042 0.489546,-0.07395 0.645809,-0.154889 l 0.284184,-0.147178 -0.05644,0.224951 c -0.03109,0.123779 -0.03331,0.298406 -0.0048,0.387878 0.0284,0.08948 0.260891,0.268382 0.516681,0.397726 0.255791,0.129342 0.699425,0.440409 0.985777,0.691257 0.286353,0.25085 0.680183,0.650668 0.87519,0.888481 0.195005,0.237814 0.468856,0.661243 0.608564,0.94082 0.139708,0.279579 0.283786,0.696243 0.320115,0.926055 0.03633,0.229811 0.04847,0.537322 0.02708,0.683218 -0.02142,0.145897 -0.09236,0.285703 -0.15768,0.310764 -0.06532,0.02507 -0.315157,-0.05626 -0.555238,-0.180813 -0.240081,-0.12456 -0.712059,-0.437616 -1.048784,-0.695525 -0.336725,-0.257911 -0.828784,-0.656856 -1.093414,-0.886676 -0.26463,-0.22982 -0.783504,-0.701464 -1.153136,-1.047963 -0.369635,-0.3465 -1.432008,-1.381106 -2.360749,-2.29922 -1.446678,-1.430123 -1.725001,-1.669325 -1.942843,-1.669325 -0.139849,0 -0.294757,0.04883 -0.344235,0.108455 -0.05225,0.06296 -0.08292,0.423878 -0.07318,0.86108 0.01523,0.682471 0.04127,0.791803 0.279425,1.172662 0.14446,0.231022 0.56508,0.779172 0.93475,1.218112 0.369669,0.43894 1.100449,1.228628 1.623875,1.754809 0.523428,0.526181 1.369126,1.266588 1.879345,1.645371 0.510219,0.378783 1.116472,0.855513 1.347241,1.059449 0.230772,0.203939 0.642812,0.578736 0.915717,0.832857 0.272906,0.254126 0.707887,0.670827 0.966582,0.926054 0.25869,0.255228 0.655031,0.670191 0.880767,0.922116 0.225734,0.251929 0.498066,0.591291 0.605119,0.7541 0.107048,0.16281 0.389573,0.844148 0.627924,1.514109 0.238352,0.669964 0.42741,1.312622 0.420204,1.428131 -0.0072,0.11551 -0.01614,0.550248 -0.02002,0.966088 -0.0046,0.501321 0.03815,0.87716 0.126997,1.115562 l 0.133887,0.35966 -0.438252,-0.05645 c -0.285793,-0.0368 -0.738023,-0.213089 -1.300479,-0.506672 -0.565824,-0.295331 -0.964081,-0.450063 -1.157894,-0.450063 -0.162473,0 -0.431042,-0.0567 -0.596916,-0.12601 -0.165873,-0.0693 -0.420929,-0.126014 -0.566723,-0.126014 -0.145792,0 -0.358466,0.06433 -0.472708,0.143077 -0.11424,0.07874 -0.255108,0.201597 -0.31306,0.273023 -0.05795,0.07143 -0.256418,0.351576 -0.441041,0.622514 -0.254905,0.374088 -0.335702,0.574412 -0.335702,0.832201 0,0.285071 0.05216,0.389075 0.326186,0.649744 0.17947,0.170723 0.506306,0.411006 0.726208,0.533909 0.2199,0.122904 0.617188,0.279812 0.882902,0.348667 0.321103,0.08321 0.895526,0.12519 1.712806,0.12519 1.00951,0 1.319418,0.03016 1.731018,0.168836 0.275741,0.09289 0.737505,0.312223 1.026305,0.48731 0.288803,0.175085 0.657526,0.377948 0.819239,0.450886 0.161713,0.07294 0.350733,0.153102 0.420038,0.17819 0.0693,0.02506 0.224076,0.04869 0.343907,0.05234 0.119828,0.0036 0.43698,-0.06885 0.704714,-0.160958 0.267733,-0.09211 0.809893,-0.228067 1.204821,-0.302069 0.394931,-0.07401 0.814869,-0.171233 0.933274,-0.216252 0.118409,-0.04502 0.284536,-0.144407 0.36901,-0.22085 0.08447,-0.07645 0.292473,-0.14636 0.462206,-0.155219 0.169738,-0.0089 0.705402,-0.04293 1.190548,-0.07581 0.485147,-0.03286 0.985509,-0.112331 1.11179,-0.176548 0.126279,-0.06421 0.290578,-0.234808 0.365237,-0.379182 0.108636,-0.210218 0.129982,-0.465219 0.106486,-1.279804 -0.02876,-0.997518 -0.03551,-1.028312 -0.350143,-1.597627 -0.176462,-0.319299 -0.591649,-0.961954 -0.922607,-1.42813 -0.330957,-0.46617 -0.649746,-0.897647 -0.708324,-0.958704 -0.05857,-0.06105 -0.106486,-0.124946 -0.106486,-0.142091 0,-0.01716 0.08153,-0.169328 0.181142,-0.338164 0.103484,-0.175392 0.213539,-0.564666 0.256782,-0.908006 0.04163,-0.330501 0.08043,-0.714263 0.08614,-0.852875 0.0058,-0.138615 -0.05871,-0.424443 -0.143077,-0.635145 l -0.1533,-0.38313 0.628255,-0.834991 c 0.345594,-0.459259 0.968446,-1.326434 1.383993,-1.927091 0.415547,-0.600655 0.974246,-1.41343 1.241577,-1.806166 0.267333,-0.392737 0.680212,-0.896837 0.917519,-1.120157 0.23731,-0.223323 0.650967,-0.599377 0.919326,-0.835812 0.418792,-0.36898 0.48052,-0.460332 0.435135,-0.644168 -0.02909,-0.117798 -0.154183,-0.321112 -0.277949,-0.45187 -0.123765,-0.13076 -0.479178,-0.426643 -0.789867,-0.65746 -0.411195,-0.305481 -0.611168,-0.405 -0.734905,-0.365728 -0.0949,0.03012 -0.190541,0.153586 -0.216418,0.279424 -0.02549,0.123983 -0.09049,0.376657 -0.144552,0.561473 -0.05629,0.192429 -0.271023,0.520072 -0.502405,0.766735 -0.248279,0.264681 -0.459839,0.594585 -0.548676,0.855664 -0.0864,0.253903 -0.71926,1.25412 -1.572681,2.485448 -0.785476,1.133284 -1.447022,2.060489 -1.470137,2.060486 -0.0231,-3e-6 -0.281208,-0.367191 -0.573615,-0.815957 l -0.531611,-0.815959 0.05037,-0.714065 c 0.0277,-0.392736 0.102828,-0.921985 0.166867,-1.176108 0.06403,-0.254124 0.167588,-0.603576 0.230201,-0.776579 0.06261,-0.173003 0.590148,-0.910171 1.172335,-1.638151 0.582192,-0.72798 1.223117,-1.566905 1.424193,-1.86425 0.316462,-0.467968 0.370191,-0.612206 0.399528,-1.073067 0.02489,-0.391104 -0.0147,-0.682392 -0.149144,-1.097515 -0.100673,-0.310811 -0.286364,-0.716297 -0.412492,-0.901114 -0.149356,-0.218852 -0.303764,-0.344855 -0.443008,-0.361299 -0.122031,-0.01441 -0.262962,0.03397 -0.328322,0.112722 -0.07686,0.09263 -0.130054,0.487612 -0.161615,1.20154 l -0.04693,1.063551 -0.651059,0.817925 c -0.358088,0.449801 -0.832917,0.997726 -1.055184,1.217785 -0.222266,0.220061 -0.536549,0.589203 -0.698314,0.820224 -0.161765,0.231021 -0.447762,0.684664 -0.635635,1.008093 -0.187878,0.323429 -0.436533,0.758168 -0.552614,0.966089 -0.116078,0.207918 -0.26505,0.388937 -0.330945,0.402317 -0.06589,0.01338 -0.296561,-0.05146 -0.512579,-0.144057 l -0.3928,-0.168345 0.0036,-0.443992 c 0.002,-0.244215 0.04933,-0.639476 0.105175,-0.878309 0.09633,-0.411984 0.144542,-0.468218 0.941477,-1.099319 0.461992,-0.365857 0.882882,-0.718692 0.935242,-0.783962 0.05236,-0.06527 0.137416,-0.318925 0.189018,-0.563771 0.0516,-0.244847 0.09361,-0.566176 0.09336,-0.714066 -2.52e-4,-0.14789 -0.04036,-0.412523 -0.08909,-0.588054 -0.05618,-0.202284 -0.162365,-0.35273 -0.289924,-0.41085 l -0.201325,-0.09172 0.204278,-0.160633 c 0.198608,-0.156234 0.203823,-0.189287 0.185408,-1.18989 -0.01889,-1.025481 -0.01817,-1.030264 0.224949,-1.318692 0.1342,-0.159206 0.351567,-0.516254 0.483045,-0.793478 0.131477,-0.277226 0.262223,-0.62672 0.290417,-0.77658 0.02807,-0.149861 0.02857,-0.362415 9.85e-4,-0.472379 -0.02877,-0.1146 -0.149351,-0.237459 -0.282379,-0.287792 -0.127652,-0.0483 -0.339135,-0.111246 -0.470081,-0.139958 -0.06548,-0.01435 -0.17887,-0.02136 -0.308794,-0.02101 z m -0.583296,1.614359 c 0.06951,0.003 0.156462,0.02329 0.284674,0.05759 l 0.372292,0.0996 -0.232497,0.299114 c -0.127877,0.1645 -0.260251,0.37472 -0.294191,0.467128 -0.03395,0.0924 -0.0598,0.583854 -0.05727,1.092101 l 0.0045,0.924084 -0.512742,0.294027 c -0.282037,0.161716 -0.574524,0.332528 -0.649911,0.379676 -0.07539,0.04714 -0.293801,0.18695 -0.485342,0.310599 -0.191538,0.123649 -0.567436,0.403333 -0.835319,0.621525 -0.267883,0.218194 -0.573748,0.494231 -0.679774,0.613487 -0.106028,0.119256 -0.236622,0.357514 -0.290252,0.529314 -0.07646,0.244874 -0.07453,0.340165 0.0092,0.441041 0.05873,0.07078 0.173642,0.128636 0.255305,0.128636 0.08166,0 0.632051,-0.453185 1.223035,-1.007108 0.758447,-0.710881 1.152557,-1.021818 1.340021,-1.056986 0.146074,-0.02741 0.375592,-0.03732 0.509953,-0.02198 0.200018,0.02282 0.249349,0.07269 0.272368,0.274994 0.01549,0.135896 0.003,0.414671 -0.02772,0.619558 -0.03224,0.215013 -0.133674,0.447961 -0.239882,0.550971 -0.101204,0.09816 -0.33445,0.297651 -0.518321,0.443174 -0.183872,0.145523 -0.525033,0.414308 -0.758202,0.597408 -0.364542,0.286259 -0.439084,0.396419 -0.532103,0.785603 -0.0595,0.248928 -0.129273,0.76514 -0.155054,1.147229 l -0.04693,0.694705 0.327007,0.313389 c 0.279607,0.267988 0.35508,0.422909 0.521274,1.069457 0.10689,0.415838 0.267537,1.005936 0.357033,1.311308 0.135941,0.463856 0.265898,0.672925 0.789705,1.270452 l 0.627104,0.715214 -0.411178,0.255634 c -0.226149,0.140581 -0.465466,0.362749 -0.531776,0.493709 -0.0663,0.130964 -0.167574,0.438291 -0.225113,0.683055 -0.08015,0.340942 -0.196935,0.539835 -0.499288,0.85025 -0.246649,0.253223 -0.636113,0.521286 -1.038285,0.714722 -0.44636,0.214691 -0.744389,0.42747 -0.972815,0.694705 -0.299107,0.349927 -0.336798,0.370719 -0.41167,0.226426 -0.04534,-0.08738 -0.185325,-0.480159 -0.311091,-0.872892 -0.125766,-0.392737 -0.320497,-0.908288 -0.432673,-1.145754 -0.112175,-0.237468 -0.501017,-0.766715 -0.864195,-1.176107 -0.363184,-0.409395 -1.092799,-1.141358 -1.621252,-1.626502 -0.528457,-0.485145 -1.072014,-0.976591 -1.20794,-1.0921 C 42.668727,72.350812 42.3689,72.103006 42.138334,71.915678 41.907768,71.728351 41.473394,71.400979 41.173066,71.188159 40.87274,70.975337 40.166565,70.334761 39.603828,69.764621 39.041086,69.19448 38.328928,68.429028 38.021299,68.06363 37.71367,67.698231 37.364352,67.244689 37.245047,67.0557 37.101315,66.82801 37.023219,66.5779 37.013534,66.314397 l -0.0146,-0.397722 2.109217,2.077712 c 1.160088,1.142736 2.448957,2.364494 2.864139,2.714994 0.41518,0.350499 1.000645,0.818795 1.300971,1.040579 0.300328,0.221783 0.735068,0.492237 0.966089,0.601017 0.231022,0.108778 0.557565,0.198215 0.725714,0.198533 0.175092,5.08e-4 0.389081,-0.06659 0.500765,-0.157022 0.162828,-0.131851 0.20045,-0.255184 0.228232,-0.746881 0.0183,-0.323877 -0.0096,-0.788955 -0.06201,-1.033525 -0.05244,-0.244571 -0.210326,-0.670784 -0.350798,-0.94722 -0.140477,-0.276436 -0.425171,-0.723322 -0.632683,-0.992998 -0.207511,-0.269678 -0.639154,-0.710638 -0.959198,-0.980034 -0.320046,-0.269397 -0.733279,-0.56231 -0.918179,-0.650897 -0.184895,-0.08859 -0.336378,-0.180758 -0.337015,-0.204768 -5.07e-4,-0.02401 0.168634,-0.269734 0.376067,-0.546051 0.207435,-0.276316 0.377399,-0.579968 0.378035,-0.674686 5.08e-4,-0.09472 -0.04447,-0.217581 -0.09992,-0.273025 -0.05544,-0.05544 -0.150838,-0.100744 -0.212152,-0.100744 -0.06131,0 -0.456447,0.20792 -0.87798,0.462043 -0.421534,0.254123 -0.853027,0.462043 -0.958869,0.462043 -0.105839,0 -0.21707,-0.03994 -0.247264,-0.08877 -0.0302,-0.04883 -0.03246,-0.178081 -0.0052,-0.287136 0.02737,-0.109054 0.178735,-0.319931 0.336359,-0.468607 0.157625,-0.148674 0.559182,-0.43344 0.892419,-0.632846 0.443782,-0.265559 0.664904,-0.350742 0.826622,-0.318474 0.15356,0.03063 0.511387,-0.0871 1.175287,-0.386732 0.524992,-0.236936 0.971576,-0.413885 0.992341,-0.39313 0.02076,0.02076 -0.07808,0.169665 -0.219536,0.33078 -0.14146,0.161117 -0.257108,0.368365 -0.257108,0.460565 0,0.0922 0.0519,0.210687 0.115345,0.263346 0.06346,0.05265 0.167409,0.07309 0.231022,0.04544 0.06361,-0.02763 0.333044,-0.308033 0.598719,-0.623166 0.265673,-0.315132 0.484585,-0.60512 0.486491,-0.644332 0.002,-0.03921 0.339314,-0.236252 0.74967,-0.437925 0.410353,-0.201671 0.925179,-0.400004 1.143949,-0.440875 0.249347,-0.04659 0.557338,-0.195255 0.825474,-0.398217 0.235256,-0.178075 0.676507,-0.546628 0.980527,-0.819076 0.304019,-0.272444 0.653753,-0.580287 0.777236,-0.684038 0.128874,-0.108283 0.196219,-0.151656 0.312076,-0.146686 z m 4.037784,2.771599 0.158664,0.378035 c 0.08907,0.212276 0.160717,0.587133 0.163257,0.855007 0.0045,0.464106 -0.01196,0.499443 -0.609876,1.302121 -0.338024,0.453788 -0.976294,1.271817 -1.418286,1.817816 -0.66503,0.82152 -0.833205,1.089546 -0.975771,1.554142 -0.09475,0.30878 -0.218859,0.788295 -0.275813,1.06552 -0.05696,0.277226 -0.106847,0.827557 -0.110752,1.222871 l -0.0071,0.718659 0.468769,0.709471 c 0.257863,0.390159 0.537639,0.82794 0.62169,0.972981 0.150004,0.258846 0.149396,0.269303 -0.03462,0.567052 -0.103109,0.166841 -0.21276,0.303565 -0.243655,0.304199 -0.03088,5.08e-4 -0.410214,-0.368093 -0.842866,-0.819075 -0.432648,-0.450981 -0.871505,-0.933303 -0.975276,-1.071919 -0.106154,-0.14179 -0.28437,-0.640521 -0.407405,-1.140175 -0.120276,-0.488451 -0.242327,-0.949685 -0.271221,-1.024992 -0.04419,-0.115187 -0.0064,-0.129418 0.238077,-0.08975 0.239764,0.0389 0.315331,0.01247 0.432181,-0.151116 0.07788,-0.109032 0.43241,-0.704784 0.7879,-1.323942 0.467679,-0.81456 0.832533,-1.325433 1.319676,-1.848168 0.370282,-0.397337 0.926312,-1.047239 1.235668,-1.444212 0.376297,-0.482873 0.590667,-0.844345 0.647778,-1.092101 0.04696,-0.203681 0.0885,-0.616045 0.09221,-0.916372 z m -13.718197,0.487639 c 0.06341,0.0042 0.148679,0.02315 0.27204,0.05479 0.205452,0.05271 0.428764,0.114748 0.496171,0.137825 0.07868,0.02693 -0.06066,0.157714 -0.388864,0.365236 -0.281211,0.177806 -0.537033,0.364975 -0.568529,0.415937 -0.03149,0.05097 -0.09759,0.09271 -0.146849,0.09271 -0.0555,0 -0.06945,-0.09983 -0.03691,-0.262523 0.02888,-0.144388 0.05251,-0.326158 0.05251,-0.403959 0,-0.0778 0.04922,-0.208874 0.10944,-0.291239 0.06028,-0.08243 0.105326,-0.115912 0.211004,-0.108782 z m 17.036175,3.582634 0.394608,0.307317 c 0.216957,0.169028 0.394442,0.331355 0.394442,0.360643 0,0.02928 -0.332033,0.359331 -0.737857,0.73359 -0.448346,0.413477 -0.936605,0.973256 -1.244199,1.426656 -0.278422,0.410396 -0.765258,1.124259 -1.08193,1.586301 -0.316671,0.462043 -0.945413,1.331523 -1.397285,1.932178 -0.451875,0.600655 -0.896019,1.177158 -0.986926,1.281118 -0.09091,0.103963 -0.206431,0.189017 -0.256781,0.189017 -0.05035,0 -0.09156,-0.0422 -0.09156,-0.09385 0,-0.05164 0.200936,-0.363522 0.446618,-0.693064 0.24568,-0.329547 0.701404,-0.977249 1.012687,-1.439289 0.311286,-0.462044 0.83177,-1.218112 1.156582,-1.680153 0.324813,-0.462043 0.738572,-1.063248 0.919493,-1.336086 0.180922,-0.272837 0.328974,-0.586209 0.328974,-0.696344 0,-0.126148 0.155861,-0.362307 0.421189,-0.638097 0.238757,-0.248177 0.486192,-0.611555 0.571482,-0.83893 z m -6.403128,7.706889 c 0.0689,6.03e-4 0.134385,0.0239 0.223966,0.07022 0.119781,0.06194 0.255106,0.183194 0.326678,0.243819 0.690887,0.373124 0.711881,0.296882 1.193174,0.718168 0.177859,0.02661 0.155873,0.435894 0.155873,0.516516 0,0.08062 -0.120836,0.460861 -0.268432,0.845 -0.176795,0.460137 -0.386917,0.828196 -0.615947,1.07881 -0.1912,0.209221 -0.417324,0.563053 -0.502569,0.78626 -0.13553,0.354877 -0.141493,0.449571 -0.04709,0.753771 0.05937,0.191331 0.126852,0.533746 0.149967,0.760994 0.02312,0.227245 -5.07e-4,0.555204 -0.05251,0.728669 -0.06078,0.20284 -0.25133,0.456972 -0.534073,0.71226 -0.241791,0.218316 -0.590779,0.466068 -0.775595,0.550643 -0.184816,0.08458 -0.430541,0.15049 -0.54605,0.146521 -0.115512,-0.0039 -0.487029,-0.0578 -0.825475,-0.119612 -0.343193,-0.06267 -0.805344,-0.219662 -1.04501,-0.355064 -0.40665,-0.229744 -0.435886,-0.269518 -0.544081,-0.739662 -0.06289,-0.273258 -0.147108,-0.874861 -0.187212,-1.336905 -0.0401,-0.462043 -0.09549,-0.934586 -0.123058,-1.050095 -0.03748,-0.15716 0.02292,-0.308333 0.239881,-0.600524 0.221521,-0.298326 0.470722,-0.485784 1.056166,-0.794464 0.471036,-0.248358 0.904617,-0.552018 1.12541,-0.788065 0.197547,-0.211194 0.41954,-0.552898 0.49338,-0.759514 0.07384,-0.206616 0.15625,-0.478681 0.183112,-0.604463 0.02687,-0.125784 0.133527,-0.309658 0.236926,-0.408717 0.103401,-0.09906 0.30071,-0.228996 0.438416,-0.288612 0.102985,-0.04459 0.175248,-0.06658 0.244147,-0.06596 z m -0.681896,3.924759 c -0.263845,-0.07991 -0.291058,-0.08934 -0.421689,-0.12538 -0.173265,-0.04022 -0.437185,-0.07419 -0.586414,-0.07515 -0.239961,-0.0018 -0.300533,0.04902 -0.524228,0.439072 -0.191449,0.333828 -0.253193,0.546976 -0.253828,0.876666 -4.13e-4,0.239564 0.03617,0.532399 0.08122,0.650896 0.04505,0.118498 0.205717,0.293186 0.357032,0.388042 0.198526,0.124444 0.365771,0.161342 0.600854,0.132575 0.23032,-0.02819 0.424023,-0.134108 0.660903,-0.361462 0.184282,-0.176867 0.387283,-0.443312 0.451213,-0.591993 0.06393,-0.148679 0.116332,-0.398764 0.116332,-0.555731 0,-0.161617 -0.07616,-0.381012 -0.174415,-0.506835 -0.131744,-0.168704 -0.08419,-0.126483 -0.306979,-0.270703 z m 2.36566,-0.200692 c 0.04942,0.001 0.215646,0.180607 0.36934,0.399037 0.153693,0.218434 0.497051,0.704657 0.763123,1.080453 0.266073,0.375795 0.565637,0.857472 0.665665,1.070276 0.148048,0.314957 0.181599,0.539306 0.180646,1.206791 -6.34e-4,0.450993 -0.03557,0.874164 -0.07745,0.940329 -0.05356,0.08465 -0.333302,0.137774 -0.943773,0.179336 -0.47722,0.03249 -0.928318,0.08439 -1.002514,0.115182 -0.115742,0.04803 -0.141233,-0.04391 -0.178844,-0.646794 -0.02448,-0.392455 -0.102464,-0.816267 -0.176711,-0.959854 -0.104531,-0.202129 -0.12229,-0.409647 -0.0827,-0.97068 0.04006,-0.567727 0.02226,-0.769941 -0.08729,-0.989554 -0.07574,-0.15182 -0.13766,-0.32879 -0.13766,-0.393296 0,-0.0645 0.05865,-0.230846 0.13044,-0.369664 0.07179,-0.138819 0.211023,-0.34493 0.309287,-0.457941 0.09826,-0.113011 0.219008,-0.204573 0.26843,-0.203621 z m -3.198035,0.647287 c 0.01782,-4.14e-4 0.0368,6.67e-4 0.0571,0.0028 0.113589,0.01197 0.310532,0.06379 0.437594,0.115184 0.159447,0.0645 0.231022,0.154284 0.231022,0.289762 0,0.112809 -0.137425,0.340561 -0.32307,0.535712 -0.177662,0.186763 -0.360878,0.33964 -0.407076,0.33964 -0.04619,0 -0.148093,-0.07093 -0.226591,-0.157678 -0.0785,-0.08674 -0.157729,-0.247404 -0.175891,-0.35703 -0.01816,-0.109626 0.03236,-0.331665 0.112228,-0.493384 0.09992,-0.202288 0.169946,-0.272158 0.294685,-0.274994 z m -1.774829,1.046813 c -0.0853,0.01617 -0.156342,0.118977 -0.171296,0.247594 -0.02172,0.18667 0.07338,0.296615 0.630058,0.728834 0.360599,0.27998 0.738354,0.511689 0.839585,0.514547 0.101235,0.0028 0.208865,-0.03452 0.239061,-0.08336 0.03016,-0.04883 0.03181,-0.171694 0.0037,-0.273027 -0.02805,-0.101338 -0.353384,-0.404278 -0.723089,-0.673208 -0.369702,-0.268934 -0.737901,-0.476598 -0.818091,-0.46139 z m -5.362546,0.672721 c 0.0806,-0.0019 0.193557,0.02239 0.286643,0.06514 0.124117,0.05702 0.443994,0.13483 0.710785,0.172938 0.32176,0.04597 0.683603,0.18372 1.074707,0.409209 0.324284,0.186963 0.783782,0.397766 1.021218,0.468279 0.237444,0.07052 0.608703,0.128144 0.824983,0.128144 0.313563,0 0.4594,0.05282 0.719809,0.260555 0.179618,0.143276 0.496792,0.346456 0.704713,0.451543 0.207918,0.105089 0.650107,0.252432 0.982661,0.327498 0.33255,0.07507 0.789569,0.136513 1.015639,0.136513 0.290316,0 0.556866,-0.07409 0.907513,-0.252023 0.273053,-0.138567 0.644848,-0.386473 0.826295,-0.550975 0.290319,-0.263205 0.339349,-0.282125 0.408718,-0.158171 0.04335,0.07747 0.07892,0.332199 0.07892,0.566069 0,0.280854 -0.04269,0.456364 -0.125848,0.517174 -0.06925,0.05063 -0.140109,0.166837 -0.157351,0.258093 -0.02409,0.127394 -0.148321,0.191086 -0.534893,0.274337 -0.276909,0.05963 -0.805818,0.188639 -1.17545,0.28681 -0.369636,0.09816 -0.842175,0.193296 -1.050096,0.211331 -0.333012,0.02889 -0.468085,-0.01937 -1.134105,-0.405765 -0.415837,-0.24126 -0.945082,-0.513635 -1.176105,-0.605285 -0.340009,-0.134887 -0.724154,-0.178456 -2.016186,-0.228561 -1.127352,-0.04372 -1.703682,-0.101537 -1.962204,-0.196894 -0.201313,-0.07425 -0.550994,-0.27082 -0.777072,-0.436773 -0.228768,-0.167931 -0.411013,-0.368962 -0.411013,-0.453347 0,-0.0834 0.171222,-0.384335 0.380496,-0.668614 0.209273,-0.284283 0.438399,-0.539024 0.509296,-0.566235 0.01773,-0.0068 0.04106,-0.01031 0.06793,-0.01099 z"
       sodipodi:nodetypes="ssscccsssssccsssssssccccssssscsssssssscsssssssssssscccssssssssssssssscsssssssscsssssssscccssssssssssssssccsssssssssscccssssscccssssssscccsscsssssscccccccsssscsssssccsssscccsscccsssssssssssssssscccssscssssssscscsssssssssssssssscssssssscccsssscccsscsssssssssscccsssssssssccssssssssssssssccccccsssssscsscsssscssssssscccsscsssssssccssscsssssssssscccsscsssscsssccssssssssssssssssssscssssssssssssssssss" />
    <path
       style="display:inline;fill:none;fill-opacity:1;stroke:#000000;stroke-width:0.315479;stroke-dasharray:none;stroke-opacity:1"
       d="m 210.03702,50.915986 c -0.47826,0.31319 -0.6037,0.30879 -0.88581,-0.0311 -0.22203,-0.26753 -0.27152,-0.81125 -0.15257,-1.67612 0.16441,-1.19545 0.13112,-1.3006 -0.50327,-1.58965 -0.51343,-0.23394 -0.67932,-0.50676 -0.67932,-1.11725 0,-0.47692 0.16392,-0.87062 0.40024,-0.96131 0.22014,-0.0845 0.57591,-0.008 0.79062,0.17039 0.3109,0.25803 0.41216,0.25059 0.49736,-0.0365 0.0588,-0.19829 0.34795,-1.2535 0.64245,-2.3449 0.29451,-1.09141 0.52982,-2.16297 0.52291,-2.38125 -0.007,-0.21829 0.53885,-2.0249 1.21277,-4.0147 0.67392,-1.98981 1.22532,-3.7907 1.22532,-4.00198 0,-0.21128 0.30377,-1.07104 0.67506,-1.91059 0.37129,-0.83954 0.61965,-1.67086 0.55191,-1.84738 -0.0677,-0.17652 -0.49363,-0.39504 -0.94642,-0.4856 -0.45278,-0.0906 -1.11652,-0.45792 -1.47497,-0.81636 -0.51171,-0.51172 -0.60359,-0.78283 -0.42771,-1.26204 0.14669,-0.39969 0.4795,-0.64058 0.96436,-0.69802 0.4072,-0.0482 1.2278,0.11156 1.82355,0.35511 0.59574,0.24354 1.46291,0.62529 1.92702,0.84833 0.46412,0.22304 2.3353,1.37366 4.15818,2.55695 2.44512,1.5872 3.69651,2.60201 4.77165,3.86957 1.12077,1.32137 1.51667,2.02368 1.71426,3.04108 0.14132,0.7276 0.33054,2.15635 0.4205,3.175 0.15318,1.73457 0.10794,1.9612 -0.71306,3.57188 -0.87458,1.71576 -0.88315,1.72307 -3.66497,3.12183 -2.02228,1.01685 -3.18534,1.43696 -4.23333,1.52913 -0.79475,0.0699 -1.64238,0.18766 -1.88363,0.26169 -0.24125,0.074 -1.573,0.14155 -2.95944,0.15003 l -2.52081,0.0154 -0.34785,1.07177 c -0.19131,0.58947 -0.59857,1.23595 -0.905,1.43663 z m 5.83651,-4.74654 c 1.30292,-0.11151 2.85073,-0.33243 3.43958,-0.49094 0.58886,-0.15852 1.92485,-0.69352 2.96888,-1.1889 1.41757,-0.67261 2.05404,-1.15127 2.51354,-1.89031 0.51285,-0.82482 0.60667,-1.30478 0.56341,-2.88224 -0.0285,-1.04094 -0.22103,-2.2911 -0.42775,-2.77812 -0.20672,-0.48703 -0.77391,-1.30222 -1.26043,-1.81155 -0.48652,-0.50932 -1.26395,-1.16416 -1.72762,-1.45521 -0.46368,-0.29104 -1.71324,-1.15827 -2.77682,-1.92718 -1.06357,-0.76891 -2.09918,-1.36422 -2.30137,-1.32292 -0.20219,0.0413 -0.789,1.2062 -1.30403,2.58865 -0.51502,1.38244 -1.15093,2.98979 -1.41312,3.57187 -0.26218,0.58208 -0.55373,1.53458 -0.64787,2.11667 -0.0941,0.58208 -0.51028,2.12989 -0.92475,3.43958 -0.41447,1.30969 -0.82918,2.76055 -0.92156,3.22414 -0.16342,0.82 -0.14056,0.84515 0.8415,0.92605 0.55521,0.0457 2.07549,-0.008 3.37841,-0.11959 z m -51.76559,4.83294 c -0.2735,0 -0.53381,-0.26529 -0.62781,-0.63981 -0.0883,-0.3519 -0.0203,-1.33417 0.15122,-2.18282 0.17149,-0.84864 0.65024,-2.92724 1.0639,-4.61911 0.41365,-1.69185 1.3523,-4.57785 2.08588,-6.41332 0.73358,-1.83547 1.56504,-3.79051 1.84768,-4.34453 0.28264,-0.55402 0.59661,-1.44826 0.69772,-1.98719 0.12728,-0.67849 0.32362,-0.97988 0.63832,-0.97988 0.28609,0 0.68296,-0.48778 1.07108,-1.31644 0.33912,-0.72403 0.87512,-1.55932 1.19113,-1.85619 0.56951,-0.53503 0.57864,-0.53523 1.04213,-0.0231 0.39784,0.4396 0.42254,0.6532 0.16559,1.43176 -0.1661,0.5033 -0.76709,1.57902 -1.33553,2.3905 -0.56844,0.81148 -0.91832,1.54662 -0.7775,1.63365 0.14082,0.087 0.64081,-0.0736 1.1111,-0.35696 0.47029,-0.28336 1.50035,-0.72472 2.28902,-0.98081 0.78867,-0.25609 2.17706,-0.47272 3.0853,-0.48139 0.99989,-0.01 1.81721,0.12188 2.07178,0.33315 0.23453,0.19464 0.42043,0.74988 0.42043,1.25571 0,0.49873 -0.17251,1.24038 -0.38336,1.64812 -0.21085,0.40773 -0.80178,1.08643 -1.31319,1.50821 -0.5114,0.42178 -1.27776,1.03253 -1.703,1.35722 -0.42525,0.32469 -1.09222,0.71164 -1.48216,0.8599 -0.38994,0.14825 -1.05842,0.26955 -1.48551,0.26955 -0.42709,0 -0.77653,0.065 -0.77653,0.14435 0,0.0794 0.4111,1.59743 0.91355,3.37344 0.50246,1.776 0.99438,3.70534 1.09316,4.28742 0.0988,0.58208 0.29128,1.27433 0.42776,1.53834 0.19506,0.37729 0.42822,0.44176 1.08966,0.30128 0.46282,-0.0983 1.04098,-0.35449 1.2848,-0.56932 0.24382,-0.21482 0.7448,-1.00524 1.1133,-1.75648 0.3685,-0.75125 1.39794,-2.08028 2.28764,-2.9534 l 1.61765,-1.5875 -0.18135,1.05833 c -0.0997,0.58208 -0.61429,1.70558 -1.14345,2.49666 -0.52915,0.79107 -1.67647,2.20811 -2.54959,3.14898 -0.87313,0.94086 -1.97718,1.87392 -2.45344,2.07348 -0.62935,0.2637 -1.00721,0.28722 -1.383,0.0861 -0.28438,-0.1522 -0.64637,-0.51834 -0.80442,-0.81366 -0.15805,-0.29532 -0.44578,-1.27485 -0.63941,-2.17675 -0.19362,-0.90189 -0.77756,-3.06856 -1.29763,-4.81481 -0.52008,-1.74625 -1.0731,-3.68102 -1.22895,-4.29948 -0.16568,-0.65754 -0.43832,-1.12448 -0.65655,-1.12448 -0.20527,0 -0.67858,0.40036 -1.05181,0.88968 -0.37323,0.48933 -0.87419,1.4716 -1.11326,2.18282 -0.23906,0.71122 -0.64656,1.56746 -0.90556,1.90275 -0.25899,0.3353 -0.71364,1.34733 -1.01032,2.24896 -0.29668,0.90163 -0.7344,2.41324 -0.97272,3.35913 -0.23831,0.94588 -0.56452,2.34486 -0.72491,3.10885 -0.21859,1.0412 -0.40863,1.38906 -0.75884,1.38906 z m 9.95371,-15.6114 c 0.30205,-5.5e-4 0.96591,-0.25375 1.47523,-0.56268 0.50932,-0.30893 1.37253,-0.9138 1.91823,-1.34416 0.5457,-0.43036 0.99219,-0.87169 0.99219,-0.98073 0,-0.10904 -0.20836,-0.20736 -0.46302,-0.21849 -0.25467,-0.0111 -1.35599,0.2141 -2.4474,0.50051 -1.09141,0.28641 -2.26352,0.70251 -2.60469,0.92466 l -0.62031,0.40392 0.60029,0.63898 c 0.33015,0.35143 0.84742,0.63853 1.14948,0.63799 z m 93.81482,15.6033 c -0.21828,0 -0.54788,-0.0959 -0.73244,-0.21299 -0.18456,-0.11714 -0.44309,-0.58791 -0.57451,-1.04616 -0.15673,-0.54649 -0.11609,-1.63256 0.11811,-3.1564 0.19638,-1.27777 0.49271,-2.91854 0.65851,-3.64614 0.1658,-0.7276 0.52683,-2.15635 0.80229,-3.175 0.27546,-1.01865 0.56686,-3.00398 0.64755,-4.41185 l 0.1467,-2.55977 -1.51733,-0.4411 c -0.83453,-0.2426 -1.9674,-0.67071 -2.51748,-0.95134 -0.71545,-0.36499 -1.00015,-0.68193 -1.00015,-1.1134 0,-0.33174 0.1373,-0.74047 0.30512,-0.90828 0.20461,-0.20461 0.46032,-0.22205 0.77629,-0.0529 0.25915,0.13869 1.32025,0.43077 2.35802,0.64907 1.03775,0.2183 2.10755,0.39691 2.37732,0.39691 0.38112,0 0.62033,-0.43741 1.07289,-1.96184 0.43017,-1.44904 0.71982,-1.99778 1.10811,-2.09933 0.28914,-0.0756 0.81364,-0.028 1.16555,0.1058 0.35191,0.13379 0.70391,0.41023 0.78222,0.61429 0.0783,0.20406 -0.0489,1.29724 -0.28277,2.42927 -0.23382,1.13204 -0.37068,2.20016 -0.30412,2.37361 0.0666,0.17345 1.17907,0.59141 2.47225,0.9288 2.3342,0.60899 2.35042,0.619 2.23852,1.38139 -0.062,0.42237 -0.26048,0.82466 -0.44109,0.89396 -0.18061,0.0693 -1.05492,-0.11874 -1.94291,-0.41789 -0.888,-0.29914 -2.00525,-0.53966 -2.48278,-0.53448 -0.7982,0.009 -0.92695,0.13545 -1.59585,1.57154 -0.40018,0.85917 -0.7276,1.81126 -0.7276,2.11575 0,0.3045 -0.18846,0.99629 -0.4188,1.53732 -0.23034,0.54103 -0.53622,1.99572 -0.67973,3.23265 -0.14351,1.23692 -0.342,3.53345 -0.44109,5.1034 -0.13266,2.10169 -0.28484,2.92046 -0.57705,3.1048 -0.21828,0.1377 -0.57547,0.25036 -0.79375,0.25036 z m -75.80313,-0.9716 c -1.06941,0.30693 -1.52572,0.31894 -2.38125,0.0627 -0.58208,-0.17435 -1.4158,-0.5034 -1.85271,-0.73124 -0.43691,-0.22784 -0.98916,-0.63481 -1.22723,-0.90437 -0.23808,-0.26956 -0.74381,-1.36041 -1.12386,-2.4241 -0.44051,-1.23295 -0.69099,-2.48534 -0.69099,-3.45499 0,-1.24435 0.18438,-1.8791 1.01374,-3.48996 0.55757,-1.08293 1.36124,-2.56934 1.78594,-3.30312 0.42471,-0.73378 1.18058,-1.837 1.67973,-2.45158 0.49915,-0.61458 1.51118,-1.56526 2.24896,-2.11261 0.73778,-0.54734 2.23439,-1.42742 3.3258,-1.95573 1.0914,-0.52831 2.60945,-1.14375 3.37343,-1.36763 1.2408,-0.36362 1.53195,-0.36464 2.72775,-0.01 0.73627,0.21865 1.79307,0.80806 2.34844,1.3098 0.76554,0.69162 1.1418,1.34393 1.55571,2.69705 0.30028,0.98164 0.60628,2.49917 0.68001,3.37229 0.12092,1.43199 0.0453,1.75597 -0.77152,3.30729 -0.49807,0.94589 -1.14504,2.20992 -1.43772,2.80896 -0.29267,0.59905 -1.09913,1.81316 -1.79214,2.69803 -0.693,0.88487 -1.79579,2.00898 -2.45063,2.49801 -0.65485,0.48903 -2.20266,1.38007 -3.43959,1.98009 -1.23692,0.60002 -2.84427,1.2618 -3.57187,1.47063 z m 0.36467,-2.75181 c 0.34608,0.015 1.28166,-0.34592 2.07904,-0.80214 0.79739,-0.45622 2.20992,-1.54055 3.13896,-2.40962 1.17428,-1.09848 1.90243,-2.05537 2.38886,-3.13926 0.38483,-0.85752 0.8025,-1.55913 0.92814,-1.55913 0.12565,0 0.22846,-0.19348 0.22846,-0.42994 0,-0.23647 0.30854,-1.11746 0.68565,-1.95778 0.66411,-1.47983 0.67414,-1.57968 0.31923,-3.17753 l -0.36643,-1.64969 -1.79141,-0.66218 -1.7914,-0.66217 -1.95752,0.99358 c -1.30088,0.6603 -2.42321,1.49344 -3.34583,2.48371 -0.76357,0.81957 -1.81906,2.27294 -2.34552,3.22972 -0.52648,0.95679 -1.16769,2.38554 -1.42493,3.175 -0.25724,0.78947 -0.5891,1.58315 -0.73747,1.76373 -0.15803,0.19233 -0.19574,0.82194 -0.091,1.52009 0.0997,0.66478 0.4649,1.53188 0.8259,1.96091 0.35596,0.42303 1.09289,0.88754 1.63762,1.03225 0.54474,0.14471 1.2736,0.27541 1.61969,0.29045 z m 63.68928,2.93776 c -0.19627,0 -0.47995,-0.14883 -0.6304,-0.33073 -0.15045,-0.1819 -0.39136,-0.92604 -0.53534,-1.65364 -0.14399,-0.72761 -0.40727,-1.73964 -0.58508,-2.24896 -0.17781,-0.50932 -0.48249,-1.28323 -0.67707,-1.71979 -0.19459,-0.43657 -0.53577,-1.51994 -0.75818,-2.4075 -0.22242,-0.88756 -0.39381,-2.07818 -0.38088,-2.64583 0.0129,-0.56765 -0.17877,-1.806 -0.42601,-2.75188 -0.24723,-0.94589 -0.50303,-1.8932 -0.56842,-2.10514 -0.0873,-0.28272 -0.29034,-0.17702 -0.76257,0.39688 -0.35401,0.43022 -0.85433,1.22419 -1.11182,1.76438 -0.32561,0.68309 -0.59948,0.94258 -0.89937,0.85217 -0.3103,-0.0935 -0.5514,0.1704 -0.8599,0.94142 -0.23578,0.58928 -0.4287,1.24211 -0.4287,1.45075 0,0.20863 -0.34312,1.43792 -0.76249,2.73176 -0.41937,1.29384 -0.89981,2.60901 -1.06764,2.9226 -0.16784,0.3136 -0.54282,0.57018 -0.83331,0.57018 -0.29049,0 -0.59133,-0.1646 -0.66852,-0.36577 -0.0772,-0.20118 0.037,-1.00485 0.25385,-1.78594 0.21681,-0.78109 1.00914,-3.19878 1.76073,-5.37264 0.75159,-2.17386 1.65312,-4.32822 2.00341,-4.78747 0.35029,-0.45925 0.63689,-0.93345 0.63689,-1.05378 0,-0.12033 0.16686,-0.40674 0.37081,-0.63648 0.20394,-0.22974 0.42714,-1.10556 0.49599,-1.94626 0.10854,-1.32537 0.25094,-1.65069 1.07128,-2.4474 0.52036,-0.50536 1.13355,-0.91884 1.36265,-0.91884 0.22909,0 0.52277,0.27942 0.65261,0.62093 0.12985,0.34151 0.24536,1.68097 0.25671,2.97656 0.0113,1.2956 0.26396,3.54626 0.56136,5.00146 0.29741,1.45521 0.6448,3.06256 0.77198,3.57188 0.12718,0.50932 0.50279,2.21705 0.83469,3.79496 0.49444,2.35058 0.64672,2.75691 0.84289,2.24896 0.13168,-0.34098 0.45369,-1.51293 0.71557,-2.60434 0.26188,-1.0914 0.55956,-2.63922 0.66151,-3.43958 0.10195,-0.80037 0.39956,-1.94881 0.66137,-2.5521 0.2618,-0.60329 0.55465,-1.49625 0.65078,-1.98437 0.0961,-0.48812 0.27042,-1.12561 0.3873,-1.41666 0.11688,-0.29104 0.34807,-0.95433 0.51375,-1.47399 0.16569,-0.51965 0.30125,-1.14635 0.30125,-1.39265 0,-0.24631 0.14883,-0.7141 0.33073,-1.03955 0.1819,-0.32545 0.34645,-0.62728 0.36565,-0.67075 0.0192,-0.0435 0.35784,0.002 0.75251,0.10108 0.59989,0.15056 0.69704,0.29372 0.59233,0.87278 -0.0689,0.38096 -0.38294,1.68369 -0.6979,2.89494 -0.31495,1.21125 -0.79113,2.75907 -1.05817,3.43959 -0.26704,0.68051 -0.68878,2.30887 -0.9372,3.61855 -0.24841,1.30969 -0.75025,3.51235 -1.1152,4.8948 -0.36494,1.38244 -0.89394,3.31721 -1.17555,4.29947 -0.30648,1.06904 -0.65526,1.78594 -0.86888,1.78594 z m -17.33785,-0.2845 c -0.22771,-0.0109 -1.36793,-0.35042 -2.53382,-0.75437 -1.1659,-0.40395 -2.49944,-0.93077 -2.96343,-1.17071 -0.46399,-0.23994 -0.96859,-0.43625 -1.12134,-0.43625 -0.15274,0 -0.27772,0.36313 -0.27772,0.80695 v 0.80696 l -1.52135,-0.0793 -1.52136,-0.0794 0.008,-1.98438 c 0.005,-1.0914 0.27699,-3.21639 0.60559,-4.72218 0.3286,-1.5058 0.66864,-3.70845 0.75564,-4.8948 0.087,-1.18633 0.27447,-2.30449 0.41659,-2.48479 0.14211,-0.1803 0.36645,-0.26103 0.49853,-0.1794 0.13209,0.0816 0.40534,-0.2471 0.60724,-0.73051 0.2019,-0.48342 0.56616,-1.64745 0.80948,-2.58673 0.40264,-1.55433 0.40482,-1.73526 0.0242,-2.01354 -0.22998,-0.16817 -0.41815,-0.47824 -0.41815,-0.68904 0,-0.21081 0.15826,-0.59971 0.35168,-0.86423 0.29242,-0.39991 0.44916,-0.42877 0.93033,-0.17125 0.52599,0.2815 0.59302,0.23792 0.73635,-0.47876 0.0867,-0.43364 0.3315,-0.85514 0.54393,-0.93665 0.21244,-0.0815 0.91482,-0.0151 1.56085,0.14755 0.8727,0.21975 1.2136,0.45117 1.32635,0.9004 0.0835,0.33256 0.0217,0.84765 -0.13724,1.14465 -0.24311,0.45424 -0.1814,0.61575 0.38849,1.01683 0.37263,0.26226 1.15867,0.86378 1.74675,1.33672 0.58809,0.47295 1.28337,0.8599 1.54507,0.8599 0.26171,0 0.5481,0.18833 0.63643,0.41851 0.0883,0.23019 0.1606,0.64027 0.1606,0.91129 0,0.27103 -0.26789,0.79833 -0.59531,1.17178 l -0.59532,0.67901 -2.0613,-1.18221 c -2.03184,-1.16532 -2.06438,-1.17387 -2.27676,-0.59811 -0.11851,0.32126 -0.42663,1.23895 -0.68471,2.03931 -0.25809,0.80037 -0.52187,1.59273 -0.58618,1.76082 -0.0668,0.1746 0.2597,0.38589 0.76164,0.49288 0.48321,0.103 1.53914,0.6346 2.34651,1.18134 0.80737,0.54673 1.84564,1.18937 2.30726,1.42808 0.46163,0.23872 0.97386,0.68542 1.1383,0.99269 0.24667,0.4609 0.20265,0.65501 -0.25156,1.10921 l -0.55055,0.55055 -1.92341,-0.90337 c -1.05786,-0.49685 -2.22105,-1.16093 -2.58485,-1.47573 -0.3638,-0.3148 -0.95911,-0.63717 -1.32292,-0.71638 -0.3638,-0.0792 -0.91379,-0.22299 -1.22219,-0.3195 -0.51161,-0.1601 -0.5746,-0.0519 -0.71887,1.23541 -0.087,0.77598 -0.23674,2.03596 -0.33282,2.79994 -0.17344,1.37913 -0.16953,1.38906 0.54759,1.38906 0.39725,0 1.72676,0.47072 2.95447,1.04604 1.22771,0.57533 2.39806,0.9824 2.60079,0.9046 0.22659,-0.0869 0.52879,0.16833 0.78439,0.66261 0.38085,0.73647 0.37823,0.88282 -0.0311,1.74124 -0.2458,0.51545 -0.63322,0.92821 -0.86093,0.91726 z m -5.03695,-27.27181 c -0.0768,-0.0218 -0.46869,-0.0894 -0.87094,-0.15023 -0.53061,-0.0802 -0.87592,-0.3939 -1.2579,-1.14265 -0.28959,-0.56763 -0.69244,-1.7433 -0.89524,-2.61259 -0.2635,-1.12952 -0.30335,-2.019 -0.13968,-3.11718 0.12596,-0.845164 0.34729,-2.340204 0.49185,-3.322304 0.14455,-0.9821 0.399,-2.29179 0.56543,-2.9104198 0.16642,-0.61862 0.4588,-1.42713 0.64973,-1.79668 0.34024,-0.65858 0.33021,-0.66993 -0.50547,-0.57237 -0.54676,0.0638 -0.97449,-0.0473 -1.1924,-0.30991 -0.1869,-0.22519 -0.40431,-0.89036 -0.48315,-1.47815 -0.0788,-0.58779 -0.23322,-1.06871 -0.34306,-1.06871 -0.10985,0 -0.26122,-0.38695 -0.3364,-0.85989 -0.10885,-0.68483 0.18771,-1.50632 1.45662,-4.03489998 0.87631,-1.74625002 1.90657,-3.68080002 2.28946,-4.29900002 0.39664,-0.6404 0.89896,-1.12421 1.16749,-1.12448 0.25923,-2.6e-4 0.53528,0.16618 0.61344,0.36987 0.0782,0.20369 -0.0337,0.94783 -0.24864,1.65365 -0.21492,0.70581 -0.87792,2.32725 -1.47334,3.60320002 -0.80493,1.72491998 -1.08257,2.65297998 -1.08257,3.61861998 0,1.02232 0.0985,1.32004 0.46302,1.39889 0.25466,0.0551 1.1481,-0.12585 1.98543,-0.40212 1.08084,-0.35661 1.75373,-0.78292 2.31999,-1.46984 0.43867,-0.53214 1.27513,-1.88540998 1.85879,-3.00724998 0.58367,-1.12183002 1.16719,-2.10519002 1.2967,-2.18524002 0.12952,-0.08 0.42379,0.0428 0.65393,0.27291 0.23054,0.23053 0.36442,0.67718 0.29813,0.99462 -0.0662,0.31689002 -0.30441,1.43311002 -0.52941,2.48048 -0.22499,1.04738 -0.40908,2.02964 -0.40908,2.18282 0,0.18432 1.58812,0.27995 4.69635,0.28279 3.3533,0.003 5.47592,0.14218 7.42229,0.48642 1.57784,0.27907 2.90375,0.65995 3.14815,0.90435 0.36007,0.36007 0.37277,0.54166 0.0862,1.23338 -0.18479,0.44613 -0.43358,0.81114 -0.55286,0.81114 -0.11928,0 -0.29547,-0.12718 -0.39153,-0.28262 -0.0961,-0.15544 -0.35249,-0.21439 -0.56983,-0.13099 -0.21733,0.0834 -0.9348,-0.0871 -1.59437,-0.37884 -1.06518,-0.47118 -1.77017,-0.53047 -6.30773,-0.53047 -2.80969,0 -5.40275,0.11187 -5.76236,0.24859 -0.54283,0.20638 -0.72701,0.57032 -1.08484,2.14355 -0.23705,1.04223 -0.5526,2.8651298 -0.70123,4.0508898 -0.14862,1.18576 -0.63234,3.313964 -1.07492,4.729324 -0.44259,1.41536 -1.16284,3.11407 -1.60056,3.7749 -0.43771,0.66084 -1.04787,1.37805 -1.35591,1.5938 -0.30803,0.21576 -0.62287,0.37445 -0.69963,0.35264 z m -0.50045,-2.07702 c 0.13,0 0.47441,-0.38695 0.76535,-0.8599 0.29093,-0.47294 0.76057,-1.6338 1.04365,-2.57968 0.28308,-0.94589 0.87569,-3.505734 1.31692,-5.688554 0.44123,-2.1828098 0.80328,-4.2961698 0.80454,-4.6963498 0.001,-0.40018 -0.0765,-0.7276 -0.17289,-0.7276 -0.0964,0 -0.69244,0.30312 -1.32462,0.6736 -0.79113,0.46364 -1.34824,1.06595 -1.78724,1.93228 -0.42784,0.8443 -0.78239,2.2992798 -1.07696,4.4196198 -0.24154,1.73852 -0.44564,3.783164 -0.45357,4.543634 -0.008,0.76047 0.13473,1.74274 0.31702,2.18281 0.18228,0.44008 0.43779,0.80014 0.5678,0.80014 z m -15.77715,-1.05833 c -0.3999,0 -0.65472,-0.19939 -0.76083,-0.59532 -0.0877,-0.32742 -0.16116,-1.75617 -0.16315,-3.175 -0.002,-1.418824 -0.0798,-2.579684 -0.17303,-2.579684 -0.0932,0 -1.04803,0.89296 -2.12187,1.984374 -1.3886,1.41131 -2.14197,1.98438 -2.6087,1.98438 -0.36095,0 -0.89439,-0.23813 -1.18543,-0.52917 -0.29104,-0.29104 -0.52917,-0.64205 -0.52917,-0.78001 0,-0.13797 0.57673,-0.941644 1.28163,-1.785944 0.70489,-0.8443 2.13133,-2.33448 3.16987,-3.31152 l 1.88825,-1.7764198 0.26376,-3.11837 c 0.14507,-1.7151 0.27563,-3.23743 0.29013,-3.38295 0.0145,-0.14552 0.0127,-0.85989 -0.004,-1.58749998 -0.0168,-0.7276 0.0232,-2.09682002 0.0889,-3.04271002 0.0656,-0.94588 0.19681,-2.02602 0.29149,-2.40031 0.0947,-0.37429 0.54021,-0.89794 0.99007,-1.16368 0.77424,-0.45735 0.83583,-0.45866 1.1533,-0.0245 0.18446,0.25227 0.43389,1.37124 0.55428,2.4866 0.12039,1.11536 0.19935,3.24832002 0.17546,4.7399 -0.0239,1.49159 0.0383,2.71198 0.13827,2.71198 0.0999,0 0.40839,-0.42092 0.68544,-0.93539 0.27706,-0.51446 1.04607,-1.43528 1.7089,-2.04626 0.66284,-0.61097998 1.219,-1.23184998 1.23592,-1.37971998 0.0169,-0.14786 0.0489,-0.41492 0.0711,-0.59346 0.0222,-0.17855 0.32997,-0.51444002 0.68402,-0.74641002 0.48022,-0.31466 0.7734,-0.35237 1.15434,-0.14851 0.28084,0.15031 0.66178,0.63821 0.84652,1.08423002 0.31032,0.74917 0.26773,0.91997 -0.55902,2.24183998 -0.49221,0.78699 -1.9665,2.69964 -3.27618,4.25032 -1.30969,1.55068 -2.5557,3.13601 -2.76892,3.52295 -0.26963,0.48933 -0.43935,1.9864298 -0.55742,4.9169798 -0.15906,3.947794 -0.20737,4.243904 -0.76613,4.696364 -0.328,0.2656 -0.86694,0.48291 -1.19765,0.48291 z m -12.55212,-1.60742 c -0.22771,-0.011 -1.36793,-0.35043 -2.53382,-0.75438 -1.16589,-0.40395 -2.49944,-0.93077 -2.96342,-1.1707 -0.46399,-0.23994 -0.9686,-0.43625 -1.12134,-0.43625 -0.15275,0 -0.27773,0.36313 -0.27773,0.80695 v 0.80695 l -1.52135,-0.0793 -1.52135,-0.0794 0.008,-1.98437 c 0.005,-1.091414 0.27698,-3.216394 0.60558,-4.722194 0.3286,-1.5057898 0.66864,-3.7084498 0.75565,-4.8947898 0.087,-1.18634 0.27446,-2.3045 0.41658,-2.48479 0.14211,-0.1803 0.36646,-0.26103 0.49854,-0.1794 0.13208,0.0816 0.40534,-0.2471 0.60723,-0.73052 0.2019,-0.48341 0.56617,-1.64743998 0.80948,-2.58671998 0.40264,-1.55434002 0.40482,-1.73526002 0.0242,-2.01354002 -0.22997,-0.16817 -0.41814,-0.47824 -0.41814,-0.68904 0,-0.21081 0.15825,-0.59971 0.35168,-0.86423 0.29242,-0.39992 0.44916,-0.42877 0.93033,-0.17126 0.52599,0.28151 0.59301,0.23793 0.73635,-0.47875 0.0867,-0.43364 0.3315,-0.85514 0.54393,-0.93666 0.21244,-0.0815 0.91482,-0.0151 1.56085,0.14755 0.8727,0.21975 1.2136,0.45117 1.32635,0.90041 0.0835,0.33255 0.0217,0.84765 -0.13725,1.14465 -0.2431,0.45424 -0.18139,0.61574 0.3885,1.01683 0.37263,0.26225 1.15866,0.86378 1.74675,1.33672 0.58808,0.47294002 1.28337,0.85990002 1.54507,0.85990002 0.2617,0 0.5481,0.18833 0.63642,0.41851 0.0883,0.23018 0.16061,0.64026 0.16061,0.91128998 0,0.27102 -0.2679,0.79833 -0.59532,1.17178 l -0.59531,0.67901 -2.0613,-1.18221 c -2.03184,-1.16531998 -2.06438,-1.17386998 -2.27676,-0.59811 -0.11851,0.32125 -0.42663,1.23895 -0.68472,2.03931 -0.25808,0.80036 -0.52186,1.59273 -0.58617,1.76081 -0.0668,0.1746 0.2597,0.38589 0.76164,0.49289 0.48321,0.103 1.53914,0.6346 2.34651,1.18133 0.80737,0.54674 1.84564,1.18938 2.30726,1.42809 0.46162,0.23871 0.97386,0.68542 1.1383,0.99269 0.24666,0.46089 0.20264,0.65501 -0.25157,1.1092098 l -0.55055,0.55055 -1.9234,-0.9033698 c -1.05788,-0.49686 -2.22106,-1.16094 -2.58487,-1.47573 -0.3638,-0.3148 -0.95911,-0.63717 -1.32291,-0.71639 -0.3638,-0.0792 -0.91379,-0.22299 -1.2222,-0.3195 -0.51161,-0.16009 -0.5746,-0.0518 -0.71887,1.23541 -0.087,0.77599 -0.23673,2.0359598 -0.33281,2.7999498 -0.17345,1.37913 -0.16953,1.38906 0.54758,1.38906 0.39726,0 1.72677,0.47072 2.95447,1.04604 1.22771,0.57532 2.39807,0.98239 2.6008,0.9046 0.22658,-0.087 0.52878,0.16833 0.78438,0.662614 0.38085,0.73647 0.37823,0.88282 -0.0311,1.74123 -0.2458,0.51545 -0.63322,0.92822 -0.86092,0.91727 z m -17.3111,-1.86329 c -0.4565,-0.0171 -1.36578,-0.12399 -2.02062,-0.23749 -0.65485,-0.11351 -1.82159,-0.45727 -2.59276,-0.76393 -0.77118,-0.306654 -1.90227,-0.808674 -2.51355,-1.115594 -0.61127,-0.30693 -1.73648,-1.0352 -2.50046,-1.61839 -0.96475,-0.73643 -1.38907,-1.24596 -1.38907,-1.66803 0,-0.40077 0.29282,-0.7877498 0.8599,-1.1364398 0.57635,-0.35438 1.12163,-0.48162 1.65365,-0.38586 0.43656,0.0786 1.15093,0.47895 1.5875,0.8897098 0.43656,0.41075 1.49155,1.0657 2.34442,1.45543 0.91256,0.41701 2.21911,0.76186 3.17501,0.83801 1.39739,0.11133 1.69234,0.054 2.1112,-0.41075 0.47842,-0.53077 0.46867,-0.55335 -0.5615,-1.2996 -0.57661,-0.41769 -1.77818,-1.0493198 -2.67016,-1.4036098 -1.60553,-0.63772 -1.62824,-0.66145 -2.26642,-2.36836 -0.54642,-1.46148 -0.60986,-1.93195 -0.41638,-3.08776 0.12554,-0.74997 0.41156,-1.71806 0.6356,-2.1513 0.22404,-0.43325 0.76578,-1.08931998 1.20388,-1.45795998 0.43809,-0.36863 1.18651,-0.79263 1.66314,-0.94223 0.47664,-0.1496 1.93818,-0.46303002 3.24787,-0.69651002 1.30969,-0.23349 2.57178,-0.48087 2.80465,-0.54975 0.27355,-0.0809 0.67151,0.23281 1.12448,0.88644 0.38559,0.55641002 0.70108,1.32963002 0.70108,1.71825002 0,0.50388998 -0.20872,0.81371998 -0.7276,1.08005998 -0.40019,0.20541 -1.38245,0.4984 -2.18282,0.6511 -0.80036,0.15269 -2.11801,0.35072 -2.9281,0.44005 -1.36668,0.15072 -1.49548,0.22487 -1.78594,1.02813 -0.17217,0.47613 -0.31304,1.11908 -0.31304,1.42876 0,0.32682 0.36078,0.83313 0.8599,1.20675 0.47294,0.35403 1.24298,0.8374 1.71119,1.07415 0.46821,0.23675 1.30165,0.52113 1.85208,0.63194 0.83882,0.16888 1.08982,0.38606 1.55092,1.34191 0.42837,0.8880198 0.5103,1.4028298 0.37019,2.3260398 -0.099,0.65209 -0.41462,1.50569 -0.70146,1.89689 -0.28684,0.3912 -1.09196,1.09822 -1.78916,1.571174 -0.82139,0.55719 -1.55981,0.84894 -2.09762,0.82877 z"
       id="path3213"
       inkscape:label="Sexyrodent"
       transform="matrix(0.3169784,0,0,0.3169784,-47.886615,64.350201)" />
    <path
       id="rect7321-12-0"
       style="display:inline;fill:none;stroke:#000000;stroke-opacity:1;stroke-width:0.1;stroke-dasharray:none"
       inkscape:label="contour 2"
       d="m 39.825803,83.11005 c -0.0386,0.001 -0.0774,0.004 -0.11678,0.008 l -17.295587,1.97921 c -0.62996,0.0721 -1.181841,0.57823 -1.181841,1.17616 v 0.83664 H -0.08336609 v 0.49971 H 21.231595 v 0.32039 H -0.08336609 v 0.26975 H 21.231595 v 0.49765 H -0.08336609 v 0.49971 H 21.231595 v 0.32039 H -0.08336609 v 0.26975 H 21.231595 v 0.497651 H -0.08336609 v 0.49971 H 21.231595 v 0.32039 H -0.08336609 v 0.26975 H 21.231595 v 0.49765 H -0.08336609 v 0.49971 H 21.231595 v 0.32039 H -0.08336609 v 0.26975 H 21.231595 v 2.85203 c 0,0.59793 0.551881,0.97798 1.181841,0.90589 l 17.295587,-1.97921 c 0.62995,-0.0721 1.18339,-0.57874 1.18339,-1.17668 v -0.60203 h 21.19405 v -0.26975 h -21.19405 v -0.32039 h 21.19405 v -0.49971 h -21.19405 v -0.49765 h 21.19405 v -0.26975 h -21.19405 v -0.32039 h 21.19405 v -0.49971 H 40.892413 V 89.78741 h 21.19405 v -0.26975 h -21.19405 v -0.32039 h 21.19405 v -0.49971 h -21.19405 v -0.49765 h 21.19405 v -0.26975 h -21.19405 v -0.32039 h 21.19405 v -0.49971 h -21.19405 v -3.08662 c 0,-0.56056 -0.4867,-0.92914 -1.06661,-0.91364 z m -0.12247,0.51728 c 0.34943,0.004 0.69668,0.32591 0.6966,0.51677 l -0.004,9.339481 c -1.2e-4,0.26535 -0.37567,0.72215 -0.74259,0.76429 l -17.088877,1.96267 c -0.406242,0.0467 -0.832927,-0.19987 -0.833025,-0.56431 l -0.0026,-9.429391 c 0.0078,-0.31583 0.368014,-0.59936 0.684715,-0.61702 l 17.220137,-1.96887 c 0.0232,-0.003 0.0465,-0.004 0.0698,-0.004 z m -0.47594,0.30954 c -0.0328,0.001 -0.0662,0.003 -0.0997,0.007 L 22.99534,85.79389 c -0.536421,0.0615 -0.997355,0.46803 -0.997355,0.94051 v 8.449101 c 0,0.47248 0.460934,0.77361 0.997355,0.7121 l 16.132353,-1.85002 c 0.53642,-0.0615 0.9958,-0.46803 0.9958,-0.94051 V 84.65597 c 0,-0.44295 -0.40364,-0.73521 -0.89607,-0.71933 z m -0.0207,0.25322 c 0.38836,-0.0138 0.66638,0.21112 0.66611,0.49506 l -0.008,8.426361 c -2.2e-4,0.2353 -0.3831,0.61733 -0.74518,0.65939 l -16.124593,1.87275 c -0.429114,0.0498 -0.745421,-0.186 -0.745172,-0.48886 l 0.0072,-8.448581 c 2.27e-4,-0.27635 0.360569,-0.60732 0.738457,-0.65112 l 16.132138,-1.8588 c 0.0268,-0.003 0.0532,-0.005 0.0791,-0.006 z" />
    <path
       style="display:inline;fill:none;stroke:#000000;stroke-opacity:1;stroke-width:0.1;stroke-dasharray:none;fill-opacity:1"
       d="m 23.161331,95.064632 c -0.120771,-0.02418 -0.139707,-0.04935 -0.179314,-0.236953 -0.07562,-0.358235 -0.06161,-0.791145 0.04215,-1.302147 0.03309,-0.162922 0.07118,-0.228469 0.175234,-0.301408 0.107449,-0.07541 0.199303,-0.09889 0.3992,-0.10199 0.176103,-0.003 0.177993,-0.002 0.269511,0.0439 0.05386,0.02735 0.109546,0.06837 0.13397,0.09909 0.04816,0.06025 0.04798,0.05648 0.02853,0.560278 -0.01197,0.310159 -0.0041,0.369463 0.05278,0.39491 0.132158,0.05916 0.477615,0.04954 0.847085,-0.02418 0.327954,-0.065 0.594723,-0.114517 0.731805,-0.135821 0.06376,-0.01018 0.12336,-0.02269 0.132428,-0.02854 0.03731,-0.02408 0.175283,-0.686004 0.22404,-1.074897 0.0722,-0.575866 0.06026,-1.058886 -0.03341,-1.352724 -0.03353,-0.105163 -0.07037,-0.180927 -0.09986,-0.205341 -0.03157,-0.02626 -0.141686,-0.0088 -0.602856,0.09136 -0.571189,0.124911 -0.920686,0.190607 -1.076302,0.20228 -0.177863,0.01358 -0.659028,-0.003 -0.808142,-0.02715 -0.195395,-0.03191 -0.355675,-0.106073 -0.420264,-0.194771 -0.02482,-0.03399 -0.02597,-0.09542 -0.03381,-1.796978 -0.0044,-0.968971 -0.0085,-1.963884 -0.0092,-2.210953 l -9.73e-4,-0.44921 0.04528,-0.06798 c 0.117033,-0.175814 0.362561,-0.286744 0.643808,-0.290886 0.228318,-0.003 0.370258,0.05014 0.45512,0.171661 0.03301,0.04727 0.03341,0.05143 0.04396,0.474527 0.0058,0.234752 0.01197,0.795596 0.01356,1.246341 l 0.0031,0.819526 -0.03928,0.372534 c -0.04447,0.421694 -0.05563,0.876958 -0.02482,1.012799 0.03552,0.15664 0.05926,0.216747 0.08846,0.224051 0.03998,0.01018 0.270472,-0.01764 0.577955,-0.06936 0.291439,-0.04895 1.112606,-0.194244 1.160665,-0.205332 l 0.03045,-0.0059 v -1.998834 c 0,-1.524254 0.0039,-2.012368 0.0164,-2.055808 0.02574,-0.08948 0.148444,-0.207602 0.28439,-0.273902 0.154134,-0.07512 0.27465,-0.105229 0.436902,-0.108841 0.117307,-0.003 0.154653,0.003 0.280089,0.04093 l 0.144734,0.044 0.0057,2.349797 c 0.0049,1.994957 0.0092,2.400706 0.02808,2.686916 0.03081,0.464488 0.04304,1.297569 0.02319,1.576791 -0.04129,0.580553 -0.160282,1.106439 -0.292004,1.290615 -0.08002,0.111882 -0.19991,0.208701 -0.37509,0.302885 -0.175648,0.09442 -0.297308,0.135069 -0.606542,0.202537 -0.460936,0.100545 -0.902115,0.165579 -1.272334,0.187547 -0.107945,0.0059 -0.363765,0.03597 -0.568488,0.0658 -0.387483,0.05638 -0.764758,0.08205 -0.875793,0.05974 z m 5.337805,-0.690858 c -0.08597,-0.01457 -0.160793,-0.0651 -0.192842,-0.130283 -0.04127,-0.08393 -0.03569,-0.590203 0.0116,-1.0517 0.07065,-0.689441 0.09113,-1.159202 0.09106,-2.088241 -5.2e-5,-0.685487 -0.0059,-0.882743 -0.05414,-1.789794 -0.04482,-0.845209 -0.05348,-1.087382 -0.06252,-1.748336 -0.0089,-0.648329 1.02e-4,-0.873726 0.04324,-1.088849 0.04114,-0.205034 0.08644,-0.285376 0.198602,-0.352162 0.198745,-0.118351 0.488469,-0.175278 1.194626,-0.234712 0.171225,-0.01437 0.481862,-0.04736 0.690309,-0.07303 0.922468,-0.114091 1.321039,-0.150297 1.732539,-0.157661 l 0.338386,-0.0059 0.06426,0.03736 c 0.08812,0.05133 0.104976,0.09027 0.104976,0.242451 0,0.225784 -0.06319,0.956297 -0.08861,1.024005 -0.03924,0.104617 -0.467938,0.192529 -0.906285,0.185881 -0.145394,-0.002 -0.256787,-0.01062 -0.302571,-0.02329 -0.03982,-0.01095 -0.074,-0.02189 -0.07585,-0.02408 -0.002,-0.002 0.01675,-0.227707 0.04128,-0.500835 0.02464,-0.273129 0.03135,-0.204341 0.03475,-0.33612 0.002,-0.07025 -0.07079,-0.02765 -0.202707,-0.03488 -0.110562,0.003 -0.417384,0.0315 -0.603472,0.05708 -0.350032,0.04964 -0.931917,0.162854 -0.951654,0.200934 -0.04922,0.09493 -0.0124,1.01362 0.02695,1.757461 0.06272,1.185529 0.08406,2.259138 0.0639,3.210938 -0.01585,0.748825 -0.02228,0.870438 -0.08083,1.53457 -0.05409,0.613441 -0.0748,0.804097 -0.05644,0.838729 0.03025,0.05707 0.177262,0.01962 0.71381,-0.05539 0.182391,-0.02537 0.386989,-0.0545 0.468877,-0.06054 0.35945,-0.02646 0.560959,-0.05341 0.678358,-0.172355 0.124579,-0.126428 0.117411,-0.07908 0.178366,-1.070736 0.02376,-0.387101 0.05229,-1.712593 0.03963,-1.846394 -0.02054,-0.217599 -0.07556,-0.37744 -0.134995,-0.391659 -0.0185,-0.004 -0.09611,5.85e-4 -0.172416,0.01018 -0.286271,0.03874 -0.555815,0.02199 -0.683826,-0.04241 -0.142938,-0.07194 -0.174962,-0.211604 -0.09108,-0.397198 0.04133,-0.09136 0.140434,-0.222187 0.199233,-0.262843 0.06565,-0.04538 0.374807,-0.08978 1.122892,-0.161208 0.314293,-0.03012 0.389777,-0.01018 0.657703,0.167659 l 0.16119,0.107342 0.0087,0.472804 c 0.0048,0.260049 0.02084,0.661666 0.03593,0.892494 0.06349,0.972509 0.06339,1.433124 -1.46e-4,1.876953 -0.03116,0.217718 -0.102362,0.515857 -0.154596,0.647487 -0.08286,0.208889 -0.288355,0.330472 -0.712428,0.421534 -0.616672,0.132423 -1.633392,0.277073 -2.624604,0.373407 -0.424905,0.04132 -0.666603,0.0543 -0.749138,0.04023 z m 5.615141,-0.681178 c -0.119757,-0.01566 -0.10784,0.04241 -0.126204,-0.615471 -0.01869,-0.670893 -0.03554,-0.999134 -0.110515,-2.156929 -0.106773,-1.64886 -0.123984,-2.046921 -0.124364,-2.87683 -4.67e-4,-0.965275 0.04606,-1.630697 0.165707,-2.371813 0.04216,-0.260911 0.03389,-0.240411 0.112152,-0.277885 0.148617,-0.07124 0.578766,-0.139497 0.908883,-0.144452 0.134032,-0.002 0.214208,0.002 0.235912,0.01348 0.08812,0.04419 0.377275,0.604491 0.74973,1.615288 0.114878,0.311775 0.257702,0.646664 0.294987,0.740759 0.177477,0.447882 0.555776,1.402199 1.061551,2.509438 0.541112,1.18457 0.725776,1.503566 0.73488,1.47928 0.01607,-0.04301 -0.01178,-1.942262 -0.03126,-2.715365 -0.01568,-0.621009 -0.01724,-1.093307 -0.0078,-2.341501 0.0058,-0.859943 0.01588,-1.574335 0.02113,-1.587525 0.01236,-0.03101 0.07732,-0.07204 0.16188,-0.102087 0.110605,-0.03944 0.308482,-0.06639 0.692418,-0.09432 0.43264,-0.0314 0.415132,-0.03082 0.404568,-0.01268 -0.0112,0.01863 -0.04197,0.403373 -0.06232,0.779147 -0.02289,0.421861 -0.02006,1.68923 0.0058,2.727207 0.02677,1.064691 0.0295,1.137669 0.07041,1.865289 0.07732,1.376762 0.07565,2.012379 -0.0068,2.617207 -0.02756,0.201893 -0.04217,0.248118 -0.09036,0.286328 -0.11518,0.09126 -0.42859,0.155045 -0.792144,0.161266 -0.325766,0.005 -0.308258,0.01655 -0.38448,-0.239487 -0.155999,-0.523934 -0.476993,-0.968813 -0.982108,-1.938646 -0.420195,-0.806793 -0.321402,-0.669178 -1.216663,-2.714731 -0.37044,-0.846378 -0.631191,-1.564812 -0.637656,-1.571907 -0.01548,-0.01704 0.01236,0.871517 0.02872,2.018562 0.01227,0.855434 0.04693,3.393787 0.0592,4.334794 l 0.0058,0.416837 -0.03408,0.02784 c -0.01879,0.01526 -0.06524,0.03785 -0.103287,0.04994 -0.20552,0.0658 -0.838056,0.141171 -1.003148,0.119491 z"
       id="path3141-3"
       sodipodi:nodetypes="cssccccssccssscccccsccscssccssccccssccccccsssscccccssscsssccccssscccssccsssssccsssccscscccsssssscccsssscscssssccscccsssssccsssssccccc"
       inkscape:label="logo" />
    <path
       id="path9866"
       d="M 30.383675 3.2850708 C 30.316013 3.2870001 30.253415 3.3032953 30.19609 3.3341634 C 30.134941 3.367089 30.086299 3.4124518 30.049845 3.4700724 C 30.013392 3.5265169 29.995068 3.5914685 29.995068 3.6643758 C 29.995068 3.7384589 30.012498 3.8041592 30.047778 3.8617798 C 30.083055 3.9182242 30.130949 3.9626958 30.190922 3.9956217 C 30.25207 4.0273717 30.319035 4.0436808 30.391943 4.0436808 C 30.457794 4.0436808 30.517684 4.0282628 30.571777 3.9976888 C 30.627049 3.9659391 30.668614 3.9260128 30.696834 3.8777995 C 30.696834 3.9659939 30.686101 4.0458467 30.663761 4.1175781 C 30.642593 4.1893096 30.608852 4.2462938 30.562992 4.2886271 C 30.518307 4.3309604 30.459683 4.3521891 30.386776 4.3521891 C 30.343264 4.3521891 30.307509 4.3447388 30.279289 4.3294515 C 30.251062 4.3129888 30.228569 4.2925087 30.212109 4.2689901 C 30.196823 4.2442961 30.185203 4.2197874 30.176969 4.1950928 L 30.028658 4.1950928 C 30.039245 4.2409538 30.057939 4.2863165 30.084985 4.3310018 C 30.11321 4.3745113 30.151871 4.4102668 30.201257 4.4384888 C 30.250646 4.4667107 30.312692 4.4808634 30.386776 4.4808634 C 30.533766 4.4808634 30.643938 4.427159 30.718022 4.3201497 C 30.792105 4.2131405 30.829126 4.0675874 30.829126 3.8829671 C 30.829126 3.6912912 30.792996 3.5435815 30.720089 3.4401001 C 30.647181 3.3366187 30.539398 3.2850708 30.397111 3.2850708 C 30.392554 3.2850708 30.388186 3.2849422 30.383675 3.2850708 z M 30.910775 3.2990234 L 31.383097 4.4669108 L 31.535026 4.4669108 L 32.007865 3.2990234 L 31.863171 3.2990234 L 31.459062 4.3170492 L 31.054952 3.2990234 L 30.910775 3.2990234 z M 30.387809 3.4137451 C 30.390864 3.4136624 30.394024 3.4137451 30.397111 3.4137451 C 30.447678 3.4137451 30.49304 3.4249922 30.53302 3.4473348 C 30.574173 3.4685014 30.606652 3.4984465 30.630172 3.5372518 C 30.654865 3.5760574 30.666862 3.6214202 30.666862 3.6731608 C 30.666862 3.7213734 30.654865 3.7642052 30.630172 3.8018351 C 30.606658 3.8382891 30.57418 3.8669681 30.53302 3.8881348 C 30.49186 3.9081254 30.446498 3.9181071 30.397111 3.9181071 C 30.347725 3.9181072 30.302362 3.9068601 30.261202 3.8845174 C 30.221222 3.8621754 30.18926 3.8322304 30.164567 3.7946004 C 30.139874 3.7557952 30.12736 3.7125891 30.12736 3.6643758 C 30.12736 3.6149873 30.139874 3.5712644 30.164567 3.5336344 C 30.18926 3.4960045 30.221222 3.4664344 30.261202 3.4452677 C 30.299789 3.425424 30.341991 3.4149854 30.387809 3.4137451 z "
       style="display:inline;fill:none;stroke:#000000;stroke-opacity:1;stroke-width:0.1;stroke-dasharray:none;font-size:1.76389px;line-height:1.25;font-family:Questrial;-inkscape-font-specification:'Questrial, Normal';letter-spacing:0px;word-spacing:0px" />
    <path
       id="path9810"
       d="M -29.646769 29.690694 L -29.897917 29.690694 L -29.897917 30.632239 C -29.960476 30.540632 -30.042321 30.468301 -30.142863 30.414681 C -30.24117 30.361061 -30.359356 30.334066 -30.49788 30.334066 C -30.660981 30.334066 -30.80391 30.373173 -30.926794 30.451371 C -31.047444 30.527337 -31.141403 30.631159 -31.208431 30.76298 C -31.275458 30.892567 -31.3092 31.037746 -31.3092 31.198612 C -31.3092 31.357245 -31.275458 31.502424 -31.208431 31.634245 C -31.141403 31.766066 -31.047444 31.871272 -30.926794 31.949471 C -30.80391 32.025436 -30.660981 32.063676 -30.49788 32.063676 C -30.359356 32.063676 -30.24117 32.036681 -30.142863 31.983061 C -30.042322 31.929439 -29.960477 31.857973 -29.897917 31.768604 L -29.897917 32.036804 L -29.646769 32.036804 L -29.646769 29.690694 z M -29.884481 31.198612 C -29.884481 31.31256 -29.906974 31.418632 -29.95166 31.516939 C -29.996345 31.61301 -30.062445 31.690356 -30.149581 31.74845 C -30.234483 31.806543 -30.339172 31.835783 -30.46429 31.835783 C -30.587174 31.835783 -30.693247 31.806543 -30.782617 31.74845 C -30.871987 31.690359 -30.940336 31.613013 -30.987256 31.516939 C -31.034176 31.418632 -31.057536 31.31256 -31.057536 31.198612 C -31.057536 31.082431 -31.034176 30.976359 -30.987256 30.880286 C -30.940337 30.784215 -30.871988 30.707385 -30.782617 30.649292 C -30.693247 30.591199 -30.587174 30.561959 -30.46429 30.561959 C -30.339172 30.561959 -30.234483 30.591199 -30.149581 30.649292 C -30.062446 30.707383 -29.996347 30.784212 -29.95166 30.880286 C -29.906974 30.976359 -29.884481 31.082431 -29.884481 31.198612 z M -31.513322 31.198612 C -31.513322 31.037746 -31.547063 30.892567 -31.614091 30.76298 C -31.681119 30.631159 -31.777327 30.527337 -31.902445 30.451371 C -32.025329 30.373173 -32.172758 30.334066 -32.344796 30.334066 C -32.5146 30.334066 -32.662027 30.373173 -32.787146 30.451371 C -32.912264 30.527337 -33.007956 30.631159 -33.074984 30.76298 C -33.142012 30.892567 -33.175753 31.037746 -33.175753 31.198612 C -33.175753 31.357245 -33.141145 31.502424 -33.071883 31.634245 C -33.000387 31.766066 -32.901063 31.871272 -32.77371 31.949471 C -32.646358 32.025436 -32.497546 32.063676 -32.327743 32.063676 C -32.128894 32.063676 -31.967103 32.016439 -31.841984 31.922599 C -31.714634 31.826527 -31.622058 31.703842 -31.563965 31.554146 L -31.838367 31.554146 C -31.883052 31.636816 -31.946036 31.704648 -32.026469 31.758268 C -32.106902 31.809655 -32.206226 31.835783 -32.324642 31.835783 C -32.436354 31.835783 -32.534296 31.811906 -32.619198 31.764986 C -32.704101 31.715833 -32.77245 31.651116 -32.823836 31.570683 C -32.87299 31.488015 -32.904481 31.397689 -32.917887 31.299382 L -31.513322 31.299382 L -31.513322 31.198612 z M -31.774805 31.064771 L -32.91427 31.064771 C -32.889693 30.921778 -32.829476 30.802209 -32.733403 30.706136 C -32.635095 30.610063 -32.505662 30.561959 -32.344796 30.561959 C -32.183929 30.561959 -32.053979 30.610063 -31.955672 30.706136 C -31.857362 30.802209 -31.797145 30.921778 -31.774805 31.064771 z M -33.507515 29.690694 L -33.758663 29.690694 L -33.758663 32.036804 L -33.507515 32.036804 L -33.507515 29.690694 z "
       style="display:inline;fill:none;stroke:#000000;stroke-opacity:1;stroke-width:0.1;stroke-dasharray:none;font-size:3.35139px;line-height:1.25;font-family:Questrial;-inkscape-font-specification:'Questrial, Normal';letter-spacing:0px;word-spacing:0px"
       transform="rotate(-90)" />
    <path
       id="path9817"
       d="M -31.792375 32.556152 L -32.063676 32.556152 L -32.063676 32.884814 L -31.792375 32.884814 L -31.792375 32.556152 z M -31.802193 33.166451 L -32.053857 33.166451 L -32.053857 34.841801 L -31.802193 34.841801 L -31.802193 33.166451 z M -32.375285 34.365861 C -32.375285 34.260852 -32.40228 34.178657 -32.4559 34.118331 C -32.509522 34.055771 -32.578737 34.007667 -32.663639 33.974154 C -32.748541 33.94064 -32.838867 33.915029 -32.934941 33.897156 C -33.028779 33.877049 -33.118239 33.856801 -33.203141 33.836694 C -33.288045 33.814348 -33.357261 33.785108 -33.410881 33.749361 C -33.4645 33.713613 -33.491496 33.662393 -33.491496 33.595365 C -33.491496 33.434499 -33.358431 33.354036 -33.092554 33.354036 C -32.951797 33.354036 -32.851607 33.379648 -32.79128 33.431034 C -32.728718 33.482422 -32.692726 33.544023 -32.683793 33.615519 L -32.429028 33.615519 C -32.437968 33.532851 -32.467208 33.455505 -32.516361 33.384009 C -32.563281 33.312514 -32.633362 33.254546 -32.727201 33.209859 C -32.818806 33.162939 -32.938375 33.139579 -33.085836 33.139579 C -33.302559 33.139579 -33.467116 33.181801 -33.578829 33.266703 C -33.688307 33.349371 -33.742643 33.466691 -33.742643 33.61862 C -33.742643 33.721394 -33.716165 33.803239 -33.662545 33.863566 C -33.608923 33.921657 -33.539707 33.967512 -33.454806 34.001025 C -33.369904 34.032305 -33.280443 34.057917 -33.186605 34.078023 C -33.090532 34.098137 -33.000205 34.119245 -32.915304 34.141585 C -32.8304 34.161699 -32.760667 34.190938 -32.707048 34.228918 C -32.653428 34.266901 -32.626949 34.32037 -32.626949 34.389632 C -32.626949 34.44549 -32.642695 34.491345 -32.673975 34.527091 C -32.705254 34.562838 -32.74436 34.589317 -32.79128 34.60719 C -32.835965 34.625063 -32.882687 34.637697 -32.93184 34.644397 C -32.980995 34.651104 -33.02235 34.654215 -33.055863 34.654215 C -33.163108 34.654215 -33.250319 34.63847 -33.317346 34.60719 C -33.384375 34.573675 -33.434728 34.531453 -33.468241 34.480066 C -33.499521 34.426441 -33.518385 34.371588 -33.525085 34.315735 L -33.786568 34.315735 C -33.779862 34.414042 -33.74837 34.505752 -33.692517 34.590653 C -33.63666 34.673323 -33.556198 34.740288 -33.451188 34.791675 C -33.343944 34.843061 -33.213128 34.868673 -33.058964 34.868673 C -32.851178 34.868673 -32.686271 34.826451 -32.563387 34.741549 C -32.438269 34.654413 -32.375285 34.528962 -32.375285 34.365861 z "
       style="display:inline;fill:none;stroke:#000000;stroke-opacity:1;stroke-width:0.1;stroke-dasharray:none;font-size:3.35139px;line-height:1.25;font-family:Questrial;-inkscape-font-specification:'Questrial, Normal';letter-spacing:0px;word-spacing:0px"
       transform="rotate(-90)" />
    <path
       id="path9822"
       d="M 48.540706 54.097473 L 48.540706 57.011507 L 48.852832 57.011507 L 48.852832 54.097473 L 48.540706 54.097473 z M 44.823621 54.896908 C 44.615482 54.896908 44.434687 54.945503 44.282052 55.042635 C 44.129416 55.136991 44.010481 55.265956 43.924451 55.429692 C 43.841195 55.590653 43.799394 55.770931 43.799394 55.970744 C 43.799394 56.167782 43.841195 56.34806 43.924451 56.511796 C 44.010481 56.675532 44.129416 56.805855 44.282052 56.902987 C 44.434687 56.997343 44.615482 57.04458 44.823621 57.04458 C 45.070612 57.04458 45.279945 56.981036 45.452006 56.853377 C 45.626843 56.725719 45.744936 56.560389 45.80599 56.3578 L 45.468542 56.3578 C 45.421365 56.477134 45.345073 56.574325 45.239616 56.649255 C 45.136934 56.724185 45.012046 56.761393 44.864962 56.761393 C 44.712327 56.761393 44.579285 56.725544 44.465503 56.653389 C 44.35172 56.581234 44.26404 56.485401 44.202987 56.366069 C 44.141933 56.24396 44.111519 56.112278 44.111519 55.970744 C 44.111519 55.826434 44.141933 55.694752 44.202987 55.575419 C 44.264041 55.456086 44.35172 55.360253 44.465503 55.288098 C 44.579285 55.215943 44.712327 55.179578 44.864962 55.179578 C 45.012046 55.179578 45.136934 55.217302 45.239616 55.292232 C 45.345071 55.367162 45.421363 55.464355 45.468542 55.583687 L 45.80599 55.583687 C 45.744936 55.381099 45.626843 55.215769 45.452006 55.08811 C 45.279945 54.960452 45.070612 54.896908 44.823621 54.896908 z M 47.09635 54.896908 C 46.885436 54.896908 46.701923 54.945503 46.546513 55.042635 C 46.391103 55.136991 46.272168 55.265956 46.188912 55.429692 C 46.105657 55.590653 46.063855 55.770931 46.063855 55.970744 C 46.063855 56.167782 46.105657 56.34806 46.188912 56.511796 C 46.272168 56.675532 46.391103 56.805855 46.546513 56.902987 C 46.701923 56.997343 46.885436 57.04458 47.09635 57.04458 C 47.310039 57.04458 47.493035 56.997343 47.645671 56.902987 C 47.801081 56.805855 47.920533 56.675532 48.003788 56.511796 C 48.087044 56.34806 48.128845 56.167782 48.128845 55.970744 C 48.128845 55.770931 48.087044 55.590653 48.003788 55.429692 C 47.920533 55.265956 47.801081 55.136991 47.645671 55.042635 C 47.493035 54.945503 47.310039 54.896908 47.09635 54.896908 z M 50.297188 54.896908 C 50.086275 54.896908 49.903278 54.945503 49.747868 55.042635 C 49.592458 55.136991 49.473006 55.265956 49.38975 55.429692 C 49.306495 55.590653 49.26521 55.770931 49.26521 55.970744 C 49.26521 56.167782 49.306495 56.34806 49.38975 56.511796 C 49.473006 56.675532 49.592458 56.805855 49.747868 56.902987 C 49.903278 56.997343 50.086275 57.04458 50.297188 57.04458 C 50.510877 57.04458 50.69439 56.997343 50.847026 56.902987 C 51.002436 56.805855 51.121888 56.675532 51.205143 56.511796 C 51.288399 56.34806 51.329683 56.167782 51.329683 55.970744 C 51.329683 55.770931 51.288399 55.590653 51.205143 55.429692 C 51.121888 55.265956 51.002436 55.136991 50.847026 55.042635 C 50.69439 54.945503 50.510877 54.896908 50.297188 54.896908 z M 55.152706 54.896908 C 55.034977 54.89951 54.931623 54.921422 54.843164 54.963053 C 54.751582 55.004682 54.675291 55.055996 54.614237 55.117049 C 54.553182 55.178104 54.505944 55.239447 54.472644 55.3005 C 54.442117 55.358777 54.421216 55.406014 54.410116 55.442094 L 54.410116 54.92998 L 54.09799 54.92998 L 54.09799 57.011507 L 54.410116 57.011507 L 54.410116 56.095801 C 54.410116 55.943166 54.439169 55.800095 54.497449 55.666886 C 54.558503 55.530903 54.644824 55.420963 54.755831 55.337708 C 54.869613 55.251677 55.004013 55.209033 55.159424 55.209033 L 55.197148 55.209033 L 55.197148 54.896908 L 55.17596 54.896908 C 55.167982 54.896908 55.160554 54.896734 55.152706 54.896908 z M 51.720874 54.92998 L 51.720874 56.141276 C 51.720874 56.338314 51.759958 56.505003 51.837663 56.640987 C 51.918143 56.774196 52.02213 56.875465 52.149788 56.944845 C 52.277447 57.011451 52.412364 57.04458 52.553898 57.04458 C 52.723185 57.04458 52.861662 57.01009 52.969893 56.94071 C 53.078126 56.871331 53.169882 56.786369 53.244812 56.686462 L 53.244812 57.011507 L 53.556938 57.011507 L 53.556938 54.92998 L 53.244812 54.92998 L 53.244812 56.128874 C 53.244812 56.253757 53.215759 56.363179 53.157479 56.457536 C 53.101976 56.551889 53.027043 56.626822 52.932686 56.682328 C 52.83833 56.735055 52.732468 56.761393 52.61591 56.761393 C 52.446623 56.761393 52.306788 56.704644 52.19578 56.590861 C 52.087549 56.474303 52.033516 56.32172 52.033516 56.133008 L 52.033516 54.92998 L 51.720874 54.92998 z M 47.09635 55.179578 C 47.251761 55.179578 47.382083 55.215943 47.487541 55.288098 C 47.59577 55.360253 47.677497 55.456086 47.733004 55.575419 C 47.78851 55.694752 47.816203 55.826434 47.816203 55.970744 C 47.816203 56.112278 47.78851 56.24396 47.733004 56.366069 C 47.6775 56.485401 47.595773 56.581234 47.487541 56.653389 C 47.382083 56.725544 47.251761 56.761393 47.09635 56.761393 C 46.943716 56.761393 46.813392 56.725544 46.70516 56.653389 C 46.59693 56.581234 46.514686 56.485401 46.45918 56.366069 C 46.403673 56.24396 46.375981 56.112278 46.375981 55.970744 C 46.375981 55.826434 46.403673 55.694752 46.45918 55.575419 C 46.514684 55.456086 46.596928 55.360253 46.70516 55.288098 C 46.813392 55.215943 46.943716 55.179578 47.09635 55.179578 z M 50.297188 55.179578 C 50.452599 55.179578 50.583438 55.215943 50.688896 55.288098 C 50.797125 55.360253 50.878852 55.456086 50.934359 55.575419 C 50.989865 55.694752 51.017558 55.826434 51.017558 55.970744 C 51.017558 56.112278 50.989865 56.24396 50.934359 56.366069 C 50.878855 56.485401 50.797128 56.581234 50.688896 56.653389 C 50.583438 56.725544 50.452599 56.761393 50.297188 56.761393 C 50.144554 56.761393 50.01423 56.725544 49.905998 56.653389 C 49.797768 56.581234 49.716041 56.485401 49.660535 56.366069 C 49.605035 56.24396 49.577336 56.112278 49.577336 55.970744 C 49.577336 55.826434 49.605035 55.694752 49.660535 55.575419 C 49.716039 55.456086 49.797766 55.360253 49.905998 55.288098 C 50.01423 55.215943 50.144554 55.179578 50.297188 55.179578 z "
       style="display:inline;fill:none;stroke:#000000;stroke-opacity:1;stroke-width:0.1;stroke-dasharray:none;font-size:4.16278px;line-height:1.25;font-family:Questrial;-inkscape-font-specification:'Questrial, Normal';letter-spacing:0px;word-spacing:0px" />
    <path
       id="path9835"
       d="M 10.426754 24.058997 L 10.426754 26.973031 L 10.738879 26.973031 L 10.738879 24.058997 L 10.426754 24.058997 z M 8.9823975 24.858431 C 8.7714835 24.858431 8.5879705 24.906511 8.4325602 25.003642 C 8.2771499 25.097998 8.1576981 25.227479 8.0744425 25.391215 C 7.9911871 25.552176 7.9499023 25.732454 7.9499023 25.932267 C 7.9499023 26.129305 7.9911871 26.309584 8.0744425 26.473319 C 8.1576981 26.637055 8.2771499 26.767379 8.4325602 26.86451 C 8.5879705 26.958867 8.7714835 27.006104 8.9823975 27.006104 C 9.1960866 27.006104 9.3790828 26.958867 9.5317179 26.86451 C 9.6871282 26.767379 9.8065802 26.637055 9.8898356 26.473319 C 9.9730913 26.309584 10.014376 26.129305 10.014376 25.932267 C 10.014376 25.732454 9.9730913 25.552176 9.8898356 25.391215 C 9.8065802 25.227479 9.6871282 25.097998 9.5317179 25.003642 C 9.3790828 24.906511 9.1960866 24.858431 8.9823975 24.858431 z M 14.5495 24.858431 C 14.394697 24.862821 14.269559 24.900322 14.173295 24.970569 C 14.070615 25.045499 13.995683 25.124508 13.948503 25.207764 L 13.948503 24.891504 L 13.636377 24.891504 L 13.636377 26.973031 L 13.948503 26.973031 L 13.948503 25.728145 C 13.948503 25.542208 14.003893 25.397779 14.114901 25.295097 C 14.225908 25.192416 14.35759 25.141101 14.510225 25.141101 C 14.65731 25.141101 14.779479 25.195133 14.876611 25.303365 C 14.976518 25.408822 15.026473 25.549175 15.026473 25.724011 L 15.026473 26.973031 L 15.338599 26.973031 L 15.338599 25.728145 C 15.338599 25.542208 15.393989 25.397779 15.504997 25.295097 C 15.616004 25.192416 15.748203 25.141101 15.900838 25.141101 C 16.047923 25.141101 16.170093 25.195133 16.267224 25.303365 C 16.367131 25.408822 16.417086 25.549175 16.417086 25.724011 L 16.417086 26.973031 L 16.729211 26.973031 L 16.729211 25.715743 C 16.729211 25.540907 16.691487 25.389682 16.616557 25.262024 C 16.544402 25.131591 16.450444 25.031681 16.333887 24.962301 C 16.217329 24.892921 16.092441 24.858431 15.959233 24.858431 C 15.823248 24.858431 15.706514 24.883409 15.609383 24.933362 C 15.512251 24.983312 15.433242 25.041422 15.372188 25.108028 C 15.31391 25.174631 15.270751 25.23138 15.242997 25.27856 C 15.176393 25.145352 15.083278 25.042723 14.963944 24.970569 C 14.847387 24.895639 14.719781 24.858431 14.581022 24.858431 C 14.570442 24.858431 14.55982 24.858138 14.5495 24.858431 z M 18.152897 24.858431 C 17.941983 24.858431 17.75847 24.906511 17.60306 25.003642 C 17.44765 25.097998 17.328715 25.227479 17.245459 25.391215 C 17.162204 25.552176 17.120402 25.732454 17.120402 25.932267 C 17.120402 26.129305 17.163563 26.309584 17.249593 26.473319 C 17.338399 26.637055 17.461928 26.767379 17.620113 26.86451 C 17.778299 26.958867 17.962654 27.006104 18.173568 27.006104 C 18.420559 27.006104 18.621739 26.947995 18.777148 26.831437 C 18.935334 26.712105 19.050709 26.559522 19.122864 26.373584 L 18.781283 26.373584 C 18.725779 26.476264 18.648128 26.560709 18.548222 26.627315 C 18.448315 26.691142 18.324786 26.722917 18.177702 26.722917 C 18.038943 26.722917 17.916773 26.693863 17.811316 26.635583 C 17.705857 26.574529 17.621411 26.494161 17.557585 26.394255 C 17.496533 26.291573 17.457449 26.179433 17.440796 26.057324 L 19.185392 26.057324 L 19.185392 25.932267 C 19.185392 25.732454 19.143591 25.552176 19.060335 25.391215 C 18.97708 25.227479 18.857628 25.097998 18.702218 25.003642 C 18.549582 24.906511 18.366586 24.858431 18.152897 24.858431 z M 5.7934448 24.891504 L 6.6094157 26.973031 L 6.9758016 26.973031 L 7.7876383 24.891504 L 7.4460571 24.891504 L 6.7923503 26.639718 L 6.135026 24.891504 L 5.7934448 24.891504 z M 11.259261 24.891504 L 11.259261 26.102799 C 11.259261 26.299837 11.297828 26.466527 11.375533 26.602511 C 11.456013 26.73572 11.560517 26.836989 11.688175 26.906368 C 11.815834 26.972975 11.950234 27.006104 12.091768 27.006104 C 12.261055 27.006104 12.400049 26.971613 12.50828 26.902234 C 12.616512 26.832854 12.707752 26.747892 12.782682 26.647986 L 12.782682 26.973031 L 13.094808 26.973031 L 13.094808 24.891504 L 12.782682 24.891504 L 12.782682 26.090397 C 12.782682 26.215281 12.753629 26.324703 12.695349 26.419059 C 12.639845 26.513412 12.564913 26.588345 12.470557 26.643852 C 12.3762 26.696578 12.270854 26.722917 12.154297 26.722917 C 11.98501 26.722917 11.844658 26.666167 11.733651 26.552384 C 11.625418 26.435827 11.571387 26.283244 11.571387 26.094531 L 11.571387 24.891504 L 11.259261 24.891504 z M 8.9823975 25.141101 C 9.1378078 25.141101 9.2681311 25.177467 9.3735881 25.249622 C 9.48182 25.321776 9.5635472 25.417609 9.6190511 25.536943 C 9.6745551 25.656275 9.7022502 25.787957 9.7022502 25.932267 C 9.7022502 26.073802 9.6745551 26.205484 9.6190511 26.327592 C 9.5635474 26.446925 9.4818203 26.542758 9.3735881 26.614913 C 9.2681311 26.687068 9.1378078 26.722917 8.9823975 26.722917 C 8.8297624 26.722917 8.6989223 26.687068 8.5906901 26.614913 C 8.4824582 26.542758 8.400731 26.446925 8.3452271 26.327592 C 8.2897231 26.205484 8.262028 26.073802 8.262028 25.932267 C 8.262028 25.787957 8.2897231 25.656275 8.3452271 25.536943 C 8.4007307 25.417609 8.4824579 25.321776 8.5906901 25.249622 C 8.6989223 25.177467 8.8297624 25.141101 8.9823975 25.141101 z M 18.152897 25.141101 C 18.35271 25.141101 18.513446 25.201086 18.635555 25.320418 C 18.757662 25.439752 18.832594 25.588257 18.860347 25.765869 L 17.44493 25.765869 C 17.475457 25.588257 17.550389 25.439752 17.669722 25.320418 C 17.79183 25.201086 17.953084 25.141101 18.152897 25.141101 z "
       style="display:inline;fill:none;stroke:#000000;stroke-opacity:1;stroke-width:0.1;stroke-dasharray:none;font-size:4.16278px;line-height:1.25;font-family:Questrial;-inkscape-font-specification:'Questrial, Normal';letter-spacing:0px;word-spacing:0px" />
    <path
       id="path9848"
       d="M 50.688379 24.133927 L 50.688379 24.541654 L 51.025826 24.541654 L 51.025826 24.133927 L 50.688379 24.133927 z M 46.625578 24.858431 C 46.422989 24.858431 46.245429 24.905152 46.092794 24.999508 C 45.942934 25.091089 45.8262 25.217335 45.742944 25.378296 C 45.659689 25.536482 45.618404 25.715918 45.618404 25.915731 C 45.618404 26.112769 45.659689 26.291688 45.742944 26.452649 C 45.8262 26.61361 45.942934 26.741215 46.092794 26.835571 C 46.245429 26.927153 46.422989 26.973031 46.625578 26.973031 C 46.797639 26.973031 46.944787 26.939385 47.066895 26.872778 C 47.191778 26.803399 47.293047 26.713518 47.370752 26.602511 L 47.370752 26.889832 C 47.370752 27.103521 47.315361 27.265616 47.204354 27.376624 C 47.096122 27.490406 46.922638 27.547156 46.683972 27.547156 C 46.525786 27.547156 46.395463 27.518103 46.292782 27.459823 C 46.190099 27.404319 46.117884 27.325309 46.076257 27.222628 L 45.730542 27.222628 C 45.788821 27.403014 45.900119 27.548803 46.063855 27.65981 C 46.227591 27.773593 46.439641 27.830343 46.700509 27.830343 C 47.014104 27.830343 47.255726 27.751333 47.425012 27.593148 C 47.597074 27.434963 47.682878 27.207447 47.682878 26.910502 L 47.682878 24.891504 L 47.370752 24.891504 L 47.370752 25.2243 C 47.293047 25.110515 47.191778 25.021993 47.066895 24.958167 C 46.944787 24.89156 46.797639 24.858431 46.625578 24.858431 z M 49.102429 24.858431 C 48.899841 24.858431 48.72228 24.906511 48.569645 25.003642 C 48.419785 25.097998 48.303051 25.227479 48.219796 25.391215 C 48.13654 25.552176 48.095256 25.732454 48.095256 25.932267 C 48.095256 26.129305 48.13654 26.309584 48.219796 26.473319 C 48.303051 26.637055 48.419785 26.767379 48.569645 26.86451 C 48.72228 26.958867 48.899841 27.006104 49.102429 27.006104 C 49.27449 27.006104 49.421637 26.972975 49.543746 26.906368 C 49.668629 26.839764 49.769899 26.750725 49.847603 26.639718 L 49.847603 26.973031 L 50.159729 26.973031 L 50.159729 24.891504 L 49.847603 24.891504 L 49.847603 25.228434 C 49.769899 25.114654 49.668629 25.024773 49.543746 24.958167 C 49.421637 24.89156 49.27449 24.858431 49.102429 24.858431 z M 52.525993 24.858431 C 52.370865 24.862496 52.242471 24.897258 52.141003 24.962301 C 52.032772 25.031681 51.941531 25.116125 51.866602 25.216032 L 51.866602 24.891504 L 51.554476 24.891504 L 51.554476 26.973031 L 51.866602 26.973031 L 51.866602 25.774137 C 51.866602 25.649254 51.894301 25.539314 51.949801 25.444958 C 52.00808 25.347825 52.084371 25.272893 52.178727 25.220166 C 52.273084 25.167439 52.378429 25.141101 52.494987 25.141101 C 52.667048 25.141101 52.807401 25.199727 52.915633 25.316284 C 53.023866 25.430067 53.077897 25.581291 53.077897 25.770003 L 53.077897 26.973031 L 53.390023 26.973031 L 53.390023 25.761735 C 53.390023 25.564697 53.350097 25.399367 53.269617 25.266158 C 53.191911 25.130176 53.088767 25.028907 52.961108 24.962301 C 52.836225 24.892921 52.701825 24.858431 52.557515 24.858431 C 52.546935 24.858431 52.536335 24.85816 52.525993 24.858431 z M 50.700781 24.891504 L 50.700781 26.973031 L 51.012907 26.973031 L 51.012907 24.891504 L 50.700781 24.891504 z M 46.667436 25.141101 C 46.820071 25.141101 46.949035 25.176108 47.054492 25.245487 C 47.162721 25.314867 47.244449 25.407466 47.299955 25.524023 C 47.358235 25.640581 47.387288 25.771421 47.387288 25.915731 C 47.387288 26.057265 47.358235 26.187588 47.299955 26.306921 C 47.244451 26.423479 47.162724 26.516595 47.054492 26.585974 C 46.949035 26.655354 46.820071 26.689844 46.667436 26.689844 C 46.514801 26.689844 46.382602 26.655354 46.271594 26.585974 C 46.160588 26.516595 46.076143 26.423479 46.017863 26.306921 C 45.959583 26.187588 45.93053 26.057265 45.93053 25.915731 C 45.93053 25.771421 45.959583 25.640581 46.017863 25.524023 C 46.076142 25.407466 46.160587 25.314867 46.271594 25.245487 C 46.382602 25.176108 46.514801 25.141101 46.667436 25.141101 z M 49.144287 25.141101 C 49.299697 25.141101 49.43002 25.177467 49.535478 25.249622 C 49.643707 25.321776 49.725434 25.417609 49.780941 25.536943 C 49.836447 25.656275 49.86414 25.787957 49.86414 25.932267 C 49.86414 26.073802 49.836447 26.205484 49.780941 26.327592 C 49.725437 26.446925 49.64371 26.542758 49.535478 26.614913 C 49.43002 26.687068 49.299697 26.722917 49.144287 26.722917 C 48.991652 26.722917 48.859453 26.687068 48.748446 26.614913 C 48.637439 26.542758 48.552994 26.446925 48.494714 26.327592 C 48.436434 26.205484 48.407381 26.073802 48.407381 25.932267 C 48.407381 25.787957 48.436434 25.656275 48.494714 25.536943 C 48.552993 25.417609 48.637438 25.321776 48.748446 25.249622 C 48.859453 25.177467 48.991652 25.141101 49.144287 25.141101 z "
       style="display:inline;fill:none;stroke:#000000;stroke-opacity:1;stroke-width:0.1;stroke-dasharray:none;font-size:4.16278px;line-height:1.25;font-family:Questrial;-inkscape-font-specification:'Questrial, Normal';letter-spacing:0px;word-spacing:0px" />
    <path
       id="path9857"
       d="M 8.8413208 54.184806 L 8.8413208 54.92998 L 8.4170573 54.92998 L 8.4170573 55.204899 L 8.8413208 55.204899 L 8.8413208 57.011507 L 9.1539632 57.011507 L 9.1539632 55.204899 L 9.632487 55.204899 L 9.632487 54.92998 L 9.1539632 54.92998 L 9.1539632 54.184806 L 8.8413208 54.184806 z M 10.877372 54.896908 C 10.666458 54.896908 10.482946 54.945503 10.327535 55.042635 C 10.172124 55.136991 10.053189 55.265956 9.9699341 55.429692 C 9.8866786 55.590653 9.8448771 55.770931 9.8448771 55.970744 C 9.8448771 56.167782 9.8866786 56.34806 9.9699341 56.511796 C 10.053189 56.675532 10.172124 56.805855 10.327535 56.902987 C 10.482946 56.997343 10.666458 57.04458 10.877372 57.04458 C 11.091061 57.04458 11.274058 56.997343 11.426693 56.902987 C 11.582103 56.805855 11.701555 56.675532 11.78481 56.511796 C 11.868066 56.34806 11.909351 56.167782 11.909351 55.970744 C 11.909351 55.770931 11.868066 55.590653 11.78481 55.429692 C 11.701555 55.265956 11.582103 55.136991 11.426693 55.042635 C 11.274058 54.945503 11.091061 54.896908 10.877372 54.896908 z M 13.293245 54.896908 C 13.138117 54.900973 13.010241 54.935733 12.908773 55.000777 C 12.800541 55.070156 12.708784 55.154601 12.633854 55.254508 L 12.633854 54.92998 L 12.321729 54.92998 L 12.321729 57.011507 L 12.633854 57.011507 L 12.633854 55.812614 C 12.633854 55.687731 12.661547 55.577792 12.717053 55.483435 C 12.775332 55.386302 12.851624 55.311369 12.94598 55.258643 C 13.040336 55.205916 13.145682 55.179578 13.26224 55.179578 C 13.434301 55.179578 13.574654 55.238203 13.682886 55.354761 C 13.791118 55.468543 13.84515 55.619767 13.84515 55.80848 L 13.84515 57.011507 L 14.157275 57.011507 L 14.157275 55.800212 C 14.157275 55.603173 14.11735 55.437843 14.036869 55.304635 C 13.959165 55.168653 13.856536 55.067384 13.728878 55.000777 C 13.603995 54.931397 13.469078 54.896908 13.324768 54.896908 C 13.314188 54.896908 13.303587 54.896637 13.293245 54.896908 z M 15.580961 54.896908 C 15.370047 54.896908 15.18705 54.945503 15.031641 55.042635 C 14.87623 55.136991 14.756778 55.265956 14.673523 55.429692 C 14.590267 55.590653 14.548983 55.770931 14.548983 55.970744 C 14.548983 56.167782 14.591626 56.34806 14.677657 56.511796 C 14.766463 56.675532 14.889991 56.805855 15.048177 56.902987 C 15.206362 56.997343 15.391234 57.04458 15.602148 57.04458 C 15.84914 57.04458 16.050319 56.986472 16.205729 56.869914 C 16.363914 56.750581 16.478773 56.597998 16.550928 56.412061 L 16.209863 56.412061 C 16.15436 56.51474 16.076709 56.599185 15.976803 56.665792 C 15.876896 56.729618 15.753368 56.761393 15.606283 56.761393 C 15.467523 56.761393 15.345353 56.73234 15.239897 56.67406 C 15.134437 56.613006 15.049475 56.532638 14.985649 56.432731 C 14.924597 56.330049 14.88603 56.217909 14.869377 56.095801 L 16.613456 56.095801 L 16.613456 55.970744 C 16.613456 55.770931 16.571655 55.590653 16.488399 55.429692 C 16.405143 55.265956 16.286208 55.136991 16.130798 55.042635 C 15.978163 54.945503 15.79465 54.896908 15.580961 54.896908 z M 10.877372 55.179578 C 11.032783 55.179578 11.163106 55.215943 11.268563 55.288098 C 11.376792 55.360253 11.458519 55.456086 11.514026 55.575419 C 11.569532 55.694752 11.597225 55.826434 11.597225 55.970744 C 11.597225 56.112278 11.569532 56.24396 11.514026 56.366069 C 11.458523 56.485401 11.376795 56.581234 11.268563 56.653389 C 11.163106 56.725544 11.032783 56.761393 10.877372 56.761393 C 10.724737 56.761393 10.593897 56.725544 10.485665 56.653389 C 10.377429 56.581234 10.295702 56.485401 10.240202 56.366069 C 10.184695 56.24396 10.157003 56.112278 10.157003 55.970744 C 10.157003 55.826434 10.184695 55.694752 10.240202 55.575419 C 10.295705 55.456086 10.377432 55.360253 10.485665 55.288098 C 10.593897 55.215943 10.724737 55.179578 10.877372 55.179578 z M 15.580961 55.179578 C 15.780774 55.179578 15.942028 55.239562 16.064136 55.358895 C 16.186242 55.478228 16.261175 55.626735 16.288928 55.804346 L 14.873511 55.804346 C 14.904038 55.626735 14.978971 55.478228 15.098303 55.358895 C 15.220411 55.239562 15.381147 55.179578 15.580961 55.179578 z "
       style="display:inline;fill:none;stroke:#000000;stroke-opacity:1;stroke-width:0.1;stroke-dasharray:none;font-size:4.16278px;line-height:1.25;font-family:Questrial;-inkscape-font-specification:'Questrial, Normal';letter-spacing:0px;word-spacing:0px" />
    <path
       id="path9805"
       d="M -30.187305 27.776599 C -30.187305 27.615733 -30.22053 27.470554 -30.287557 27.340967 C -30.354585 27.209146 -30.450793 27.105323 -30.575911 27.029358 C -30.698795 26.951159 -30.846224 26.912052 -31.018262 26.912052 C -31.188066 26.912052 -31.335493 26.951159 -31.460612 27.029358 C -31.585731 27.105323 -31.681939 27.209146 -31.748966 27.340967 C -31.815994 27.470554 -31.849736 27.615733 -31.849736 27.776599 C -31.849736 27.935232 -31.815128 28.08041 -31.745866 28.212231 C -31.67437 28.344053 -31.574529 28.449259 -31.447176 28.527458 C -31.319824 28.603423 -31.171528 28.641146 -31.001725 28.641146 C -30.802876 28.641146 -30.640569 28.594425 -30.51545 28.500586 C -30.3881 28.404513 -30.295524 28.281829 -30.237431 28.132133 L -30.512349 28.132133 C -30.557034 28.214803 -30.619502 28.282635 -30.699935 28.336255 C -30.780368 28.387641 -30.879692 28.413253 -30.998108 28.413253 C -31.109821 28.413253 -31.208279 28.389893 -31.29318 28.342973 C -31.378084 28.293819 -31.446432 28.229103 -31.497819 28.148669 C -31.546972 28.066002 -31.577947 27.975675 -31.591353 27.877368 L -30.187305 27.877368 L -30.187305 27.776599 z M -30.448787 27.642757 L -31.588253 27.642757 C -31.563675 27.499765 -31.503458 27.380196 -31.407385 27.284123 C -31.309078 27.188049 -31.179129 27.139945 -31.018262 27.139945 C -30.857395 27.139945 -30.727962 27.188049 -30.629655 27.284123 C -30.531345 27.380196 -30.471127 27.499765 -30.448787 27.642757 z M -32.181498 26.938924 L -32.432646 26.938924 L -32.432646 27.207125 C -32.495205 27.115519 -32.577051 27.044054 -32.677592 26.992668 C -32.775899 26.939048 -32.894085 26.912052 -33.032609 26.912052 C -33.19571 26.912052 -33.33864 26.950293 -33.461523 27.026257 C -33.582173 27.099988 -33.676132 27.201562 -33.74316 27.331148 C -33.810188 27.458501 -33.843412 27.602297 -33.843412 27.763163 C -33.843412 27.921795 -33.810188 28.066108 -33.74316 28.195695 C -33.676132 28.325282 -33.582173 28.428238 -33.461523 28.504203 C -33.33864 28.577934 -33.19571 28.614791 -33.032609 28.614791 C -32.894085 28.614791 -32.775899 28.587796 -32.677592 28.534176 C -32.577051 28.47832 -32.495206 28.405472 -32.432646 28.316101 L -32.432646 28.547611 C -32.432646 28.719649 -32.477118 28.850466 -32.566488 28.939836 C -32.653624 29.03144 -32.793438 29.077295 -32.985583 29.077295 C -33.112936 29.077295 -33.218142 29.053418 -33.30081 29.006498 C -33.383478 28.961813 -33.441446 28.898479 -33.474959 28.815812 L -33.752979 28.815812 C -33.706059 28.961039 -33.616599 29.078358 -33.484778 29.167729 C -33.352957 29.259333 -33.182168 29.305188 -32.972148 29.305188 C -32.719677 29.305188 -32.525527 29.241338 -32.389237 29.113985 C -32.250713 28.986632 -32.181498 28.803213 -32.181498 28.564148 L -32.181498 26.938924 z M -32.41921 27.763163 C -32.41921 27.87711 -32.44257 27.982316 -32.48949 28.078389 C -32.534175 28.172231 -32.600275 28.246812 -32.68741 28.302665 C -32.772312 28.358525 -32.876135 28.386898 -32.999019 28.386898 C -33.121903 28.386898 -33.227976 28.358525 -33.317346 28.302665 C -33.406715 28.246809 -33.475065 28.172229 -33.521985 28.078389 C -33.568905 27.982316 -33.592265 27.87711 -33.592265 27.763163 C -33.592265 27.646981 -33.568905 27.542292 -33.521985 27.448454 C -33.475066 27.354612 -33.406716 27.279515 -33.317346 27.223661 C -33.227976 27.167808 -33.121903 27.139945 -32.999019 27.139945 C -32.876135 27.139945 -32.772312 27.167808 -32.68741 27.223661 C -32.600276 27.279518 -32.534176 27.354615 -32.48949 27.448454 C -32.44257 27.542292 -32.41921 27.646981 -32.41921 27.763163 z "
       style="display:inline;fill:none;stroke:#000000;stroke-opacity:1;stroke-width:0.1;stroke-dasharray:none;font-size:3.35139px;line-height:1.25;font-family:Questrial;-inkscape-font-specification:'Questrial, Normal';letter-spacing:0px;word-spacing:0px"
       transform="rotate(-90)" />
    <path
       id="circle817-6"
       style="display:inline;fill:none;fill-opacity:1;stroke:#000000;stroke-width:0.1;stroke-linecap:butt;stroke-linejoin:miter;stroke-miterlimit:4;stroke-dasharray:none;stroke-dashoffset:0;stroke-opacity:1"
       d="M -26.716514 -11.088458 A 0.90072001 0.90072001 0 0 0 -27.617234 -10.187738 A 0.90072001 0.90072001 0 0 0 -26.716514 -9.2870176 A 0.90072001 0.90072001 0 0 0 -25.820961 -10.098854 L -23.705328 -10.098854 C -23.659638 -9.6380938 -23.271762 -9.2870339 -22.808742 -9.2870176 C -22.634802 -9.2873286 -22.464626 -9.3378532 -22.318849 -9.4327452 L -22.318849 -9.6585712 C -22.452059 -9.5349852 -22.627032 -9.4660576 -22.808742 -9.4658181 C -23.207285 -9.4658189 -23.530661 -9.7891942 -23.530662 -10.187738 C -23.530673 -10.586288 -23.207293 -10.90914 -22.808742 -10.909141 C -22.626986 -10.90883 -22.452006 -10.840102 -22.318849 -10.716388 L -22.318849 -10.943247 C -22.464708 -11.037877 -22.634878 -11.088386 -22.808742 -11.088458 C -23.271419 -11.087991 -23.658629 -10.737041 -23.704294 -10.276621 L -25.819927 -10.276621 A 0.90072001 0.90072001 0 0 0 -26.716514 -11.088458 z M -19.245135 -11.088458 A 0.90072001 0.90072001 0 0 0 -20.140171 -10.276621 L -22.327634 -10.276621 A 0.48986525 0.48986525 0 0 0 -22.808742 -10.67763 A 0.48986525 0.48986525 0 0 0 -23.298634 -10.187738 A 0.48986525 0.48986525 0 0 0 -22.808742 -9.6978453 A 0.48986525 0.48986525 0 0 0 -22.327634 -10.098854 L -20.141204 -10.098854 A 0.90072001 0.90072001 0 0 0 -19.245135 -9.2870176 A 0.90072001 0.90072001 0 0 0 -18.344415 -10.187738 A 0.90072001 0.90072001 0 0 0 -19.245135 -11.088458 z M -26.716514 -10.909141 A 0.72162944 0.72162944 0 0 1 -25.994594 -10.187738 A 0.72162944 0.72162944 0 0 1 -26.716514 -9.4658181 A 0.72162944 0.72162944 0 0 1 -27.437917 -10.187738 A 0.72162944 0.72162944 0 0 1 -26.716514 -10.909141 z M -19.245135 -10.909141 A 0.72162944 0.72162944 0 0 1 -18.523215 -10.187738 A 0.72162944 0.72162944 0 0 1 -19.245135 -9.4658181 A 0.72162944 0.72162944 0 0 1 -19.966538 -10.187738 A 0.72162944 0.72162944 0 0 1 -19.245135 -10.909141 z M -26.809531 -10.635773 L -26.809531 -10.285406 L -27.161448 -10.285406 L -27.161448 -10.09162 L -26.809531 -10.09162 L -26.809531 -9.7397032 L -26.616261 -9.7397032 L -26.616261 -10.09162 L -26.265895 -10.09162 L -26.265895 -10.285406 L -26.616261 -10.285406 L -26.616261 -10.635773 L -26.809531 -10.635773 z M -19.703505 -10.28799 L -19.703505 -10.087486 L -18.698915 -10.087486 L -18.698915 -10.28799 L -19.703505 -10.28799 z "
       inkscape:label="polarity"
       transform="translate(53.981517,11.906496)" />
    <path
       id="path2311"
       d="m 15.950964,1.1208618 c -0.08179,0.00179 -0.156958,0.017329 -0.225309,0.045992 -0.07291,0.030574 -0.135706,0.073406 -0.188619,0.1286744 -0.05174,0.055269 -0.09167,0.1184378 -0.119889,0.1901692 -0.02822,0.071731 -0.04237,0.1495701 -0.04237,0.2330607 0,0.082315 0.01416,0.1601534 0.04237,0.2330607 0.02822,0.071732 0.06815,0.1349008 0.119889,0.1901693 0.05292,0.055268 0.115712,0.0981 0.188619,0.1286743 0.07291,0.030574 0.153651,0.045992 0.241846,0.045992 0.08819,-2e-7 0.168421,-0.015418 0.241329,-0.045992 0.07291,-0.030574 0.135328,-0.073406 0.187068,-0.1286743 0.05292,-0.055268 0.09374,-0.1184378 0.121957,-0.1901693 0.02822,-0.072907 0.04237,-0.1507458 0.04237,-0.2330607 0,-0.083491 -0.01415,-0.1613292 -0.04237,-0.2330607 -0.02823,-0.071731 -0.06904,-0.1349006 -0.121957,-0.1901692 -0.05174,-0.055269 -0.114161,-0.0981 -0.187068,-0.1286744 -0.07291,-0.030574 -0.153135,-0.045992 -0.241329,-0.045992 -0.0055,0 -0.01108,-1.194e-4 -0.01654,0 z m 0.806669,0.013953 v 0.6650756 c 0,0.1034815 0.02123,0.1942069 0.06356,0.2718181 0.04233,0.077611 0.100583,0.137875 0.174667,0.1813842 0.07526,0.042333 0.160923,0.063562 0.257348,0.063562 0.0976,0 0.183783,-0.021603 0.257866,-0.065112 0.07526,-0.043509 0.133883,-0.10429 0.176216,-0.1819011 0.04233,-0.077611 0.06356,-0.1674455 0.06356,-0.269751 V 1.1348145 h -0.132291 v 0.668693 c 0,0.090546 -0.01795,0.1642137 -0.05323,0.2206584 -0.03528,0.056444 -0.08013,0.09801 -0.135392,0.1250569 -0.05527,0.025871 -0.114407,0.038757 -0.176734,0.038757 -0.06114,0 -0.11977,-0.012887 -0.176216,-0.038757 -0.05527,-0.027046 -0.100629,-0.068612 -0.135909,-0.1250569 -0.0341,-0.056444 -0.05116,-0.1301122 -0.05116,-0.2206584 v -0.668693 z m 1.1467,0 v 0.1255737 h 0.407211 v 1.0423136 h 0.132291 V 1.2603882 h 0.407727 V 1.1348145 Z m -1.936832,0.1147216 c 0.09525,0 0.176743,0.021229 0.244946,0.063562 0.06938,0.041157 0.12271,0.096876 0.159164,0.1674317 0.03763,0.070556 0.05633,0.150034 0.05633,0.2382283 0,0.087019 -0.0187,0.1664969 -0.05633,0.2382284 -0.03645,0.070556 -0.08978,0.1271654 -0.159164,0.1694987 -0.0682,0.041157 -0.149696,0.061495 -0.244946,0.061495 -0.09407,0 -0.176083,-0.020338 -0.245463,-0.061495 -0.06938,-0.042333 -0.122571,-0.098943 -0.160197,-0.1694987 -0.03645,-0.071732 -0.05478,-0.1512098 -0.05478,-0.2382284 0,-0.088194 0.01832,-0.1676728 0.05478,-0.2382283 0.03763,-0.070556 0.09082,-0.1262744 0.160197,-0.1674317 0.06938,-0.042333 0.151389,-0.063562 0.245463,-0.063562 z"
       style="font-size:1.76389px;line-height:1.25;font-family:Questrial;-inkscape-font-specification:'Questrial, Normal';letter-spacing:0px;word-spacing:0px;fill:none;stroke:#000000;stroke-width:0.1;stroke-opacity:1;stroke-dasharray:none" />
  </g>
  <circle
     style="display:inline;fill:none;fill-opacity:1;stroke:#000000;stroke-width:0.1;stroke-opacity:1;stroke-dasharray:none"
     id="path10508-7"
     cx="31"
     cy="106.50436"
     r="5.9999995" />
  <circle
     style="display:inline;fill:none;fill-opacity:1;stroke:#000000;stroke-width:0.1;stroke-opacity:1;stroke-dasharray:none"
     id="path10508-9-7"
     cx="13.021498"
     cy="106.50436"
     r="3.7499995" />
</svg>
