<?xml version="1.0" encoding="UTF-8" standalone="no"?>
<svg
   width="62mm"
   height="117mm"
   viewBox="0 0 62 117"
   version="1.1"
   id="svg8"
   inkscape:version="1.1.2 (0a00cf5339, 2022-02-04, custom)"
   sodipodi:docname="sexy_rodent_front_testfreecad.svg"
   inkscape:export-filename="/home/yann/_dev/98 - Graphics/graphics-pedals/Shining Pig/shining_pig_front_9V.png"
   inkscape:export-xdpi="96"
   inkscape:export-ydpi="96"
   xmlns:inkscape="http://www.inkscape.org/namespaces/inkscape"
   xmlns:sodipodi="http://sodipodi.sourceforge.net/DTD/sodipodi-0.dtd"
   xmlns="http://www.w3.org/2000/svg"
   xmlns:svg="http://www.w3.org/2000/svg"
   xmlns:rdf="http://www.w3.org/1999/02/22-rdf-syntax-ns#"
   xmlns:cc="http://creativecommons.org/ns#"
   xmlns:dc="http://purl.org/dc/elements/1.1/">
  <defs
     id="defs2" />
  <sodipodi:namedview
     id="base"
     pagecolor="#ffffff"
     bordercolor="#666666"
     borderopacity="1.0"
     inkscape:pageopacity="0"
     inkscape:pageshadow="2"
     inkscape:zoom="16"
     inkscape:cx="114.875"
     inkscape:cy="155.46875"
     inkscape:document-units="mm"
     inkscape:current-layer="svg8"
     inkscape:document-rotation="0"
     showgrid="true"
     inkscape:window-width="3836"
     inkscape:window-height="2113"
     inkscape:window-x="0"
     inkscape:window-y="881"
     inkscape:window-maximized="1"
     showborder="true"
     inkscape:showpageshadow="false"
     inkscape:pagecheckerboard="true">
    <sodipodi:guide
       position="-2.0168617,58.500093"
       orientation="0,117.16536"
       id="guide1967" />
    <sodipodi:guide
       position="31.001653,138.8865"
       orientation="-221.10236,0"
       id="guide1969" />
    <inkscape:grid
       type="xygrid"
       id="grid1973"
       visible="true"
       enabled="true"
       originx="31.000001"
       originy="58.500002"
       dotted="false" />
  </sodipodi:namedview>
  <metadata
     id="metadata5">
    <rdf:RDF>
      <cc:Work
         rdf:about="">
        <dc:format>image/svg+xml</dc:format>
        <dc:type
           rdf:resource="http://purl.org/dc/dcmitype/StillImage" />
      </cc:Work>
    </rdf:RDF>
  </metadata>
  <path
     id="rect1638"
     style="display:inline;fill:#000000;fill-opacity:1;stroke:none;stroke-width:1.8812"
     d="M 0,0 H 62 V 117 H 0 Z"
     inkscape:label="fond"
     sodipodi:insensitive="true" />
  <path
     style="fill:#fffffe;fill-opacity:1;stroke-width:0.0139009"
     d="m 22.815644,95.123015 c -0.124032,-0.0244 -0.143479,-0.0498 -0.184156,-0.239131 -0.07767,-0.361529 -0.06327,-0.798419 0.04329,-1.314119 0.03398,-0.16442 0.07311,-0.23057 0.179964,-0.30418 0.11035,-0.0761 0.204683,-0.0998 0.409977,-0.102927 0.180858,-0.003 0.182799,-0.002 0.276787,0.0443 0.05531,0.0276 0.112503,0.069 0.137587,0.1 0.04946,0.0608 0.04928,0.057 0.02931,0.56543 -0.01229,0.31301 -0.0042,0.37286 0.0542,0.39854 0.135726,0.0597 0.490509,0.05 0.869953,-0.0244 0.336808,-0.0656 0.610779,-0.11557 0.751562,-0.13707 0.06548,-0.01027 0.126691,-0.0229 0.136003,-0.0288 0.03832,-0.0243 0.180014,-0.692311 0.230088,-1.08478 0.07415,-0.58116 0.06189,-1.068621 -0.03431,-1.365161 -0.03443,-0.10613 -0.07227,-0.18259 -0.102552,-0.207229 -0.03242,-0.0265 -0.145511,-0.0089 -0.619131,0.0922 -0.586609,0.12606 -0.945541,0.19236 -1.105358,0.20414 -0.182665,0.0137 -0.67682,-0.003 -0.829959,-0.0274 -0.20067,-0.0322 -0.365277,-0.107048 -0.43161,-0.196561 -0.02549,-0.0343 -0.02667,-0.0963 -0.03472,-1.8135 -0.0046,-0.97788 -0.0087,-1.98194 -0.0094,-2.231281 l -0.001,-0.45334 0.0465,-0.0686 c 0.120193,-0.177431 0.372349,-0.28938 0.661189,-0.29356 0.234482,-0.003 0.380253,0.0506 0.467407,0.173239 0.0339,0.0477 0.03431,0.0519 0.04514,0.47889 0.006,0.23691 0.01229,0.80291 0.01393,1.2578 l 0.0031,0.827061 -0.04034,0.375959 c -0.04567,0.425571 -0.05713,0.885021 -0.02549,1.022111 0.03648,0.15808 0.06086,0.218739 0.09085,0.22611 0.04106,0.01027 0.277774,-0.0178 0.593558,-0.07 0.299307,-0.0494 1.142643,-0.19603 1.191999,-0.20722 l 0.03128,-0.006 v -2.017211 c 0,-1.538269 0.004,-2.03087 0.01684,-2.07471 0.02643,-0.0903 0.152451,-0.20951 0.292068,-0.27642 0.158295,-0.07581 0.282064,-0.106197 0.448696,-0.109842 0.120474,-0.003 0.158829,0.003 0.287651,0.04131 l 0.148642,0.0444 0.0059,2.371401 c 0.0051,2.013299 0.0094,2.422779 0.02884,2.71162 0.03164,0.468759 0.04421,1.309499 0.02382,1.591289 -0.04241,0.58589 -0.164609,1.116611 -0.299888,1.302481 -0.08218,0.11291 -0.205306,0.21062 -0.385215,0.30567 -0.18039,0.09529 -0.305335,0.13631 -0.622917,0.204399 -0.473379,0.101469 -0.926469,0.167101 -1.306682,0.189271 -0.110859,0.006 -0.373586,0.0363 -0.583836,0.06641 -0.397944,0.0569 -0.785404,0.0828 -0.899437,0.06029 z m 5.481907,-0.69721 c -0.08829,-0.0147 -0.165134,-0.0657 -0.198048,-0.13148 -0.04239,-0.0847 -0.03665,-0.59563 0.01192,-1.06137 0.07256,-0.69578 0.09359,-1.16986 0.09352,-2.10744 -5.2e-5,-0.69179 -0.0061,-0.89086 -0.0556,-1.80625 -0.04603,-0.85298 -0.05492,-1.09738 -0.06421,-1.764411 -0.0091,-0.654289 1.05e-4,-0.881759 0.04441,-1.09886 0.04225,-0.206919 0.08878,-0.287999 0.203964,-0.355399 0.204111,-0.11944 0.501656,-0.17689 1.226877,-0.23687 0.175847,-0.0145 0.494871,-0.0478 0.708945,-0.0737 0.947372,-0.11514 1.356702,-0.151679 1.779312,-0.15911 l 0.347521,-0.006 0.066,0.0377 c 0.0905,0.0518 0.10781,0.0911 0.10781,0.24468 0,0.22786 -0.0649,0.96509 -0.091,1.03342 -0.0403,0.105579 -0.480571,0.1943 -0.930751,0.18759 -0.14932,-0.002 -0.26372,-0.01072 -0.31074,-0.0235 -0.0409,-0.01105 -0.076,-0.02209 -0.0779,-0.0243 -0.002,-0.002 0.0172,-0.229801 0.0424,-0.50544 0.0253,-0.27564 0.0322,-0.20622 0.03569,-0.33921 0.002,-0.0709 -0.0727,-0.0279 -0.20818,-0.0352 -0.113547,0.003 -0.428651,0.03179 -0.619763,0.0576 -0.359482,0.0501 -0.957076,0.164351 -0.977345,0.202781 -0.05054,0.0958 -0.01274,1.02294 0.02768,1.77362 0.06441,1.196429 0.08633,2.279909 0.06563,3.24046 -0.01628,0.755709 -0.02288,0.87844 -0.08301,1.548679 -0.05555,0.619081 -0.07682,0.81149 -0.05796,0.84644 0.03106,0.0576 0.182048,0.0198 0.733081,-0.0559 0.187315,-0.0256 0.397436,-0.055 0.481535,-0.0611 0.369154,-0.0267 0.576103,-0.0539 0.696672,-0.17394 0.127941,-0.12759 0.12058,-0.07981 0.18318,-1.08058 0.0244,-0.39066 0.0537,-1.728339 0.0407,-1.86337 -0.0211,-0.2196 -0.0776,-0.38091 -0.138639,-0.39526 -0.019,-0.004 -0.0987,5.9e-4 -0.177071,0.01027 -0.293999,0.0391 -0.570819,0.02219 -0.702287,-0.0428 -0.146797,-0.0726 -0.179685,-0.21355 -0.09354,-0.40085 0.04245,-0.0922 0.144225,-0.22423 0.204611,-0.26526 0.06743,-0.0458 0.384926,-0.0906 1.153206,-0.16269 0.322779,-0.0304 0.4003,-0.01027 0.675459,0.1692 l 0.165541,0.108329 0.0089,0.477151 c 0.005,0.26244 0.0214,0.66775 0.0369,0.9007 0.0652,0.98145 0.0651,1.4463 -1.51e-4,1.89421 -0.032,0.21972 -0.105125,0.5206 -0.158769,0.65344 -0.0851,0.21081 -0.29614,0.333511 -0.731661,0.42541 -0.63332,0.13364 -1.677488,0.27962 -2.695459,0.37684 -0.436377,0.0417 -0.684599,0.0548 -0.769363,0.0406 z m 5.766731,-0.68744 c -0.12299,-0.0158 -0.110751,0.0428 -0.129611,-0.62113 -0.0192,-0.677061 -0.0365,-1.00832 -0.113499,-2.17676 -0.109655,-1.66402 -0.127331,-2.065741 -0.127721,-2.90328 -4.79e-4,-0.97415 0.0473,-1.64569 0.170181,-2.39362 0.04329,-0.26331 0.0348,-0.242621 0.115179,-0.28044 0.15263,-0.07189 0.594391,-0.14078 0.93342,-0.14578 0.13765,-0.002 0.219991,0.002 0.242281,0.0136 0.0905,0.0446 0.38746,0.610049 0.769969,1.630139 0.11798,0.314641 0.264661,0.65261 0.302951,0.74757 0.182269,0.452 0.57078,1.415091 1.09021,2.53251 0.55572,1.195461 0.745369,1.51739 0.754719,1.492881 0.01651,-0.04341 -0.0121,-1.96012 -0.0321,-2.740331 -0.0161,-0.626719 -0.0177,-1.103359 -0.008,-2.363029 0.006,-0.86785 0.01631,-1.58881 0.0217,-1.602121 0.0127,-0.0313 0.0794,-0.0727 0.16625,-0.103026 0.11359,-0.0398 0.31681,-0.067 0.711111,-0.09519 0.44432,-0.03169 0.426339,-0.0311 0.41549,-0.0128 -0.0115,0.0188 -0.0431,0.407081 -0.064,0.78631 -0.0235,0.42574 -0.0206,1.704761 0.006,2.752281 0.0275,1.07448 0.0303,1.148129 0.07231,1.882439 0.0794,1.38942 0.07769,2.030881 -0.007,2.64127 -0.0283,0.20375 -0.04331,0.2504 -0.0928,0.288961 -0.11829,0.0921 -0.440161,0.15647 -0.81353,0.162749 -0.33456,0.005 -0.31658,0.0167 -0.39486,-0.241689 -0.16021,-0.528751 -0.48987,-0.977721 -1.008621,-1.956471 -0.431539,-0.81421 -0.330079,-0.67533 -1.249509,-2.73969 -0.38044,-0.85416 -0.648231,-1.579199 -0.65487,-1.58636 -0.0159,-0.0172 0.0127,0.87953 0.0295,2.037121 0.01261,0.863299 0.0482,3.42499 0.0608,4.374649 l 0.006,0.42067 -0.035,0.0281 c -0.0193,0.0154 -0.067,0.0382 -0.106076,0.0504 -0.211069,0.06641 -0.86068,0.142469 -1.03023,0.120589 z"
     id="path3141-3"
     sodipodi:nodetypes="cssccccssccssscccccsccscssccssccccssccccccsssscccccssscsssccccssscccssccsssssccsssccscscccsssssscccsssscscssssccscccsssssccsssssccccc"
     inkscape:label="logo" />
  <path
     style="fill:#ffffff;fill-opacity:1;stroke:none;stroke-width:0.0838671"
     d="m 41.864884,66.47437 c -0.160011,0.905934 0.577836,0.982085 1.174142,1.464992 0.823434,0.666745 1.564507,1.474555 1.944377,2.476768 0.12798,0.337648 0.284057,0.858799 0.144586,1.216242 -0.115903,0.297139 -0.441341,0.199602 -0.663223,0.09359 -0.550487,-0.262924 -1.033863,-0.700542 -1.50961,-1.075933 -1.68583,-1.330051 -3.180973,-2.9117 -4.696561,-4.427266 -0.303332,-0.303329 -1.194238,-1.466846 -1.710609,-0.955734 -0.256162,0.253557 -0.08295,0.730249 -0.07875,1.039604 0.01629,1.199969 1.15686,2.275651 1.958001,3.103 0.627335,0.647875 1.240305,1.318392 1.92804,1.903952 1.079968,0.919438 2.224887,1.721123 3.267518,2.694234 0.817906,0.763361 1.745477,1.552047 2.312586,2.53061 0.311986,0.538176 0.452046,1.176824 0.654918,1.761211 0.103662,0.298483 0.28104,0.607955 0.323898,0.922541 0.03799,0.27869 -0.08555,0.559476 -0.09771,0.838671 -0.02498,0.570548 0.102232,1.158121 0.332029,1.677345 -0.856787,-0.06768 -1.416349,-0.481817 -2.180549,-0.810327 -0.478244,-0.205557 -1.161868,-0.362807 -1.677342,-0.429734 -1.172557,-0.152305 -2.302936,1.791571 -1.338184,2.626553 1.324462,1.146463 2.7989,0.6784 4.357404,0.903081 1.097151,0.158175 1.878876,1.055722 2.935017,1.272351 0.498756,0.102232 0.95684,-0.122782 1.426076,-0.255209 0.495992,-0.139892 1.018401,-0.171929 1.50961,-0.324735 0.268794,-0.08361 0.489953,-0.26351 0.754804,-0.348216 0.445336,-0.142324 1.042555,-0.195747 1.50961,-0.201282 0.492553,-0.0059 1.031568,0.03967 1.34112,-0.428475 0.22334,-0.337902 0.16849,-0.780553 0.16849,-1.165336 0,-0.454056 0.02365,-0.906688 -0.129825,-1.341874 -0.376396,-1.067378 -1.284596,-1.813966 -1.778908,-2.80318 -0.1544,-0.308965 0.08093,-0.591599 0.165218,-0.886978 0.109196,-0.382939 0.227699,-1.031819 0.207571,-1.425744 -0.01921,-0.375638 -0.343101,-0.711696 -0.180482,-1.090272 0.308211,-0.717567 1.002213,-1.37517 1.452747,-2.012813 0.80697,-1.14227 1.499546,-2.461838 2.490436,-3.454656 0.500354,-0.501358 1.841223,-1.20467 1.1884,-1.993442 -0.269131,-0.325236 -1.076269,-1.131014 -1.550957,-1.000676 -0.277517,0.0762 -0.268876,0.438942 -0.336558,0.661937 -0.08848,0.291354 -0.245227,0.528533 -0.445839,0.754805 -0.632192,0.713039 -0.986279,1.633567 -1.529989,2.43215 -0.665318,0.977219 -1.648411,1.996878 -2.06783,3.103085 h -0.167733 c -0.243972,-0.666241 -0.929501,-1.212804 -0.997518,-1.928944 -0.186605,-1.964841 1.127847,-3.336321 2.226675,-4.766191 0.416234,-0.541697 0.958181,-1.10209 1.149567,-1.77545 0.197173,-0.693819 -0.03262,-1.47769 -0.345783,-2.096682 -0.133267,-0.263394 -0.327502,-0.669773 -0.686454,-0.631856 -0.274497,0.029 -0.346959,0.321556 -0.386711,0.548056 -0.09536,0.54215 0.0811,1.155966 -0.111881,1.677278 -0.376814,1.018281 -1.450398,1.808052 -2.133077,2.614182 -0.615753,0.727088 -0.951138,1.643504 -1.497951,2.412649 -0.235921,0.331696 -0.575329,0.306198 -0.894612,0.08278 -0.34872,-0.244051 -0.277349,-0.717399 -0.212435,-1.083981 0.04495,-0.253782 0.08797,-0.529538 0.247322,-0.740214 0.506224,-0.669208 1.555403,-0.919377 1.822185,-1.775802 0.198933,-0.638632 0.318525,-1.738661 -0.443744,-2.012813 0.712872,-0.587424 0.196837,-1.395586 0.407764,-2.180548 0.06022,-0.224294 0.177882,-0.397824 0.307542,-0.587069 0.473765,-0.691552 1.256246,-2.129715 -0.04437,-2.380185 -0.166977,-0.03216 -0.333286,-0.04857 -0.503203,-0.0365 -0.392666,0.02789 -0.862406,0.07497 -1.028043,0.489354 -0.107519,0.269001 -0.01921,0.5653 -0.196669,0.81311 -0.416903,0.582141 -1.257422,1.256642 -1.878373,1.608298 -0.2906,0.164547 -0.615084,0.182789 -0.92254,0.299944 -0.4346,0.16557 -0.819634,0.436191 -1.258008,0.594575 -0.355514,0.128434 -0.733419,0.164119 -1.090273,0.293275 -0.533522,0.193072 -1.111352,0.608196 -1.677345,0.669772 -0.773817,0.08419 -1.656234,-0.830756 -2.428457,-0.420367 -0.489963,0.260382 -0.475075,0.865367 -0.521002,1.339544 -0.07584,0.782959 -0.127704,2.522692 1.104255,2.176663 0.208568,-0.05858 0.396758,-0.14737 0.587196,-0.247719 m 9.057658,-6.960976 v 0.08387 l -0.251602,0.08387 0.251602,-0.167733 m 0.503203,1.090273 c -0.224681,0.390945 -0.53046,0.707597 -0.581285,1.172915 -0.0494,0.452582 0.17327,1.240952 -0.092,1.62538 -0.17327,0.251142 -0.583298,0.406689 -0.836326,0.566358 -0.613822,0.387398 -1.220015,0.774429 -1.761211,1.262341 -0.238184,0.214753 -1.129102,0.989188 -0.631183,1.348737 0.247744,0.178956 0.571049,-0.164959 0.738952,-0.31593 0.533646,-0.479667 1.012445,-1.162784 1.660989,-1.493814 0.280957,-0.143423 0.933695,-0.289142 1.056058,0.123659 0.449694,1.517069 -1.697387,1.824744 -2.036966,3.0068 -0.148698,0.517293 -0.358281,1.336004 -0.101899,1.844742 0.145426,0.288586 0.439966,0.458671 0.560903,0.762688 0.298314,0.750361 0.315593,1.615033 0.682007,2.340733 0.303012,0.600154 0.875827,1.0444 1.258094,1.593479 l -0.922122,0.756063 -0.627662,1.421129 -1.637085,1.068385 -0.838757,0.780049 c -0.397196,-0.745999 -0.488109,-1.623836 -0.932436,-2.348284 -1.043896,-1.701832 -2.896143,-3.146613 -4.435067,-4.377196 -1.307606,-1.045654 -2.505765,-2.073615 -3.619297,-3.338584 -0.431655,-0.490372 -1.020655,-1.047585 -1.240987,-1.677279 -0.09152,-0.261589 -0.06907,-0.564526 -0.08788,-0.838737 0.746643,0.525946 1.367664,1.283797 2.012813,1.928946 1.109697,1.109729 2.231471,2.203273 3.438553,3.207666 0.633149,0.526771 1.625843,1.498456 2.516016,1.471956 0.964306,-0.02869 0.804539,-1.365527 0.650896,-1.995873 -0.358448,-1.470108 -1.744924,-3.085642 -3.166912,-3.606289 0.08749,-0.259453 0.220598,-0.447592 0.378637,-0.670939 0.171986,-0.243062 0.552877,-1.085216 -0.127419,-0.902928 -0.448816,0.120255 -0.825085,0.52645 -1.257624,0.704649 -0.16598,0.06839 -0.449561,0.163256 -0.581114,-0.02038 -0.296362,-0.413682 0.486908,-0.931729 0.748849,-1.104051 0.284704,-0.1873 0.591875,-0.420662 0.922541,-0.517503 0.249395,-0.07305 0.505206,-0.02913 0.754804,-0.117129 0.602025,-0.212252 1.141104,-0.556795 1.761212,-0.726398 -0.105339,0.20441 -0.666939,0.806263 -0.310478,0.991655 0.192308,0.100009 0.374301,-0.120896 0.489114,-0.241833 0.311736,-0.328155 0.5578,-0.788956 0.933359,-1.046009 0.67077,-0.45908 1.484701,-0.527281 2.158825,-0.918144 0.554278,-0.321372 1.032909,-0.790643 1.50961,-1.213609 0.236003,-0.209434 0.520647,-0.533947 0.838671,-0.609404 0.235499,-0.05588 0.520146,0.06751 0.754805,0.101991 m 3.438556,2.683752 c 0.13335,0.488711 0.363229,0.989774 0.249171,1.509609 -0.110119,0.50218 -0.527357,0.948663 -0.83624,1.341875 -0.60871,0.774958 -1.326447,1.519423 -1.858584,2.34828 -0.504376,0.785416 -0.661207,1.936494 -0.725871,2.851487 -0.05217,0.738366 0.370107,1.256918 0.743317,1.845078 0.165552,0.260911 0.456823,0.59487 0.441225,0.922372 -0.01049,0.219561 -0.162956,0.411114 -0.277432,0.587237 -0.752123,-0.39015 -1.732528,-1.398654 -2.078732,-2.180548 -0.268794,-0.607115 -0.373128,-1.365442 -0.521154,-2.012813 0.965818,0.09074 1.335922,-1.22186 1.761212,-1.928944 0.772251,-1.283756 2.088127,-2.195484 2.786991,-3.522422 0.292866,-0.55605 0.08647,-1.214021 0.316097,-1.761211 m -12.915551,0.670935 -1.258008,0.838674 0.287969,-0.99651 0.970039,0.157836 m 16.186372,3.35469 c 0.248162,0.178551 0.797911,0.4585 0.60787,0.835736 -0.288505,0.572644 -1.072662,0.985438 -1.466669,1.512545 -0.957934,1.281658 -1.808096,2.645927 -2.748415,3.941756 -0.368846,0.508405 -0.801768,1.309419 -1.424818,1.50961 l 0.587155,-1.013954 1.033996,-1.502062 3.410881,-5.283631 m -7.79965,11.238203 h 0.58707 l 0.08387,0.335468 c -0.373794,-0.05032 -0.823323,-0.261076 -1.170532,-0.03296 -0.732413,0.48123 -0.846893,1.835267 -0.0022,2.258712 0.720334,0.361133 1.613354,-0.628248 1.656881,-1.303213 0.02079,-0.32339 -0.158929,-0.573315 -0.316265,-0.838671 0.878091,-0.732917 1.584002,-1.965009 2.180549,-2.935353 0.82995,1.043645 -0.740465,2.305089 -1.096061,3.186955 -0.294375,0.729979 0.230383,1.417521 0.04495,2.180545 -0.383611,1.578213 -2.35231,1.708628 -3.561592,1.146971 -0.983175,-0.456576 -0.874061,-1.637089 -0.926144,-2.572711 -0.03329,-0.597723 -0.216544,-0.90174 0.214867,-1.422136 0.558389,-0.673706 1.525462,-0.84161 2.121505,-1.513553 0.444077,-0.500604 0.440473,-1.27478 0.887232,-1.716258 0.300831,-0.297142 1.29885,-0.510414 1.221105,0.207403 -0.03547,0.327838 -0.405498,0.667835 -0.59294,0.922121 -0.481062,0.652656 -1.090358,1.314031 -1.332146,2.096679 m 2.767618,-2.767617 -0.335471,-0.08387 0.335471,0.08387 m -1.845081,2.264414 -0.08387,0.08387 0.08387,-0.08387 m 2.264418,0.670939 c 0.745074,1.131369 1.844491,2.181971 1.845077,3.606288 8.3e-5,0.309723 0.101395,0.863748 -0.146098,1.102182 -0.19323,0.186101 -0.531047,0.153478 -0.776442,0.155826 -0.431915,0.0042 -0.835653,0.0858 -1.258008,0.167736 0,-0.393843 0.01483,-0.786759 -0.06869,-1.174142 -0.06131,-0.283807 -0.214702,-0.549916 -0.245649,-0.838671 -0.04193,-0.391662 0.09863,-0.775437 0.03724,-1.174142 -0.11473,-0.744909 -0.382603,-1.563369 0.612567,-1.845077 m -3.345631,0.662884 c 0.910796,-0.225435 0.8354,1.072829 0.07581,1.177163 -0.615921,0.08454 -0.591935,-1.049348 -0.07581,-1.177163 m -1.743527,1.08792 c -0.273153,0.09234 -0.130079,0.424453 0,0.570298 0.230719,0.25873 0.992148,0.957509 1.371983,0.810406 0.262589,-0.101731 0.122614,-0.41514 -0.0094,-0.559394 C 49.565355,81.039176 48.802081,80.345174 48.4334,80.4698 m 4.082739,1.939344 c 0.139892,0.54195 0.207573,1.301535 -0.360544,1.651346 -0.378745,0.233236 -0.972861,0.220906 -1.400667,0.330437 -0.521233,0.13335 -1.047164,0.384194 -1.593476,0.229207 -0.990722,-0.281121 -1.702168,-1.041546 -2.767618,-1.180345 -0.748516,-0.09746 -1.515229,0.04378 -2.264414,-0.04823 -0.57809,-0.07104 -1.121682,-0.219564 -1.591859,-0.576501 -0.219128,-0.166309 -0.432996,-0.357276 -0.35708,-0.657854 0.08843,-0.350147 0.5003,-0.929501 0.859899,-1.03056 0.330745,-0.09301 1.174887,0.170753 1.508377,0.285147 0.532555,0.182662 0.970258,0.568118 1.509609,0.74147 0.452462,0.145426 1.004394,0.06994 1.425741,0.269634 0.299491,0.141985 0.546898,0.386793 0.838674,0.547064 0.634118,0.348217 1.620901,0.628251 2.348281,0.501862 0.759584,-0.131923 1.189236,-0.757236 1.845077,-1.062682 z"
     id="path3201"
     inkscape:label="Graphic"
     sodipodi:insensitive="true" />
  <path
     style="fill:#ffffff;fill-opacity:1;stroke-width:0.0838671"
     d="m 18.690584,80.48947 c -0.151599,0.09927 -0.19136,0.09788 -0.280783,-0.0099 -0.07038,-0.0848 -0.08607,-0.257149 -0.04836,-0.531294 0.05211,-0.378932 0.04156,-0.412262 -0.159526,-0.503885 -0.162746,-0.07415 -0.21533,-0.160632 -0.21533,-0.354144 0,-0.151173 0.05196,-0.275968 0.126867,-0.304714 0.06978,-0.02678 0.182551,-0.0025 0.25061,0.05401 0.09855,0.08179 0.130646,0.07943 0.157652,-0.01157 0.01864,-0.06285 0.110293,-0.397333 0.203643,-0.743283 0.09335,-0.345953 0.167942,-0.685615 0.165751,-0.754805 -0.0022,-0.06919 0.170804,-0.641849 0.384422,-1.272573 0.213618,-0.630727 0.3884,-1.20157 0.3884,-1.268541 0,-0.06697 0.09629,-0.339497 0.21398,-0.605616 0.11769,-0.266116 0.196415,-0.529626 0.174943,-0.585579 -0.02146,-0.05595 -0.15647,-0.12522 -0.299995,-0.153925 -0.143521,-0.02872 -0.353912,-0.145151 -0.467533,-0.258769 -0.162201,-0.162204 -0.191325,-0.24814 -0.135575,-0.400039 0.0465,-0.126693 0.151991,-0.20305 0.305681,-0.221257 0.129074,-0.01528 0.389186,0.03536 0.578026,0.112562 0.188837,0.0772 0.463711,0.198203 0.610824,0.268902 0.147116,0.0707 0.74024,0.435421 1.318053,0.810498 0.77505,0.503108 1.171714,0.824781 1.51251,1.22657 0.35526,0.418846 0.480752,0.641463 0.543384,0.963957 0.0448,0.230633 0.104774,0.683516 0.133289,1.006406 0.04856,0.549822 0.03421,0.621658 -0.226025,1.132209 -0.277223,0.543859 -0.279939,0.546176 -1.161716,0.989553 -0.641019,0.322319 -1.009684,0.455485 -1.341874,0.484701 -0.251919,0.02216 -0.520599,0.05948 -0.59707,0.08295 -0.07647,0.02346 -0.498607,0.04487 -0.938079,0.04756 l -0.799042,0.0049 -0.110261,0.339728 c -0.06064,0.186849 -0.189734,0.391769 -0.286865,0.45538 z m 1.850047,-1.504551 c 0.412998,-0.03535 0.90362,-0.105373 1.090273,-0.155617 0.186656,-0.05025 0.610136,-0.219831 0.941071,-0.376856 0.449339,-0.213203 0.651086,-0.364928 0.796737,-0.599187 0.162563,-0.26145 0.192302,-0.413587 0.178589,-0.913608 -0.009,-0.329956 -0.07006,-0.726229 -0.135587,-0.880604 -0.06553,-0.154378 -0.245313,-0.412776 -0.399529,-0.574222 -0.154217,-0.161444 -0.400645,-0.369014 -0.547619,-0.461271 -0.146976,-0.09225 -0.54306,-0.367146 -0.880192,-0.610874 -0.337128,-0.243728 -0.665394,-0.432428 -0.729484,-0.419337 -0.06409,0.01309 -0.250096,0.382339 -0.413349,0.820546 -0.163251,0.438204 -0.36482,0.947699 -0.447929,1.132206 -0.0831,0.184507 -0.17552,0.486428 -0.205361,0.670938 -0.02983,0.184507 -0.161748,0.67513 -0.293126,1.090273 -0.131378,0.415143 -0.262832,0.875035 -0.292114,1.021983 -0.0518,0.259922 -0.04455,0.267894 0.266737,0.293538 0.17599,0.01448 0.657886,-0.0025 1.070883,-0.03791 z M 4.1320572,80.516857 c -0.086693,0 -0.1692062,-0.08409 -0.1990022,-0.202806 -0.027989,-0.111545 -0.00643,-0.422903 0.047934,-0.691907 0.054359,-0.269001 0.206112,-0.927872 0.3372333,-1.464158 0.1311181,-0.53628 0.4286499,-1.45108 0.6611789,-2.032884 0.2325291,-0.581804 0.4960839,-1.20151 0.5856747,-1.377122 0.089591,-0.175613 0.1891125,-0.459067 0.2211622,-0.629897 0.040345,-0.215066 0.1025805,-0.3106 0.2023336,-0.3106 0.090684,0 0.2164836,-0.154616 0.3395092,-0.417283 0.1074937,-0.229502 0.2773942,-0.494271 0.3775625,-0.588372 0.1805224,-0.169593 0.1834164,-0.169657 0.3303327,-0.0073 0.1261067,0.139344 0.1339361,0.207051 0.052488,0.453837 -0.05265,0.159536 -0.243151,0.500516 -0.4233342,0.757737 -0.1801832,0.257222 -0.2910876,0.490245 -0.2464507,0.517832 0.044637,0.02758 0.2031229,-0.02333 0.3521947,-0.113149 0.1490718,-0.08982 0.4755785,-0.22972 0.7255699,-0.310895 0.2499914,-0.08118 0.690081,-0.149842 0.9779735,-0.15259 0.3169435,-0.0032 0.5760163,0.03863 0.6567095,0.105601 0.074341,0.0617 0.1332672,0.237696 0.1332672,0.398033 0,0.158086 -0.054682,0.393173 -0.1215168,0.522418 -0.066835,0.129242 -0.254147,0.344375 -0.4162529,0.47807 -0.1621028,0.133695 -0.4050223,0.32729 -0.5398142,0.43021 -0.1347951,0.102919 -0.3462102,0.225574 -0.4698127,0.272569 -0.1236026,0.04699 -0.3354963,0.08544 -0.4708746,0.08544 -0.1353783,0 -0.2461433,0.0206 -0.2461433,0.04576 0,0.02517 0.1303099,0.506351 0.2895757,1.069307 0.1592689,0.562954 0.3151969,1.174513 0.3465081,1.35902 0.031317,0.184507 0.092329,0.403935 0.1355907,0.48762 0.06183,0.119593 0.1357364,0.140029 0.3453986,0.0955 0.146704,-0.03116 0.3299682,-0.112366 0.4072539,-0.180462 0.077286,-0.06809 0.2360855,-0.31864 0.352892,-0.556767 0.1168066,-0.23813 0.4431168,-0.659403 0.7251325,-0.936164 l 0.51276,-0.503203 -0.05748,0.335468 c -0.0316,0.184507 -0.1947166,0.540632 -0.3624489,0.791387 -0.1677291,0.250752 -0.5314047,0.699923 -0.8081649,0.998159 -0.2767634,0.298232 -0.6267234,0.593992 -0.7776875,0.657248 -0.1994904,0.08359 -0.3192638,0.09104 -0.4383811,0.02729 C 7.5807822,79.881537 7.4660392,79.765478 7.4159408,79.671868 7.3658424,79.578258 7.2746382,79.267768 7.2132616,78.981886 7.1518883,78.696006 6.9667919,78.009218 6.801941,77.455695 6.6370868,76.902171 6.4617914,76.288891 6.4123903,76.092853 6.3598734,75.884427 6.2734524,75.736417 6.2042782,75.736417 c -0.065066,0 -0.2150952,0.126905 -0.3334011,0.282009 -0.1183058,0.155107 -0.2770993,0.466465 -0.3528793,0.691907 -0.075777,0.225441 -0.2049456,0.496851 -0.287043,0.60313 -0.082094,0.106283 -0.2262085,0.427075 -0.3202496,0.712872 -0.094041,0.285797 -0.232789,0.764945 -0.3083313,1.064772 -0.075539,0.299823 -0.1789406,0.74327 -0.2297808,0.985438 -0.069288,0.330038 -0.1295268,0.440302 -0.2405359,0.440302 z M 7.2871683,75.56838 c 0.095743,-1.74e-4 0.3061726,-0.08043 0.4676161,-0.178357 0.1614434,-0.09792 0.4350623,-0.289655 0.6080374,-0.42607 0.1729752,-0.136415 0.3145028,-0.276307 0.3145028,-0.31087 0,-0.03456 -0.066046,-0.06573 -0.1467673,-0.06926 -0.080725,-0.0035 -0.4298195,0.06786 -0.7757729,0.158651 -0.3459534,0.09079 -0.717487,0.222681 -0.8256305,0.293097 l -0.1966249,0.128034 0.190279,0.202543 c 0.1046504,0.111396 0.2686138,0.2024 0.3643603,0.202229 z M 37.02444,80.514289 c -0.06919,0 -0.173666,-0.0304 -0.232168,-0.06751 -0.0585,-0.03713 -0.14045,-0.186355 -0.182107,-0.33161 -0.04968,-0.173226 -0.0368,-0.517486 0.03744,-1.000511 0.06225,-0.405025 0.156179,-0.925114 0.208734,-1.155747 0.05255,-0.230634 0.166993,-0.683517 0.254308,-1.006407 0.08732,-0.32289 0.179683,-0.952197 0.20526,-1.398461 l 0.0465,-0.811392 -0.48096,-0.139819 c -0.264528,-0.0769 -0.623624,-0.212601 -0.797987,-0.301554 -0.226782,-0.115694 -0.317026,-0.216157 -0.317026,-0.352924 0,-0.105154 0.04352,-0.234713 0.09672,-0.287905 0.06486,-0.06486 0.145912,-0.07038 0.246067,-0.01677 0.08215,0.04396 0.418491,0.136545 0.747442,0.205741 0.328944,0.0692 0.668048,0.125812 0.753559,0.125812 0.120807,0 0.196631,-0.13865 0.340083,-0.621861 0.136354,-0.459314 0.228167,-0.633253 0.351247,-0.665442 0.09165,-0.02396 0.257906,-0.0089 0.369454,0.03354 0.111548,0.04241 0.223124,0.130034 0.247947,0.194717 0.02482,0.06468 -0.0155,0.411197 -0.08963,0.770026 -0.07412,0.358832 -0.117498,0.697403 -0.0964,0.752383 0.02111,0.05498 0.37374,0.187464 0.78365,0.294409 0.739891,0.193037 0.745033,0.19621 0.709563,0.437871 -0.01965,0.133882 -0.08257,0.2614 -0.139816,0.283366 -0.05725,0.02197 -0.334387,-0.03764 -0.615861,-0.132462 -0.281477,-0.09482 -0.635621,-0.17106 -0.786987,-0.169419 -0.253013,0.0029 -0.293824,0.04293 -0.50585,0.498145 -0.126849,0.272338 -0.230634,0.57413 -0.230634,0.670647 0,0.09652 -0.05974,0.315802 -0.13275,0.487297 -0.07301,0.171495 -0.169971,0.6326 -0.21546,1.02468 -0.04549,0.392077 -0.108407,1.120028 -0.139816,1.617668 -0.04205,0.66619 -0.09029,0.925723 -0.182913,0.984154 -0.06919,0.04365 -0.182411,0.07936 -0.251601,0.07936 z M 12.996485,80.206313 c -0.33898,0.09729 -0.48362,0.101097 -0.754805,0.01987 -0.184507,-0.05527 -0.448778,-0.159567 -0.587269,-0.231788 -0.138491,-0.07222 -0.313542,-0.201221 -0.389005,-0.286666 -0.07547,-0.08544 -0.235772,-0.43122 -0.35624,-0.768387 -0.139632,-0.390818 -0.219029,-0.787799 -0.219029,-1.095157 0,-0.394432 0.05845,-0.595634 0.321334,-1.106242 0.176738,-0.343265 0.431484,-0.814425 0.566105,-1.047018 0.134623,-0.232592 0.374218,-0.582289 0.532438,-0.777098 0.158219,-0.194808 0.479011,-0.496153 0.712871,-0.669651 0.233861,-0.173495 0.708254,-0.452462 1.054207,-0.619925 0.34595,-0.167462 0.827139,-0.362544 1.069305,-0.433509 0.393306,-0.115259 0.485595,-0.115583 0.864637,-0.0032 0.233382,0.06931 0.568365,0.256137 0.744405,0.415178 0.24266,0.219228 0.361926,0.425997 0.493127,0.854906 0.09518,0.311159 0.192177,0.792183 0.215548,1.068944 0.03833,0.453909 0.01436,0.556604 -0.244555,1.048339 -0.157877,0.299827 -0.362953,0.700497 -0.455726,0.89038 -0.09277,0.189886 -0.348401,0.574732 -0.56807,0.855217 -0.219666,0.280485 -0.569226,0.636803 -0.776797,0.791815 -0.207573,0.155012 -0.698195,0.437452 -1.090275,0.627646 -0.392077,0.190193 -0.901573,0.399963 -1.132206,0.466158 z m 0.115593,-0.872264 c 0.109699,0.0048 0.406258,-0.10965 0.65901,-0.254261 0.252756,-0.144612 0.700497,-0.488321 0.994983,-0.763798 0.372221,-0.348194 0.603029,-0.651508 0.757217,-0.995078 0.121983,-0.271815 0.254375,-0.49421 0.2942,-0.49421 0.03983,0 0.07242,-0.06133 0.07242,-0.136282 0,-0.07496 0.0978,-0.35421 0.217336,-0.620574 0.210509,-0.469074 0.213688,-0.500724 0.101189,-1.007208 l -0.11615,-0.522916 -0.567838,-0.209897 -0.567835,-0.209894 -0.620492,0.314944 c -0.412351,0.209301 -0.768105,0.473388 -1.060556,0.787282 -0.242035,0.259786 -0.576603,0.720473 -0.743479,1.023752 -0.166883,0.303282 -0.370133,0.756164 -0.451672,1.006406 -0.08154,0.250245 -0.186732,0.501825 -0.233762,0.559065 -0.05009,0.06096 -0.06205,0.260537 -0.02885,0.481835 0.0316,0.210721 0.147363,0.485573 0.261792,0.621566 0.112832,0.134092 0.346423,0.281331 0.51909,0.327201 0.172671,0.04587 0.403704,0.0873 0.513407,0.09207 z m 20.188126,0.931206 c -0.06221,0 -0.152134,-0.04718 -0.199824,-0.104834 -0.04769,-0.05766 -0.124052,-0.293535 -0.169691,-0.524168 -0.04564,-0.230637 -0.129096,-0.551429 -0.185458,-0.712872 -0.05636,-0.161444 -0.152938,-0.406756 -0.214616,-0.545136 -0.06168,-0.138384 -0.169828,-0.481788 -0.240327,-0.763126 -0.0705,-0.281337 -0.124829,-0.658738 -0.120731,-0.838671 0.0041,-0.179933 -0.05667,-0.572463 -0.135035,-0.872286 -0.07837,-0.299827 -0.15945,-0.600104 -0.180177,-0.667284 -0.02767,-0.08962 -0.09203,-0.05611 -0.241719,0.125802 -0.112213,0.136371 -0.270804,0.388042 -0.352422,0.559271 -0.103212,0.216524 -0.190023,0.298777 -0.285081,0.270119 -0.09836,-0.02964 -0.174782,0.05401 -0.27257,0.29841 -0.07474,0.186789 -0.135889,0.393722 -0.135889,0.459856 0,0.06613 -0.108761,0.45579 -0.241693,0.865909 -0.132931,0.410119 -0.28522,0.827 -0.338418,0.926401 -0.0532,0.09941 -0.172063,0.180735 -0.264142,0.180735 -0.09208,0 -0.187439,-0.05218 -0.211906,-0.115941 -0.02447,-0.06377 0.01173,-0.318516 0.08047,-0.566105 0.06872,-0.247588 0.319875,-1.013944 0.558113,-1.70301 0.238238,-0.689067 0.524004,-1.371953 0.635038,-1.517525 0.111034,-0.145572 0.20188,-0.295884 0.20188,-0.334026 0,-0.03814 0.05289,-0.128927 0.117539,-0.20175 0.06465,-0.07282 0.135394,-0.350439 0.157218,-0.616922 0.0344,-0.420114 0.07954,-0.523233 0.339573,-0.775773 0.164943,-0.160189 0.359311,-0.291253 0.43193,-0.291253 0.07262,0 0.165707,0.08857 0.206864,0.196822 0.04116,0.108251 0.07777,0.532831 0.08137,0.943505 0.0036,0.410677 0.08367,1.124088 0.177939,1.585355 0.09427,0.46127 0.204388,0.970765 0.244701,1.132208 0.04031,0.161444 0.159374,0.702757 0.264579,1.202921 0.156727,0.745083 0.204996,0.873881 0.267178,0.712872 0.04174,-0.108084 0.14381,-0.479567 0.22682,-0.82552 0.08301,-0.34595 0.177369,-0.836576 0.209684,-1.090273 0.03232,-0.2537 0.126652,-0.61773 0.20964,-0.80896 0.08299,-0.19123 0.175813,-0.474279 0.206284,-0.629003 0.03046,-0.154723 0.08572,-0.356794 0.122765,-0.44905 0.03705,-0.09225 0.110331,-0.302502 0.162848,-0.467223 0.05252,-0.164718 0.09549,-0.363368 0.09549,-0.44144 0,-0.07808 0.04718,-0.226354 0.104834,-0.329515 0.05766,-0.103161 0.109817,-0.198834 0.115903,-0.212613 0.0061,-0.01379 0.113428,6.34e-4 0.23853,0.03204 0.190152,0.04772 0.220946,0.0931 0.187755,0.276652 -0.02184,0.120756 -0.121383,0.533694 -0.221219,0.917634 -0.09983,0.38394 -0.250771,0.874565 -0.335417,1.090276 -0.08465,0.215706 -0.218328,0.731861 -0.297072,1.147002 -0.07874,0.415143 -0.237813,1.113339 -0.353494,1.551546 -0.115678,0.438203 -0.28336,1.051483 -0.372624,1.362839 -0.09715,0.338862 -0.207703,0.566104 -0.275416,0.566104 z m -5.495724,-0.09018 c -0.07218,-0.0035 -0.433605,-0.111076 -0.803167,-0.239119 -0.369565,-0.128044 -0.792268,-0.295034 -0.939343,-0.37109 -0.147075,-0.07606 -0.307022,-0.138282 -0.35544,-0.138282 -0.04842,0 -0.08803,0.115105 -0.08803,0.255786 v 0.255789 l -0.482235,-0.02514 -0.482238,-0.02517 0.0025,-0.629005 c 0.0016,-0.345951 0.0878,-1.019526 0.191959,-1.496829 0.104159,-0.477306 0.211944,-1.175499 0.239521,-1.551546 0.02758,-0.376041 0.087,-0.730474 0.13205,-0.787625 0.04505,-0.05715 0.116157,-0.08274 0.158024,-0.05687 0.04187,0.02587 0.128484,-0.07833 0.192482,-0.231556 0.064,-0.153234 0.17946,-0.522206 0.256587,-0.819937 0.127628,-0.492689 0.128319,-0.55004 0.0077,-0.638249 -0.0729,-0.05331 -0.132544,-0.151592 -0.132544,-0.218411 0,-0.06682 0.05016,-0.190095 0.111475,-0.273942 0.09269,-0.126763 0.142374,-0.135911 0.294894,-0.05428 0.166728,0.08923 0.187975,0.07542 0.233407,-0.151756 0.02748,-0.137455 0.105078,-0.271061 0.172414,-0.296898 0.06734,-0.02583 0.289978,-0.0048 0.494756,0.04677 0.276627,0.06966 0.384685,0.143011 0.420424,0.285407 0.02647,0.105415 0.0069,0.268687 -0.0435,0.36283 -0.07706,0.143984 -0.0575,0.195179 0.123143,0.322313 0.118116,0.08313 0.367273,0.2738 0.553682,0.423711 0.186412,0.149915 0.406801,0.27257 0.489754,0.27257 0.08296,0 0.173736,0.0597 0.201734,0.132659 0.02799,0.07297 0.05091,0.202951 0.05091,0.288859 0,0.08591 -0.08492,0.253053 -0.1887,0.371429 l -0.188704,0.215231 -0.653387,-0.374735 c -0.64405,-0.369381 -0.654364,-0.372091 -0.721684,-0.189588 -0.03757,0.101833 -0.135233,0.392721 -0.217038,0.646418 -0.08181,0.2537 -0.165422,0.504861 -0.185807,0.558142 -0.02117,0.05534 0.08232,0.122318 0.241424,0.156232 0.153167,0.03265 0.487874,0.201154 0.743793,0.374459 0.255918,0.173302 0.585028,0.377005 0.731351,0.452671 0.146327,0.07567 0.308693,0.217263 0.360817,0.314661 0.07819,0.146095 0.06424,0.207624 -0.07974,0.351596 l -0.174513,0.174512 -0.609679,-0.286349 c -0.335319,-0.157491 -0.704025,-0.36799 -0.819342,-0.467774 -0.115317,-0.09979 -0.304017,-0.201969 -0.419337,-0.227077 -0.115317,-0.0251 -0.289652,-0.07068 -0.387408,-0.101275 -0.162169,-0.05075 -0.182136,-0.01645 -0.227866,0.391598 -0.02758,0.245969 -0.07504,0.645356 -0.105497,0.887521 -0.05498,0.437154 -0.05374,0.440302 0.173574,0.440302 0.12592,0 0.547346,0.149208 0.936504,0.331572 0.389157,0.182367 0.760133,0.3114 0.824394,0.286739 0.07182,-0.02755 0.167615,0.05336 0.248634,0.210033 0.120722,0.233445 0.119891,0.279835 -0.0099,0.551935 -0.07791,0.163387 -0.200717,0.294223 -0.272896,0.290752 z M 26.207875,71.5305 c -0.02434,-0.0069 -0.148564,-0.02834 -0.276069,-0.04762 -0.168192,-0.02542 -0.277648,-0.124857 -0.398727,-0.362195 -0.09179,-0.179926 -0.219489,-0.552588 -0.283772,-0.828135 -0.08352,-0.358033 -0.09616,-0.639979 -0.04428,-0.988078 0.03993,-0.267899 0.110083,-0.741794 0.155906,-1.053099 0.04582,-0.311304 0.126474,-0.726448 0.179229,-0.92254 0.05275,-0.196089 0.145429,-0.45237 0.20595,-0.569509 0.107849,-0.208756 0.104669,-0.212353 -0.160223,-0.181429 -0.173311,0.02022 -0.308892,-0.01499 -0.377965,-0.09824 -0.05924,-0.07138 -0.128158,-0.282224 -0.153148,-0.468541 -0.02498,-0.186317 -0.07393,-0.338758 -0.108743,-0.338758 -0.03482,0 -0.0828,-0.122655 -0.106631,-0.272567 -0.0345,-0.217076 0.0595,-0.477471 0.461717,-1.278976 0.277771,-0.553523 0.604341,-1.166734 0.725709,-1.36269 0.125726,-0.202993 0.284951,-0.35635 0.370069,-0.356436 0.08217,-8.2e-5 0.169672,0.05268 0.194447,0.117241 0.02479,0.06457 -0.01068,0.300442 -0.07881,0.524171 -0.06813,0.223727 -0.278282,0.737688 -0.467017,1.142137 -0.255145,0.546762 -0.343151,0.840937 -0.343151,1.147024 0,0.324054 0.03122,0.418424 0.146767,0.443418 0.08072,0.01747 0.363923,-0.03989 0.629338,-0.127463 0.342603,-0.113038 0.555895,-0.248169 0.735387,-0.465908 0.139049,-0.168677 0.404189,-0.597634 0.589196,-0.953233 0.185011,-0.355596 0.369974,-0.6673 0.411026,-0.692674 0.04106,-0.02536 0.134333,0.01357 0.207282,0.08651 0.07308,0.07307 0.115513,0.214651 0.0945,0.315273 -0.02098,0.100447 -0.09649,0.454265 -0.167812,0.786258 -0.07132,0.331997 -0.129669,0.643352 -0.129669,0.691907 0,0.05842 0.503399,0.08874 1.488641,0.08964 1.062924,9.51e-4 1.735749,0.04507 2.352706,0.154185 0.500141,0.08846 0.920426,0.20919 0.997895,0.286659 0.114135,0.114135 0.11816,0.171695 0.02732,0.390955 -0.05857,0.141414 -0.137436,0.257114 -0.175245,0.257114 -0.03781,0 -0.09366,-0.04031 -0.124106,-0.08958 -0.03046,-0.04927 -0.111732,-0.06796 -0.180624,-0.04152 -0.06889,0.02644 -0.296312,-0.02761 -0.505381,-0.120084 -0.337639,-0.149354 -0.561106,-0.168148 -1.999414,-0.168148 -0.890611,0 -1.712555,0.03546 -1.826544,0.0788 -0.172065,0.06542 -0.230446,0.180779 -0.343871,0.679459 -0.07514,0.330364 -0.175162,0.908184 -0.222274,1.284044 -0.04711,0.375861 -0.200439,1.050455 -0.340727,1.499094 -0.140291,0.448638 -0.368595,0.987093 -0.507343,1.196562 -0.138744,0.209472 -0.332152,0.436812 -0.429794,0.5052 -0.09764,0.06839 -0.197436,0.118692 -0.221768,0.111779 z m -0.158632,-0.65837 c 0.04121,0 0.150378,-0.122655 0.2426,-0.27257 0.09222,-0.149912 0.241084,-0.517879 0.330814,-0.817703 0.08973,-0.299827 0.277575,-1.111242 0.417436,-1.803149 0.13986,-0.691903 0.254622,-1.361793 0.255021,-1.488641 3.17e-4,-0.126849 -0.02425,-0.230634 -0.0548,-0.230634 -0.03056,0 -0.219489,0.09608 -0.419876,0.213517 -0.250771,0.146964 -0.427363,0.337883 -0.566516,0.612491 -0.135616,0.267625 -0.248001,0.728822 -0.341373,1.400924 -0.07656,0.551073 -0.141259,1.199181 -0.143772,1.440234 -0.0025,0.241052 0.04271,0.552411 0.100488,0.691903 0.05778,0.139496 0.13877,0.253628 0.17998,0.253628 z m -5.001015,-0.335468 c -0.12676,0 -0.207532,-0.0632 -0.241167,-0.188704 -0.0278,-0.103785 -0.05108,-0.556668 -0.05172,-1.006406 -6.34e-4,-0.449737 -0.02529,-0.817704 -0.05485,-0.817704 -0.02954,0 -0.332203,0.283049 -0.672587,0.629003 -0.440156,0.447355 -0.678958,0.629006 -0.826901,0.629006 -0.114414,0 -0.283503,-0.07548 -0.375756,-0.167735 -0.09225,-0.09225 -0.167735,-0.203516 -0.167735,-0.247247 0,-0.04373 0.18281,-0.298481 0.406249,-0.566105 0.223434,-0.267625 0.675585,-0.73998 1.00478,-1.049681 l 0.598534,-0.563086 0.08361,-0.988456 c 0.04598,-0.54365 0.08737,-1.026196 0.09197,-1.072322 0.0046,-0.04613 0.004,-0.272567 -0.0013,-0.503204 -0.0053,-0.230633 0.0074,-0.664646 0.02818,-0.964473 0.02079,-0.299824 0.06238,-0.642205 0.0924,-0.760846 0.03002,-0.118642 0.171235,-0.284628 0.313831,-0.368862 0.245417,-0.14497 0.26494,-0.145385 0.365571,-0.0078 0.05847,0.07996 0.137534,0.434654 0.175695,0.788199 0.03816,0.353545 0.06319,1.029647 0.05562,1.502446 -0.0076,0.472801 0.01214,0.859639 0.04383,0.859639 0.03167,0 0.129451,-0.133423 0.21727,-0.296499 0.08782,-0.163072 0.331582,-0.454953 0.541684,-0.64862 0.210106,-0.193667 0.386397,-0.39047 0.39176,-0.437341 0.0054,-0.04687 0.0155,-0.131521 0.02254,-0.188114 0.007,-0.0566 0.104593,-0.163067 0.216819,-0.236596 0.15222,-0.09974 0.245151,-0.111694 0.365901,-0.04708 0.08902,0.04765 0.20977,0.202299 0.268329,0.343678 0.09836,0.23747 0.08486,0.29161 -0.177198,0.710615 -0.15602,0.249458 -0.623338,0.855727 -1.038478,1.347259 -0.415143,0.491532 -0.810102,0.994048 -0.877688,1.116699 -0.08547,0.155107 -0.139264,0.629656 -0.17669,1.558577 -0.05042,1.251365 -0.06573,1.345226 -0.242847,1.488646 -0.103969,0.08419 -0.274801,0.153072 -0.379629,0.153072 z m -3.978751,-0.509518 c -0.07218,-0.0035 -0.433605,-0.111078 -0.803166,-0.239122 -0.369562,-0.128043 -0.792269,-0.295034 -0.939341,-0.371086 -0.147074,-0.07606 -0.307025,-0.138282 -0.35544,-0.138282 -0.04842,0 -0.08803,0.115104 -0.08803,0.255786 v 0.255785 l -0.482235,-0.02514 -0.482235,-0.02517 0.0025,-0.629003 c 0.0016,-0.345954 0.0878,-1.019527 0.191956,-1.496833 0.104159,-0.477303 0.211944,-1.175499 0.239525,-1.551543 0.02758,-0.376044 0.087,-0.730477 0.132046,-0.787625 0.04505,-0.05715 0.11616,-0.08274 0.158027,-0.05687 0.04187,0.02586 0.128484,-0.07833 0.192479,-0.23156 0.064,-0.15323 0.179463,-0.522202 0.256587,-0.819934 0.127629,-0.492692 0.12832,-0.55004 0.0077,-0.638249 -0.0729,-0.05331 -0.132541,-0.151591 -0.132541,-0.21841 0,-0.06682 0.05016,-0.190096 0.111475,-0.273943 0.09269,-0.126766 0.142374,-0.13591 0.294894,-0.05429 0.166728,0.08923 0.187972,0.07542 0.233407,-0.151754 0.02748,-0.137454 0.105079,-0.271061 0.172414,-0.296901 0.06734,-0.02583 0.289979,-0.0048 0.494756,0.04677 0.276627,0.06966 0.384685,0.143012 0.420424,0.285411 0.02647,0.105411 0.0069,0.268687 -0.0435,0.362829 -0.07706,0.143985 -0.0575,0.195177 0.123146,0.322313 0.118116,0.08313 0.367271,0.2738 0.553682,0.423712 0.186409,0.149912 0.406801,0.27257 0.489754,0.27257 0.08295,0 0.173736,0.0597 0.201732,0.132658 0.02799,0.07296 0.05091,0.202949 0.05091,0.288859 0,0.08591 -0.08492,0.253054 -0.188703,0.371429 l -0.188701,0.215232 -0.653387,-0.374735 c -0.64405,-0.369381 -0.654364,-0.372092 -0.721684,-0.189588 -0.03757,0.101829 -0.135232,0.39272 -0.217041,0.646417 -0.08181,0.253697 -0.165419,0.504861 -0.185804,0.558139 -0.02117,0.05534 0.08232,0.122319 0.241424,0.156235 0.153167,0.03265 0.487874,0.201155 0.743793,0.374456 0.255919,0.173305 0.585028,0.377008 0.731351,0.452674 0.146324,0.07567 0.308693,0.217263 0.360817,0.314661 0.07819,0.146093 0.06423,0.207624 -0.07974,0.351596 l -0.174513,0.174512 -0.609676,-0.286348 c -0.335325,-0.157494 -0.704028,-0.367993 -0.819348,-0.467775 -0.115317,-0.09978 -0.304017,-0.201969 -0.419334,-0.22708 -0.115317,-0.0251 -0.289652,-0.07068 -0.387411,-0.101275 -0.162169,-0.05075 -0.182136,-0.01642 -0.227866,0.391599 -0.02758,0.245972 -0.07504,0.645355 -0.105494,0.887523 -0.05498,0.437155 -0.05374,0.440302 0.173571,0.440302 0.125923,0 0.547349,0.149208 0.936504,0.331572 0.389157,0.182364 0.760136,0.311397 0.824397,0.286739 0.07182,-0.02758 0.167612,0.05336 0.248631,0.210034 0.120722,0.233445 0.119891,0.279835 -0.0099,0.551933 -0.07791,0.163386 -0.200717,0.294225 -0.272893,0.290754 z m -5.487245,-0.590622 c -0.144701,-0.0054 -0.432923,-0.0393 -0.640493,-0.07528 -0.207573,-0.03598 -0.577405,-0.144945 -0.821849,-0.24215 C 9.8754428,69.021891 9.5169117,68.862761 9.3231491,68.765474 9.1293897,68.668184 8.7727225,68.437338 8.5305573,68.252479 8.2247524,68.019047 8.0902521,67.857537 8.0902521,67.72375 c 0,-0.127036 0.092818,-0.2497 0.2725697,-0.360227 0.1826905,-0.112331 0.3555325,-0.152663 0.5241714,-0.122309 0.1383801,0.02491 0.3648199,0.151817 0.5032032,0.282018 0.1383801,0.130199 0.4727891,0.337804 0.7431306,0.46134 0.289262,0.132184 0.70341,0.241494 1.006409,0.265631 0.442943,0.03529 0.536436,0.01712 0.669205,-0.130198 0.151649,-0.168243 0.148559,-0.1754 -0.177983,-0.411946 C 11.448185,67.575661 11.067313,67.375448 10.784575,67.263145 10.275657,67.061002 10.268458,67.05348 10.066169,66.512426 9.8929653,66.049169 9.8728562,65.90004 9.9341852,65.533673 c 0.039794,-0.237724 0.1304558,-0.544588 0.2014718,-0.681915 0.07102,-0.137331 0.242735,-0.345291 0.381604,-0.462142 0.138865,-0.116848 0.376098,-0.251247 0.527179,-0.298667 0.151085,-0.04742 0.614361,-0.14677 1.029505,-0.220778 0.415143,-0.07401 0.815198,-0.152426 0.889013,-0.174259 0.08671,-0.02564 0.212854,0.07379 0.356436,0.280982 0.122224,0.17637 0.222227,0.421464 0.222227,0.544648 0,0.159722 -0.06616,0.257932 -0.230633,0.342356 -0.126852,0.06511 -0.438207,0.157982 -0.691907,0.206385 -0.253697,0.0484 -0.671363,0.11117 -0.928144,0.139486 -0.433208,0.04778 -0.474035,0.07128 -0.566105,0.325895 -0.05457,0.150923 -0.09923,0.354724 -0.09923,0.452886 0,0.103595 0.11436,0.264084 0.27257,0.382514 0.149912,0.112219 0.393998,0.265437 0.54241,0.340482 0.148413,0.07505 0.412595,0.165187 0.58707,0.200311 0.265887,0.05353 0.345449,0.122373 0.491608,0.425357 0.135784,0.281483 0.161754,0.444667 0.117342,0.737304 -0.03138,0.206699 -0.131426,0.477271 -0.222348,0.601273 -0.09092,0.124002 -0.346127,0.348112 -0.567125,0.498029 -0.260363,0.176617 -0.494426,0.269095 -0.6649,0.262702 z"
     id="path3213"
     inkscape:label="Sexyrodent"
     sodipodi:insensitive="true" />
  <path
     d="M 44.180122,2.3077471 V 1.1400519 h 0.132292 v 1.1676952 z"
     id="path26425"
     style="font-size:1.76389px;line-height:1.25;font-family:Questrial;-inkscape-font-specification:'Questrial, Normal';letter-spacing:0px;word-spacing:0px;fill:#505050;stroke-width:0.0410394" />
  <path
     d="M 44.598163,2.3077471 V 1.1400519 h 0.153458 l 0.721431,0.9824868 V 1.1400519 h 0.132292 V 2.3077471 H 45.451886 L 44.730455,1.3217326 v 0.9860145 z"
     id="path26427"
     style="font-size:1.76389px;line-height:1.25;font-family:Questrial;-inkscape-font-specification:'Questrial, Normal';letter-spacing:0px;word-spacing:0px;fill:#505050;stroke-width:0.0410394" />
  <path
     d="m 15.969114,2.3218578 q -0.132292,0 -0.241653,-0.045861 Q 15.6181,2.2301355 15.538725,2.1472327 15.461114,2.0643298 15.41878,1.9567325 15.376447,1.8473714 15.376447,1.723899 q 0,-0.1252361 0.04233,-0.2328334 0.04233,-0.1075973 0.119945,-0.1905002 0.07938,-0.082903 0.188736,-0.1287639 0.109361,-0.045861 0.241653,-0.045861 0.132292,0 0.241653,0.045861 0.109361,0.045861 0.186972,0.1287639 0.07937,0.082903 0.121709,0.1905002 0.04233,0.1075973 0.04233,0.2328334 0,0.1234724 -0.04233,0.2328335 -0.04233,0.1075973 -0.121709,0.1905002 -0.07761,0.082903 -0.186972,0.1287639 -0.109361,0.045861 -0.241653,0.045861 z m 0,-0.128764 q 0.142875,0 0.245181,-0.061736 0.104069,-0.0635 0.15875,-0.1693334 0.05644,-0.1075973 0.05644,-0.2381252 0,-0.1322917 -0.05644,-0.2381251 -0.05468,-0.1058334 -0.15875,-0.1675696 -0.102306,-0.0635 -0.245181,-0.0635 -0.141111,0 -0.245181,0.0635 -0.104069,0.061736 -0.160514,0.1675696 -0.05468,0.1058334 -0.05468,0.2381251 0,0.1305279 0.05468,0.2381252 0.05645,0.1058334 0.160514,0.1693334 0.10407,0.061736 0.245181,0.061736 z"
     id="path26418"
     style="font-size:1.76389px;line-height:1.25;font-family:Questrial;-inkscape-font-specification:'Questrial, Normal';letter-spacing:0px;word-spacing:0px;fill:#505050;stroke-width:0.0410394" />
  <path
     d="m 17.25499,2.3218578 q -0.144639,0 -0.257528,-0.0635 -0.111125,-0.065264 -0.174625,-0.1816806 -0.0635,-0.1164168 -0.0635,-0.2716391 V 1.1400515 h 0.132292 v 0.6685143 q 0,0.1358195 0.05115,0.2204862 0.05292,0.084667 0.13582,0.1252362 0.08467,0.038806 0.176389,0.038806 0.09349,0 0.176389,-0.038806 0.0829,-0.040569 0.135819,-0.1252362 0.05292,-0.084667 0.05292,-0.2204862 V 1.1400515 h 0.132292 V 1.805038 q 0,0.1534584 -0.0635,0.2698752 -0.0635,0.1164167 -0.176389,0.1816806 -0.111125,0.065264 -0.257529,0.065264 z"
     id="path26420"
     style="font-size:1.76389px;line-height:1.25;font-family:Questrial;-inkscape-font-specification:'Questrial, Normal';letter-spacing:0px;word-spacing:0px;fill:#505050;stroke-width:0.0410394" />
  <path
     d="M 18.313323,2.3077466 V 1.2652876 H 17.905865 V 1.1400515 h 0.947209 v 0.1252361 h -0.407459 v 1.042459 z"
     id="path26422"
     style="font-size:1.76389px;line-height:1.25;font-family:Questrial;-inkscape-font-specification:'Questrial, Normal';letter-spacing:0px;word-spacing:0px;fill:#505050;stroke-width:0.0410394" />
  <path
     d="m 30.386645,4.480897 q -0.111125,0 -0.185208,-0.042333 Q 30.127357,4.396231 30.08502,4.3309667 30.04445,4.2639387 30.02857,4.1951471 h 0.148167 q 0.01235,0.037042 0.03528,0.074083 0.02469,0.035278 0.06703,0.059972 0.04233,0.022931 0.107597,0.022931 0.109361,0 0.176389,-0.0635 0.06879,-0.0635 0.100542,-0.1710973 0.03351,-0.1075973 0.03351,-0.2398891 -0.04233,0.07232 -0.125237,0.1199446 -0.08114,0.045861 -0.179916,0.045861 -0.109362,0 -0.201084,-0.047625 -0.08996,-0.049389 -0.142875,-0.1340557 -0.05292,-0.086431 -0.05292,-0.1975557 0,-0.1093611 0.05468,-0.1940279 0.05468,-0.086431 0.146403,-0.1358195 0.09172,-0.049389 0.201083,-0.049389 0.213431,0 0.322792,0.1552223 0.109361,0.1552223 0.109361,0.4427364 0,0.2769307 -0.111125,0.4374447 -0.111125,0.160514 -0.331611,0.160514 z m 0.01058,-0.5626809 q 0.07408,0 0.13582,-0.029986 0.06174,-0.03175 0.09701,-0.086431 0.03704,-0.056445 0.03704,-0.128764 0,-0.077611 -0.03704,-0.1358195 -0.03528,-0.058208 -0.09701,-0.089958 -0.05997,-0.033514 -0.13582,-0.033514 -0.07408,0 -0.135819,0.03175 -0.05997,0.03175 -0.09701,0.088195 -0.03704,0.056445 -0.03704,0.1305278 0,0.07232 0.03704,0.1305279 0.03704,0.056445 0.09701,0.089958 0.06174,0.033514 0.135819,0.033514 z"
     id="path26413"
     style="font-size:1.76389px;line-height:1.25;font-family:Questrial;-inkscape-font-specification:'Questrial, Normal';letter-spacing:0px;word-spacing:0px;fill:#505050;stroke-width:0.0410394" />
  <path
     d="M 31.383242,4.4667859 30.910519,3.2990907 h 0.144639 l 0.403931,1.0177646 0.403931,-1.0177646 h 0.144639 l -0.472723,1.1676952 z"
     id="path26415"
     style="font-size:1.76389px;line-height:1.25;font-family:Questrial;-inkscape-font-specification:'Questrial, Normal';letter-spacing:0px;word-spacing:0px;fill:#505050;stroke-width:0.0410394" />
  <path
     d="m 34.279534,1.623677 h 1.004592 v 0.200429 h -1.004592 z"
     style="font-style:normal;font-variant:normal;font-weight:bold;font-stretch:normal;font-size:42.3333px;line-height:1.25;font-family:'DejaVu Sans Mono';-inkscape-font-specification:'DejaVu Sans Mono, Bold';font-variant-ligatures:normal;font-variant-caps:normal;font-variant-numeric:normal;font-feature-settings:normal;text-align:start;letter-spacing:0px;word-spacing:0px;writing-mode:lr-tb;text-anchor:start;fill:#505050;fill-opacity:1;stroke:none;stroke-width:0.0384039"
     id="path895-0"
     inkscape:connector-curvature="0" />
  <path
     d="m 27.366823,1.275777 v 0.350344 h 0.350344 V 1.820032 H 27.366823 V 2.1720064 H 27.173726 V 1.820032 H 26.821752 V 1.626121 h 0.351974 V 1.275777 Z"
     style="font-style:normal;font-variant:normal;font-weight:bold;font-stretch:normal;font-size:42.3333px;line-height:1.25;font-family:'DejaVu Sans Mono';-inkscape-font-specification:'DejaVu Sans Mono, Bold';font-variant-ligatures:normal;font-variant-caps:normal;font-variant-numeric:normal;font-feature-settings:normal;text-align:start;letter-spacing:0px;word-spacing:0px;writing-mode:lr-tb;text-anchor:start;fill:#505050;fill-opacity:1;stroke:none;stroke-width:0.0384039"
     id="path892-3"
     inkscape:connector-curvature="0" />
  <path
     style="vector-effect:none;fill:#505050;fill-opacity:1;stroke:none;stroke-width:0.0547981;stroke-linecap:butt;stroke-linejoin:miter;stroke-miterlimit:4;stroke-dasharray:none;stroke-dashoffset:0;stroke-opacity:1"
     d="m 27.266746,0.82318 a 0.90072001,0.90072001 0 0 0 -0.900731,0.900731 0.90072001,0.90072001 0 0 0 0.900731,0.9007112 0.90072001,0.90072001 0 0 0 0.895416,-0.8118412 h 2.115856 c 0.04569,0.4607611 0.43327,0.8118249 0.896291,0.8118412 0.17394,-3.11e-4 0.344074,-0.050949 0.489851,-0.1458411 V 2.2529316 c -0.13321,0.1235861 -0.308141,0.1923687 -0.489851,0.1926082 -0.398544,-8e-7 -0.721627,-0.3230847 -0.721628,-0.7216288 -1.1e-5,-0.398551 0.323076,-0.721647 0.721628,-0.721648 0.181756,3.11e-4 0.356694,0.06924 0.489851,0.192954 V 0.968268 C 31.518301,0.873638 31.348173,0.823252 31.174309,0.82318 30.711631,0.823647 30.324559,1.174582 30.278894,1.635002 H 28.163017 A 0.90072001,0.90072001 0 0 0 27.266746,0.82318 Z m 0,0.179083 A 0.72162944,0.72162944 0 0 1 27.988374,1.723911 0.72162944,0.72162944 0 0 1 27.266746,2.4455398 0.72162944,0.72162944 0 0 1 26.545118,1.723911 0.72162944,0.72162944 0 0 1 27.266746,1.002263 Z"
     id="circle817-9-9"
     inkscape:connector-curvature="0" />
  <path
     style="vector-effect:none;fill:#505050;fill-opacity:1;stroke:none;stroke-width:0.0547981;stroke-linecap:butt;stroke-linejoin:miter;stroke-miterlimit:4;stroke-dasharray:none;stroke-dashoffset:0;stroke-opacity:1"
     d="M 34.738289,0.82318 A 0.90072001,0.90072001 0 0 0 33.842874,1.635002 H 31.655788 A 0.48986525,0.48986525 0 0 0 31.174309,1.23402 0.48986525,0.48986525 0 0 0 30.684438,1.723891 0.48986525,0.48986525 0 0 0 31.174309,2.2137624 0.48986525,0.48986525 0 0 0 31.655687,1.812781 h 2.186311 A 0.90072001,0.90072001 0 0 0 34.738289,2.6246222 0.90072001,0.90072001 0 0 0 35.639,1.723911 0.90072001,0.90072001 0 0 0 34.738289,0.82318 Z m 0,0.179083 A 0.72162944,0.72162944 0 0 1 35.459917,1.723911 0.72162944,0.72162944 0 0 1 34.738289,2.4455398 0.72162944,0.72162944 0 0 1 34.016661,1.723911 0.72162944,0.72162944 0 0 1 34.738289,1.002263 Z"
     id="circle817-6"
     inkscape:connector-curvature="0" />
  <path
     d="M 8.8415689,57.011372 V 55.204725 H 8.4169653 v -0.274743 h 0.4246036 v -0.745138 h 0.3122085 v 0.745138 H 9.632497 v 0.274743 H 9.1537774 v 1.806647 z"
     id="path26189"
     style="font-size:4.16278px;font-family:Questrial;-inkscape-font-specification:'Questrial, Normal';letter-spacing:0px;word-spacing:0px;fill:#e74a4a;stroke-width:0.0959977" />
  <path
     d="m 10.877169,57.044674 q -0.316371,0 -0.549487,-0.141535 -0.233116,-0.145697 -0.3579989,-0.391301 -0.1248834,-0.245604 -0.1248834,-0.541161 0,-0.29972 0.1248834,-0.541162 0.1248829,-0.245604 0.3579989,-0.387138 0.233116,-0.145698 0.549487,-0.145698 0.320534,0 0.549487,0.145698 0.233116,0.141534 0.357999,0.387138 0.124883,0.241442 0.124883,0.541162 0,0.295557 -0.124883,0.541161 -0.124883,0.245604 -0.357999,0.391301 -0.228953,0.141535 -0.549487,0.141535 z m 0,-0.283069 q 0.233116,0 0.391301,-0.108232 0.162349,-0.108233 0.245604,-0.287232 0.08326,-0.183163 0.08326,-0.395464 0,-0.216465 -0.08326,-0.395464 -0.08326,-0.179 -0.245604,-0.287232 -0.158185,-0.108233 -0.391301,-0.108233 -0.228953,0 -0.391301,0.108233 -0.162349,0.108232 -0.245604,0.287232 -0.08326,0.178999 -0.08326,0.395464 0,0.212301 0.08326,0.395464 0.08325,0.178999 0.245604,0.287232 0.162348,0.108232 0.391301,0.108232 z"
     style="font-size:4.16278px;font-family:Questrial;-inkscape-font-specification:'Questrial, Normal';letter-spacing:0px;word-spacing:0px;fill:#ffffff;stroke-width:0.0959977"
     id="path26191" />
  <path
     d="m 12.32165,57.011372 v -2.08139 h 0.312209 v 0.324697 q 0.112395,-0.149861 0.274743,-0.25393 0.162349,-0.10407 0.416278,-0.10407 0.216465,0 0.40379,0.10407 0.191488,0.09991 0.308045,0.303883 0.120721,0.199813 0.120721,0.495371 v 1.211369 h -0.312208 v -1.203044 q 0,-0.283069 -0.162349,-0.453743 -0.162348,-0.174837 -0.420441,-0.174837 -0.174836,0 -0.316371,0.07909 -0.141534,0.07909 -0.228953,0.22479 -0.08326,0.141535 -0.08326,0.32886 v 1.198881 z"
     style="font-size:4.16278px;font-family:Questrial;-inkscape-font-specification:'Questrial, Normal';letter-spacing:0px;word-spacing:0px;fill:#ffffff;stroke-width:0.0959977"
     id="path26193" />
  <path
     d="m 15.601921,57.044674 q -0.316372,0 -0.55365,-0.141535 -0.237279,-0.145697 -0.370488,-0.391301 -0.129046,-0.245604 -0.129046,-0.541161 0,-0.29972 0.124884,-0.541162 0.124883,-0.245604 0.357999,-0.387138 0.233115,-0.145698 0.549487,-0.145698 0.320534,0 0.549487,0.145698 0.233115,0.141534 0.357999,0.387138 0.124883,0.241442 0.124883,0.541162 v 0.124883 h -1.744205 q 0.02498,0.183162 0.116558,0.337185 0.09574,0.14986 0.25393,0.241441 0.158185,0.08742 0.366324,0.08742 0.220628,0 0.370488,-0.09574 0.14986,-0.09991 0.233115,-0.25393 h 0.341348 q -0.108232,0.278907 -0.34551,0.457906 -0.233116,0.174837 -0.603603,0.174837 z m -0.728487,-1.240509 h 1.415345 q -0.04163,-0.266417 -0.22479,-0.445417 -0.183162,-0.179 -0.482882,-0.179 -0.299721,0 -0.482883,0.179 -0.178999,0.179 -0.22479,0.445417 z"
     style="font-size:4.16278px;font-family:Questrial;-inkscape-font-specification:'Questrial, Normal';letter-spacing:0px;word-spacing:0px;fill:#ffffff;stroke-width:0.0959977"
     id="path26195" />
  <path
     d="m 46.700504,27.830425 q -0.391302,0 -0.636906,-0.170674 -0.245604,-0.166511 -0.333022,-0.437091 h 0.345511 q 0.06244,0.154022 0.216464,0.237278 0.154023,0.08742 0.391302,0.08742 0.357999,0 0.520347,-0.170674 0.166511,-0.166511 0.166511,-0.487045 v -0.287232 q -0.116558,0.166512 -0.303883,0.270581 -0.183162,0.09991 -0.441254,0.09991 -0.303883,0 -0.532836,-0.137372 -0.22479,-0.141534 -0.349674,-0.382976 -0.124883,-0.241441 -0.124883,-0.536998 0,-0.29972 0.124883,-0.536999 0.124884,-0.241441 0.349674,-0.378813 0.228953,-0.141534 0.532836,-0.141534 0.258092,0 0.441254,0.09991 0.187325,0.09574 0.303883,0.266418 v -0.333022 h 0.312209 v 2.018948 q 0,0.445418 -0.258093,0.682696 -0.253929,0.237278 -0.724323,0.237278 z m -0.0333,-1.140601 q 0.228953,0 0.387139,-0.10407 0.162348,-0.104069 0.245604,-0.278906 0.08742,-0.179 0.08742,-0.391301 0,-0.216465 -0.08742,-0.391302 -0.08326,-0.174836 -0.245604,-0.278906 -0.158186,-0.104069 -0.387139,-0.104069 -0.228952,0 -0.395464,0.104069 -0.166511,0.10407 -0.253929,0.278906 -0.08742,0.174837 -0.08742,0.391302 0,0.212301 0.08742,0.391301 0.08742,0.174837 0.253929,0.278906 0.166512,0.10407 0.395464,0.10407 z"
     id="path26172"
     style="font-size:4.16278px;font-family:Questrial;-inkscape-font-specification:'Questrial, Normal';letter-spacing:0px;word-spacing:0px;fill:#e74a4a;stroke-width:0.0959977" />
  <path
     d="m 49.102425,27.006195 q -0.303883,0 -0.532836,-0.141535 -0.22479,-0.145697 -0.349673,-0.391301 -0.124884,-0.245604 -0.124884,-0.541161 0,-0.29972 0.124884,-0.541162 0.124883,-0.245604 0.349673,-0.387138 0.228953,-0.145697 0.532836,-0.145697 0.258092,0 0.441255,0.09991 0.187325,0.09991 0.303882,0.270581 v -0.337185 h 0.312209 v 2.08139 H 49.847562 V 26.63987 q -0.116557,0.166512 -0.303882,0.266418 -0.183163,0.09991 -0.441255,0.09991 z m 0.04163,-0.283069 q 0.233115,0 0.391301,-0.108232 0.162348,-0.108233 0.245604,-0.287232 0.08326,-0.183162 0.08326,-0.395464 0,-0.216465 -0.08326,-0.395464 -0.08326,-0.179 -0.245604,-0.287232 -0.158186,-0.108232 -0.391301,-0.108232 -0.228953,0 -0.395464,0.108232 -0.166512,0.108232 -0.25393,0.287232 -0.08742,0.178999 -0.08742,0.395464 0,0.212302 0.08742,0.395464 0.08742,0.178999 0.25393,0.287232 0.166511,0.108232 0.395464,0.108232 z"
     style="font-size:4.16278px;font-family:Questrial;-inkscape-font-specification:'Questrial, Normal';letter-spacing:0px;word-spacing:0px;fill:#ffffff;stroke-width:0.0959977"
     id="path26174" />
  <path
     d="m 50.688441,24.541829 v -0.407952 h 0.337185 v 0.407952 z m 0.01249,2.431064 v -2.08139 h 0.312208 v 2.08139 z"
     style="font-size:4.16278px;font-family:Questrial;-inkscape-font-specification:'Questrial, Normal';letter-spacing:0px;word-spacing:0px;fill:#ffffff;stroke-width:0.0959977"
     id="path26176" />
  <path
     d="m 51.554299,26.972893 v -2.08139 h 0.312209 V 25.2162 q 0.112395,-0.14986 0.274743,-0.25393 0.162349,-0.104069 0.416278,-0.104069 0.216465,0 0.40379,0.104069 0.191488,0.09991 0.308046,0.303883 0.12072,0.199813 0.12072,0.495371 v 1.211369 h -0.312208 v -1.203044 q 0,-0.283069 -0.162349,-0.453743 -0.162348,-0.174836 -0.42044,-0.174836 -0.174837,0 -0.316372,0.07909 -0.141534,0.07909 -0.228953,0.224791 -0.08325,0.141534 -0.08325,0.328859 v 1.198881 z"
     style="font-size:4.16278px;font-family:Questrial;-inkscape-font-specification:'Questrial, Normal';letter-spacing:0px;word-spacing:0px;fill:#ffffff;stroke-width:0.0959977"
     id="path26178" />
  <path
     d="m 6.6093785,26.972893 -0.8159048,-2.08139 h 0.3413479 l 0.6577192,1.748367 0.6535565,-1.748367 h 0.3413479 l -0.8117421,2.08139 z"
     id="path26147"
     style="font-size:4.16278px;font-family:Questrial;-inkscape-font-specification:'Questrial, Normal';letter-spacing:0px;word-spacing:0px;fill:#e74a4a;stroke-width:0.0959977" />
  <path
     d="m 8.9821643,27.006195 q -0.3163712,0 -0.5494869,-0.141535 Q 8.1995617,26.718963 8.0746783,26.473359 7.949795,26.227755 7.949795,25.932198 q 0,-0.29972 0.1248833,-0.541162 0.1248834,-0.245604 0.3579991,-0.387138 0.2331157,-0.145697 0.5494869,-0.145697 0.3205341,0 0.549487,0.145697 0.2331157,0.141534 0.357999,0.387138 0.1248837,0.241442 0.1248837,0.541162 0,0.295557 -0.1248837,0.541161 -0.1248833,0.245604 -0.357999,0.391301 -0.2289529,0.141535 -0.549487,0.141535 z m 0,-0.283069 q 0.2331157,0 0.3913013,-0.108232 0.1623485,-0.108233 0.2456041,-0.287232 0.083256,-0.183162 0.083256,-0.395464 0,-0.216465 -0.083256,-0.395464 -0.083256,-0.179 -0.2456041,-0.287232 Q 9.21528,25.14127 8.9821643,25.14127 q -0.2289528,0 -0.3913013,0.108232 -0.1623484,0.108232 -0.245604,0.287232 -0.083256,0.178999 -0.083256,0.395464 0,0.212302 0.083256,0.395464 0.083256,0.178999 0.245604,0.287232 0.1623485,0.108232 0.3913013,0.108232 z"
     style="font-size:4.16278px;font-family:Questrial;-inkscape-font-specification:'Questrial, Normal';letter-spacing:0px;word-spacing:0px;fill:#ffffff;stroke-width:0.0959977"
     id="path26149" />
  <path
     d="m 10.426645,26.972893 v -2.913946 h 0.312209 v 2.913946 z"
     style="font-size:4.16278px;font-family:Questrial;-inkscape-font-specification:'Questrial, Normal';letter-spacing:0px;word-spacing:0px;fill:#ffffff;stroke-width:0.0959977"
     id="path26151" />
  <path
     d="m 12.091757,27.006195 q -0.212302,0 -0.40379,-0.09991 -0.191488,-0.104069 -0.312208,-0.303883 -0.116558,-0.203976 -0.116558,-0.499533 V 24.8915 h 0.312208 v 1.203043 q 0,0.283069 0.162349,0.457906 0.166511,0.170674 0.420441,0.170674 0.174836,0 0.316371,-0.07909 0.141534,-0.08326 0.22479,-0.22479 0.08742,-0.141534 0.08742,-0.32886 v -1.19888 h 0.312209 v 2.08139 H 12.78278 v -0.324697 q -0.112395,0.14986 -0.274743,0.25393 -0.162348,0.104069 -0.416278,0.104069 z"
     style="font-size:4.16278px;font-family:Questrial;-inkscape-font-specification:'Questrial, Normal';letter-spacing:0px;word-spacing:0px;fill:#ffffff;stroke-width:0.0959977"
     id="path26153" />
  <path
     d="m 13.636148,26.972893 v -2.08139 h 0.312209 v 0.316371 q 0.07077,-0.124883 0.22479,-0.237278 0.154023,-0.112395 0.407952,-0.112395 0.208139,0 0.382976,0.112395 0.179,0.108232 0.278906,0.308045 0.04163,-0.07077 0.129047,-0.170674 0.09158,-0.09991 0.237278,-0.174836 0.145697,-0.07493 0.349674,-0.07493 0.199813,0 0.37465,0.104069 0.174836,0.10407 0.283069,0.29972 0.112395,0.191488 0.112395,0.453743 v 1.25716 h -0.312209 v -1.248834 q 0,-0.262255 -0.14986,-0.420441 -0.145697,-0.162348 -0.366324,-0.162348 -0.228953,0 -0.395464,0.154022 -0.166512,0.154023 -0.166512,0.43293 v 1.244671 h -0.312208 v -1.248834 q 0,-0.262255 -0.14986,-0.420441 -0.145698,-0.162348 -0.366325,-0.162348 -0.228953,0 -0.395464,0.154022 -0.166511,0.154023 -0.166511,0.43293 v 1.244671 z"
     style="font-size:4.16278px;font-family:Questrial;-inkscape-font-specification:'Questrial, Normal';letter-spacing:0px;word-spacing:0px;fill:#ffffff;stroke-width:0.0959977"
     id="path26155" />
  <path
     d="m 18.173578,27.006195 q -0.316371,0 -0.55365,-0.141535 -0.237278,-0.145697 -0.370487,-0.391301 -0.129046,-0.245604 -0.129046,-0.541161 0,-0.29972 0.124883,-0.541162 0.124884,-0.245604 0.357999,-0.387138 0.233116,-0.145697 0.549487,-0.145697 0.320534,0 0.549487,0.145697 0.233116,0.141534 0.357999,0.387138 0.124884,0.241442 0.124884,0.541162 v 0.124883 h -1.744205 q 0.02498,0.183163 0.116558,0.337185 0.09574,0.14986 0.253929,0.241442 0.158186,0.08742 0.366325,0.08742 0.220627,0 0.370487,-0.09574 0.14986,-0.09991 0.233116,-0.25393 h 0.341348 q -0.108232,0.278907 -0.345511,0.457906 -0.233115,0.174837 -0.603603,0.174837 z m -0.728486,-1.240508 h 1.415345 q -0.04163,-0.266418 -0.22479,-0.445418 -0.183163,-0.178999 -0.482883,-0.178999 -0.29972,0 -0.482882,0.178999 -0.179,0.179 -0.22479,0.445418 z"
     style="font-size:4.16278px;font-family:Questrial;-inkscape-font-specification:'Questrial, Normal';letter-spacing:0px;word-spacing:0px;fill:#ffffff;stroke-width:0.0959977"
     id="path26157" />
  <path
     d="m 44.823377,57.044674 q -0.312208,0 -0.541161,-0.141535 -0.228953,-0.145697 -0.357999,-0.391301 -0.124884,-0.245604 -0.124884,-0.541161 0,-0.29972 0.124884,-0.541162 0.129046,-0.245604 0.357999,-0.387138 0.228953,-0.145698 0.541161,-0.145698 0.370488,0 0.62858,0.191488 0.262255,0.191488 0.353836,0.495371 h -0.337185 q -0.07077,-0.178999 -0.228953,-0.291394 -0.154023,-0.112396 -0.37465,-0.112396 -0.228953,0 -0.399627,0.108233 -0.170674,0.108232 -0.262255,0.287232 -0.09158,0.178999 -0.09158,0.395464 0,0.212301 0.09158,0.395464 0.09158,0.178999 0.262255,0.287232 0.170674,0.108232 0.399627,0.108232 0.220627,0 0.37465,-0.112395 0.158186,-0.112395 0.228953,-0.291395 h 0.337185 q -0.09158,0.303883 -0.353836,0.495371 -0.258092,0.191488 -0.62858,0.191488 z"
     id="path26206"
     style="font-size:4.16278px;font-family:Questrial;-inkscape-font-specification:'Questrial, Normal';letter-spacing:0px;word-spacing:0px;fill:#e74a4a;stroke-width:0.0959977" />
  <path
     d="m 47.096257,57.044674 q -0.316371,0 -0.549487,-0.141535 -0.233115,-0.145697 -0.357999,-0.391301 -0.124883,-0.245604 -0.124883,-0.541161 0,-0.29972 0.124883,-0.541162 0.124884,-0.245604 0.357999,-0.387138 0.233116,-0.145698 0.549487,-0.145698 0.320534,0 0.549487,0.145698 0.233116,0.141534 0.357999,0.387138 0.124884,0.241442 0.124884,0.541162 0,0.295557 -0.124884,0.541161 -0.124883,0.245604 -0.357999,0.391301 -0.228953,0.141535 -0.549487,0.141535 z m 0,-0.283069 q 0.233116,0 0.391302,-0.108232 0.162348,-0.108233 0.245604,-0.287232 0.08326,-0.183163 0.08326,-0.395464 0,-0.216465 -0.08326,-0.395464 -0.08326,-0.179 -0.245604,-0.287232 -0.158186,-0.108233 -0.391302,-0.108233 -0.228952,0 -0.391301,0.108233 -0.162348,0.108232 -0.245604,0.287232 -0.08326,0.178999 -0.08326,0.395464 0,0.212301 0.08326,0.395464 0.08326,0.178999 0.245604,0.287232 0.162349,0.108232 0.391301,0.108232 z"
     style="font-size:4.16278px;font-family:Questrial;-inkscape-font-specification:'Questrial, Normal';letter-spacing:0px;word-spacing:0px;fill:#ffffff;stroke-width:0.0959977"
     id="path26208" />
  <path
     d="m 48.540739,57.011372 v -2.913946 h 0.312208 v 2.913946 z"
     style="font-size:4.16278px;font-family:Questrial;-inkscape-font-specification:'Questrial, Normal';letter-spacing:0px;word-spacing:0px;fill:#ffffff;stroke-width:0.0959977"
     id="path26210" />
  <path
     d="m 50.297431,57.044674 q -0.316371,0 -0.549487,-0.141535 -0.233115,-0.145697 -0.357999,-0.391301 -0.124883,-0.245604 -0.124883,-0.541161 0,-0.29972 0.124883,-0.541162 0.124884,-0.245604 0.357999,-0.387138 0.233116,-0.145698 0.549487,-0.145698 0.320534,0 0.549487,0.145698 0.233116,0.141534 0.357999,0.387138 0.124884,0.241442 0.124884,0.541162 0,0.295557 -0.124884,0.541161 -0.124883,0.245604 -0.357999,0.391301 -0.228953,0.141535 -0.549487,0.141535 z m 0,-0.283069 q 0.233116,0 0.391302,-0.108232 0.162348,-0.108233 0.245604,-0.287232 0.08326,-0.183163 0.08326,-0.395464 0,-0.216465 -0.08326,-0.395464 -0.08326,-0.179 -0.245604,-0.287232 -0.158186,-0.108233 -0.391302,-0.108233 -0.228952,0 -0.391301,0.108233 -0.162348,0.108232 -0.245604,0.287232 -0.08325,0.178999 -0.08325,0.395464 0,0.212301 0.08325,0.395464 0.08326,0.178999 0.245604,0.287232 0.162349,0.108232 0.391301,0.108232 z"
     style="font-size:4.16278px;font-family:Questrial;-inkscape-font-specification:'Questrial, Normal';letter-spacing:0px;word-spacing:0px;fill:#ffffff;stroke-width:0.0959977"
     id="path26212" />
  <path
     d="m 52.553654,57.044674 q -0.212301,0 -0.403789,-0.09991 -0.191488,-0.104069 -0.312209,-0.303883 -0.116558,-0.203976 -0.116558,-0.499533 v -1.211369 h 0.312209 v 1.203043 q 0,0.283069 0.162348,0.457906 0.166511,0.170674 0.420441,0.170674 0.174837,0 0.316371,-0.07909 0.141535,-0.08326 0.22479,-0.22479 0.08742,-0.141535 0.08742,-0.32886 v -1.19888 h 0.312208 v 2.08139 h -0.312208 v -0.324697 q -0.112395,0.14986 -0.274744,0.253929 -0.162348,0.10407 -0.416279,0.10407 z"
     style="font-size:4.16278px;font-family:Questrial;-inkscape-font-specification:'Questrial, Normal';letter-spacing:0px;word-spacing:0px;fill:#ffffff;stroke-width:0.0959977"
     id="path26214" />
  <path
     d="m 54.098046,57.011372 v -2.08139 h 0.312208 v 0.512022 q 0.01665,-0.05412 0.06244,-0.141535 0.04995,-0.09158 0.141534,-0.183162 0.09158,-0.09158 0.228953,-0.154023 0.141535,-0.06661 0.333023,-0.06661 h 0.02081 v 0.312209 h -0.03747 q -0.233116,0 -0.40379,0.129046 -0.166511,0.124884 -0.258092,0.32886 -0.08742,0.199813 -0.08742,0.428766 v 0.915812 z"
     style="font-size:4.16278px;font-family:Questrial;-inkscape-font-specification:'Questrial, Normal';letter-spacing:0px;word-spacing:0px;fill:#ffffff;stroke-width:0.0959977"
     id="path26216" />
  <path
     d="m 34.868803,33.059177 q 0,0.231246 -0.07708,0.392113 -0.07708,0.157515 -0.201084,0.2413 -0.127353,0.08378 -0.274814,0.09384 v -0.261409 q 0.08378,-0.01005 0.164218,-0.05697 0.07708,-0.05027 0.127353,-0.150813 0.04692,-0.100541 0.04692,-0.261408 0,-0.05027 -0.01006,-0.124002 -0.01005,-0.07373 -0.03686,-0.140758 -0.02681,-0.07038 -0.08043,-0.117299 -0.05362,-0.04692 -0.137407,-0.04692 -0.103893,0 -0.160867,0.08043 -0.05697,0.08043 -0.08714,0.207786 -0.03351,0.127353 -0.06368,0.271463 -0.03016,0.140758 -0.07708,0.268111 -0.05027,0.127353 -0.137407,0.207786 -0.09049,0.08043 -0.244652,0.08043 -0.227894,0 -0.351896,-0.164218 -0.127353,-0.16757 -0.127353,-0.492655 0,-0.221191 0.07038,-0.358598 0.06703,-0.140759 0.174272,-0.211138 0.107244,-0.07373 0.231246,-0.08714 v 0.254706 q -0.107245,0.0134 -0.184327,0.107244 -0.07708,0.09049 -0.07708,0.301625 0,0.398816 0.2413,0.398816 0.100542,0 0.154164,-0.08043 0.05362,-0.08043 0.08714,-0.207786 0.03016,-0.127353 0.06032,-0.268111 0.02681,-0.14411 0.07708,-0.271463 0.05027,-0.127353 0.14411,-0.207786 0.09049,-0.08043 0.248003,-0.08043 0.244652,0 0.375356,0.187678 0.127353,0.184326 0.127353,0.496005 z"
     id="path26467"
     style="font-size:3.35139px;line-height:1.25;font-family:Questrial;-inkscape-font-specification:'Questrial, Normal';letter-spacing:0px;word-spacing:0px;fill:#e74a4a;stroke-width:0.0959997" />
  <path
     d="m 32.88478,32.063813 h -0.328436 v -0.271462 h 0.328436 z m 1.957211,-0.01005 h -1.675695 v -0.251354 h 1.675695 z"
     style="font-size:3.35139px;line-height:1.25;font-family:Questrial;-inkscape-font-specification:'Questrial, Normal';letter-spacing:0px;word-spacing:0px;fill:#ffffff;stroke-width:0.0959997"
     id="path26469" />
  <path
     d="m 32.036629,33.758901 h -2.345973 v -0.251354 h 2.345973 z"
     id="path26460"
     style="font-size:3.35139px;line-height:1.25;font-family:Questrial;-inkscape-font-specification:'Questrial, Normal';letter-spacing:0px;word-spacing:0px;fill:#e74a4a;stroke-width:0.0959997" />
  <path
     d="m 32.06344,32.327858 q 0,0.254706 -0.113947,0.445735 -0.117299,0.191029 -0.315031,0.298274 -0.197732,0.103893 -0.435681,0.103893 -0.2413,0 -0.43568,-0.100542 -0.197732,-0.100542 -0.31168,-0.288219 -0.117298,-0.187678 -0.117298,-0.442384 0,-0.258057 0.117298,-0.442383 0.113948,-0.187678 0.31168,-0.28822 0.19438,-0.100542 0.43568,-0.100542 h 0.100542 v 1.404233 q 0.147461,-0.02011 0.271463,-0.09384 0.12065,-0.07708 0.19438,-0.204435 0.07038,-0.127353 0.07038,-0.294922 0,-0.177624 -0.07708,-0.298274 -0.08043,-0.12065 -0.204434,-0.187678 V 31.56374 q 0.224543,0.08714 0.368652,0.278166 0.140759,0.187678 0.140759,0.485951 z m -0.998714,0.586493 v -1.139472 q -0.214489,0.03351 -0.358599,0.180975 -0.14411,0.147461 -0.14411,0.388761 0,0.2413 0.14411,0.388761 0.14411,0.14411 0.358599,0.180975 z"
     style="font-size:3.35139px;line-height:1.25;font-family:Questrial;-inkscape-font-specification:'Questrial, Normal';letter-spacing:0px;word-spacing:0px;fill:#ffffff;stroke-width:0.0959997"
     id="path26462" />
  <path
     d="m 32.06344,30.498002 q 0,0.244651 -0.113947,0.428978 -0.117299,0.180975 -0.315031,0.281517 -0.197732,0.100541 -0.435681,0.100541 -0.2413,0 -0.43568,-0.100541 -0.197732,-0.100542 -0.31168,-0.281517 -0.117298,-0.184327 -0.117298,-0.428978 0,-0.207786 0.08043,-0.355247 0.08043,-0.150813 0.21784,-0.244652 h -0.94174 v -0.251354 h 2.345973 v 0.251354 h -0.268111 q 0.134055,0.09384 0.214488,0.244652 0.08043,0.147461 0.08043,0.355247 z m -0.227895,-0.03351 q 0,-0.187678 -0.08714,-0.315031 -0.08714,-0.130704 -0.231246,-0.197732 -0.147461,-0.06703 -0.318382,-0.06703 -0.174272,0 -0.318382,0.06703 -0.14411,0.06703 -0.231246,0.197732 -0.08714,0.127353 -0.08714,0.315031 0,0.184326 0.08714,0.318382 0.08714,0.134056 0.231246,0.204435 0.14411,0.07038 0.318382,0.07038 0.170921,0 0.318382,-0.07038 0.14411,-0.07038 0.231246,-0.204435 0.08714,-0.134056 0.08714,-0.318382 z"
     style="font-size:3.35139px;line-height:1.25;font-family:Questrial;-inkscape-font-specification:'Questrial, Normal';letter-spacing:0px;word-spacing:0px;fill:#ffffff;stroke-width:0.0959997"
     id="path26464" />
  <path
     d="m 29.304957,32.97226 q 0,0.315031 -0.137407,0.512763 -0.134056,0.197732 -0.351896,0.268111 v -0.278165 q 0.124001,-0.05027 0.191029,-0.174272 0.07038,-0.124002 0.07038,-0.315031 0,-0.288219 -0.137407,-0.418924 -0.134055,-0.134055 -0.392112,-0.134055 h -0.231246 q 0.134056,0.09384 0.21784,0.244651 0.08043,0.147461 0.08043,0.355248 0,0.244651 -0.110596,0.428977 -0.113948,0.180975 -0.308328,0.281517 -0.194381,0.100542 -0.432329,0.100542 -0.2413,0 -0.43233,-0.100542 -0.19438,-0.100542 -0.304976,-0.281517 -0.113947,-0.184326 -0.113947,-0.428977 0,-0.207787 0.08043,-0.355248 0.07708,-0.150812 0.214489,-0.244651 H 26.93887 v -0.251355 h 1.62543 q 0.358598,0 0.549628,0.207787 0.191029,0.204434 0.191029,0.583141 z m -0.918281,0.02681 q 0,-0.184327 -0.08379,-0.31168 -0.08378,-0.130704 -0.224543,-0.197732 -0.14411,-0.07038 -0.31503,-0.07038 -0.174273,0 -0.315031,0.07038 -0.140758,0.06703 -0.224543,0.197732 -0.08378,0.127353 -0.08378,0.31168 0,0.184326 0.08378,0.318382 0.08378,0.134055 0.224543,0.204434 0.140758,0.07038 0.315031,0.07038 0.17092,0 0.31503,-0.07038 0.140759,-0.07038 0.224543,-0.204434 0.08379,-0.134056 0.08379,-0.318382 z"
     id="path26455"
     style="font-size:3.35139px;line-height:1.25;font-family:Questrial;-inkscape-font-specification:'Questrial, Normal';letter-spacing:0px;word-spacing:0px;fill:#e74a4a;stroke-width:0.0959997" />
  <path
     d="m 28.641382,31.001646 q 0,0.254705 -0.113948,0.445734 -0.117298,0.19103 -0.31503,0.298274 -0.197732,0.103893 -0.435681,0.103893 -0.2413,0 -0.435681,-0.100542 -0.197732,-0.100541 -0.311679,-0.288219 -0.117298,-0.187678 -0.117298,-0.442384 0,-0.258057 0.117298,-0.442383 0.113947,-0.187678 0.311679,-0.28822 0.194381,-0.100541 0.435681,-0.100541 h 0.100542 v 1.404232 q 0.147461,-0.02011 0.271462,-0.09384 0.12065,-0.07708 0.194381,-0.204435 0.07038,-0.127352 0.07038,-0.294922 0,-0.177624 -0.07708,-0.298274 -0.08043,-0.12065 -0.204435,-0.187677 v -0.274814 q 0.224544,0.08714 0.368653,0.278165 0.140759,0.187678 0.140759,0.485952 z m -0.998714,0.586493 v -1.139473 q -0.214489,0.03351 -0.358599,0.180975 -0.14411,0.147461 -0.14411,0.388761 0,0.241301 0.14411,0.388762 0.14411,0.144109 0.358599,0.180975 z"
     style="font-size:3.35139px;line-height:1.25;font-family:Questrial;-inkscape-font-specification:'Questrial, Normal';letter-spacing:0px;word-spacing:0px;fill:#ffffff;stroke-width:0.0959997"
     id="path26457" />
  <path
     style="color:#000000;fill:#505050;-inkscape-stroke:none"
     d="m 33.994141,34.5 v 1.099609 h 0.201171 V 34.5 Z"
     id="path3384" />
  <path
     style="color:#000000;fill:#505050;-inkscape-stroke:none"
     d="m 30.902344,34.5 v 0.900391 h 0.199218 V 34.5 Z"
     id="path3382" />
  <path
     style="color:#000000;fill:#505050;-inkscape-stroke:none"
     d="m 27.900391,34.5 v 1.099609 h 0.199218 V 34.5 Z"
     id="path3380" />
  <path
     style="color:#000000;fill:#505050;-inkscape-stroke:none"
     d="m 28.099609,35.400391 v 0.201171 h 5.894532 v -0.201171 z"
     id="path3376" />
  <path
     style="color:#000000;fill:#505050;-inkscape-stroke:none"
     d="m 30.900391,35.599609 v 6 h 0.201171 l -0.002,-6 z"
     id="path3367" />
  <path
     id="rect7321-12-0"
     style="fill:#ff0000;stroke:#000000;stroke-width:0"
     inkscape:label="contour"
     d="m 39.824265,83.109323 c -0.0387,10e-4 -0.0774,0.004 -0.11679,0.008 l -17.295581,1.97921 c -0.629962,0.0721 -1.181841,0.57823 -1.181841,1.176148 v 0.83665 H -0.0849246 v 0.49971 H 21.230053 v 0.32039 H -0.0849246 v 0.26975 H 21.230053 v 0.49765 H -0.0849246 v 0.49971 H 21.230053 v 0.32039 H -0.0849246 v 0.26975 H 21.230053 v 0.49765 H -0.0849246 v 0.49971 H 21.230053 v 0.32039 H -0.0849246 v 0.26975 H 21.230053 v 0.49765 H -0.0849246 v 0.49971 H 21.230053 v 0.32039 H -0.0849246 v 0.26975 H 21.230053 v 2.85203 c 0,0.59792 0.551879,0.97798 1.181841,0.90588 l 17.295581,-1.9792 c 0.62996,-0.0721 1.18339,-0.57875 1.18339,-1.17668 v -0.60203 h 21.19406 v -0.26975 h -21.19406 v -0.32039 h 21.19406 v -0.49971 h -21.19406 v -0.49765 h 21.19406 v -0.26975 h -21.19406 v -0.32039 h 21.19406 v -0.49971 h -21.19406 v -0.49765 h 21.19406 v -0.26975 h -21.19406 v -0.32039 h 21.19406 v -0.49971 h -21.19406 v -0.49765 h 21.19406 v -0.26975 h -21.19406 v -0.32039 h 21.19406 v -0.49971 h -21.19406 v -3.086618 c 0,-0.56056 -0.48669,-0.92914 -1.0666,-0.91364 z m -0.0424,0.50436 c 0.36464,-0.012 0.6103,0.2065 0.6103,0.46664 v 9.541018 c 0,0.27748 -0.27948,0.57063 -0.68472,0.61701 l -17.295581,1.97973 c -0.405239,0.0464 -0.684715,-0.18348 -0.684715,-0.46095 v -9.54103 c 0,-0.277468 0.279476,-0.570628 0.684715,-0.617008 l 17.295581,-1.97973 c 0.0253,-0.003 0.0501,-0.005 0.0744,-0.006 z m -0.55604,0.32246 c -0.0328,0.001 -0.0662,0.003 -0.0997,0.007 l -16.132347,1.85002 c -0.536421,0.0615 -0.997355,0.468028 -0.997355,0.940508 v 8.44909 c 0,0.47249 0.460934,0.77362 0.997355,0.71211 l 16.132347,-1.85002 c 0.53642,-0.0615 0.99581,-0.46803 0.99581,-0.94051 v -8.449098 c 0,-0.44295 -0.40365,-0.73521 -0.89607,-0.71933 z m -0.0207,0.25321 c 0.38835,-0.0136 0.66611,0.21113 0.66611,0.49507 v 8.449088 c 0,0.25949 -0.34608,0.61415 -0.74517,0.65991 l -16.132351,1.8495 c -0.429186,0.0492 -0.745173,-0.186 -0.745173,-0.48886 v -8.4491 c 0,-0.27647 0.367078,-0.61604 0.745173,-0.65939 l 16.132351,-1.850008 c 0.0268,-0.003 0.0532,-0.005 0.0791,-0.006 z" />
</svg>
